/* XPM */
static char * arrow_down_16x16_xpm[] = {
"16 16 3 1",
" 	c None",
".	c #008000",
"+	c #000000",
"     ......     ",
"    .++++++.    ",
"    .+....+.    ",
".....+....+.....",
". ++++....++++ .",
" .+..........+. ",
" ..+........+.. ",
"  .++......++.  ",
"   .+......+.   ",
"   ..+....+ .   ",
"    .++..++.    ",
"     .+..+..    ",
"     . ++ .     ",
"      .++.      ",
"      ....      ",
"       ..       "};
