/* XPM */
static char * arrow_dwn_16x16_xpm[] = {
"16 16 110 2",
"  	c None",
". 	c #F8A89E",
"+ 	c #F59990",
"@ 	c #F49A90",
"# 	c #F6A299",
"$ 	c #E96D69",
"% 	c #FAB1A3",
"& 	c #FED1AF",
"* 	c #FCA17E",
"= 	c #FCA785",
"- 	c #FFAF89",
"; 	c #EF7463",
"> 	c #F9A39B",
", 	c #FCB799",
"' 	c #FA8664",
") 	c #FA8E6E",
"! 	c #FE9B77",
"~ 	c #ED6658",
"{ 	c #F89895",
"] 	c #FCBB9D",
"^ 	c #FA8C6C",
"/ 	c #FA8A6A",
"( 	c #FE7F5A",
"_ 	c #E63E30",
": 	c #F8948F",
"< 	c #FC9B79",
"[ 	c #F84927",
"} 	c #F64629",
"| 	c #FC4A2A",
"1 	c #E6231A",
"2 	c #F4655D",
"3 	c #FB7451",
"4 	c #F73D21",
"5 	c #F7492D",
"6 	c #FC4A2D",
"7 	c #E6261D",
"8 	c #F5635C",
"9 	c #FA7656",
"0 	c #F73A20",
"a 	c #F7422A",
"b 	c #FC462A",
"c 	c #E6241B",
"d 	c #F5625B",
"e 	c #F96F51",
"f 	c #F7351D",
"g 	c #F73F26",
"h 	c #FB4028",
"i 	c #E5211A",
"j 	c #F5615A",
"k 	c #F96B4E",
"l 	c #F7301A",
"m 	c #F53824",
"n 	c #FB3B24",
"o 	c #E61F1B",
"p 	c #F41015",
"q 	c #F40F14",
"r 	c #F41619",
"s 	c #EC0000",
"t 	c #F36059",
"u 	c #FA684D",
"v 	c #F62B19",
"w 	c #F63521",
"x 	c #FB3423",
"y 	c #E41B17",
"z 	c #B30209",
"A 	c #B8080B",
"B 	c #AF070A",
"C 	c #AB070A",
"D 	c #F3040D",
"E 	c #F98377",
"F 	c #F97455",
"G 	c #F62A16",
"H 	c #F73825",
"I 	c #F62E1E",
"J 	c #F62D1F",
"K 	c #F62B1E",
"L 	c #F7281F",
"M 	c #FF2D21",
"N 	c #F01F1A",
"O 	c #AF0609",
"P 	c #F10008",
"Q 	c #F87A6F",
"R 	c #FA5844",
"S 	c #F4170C",
"T 	c #F62A1F",
"U 	c #F6271E",
"V 	c #F5251D",
"W 	c #FD251F",
"X 	c #EF1A18",
"Y 	c #B8050A",
"Z 	c #EE0009",
"` 	c #F7756F",
" .	c #F85042",
"..	c #F4140C",
"+.	c #F6221D",
"@.	c #FB211B",
"#.	c #F81B19",
"$.	c #BF080C",
"%.	c #E80008",
"&.	c #F66F6D",
"*.	c #F9433C",
"=.	c #F90F0D",
"-.	c #F71919",
";.	c #CA0B0E",
">.	c #E10005",
",.	c #FD7577",
"'.	c #FC3838",
").	c #C90308",
"!.	c #D61116",
"~.	c #CB2125",
"          . . + @ # $           ",
"          % & * = - ;           ",
"          > , ' ) ! ~           ",
"          { ] ^ / ( _           ",
"          : < [ } | 1           ",
"          2 3 4 5 6 7           ",
"          8 9 0 a b c           ",
"          d e f g h i           ",
"          j k l m n o           ",
"  p q r s t u v w x y z A B C   ",
"    D E F G H I J K L M N O     ",
"      P Q R S T U V W X Y       ",
"        Z `  ...+.@.#.$.        ",
"          %.&.*.=.-.;.          ",
"            >.,.'.).            ",
"              !.~.              "};
