/* XPM */
static char * arrow_right_16x16_xpm[] = {
"16 16 30 1",
" 	c None",
".	c #008000",
"+	c #007A00",
"@	c #007F00",
"#	c #007B00",
"$	c #002C00",
"%	c #003600",
"&	c #007200",
"*	c #003100",
"=	c #006F00",
"-	c #003800",
";	c #003000",
">	c #007500",
",	c #007900",
"'	c #007300",
")	c #007700",
"!	c #003400",
"~	c #007000",
"{	c #003300",
"]	c #003500",
"^	c #007600",
"/	c #007400",
"(	c #003200",
"_	c #002A00",
":	c #002E00",
"<	c #002B00",
"[	c #002F00",
"}	c #003700",
"|	c #007100",
"1	c #002D00",
"   ..           ",
"   . +@         ",
"   #$%&+        ",
"   +*=-;>@      ",
" +,'*+)!%~+@    ",
"+{;*]#.#^-;/@   ",
"+(>##....)!]=+@ ",
"+{+.......#^_:,.",
"+{+.......#^<[+.",
"+(>##....)!%~+@ ",
"+{*(]#.#^-;/@   ",
" ++/(+)!}|+     ",
"   +*=-*>@      ",
"   #1}'+        ",
"   .)+@         ",
"   ..           "};
