/* XPM */
static char * boss_16x16_xpm[] = {
"16 16 145 2",
"  	c None",
". 	c #45464D",
"+ 	c #44454C",
"@ 	c #44444B",
"# 	c #444549",
"$ 	c #42444A",
"% 	c #3F4247",
"& 	c #404146",
"* 	c #30323C",
"= 	c #252735",
"- 	c #2A2C39",
"; 	c #3B3C41",
"> 	c #3B3D41",
", 	c #3A3C42",
"' 	c #1B1F30",
") 	c #70725D",
"! 	c #989771",
"~ 	c #4C4D46",
"{ 	c #1A1E2E",
"] 	c #212430",
"^ 	c #131B2D",
"/ 	c #313034",
"( 	c #F2EA99",
"_ 	c #FFFFB6",
": 	c #FFFDA7",
"< 	c #5D584A",
"[ 	c #817B66",
"} 	c #D9B874",
"| 	c #FFE795",
"1 	c #FFE89A",
"2 	c #FCD58B",
"3 	c #FFF49A",
"4 	c #CFC684",
"5 	c #FFEFAC",
"6 	c #FFE88C",
"7 	c #FFD074",
"8 	c #FBC45B",
"9 	c #FAC356",
"0 	c #FFCE59",
"a 	c #E9AF4F",
"b 	c #FFD086",
"c 	c #F9B949",
"d 	c #F8B03A",
"e 	c #FAB33E",
"f 	c #F9B340",
"g 	c #FFC347",
"h 	c #F2A137",
"i 	c #EA802D",
"j 	c #FFBF4C",
"k 	c #FCA62B",
"l 	c #FAAA3A",
"m 	c #FAAB3A",
"n 	c #FFAE27",
"o 	c #96440B",
"p 	c #897872",
"q 	c #FFC37B",
"r 	c #F08A19",
"s 	c #FD870A",
"t 	c #F48102",
"u 	c #FDA955",
"v 	c #9D939B",
"w 	c #6D6F73",
"x 	c #FFFFFF",
"y 	c #FFFEFD",
"z 	c #F6D8CA",
"A 	c #D5BBA4",
"B 	c #EDCFBA",
"C 	c #4A4950",
"D 	c #1C1E22",
"E 	c #76757A",
"F 	c #7A7B7F",
"G 	c #78797D",
"H 	c #C2ECFF",
"I 	c #56CEFF",
"J 	c #BEF4FF",
"K 	c #FFF8F5",
"L 	c #929398",
"M 	c #292A32",
"N 	c #3D3E43",
"O 	c #232428",
"P 	c #36373C",
"Q 	c #96969A",
"R 	c #2F2F35",
"S 	c #24252A",
"T 	c #716E70",
"U 	c #70C1EB",
"V 	c #969396",
"W 	c #1A1A21",
"X 	c #3F4045",
"Y 	c #434449",
"Z 	c #2A2B30",
"` 	c #2E3033",
" .	c #74767A",
"..	c #54565C",
"+.	c #303337",
"@.	c #2A2C32",
"#.	c #555357",
"$.	c #FCFFFF",
"%.	c #55AFE4",
"&.	c #FAFFFF",
"*.	c #847F80",
"=.	c #212227",
"-.	c #393B40",
";.	c #3B3D42",
">.	c #34373A",
",.	c #1E2023",
"'.	c #424347",
").	c #76797E",
"!.	c #36383E",
"~.	c #333539",
"{.	c #2E3036",
"].	c #433D3B",
"^.	c #D4EFFD",
"/.	c #1D90D4",
"(.	c #D4F9FF",
"_.	c #6C6663",
":.	c #1B1E24",
"<.	c #37393E",
"[.	c #393D3F",
"}.	c #1C1E21",
"|.	c #35383A",
"1.	c #515355",
"2.	c #2F3135",
"3.	c #323438",
"4.	c #34363C",
"5.	c #382B27",
"6.	c #C6EEFF",
"7.	c #008BEB",
"8.	c #9AEAFF",
"9.	c #87756D",
"0.	c #1B2025",
"a.	c #2D2F33",
"b.	c #292A2E",
"c.	c #1A1B1F",
"d.	c #121317",
"e.	c #17181A",
"f.	c #181A1E",
"g.	c #181213",
"h.	c #475862",
"i.	c #003156",
"j.	c #305068",
"k.	c #392F2C",
"l.	c #0E0E12",
"m.	c #17181C",
"n.	c #121215",
"          . . + @ #             ",
"        $ % & * = - ;           ",
"        > , ' ) ! ~ {           ",
"        ] ^ / ( _ : <           ",
"        [ } | 1 2 3 4           ",
"        5 6 7 8 9 0 a           ",
"        b c d e f g h           ",
"        i j k l m n o           ",
"        p q r s t u v           ",
"      w x y z A B x x C D       ",
"    E F G x H I J K L M N O     ",
"  P Q R S T x U x V W X Y Z     ",
"`  ...+.@.#.$.%.&.*.=.-.;.>.,.  ",
"'.).!.~.{.].^./.(._.:.!.<.[.}.  ",
"|.1.2.3.4.5.6.7.8.9.0.3.a.b.c.  ",
"    d.e.f.g.h.i.j.k.l.m.n.      "};
