/* XPM */
static char * cd_16x16_xpm[] = {
"16 16 194 2",
"  	c None",
". 	c #45A8E3",
"+ 	c #69B3E6",
"@ 	c #81BFEA",
"# 	c #83C1EB",
"$ 	c #69B3E5",
"% 	c #40A2E0",
"& 	c #359DDF",
"* 	c #9FC7ED",
"= 	c #D2DAF3",
"- 	c #EFEBF7",
"; 	c #F6F3FC",
"> 	c #FFFBFF",
", 	c #FFF5FC",
"' 	c #EEEEFA",
") 	c #B1D0EF",
"! 	c #2993D9",
"~ 	c #45A2DE",
"{ 	c #C3D4F2",
"] 	c #D1D6F0",
"^ 	c #C9D8F2",
"/ 	c #D0DEF6",
"( 	c #E2EDFA",
"_ 	c #E6EDFB",
": 	c #DBE6F8",
"< 	c #F1F3FD",
"[ 	c #FFF6FD",
"} 	c #D9DEF3",
"| 	c #3D97D8",
"1 	c #2F90D4",
"2 	c #C1D2F0",
"3 	c #BDCFEE",
"4 	c #BDCFEF",
"5 	c #C8D9F3",
"6 	c #D7E2F6",
"7 	c #E8EFFC",
"8 	c #E8EEFA",
"9 	c #E0E6F8",
"0 	c #ECF1FE",
"a 	c #D9E3F7",
"b 	c #F8F4FE",
"c 	c #E1E6F8",
"d 	c #2284CE",
"e 	c #98BFE7",
"f 	c #C6D1EF",
"g 	c #B5CCEC",
"h 	c #C2D4F0",
"i 	c #CBDCF3",
"j 	c #DBE7F8",
"k 	c #F0F5FF",
"l 	c #E4EBFB",
"m 	c #E8EEFB",
"n 	c #EDF0FC",
"o 	c #ECF0FC",
"p 	c #FDF6FF",
"q 	c #9EBFE5",
"r 	c #3A8BCD",
"s 	c #B3C9ED",
"t 	c #BBCFEE",
"u 	c #C4D6F1",
"v 	c #D0DEF5",
"w 	c #DEE7FA",
"x 	c #F5F7FF",
"y 	c #E9ECFB",
"z 	c #ECF2FE",
"A 	c #F9FAFE",
"B 	c #F2F5FD",
"C 	c #E7ECFB",
"D 	c #E8ECFB",
"E 	c #DFE4F5",
"F 	c #2C7EC6",
"G 	c #5B9BD2",
"H 	c #D4DCF5",
"I 	c #AFC8EB",
"J 	c #BCCFEF",
"K 	c #C5D5F2",
"L 	c #D6E2F5",
"M 	c #E3ECFB",
"N 	c #B0CDEC",
"O 	c #A2C5E7",
"P 	c #EFF2FD",
"Q 	c #F6F7FF",
"R 	c #F2F4FD",
"S 	c #E8EDFB",
"T 	c #DEE6F9",
"U 	c #FBF3FB",
"V 	c #528DCE",
"W 	c #6FA8D9",
"X 	c #BFCFEE",
"Y 	c #B0C9ED",
"Z 	c #BACDED",
"` 	c #C5D6F1",
" .	c #ECEFFE",
"..	c #B4CEEC",
"+.	c #B2CCE9",
"@.	c #FFFEFF",
"#.	c #F7F9FF",
"$.	c #E3EAFA",
"%.	c #FAF7FE",
"&.	c #6699D1",
"*.	c #6CA4D7",
"=.	c #C2D0F0",
"-.	c #BED1EF",
";.	c #CFDCF4",
">.	c #E5EEFA",
",.	c #F7FAFF",
"'.	c #BBD5EB",
").	c #ACCBE9",
"!.	c #FEFEFF",
"~.	c #DFE8F8",
"{.	c #D9E1F5",
"].	c #CEDAF2",
"^.	c #E6E9FB",
"/.	c #6093CD",
"(.	c #568FC7",
"_.	c #FFFCFF",
":.	c #E2E9FA",
"<.	c #F2F5FE",
"[.	c #F8FAFF",
"}.	c #EFF6FE",
"|.	c #E6F3FE",
"1.	c #ADC9E7",
"2.	c #B7CFE8",
"3.	c #F9FBFF",
"4.	c #DFE7F8",
"5.	c #C6D2EF",
"6.	c #C0CEED",
"7.	c #B8C9EC",
"8.	c #DADEF6",
"9.	c #487EC1",
"0.	c #276CB3",
"a.	c #EBF2FD",
"b.	c #E5E8F9",
"c.	c #E5EAFA",
"d.	c #EBF1FD",
"e.	c #F9FAFF",
"f.	c #F0F5FD",
"g.	c #E4E7F9",
"h.	c #FFFFFF",
"i.	c #E7EDFB",
"j.	c #D3DCF5",
"k.	c #CAD7EF",
"l.	c #C2D0EF",
"m.	c #C4D2F0",
"n.	c #C5D1F0",
"o.	c #1B5FAC",
"p.	c #A2BEE2",
"q.	c #FBFAFF",
"r.	c #DFE7F7",
"s.	c #E9EEFB",
"t.	c #F4F7FF",
"u.	c #DCE4F6",
"v.	c #F2F8FF",
"w.	c #DBE5F7",
"x.	c #D1DCF3",
"y.	c #C9D5EF",
"z.	c #BFCEED",
"A.	c #DBE1FA",
"B.	c #84A5D5",
"C.	c #0850A1",
"D.	c #E0EDFB",
"E.	c #F1F2FF",
"F.	c #F1F5FE",
"G.	c #E2E8F9",
"H.	c #EEF3FD",
"I.	c #D9E1F6",
"J.	c #CED9F2",
"K.	c #C4D2EE",
"L.	c #D4DBF6",
"M.	c #C0CEF0",
"N.	c #044A9C",
"O.	c #1B60A8",
"P.	c #E1ECFA",
"Q.	c #F2F6FF",
"R.	c #C8D2EF",
"S.	c #E5EFFA",
"T.	c #D5DDF3",
"U.	c #E3E9FD",
"V.	c #C2D3F0",
"W.	c #1255A2",
"X.	c #004095",
"Y.	c #A8BFDE",
"Z.	c #E6F1FE",
"`.	c #F7F4FF",
" +	c #FDFCFF",
".+	c #D0E0F6",
"++	c #8AA5D3",
"@+	c #003D92",
"#+	c #164C98",
"$+	c #4B70AF",
"%+	c #5D8BBF",
"&+	c #5888BF",
"*+	c #4A6EAE",
"=+	c #114796",
"          . + @ # $ %           ",
"      & * = - ; > , ' ) !       ",
"    ~ { ] ^ / ( _ : < [ } |     ",
"  1 2 3 4 5 6 7 8 9 0 a b c d   ",
"  e f g h i j k l m n o m p q   ",
"r h s t u v w x y z A B C D E F ",
"G H I J K L M N O P Q R S T U V ",
"W X Y Z `  ...    +.@.#.o $.%.&.",
"*.=.-.;.>.,.'.    ).!.~.{.].^./.",
"(._.:.<.[.}.|.1.2.3.4.5.6.7.8.9.",
"0.a.b.c.d.e.f.g.h.i.j.k.l.m.n.o.",
"  p.q.r.s.t.8 u.v.w.x.y.z.A.B.  ",
"  C.D.E.c F.j.G.H.I.J.K.L.M.N.  ",
"    O.P.h.Q.R.c.S.j.T.U.V.W.    ",
"      X.Y.Z.`.h.h. +.+++@+      ",
"          #+$+%+&+*+=+          "};
