/* XPM */
static char * clock_16x16_xpm[] = {
"16 16 152 2",
"  	c None",
". 	c #90A5B4",
"+ 	c #8DE2FD",
"@ 	c #92DFF9",
"# 	c #7BD0F3",
"$ 	c #79CDF1",
"% 	c #B6EAFA",
"& 	c #A8E9FF",
"* 	c #8499A8",
"= 	c #B3E8FC",
"- 	c #8FE8FF",
"; 	c #7ED2F5",
"> 	c #52BAEC",
", 	c #239FDF",
"' 	c #64BCE8",
") 	c #68C4ED",
"! 	c #6CCDF5",
"~ 	c #8EEAFF",
"{ 	c #93E1FB",
"] 	c #A5E1F6",
"^ 	c #AADFF5",
"/ 	c #55BBED",
"( 	c #309FDB",
"_ 	c #1B96D9",
": 	c #64C1EE",
"< 	c #AFE1F7",
"[ 	c #C9EDFB",
"} 	c #CAEDFC",
"| 	c #B2E2F6",
"1 	c #67C2EF",
"2 	c #1392D9",
"3 	c #2697D7",
"4 	c #56BCEC",
"5 	c #7BD1F1",
"6 	c #81D3F4",
"7 	c #5DBCEC",
"8 	c #7ECFF1",
"9 	c #34A2DD",
"0 	c #D0E9F7",
"a 	c #EFFDFF",
"b 	c #A1DDF7",
"c 	c #76CDF5",
"d 	c #75CAF2",
"e 	c #72C8F0",
"f 	c #F0FFFF",
"g 	c #CEE8F5",
"h 	c #379FD9",
"i 	c #40B1E7",
"j 	c #4AB6E7",
"k 	c #DAF5FE",
"l 	c #CDEFFF",
"m 	c #6DC7F0",
"n 	c #E6E2E1",
"o 	c #969495",
"p 	c #444445",
"q 	c #D9E2E9",
"r 	c #6CC7F1",
"s 	c #CAF0FF",
"t 	c #DFF7FF",
"u 	c #BFE6F8",
"v 	c #C6EAFB",
"w 	c #71CDF6",
"x 	c #FAF0ED",
"y 	c #FFFFFF",
"z 	c #E5E2E1",
"A 	c #74CEF7",
"B 	c #C5EDFF",
"C 	c #B8E2F7",
"D 	c #4EA6DE",
"E 	c #DEF8FE",
"F 	c #75CCF5",
"G 	c #6C6D6E",
"H 	c #EBEAEA",
"I 	c #EBEDEF",
"J 	c #E2E1E2",
"K 	c #79CFF6",
"L 	c #E2FAFF",
"M 	c #4EA4DD",
"N 	c #5FB4E5",
"O 	c #7ACCF2",
"P 	c #CFECF9",
"Q 	c #F6F6F6",
"R 	c #434042",
"S 	c #FDFEFF",
"T 	c #E7E9EC",
"U 	c #7CD3F9",
"V 	c #8CD7FA",
"W 	c #5CAFE4",
"X 	c #6BBCE9",
"Y 	c #70D8FF",
"Z 	c #6B6B6C",
"` 	c #FCFDFE",
" .	c #000000",
"..	c #5BCAFF",
"+.	c #62B9E7",
"@.	c #45A6E1",
"#.	c #68CCF8",
"$.	c #CED3D8",
"%.	c #F7F7F9",
"&.	c #F0F2F1",
"*.	c #D2D4D4",
"=.	c #B4B3B6",
"-.	c #9BA2AB",
";.	c #5BC7FC",
">.	c #3A9FDB",
",.	c #308FD5",
"'.	c #45BDF0",
").	c #CEE5F1",
"!.	c #EDF0F0",
"~.	c #F0F1F3",
"{.	c #E7EAEC",
"].	c #C8C8CC",
"^.	c #A8C4DA",
"/.	c #42BEF4",
"(.	c #2A86D0",
"_.	c #37B3EC",
":.	c #7FC9F0",
"<.	c #6A6869",
"[.	c #E6E2DE",
"}.	c #E7E7EB",
"|.	c #DEE1E3",
"1.	c #2CB9F9",
"2.	c #29ABE9",
"3.	c #2480D0",
"4.	c #2EB7F3",
"5.	c #28B9FB",
"6.	c #B8E0F7",
"7.	c #F2ECEA",
"8.	c #2BBBFB",
"9.	c #36BDF7",
"0.	c #1A79CC",
"a.	c #177DCC",
"b.	c #15ADF7",
"c.	c #27B6F6",
"d.	c #BADFF5",
"e.	c #29B7F6",
"f.	c #0DA7F7",
"g.	c #0F78C8",
"h.	c #4C4448",
"i.	c #1865B1",
"j.	c #0587DA",
"k.	c #0895DF",
"l.	c #33BFFC",
"m.	c #31BEFA",
"n.	c #0691DF",
"o.	c #0083D8",
"p.	c #1461AF",
"q.	c #4C4249",
"r.	c #6F645D",
"s.	c #0954AD",
"t.	c #0955AC",
"u.	c #6D635C",
"    . + @ #         $ % & *     ",
"  = - ; > ,         ' ) ! ~ {   ",
"] ^ / ( _ : < [ } | 1 2 3 4 5 6 ",
"7 8   9 0 a b c d e f g h   i j ",
"      k l m n o p q r s t       ",
"    u v w x y o z z n A B C     ",
"  D E F G H y G I I J p K L M   ",
"  N O P y Q y R S S T T U V W   ",
"  X Y Z ` ` y  . .R R G p ..+.  ",
"  @.#.$.%.%.&.*.*.*.*.=.-.;.>.  ",
"  ,.'.).y y &.!.~.{.*.].^./.(.  ",
"    _.:.<.[.}.}.|.*.*.p 1.2.    ",
"    3.4.5.6.7.7.|.*.6.8.9.0.    ",
"      a.b.c.d.7.p 6.e.f.g.      ",
"      h.i.j.k.l.m.n.o.p.q.      ",
"      r.      s.t.      u.      "};
