/* XPM */
static char * copy_16x16_xpm[] = {
"16 16 151 2",
"  	c None",
". 	c #93B2C6",
"+ 	c #D7E2E9",
"@ 	c #B3C6D6",
"# 	c #9CBAC9",
"$ 	c #7CA3BC",
"% 	c #4E85A3",
"& 	c #2B6C92",
"* 	c #B3C9D4",
"= 	c #FFFFFF",
"- 	c #F5FAFC",
"; 	c #DCE6ED",
"> 	c #C1D0DC",
", 	c #80A7C0",
"' 	c #598CA9",
") 	c #296992",
"! 	c #A6BFD1",
"~ 	c #F9FBF9",
"{ 	c #EAEEF2",
"] 	c #DAE3EB",
"^ 	c #98B5CA",
"/ 	c #E5EAF1",
"( 	c #6C99B6",
"_ 	c #3B779C",
": 	c #A2BECE",
"< 	c #FAF8F8",
"[ 	c #F7FAFA",
"} 	c #F3FAFB",
"| 	c #99B4C9",
"1 	c #90B0C5",
"2 	c #84A5C0",
"3 	c #709BB7",
"4 	c #5489A7",
"5 	c #20628A",
"6 	c #9CB9CA",
"7 	c #F7F8F8",
"8 	c #FFF9F9",
"9 	c #FCFDFC",
"0 	c #DFEBEF",
"a 	c #98B7C9",
"b 	c #F6F8F9",
"c 	c #D5E0EA",
"d 	c #B5CBD6",
"e 	c #8BAFC7",
"f 	c #3A789B",
"g 	c #4C7F9F",
"h 	c #99B6C7",
"i 	c #EEF7F7",
"j 	c #F9F9FB",
"k 	c #FDFBFB",
"l 	c #F2F6F6",
"m 	c #9DB9C9",
"n 	c #E5EDF2",
"o 	c #D0D9E3",
"p 	c #A2BDD1",
"q 	c #90AEC5",
"r 	c #E1E6EA",
"s 	c #739EB8",
"t 	c #8AADC2",
"u 	c #E6EBF3",
"v 	c #EBF0F6",
"w 	c #F3F4F9",
"x 	c #F1F9FA",
"y 	c #99B5C8",
"z 	c #FBFAF8",
"A 	c #F6FAF9",
"B 	c #E2ECF2",
"C 	c #CAD9E4",
"D 	c #A7BFD0",
"E 	c #DCE3EC",
"F 	c #6B96B5",
"G 	c #095381",
"H 	c #8CAFC4",
"I 	c #E7EDF2",
"J 	c #E8F0F3",
"K 	c #EDF3F7",
"L 	c #EBF1F6",
"M 	c #92B2C7",
"N 	c #F8F8F8",
"O 	c #FBFBF9",
"P 	c #F3FAF9",
"Q 	c #E3EEF1",
"R 	c #C3D2DE",
"S 	c #95B0C7",
"T 	c #93B4C9",
"U 	c #24638C",
"V 	c #EAF0F3",
"W 	c #ECF2F3",
"X 	c #E7EDF3",
"Y 	c #8FADC2",
"Z 	c #F5FAF8",
"` 	c #FBF9F9",
" .	c #F1F7F8",
"..	c #E6EDEE",
"+.	c #D3DBE4",
"@.	c #D4DFE8",
"#.	c #2F6C92",
"$.	c #8EAFC4",
"%.	c #E3EAEF",
"&.	c #E7ECF1",
"*.	c #E9F0F2",
"=.	c #DDEAED",
"-.	c #84A9BF",
";.	c #EAF3F6",
">.	c #F3F7FA",
",.	c #F8F8F9",
"'.	c #FAFBF9",
").	c #F2F5F7",
"!.	c #D9E3EB",
"~.	c #F4F6F6",
"{.	c #3A739A",
"].	c #99B8CB",
"^.	c #FFFEFF",
"/.	c #7BA2BA",
"(.	c #E6EEF2",
"_.	c #E8EDF2",
":.	c #ECEFF6",
"<.	c #F1F8F9",
"[.	c #F6FBFB",
"}.	c #E9EFF5",
"|.	c #42779C",
"1.	c #29658E",
"2.	c #7098B6",
"3.	c #6792B0",
"4.	c #6993B0",
"5.	c #5282A6",
"6.	c #8AACC1",
"7.	c #E7EFF2",
"8.	c #EBF2F3",
"9.	c #ECF2F6",
"0.	c #F1F3FA",
"a.	c #EDF2F9",
"b.	c #3D759A",
"c.	c #90B2C6",
"d.	c #EDF1F7",
"e.	c #EAF1F3",
"f.	c #8FAFC3",
"g.	c #E1EBEF",
"h.	c #E4ECF1",
"i.	c #E8ECF1",
"j.	c #E2EDF1",
"k.	c #DDEAEE",
"l.	c #DFE8ED",
"m.	c #5389A9",
"n.	c #0A4879",
"o.	c #3D7599",
"p.	c #366E93",
"q.	c #376E95",
"r.	c #376E93",
"s.	c #3F789B",
"t.	c #003365",
". + @ # $ % &                   ",
"* = - ; > , ' )                 ",
"! = ~ { ] ^ / ( _               ",
": = < [ } | 1 2 2 2 3 4 5       ",
"6 = 7 8 9 0 a = b c d e f g     ",
"h = i j k l m = [ n o p q r s   ",
"t = u v w x y = z A B C D E F G ",
"H = I J K L M = N O P Q R S T U ",
"H = I V W X Y = Z ` k  ...+.@.#.",
"$.= %.&.*.=.-.= ;.>.,.'.).!.~.{.",
"].= = = = ^./.= (._.:.<.[.}.= |.",
"1.2.3.3.4.5.6.= 7.V 8.9.0.a.= b.",
"            c.= 7.V V V d.e.= b.",
"            f.= g.h.i.j.k.l.= b.",
"            f.= = = = = = = = m.",
"            n.o.p.p.p.q.r.r.s.t."};
