/* XPM */
static char * edit_16x16_xpm[] = {
"16 16 58 1",
" 	c None",
".	c #C7D99B",
"+	c #505050",
"@	c #595959",
"#	c #B3CC7A",
"$	c #A1C057",
"%	c #ADC86E",
"&	c #BCBCBC",
"*	c #252525",
"=	c #8E8E8E",
"-	c #909090",
";	c #C4C4C4",
">	c #C4D798",
",	c #F1F5E6",
"'	c #C1D492",
")	c #AFC971",
"!	c #292929",
"~	c #FCFCFC",
"{	c #FEFEFE",
"]	c #FFFFFF",
"^	c #BBD186",
"/	c #F4F6EE",
"(	c #C7D99C",
"_	c #ACC66B",
":	c #FDFDFC",
"<	c #B6CE7C",
"[	c #ACC76C",
"}	c #F8FAF3",
"|	c #C8DA9D",
"1	c #A8C464",
"2	c #F6F9F0",
"3	c #A8C565",
"4	c #F6F9EF",
"5	c #B5CD7C",
"6	c #F5F8EF",
"7	c #C4D796",
"8	c #BEC1B7",
"9	c #B3CD7A",
"0	c #F4F7EC",
"a	c #C2D695",
"b	c #F3F6E9",
"c	c #535353",
"d	c #E4ECD0",
"e	c #B9CF82",
"f	c #DBE6C1",
"g	c #F0F3E6",
"h	c #CBDBA2",
"i	c #E3ECCE",
"j	c #F9FAF7",
"k	c #C5D798",
"l	c #BCD188",
"m	c #B3CC78",
"n	c #B9D082",
"o	c #C5D898",
"p	c #F3F7EB",
"q	c #C1D490",
"r	c #CEDEA8",
"s	c #FBFCF8",
"            .   ",
"   + @ @ @ #$%  ",
" &@*=*=*-;>$,') ",
" !~+~@{@]^/($$_ ",
" *]]]]]:<$[}|1  ",
" *]]]]:<$23_4   ",
" *]]~:5$67$18   ",
" *]]]9$0a$1bc   ",
" *]]def$$1g]*   ",
" *]]hijk1b{~*   ",
" *]]lmnop]]]*   ",
" *]:qrs]]]]]*   ",
" *]~~]]~]~~{*   ",
" *]~]]]]]~]~*   ",
" c**********c   ",
"                "};
