/* XPM */
static char * eject_16x16_xpm[] = {
"16 16 164 2",
"  	c None",
". 	c #002F9A",
"+ 	c #0C44A3",
"@ 	c #1958AE",
"# 	c #002491",
"$ 	c #257DCA",
"% 	c #54BDEE",
"& 	c #70E1FF",
"* 	c #5BD3F7",
"= 	c #5BD5FA",
"- 	c #71E2FE",
"; 	c #53BDEE",
"> 	c #0036A3",
", 	c #51B3E8",
"' 	c #85ECFF",
") 	c #7AE0F8",
"! 	c #4DC3EE",
"~ 	c #6DB7E5",
"{ 	c #63A9E0",
"] 	c #48BEEC",
"^ 	c #7EE4F9",
"/ 	c #85EBFF",
"( 	c #51B3E7",
"_ 	c #002FA2",
": 	c #60BDEB",
"< 	c #90EAFB",
"[ 	c #58C4EE",
"} 	c #28AEEB",
"| 	c #48A6E4",
"1 	c #FFFFFF",
"2 	c #FFFFFD",
"3 	c #368ED7",
"4 	c #28AEEA",
"5 	c #5BC7F1",
"6 	c #4192D6",
"7 	c #91EDFF",
"8 	c #4CBEED",
"9 	c #36B5EC",
"0 	c #42AFE7",
"a 	c #FEF9FA",
"b 	c #E6ECF6",
"c 	c #2C8DD6",
"d 	c #3AB9F0",
"e 	c #4DC1EE",
"f 	c #024CB7",
"g 	c #7CD2F3",
"h 	c #5DCCF3",
"i 	c #4CC1F0",
"j 	c #42B3EA",
"k 	c #D5EDF6",
"l 	c #BED6ED",
"m 	c #1E88D4",
"n 	c #57CBF4",
"o 	c #5ECCF3",
"p 	c #024CB6",
"q 	c #1F69C6",
"r 	c #76DFFC",
"s 	c #66CAF2",
"t 	c #47BEED",
"u 	c #C7E9F8",
"v 	c #9FC3E4",
"w 	c #2997DC",
"x 	c #6DD7F9",
"y 	c #75E0FB",
"z 	c #1F69C7",
"A 	c #247BCF",
"B 	c #8CEAFD",
"C 	c #54C4F1",
"D 	c #A4DCF6",
"E 	c #FFFFFE",
"F 	c #FFFDFE",
"G 	c #FFFCFD",
"H 	c #FFFCFB",
"I 	c #FFFCFA",
"J 	c #7699CD",
"K 	c #409FDD",
"L 	c #91F3FF",
"M 	c #2579CE",
"N 	c #3289D9",
"O 	c #96ECFC",
"P 	c #33B3F1",
"Q 	c #159AEB",
"R 	c #048AE4",
"S 	c #0080E0",
"T 	c #0076D8",
"U 	c #006BD1",
"V 	c #0163C9",
"W 	c #0159C2",
"X 	c #0053BA",
"Y 	c #034FB5",
"Z 	c #0C3FA6",
"` 	c #2392D9",
" .	c #99F8FF",
"..	c #3086D7",
"+.	c #2983D7",
"@.	c #5FD6FA",
"#.	c #2CB1F0",
"$.	c #43BBEF",
"%.	c #42B7ED",
"&.	c #3BB1EB",
"*.	c #34ACE8",
"=.	c #30A4E5",
"-.	c #2B9EE3",
";.	c #2898E0",
">.	c #2391DC",
",.	c #1F8ADA",
"'.	c #1E88DA",
").	c #2386D6",
"!.	c #62DBFC",
"~.	c #1179D8",
"{.	c #41C6F6",
"].	c #4FC2F2",
"^.	c #FCFAFA",
"/.	c #2C70C0",
"(.	c #46C8F7",
"_.	c #117AD8",
":.	c #35B1ED",
"<.	c #64D4F9",
"[.	c #D3ECF6",
"}.	c #C0E5F6",
"|.	c #BFE2F4",
"1.	c #BCDEF2",
"2.	c #B9DBF1",
"3.	c #B6D7EF",
"4.	c #B3D4EE",
"5.	c #AED0EA",
"6.	c #ABCFEB",
"7.	c #A9CAE7",
"8.	c #4EABE2",
"9.	c #3CB8F0",
"0.	c #1283DE",
"a.	c #5BD3F8",
"b.	c #55D0F8",
"c.	c #41C3F4",
"d.	c #3FC1F3",
"e.	c #40C0F2",
"f.	c #3DBEF1",
"g.	c #3DBBF0",
"h.	c #3BB8EF",
"i.	c #38B6EF",
"j.	c #36B4ED",
"k.	c #43BBF0",
"l.	c #5FD4FA",
"m.	c #1686E0",
"n.	c #2099E7",
"o.	c #6EDCFC",
"p.	c #82E9FE",
"q.	c #79E1FC",
"r.	c #72DDFB",
"s.	c #72DFFB",
"t.	c #74E0FB",
"u.	c #7BE3FC",
"v.	c #86EDFF",
"w.	c #72E1FC",
"x.	c #209BE7",
"y.	c #1897E9",
"z.	c #51C9F6",
"A.	c #74E1FB",
"B.	c #84EAFF",
"C.	c #86EAFD",
"D.	c #1896E9",
"E.	c #25A9ED",
"F.	c #35B1F0",
"G.	c #3CB8F2",
"          . + @ @ + .           ",
"      # $ % & * = - ; $ #       ",
"    > , ' ) ! ~ { ] ^ / ( >     ",
"  _ : < [ } | 1 2 3 4 5 < : _   ",
"  6 7 8 9 0 a 1 1 b c d e 7 6   ",
"f g h i j k 1 1 1 1 l m n o g p ",
"q r s t u 1 1 1 1 1 1 v w x y z ",
"A B C D 1 E F G H I H E J K L M ",
"N O P Q R S T U V W X Y Z `  ...",
"+.@.#.$.%.&.*.=.-.;.>.,.'.).!.+.",
"~.{.].1 1 1 1 1 1 1 1 1 ^./.(._.",
"  :.<.[.}.|.1.2.3.4.5.6.7.8.9.  ",
"  0.a.b.c.d.e.f.g.h.i.j.k.l.m.  ",
"    n.o.p.q.r.r.s.t.u.v.w.x.    ",
"      y.z.A.B.C.C.B.A.z.D.      ",
"          E.F.G.G.F.E.          "};
