/* XPM */
static char * erase_all_16x16_xpm[] = {
"16 16 122 2",
"  	c None",
". 	c #F43231",
"+ 	c #F53C39",
"@ 	c #F1151C",
"# 	c #F12827",
"$ 	c #F21E1F",
"% 	c #F22326",
"& 	c #F97B69",
"* 	c #F9826C",
"= 	c #F65550",
"- 	c #F10A11",
"; 	c #F53938",
"> 	c #F87E6B",
", 	c #F64B46",
"' 	c #F85547",
") 	c #F8764F",
"! 	c #F8613E",
"~ 	c #F87956",
"{ 	c #F97962",
"] 	c #F4191F",
"^ 	c #F10A12",
"/ 	c #F85A52",
"( 	c #FA9C7F",
"_ 	c #FA896B",
": 	c #F54336",
"< 	c #F1201A",
"[ 	c #F8613B",
"} 	c #F75A3A",
"| 	c #F75031",
"1 	c #F75F3D",
"2 	c #FA7D63",
"3 	c #F53432",
"4 	c #F43635",
"5 	c #FA8E77",
"6 	c #FA8963",
"7 	c #F5452D",
"8 	c #EF201C",
"9 	c #F64C31",
"0 	c #F85636",
"a 	c #F64A2F",
"b 	c #F64F30",
"c 	c #F96E51",
"d 	c #F13C3A",
"e 	c #F45C55",
"f 	c #FA8A6B",
"g 	c #F85E38",
"h 	c #F2271B",
"i 	c #EE2A20",
"j 	c #F94C31",
"k 	c #F8462B",
"l 	c #F63F25",
"m 	c #F9694E",
"n 	c #F96E53",
"o 	c #F64123",
"p 	c #EC241D",
"q 	c #F13929",
"r 	c #F8452F",
"s 	c #F63823",
"t 	c #F83E25",
"u 	c #EA281F",
"v 	c #CA1012",
"w 	c #F56152",
"x 	c #F63C29",
"y 	c #F83A25",
"z 	c #F73A26",
"A 	c #F63826",
"B 	c #D61013",
"C 	c #BB080C",
"D 	c #F6574C",
"E 	c #F83928",
"F 	c #F72D1B",
"G 	c #EE291F",
"H 	c #F63121",
"I 	c #F93622",
"J 	c #F22F1F",
"K 	c #C7070D",
"L 	c #E03F39",
"M 	c #FA3125",
"N 	c #F61C12",
"O 	c #F6251B",
"P 	c #F7261D",
"Q 	c #FF2B1E",
"R 	c #E21B15",
"S 	c #C62B27",
"T 	c #FE2C25",
"U 	c #EE0E0D",
"V 	c #FE1C16",
"W 	c #C30E0D",
"X 	c #BD0D0E",
"Y 	c #F91D18",
"Z 	c #FE1E19",
"` 	c #B90B0B",
" .	c #A41516",
"..	c #FF2726",
"+.	c #EE0A09",
"@.	c #FA1412",
"#.	c #DB100F",
"$.	c #AE090A",
"%.	c #FF1614",
"&.	c #E51211",
"*.	c #D72425",
"=.	c #FB0E0F",
"-.	c #EF0E0E",
";.	c #FA0F0F",
">.	c #870506",
",.	c #BA090B",
"'.	c #FF1313",
").	c #9D0709",
"!.	c #DF0F11",
"~.	c #FC0C0E",
"{.	c #FF0E10",
"].	c #B3080A",
"^.	c #DC0C0D",
"/.	c #D60B0D",
"(.	c #BE070B",
"_.	c #FF0E11",
":.	c #DD090B",
"<.	c #800405",
"[.	c #FC0C11",
"}.	c #650304",
"|.	c #B6090B",
"1.	c #770304",
"  . + @                     # $ ",
"% & * =                 - ; > , ",
"' ) ! ~ { ]         ^ / ( _ :   ",
"< [ } | 1 2 3     4 5 6 7       ",
"  8 9 0 a b c d e f g h         ",
"      i j k l m n o p           ",
"          q r s t u             ",
"        v w x y z A B           ",
"      C D E F G H I J K         ",
"      L M N O     P Q R         ",
"    S T U V W     X Y Z `       ",
"   ...+.@.#.        $.%.&.      ",
"  *.=.-.;.>.          ,.'.).    ",
"  !.~.{.].              ^./.    ",
"  (._.:.                <.[.}.  ",
"                          |.1.  "};
