/* XPM */
static char * exit_16x16_xpm[] = {
"16 16 170 2",
"  	c None",
". 	c #4EADE6",
"+ 	c #4BA5DA",
"@ 	c #4598CD",
"# 	c #3D8EC2",
"$ 	c #3784B6",
"% 	c #2F7BAF",
"& 	c #3E95CC",
"* 	c #4BA7DD",
"= 	c #5CB5E7",
"- 	c #4EAAE1",
"; 	c #4BA8EA",
"> 	c #1B1F30",
", 	c #201F23",
"' 	c #445A6E",
") 	c #63869E",
"! 	c #7CA7BB",
"~ 	c #8CC1DD",
"{ 	c #99D3F1",
"] 	c #BAEBFE",
"^ 	c #60AFE2",
"/ 	c #48A2E4",
"( 	c #0E0D18",
"_ 	c #5799C4",
": 	c #AFF2FF",
"< 	c #9DE0FF",
"[ 	c #A0E4FF",
"} 	c #9ADBF8",
"| 	c #95D4F3",
"1 	c #A3DEF5",
"2 	c #55A7DC",
"3 	c #30A9F5",
"4 	c #12121D",
"5 	c #4989B9",
"6 	c #91D9FD",
"7 	c #81C6EA",
"8 	c #81C5EA",
"9 	c #8FD0F0",
"0 	c #4F9FD7",
"a 	c #FF0000",
"b 	c #2AA8F5",
"c 	c #14101C",
"d 	c #3F80B2",
"e 	c #84D2F8",
"f 	c #73BFE6",
"g 	c #74C0E7",
"h 	c #73BFE7",
"i 	c #80CBEC",
"j 	c #4A99D3",
"k 	c #F0403B",
"l 	c #FF3E2F",
"m 	c #198FE3",
"n 	c #0B1822",
"o 	c #3A79A8",
"p 	c #77CAF5",
"q 	c #68B7E2",
"r 	c #69B8E3",
"s 	c #6AB8E4",
"t 	c #77C3EA",
"u 	c #4493CF",
"v 	c #EF5F58",
"w 	c #F16F65",
"x 	c #F16D63",
"y 	c #F07066",
"z 	c #F15F49",
"A 	c #FF8A63",
"B 	c #B46786",
"C 	c #00030D",
"D 	c #2876AA",
"E 	c #6DC4F2",
"F 	c #5DB0E0",
"G 	c #5EB2E0",
"H 	c #62B4E2",
"I 	c #61B2E2",
"J 	c #4BAEE1",
"K 	c #3586C8",
"L 	c #F47766",
"M 	c #F76545",
"N 	c #F6674A",
"O 	c #F6694E",
"P 	c #F35C42",
"Q 	c #F23C1F",
"R 	c #FF7F5E",
"S 	c #B9281F",
"T 	c #2068A4",
"U 	c #4DBAF0",
"V 	c #56AEDE",
"W 	c #58AFDF",
"X 	c #49A7DB",
"Y 	c #369AD5",
"Z 	c #319FDB",
"` 	c #3483C3",
" .	c #EF695C",
"..	c #F42E15",
"+.	c #F43A22",
"@.	c #F43721",
"#.	c #F23823",
"$.	c #EF3A27",
"%.	c #FF3C21",
"&.	c #FF3F2B",
"*.	c #455689",
"=.	c #73D2FA",
"-.	c #3D9AD2",
";.	c #2E98D6",
">.	c #2992D3",
",.	c #2B93D4",
"'.	c #2D9CDA",
").	c #2F7CBF",
"!.	c #E7372E",
"~.	c #E82A1D",
"{.	c #E82C23",
"].	c #EB2E22",
"^.	c #EF3024",
"/.	c #FF3220",
"(.	c #F9251B",
"_.	c #2F0000",
":.	c #066FAA",
"<.	c #F1EAE4",
"[.	c #1874BC",
"}.	c #2493D6",
"|.	c #2792D2",
"1.	c #2791D2",
"2.	c #2599D8",
"3.	c #2C77BB",
"4.	c #D91416",
"5.	c #F3140E",
"6.	c #2A5CA4",
"7.	c #001A25",
"8.	c #0E538E",
"9.	c #2092D8",
"0.	c #1F8CCF",
"a.	c #238FD0",
"b.	c #228FD0",
"c.	c #228ECF",
"d.	c #2096D7",
"e.	c #2972B7",
"f.	c #C60D0D",
"g.	c #1378CD",
"h.	c #1B1114",
"i.	c #0B538A",
"j.	c #229EE6",
"k.	c #1F8CCE",
"l.	c #1F8DCF",
"m.	c #1D94D6",
"n.	c #256DB3",
"o.	c #176EC1",
"p.	c #1A1113",
"q.	c #094F86",
"r.	c #219AE4",
"s.	c #1D8ACD",
"t.	c #1D8BCF",
"u.	c #1D8ACE",
"v.	c #1B94D8",
"w.	c #2169B0",
"x.	c #1B60B0",
"y.	c #191012",
"z.	c #094A80",
"A.	c #209CE3",
"B.	c #1C89CB",
"C.	c #1C8ACD",
"D.	c #1C89CC",
"E.	c #1C94D6",
"F.	c #1D64AC",
"G.	c #084F8F",
"H.	c #1F9CDF",
"I.	c #1B89CC",
"J.	c #1B8ACD",
"K.	c #1B95D6",
"L.	c #07509E",
"M.	c #2299DD",
"            . + @ # $ % & * = - ",
"            ; > , ' ) ! ~ { ] ^ ",
"            / ( _ : < [ } | 1 2 ",
"            3 4 5 6 7 8 8 8 9 0 ",
"        a   b c d e f g g h i j ",
"        k l m n o p q r r s t u ",
"v w x y z A B C D E F G H I J K ",
"L M N O P Q R S T U V W X Y Z ` ",
" ...+.@.#.$.%.&.*.=.-.;.>.,.'.).",
"!.~.{.].^./.(._.:.<.[.}.|.1.2.3.",
"        4.5.6.7.8.9.0.a.b.c.d.e.",
"        f.  g.h.i.j.k.l.l.k.m.n.",
"            o.p.q.r.s.t.t.u.v.w.",
"            x.y.z.A.B.C.C.D.E.F.",
"                G.H.I.J.J.I.K.  ",
"                L.M.            "};
