/* XPM */
static char * expand_16x16_xpm[] = {
"16 16 165 2",
"  	c None",
". 	c #5AC1EE",
"+ 	c #84D2F3",
"@ 	c #81D0F2",
"# 	c #82D2F4",
"$ 	c #75CDF2",
"% 	c #42B1EA",
"& 	c #76CDF2",
"* 	c #80D2F4",
"= 	c #79CEF3",
"- 	c #59BEEE",
"; 	c #80CEF2",
"> 	c #BCEFFE",
", 	c #A7E7FB",
"' 	c #9DE4F9",
") 	c #55B8EC",
"! 	c #4DB5EA",
"~ 	c #9BE3FB",
"{ 	c #A4E6FB",
"] 	c #ACECFD",
"^ 	c #69C7F1",
"/ 	c #79C8EE",
"( 	c #A5E7FB",
"_ 	c #8ADDFA",
": 	c #72D0F1",
"< 	c #2898E1",
"[ 	c #3BA1E4",
"} 	c #9CE0F8",
"| 	c #8ADEFA",
"1 	c #95E3FA",
"2 	c #5BBCED",
"3 	c #75C6EE",
"4 	c #93E2F9",
"5 	c #76D3F4",
"6 	c #98E4FB",
"7 	c #64C1EF",
"8 	c #2F96DD",
"9 	c #3EA0E1",
"0 	c #BAECF9",
"a 	c #A1E9FC",
"b 	c #6BC9F1",
"c 	c #8BE0F9",
"d 	c #5DBDED",
"e 	c #63BDE9",
"f 	c #44A5E2",
"g 	c #2C92DC",
"h 	c #78D3F4",
"i 	c #93E5FC",
"j 	c #5FBEEB",
"k 	c #2E91D9",
"l 	c #3B9BDF",
"m 	c #B9E9FA",
"n 	c #9BE9FD",
"o 	c #56BAEA",
"p 	c #268DD9",
"q 	c #45A5E2",
"r 	c #53B4E8",
"s 	c #3092D8",
"t 	c #2F91DB",
"u 	c #6FCDF2",
"v 	c #8CE2FC",
"w 	c #58B8EA",
"x 	c #1F82D2",
"y 	c #3A95D9",
"z 	c #B8EAF9",
"A 	c #95E7FE",
"B 	c #4FB4E8",
"C 	c #298AD6",
"D 	c #2F90D8",
"E 	c #2A88D6",
"F 	c #68C9F1",
"G 	c #80DCFB",
"H 	c #9BDAF2",
"I 	c #91E3FD",
"J 	c #48ADE6",
"K 	c #2584D2",
"L 	c #227FCF",
"M 	c #59BDED",
"N 	c #70CEF4",
"O 	c #6BD0F6",
"P 	c #45A7E3",
"Q 	c #2179CC",
"R 	c #3180CC",
"S 	c #76C8ED",
"T 	c #5BC8F3",
"U 	c #65CEF4",
"V 	c #42A2E0",
"W 	c #2071C7",
"X 	c #2E7ECB",
"Y 	c #87D5F2",
"Z 	c #60CDF5",
"` 	c #3DA0DF",
" .	c #49B1E7",
"..	c #5DCDF5",
"+.	c #3F9FDF",
"@.	c #216EC3",
"#.	c #2272C4",
"$.	c #2C74C5",
"%.	c #85D4F3",
"&.	c #54CAF7",
"*.	c #3095DA",
"=.	c #1C65BE",
"-.	c #206EC3",
";.	c #43B0E9",
">.	c #52C8F5",
",.	c #3899DD",
"'.	c #2068C0",
").	c #2172C4",
"!.	c #4C9DD9",
"~.	c #3280CB",
"{.	c #2969BE",
"].	c #83D2F1",
"^.	c #4AC4F5",
"/.	c #2B8FD8",
"(.	c #1E63BB",
"_.	c #206BC0",
":.	c #3AAAE6",
"<.	c #46C2F4",
"[.	c #3293D9",
"}.	c #1657B6",
"|.	c #468CCD",
"1.	c #4B9AD8",
"2.	c #4298D7",
"3.	c #39B0EB",
"4.	c #55B5E8",
"5.	c #46BFF1",
"6.	c #2186D4",
"7.	c #1F60B8",
"8.	c #1F65BC",
"9.	c #30A3E4",
"0.	c #36B8F0",
"a.	c #2C91D9",
"b.	c #68CBF1",
"c.	c #2786D3",
"d.	c #378BD0",
"e.	c #2EAEE9",
"f.	c #1EA1E6",
"g.	c #208ED9",
"h.	c #1A55AE",
"i.	c #1558B3",
"j.	c #279ADF",
"k.	c #27A7E7",
"l.	c #20A6E8",
"m.	c #207BCC",
"n.	c #318FD3",
"o.	c #21AFED",
"p.	c #19A1E6",
"q.	c #1D9EE6",
"r.	c #196BBE",
"s.	c #357CC3",
"t.	c #3FB7EB",
"u.	c #139DE5",
"v.	c #1DAAEC",
"w.	c #1A79CC",
"x.	c #1D69BA",
"y.	c #1576C7",
"z.	c #146FC3",
"A.	c #1475C7",
"B.	c #146FC4",
"C.	c #1655AD",
"D.	c #1356AE",
"E.	c #3387CA",
"F.	c #136FC3",
"G.	c #1474C7",
"H.	c #1462B8",
". + @ # $ %         % & * = # - ",
"; > , ' )             ! ~ { ] ^ ",
"/ ( _ : <             [ } | 1 2 ",
"3 4 5 6 7 8         9 0 a b c d ",
"e f g h i j k     l m n o p q r ",
"s     t u v w x y z A B C     D ",
"        E F G B H I J K         ",
"          L M N O P Q           ",
"          R S T U V W           ",
"        X Y Z `  ...+.@.        ",
"#.    $.%.&.*.=.-.;.>.,.'.    ).",
"!.~.{.].^./.(.    _.:.<.[.}.|.1.",
"2.3.4.5.6.7.        8.9.0.a.b.c.",
"d.e.f.g.h.            i.j.k.l.m.",
"n.o.p.q.r.            s.t.u.v.w.",
"x.y.z.A.B.C.        D.E.A.F.G.H."};
