/* XPM */
static char * eye_16x16_xpm[] = {
"16 16 169 2",
"  	c None",
". 	c #FCD164",
"+ 	c #FCCB5C",
"@ 	c #FBC555",
"# 	c #FABD4D",
"$ 	c #FAB649",
"% 	c #FAAF41",
"& 	c #FCD96F",
"* 	c #FCD56A",
"= 	c #FCD365",
"- 	c #FED061",
"; 	c #FBC958",
"> 	c #FDC14F",
", 	c #FCB646",
"' 	c #FCAB3D",
") 	c #FAA335",
"! 	c #F9992D",
"~ 	c #FCDD74",
"{ 	c #FFE072",
"] 	c #FED768",
"^ 	c #FCB746",
"/ 	c #FA9B2A",
"( 	c #FB9220",
"_ 	c #FA901D",
": 	c #FA9223",
"< 	c #FA9D2F",
"[ 	c #FCA034",
"} 	c #FD992E",
"| 	c #F7932B",
"1 	c #FEE177",
"2 	c #FFE575",
"3 	c #EFAC42",
"4 	c #E16A01",
"5 	c #DF690B",
"6 	c #DD8337",
"7 	c #DB904E",
"8 	c #DF9657",
"9 	c #DF883D",
"0 	c #E07315",
"a 	c #E46700",
"b 	c #EF811E",
"c 	c #FD962E",
"d 	c #F6912C",
"e 	c #FFDC6D",
"f 	c #CC7010",
"g 	c #CB651A",
"h 	c #C4AC92",
"i 	c #C0D9D1",
"j 	c #BBE8FC",
"k 	c #BBE2FC",
"l 	c #ADD5F1",
"m 	c #BFF1FF",
"n 	c #C2DFD9",
"o 	c #BFB5A5",
"p 	c #CB752F",
"q 	c #CF5E05",
"r 	c #F48821",
"s 	c #FBD35D",
"t 	c #C46914",
"u 	c #DCAC8B",
"v 	c #F6FFFF",
"w 	c #B6F3FF",
"x 	c #B8F2FF",
"y 	c #E4EDF3",
"z 	c #E4DCDC",
"A 	c #7A726F",
"B 	c #5F686F",
"C 	c #A9E9FF",
"D 	c #AFF0FF",
"E 	c #D9ECFE",
"F 	c #CCAF96",
"G 	c #C56417",
"H 	c #F28118",
"I 	c #DDA155",
"J 	c #F0E2DD",
"K 	c #FFFFFF",
"L 	c #DEF3FF",
"M 	c #B7E6FB",
"N 	c #A4C9DD",
"O 	c #978D88",
"P 	c #615D5C",
"Q 	c #070908",
"R 	c #000000",
"S 	c #3F7397",
"T 	c #68CDFE",
"U 	c #9DC9E1",
"V 	c #E7EAF1",
"W 	c #C8CACB",
"X 	c #D17D36",
"Y 	c #EFE0D5",
"Z 	c #D3E8F6",
"` 	c #73CCF5",
" .	c #529AC7",
"..	c #0E0000",
"+.	c #2F6A94",
"@.	c #3FB7F6",
"#.	c #8ABDD9",
"$.	c #E3D5CF",
"%.	c #C9E4F8",
"&.	c #C0B4A9",
"*.	c #DE9630",
"=.	c #EAD5CC",
"-.	c #EAFCFF",
";.	c #3EADE3",
">.	c #5CBFF5",
",.	c #162B3C",
"'.	c #0C0D13",
").	c #40A9E8",
"!.	c #1E9BE1",
"~.	c #B9D4E7",
"{.	c #D5E0EB",
"].	c #BCAB9A",
"^.	c #D46E16",
"/.	c #D27512",
"(.	c #CF976D",
"_.	c #FFEBD5",
":.	c #74D2FF",
"<.	c #1CA9FE",
"[.	c #33B7FF",
"}.	c #1D6BA1",
"|.	c #145C92",
"1.	c #1EA0F1",
"2.	c #009CFF",
"3.	c #3FABE8",
"4.	c #DDC6B6",
"5.	c #BA7B46",
"6.	c #D26206",
"7.	c #FFC24E",
"8.	c #DF7F15",
"9.	c #D0660E",
"0.	c #D08850",
"a.	c #707D79",
"b.	c #4D8AA5",
"c.	c #2D99D4",
"d.	c #2997D5",
"e.	c #4186A5",
"f.	c #70776C",
"g.	c #CC7D3F",
"h.	c #D1650E",
"i.	c #DB6B10",
"j.	c #EF892B",
"k.	c #FFB342",
"l.	c #F8A031",
"m.	c #F07E14",
"n.	c #F97E14",
"o.	c #F67E16",
"p.	c #F67F17",
"q.	c #F77F17",
"r.	c #F78016",
"s.	c #FC7E12",
"t.	c #F07C16",
"u.	c #ED8727",
"v.	c #EE892B",
"w.	c #FC9E33",
"x.	c #FB992E",
"y.	c #F9952D",
"z.	c #F8932B",
"A.	c #F7902B",
"B.	c #F58E2B",
"C.	c #F38D2A",
"D.	c #F18B2A",
"E.	c #EC8929",
"F.	c #EB8828",
"G.	c #F6902B",
"H.	c #F58F2B",
"I.	c #F18D2A",
"J.	c #EF8C2A",
"K.	c #EF8A29",
"L.	c #EB8829",
"                                ",
"          . + @ # $ %           ",
"      & * = - ; > , ' ) !       ",
"    ~ { ] ^ / ( _ : < [ } |     ",
"  1 2 3 4 5 6 7 8 9 0 a b c d   ",
"  e f g h i j k l m n o p q r   ",
"s t u v w x y z A B C D E F G H ",
"I J K L M N O P Q R S T U V W X ",
"Y K K Z `  ...R R R +.@.#.$.%.&.",
"*.=.K -.;.>.,.R R '.).!.~.{.].^.",
"  /.(._.:.<.[.}.|.1.2.3.4.5.6.  ",
"  7.8.9.0.a.b.c.d.e.f.g.h.i.j.  ",
"    k.l.m.n.o.p.q.r.s.t.u.v.    ",
"      w.x.y.z.A.B.C.D.E.F.      ",
"          G.H.I.J.K.L.          ",
"                                "};
