/* XPM */
static char * film_16x16_xpm[] = {
"16 16 94 2",
"  	c None",
". 	c #64686B",
"+ 	c #696767",
"@ 	c #549CCC",
"# 	c #49A1DC",
"$ 	c #549CCB",
"% 	c #757173",
"& 	c #6D6F75",
"* 	c #63666A",
"= 	c #525458",
"- 	c #F3F3F4",
"; 	c #BFBBB9",
"> 	c #5598C5",
", 	c #78C5ED",
"' 	c #5699C6",
") 	c #A6A2A2",
"! 	c #F2F1F2",
"~ 	c #5295C5",
"{ 	c #73BEEA",
"] 	c #5296C5",
"^ 	c #424549",
"/ 	c #4788BB",
"( 	c #5FADE1",
"_ 	c #4A8ABC",
": 	c #53555A",
"< 	c #EFF0F1",
"[ 	c #B4B2B0",
"} 	c #4485B6",
"| 	c #54A6DD",
"1 	c #4587B7",
"2 	c #979593",
"3 	c #EEEFF0",
"4 	c #3D3F40",
"5 	c #3D7EB2",
"6 	c #3994D1",
"7 	c #4F5054",
"8 	c #2B2D32",
"9 	c #3276A9",
"0 	c #2B8CCB",
"a 	c #3478AB",
"b 	c #424448",
"c 	c #333539",
"d 	c #FFFFFF",
"e 	c #C5C0BE",
"f 	c #2C6FA3",
"g 	c #0F71B6",
"h 	c #2D6FA3",
"i 	c #999593",
"j 	c #303235",
"k 	c #3974A6",
"l 	c #4F98CD",
"m 	c #3975A7",
"n 	c #404144",
"o 	c #26272A",
"p 	c #4A4545",
"q 	c #3973A4",
"r 	c #75C1EC",
"s 	c #3C75A6",
"t 	c #35363A",
"u 	c #B6B3B0",
"v 	c #3873A4",
"w 	c #6EBAE8",
"x 	c #3873A5",
"y 	c #827F7E",
"z 	c #1C1D21",
"A 	c #2C6599",
"B 	c #5AABDF",
"C 	c #2F689B",
"D 	c #2A2B2E",
"E 	c #45464A",
"F 	c #286295",
"G 	c #4FA2DA",
"H 	c #2B6598",
"I 	c #4D4848",
"J 	c #444548",
"K 	c #191A1B",
"L 	c #B0ACA9",
"M 	c #215D92",
"N 	c #3391D0",
"O 	c #215E93",
"P 	c #797572",
"Q 	c #27292A",
"R 	c #15558B",
"S 	c #2188C8",
"T 	c #18588E",
"U 	c #222224",
"V 	c #161719",
"W 	c #08090C",
"X 	c #0E0A08",
"Y 	c #0F4C83",
"Z 	c #005096",
"` 	c #0F4B83",
" .	c #1E1916",
"..	c #141416",
"  . . + @ # # # # # # $ % & *   ",
"  = - ; > , , , , , , ' ) ! *   ",
"  = - ; ~ { { { { { { ] ) ! *   ",
"  ^ = = / ( ( ( ( ( ( _ = = :   ",
"  ^ < [ } | | | | | | 1 2 3 :   ",
"  4 < [ 5 6 6 6 6 6 6 5 2 3 7   ",
"  8 4 4 9 0 0 0 0 0 0 a 7 7 b   ",
"  c d e f g g g g g g h i d b   ",
"  j d e k l l l l l l m i d n   ",
"  o p p q r r r r r r s n n t   ",
"  o d u v w w w w w w x y d t   ",
"  z d u A B B B B B B C y d D   ",
"  z E E F G G G G G G H I J D   ",
"  K d L M N N N N N N O P d Q   ",
"  K d L R S S S S S S T P d U   ",
"  V W X Y Z Z Z Z Z Z `  ...U   "};
