/* XPM */
static char * green_pin_16x16_xpm[] = {
"16 16 91 1",
" 	c None",
".	c #62DC4F",
"+	c #0EB10E",
"@	c #4CD13A",
"#	c #0EB712",
"$	c #02A300",
"%	c #08B000",
"&	c #4BD221",
"*	c #BDFF34",
"=	c #37CA24",
"-	c #17B200",
";	c #23BE05",
">	c #2EC900",
",	c #88EA45",
"'	c #BAFB35",
")	c #F1FF8E",
"!	c #11B700",
"~	c #33C702",
"{	c #47D202",
"]	c #7FE81B",
"^	c #A4F71C",
"/	c #D4FE5B",
"(	c #C1FE39",
"_	c #A7F744",
":	c #69E236",
"<	c #63DF1D",
"[	c #89EE1A",
"}	c #9EF53E",
"|	c #55D80C",
"1	c #41D009",
"2	c #33CC03",
"3	c #93F11A",
"4	c #DEFF61",
"5	c #CDFF4C",
"6	c #71E60B",
"7	c #3DCE00",
"8	c #48D01A",
"9	c #40CE23",
"0	c #30C315",
"a	c #5BDC0D",
"b	c #87EC17",
"c	c #6CE20F",
"d	c #94EF1F",
"e	c #E6FF64",
"f	c #CAFF48",
"g	c #6FE508",
"h	c #2DC701",
"i	c #009E00",
"j	c #5CD90E",
"k	c #80EB16",
"l	c #64E009",
"m	c #B2F644",
"n	c #DCFF4F",
"o	c #69E306",
"p	c #2FC602",
"q	c #03A300",
"r	c #007F06",
"s	c #49D70A",
"t	c #3FD208",
"u	c #3ACC09",
"v	c #6BE30C",
"w	c #2CC201",
"x	c #029C00",
"y	c #008307",
"z	c #10C000",
"A	c #19C500",
"B	c #03B000",
"C	c #00A701",
"D	c #049903",
"E	c #008306",
"F	c #008605",
"G	c #A6B6AF",
"H	c #03AD06",
"I	c #00A200",
"J	c #009508",
"K	c #008F05",
"L	c #008A04",
"M	c #C0C4CA",
"N	c #B896BF",
"O	c #00A600",
"P	c #009506",
"Q	c #008D05",
"R	c #008D04",
"S	c #BDBFC5",
"T	c #ACB1B2",
"U	c #009505",
"V	c #009205",
"W	c #B5B6BB",
"X	c #B4B6BB",
"Y	c #53545B",
"Z	c #CFD0D3",
"          .++@  ",
"          #$$%& ",
"         *=%-;>,",
"         ')=!~{]",
"        ^/(_:<[}",
"    |1234567890 ",
"   abcdefghi    ",
"   jklmnopqr    ",
"    stuvwxy     ",
"    zABCDEF     ",
"    GHIJKLL     ",
"   MN OPQLR     ",
"  ST    UV      ",
"  W             ",
" XY             ",
"Z               "};
