/* XPM */
static char * hint_16x16_xpm[] = {
"16 16 201 2",
"  	c None",
". 	c #3FADE9",
"+ 	c #94DAF1",
"@ 	c #9DDCF1",
"# 	c #9AD7F2",
"$ 	c #9CDAF2",
"% 	c #A7E1F6",
"& 	c #A5E1F5",
"* 	c #A7E3F6",
"= 	c #ABE8F9",
"- 	c #9ADAF3",
"; 	c #98D7F1",
"> 	c #99D9F1",
", 	c #95D5F0",
"' 	c #54B7E8",
") 	c #2A8CE1",
"! 	c #FDFFFE",
"~ 	c #DAF5FD",
"{ 	c #CDEEFC",
"] 	c #D6F2FC",
"^ 	c #BDEBFB",
"/ 	c #80C4EA",
"( 	c #84C8EE",
"_ 	c #83C1E9",
": 	c #6DA0D5",
"< 	c #C7EEFC",
"[ 	c #D3F4FF",
"} 	c #C7ECFB",
"| 	c #CDEFFC",
"1 	c #FDFFFF",
"2 	c #4198DE",
"3 	c #67B8E9",
"4 	c #D6F9FE",
"5 	c #96DFF8",
"6 	c #AAE6FB",
"7 	c #81D8F3",
"8 	c #65C3EB",
"9 	c #EFF4FA",
"0 	c #FFFFFF",
"a 	c #DDE7F3",
"b 	c #55A1D9",
"c 	c #91D9F4",
"d 	c #9BE1F7",
"e 	c #8EDBF5",
"f 	c #B3EAFA",
"g 	c #80CCEB",
"h 	c #4AACE6",
"i 	c #BFF1FC",
"j 	c #A1E1F8",
"k 	c #B0E7FA",
"l 	c #75CCF1",
"m 	c #C2E0F2",
"n 	c #E7EFF8",
"o 	c #78BCE2",
"p 	c #DCEBF3",
"q 	c #B1C7E3",
"r 	c #5DB2E1",
"s 	c #A9EBFA",
"t 	c #97DDF4",
"u 	c #A8E6F8",
"v 	c #52B6E7",
"w 	c #49AFE5",
"x 	c #B7EEFB",
"y 	c #9BDFF6",
"z 	c #A0E3F6",
"A 	c #96DCF5",
"B 	c #5ABDE8",
"C 	c #6FC9EE",
"D 	c #6AC8ED",
"E 	c #94C4E6",
"F 	c #B2C9E4",
"G 	c #57B0E0",
"H 	c #A0E5FB",
"I 	c #8CD8F3",
"J 	c #A1E5F6",
"K 	c #43A8E4",
"L 	c #53B6E8",
"M 	c #ADE9F8",
"N 	c #94DBF5",
"O 	c #95DDF5",
"P 	c #9DDEF6",
"Q 	c #A7E5F8",
"R 	c #A1E7F9",
"S 	c #5DB5E1",
"T 	c #FFFDFC",
"U 	c #5D97D1",
"V 	c #8AD4F1",
"W 	c #8DD8F4",
"X 	c #84D3F2",
"Y 	c #99E1F5",
"Z 	c #44A3DF",
"` 	c #49ACE5",
" .	c #A7E6F8",
"..	c #9DDEF5",
"+.	c #9BE0F4",
"@.	c #86D6F4",
"#.	c #84D7F3",
"$.	c #38A4E2",
"%.	c #C5E2F5",
"&.	c #FFFDFD",
"*.	c #529FD4",
"=.	c #5BC5EA",
"-.	c #84D9F3",
";.	c #8EDAF1",
">.	c #8ED8F1",
",.	c #93E1F4",
"'.	c #3B9BDD",
").	c #4EA9E1",
"!.	c #9EE5F6",
"~.	c #55C1EB",
"{.	c #3EB5E9",
"].	c #27B0E9",
"^.	c #0CA1E7",
"/.	c #2084DD",
"(.	c #BABBE1",
"_.	c #0071D1",
":.	c #1FB1EE",
"<.	c #1BA2E5",
"[.	c #31A8E8",
"}.	c #43B5E8",
"|.	c #83E1F4",
"1.	c #3F9DDC",
"2.	c #1E87DA",
"3.	c #26B0EB",
"4.	c #159DE7",
"5.	c #189EE7",
"6.	c #1C9FE6",
"7.	c #1EA5E9",
"8.	c #0973D3",
"9.	c #0060C2",
"0.	c #0040B3",
"a.	c #0F80D7",
"b.	c #1BA0E8",
"c.	c #1493E2",
"d.	c #0E8FE0",
"e.	c #098BE0",
"f.	c #149FE7",
"g.	c #0E65C9",
"h.	c #0E76D5",
"i.	c #1EA6E9",
"j.	c #1B9AE2",
"k.	c #1B9CE3",
"l.	c #1A99E3",
"m.	c #088EE2",
"n.	c #3C85DA",
"o.	c #C7DAF0",
"p.	c #87A4D9",
"q.	c #005DC7",
"r.	c #1596E5",
"s.	c #1289DF",
"t.	c #1389DF",
"u.	c #1285DF",
"v.	c #0F92E7",
"w.	c #0748BB",
"x.	c #0E67CA",
"y.	c #1AAAEF",
"z.	c #1590E0",
"A.	c #148FE0",
"B.	c #148CE1",
"C.	c #007BDB",
"D.	c #5E90D8",
"E.	c #D5D1E3",
"F.	c #0033B5",
"G.	c #108BE3",
"H.	c #0D7EDC",
"I.	c #0C80DA",
"J.	c #0B7AD8",
"K.	c #0C8CE9",
"L.	c #0545B1",
"M.	c #0F79D7",
"N.	c #1191E6",
"O.	c #0F88E1",
"P.	c #0E84DD",
"Q.	c #0881DD",
"R.	c #1781DD",
"S.	c #5683D5",
"T.	c #2B62C0",
"U.	c #0170D4",
"V.	c #0A81DF",
"W.	c #087BDB",
"X.	c #0878DA",
"Y.	c #077BDE",
"Z.	c #065FCB",
"`.	c #0333A5",
" +	c #0654C3",
".+	c #0B7ADA",
"++	c #0A7FE0",
"@+	c #004ABB",
"#+	c #002BAF",
"$+	c #003BB8",
"%+	c #0431A3",
"&+	c #022595",
"*+	c #012697",
"=+	c #012497",
"-+	c #012495",
";+	c #0341B9",
">+	c #067BE5",
",+	c #033AA5",
"'+	c #0137B2",
")+	c #012F9C",
"!+	c #001674",
"  . + @ # $ % & * = - ; > , '   ",
") ! ~ { ] ^ / ( _ : < [ } | 1 2 ",
"3 4 5 6 7 8 9 0 1 a b c d e f g ",
"h i j k l m n o p 0 q r s t u v ",
"w x y z A B C D E 0 F G H I J K ",
"L M N O P Q R S 0 T U V W X Y Z ",
"`  ...+.@.#.$.%.&.*.=.-.;.>.,.'.",
").!.~.{.].^./.0 (._.:.<.[.}.|.1.",
"2.3.4.5.6.7.8.9.0.a.b.c.d.e.f.g.",
"h.i.j.k.l.m.n.o.p.q.r.s.t.u.v.w.",
"x.y.z.A.B.C.D.0 E.F.G.H.I.J.K.L.",
"  M.N.O.P.Q.R.S.T.U.V.W.X.Y.Z.  ",
"    `. +.+++@+#+$+%+&+*+=+-+    ",
"      ;+>+,+                    ",
"      '+)+                      ",
"      !+                        "};
