/* XPM */
static char * left_right_16x16_xpm[] = {
"16 16 96 2",
"  	c None",
". 	c #1D7CCC",
"+ 	c #1052AC",
"@ 	c #489CDE",
"# 	c #65BBEB",
"$ 	c #2C8CD5",
"% 	c #0851A5",
"& 	c #3E9CDE",
"* 	c #D4FFFF",
"= 	c #59BEED",
"- 	c #2790DC",
"; 	c #38B0ED",
"> 	c #0548A1",
", 	c #3D9BDD",
"' 	c #C8F6FF",
") 	c #7DDBFC",
"! 	c #83D1F6",
"~ 	c #37A5E4",
"{ 	c #5BB2E6",
"] 	c #239BE3",
"^ 	c #1A91DE",
"/ 	c #0247A0",
"( 	c #49A1E0",
"_ 	c #C6F2FF",
": 	c #86DDFE",
"< 	c #65CCF7",
"[ 	c #77D1FA",
"} 	c #7CD8F9",
"| 	c #6DCCF7",
"1 	c #62C5F3",
"2 	c #55BEF0",
"3 	c #1C8CDA",
"4 	c #108CDB",
"5 	c #047FD5",
"6 	c #0047A2",
"7 	c #56BAEE",
"8 	c #D7FFFF",
"9 	c #7BDAFE",
"0 	c #70D2FA",
"a 	c #6ECFF7",
"b 	c #60C4F2",
"c 	c #51BAEF",
"d 	c #44B3EB",
"e 	c #37A7E7",
"f 	c #2C9DE2",
"g 	c #2292DE",
"h 	c #1789D8",
"i 	c #077DD2",
"j 	c #007AD3",
"k 	c #0187DE",
"l 	c #00479E",
"m 	c #52B4EB",
"n 	c #89D2F5",
"o 	c #8FE0FF",
"p 	c #6ACFF8",
"q 	c #68CAF6",
"r 	c #5CC1F2",
"s 	c #4FB8ED",
"t 	c #45B0EA",
"u 	c #36A5E5",
"v 	c #2C99E0",
"w 	c #1C8FDB",
"x 	c #0E83D5",
"y 	c #0178CE",
"z 	c #0083D9",
"A 	c #0166BD",
"B 	c #2896DC",
"C 	c #7FCBF1",
"D 	c #8CE2FF",
"E 	c #57C3F4",
"F 	c #57BDF1",
"G 	c #4AB8EE",
"H 	c #3EB1EB",
"I 	c #31A5E6",
"J 	c #2397DF",
"K 	c #138AD8",
"L 	c #057CD1",
"M 	c #0160B7",
"N 	c #003591",
"O 	c #0968C3",
"P 	c #6CB6E7",
"Q 	c #7CD8FD",
"R 	c #2F9AE0",
"S 	c #0B6EC5",
"T 	c #0086DC",
"U 	c #035BB3",
"V 	c #053896",
"W 	c #67B1E4",
"X 	c #5AB7EA",
"Y 	c #0571C9",
"Z 	c #035FB7",
"` 	c #0D449D",
" .	c #1667BE",
"..	c #297AC8",
"+.	c #0B50AA",
"@.	c #0D49A2",
"                                ",
"                                ",
"          .         +           ",
"        @ #         $ %         ",
"      & * =         - ; >       ",
"    , ' ) ! ~ ~ ~ ~ { ] ^ /     ",
"  ( _ : < [ } | 1 2 ~ 3 4 5 6   ",
"7 8 9 0 a b c d e f g h i j k l ",
"m n o p q r s t u v w x y z A   ",
"  B C D E F G H I J K L z M N   ",
"    O P Q R S S S S S T U V     ",
"      O W X         Y Z `       ",
"         ...        +.`         ",
"           .        @.          ",
"                                ",
"                                "};
