/* XPM */
static char * lock_16x16_xpm[] = {
"16 16 137 2",
"  	c None",
". 	c #8E8893",
"+ 	c #B6B3B9",
"@ 	c #ABAAB1",
"# 	c #ACA8AF",
"$ 	c #88848C",
"% 	c #A6A2AB",
"& 	c #FFFFFF",
"* 	c #F6F8F7",
"= 	c #F3F4F4",
"- 	c #F0F3F5",
"; 	c #97959B",
"> 	c #F0F0F3",
", 	c #928F99",
"' 	c #646069",
") 	c #B2B3B5",
"! 	c #D2D4D6",
"~ 	c #5B5960",
"{ 	c #9D9FAC",
"] 	c #B4B4BB",
"^ 	c #63666E",
"/ 	c #6B6B6F",
"( 	c #A5A6AF",
"_ 	c #686C7A",
": 	c #CBCDCF",
"< 	c #5E656F",
"[ 	c #E5E8E8",
"} 	c #C7924D",
"| 	c #E3B34B",
"1 	c #DD9A36",
"2 	c #E39A38",
"3 	c #E59737",
"4 	c #E68E2E",
"5 	c #E98421",
"6 	c #EB7307",
"7 	c #ED6600",
"8 	c #F58318",
"9 	c #AE663F",
"0 	c #E5CCA6",
"a 	c #FFFFBE",
"b 	c #FFEC83",
"c 	c #FFDC69",
"d 	c #FFCE58",
"e 	c #FFBF47",
"f 	c #FFB039",
"g 	c #FFA028",
"h 	c #FF8F14",
"i 	c #FFB540",
"j 	c #ED8C2C",
"k 	c #AD6338",
"l 	c #E1C899",
"m 	c #FFF5BB",
"n 	c #FFCF8A",
"o 	c #FFBF6D",
"p 	c #FFB157",
"q 	c #FFB154",
"r 	c #FFB250",
"s 	c #FFB64C",
"t 	c #FFAD3E",
"u 	c #FFBB4C",
"v 	c #ED7F1D",
"w 	c #AE6539",
"x 	c #E2C898",
"y 	c #FFFAB9",
"z 	c #FFD48C",
"A 	c #FFC474",
"B 	c #FFB75E",
"C 	c #FFB357",
"D 	c #FFAE4D",
"E 	c #FFAC43",
"F 	c #FFA232",
"G 	c #FFB544",
"H 	c #ED811D",
"I 	c #AE6439",
"J 	c #E2C798",
"K 	c #FFF7B3",
"L 	c #FFD086",
"M 	c #FFBE69",
"N 	c #FFAE52",
"O 	c #FFB252",
"P 	c #FFB54F",
"Q 	c #FFB74D",
"R 	c #FFB042",
"S 	c #FFBF55",
"T 	c #ED8423",
"U 	c #E2C698",
"V 	c #FFF6B3",
"W 	c #FFCF85",
"X 	c #FFBE68",
"Y 	c #FFAE4F",
"Z 	c #FFB150",
"` 	c #FFB94E",
" .	c #FFB243",
"..	c #FFC057",
"+.	c #ED8223",
"@.	c #AE6438",
"#.	c #E2C695",
"$.	c #FFF4B2",
"%.	c #FFCD82",
"&.	c #FFBC66",
"*.	c #FFB351",
"=.	c #FFB753",
"-.	c #FFBD53",
";.	c #FFB84A",
">.	c #FFC65E",
",.	c #ED8527",
"'.	c #E1C89C",
").	c #FFFCC2",
"!.	c #FFD592",
"~.	c #FFC06F",
"{.	c #FFAC4E",
"].	c #FFAE4B",
"^.	c #FFAD47",
"/.	c #FFB24B",
"(.	c #FFA83A",
"_.	c #B36F46",
":.	c #E7D4AA",
"<.	c #FFFDA0",
"[.	c #FFC652",
"}.	c #FFB335",
"|.	c #FFA72B",
"1.	c #FFA020",
"2.	c #FF9617",
"3.	c #FF971A",
"4.	c #FF9319",
"5.	c #FFAF36",
"6.	c #EE8926",
"7.	c #B06028",
"8.	c #C56A15",
"9.	c #C46718",
"0.	c #CA6817",
"a.	c #CD6715",
"b.	c #D16611",
"c.	c #D6630A",
"d.	c #DA640A",
"e.	c #E06306",
"f.	c #E87314",
"          . + @ # $             ",
"        % & & * = - ;           ",
"      % & > , ' ' ) ! ~         ",
"      { & ]       ^ ! /         ",
"      ( & ]       _ : <         ",
"      ( [ ]       _ : <         ",
"      } | 1 2 3 4 5 6 7 8       ",
"    9 0 a b c d e f g h i j     ",
"    k l m n o p q r s t u v     ",
"    w x y z A B C D E F G H     ",
"    I J K L M N O P Q R S T     ",
"    I U V W X Y Z P `  ...+.    ",
"    @.#.$.%.&.Y *.=.-.;.>.,.    ",
"    k '.).!.~.{.].^./.(.;.H     ",
"    _.:.<.[.}.|.1.2.3.4.5.6.    ",
"      7.8.9.0.a.b.c.d.e.f.      "};
