/* XPM */
static char * marionette_16x16_xpm[] = {
"16 16 63 1",
" 	c None",
".	c #C7D99F",
"+	c #A4C05F",
"@	c #D2E0B1",
"#	c #B5CC7A",
"$	c #A4C060",
"%	c #B5CC7D",
"&	c #BCD08A",
"*	c #A9C469",
"=	c #A2BF5C",
"-	c #C6D79D",
";	c #C1D493",
">	c #A0BD58",
",	c #9FBE56",
"'	c #9EBC56",
")	c #AFC872",
"!	c #C3D597",
"~	c #C2D692",
"{	c #B3CB7A",
"]	c #A8C267",
"^	c #A5C161",
"/	c #B1C975",
"(	c #C8D9A0",
"_	c #BAD086",
":	c #A7C265",
"<	c #A4C15F",
"[	c #D1E0AE",
"}	c #B4CB7E",
"|	c #CCDCA6",
"1	c #BDD18E",
"2	c #B8CE84",
"3	c #DDE7C4",
"4	c #C6D79C",
"5	c #D2DEB6",
"6	c #A5A99E",
"7	c #747474",
"8	c #262626",
"9	c #5B5B5B",
"0	c #343434",
"a	c #353535",
"b	c #252525",
"c	c #2D2D2D",
"d	c #B3B3B3",
"e	c #333333",
"f	c #7E7E7E",
"g	c #2B2B2B",
"h	c #6B6B6B",
"i	c #9F9F9F",
"j	c #414141",
"k	c #D8E4BC",
"l	c #A6B384",
"m	c #555555",
"n	c #272727",
"o	c #5C5C5C",
"p	c #525252",
"q	c #3B3B3B",
"r	c #2C2C2C",
"s	c #383838",
"t	c #D2DCBC",
"u	c #919191",
"v	c #474747",
"w	c #939393",
"x	c #373737",
"    .+@         ",
"     #$%  &*=   ",
"     -;>,')!~   ",
"   {]^/(_:< [   ",
"   }|1  1 2 3   ",
"   4 1  5 - 6   ",
"   4 1 789  0   ",
"   4 1 abc de   ",
"   4 - fghij    ",
"   k lmnbbo     ",
"   pq- rbb      ",
"     - qsj      ",
"     tou 8      ",
"     vw  b      ",
"     v   b      ",
"         x      "};
