/* XPM */
static char * mask_16x16_xpm[] = {
"16 16 15 1",
" 	c None",
".	c #231F1F",
"+	c #241E20",
"@	c #1F1F1F",
"#	c #221E1E",
"$	c #231E20",
"%	c #241F1F",
"&	c #1E1E1E",
"*	c #261F1F",
"=	c #251F1F",
"-	c #241F20",
";	c #1C1C1C",
">	c #251E1E",
",	c #221F1F",
"'	c #231E1E",
"                ",
"                ",
"            .++@",
"#$+%       .+@%+",
"+& $     *@.#  +",
"+  + $   =#..  -",
"-  %+$   *++;  -",
"-  *%       >  -",
"-++--+,  .+--+$-",
"--+$++----++$+--",
"+-.  &+---'  *--",
"$-+%%$-++-+%=+-+",
"#-----+%&+-----%",
" ,$-++%  *++-$% ",
"                ",
"                "};
