/* XPM */
static char * move_16x16_xpm[] = {
"16 16 82 1",
" 	c None",
".	c #5DBDE8",
"+	c #39A4E7",
"@	c #369EE2",
"#	c #CFF5FD",
"$	c #B0EAFB",
"%	c #359FE2",
"&	c #3CA1E1",
"*	c #C6F2FD",
"=	c #89DFFA",
"-	c #84DFFA",
";	c #B1EFFC",
">	c #3DA1E1",
",	c #8EDFFB",
"'	c #84DEFB",
")	c #3BA5E4",
"!	c #267BD1",
"~	c #8FDFFA",
"{	c #7DDBFA",
"]	c #2484D9",
"^	c #378FD7",
"/	c #85D9F8",
"(	c #75D6F8",
"_	c #349EE1",
":	c #2678D0",
"<	c #B0EBFB",
"[	c #78D3F7",
"}	c #6ACEF6",
"|	c #71D5F8",
"1	c #1A71CC",
"2	c #2777CA",
"3	c #A4E5FA",
"4	c #62CAF4",
"5	c #6DCEF5",
"6	c #77D2F6",
"7	c #77D0F6",
"8	c #70CEF5",
"9	c #61C6F3",
"0	c #62C7F3",
"a	c #67CAF5",
"b	c #6ACDF5",
"c	c #67CBF5",
"d	c #67CDF5",
"e	c #1A6DC9",
"f	c #388BD1",
"g	c #7DD7F9",
"h	c #4CBFF4",
"i	c #57C5F3",
"j	c #56C7F4",
"k	c #57C7F4",
"l	c #58C2F1",
"m	c #5BC7F4",
"n	c #5DC8F4",
"o	c #5CC8F4",
"p	c #5BC6F4",
"q	c #5BC5F4",
"r	c #5ECBF7",
"s	c #1F77CE",
"t	c #266EC3",
"u	c #75D4F5",
"v	c #2285D9",
"w	c #2282D6",
"x	c #2588D9",
"y	c #4FC1F2",
"z	c #2488D9",
"A	c #2181D6",
"B	c #2385D9",
"C	c #50C4F2",
"D	c #1B7AD2",
"E	c #47BBF0",
"F	c #1A76D1",
"G	c #3BB4EE",
"H	c #1A75D1",
"I	c #147AD7",
"J	c #2EAAEB",
"K	c #1479D7",
"L	c #21A6EA",
"M	c #20A3E8",
"N	c #20A4E8",
"O	c #21A5EB",
"P	c #14A2EB",
"Q	c #149AE7",
"       .+       ",
"      @#$%      ",
"     &*=-;>     ",
"    &%%,')%>    ",
"   !  %~{)  ]   ",
"  ^!  %/(_  ]]  ",
" :<%%%%[}]]]]|1 ",
"234567890abbcdde",
"fghijkillmnopqrs",
" tuvvwxyyzABACA ",
"  tv  DEED  AA  ",
"   v  FGGH      ",
"     HIJJKH     ",
"     HLMNOH     ",
"      HPQH      ",
"       HH       "};
