/* XPM */
static char * paste_16x16_xpm[] = {
"16 16 193 2",
"  	c None",
". 	c #A6A6A6",
"+ 	c #B7B7B7",
"@ 	c #E2E2E1",
"# 	c #ABABAB",
"$ 	c #E2E2E4",
"% 	c #C1C2BF",
"& 	c #F6FCFF",
"* 	c #FFFFFF",
"= 	c #B1B1B3",
"- 	c #FEFEFC",
"; 	c #C5C8C5",
"> 	c #FEB158",
", 	c #FFD377",
"' 	c #F4B84D",
") 	c #C6C9CF",
"! 	c #FCFFFF",
"~ 	c #EEEFEF",
"{ 	c #FDFEFF",
"] 	c #EFEFF1",
"^ 	c #FEFFFF",
"/ 	c #C4CDD7",
"( 	c #AC6611",
"_ 	c #FFAC3A",
": 	c #FB9927",
"< 	c #FEB85D",
"[ 	c #FFD45A",
"} 	c #FBC144",
"| 	c #6E7181",
"1 	c #6D7991",
"2 	c #747A88",
"3 	c #727B8D",
"4 	c #837E7A",
"5 	c #877E78",
"6 	c #5D595D",
"7 	c #CB7400",
"8 	c #FFBE25",
"9 	c #FFA416",
"0 	c #FEB655",
"a 	c #FFCA5E",
"b 	c #FFCE54",
"c 	c #BE9639",
"d 	c #765814",
"e 	c #8D661E",
"f 	c #9D6302",
"g 	c #5A5C4E",
"h 	c #708590",
"i 	c #6A7E82",
"j 	c #9A9D86",
"k 	c #8D9B83",
"l 	c #707D6C",
"m 	c #5895C3",
"n 	c #FEB554",
"o 	c #FFC458",
"p 	c #FFBB4A",
"q 	c #FFCF50",
"r 	c #FFD854",
"s 	c #FFD951",
"t 	c #FFD53A",
"u 	c #8E9D9F",
"v 	c #D0E6FD",
"w 	c #AACAEA",
"x 	c #5993C1",
"y 	c #EBEFF4",
"z 	c #5D8DAA",
"A 	c #FEB451",
"B 	c #FFC253",
"C 	c #FFB946",
"D 	c #FFB949",
"E 	c #FFB649",
"F 	c #FFBA2B",
"G 	c #888E81",
"H 	c #EFF8FF",
"I 	c #FFFEFB",
"J 	c #EBF2F4",
"K 	c #D8E1EA",
"L 	c #97B5CA",
"M 	c #F9FBFB",
"N 	c #EAEEF3",
"O 	c #6A96B0",
"P 	c #FEB14F",
"Q 	c #FFBF4E",
"R 	c #FFB543",
"S 	c #FFB848",
"T 	c #FFB746",
"U 	c #FFBB47",
"V 	c #FFBA2C",
"W 	c #808981",
"X 	c #EDF8FF",
"Y 	c #FFFDFB",
"Z 	c #F9FBFC",
"` 	c #EDF4F7",
" .	c #BACED9",
"..	c #A1BFCE",
"+.	c #7CA2BC",
"@.	c #356E96",
"#.	c #FEAF4E",
"$.	c #FFB948",
"%.	c #FFB340",
"&.	c #FFB443",
"*.	c #FFB041",
"=.	c #FFB744",
"-.	c #FFB729",
";.	c #79857B",
">.	c #EEF8FF",
",.	c #FFFCFB",
"'.	c #FBFCF9",
").	c #FBFBFB",
"!.	c #ECF1F5",
"~.	c #D6E0E9",
"{.	c #C9D8E1",
"].	c #5184A2",
"^.	c #FEAD49",
"/.	c #FFAD3C",
"(.	c #FFAF3E",
"_.	c #FFAE3E",
":.	c #FFB526",
"<.	c #707D72",
"[.	c #E4F5FF",
"}.	c #F5F9F8",
"|.	c #F3F7FB",
"1.	c #F7FBFB",
"2.	c #F8FCFB",
"3.	c #E9EEF2",
"4.	c #E9EFF2",
"5.	c #6490AD",
"6.	c #FEAD47",
"7.	c #FFB13E",
"8.	c #FFAA39",
"9.	c #FFAC3B",
"0.	c #FFAB3B",
"a.	c #FFB13D",
"b.	c #FFB122",
"c.	c #67766F",
"d.	c #D9EDFF",
"e.	c #EDF4F3",
"f.	c #EAEFF3",
"g.	c #ECF1F6",
"h.	c #F4F7FB",
"i.	c #F1F4FB",
"j.	c #709AB5",
"k.	c #FEAB46",
"l.	c #FFAA3A",
"m.	c #FFA935",
"n.	c #FFA937",
"o.	c #FFA939",
"p.	c #FFAD3B",
"q.	c #FFAC1C",
"r.	c #69726F",
"s.	c #DCEEFF",
"t.	c #F1F4F4",
"u.	c #E9F1F3",
"v.	c #EBF1F4",
"w.	c #EDF2F6",
"x.	c #EDF1F8",
"y.	c #789FB6",
"z.	c #FEA546",
"A.	c #FF9F34",
"B.	c #FFA02C",
"C.	c #FFA02F",
"D.	c #FF9D2D",
"E.	c #FFA431",
"F.	c #FFA20C",
"G.	c #696F69",
"H.	c #D9EBFF",
"I.	c #EDF2F2",
"J.	c #E7EEF1",
"K.	c #E3EDEF",
"L.	c #E1E9EC",
"M.	c #739BB6",
"N.	c #FFAF49",
"O.	c #FFBB49",
"P.	c #FFB83F",
"Q.	c #FFB841",
"R.	c #FFB640",
"S.	c #FFBC41",
"T.	c #FFC12B",
"U.	c #657773",
"V.	c #86A6BE",
"W.	c #BE8B32",
"X.	c #C48634",
"Y.	c #C48834",
"Z.	c #C88832",
"`.	c #DC9635",
" +	c #2B4B6A",
".+	c #5A91B8",
"++	c #6993AF",
"@+	c #6692AF",
"#+	c #6692B0",
"$+	c #6C97B4",
"%+	c #6F99B4",
"&+	c #78A1BA",
"*+	c #1B5885",
"            . +                 ",
"          @ # $                 ",
"      % & * = - * ;             ",
"> , ' ) ! ~ { ] ^ / ( _ :       ",
"< [ } | 1 2 3 4 5 6 7 8 9       ",
"0 a b c d e f g h i j k l m     ",
"n o p q r s t u ! * v w x y z   ",
"A B C D E p F G H I J K L M N O ",
"P Q R S T U V W X Y Z `  ...+.@.",
"#.$.%.&.*.=.-.;.>.,.'.).!.~.{.].",
"^.R /.(._.R :.<.[.}.|.1.2.3.4.5.",
"6.7.8.9.0.a.b.c.d.e.f.g.h.i.* j.",
"k.l.m.n.o.p.q.r.s.t.u.v.w.x.* y.",
"z.A.B.C.D.E.F.G.H.I.J.J.K.L.* M.",
"N.O.P.Q.R.S.T.U.* * * * * * * V.",
"  W.X.Y.Y.Z.`. +.+++@+#+$+%+&+*+"};
