/* XPM */
static char * rotate_16x16_xpm[] = {
"16 16 114 2",
"  	c None",
". 	c #2893E2",
"+ 	c #50A6E5",
"@ 	c #61B8EA",
"# 	c #5DB0E7",
"$ 	c #438FD9",
"% 	c #1760C4",
"& 	c #60C0F1",
"* 	c #9AE5FB",
"= 	c #ACF4FF",
"- 	c #ACF5FF",
"; 	c #ABF5FF",
"> 	c #A9F8FF",
", 	c #8DE0F8",
"' 	c #4190D8",
") 	c #6BCEF3",
"! 	c #9FEFFF",
"~ 	c #8DECFF",
"{ 	c #87EDFF",
"] 	c #75E2FC",
"^ 	c #8AF0FF",
"/ 	c #8FF0FF",
"( 	c #9BF6FF",
"_ 	c #459CDC",
": 	c #4DC2F3",
"< 	c #8EE9FD",
"[ 	c #7DE6FD",
"} 	c #72DEFB",
"| 	c #36A4E7",
"1 	c #1F84DA",
"2 	c #1B79D4",
"3 	c #2F8CDB",
"4 	c #71DDFA",
"5 	c #80EAFE",
"6 	c #87EFFF",
"7 	c #2168C1",
"8 	c #35BAF2",
"9 	c #6BD8F8",
"0 	c #73E0FC",
"a 	c #69DBFA",
"b 	c #2A9CE6",
"c 	c #186CCB",
"d 	c #66D7F9",
"e 	c #7AEAFF",
"f 	c #4BBBED",
"g 	c #0540AB",
"h 	c #3BBFF3",
"i 	c #66D8F9",
"j 	c #68DDFA",
"k 	c #46BDF1",
"l 	c #37A0E2",
"m 	c #69E0FE",
"n 	c #61D7F9",
"o 	c #1258BC",
"p 	c #3ABFF3",
"q 	c #49C6F4",
"r 	c #48C3F3",
"s 	c #2DA2EA",
"t 	c #1D7CD5",
"u 	c #57D3FA",
"v 	c #56CFF6",
"w 	c #176FCB",
"x 	c #125FC8",
"y 	c #2189DA",
"z 	c #48CCF8",
"A 	c #46C7F5",
"B 	c #105EC1",
"C 	c #3282D3",
"D 	c #66B5E7",
"E 	c #1155BF",
"F 	c #36B0EC",
"G 	c #3BC3F5",
"H 	c #2DABEC",
"I 	c #0644AD",
"J 	c #3780D5",
"K 	c #78D6F8",
"L 	c #3EA1E3",
"M 	c #1D6ACC",
"N 	c #41ADE9",
"O 	c #2DB8F2",
"P 	c #2CBDF6",
"Q 	c #0F69C9",
"R 	c #348CD9",
"S 	c #58C2F2",
"T 	c #1396E8",
"U 	c #42B8EF",
"V 	c #47C0F2",
"W 	c #1DAAEF",
"X 	c #1CADF2",
"Y 	c #1483DB",
"Z 	c #0137A7",
"` 	c #329AE2",
" .	c #33ADEA",
"..	c #0A85E1",
"+.	c #0C8FE5",
"@.	c #0A98E9",
"#.	c #099BEA",
"$.	c #0F9CEB",
"%.	c #0D7DD9",
"&.	c #033EAE",
"*.	c #1A81DD",
"=.	c #077ADD",
"-.	c #0183E1",
";.	c #048CE5",
">.	c #078AE2",
",.	c #0B7DD9",
"'.	c #0B61C7",
").	c #0A82DF",
"!.	c #008CE5",
"~.	c #0974D7",
"{.	c #1353C0",
"].	c #0C7EDB",
"^.	c #0A73D5",
"/.	c #1364CB",
"          . + @ # $ %           ",
"        & * = - ; > , '         ",
"      ) ! ~ { ] ] ^ / ( _       ",
"    : < [ } | 1 2 3 4 5 6 7     ",
"  8 9 0 a b         c d e f g   ",
"  h i j k             l m n o   ",
"  p q r s             t u v w   ",
"                x     y z A B   ",
"              C D   E F G H I   ",
"            J K L M N O P Q     ",
"          R S T U V W X Y Z     ",
"        `  ...+.@.#.$.%.&.      ",
"        *.=.-.;.>.,.'.          ",
"            ).!.~.{.            ",
"              ].^.              ",
"                /.              "};
