/* XPM */
static char * save_as_16x16_xpm[] = {
"16 16 184 2",
"  	c None",
". 	c #81C6EC",
"+ 	c #82CAF0",
"@ 	c #7DCAF4",
"# 	c #88C7E8",
"$ 	c #94CFEF",
"% 	c #92D1EE",
"& 	c #92CFED",
"* 	c #92D0EE",
"= 	c #93D0EE",
"- 	c #96D3F2",
"; 	c #9BD7F7",
"> 	c #9BD6F6",
", 	c #8AC4E6",
"' 	c #52B5EB",
") 	c #7EC4EC",
"! 	c #D5F4FE",
"~ 	c #90E2FF",
"{ 	c #D4D7DC",
"] 	c #FFFFF5",
"^ 	c #FFFEF6",
"/ 	c #FFFDF6",
"( 	c #FFFFFF",
"_ 	c #DCDDDF",
": 	c #A7BAC8",
"< 	c #E2E4E5",
"[ 	c #88DEFF",
"} 	c #45AAE4",
"| 	c #79C0EA",
"1 	c #9BE0F8",
"2 	c #65D1FB",
"3 	c #AFC4D3",
"4 	c #F6EEEA",
"5 	c #E8EBEC",
"6 	c #E9EBEC",
"7 	c #E6E9EB",
"8 	c #FFFFFB",
"9 	c #788EA2",
"0 	c #4FAFDE",
"a 	c #959CA8",
"b 	c #B9C7D1",
"c 	c #78DAFF",
"d 	c #89D8F5",
"e 	c #42A4E2",
"f 	c #75BCE9",
"g 	c #9EDDF8",
"h 	c #69CFFD",
"i 	c #AFC0CE",
"j 	c #EFE7E3",
"k 	c #E3E5E7",
"l 	c #E4E5E6",
"m 	c #FFF6F1",
"n 	c #86A3BA",
"o 	c #73E8FF",
"p 	c #9EABB5",
"q 	c #B8C0CA",
"r 	c #6ED2FF",
"s 	c #8EDAF9",
"t 	c #5BB2E7",
"u 	c #73B9E5",
"v 	c #97DAF6",
"w 	c #62CCFB",
"x 	c #E9E0DD",
"y 	c #DDDFE1",
"z 	c #DEDFE0",
"A 	c #F9F3EF",
"B 	c #6F889F",
"C 	c #47AFE5",
"D 	c #89919E",
"E 	c #B2BDC7",
"F 	c #6ACFFD",
"G 	c #84D4F5",
"H 	c #51ACE3",
"I 	c #66A9DC",
"J 	c #93D9F6",
"K 	c #5DC8FB",
"L 	c #A2B4C2",
"M 	c #EBDED7",
"N 	c #DDDDDD",
"O 	c #DEDDDC",
"P 	c #DDDBDC",
"Q 	c #EAE8E7",
"R 	c #9296A2",
"S 	c #A9BCC6",
"T 	c #63CBFB",
"U 	c #7ED0F3",
"V 	c #4CA7E0",
"W 	c #67ABDD",
"X 	c #8BD5F6",
"Y 	c #56D0FF",
"Z 	c #87A8C0",
"` 	c #C9C5C8",
" .	c #BFC6CE",
"..	c #C0C6CD",
"+.	c #BFC6CD",
"@.	c #CAD0D6",
"#.	c #D0D3D6",
"$.	c #D4CECF",
"%.	c #88A8C0",
"&.	c #5DD2FF",
"*.	c #75CCF3",
"=.	c #48A1DC",
"-.	c #69ACDE",
";.	c #81D2F9",
">.	c #5C97C1",
",.	c #607B9A",
"'.	c #5E7795",
").	c #5D7997",
"!.	c #5C7997",
"~.	c #5E7A9A",
"{.	c #649AC1",
"].	c #6BCAF7",
"^.	c #449BD9",
"/.	c #5CA3D8",
"(.	c #6DC6F0",
"_.	c #54BDEE",
":.	c #3E96D7",
"<.	c #5EA4D9",
"[.	c #63C2F0",
"}.	c #E9E8EC",
"|.	c #9F9DA9",
"1.	c #9E99A4",
"2.	c #94919A",
"3.	c #8B8892",
"4.	c #857F89",
"5.	c #7C7982",
"6.	c #77717A",
"7.	c #625C65",
"8.	c #49B7ED",
"9.	c #3A90D2",
"0.	c #5B9ED6",
"a.	c #5ABDED",
"b.	c #FEFEFF",
"c.	c #40B3EA",
"d.	c #348BD0",
"e.	c #589BD4",
"f.	c #50B9EB",
"g.	c #37ACE8",
"h.	c #3185CC",
"i.	c #5396D0",
"j.	c #47B4EA",
"k.	c #EFF0EF",
"l.	c #DCDEDF",
"m.	c #DFE0E1",
"n.	c #DDE0DF",
"o.	c #DDDFE0",
"p.	c #DDDEDF",
"q.	c #DEE0DF",
"r.	c #D9D9DB",
"s.	c #EDEDED",
"t.	c #2BA6E7",
"u.	c #2B80C9",
"v.	c #5195CD",
"w.	c #3CAEE8",
"x.	c #A2A0AD",
"y.	c #9E9BA7",
"z.	c #95939E",
"A.	c #8C8994",
"B.	c #85818A",
"C.	c #7C7983",
"D.	c #76727B",
"E.	c #645F68",
"F.	c #209EE5",
"G.	c #257BC7",
"H.	c #3D93D5",
"I.	c #36B7EF",
"J.	c #FFF8E9",
"K.	c #F6E5DB",
"L.	c #F8E8DB",
"M.	c #F9E8DB",
"N.	c #F8E7DA",
"O.	c #F8E7DB",
"P.	c #F5E4D8",
"Q.	c #FFF6E9",
"R.	c #14A7EA",
"S.	c #1D76C0",
"T.	c #1B76C1",
"U.	c #1975C2",
"V.	c #136BBD",
"W.	c #0465B9",
"X.	c #0465BA",
"Y.	c #0A69BC",
"Z.	c #156AB9",
"`.	c #1F79C3",
". + @ # $ % & * = - ; > , '     ",
") ! ~ { ] ^ ^ / ( _ : _ < [ }   ",
"| 1 2 3 4 5 6 7 8 9 0 a b c d e ",
"f g h i j k l < m n o p q r s t ",
"u v w : x y z _ A B C D E F G H ",
"I J K L M N O P Q : R L S T U V ",
"W X Y Z `  .....+.@.#.$.%.&.*.=.",
"-.;.>.,.'.).).).).!.!.'.~.{.].^.",
"/.(.{ ( ( ( ( ( ( ( ( ( ( { _.:.",
"<.[.{ }.|.1.2.3.4.5.6.7.}.{ 8.9.",
"0.a.{ ( b.( ( ( ( ( ( ( ( { c.d.",
"e.f.{ }.|.1.2.3.4.5.6.7.}.{ g.h.",
"i.j.{ k.l.m.z n.o.p.q.r.s.{ t.u.",
"v.w.{ }.x.y.z.A.B.C.D.E.}.{ F.G.",
"H.I...J.K.L.L.M.L.N.O.P.Q...R.S.",
"T.U.V.W.W.W.X.X.X.X.X.X.X.Y.Z.`."};
