/* XPM */
static char * unlock_16x16_xpm[] = {
"16 16 145 2",
"  	c None",
". 	c #95909A",
"+ 	c #B0ADB3",
"@ 	c #A8A5AB",
"# 	c #A2A0A7",
"$ 	c #8C898E",
"% 	c #B7B5BB",
"& 	c #FFFFFF",
"* 	c #F4F6F4",
"= 	c #F4F6F5",
"- 	c #F1F2F2",
"; 	c #E3E6E6",
"> 	c #A4A2A7",
", 	c #D7D9D9",
"' 	c #7B7680",
") 	c #4C4653",
"! 	c #57525A",
"~ 	c #B3B6B7",
"{ 	c #C2C6C8",
"] 	c #504B54",
"^ 	c #C2C0C9",
"/ 	c #FEFFFE",
"( 	c #95929D",
"_ 	c #7B757D",
": 	c #CED3D5",
"< 	c #56535B",
"[ 	c #FBFFFD",
"} 	c #8D8E99",
"| 	c #625D66",
"1 	c #CBCFCF",
"2 	c #4D4951",
"3 	c #EFF3FD",
"4 	c #867B89",
"5 	c #6C6A71",
"6 	c #C0C5C3",
"7 	c #4C4950",
"8 	c #B96B2D",
"9 	c #C07928",
"0 	c #BC6C24",
"a 	c #C56718",
"b 	c #CB6E1B",
"c 	c #CD7424",
"d 	c #D2711B",
"e 	c #D76C14",
"f 	c #DD690C",
"g 	c #E07014",
"h 	c #666169",
"i 	c #A9ACAF",
"j 	c #4E4A51",
"k 	c #EAD9AA",
"l 	c #FFFFC2",
"m 	c #FFF883",
"n 	c #FFE76F",
"o 	c #FFD761",
"p 	c #FFC54C",
"q 	c #FFB63D",
"r 	c #FFA42E",
"s 	c #FF911B",
"t 	c #FFBF4E",
"u 	c #E98D33",
"v 	c #47434B",
"w 	c #E0C99C",
"x 	c #FFF5BB",
"y 	c #FECF8C",
"z 	c #FDBD6E",
"A 	c #FDB154",
"B 	c #FBAF52",
"C 	c #FBAF4E",
"D 	c #F9B14B",
"E 	c #F8A53E",
"F 	c #FFB94E",
"G 	c #E77E20",
"H 	c #E1C497",
"I 	c #FFF2AE",
"J 	c #FDCA7D",
"K 	c #FCB761",
"L 	c #FAA949",
"M 	c #FDB14F",
"N 	c #FDB855",
"O 	c #FBC25C",
"P 	c #F9BB52",
"Q 	c #FFCC67",
"R 	c #E6852D",
"S 	c #E1C89B",
"T 	c #FFF8B9",
"U 	c #FED28B",
"V 	c #FDC272",
"W 	c #FDB55A",
"X 	c #FDB256",
"Y 	c #FCAF4E",
"Z 	c #FAAF47",
"` 	c #F8A338",
" .	c #FFB84B",
"..	c #E67F22",
"+.	c #E1C99A",
"@.	c #FFF9B8",
"#.	c #FED38A",
"$.	c #FDC171",
"%.	c #FDB45C",
"&.	c #FCB254",
"*.	c #FCB04E",
"=.	c #FAAF48",
"-.	c #F8A339",
";.	c #E78023",
">.	c #FFF9BA",
",.	c #FED48D",
"'.	c #FDC575",
").	c #FDB963",
"!.	c #FDB45B",
"~.	c #FCAF4F",
"{.	c #FAAC43",
"].	c #F89F33",
"^.	c #FFB446",
"/.	c #E77E21",
"(.	c #E1C599",
"_.	c #FFF5B7",
":.	c #FDCB84",
"<.	c #FBB460",
"[.	c #FA9F3A",
"}.	c #FBAA46",
"|.	c #FCB853",
"1.	c #FBCA64",
"2.	c #F9C25E",
"3.	c #FFD16E",
"4.	c #E9D9AD",
"5.	c #FFFFA7",
"6.	c #FFC754",
"7.	c #FFB436",
"8.	c #FFAB2E",
"9.	c #FFA025",
"0.	c #FF961B",
"a.	c #FF971F",
"b.	c #FF931D",
"c.	c #FFB53F",
"d.	c #E98627",
"e.	c #B1682E",
"f.	c #BC6412",
"g.	c #BE641A",
"h.	c #C2681C",
"i.	c #C76719",
"j.	c #CC6616",
"k.	c #D06410",
"l.	c #D56410",
"m.	c #DB650C",
"n.	c #E07319",
"                  . + @ # $     ",
"                % & * = - ; >   ",
"              % & , ' ) ! ~ { ] ",
"              ^ / (       _ : < ",
"              ^ [ }       | 1 2 ",
"              ^ 3 4       5 6 7 ",
"  8 9 0 a b c d e f g     h i j ",
"8 k l m n o p q r s t u   h h v ",
"8 w x y z A B C D E F G         ",
"8 H I J K L M N O P Q R         ",
"8 S T U V W X Y Z `  ...        ",
"8 +.@.#.$.%.&.*.=.-. .;.        ",
"8 +.>.,.'.).!.~.{.].^./.        ",
"8 (._.:.<.[.}.|.1.2.3.R         ",
"8 4.5.6.7.8.9.0.a.b.c.d.        ",
"  e.f.g.h.i.j.k.l.m.n.          "};
