/* XPM */
static char * up_down_16x16_xpm[] = {
"16 16 96 2",
"  	c None",
". 	c #52BEEA",
"+ 	c #59C1EA",
"@ 	c #FFFFFF",
"# 	c #A8E8F6",
"$ 	c #3EA8E1",
"% 	c #F1FFFF",
"& 	c #95EAFA",
"* 	c #A7F4FE",
"= 	c #8DD5F0",
"- 	c #067FD3",
"; 	c #3AA3DF",
"> 	c #F5FFFF",
", 	c #9EECFA",
"' 	c #72DCF5",
") 	c #71DCF4",
"! 	c #A8F6FF",
"~ 	c #7DCAED",
"{ 	c #006AC9",
"] 	c #48A5E0",
"^ 	c #97F0FB",
"/ 	c #67D7F2",
"( 	c #71D8F4",
"_ 	c #6AD3F2",
": 	c #5ED2F1",
"< 	c #91F4FE",
"[ 	c #78C6EA",
"} 	c #0D61C4",
"| 	c #0E78CF",
"1 	c #91DEF2",
"2 	c #5FD1EE",
"3 	c #90DFF5",
"4 	c #85E0F7",
"5 	c #61CFEF",
"6 	c #61CDEE",
"7 	c #59CDEF",
"8 	c #27A2E0",
"9 	c #61CEED",
"0 	c #247CCE",
"a 	c #1061C2",
"b 	c #8DEAFA",
"c 	c #4DC5EB",
"d 	c #52C6ED",
"e 	c #4AC5EF",
"f 	c #004BBA",
"g 	c #7AE6F7",
"h 	c #3BBCE9",
"i 	c #41C0EC",
"j 	c #3FC5EF",
"k 	c #6ADEF5",
"l 	c #2BAEE5",
"m 	c #34B3E8",
"n 	c #30B8EC",
"o 	c #5BD7F4",
"p 	c #22A4E1",
"q 	c #28A5E2",
"r 	c #1FA2E2",
"s 	c #114DB4",
"t 	c #2B97DC",
"u 	c #1F9CE1",
"v 	c #37B7E7",
"w 	c #1C99DD",
"x 	c #1A97DB",
"y 	c #1393DD",
"z 	c #0C6ECC",
"A 	c #0D76D4",
"B 	c #0E47B0",
"C 	c #0F40A6",
"D 	c #1659B8",
"E 	c #36C8F5",
"F 	c #1EB0EA",
"G 	c #1693DB",
"H 	c #158EDA",
"I 	c #0E86D7",
"J 	c #0B83D8",
"K 	c #0A91E5",
"L 	c #0A5EBC",
"M 	c #0A2A93",
"N 	c #0D42AD",
"O 	c #189EE5",
"P 	c #1297E2",
"Q 	c #0C81D6",
"R 	c #097CD4",
"S 	c #0A8EE3",
"T 	c #0B58BC",
"U 	c #0938A1",
"V 	c #0B85DC",
"W 	c #0A87DD",
"X 	c #0B8DE3",
"Y 	c #0A5EBE",
"Z 	c #071D86",
"` 	c #083BA4",
" .	c #0B9AEF",
"..	c #0A6AC9",
"+.	c #082891",
"@.	c #073D9E",
"              .                 ",
"            + @ #               ",
"          $ % & * = -           ",
"        ; > , ' ) ! ~ {         ",
"      ] @ ^ / ( _ : < [ }       ",
"    | 1 2 3 4 5 6 7 8 9 0 a     ",
"          8 b c d e f           ",
"          8 g h i j f           ",
"          8 k l m n f           ",
"          8 o p q r f           ",
"    s t u 8 v w x y z A B C     ",
"      D E F G H I J K L M       ",
"        N O P Q R S T M         ",
"          U V W X Y Z           ",
"            `  ...+.            ",
"              @.+.              "};
