/* XPM */
static char * yellow_pin_16x16_xpm[] = {
"16 16 92 2",
"  	c None",
". 	c #FBBC4A",
"+ 	c #F99B1E",
"@ 	c #FAAE22",
"# 	c #FAC13F",
"$ 	c #F9A321",
"% 	c #F99D0A",
"& 	c #F9AD10",
"* 	c #F8B509",
"= 	c #F8CA29",
"- 	c #F7EA62",
"; 	c #FDCA65",
"> 	c #F9A200",
", 	c #F9B914",
"' 	c #F8C013",
") 	c #F7C807",
"! 	c #F7DB35",
"~ 	c #F6E557",
"{ 	c #FFFAC0",
"] 	c #FBBE28",
"^ 	c #F8BB07",
"/ 	c #F6C70C",
"( 	c #F6D00B",
"_ 	c #F5E019",
": 	c #F7DF24",
"< 	c #FDF09B",
"[ 	c #F9EB6F",
"} 	c #F5DA34",
"| 	c #F7CE34",
"1 	c #F4D81E",
"2 	c #F4E917",
"3 	c #F6E730",
"4 	c #F5D152",
"5 	c #EFC549",
"6 	c #EBB621",
"7 	c #F5DA2A",
"8 	c #FEF6AC",
"9 	c #FCF290",
"0 	c #F4D617",
"a 	c #F5C308",
"b 	c #F8BF24",
"c 	c #F8BC2D",
"d 	c #F8AF23",
"e 	c #F5DC5F",
"f 	c #F6EC71",
"g 	c #F4D555",
"h 	c #F6DE44",
"i 	c #FEF9B2",
"j 	c #FAEE7E",
"k 	c #F4D50C",
"l 	c #F6C20D",
"m 	c #F9AC17",
"n 	c #F7EA6E",
"o 	c #F4D351",
"p 	c #FAE88B",
"q 	c #FCF175",
"r 	c #F4D008",
"s 	c #F7C011",
"t 	c #FAAD17",
"u 	c #FC9916",
"v 	c #F2CD4D",
"w 	c #EEC445",
"x 	c #EDB935",
"y 	c #F5D110",
"z 	c #FAC110",
"A 	c #FDAB17",
"B 	c #F89615",
"C 	c #F2B326",
"D 	c #F0B32A",
"E 	c #E6A024",
"F 	c #E59514",
"G 	c #EF9C13",
"H 	c #F49516",
"I 	c #E78E12",
"J 	c #A7A39E",
"K 	c #E39A1E",
"L 	c #E68F0D",
"M 	c #E18A0F",
"N 	c #E08A11",
"O 	c #E18D11",
"P 	c #E18F11",
"Q 	c #ABADB0",
"R 	c #7F92B1",
"S 	c #EF9104",
"T 	c #E28F12",
"U 	c #E38F11",
"V 	c #A6A8AB",
"W 	c #9E9F9F",
"X 	c #A2A3A7",
"Y 	c #A0A3A4",
"Z 	c #66686B",
"` 	c #B3B5B8",
"                    . + @ #     ",
"                    $ % & * =   ",
"                  - ; > , ' ) ! ",
"                  ~ { ] ^ / ( _ ",
"                : < [ } | 1 2 3 ",
"        4 5 6 7 8 9 0 a b c d   ",
"      e f g h i j k l m         ",
"      e n o p q r s t u         ",
"        v w x y z A B           ",
"        C D E F G H I           ",
"        J K L M N O P           ",
"      Q R   S T U U U           ",
"    V W         U U             ",
"    X                           ",
"  Y Z                           ",
"`                               "};
