/* XPM */
static char * xpm_abort[] = {
"24 24 336 2",
"XX	c #ffffff",
"  	c None",
"++	c #f54246",
"..	c #e33024",
"||	c #cd0e08",
"//	c #f77454",
"06	c #ef140d",
"07	c #d80000",
"08	c #dc0000",
"09	c #fba484",
"0a	c #fba584",
"0b	c #9c0102",
"0c	c #9a0102",
"0d	c #e8544b",
"0e	c #f77353",
"0f	c #f76a4e",
"0g	c #f02830",
"0h	c #eb262d",
"0i	c #ec383c",
"0j	c #eb3e41",
"0k	c #ea3d40",
"0l	c #e83e42",
"0m	c #e43336",
"0n	c #d90c0e",
"0o	c #d70e11",
"0p	c #d30e10",
"0q	c #d10c10",
"0r	c #cb090c",
"0s	c #ba0104",
"0t	c #ec242c",
"0u	c #f1514f",
"0v	c #fbb094",
"0w	c #fa9476",
"0x	c #fa8f75",
"0y	c #f98d74",
"0z	c #f8684a",
"10	c #f74d33",
"11	c #f64b32",
"12	c #f7472f",
"13	c #f7422e",
"14	c #f93f2e",
"15	c #d31315",
"16	c #b30003",
"17	c #f0252d",
"18	c #f15251",
"19	c #fab395",
"1a	c #f77253",
"1b	c #f76d4a",
"1c	c #f7674b",
"1d	c #f86a4d",
"1e	c #f22615",
"1f	c #f32515",
"1g	c #f32312",
"1h	c #f22012",
"1i	c #f21d11",
"1j	c #f31910",
"1k	c #f72217",
"1l	c #cf1415",
"1m	c #ac0003",
"1n	c #ef252d",
"1o	c #f35453",
"1p	c #fab39a",
"1q	c #f77150",
"1r	c #f66a4c",
"1s	c #f66449",
"1t	c #f55036",
"1u	c #f02213",
"1v	c #f12412",
"1w	c #f11f13",
"1x	c #f01f10",
"1y	c #f01a0f",
"1z	c #f0190f",
"20	c #f61c15",
"21	c #cb1415",
"22	c #a50001",
"23	c #f2252d",
"24	c #f45453",
"25	c #fab79b",
"26	c #f77957",
"27	c #f7724f",
"28	c #f66b4b",
"29	c #f55c3d",
"2a	c #f35338",
"2b	c #f02f1b",
"2c	c #ed170a",
"2d	c #ed180b",
"2e	c #ec150a",
"2f	c #ec1309",
"2g	c #ec1209",
"2h	c #eb0f08",
"2i	c #eb0d09",
"2j	c #ec0d0a",
"2k	c #f61713",
"2l	c #c61112",
"2m	c #9a0002",
"2n	c #f3262e",
"2o	c #f55453",
"2p	c #fbb99d",
"2q	c #f77a58",
"2r	c #f7634e",
"2s	c #f98374",
"2t	c #f77564",
"2u	c #f66559",
"2v	c #f55c51",
"2w	c #f02a1d",
"2x	c #ee1b10",
"2y	c #ee1b11",
"2z	c #ee1a11",
"30	c #ee1711",
"31	c #ee150f",
"32	c #ec140f",
"33	c #e50000",
"34	c #e40000",
"35	c #e60804",
"36	c #f4100e",
"37	c #bc0e0f",
"38	c #930000",
"39	c #f4282f",
"3a	c #f65555",
"3b	c #fbb89d",
"3c	c #f77754",
"3d	c #f6714d",
"3e	c #f8a2ad",
"3f	c #f58b93",
"3g	c #e00000",
"3h	c #e40101",
"3i	c #ef0c0c",
"3j	c #b90d0f",
"3k	c #900000",
"3l	c #f43b3f",
"3m	c #fbbba1",
"3n	c #f77857",
"3o	c #f35e40",
"3p	c #f1452f",
"3q	c #f04449",
"3r	c #ef3c3f",
"3s	c #ee373b",
"3t	c #ed3336",
"3u	c #ed3438",
"3v	c #ee2f33",
"3w	c #fce3e7",
"3x	c #e20101",
"3y	c #f60d0c",
"3z	c #a20305",
"40	c #fba283",
"41	c #f66a49",
"42	c #f4909d",
"43	c #fbd7de",
"44	c #fbd2d5",
"45	c #f9d2d5",
"46	c #fbd2d4",
"47	c #fbd4d6",
"48	c #fbd5d6",
"49	c #f8c3c6",
"4a	c #fdf7f7",
"4b	c #f6a6ab",
"4c	c #ef0506",
"4d	c #a30002",
"4e	c #f36346",
"4f	c #f6c1c6",
"4g	c #d70000",
"4h	c #ee0506",
"4i	c #a00003",
"4j	c #f35f44",
"4k	c #e63b39",
"4l	c #e22a31",
"4m	c #df262c",
"4n	c #df272c",
"4o	c #e12a2f",
"4p	c #e4353b",
"4q	c #e21920",
"4r	c #e93941",
"4s	c #d70407",
"4t	c #ee0304",
"4u	c #ea6568",
"4v	c #d00206",
"4w	c #ec0304",
"4x	c #fca885",
"4y	c #e8483e",
"4z	c #e65c4a",
"50	c #e8614f",
"51	c #f9bec2",
"52	c #cd0206",
"53	c #ec0303",
"54	c #fba585",
"55	c #f26046",
"56	c #ecaab4",
"57	c #f3d5da",
"58	c #f2d0d5",
"59	c #f2cfd5",
"5a	c #f2cfd3",
"5b	c #f3d1d5",
"5c	c #f1c5ca",
"5d	c #f8e5e5",
"5e	c #c60000",
"5f	c #ee0204",
"5g	c #9b0102",
"5h	c #fba688",
"5i	c #e94635",
"5j	c #e8babf",
"5k	c #cf0000",
"5l	c #ed0305",
"5m	c #f87e5a",
"5n	c #e64f40",
"5o	c #ed8575",
"5p	c #ed7e71",
"5q	c #ed7a6e",
"5r	c #ed7a6d",
"5s	c #ee786c",
"5t	c #be0001",
"5u	c #e70101",
"5v	c #ee0307",
"5w	c #a00103",
"5x	c #f43d41",
"5y	c #fba988",
"5z	c #f77c5a",
"60	c #f87e59",
"61	c #f87656",
"62	c #f87150",
"63	c #f86e4e",
"64	c #f8694b",
"65	c #fa6648",
"66	c #d33333",
"67	c #d46a70",
"68	c #e80506",
"69	c #f30608",
"6a	c #a10103",
"6b	c #f42830",
"6c	c #f5433e",
"6d	c #f78460",
"6e	c #f77b5a",
"6f	c #f77756",
"6g	c #f77051",
"6h	c #f86b4f",
"6i	c #ec4e3a",
"6j	c #eddfe4",
"6k	c #f5f3f3",
"6l	c #b20c0e",
"6m	c #ec0507",
"6n	c #f30809",
"6o	c #bc0204",
"6p	c #900001",
"6q	c #f32931",
"6r	c #f4413e",
"6s	c #f8825d",
"6t	c #f77757",
"6u	c #f7704f",
"6v	c #f9654a",
"6w	c #de5047",
"6x	c #db2e24",
"6y	c #d62015",
"6z	c #ce160c",
"70	c #cb1109",
"71	c #cb0e08",
"72	c #9e0000",
"73	c #c30000",
"74	c #f00503",
"75	c #ef0b0a",
"76	c #f3090b",
"77	c #c20306",
"78	c #960001",
"79	c #f22830",
"7a	c #f3403d",
"7b	c #f87d5a",
"7c	c #f76e4f",
"7d	c #f76a4f",
"7e	c #f86649",
"7f	c #f76147",
"7g	c #f42817",
"7h	c #ee150a",
"7i	c #ed1209",
"7j	c #ec0f07",
"7k	c #ec0d07",
"7l	c #ea0b06",
"7m	c #ed0c07",
"7n	c #ed0c0a",
"7o	c #ee0c0b",
"7p	c #f40b0a",
"7q	c #c60507",
"7r	c #9e0002",
"7s	c #f23f3c",
"7t	c #f87a56",
"7u	c #f76f4f",
"7v	c #f7694d",
"7w	c #f76549",
"7x	c #f66047",
"7y	c #f33d28",
"7z	c #f01c0f",
"80	c #ee1a0e",
"81	c #ee170d",
"82	c #ed110c",
"83	c #ee100c",
"84	c #ee0f0d",
"85	c #f50f0e",
"86	c #ca0607",
"87	c #a50002",
"88	c #f03e3c",
"89	c #f87552",
"8a	c #f6644a",
"8b	c #f66148",
"8c	c #f7583f",
"8d	c #f01e0f",
"8e	c #f12112",
"8f	c #f11d11",
"8g	c #f11910",
"8h	c #f0170f",
"8i	c #f1130e",
"8j	c #f6130f",
"8k	c #ce0608",
"8l	c #ac0105",
"8m	c #ed272f",
"8n	c #f03d3b",
"8o	c #f97050",
"8p	c #f7684c",
"8q	c #f7644a",
"8r	c #f8674a",
"8s	c #f52b19",
"8t	c #f42213",
"8u	c #f41f13",
"8v	c #f41d12",
"8w	c #f31811",
"8x	c #f61610",
"8y	c #d10709",
"8z	c #b30104",
"90	c #eb2930",
"91	c #eb3134",
"92	c #eb3234",
"93	c #e93133",
"94	c #e63336",
"95	c #e11b1c",
"96	c #d80708",
"97	c #d60709",
"98	c #d20708",
"99	c #d00708",
"9a	c #ca0507",
"9b	c #ba0206",
"            393l++++++++++++++++5x6b            ",
"          2n3a3m40090a0a4x545h095y6c6q          ",
"        232o3b3n414e4j4u4y555i5m5z6d6r79        ",
"      1n242p3c3o424f4kXX..56XX5n606e6s7a0g      ",
"    171o252q3d3p43XX4lXX..57XX5o616f6t7b7s0g    ",
"  0t181p262r3e3q44XX4mXX..58XX5p620e0e//7t888m  ",
"0h0u19//272sXX3r45XX4nXX..59XX5q636g6u7c7u898n90",
"0i0v1a1q282tXX3s46XX4oXX..5aXX5r646h0f7d7v0f8o91",
"0j0w1b1r292uXX3t47XX4pXX4z5bXX5s656i6v7e7w8a8p92",
"0k0x1c1s2a2vXX3u48XX4qXX505cXX0d666j6w7f7x8b8q93",
"0l0y1d1t2b2wXX3v49XX4rXX515dXX||XXXX6x7g7y8c8r94",
"0m0z1e1u2c2xXX3w4aXXXXXXXXXXXX||XXXX6y7h7z8d8s95",
"0n101f1v2d2yXXXXXXXXXXXXXXXXXX||XXXX6z7i808e8t96",
"0o111g1w2e2zXXXXXXXXXXXXXXXXXX||XXXX707j818f8u97",
"0p121h1x2f30XXXXXXXXXXXXXXXXXX0dXXXX717k068g8v98",
"0q131i1y2g31XXXXXXXXXXXXXXXXXXXXXXXX||7l828h8w99",
"0r141j1z2h32XXXXXXXXXXXXXXXXXXXXXXXX727m838i8x9a",
"0s151k062i33XXXXXXXXXXXXXXXXXXXXXX6k737n848j8y9b",
"  161l202j343fXXXXXXXXXXXXXXXXXXXX6l747o858k8z  ",
"    1m212k353gXXXXXXXXXXXXXXXXXX6708757p868l    ",
"      222l363h074bXXXXXXXXXX5j5t076m767q87      ",
"        2m373i3x084g4s4v525e5k5u686n777r        ",
"          383j3y4c4h4t4w535f5l5v696o78          ",
"            3k3z4d4i0b0c0c5g0b5w6a6p            "};