/* XPM */
static char * xpm_add[] = {
"24 24 142 2",
"  	c None",
"XX	c #0b6b08",
"++	c #1c751a",
"..	c #3c9e24",
"||	c #4db41b",
"//	c #32981e",
"06	c #238c12",
"07	c #58c61f",
"08	c #4fc021",
"09	c #84e019",
"0a	c #5bc81f",
"0b	c #5ac61f",
"0c	c #42ae1b",
"0d	c #71d51c",
"0e	c #6bd11e",
"0f	c #69d01e",
"0g	c #68d01e",
"0h	c #66ce1e",
"0i	c #57c131",
"0j	c #ceff8a",
"0k	c #7fde12",
"0l	c #55c521",
"0m	c #5dc91f",
"0n	c #76d81c",
"0o	c #6ed31e",
"0p	c #6dd11e",
"0q	c #7ccb5c",
"0r	c #5ec91f",
"0s	c #53c31e",
"0t	c #60cb1f",
"0u	c #71d418",
"0v	c #73d51c",
"0w	c #74d61c",
"0x	c #6ed31c",
"0y	c #70d518",
"0z	c #53bb2c",
"10	c #a0e56e",
"11	c #63cd1f",
"12	c #83e019",
"13	c #62cd1f",
"14	c #50c221",
"15	c #4dc021",
"16	c #4dc322",
"17	c #0f6f0b",
"18	c #81de19",
"19	c #7cdb1b",
"1a	c #70d31c",
"1b	c #57c61f",
"1c	c #53c321",
"1d	c #52c21e",
"1e	c #4fc221",
"1f	c #4cbe21",
"1g	c #4abe21",
"1h	c #4bc222",
"1i	c #0d6f0b",
"1j	c #5ec319",
"1k	c #61cc1c",
"1l	c #57c51f",
"1m	c #419e2b",
"1n	c #3e9b29",
"1o	c #3b9629",
"1p	c #389328",
"1q	c #359028",
"1r	c #348d27",
"1s	c #298320",
"1t	c #bdff6c",
"1u	c #a7f44f",
"1v	c #a5f253",
"1w	c #a2f055",
"1x	c #9fed55",
"1y	c #78ce46",
"1z	c #a3ef4c",
"20	c #77da14",
"21	c #75d817",
"22	c #6dd118",
"23	c #a2f04e",
"24	c #79da17",
"25	c #9fee4f",
"26	c #77d817",
"27	c #9eee4f",
"28	c #76d718",
"29	c #9ced4f",
"2a	c #9beb51",
"2b	c #9ae853",
"2c	c #6fd419",
"2d	c #6dd31e",
"2e	c #acf06e",
"2f	c #aaf06e",
"2g	c #aaee6f",
"2h	c #a8ec70",
"2i	c #a6ec70",
"2j	c #a6ea6d",
"2k	c #70d31b",
"2l	c #8cd56f",
"2m	c #87d26e",
"2n	c #86d06e",
"2o	c #84d16e",
"2p	c #84d06e",
"2q	c #88d272",
"2r	c #7edc1b",
"2s	c #79d91b",
"2t	c #78d91c",
"2u	c #73d61c",
"2v	c #65cd1f",
"2w	c #7edc19",
"2x	c #7bdb1b",
"2y	c #78d91b",
"2z	c #65ce1f",
"30	c #55c321",
"31	c #aff272",
"32	c #70d314",
"33	c #73d219",
"34	c #6dcf19",
"35	c #68cb1b",
"36	c #64c81b",
"37	c #68cf1d",
"38	c #3faf1c",
"39	c #3ead1c",
"3a	c #3cab1c",
"3b	c #3baa1c",
"3c	c #39a81c",
"3d	c #3bac1d",
"3e	c #64cd1d",
"3f	c #8fe354",
"3g	c #5ecb1f",
"3h	c #8de352",
"3i	c #5fc91b",
"3j	c #8be252",
"3k	c #5dc91b",
"3l	c #5dc81f",
"3m	c #89e052",
"3n	c #5bc71b",
"3o	c #88e052",
"3p	c #5ac61b",
"3q	c #86dd52",
"3r	c #58c61b",
"3s	c #8ae255",
"3t	c #268e12",
"3u	c #238b12",
"3v	c #208712",
"3w	c #1d8312",
"3x	c #1c8010",
"                ..0z0i0i0i0i0z..                ",
"                ..2e0j0j0j0j31..                ",
"                //2f0k0k0k0k32//                ",
"                //2g0909090933//                ",
"                //2h0909121834//                ",
"                //2i12182w1935//                ",
"                //2j2r192x2y36//                ",
"                //102s2t0n0w1j//                ",
"..................100n2u0d1a1j060606060606060606",
"1m1t1z232527292a2b0y0d1a0o0p371k3f3h3j3m3o3q3s//",
"1n1u202426280u0y2c2k0o0e0f0g0h3e1k3i3k3n3p3r0b3t",
"1o1v210n0w0v0d0x2d0e0f0g0h2z110t3g0m3l0a0b07083u",
"1p1w0u0v0d0x0p0e0f0g0h2v130t0r0m0a0a1b071l0l083v",
"1q1x220o0p0e0f0g0h11130t0r0m0a0b07071l0l1c0s083w",
"1r1y||||||||||||||0q0r0m0a0b0c0c||||||||||||0c3x",
"1s++++++++++++++XX0q0a0b07070cXXXXXXXXXXXXXXXXXX",
"                ++0q071b0l300cXX                ",
"                ++2l0l1c0s1d38XX                ",
"                ++2m0s1d141e39XX                ",
"                ++2n141e08083aXX                ",
"                ++2o0808151f3bXX                ",
"                ++2p151f1g1g3cXX                ",
"                ++2q16161h1h3dXX                ",
"                ++++17171i1iXXXX                "};