/* XPM */
static char * xpm_address_book[] = {
"24 24 317 2",
"  	c None",
"XX	c #ffffff",
"++	c #a5d85d",
"..	c #a7d963",
"||	c #3e3f47",
"//	c #5e6066",
"06	c #aaaaae",
"07	c #5bb93e",
"08	c #93d07a",
"09	c #84868b",
"0a	c #c0bfc3",
"0b	c #696a71",
"0c	c #8d8997",
"0d	c #5bb83e",
"0e	c #a9a5b2",
"0f	c #d4edae",
"0g	c #d4edad",
"0h	c #a3d963",
"0i	c #f2f8ed",
"0j	c #5bb93f",
"0k	c #d3edad",
"0l	c #5ab83e",
"0m	c #a8a5b2",
"0n	c #8d8a97",
"0o	c #8e8a95",
"0p	c #a7da5e",
"0q	c #5dbd40",
"0r	c #5cb93e",
"0s	c #f9fbf8",
"0t	c #5ab83c",
"0u	c #a2d962",
"0v	c #a8d871",
"0w	c #5ab73d",
"0x	c #57b639",
"0y	c #4fa93b",
"0z	c #c0e2b2",
"10	c #54b536",
"11	c #9cd758",
"12	c #f1f7ec",
"13	c #bde1ae",
"14	c #53b435",
"15	c #f3f8ed",
"16	c #fdfefe",
"17	c #5eaf4d",
"18	c #181f27",
"19	c #c1c0c4",
"1a	c #818388",
"1b	c #87898e",
"1c	c #64656c",
"1d	c #5f6167",
"1e	c #57585f",
"1f	c #272f36",
"1g	c #3e434a",
"1h	c #e6e7e8",
"1i	c #bdbcc0",
"1j	c #c1c1c5",
"1k	c #b0b0b4",
"1l	c #a9a9ae",
"1m	c #ababaf",
"1n	c #1e2830",
"1o	c #939697",
"1p	c #b9babe",
"1q	c #65666c",
"1r	c #6b6c73",
"1s	c #53555c",
"1t	c #3c3d45",
"1u	c #0d161e",
"1v	c #aeafb2",
"1w	c #d1d2d8",
"1x	c #a4a2ae",
"1y	c #aaa7b3",
"1z	c #9d9ba5",
"20	c #8a8795",
"21	c #8e8a97",
"22	c #8e8895",
"23	c #0a0f1e",
"24	c #a8b4a6",
"25	c #c0d8a0",
"26	c #82b247",
"27	c #86b54d",
"28	c #82b34d",
"29	c #80b24d",
"2a	c #7db34e",
"2b	c #7cb24e",
"2c	c #79b04f",
"2d	c #77af4f",
"2e	c #67a63f",
"2f	c #3f8c19",
"2g	c #3f8a1a",
"2h	c #3c891a",
"2i	c #3b861c",
"2j	c #3d8721",
"2k	c #3d8623",
"2l	c #3c8324",
"2m	c #398224",
"2n	c #378124",
"2o	c #367d23",
"2p	c #357d23",
"2q	c #307420",
"2r	c #4c8627",
"2s	c #b2c0b1",
"2t	c #d7f0b0",
"2u	c #a9dc64",
"2v	c #a5dc64",
"2w	c #a3da66",
"2x	c #9fd966",
"2y	c #9ed665",
"2z	c #94d460",
"30	c #99d467",
"31	c #b9e19a",
"32	c #c8e7b0",
"33	c #c7e6b0",
"34	c #c4e5b0",
"35	c #b9e2a3",
"36	c #72c549",
"37	c #59ba33",
"38	c #60bd3d",
"39	c #5fbd3f",
"3a	c #5ebd3f",
"3b	c #56b33e",
"3c	c #569629",
"3d	c #b3c2b4",
"3e	c #d5eeaf",
"3f	c #a1d765",
"3g	c #9cd664",
"3h	c #93d057",
"3i	c #d7ebc4",
"3j	c #e5f0de",
"3k	c #5db938",
"3l	c #59b73a",
"3m	c #53ad3c",
"3n	c #549329",
"3o	c #b7c4b9",
"3p	c #d5eeae",
"3q	c #a0d664",
"3r	c #93d257",
"3s	c #e6f2dc",
"3t	c #fffefe",
"3u	c #badf9f",
"3v	c #6fc23d",
"3w	c #52b51e",
"3x	c #4db31d",
"3y	c #84c95f",
"3z	c #deefd8",
"40	c #5bb93a",
"41	c #51ad3c",
"42	c #529127",
"43	c #b9c6bb",
"44	c #9cd55c",
"45	c #dfefd0",
"46	c #e3f0d9",
"47	c #90cf5c",
"48	c #90d062",
"49	c #cee8bd",
"4a	c #ecf5e6",
"4b	c #eaf4e5",
"4c	c #d8ebcc",
"4d	c #61bb36",
"4e	c #afda99",
"4f	c #54b635",
"4g	c #50ac3c",
"4h	c #508f27",
"4i	c #bcc9bf",
"4j	c #a1d860",
"4k	c #f2f7ed",
"4l	c #87cc4c",
"4m	c #c4e2a6",
"4n	c #4fb627",
"4o	c #e9f3e6",
"4p	c #4cb22b",
"4q	c #50ab3b",
"4r	c #508c27",
"4s	c #c0cac1",
"4t	c #9ed75b",
"4u	c #e0f0cf",
"4v	c #9ed569",
"4w	c #bbdf9a",
"4x	c #c4e4ae",
"4y	c #76c446",
"4z	c #62bc33",
"50	c #cbe6bb",
"51	c #4c8a27",
"52	c #c1ccc6",
"53	c #9cd759",
"54	c #f3f9ed",
"55	c #f7f9f5",
"56	c #8ece4e",
"57	c #95d168",
"58	c #62bd30",
"59	c #68be3a",
"5a	c #61bc36",
"5b	c #77c551",
"5c	c #55b630",
"5d	c #468627",
"5e	c #c4cfc8",
"5f	c #8ece4f",
"5g	c #eff7ea",
"5h	c #77c643",
"5i	c #67bf36",
"5j	c #63bd35",
"5k	c #56b727",
"5l	c #d7ebcc",
"5m	c #79c659",
"5n	c #4fb229",
"5o	c #4ea83b",
"5p	c #408128",
"5q	c #c5d1ca",
"5r	c #8fcf50",
"5s	c #e9f3e1",
"5t	c #6dc235",
"5u	c #94d16b",
"5v	c #b8dd9c",
"5w	c #e9f4e4",
"5x	c #5cba36",
"5y	c #50b32a",
"5z	c #4ea73b",
"60	c #3d7f27",
"61	c #c6d2cb",
"62	c #9dd759",
"63	c #8dcd4d",
"64	c #d9ecca",
"65	c #b6dda2",
"66	c #57b732",
"67	c #4da739",
"68	c #377a27",
"69	c #cbd5cf",
"6a	c #9fd75c",
"6b	c #d9edc2",
"6c	c #b0db84",
"6d	c #fcfcfc",
"6e	c #e3f1da",
"6f	c #b9de9c",
"6g	c #8dcd68",
"6h	c #80c958",
"6i	c #b1db9d",
"6j	c #87cb6d",
"6k	c #4da639",
"6l	c #357827",
"6m	c #ccd5d0",
"6n	c #a1d861",
"6o	c #f5f9f2",
"6p	c #aedb85",
"6q	c #87cc51",
"6r	c #61bd29",
"6s	c #60bc2f",
"6t	c #5eba2f",
"6u	c #51b522",
"6v	c #e1efd9",
"6w	c #69c044",
"6x	c #9ad382",
"6y	c #4eb32e",
"6z	c #4ca539",
"70	c #337627",
"71	c #cdd6d1",
"72	c #9dd55e",
"73	c #c8e6a7",
"74	c #b2dc8d",
"75	c #7bc646",
"76	c #77c648",
"77	c #9dd479",
"78	c #ebf5e7",
"79	c #dbedd1",
"7a	c #56b631",
"7b	c #5bb837",
"7c	c #53b533",
"7d	c #317428",
"7e	c #d0d9d5",
"7f	c #a0d764",
"7g	c #96d45b",
"7h	c #c7e5a8",
"7i	c #cfe7c1",
"7j	c #55b62b",
"7k	c #60ba3c",
"7l	c #60ba3e",
"7m	c #5db93e",
"7n	c #35802c",
"7o	c #a0c09e",
"7p	c #dbf1b4",
"7q	c #a9da62",
"7r	c #a4db62",
"7s	c #a2d864",
"7t	c #9ed764",
"7u	c #9bd460",
"7v	c #81cb46",
"7w	c #c8e5af",
"7x	c #c6e5ae",
"7y	c #74c547",
"7z	c #5bb931",
"80	c #61bc39",
"81	c #60bc3c",
"82	c #5fbb3c",
"83	c #5cba3c",
"84	c #5bba3c",
"85	c #5ab93c",
"86	c #5ab93d",
"87	c #5cba3f",
"88	c #195e1f",
"89	c #a5cf8a",
"8a	c #8dc561",
"8b	c #93c76c",
"8c	c #92c56c",
"8d	c #8fc56c",
"8e	c #8dc46d",
"8f	c #8dc36d",
"8g	c #71b94e",
"8h	c #70b84d",
"8i	c #6ab54a",
"8j	c #68b44a",
"8k	c #69b34c",
"8l	c #6ab350",
"8m	c #6bb454",
"8n	c #6bb353",
"8o	c #69b354",
"8p	c #68b254",
"8q	c #67b154",
"8r	c #66b154",
"8s	c #64b254",
"      1f1n1u232r3c3n424h4r515d5p60686l707d7n    ",
"    181g1o1v242s3d3o434i4s525e5q61696m717e7o88  ",
"    191h1p1w252t3e3p0f0f0f0f0g0g0g0k0k0k0g7p89  ",
"    1a1i1q1x260p++++++++++++++++++++++++++0p8a  ",
"    090a0b0m272u..........................7q8b  ",
"    090a0b0m282v0h0h0u4j4t531111626a6n0u0h7r8c  ",
"    090a0b0e292w3f3q440v4u540i0i156b0v727f7s8d  ",
"    090a0b0e2a2x3g3r45XXXX55121216XXXX737g7t8e  ",
"    090a0b0e2b2y3h3sXX4k4v565f5r636c6oXX7h7u8f  ",
"    090a0b0e2c2z3iXX464l4w0iXX5s64156p16XX7v8g  ",
"    1b1j1r1y2d30XX3t474mXXXX5gXXXXXX6q74XX088h  ",
"    1c1k1s1z2e31XX3u48XXXX575h5tXX6d6r75XX7w8i  ",
"    //1l1t202f32XX3v49XX4x585i5uXX6e6s76XX7x8j  ",
"    //06||0c2g33XX3w4aXX4y595j5vXX6f6t77XX088k  ",
"    //06||0c2h34XX3x4bXX4z5a5k5wXX6g6u78XX7y8l  ",
"    //06||0c2i35XX3y4cXX505b5lXXXX6h6vXX7i7z8m  ",
"    //06||0c2j36XX3z4dXXXXXXXX0sXXXXXX797j808n  ",
"    //06||0c2k373jXX4e4n08085m5x656i6w7a7k818o  ",
"    //06||0n2l383k0sXX4o085c5n5y66086x7b7l828p  ",
"    //06||0n2m393l4008XXXXXXXXXXXXXXXX7c7m838q  ",
"    //06||212n3a0r0t4f4p080z13130z6j6y0t0r848r  ",
"    //06||0o2o0q0d0d0d0w0x101414100x0w0d0d858s  ",
"    1d06||0o2p0q07070707070707070j0j070l0l8617  ",
"    1e1m||222q3b3m414g4q0y0y5o5z676k6z0j0l8717  "};