/* XPM */
static char * xpm_alarm_clock[] = {
"24 24 329 2",
"  	c None",
"XX	c #454243",
"++	c #f4f5f6",
"..	c #ffffff",
"||	c #e1e2e4",
"//	c #f6f6f6",
"06	c #efeff0",
"07	c #2d292a",
"08	c #c7d0d8",
"09	c #d7e7f2",
"0a	c #f8f8f9",
"0b	c #7e7a7a",
"0c	c #605c5b",
"0d	c #3cade6",
"0e	c #f4f4f4",
"0f	c #f9f8f7",
"0g	c #eaebec",
"0h	c #e7e8e8",
"0i	c #f4f1ee",
"0j	c #706d6e",
"0k	c #cfd0d2",
"0l	c #46b2e7",
"0m	c #f5f8f9",
"0n	c #edeff4",
"0o	c #fafafa",
"0p	c #f0f0f1",
"0q	c #57bceb",
"0r	c #51b9eb",
"0s	c #f7f7f7",
"0t	c #77ccf1",
"0u	c #ddf0fb",
"0v	c #aee3f8",
"0w	c #f1f2f2",
"0x	c #f0f1f1",
"0y	c #97dcf5",
"0z	c #e1f0fb",
"10	c #e6e7e7",
"11	c #9eddf6",
"12	c #d8eefc",
"13	c #108bd7",
"14	c #dcdddf",
"15	c #2e2b2c",
"16	c #d8d9da",
"17	c #dbdcde",
"18	c #d2d3d5",
"19	c #dedcdc",
"1a	c #dddee0",
"1b	c #5f5d5f",
"1c	c #d0d1d3",
"1d	c #dddedf",
"1e	c #dfe2e3",
"1f	c #c3c5c7",
"1g	c #c6c8cb",
"1h	c #43afe7",
"1i	c #9ddff7",
"1j	c #7ecef1",
"1k	c #4bb3e9",
"1l	c #287fcc",
"1m	c #287bc9",
"1n	c #b1e4f8",
"1o	c #a4ddf6",
"1p	c #96d5f1",
"1q	c #70c5ec",
"1r	c #3193d8",
"1s	c #5ab3e3",
"1t	c #60bceb",
"1u	c #71c5ed",
"1v	c #89d3f4",
"1w	c #76cef3",
"1x	c #53b6e9",
"1y	c #42a2df",
"1z	c #328ed3",
"20	c #948a92",
"21	c #96e1fc",
"22	c #82d6f5",
"23	c #68c7f0",
"24	c #52b7e9",
"25	c #54b3e6",
"26	c #abe1f6",
"27	c #d2ecfa",
"28	c #c2e5f7",
"29	c #8ed4f4",
"2a	c #6dc8f0",
"2b	c #60c2ee",
"2c	c #57beed",
"2d	c #53baeb",
"2e	c #4bb6eb",
"2f	c #42abe4",
"2g	c #297cc9",
"2h	c #7ec6e1",
"2i	c #8eddf9",
"2j	c #7acef2",
"2k	c #5abdec",
"2l	c #31a5e3",
"2m	c #62beea",
"2n	c #ceecfb",
"2o	c #d3ebfa",
"2p	c #ace0f6",
"2q	c #8dd0f0",
"2r	c #57b4e6",
"2s	c #75bee9",
"2t	c #92cbed",
"2u	c #98ccec",
"2v	c #71bfe9",
"2w	c #59bceb",
"2x	c #3dafe8",
"2y	c #3bade7",
"2z	c #2a8ed8",
"30	c #27548e",
"31	c #545253",
"32	c #5c5e65",
"33	c #656672",
"34	c #92def9",
"35	c #85d6f5",
"36	c #6ac7f0",
"37	c #419cd3",
"38	c #6ac6ee",
"39	c #d7effc",
"3a	c #cfebf9",
"3b	c #9bdaf5",
"3c	c #88c6ea",
"3d	c #47b2e7",
"3e	c #2da7e5",
"3f	c #2084d5",
"3g	c #3d516d",
"3h	c #58595f",
"3i	c #64646b",
"3j	c #8edcf7",
"3k	c #77cef3",
"3l	c #58bbec",
"3m	c #30a5e3",
"3n	c #4fa7d9",
"3o	c #ceeefd",
"3p	c #d3ecfb",
"3q	c #90d5f2",
"3r	c #97cae9",
"3s	c #22a1e3",
"3t	c #196bc0",
"3u	c #84d7f5",
"3v	c #68c6f0",
"3w	c #44b1e6",
"3x	c #31a5e4",
"3y	c #a2def8",
"3z	c #def0fb",
"40	c #a5def7",
"41	c #fefcfa",
"42	c #f8f8f8",
"43	c #eaedf2",
"44	c #99cfed",
"45	c #229fe1",
"46	c #1a95dd",
"47	c #74cdf2",
"48	c #31a4e2",
"49	c #d0eefb",
"4a	c #cbebfa",
"4b	c #a9daf1",
"4c	c #ece8e8",
"4d	c #f0f1f2",
"4e	c #cfd8e4",
"4f	c #72c8ec",
"4g	c #1698de",
"4h	c #166abc",
"4i	c #42aee6",
"4j	c #dbe9f2",
"4k	c #ededee",
"4l	c #ebeced",
"4m	c #a0d0ec",
"4n	c #199ade",
"4o	c #1577c9",
"4p	c #94d7f6",
"4q	c #f1f0f1",
"4r	c #f2f2f3",
"4s	c #f3f3f4",
"4t	c #f5f5f6",
"4u	c #f4f4f5",
"4v	c #eff0f0",
"4w	c #edeeed",
"4x	c #7ab8e1",
"4y	c #2fa9e4",
"4z	c #1484d1",
"50	c #94daf7",
"51	c #bbb6b5",
"52	c #a1a1a3",
"53	c #9b9a9b",
"54	c #7a787b",
"55	c #eaebed",
"56	c #e6e7e9",
"57	c #8fbfe1",
"58	c #4ab7e8",
"59	c #95daf7",
"5a	c #e8e9eb",
"5b	c #8fbde0",
"5c	c #49b8e8",
"5d	c #95d8f6",
"5e	c #e7e6e7",
"5f	c #e8eaea",
"5g	c #e6e8e9",
"5h	c #e8e9ea",
"5i	c #e3e4e5",
"5j	c #dadbdc",
"5k	c #e4e6e6",
"5l	c #e7e4e1",
"5m	c #78b7e1",
"5n	c #2da8e3",
"5o	c #1281d1",
"5p	c #c8d8e3",
"5q	c #dbdada",
"5r	c #dadadb",
"5s	c #e0e0e2",
"5t	c #dfdfe1",
"5u	c #e7e7e9",
"5v	c #b5c3d0",
"5w	c #9fd1ee",
"5x	c #1595dd",
"5y	c #1475c8",
"5z	c #6fc9f1",
"60	c #63c0ed",
"61	c #65c1ea",
"62	c #4fb7ea",
"63	c #cfeefb",
"64	c #c9eafa",
"65	c #9ed3ed",
"66	c #e2e3e5",
"67	c #d3d4d6",
"68	c #cdced0",
"69	c #95b8d7",
"6a	c #6bc7ec",
"6b	c #1093dd",
"6c	c #1568bb",
"6d	c #8ed9f5",
"6e	c #9dd7f4",
"6f	c #77c8ec",
"6g	c #35a8e5",
"6h	c #a0def8",
"6i	c #dcf0fa",
"6j	c #a4e0f7",
"6k	c #b2cfe1",
"6l	c #cccdd0",
"6m	c #cdccce",
"6n	c #b7c1cc",
"6o	c #99d0ee",
"6p	c #1997df",
"6q	c #148ed9",
"6r	c #abe2f7",
"6s	c #93d8f4",
"6t	c #4eb7ea",
"6u	c #29a1e2",
"6v	c #4ea6d8",
"6w	c #cdecfc",
"6x	c #d2ebfa",
"6y	c #8fd5f3",
"6z	c #b5cadc",
"70	c #b6c0cc",
"71	c #91c8e9",
"72	c #2ea8e3",
"73	c #1999e0",
"74	c #1668c0",
"75	c #b2e7fb",
"76	c #80d4f4",
"77	c #65c5ef",
"78	c #41afe8",
"79	c #328ec8",
"7a	c #68c3ee",
"7b	c #d5eefb",
"7c	c #cee9f9",
"7d	c #98daf5",
"7e	c #92c3e1",
"7f	c #c0bec0",
"7g	c #b1b5bd",
"7h	c #97b9d6",
"7i	c #85c8ed",
"7j	c #38ade5",
"7k	c #209ce0",
"7l	c #1880d3",
"7m	c #3b516c",
"7n	c #58575d",
"7o	c #62636a",
"7p	c #8bcae4",
"7q	c #8ddcf8",
"7r	c #76cdf2",
"7s	c #56baeb",
"7t	c #2da4e3",
"7u	c #61bce9",
"7v	c #c9eaf9",
"7w	c #d0eaf9",
"7x	c #a7dff7",
"7y	c #89cdf0",
"7z	c #61b6e5",
"80	c #529cd5",
"81	c #6caedb",
"82	c #86c2e6",
"83	c #6dc1ec",
"84	c #4eb6ea",
"85	c #2ea5e3",
"86	c #29a5e3",
"87	c #2089d4",
"88	c #29548d",
"89	c #535052",
"8a	c #5a5a66",
"8b	c #63676f",
"8c	c #80747c",
"8d	c #91e2fd",
"8e	c #82d4f4",
"8f	c #67c6ef",
"8g	c #52afe5",
"8h	c #a1dcf6",
"8i	c #d0e9f9",
"8j	c #c9e7f8",
"8k	c #8ad1f2",
"8l	c #61c2ee",
"8m	c #4ab4ea",
"8n	c #33a2e1",
"8o	c #2477c7",
"8p	c #8cd9f7",
"8q	c #76cef2",
"8r	c #33a6e4",
"8s	c #2f90d8",
"8t	c #55aee2",
"8u	c #67bcea",
"8v	c #67bdeb",
"8w	c #7acdf2",
"8x	c #65c4ee",
"8y	c #46ace4",
"8z	c #389bdc",
"90	c #2d87d0",
"91	c #84d5f4",
"92	c #69c7f0",
"93	c #297fca",
"94	c #287bc7",
"      202h343j3u47            5z6d6r757p8c      ",
"      212i353k3v0q4i        0d606e6s767q8d      ",
"    1n222j363l3w48            616f6t777r8e8p    ",
"  1i1o232k0l3m3x0r0t0y11110y0t626g6u787s8f8q91  ",
"  1j1p242l373n3y490u0z12120z0u636h6v797t1h0q92  ",
"  1k1q    383o3z4a0v4p50595d0v646i6w7a    8r0l  ",
"        2m393p404b4j4q510c5e5p656j6x7b7u        ",
"      252n3a3q094c0b//52++5f5qXX6k6y7c7v8g      ",
"    1r262o3b09410s0s0w53++5g5r19196z7d7w8h8s    ",
"    1s272p090c////0w4r54++5h5s1a1aXX7e7x8i8t    ",
"    1t282q0m0m0e0e0x4s0j++++5t171d1d087y8j8u    ",
"    1u292r....420e0x4tXX++++5u661e1e087z8k8v    ",
"  1l1v2a2s0a0a0a4d4k4u070715XX1b0j0808808l8w93  ",
"  1m1w2b2t0b0o0o060g4v070715XX1b0j1gXX810r8x94  ",
"    1x2c2u....//060g0h555a5i17676l1g7f828m8y    ",
"    1y2d2v....06060g10||141618681f1f7g831h8z    ",
"    1z2e2w0n0c0p0p4l10||1416181c1cXX7h840d90    ",
"      2f2x3c0n0f0f0h0h56||5j0k0k6m707i858n      ",
"      2g2y3d3r430f0b4w||||5k0kXX6n717j868o      ",
"        2z3e0d444e0i0i0iXX5l5v696o727k87        ",
"        303f3s454f4m4x575b5m5w6a6p737l88        ",
"        313g3t464g4n4y585c5n5x6b6q747m89        ",
"        323h    4h4o4z13135o5y6c    7n8a        ",
"        333i                        7o8b        "};