/* XPM */
static char * xpm_alien[] = {
"24 24 328 2",
"  	c None",
"XX	c #73cb38",
"++	c #bee47e",
"..	c #1f5c26",
"||	c #cae784",
"//	c #2f2a33",
"06	c #60c436",
"07	c #cce885",
"08	c #92d440",
"09	c #158623",
"0a	c #c9e782",
"0b	c #73cc39",
"0c	c #63c736",
"0d	c #44bd31",
"0e	c #c4e581",
"0f	c #bfe47e",
"0g	c #56c433",
"0h	c #b9e27b",
"0i	c #bbe27b",
"0j	c #58c234",
"0k	c #53bf33",
"0l	c #b6e07a",
"0m	c #b0df78",
"0n	c #49a738",
"0o	c #5ab04a",
"0p	c #6cba53",
"0q	c #69b852",
"0r	c #68b852",
"0s	c #5bac4c",
"0t	c #42983c",
"0u	c #53b03d",
"0v	c #98d181",
"0w	c #d9edba",
"0x	c #b4e471",
"0y	c #b0cf8b",
"0z	c #8da974",
"10	c #7aa554",
"11	c #9ddb69",
"12	c #91d271",
"13	c #64af59",
"14	c #378935",
"15	c #76c35f",
"16	c #d6ecb6",
"17	c #d8ecaa",
"18	c #c4e485",
"19	c #97d640",
"1a	c #b2e566",
"1b	c #5a5464",
"1c	c #48474f",
"1d	c #3f3b43",
"1e	c #343733",
"1f	c #67b933",
"1g	c #7ed243",
"1h	c #8ed367",
"1i	c #67b05f",
"1j	c #348434",
"1k	c #76c75f",
"1l	c #e1efc0",
"1m	c #cfea94",
"1n	c #c2e47e",
"1o	c #c4e580",
"1p	c #acdd59",
"1q	c #c0e979",
"1r	c #83818c",
"1s	c #787a7c",
"1t	c #636467",
"1u	c #434146",
"1v	c #303231",
"1w	c #71cc37",
"1x	c #6aca34",
"1y	c #66ca37",
"1z	c #80cf5f",
"20	c #5ba658",
"21	c #2f7c2e",
"22	c #59b93e",
"23	c #d8ecb8",
"24	c #d3ea98",
"25	c #c9e681",
"26	c #c9e683",
"27	c #b7e169",
"28	c #b3e362",
"29	c #bdbcc8",
"2a	c #fcfcfd",
"2b	c #727379",
"2c	c #4d4f51",
"2d	c #4f8333",
"2e	c #6fce38",
"2f	c #65c636",
"2g	c #5dc432",
"2h	c #60c839",
"2i	c #72be61",
"2j	c #358037",
"2k	c #acdc8d",
"2l	c #ddeeae",
"2m	c #cce781",
"2n	c #cee987",
"2o	c #cee887",
"2p	c #cbe785",
"2q	c #c0e473",
"2r	c #a3da43",
"2s	c #b5c1ab",
"2t	c #93939c",
"2u	c #66686a",
"2v	c #47464a",
"2w	c #2e2c30",
"2x	c #3c5030",
"2y	c #71d038",
"2z	c #66c637",
"30	c #58c233",
"31	c #51c02f",
"32	c #66c150",
"33	c #3f8941",
"34	c #5bba42",
"35	c #dfefc1",
"36	c #cde888",
"37	c #cfe986",
"38	c #d2e989",
"39	c #d0e988",
"3a	c #cce886",
"3b	c #a0d93f",
"3c	c #aadb5e",
"3d	c #777a79",
"3e	c #414149",
"3f	c #333136",
"3g	c #28232c",
"3h	c #456b32",
"3i	c #73cf38",
"3j	c #67c637",
"3k	c #59c234",
"3l	c #54c333",
"3m	c #4abe2f",
"3n	c #61c64b",
"3o	c #367d39",
"3p	c #77c95f",
"3q	c #ddefad",
"3r	c #cae681",
"3s	c #cfe987",
"3t	c #d1e988",
"3u	c #d0e987",
"3v	c #cae886",
"3w	c #9fd941",
"3x	c #9bd842",
"3y	c #99da46",
"3z	c #698a4b",
"40	c #38462f",
"41	c #435e32",
"42	c #74cd3a",
"43	c #6ac838",
"44	c #61c436",
"45	c #5bc534",
"46	c #4dc132",
"47	c #45be30",
"48	c #359e2d",
"49	c #286e29",
"4a	c #8ed16f",
"4b	c #d4eb9c",
"4c	c #c8e780",
"4d	c #cce785",
"4e	c #cde887",
"4f	c #cde885",
"4g	c #c7e786",
"4h	c #9ed842",
"4i	c #99d744",
"4j	c #8dd73e",
"4k	c #86d73d",
"4l	c #7ed33b",
"4m	c #76cd39",
"4n	c #64c737",
"4o	c #53bc33",
"4p	c #1e5d26",
"4q	c #43b130",
"4r	c #45bd31",
"4s	c #40c130",
"4t	c #29772a",
"4u	c #8bd06f",
"4v	c #cde88e",
"4w	c #c4e480",
"4x	c #c9e784",
"4y	c #c6e682",
"4z	c #c5e683",
"50	c #99d741",
"51	c #96d642",
"52	c #8fd340",
"53	c #88d13e",
"54	c #81cf3d",
"55	c #7acd3a",
"56	c #4ab031",
"57	c #206027",
"58	c #44b330",
"59	c #40bf30",
"5a	c #2c812a",
"5b	c #8cd170",
"5c	c #c9e78e",
"5d	c #c1e47e",
"5e	c #c3e581",
"5f	c #c2e47f",
"5g	c #c1e582",
"5h	c #95d53e",
"5i	c #8bd23c",
"5j	c #84d23a",
"5k	c #7fd338",
"5l	c #79d139",
"5m	c #61c636",
"5n	c #52bc32",
"5o	c #42b130",
"5p	c #3fbe30",
"5q	c #29762a",
"5r	c #78c860",
"5s	c #cae895",
"5t	c #bce27b",
"5u	c #bfe481",
"5v	c #8fd33c",
"5w	c #8bd339",
"5x	c #a3dc61",
"5y	c #9db689",
"5z	c #6d7867",
"60	c #466235",
"61	c #6eca37",
"62	c #69ca37",
"63	c #63c737",
"64	c #5dc335",
"65	c #49c031",
"66	c #42bf30",
"67	c #349d2d",
"68	c #266d2a",
"69	c #5cbb44",
"6a	c #cce8a5",
"6b	c #b7e178",
"6c	c #b9e27e",
"6d	c #86d036",
"6e	c #aedf72",
"6f	c #a4a7a9",
"6g	c #6b6a73",
"6h	c #4c4a4f",
"6i	c #426731",
"6j	c #66cc36",
"6k	c #5fc435",
"6l	c #4cbf32",
"6m	c #47be31",
"6n	c #3eb42f",
"6o	c #29732b",
"6p	c #a5d98b",
"6q	c #b8e27c",
"6r	c #b6e079",
"6s	c #b4e07a",
"6t	c #b2df77",
"6u	c #96d850",
"6v	c #bac8b3",
"6w	c #c9c9ce",
"6x	c #77797e",
"6y	c #535558",
"6z	c #343137",
"70	c #3a4f30",
"71	c #65cc36",
"72	c #5cc335",
"73	c #55c134",
"74	c #50bf32",
"75	c #4bbf32",
"76	c #40b530",
"77	c #29742a",
"78	c #57b841",
"79	c #bbe393",
"7a	c #b0df77",
"7b	c #b0df79",
"7c	c #a2d966",
"7d	c #9fde5e",
"7e	c #9795a1",
"7f	c #f0eff0",
"7g	c #5e5e62",
"7h	c #464547",
"7i	c #2d2931",
"7j	c #478031",
"7k	c #5fc835",
"7l	c #4fc332",
"7m	c #39a12f",
"7n	c #29712a",
"7o	c #73c25d",
"7p	c #b2df82",
"7q	c #addf77",
"7r	c #abde75",
"7s	c #acde77",
"7t	c #94d658",
"7u	c #aae474",
"7v	c #524d58",
"7w	c #444548",
"7x	c #3f4043",
"7y	c #323034",
"7z	c #2e302d",
"80	c #5ec636",
"81	c #5cc534",
"82	c #4dbd32",
"83	c #32882e",
"84	c #2a742c",
"85	c #5db547",
"86	c #9dd772",
"87	c #aade77",
"88	c #a9dd78",
"89	c #85d149",
"8a	c #91dd56",
"8b	c #3d3444",
"8c	c #2c282f",
"8d	c #2b262e",
"8e	c #2e312d",
"8f	c #58b234",
"8g	c #5eca34",
"8h	c #52bd33",
"8i	c #39962f",
"8j	c #2b772c",
"8k	c #4aa837",
"8l	c #6fbe57",
"8m	c #9ed879",
"8n	c #74ce3c",
"8o	c #72cf39",
"8p	c #66a941",
"8q	c #467631",
"8r	c #4d8f33",
"8s	c #5ac134",
"8t	c #4cb332",
"8u	c #389230",
"8v	c #2e7c2d",
"8w	c #429f34",
"8x	c #3c9930",
"8y	c #43a132",
"8z	c #42a031",
"90	c #41a232",
"91	c #3a9531",
"92	c #32862e",
"93	c #32842f",
"                343p4a4u5b5r69                  ",
"            222k353q4b4v5c5s6a6p78              ",
"          1k232l363r4c4w5d5t6b6q797o            ",
"        151l242m373s4d0a5e++0h6r7a7p85          ",
"      0u161m252n383t4e4x0e0f0i0l0m7q868k        ",
"      0v171n||2o393u4f0a0e0f0i0l0m7r878l        ",
"    0n0w181o262p0707||4y5f++0h6s7b7s888m8w      ",
"    0o++191p272q3a3v4g4z5g5u6c6t7c7t898n8x      ",
"    0p0x1a1q282r3b3w4h505h5v6d6u7d7u8a8o8y      ",
"    0q0y1b1r292s3c3x4i51085w6e6v7e7v8b8p8z      ",
"    0r0z1c1s2a2t3d3y08525i5x6f6w7f7w8c8q90      ",
"    0s101d1t2b2u3e3z4j535j5y6g6x7g7x8d8r91      ",
"    0t111e1u2c2v3f404k545k5z6h6y7h7y8e8s92      ",
"      121f1v//2w3g414l555l60//6z7i7z8f8t93      ",
"      131g1w2d2x3h424m0b0b616i707j808g8u        ",
"      141h1x2e2y3iXXXXXXXX626j717k818h8v        ",
"        1i1y2f2z3j43090c09636k720j0g8i          ",
"        1j1z2g0606444n0c5m640j730k828j          ",
"          202h303k454o565n0g0k747l83            ",
"          212i313l..4p57....6l757m84            ",
"            2j323m464q585o656m767n              ",
"              333n474r0d0d666n77                ",
"                3o484s595p676o                  ",
"                  494t5a5q68                    "};