/* XPM */
static char * xpm_anchor[] = {
"24 24 202 2",
"  	c None",
"XX	c #4aabe6",
"++	c #33a4e5",
"..	c #1f86da",
"||	c #176dcb",
"//	c #2285d5",
"06	c #79d0f7",
"07	c #29a2e8",
"08	c #289ce3",
"09	c #1984d6",
"0a	c #1164c4",
"0b	c #8bd9f7",
"0c	c #2fb0ee",
"0d	c #30b1ef",
"0e	c #3bbef4",
"0f	c #0f91e2",
"0g	c #106ecb",
"0h	c #358ed7",
"0i	c #7adbfc",
"0j	c #239ce7",
"0k	c #308ed8",
"0l	c #62cbf6",
"0m	c #17a1e9",
"0n	c #0877d3",
"0o	c #67bced",
"0p	c #39a5e5",
"0q	c #59b1e7",
"0r	c #62ccf5",
"0s	c #21a9ed",
"0t	c #036bcb",
"0u	c #78cff6",
"0v	c #47b8f0",
"0w	c #2b98e0",
"0x	c #3b73c1",
"0y	c #63caf4",
"0z	c #0896e7",
"10	c #0259bc",
"11	c #4bb4eb",
"12	c #95e3ff",
"13	c #51c6f7",
"14	c #3db5ee",
"15	c #3779c4",
"16	c #5ac8f3",
"17	c #007ada",
"18	c #8fdafa",
"19	c #4fc5f6",
"1a	c #258cdb",
"1b	c #68c3ed",
"1c	c #0993e3",
"1d	c #004ab1",
"1e	c #78cef5",
"1f	c #84dbfc",
"1g	c #6ed5f9",
"1h	c #58ccf8",
"1i	c #35a8ea",
"1j	c #7bccf2",
"1k	c #51c8f7",
"1l	c #156fc7",
"1m	c #3dbdef",
"1n	c #005ac1",
"1o	c #5dc5f5",
"1p	c #bbf1ff",
"1q	c #75defe",
"1r	c #6cd3fa",
"1s	c #93e3ff",
"1t	c #64d8fc",
"1u	c #7dcef3",
"1v	c #50c6f6",
"1w	c #1873cf",
"1x	c #0055bd",
"1y	c #5bcef5",
"1z	c #005fc7",
"20	c #a0e0fc",
"21	c #7ae2ff",
"22	c #3ab7f1",
"23	c #99d9fa",
"24	c #7cdcfe",
"25	c #51c4f5",
"26	c #5acaf7",
"27	c #41b8ef",
"28	c #68caf6",
"29	c #4fc2f4",
"2a	c #3bafed",
"2b	c #3bb4ef",
"2c	c #31a7e8",
"2d	c #2899e1",
"2e	c #2492df",
"2f	c #1e89d9",
"2g	c #1b8add",
"2h	c #188cde",
"2i	c #1287db",
"2j	c #0d83db",
"2k	c #0277d6",
"2l	c #43bdf0",
"2m	c #0062c8",
"2n	c #a5e2fc",
"2o	c #7ee2ff",
"2p	c #29a9eb",
"2q	c #81d2f6",
"2r	c #86defe",
"2s	c #5fcef9",
"2t	c #61cff9",
"2u	c #52c5f4",
"2v	c #59c6f6",
"2w	c #4ec1f3",
"2x	c #43baf2",
"2y	c #3fbcf1",
"2z	c #34abea",
"30	c #2fa9e8",
"31	c #2aa3e8",
"32	c #25a1e8",
"33	c #1f9be6",
"34	c #1992e1",
"35	c #128fe0",
"36	c #0e8adf",
"37	c #027fdb",
"38	c #3fbcef",
"39	c #0062c9",
"3a	c #7dd1f8",
"3b	c #a3ebff",
"3c	c #6bd7fa",
"3d	c #53c4f4",
"3e	c #9be1fe",
"3f	c #62d5fb",
"3g	c #2a9be3",
"3h	c #37a7e8",
"3i	c #4ab5ee",
"3j	c #7bcef5",
"3k	c #4ec4f5",
"3l	c #1e81d5",
"3m	c #228bd9",
"3n	c #1e7dd5",
"3o	c #1979d1",
"3p	c #1771ce",
"3q	c #1a80d7",
"3r	c #1782d7",
"3s	c #127bd4",
"3t	c #0c77d2",
"3u	c #0565c7",
"3v	c #005bc3",
"3w	c #4dc6f1",
"3x	c #005fc5",
"3y	c #a6e1fb",
"3z	c #84defe",
"40	c #7bddfc",
"41	c #61d1fb",
"42	c #3fb3ec",
"43	c #7dcaf3",
"44	c #4bc7f6",
"45	c #0d5dbc",
"46	c #3cbbf0",
"47	c #0058be",
"48	c #7bcff6",
"49	c #6ecbf4",
"4a	c #41b8f0",
"4b	c #8cd7f8",
"4c	c #49c4f5",
"4d	c #1a75cf",
"4e	c #3e9fdb",
"4f	c #0b91e2",
"4g	c #004cb4",
"4h	c #4eb5eb",
"4i	c #8adbfc",
"4j	c #47bff3",
"4k	c #34a9e9",
"4l	c #4fc2f0",
"4m	c #0070d4",
"4n	c #3ca2e3",
"4o	c #83d5f8",
"4p	c #48bef2",
"4q	c #2a97df",
"4r	c #55b9ec",
"4s	c #0088e0",
"4t	c #004fb7",
"4u	c #50afe6",
"4v	c #45a8e6",
"4w	c #3894d9",
"4x	c #5cc2f2",
"4y	c #0c96e6",
"4z	c #006ace",
"50	c #419fe1",
"51	c #59cbf8",
"52	c #1886dc",
"53	c #1d6cc1",
"54	c #52bdf0",
"55	c #0d94e4",
"56	c #0371d0",
"57	c #80cdf2",
"58	c #20a3e8",
"59	c #1f9ee8",
"5a	c #26acec",
"5b	c #0b8ee3",
"5c	c #0863c7",
"5d	c #2687d7",
"5e	c #7ed9fb",
"5f	c #20a0e7",
"5g	c #1e9fe9",
"5h	c #1077d5",
"5i	c #0959c0",
"5j	c #46a2e0",
"5k	c #2289d9",
"5l	c #1575d0",
"                    1o202n3a                    ",
"                  1e1p212o3b3y                  ",
"                  1f1q222p3c3z48                ",
"                  1g1r    3d4049                ",
"                  1h1s232q3e414a                ",
"                  1i1t242r3f42                  ",
"                      252s3g                    ",
"                      262t3h                    ",
"              11      272u3i    4h4n            ",
"          0o0u12181j1u282v3j434b4i4o4u          ",
"          0p0v13191k1v292w3k444c4j4p4v          ",
"            0w141a  1w2a2x3l  4d4k4q            ",
"                      2b2y3m                    ",
"  XX//                2c2z3n              5d5j  ",
"  ++060b0h            2d303o          50575e5k  ",
"  ..070c0i0q          2e313p        4w51585f5l  ",
"  ||080d0j            2f323q          52595g    ",
"    090e0k            2g333r          535a5h    ",
"    0a0f0l            2h343s          545b5i    ",
"      0g0m0r0x        2i353t        4x555c      ",
"        0n0s0y15      2j363u      4r4y56        ",
"          0t0z161b1l1x2k373v454e4l4s4z          ",
"            10171c1m1y2l383w464f4m4t            ",
"                1d1n1z2m393x474g                "};