/* XPM */
static char * xpm_application[] = {
"24 24 155 2",
"  	c None",
"XX	c #d6f9ff",
"++	c #1674bd",
"..	c #90cef1",
"||	c #9dd3f5",
"//	c #1e7ac3",
"06	c #59a8dd",
"07	c #034284",
"08	c #1165ae",
"09	c #1672bc",
"0a	c #92cef1",
"0b	c #b0e2fb",
"0c	c #146fb9",
"0d	c #8fccf1",
"0e	c #94d1f2",
"0f	c #d1f6ff",
"0g	c #5ba9de",
"0h	c #5fabdf",
"0i	c #81c3ec",
"0j	c #9ad3f4",
"0k	c #1570ba",
"0l	c #1570bb",
"0m	c #4095d3",
"0n	c #6fb8e5",
"0o	c #4d9fd8",
"0p	c #9fd5f6",
"0q	c #aadefa",
"0r	c #82c3ec",
"0s	c #caf1ff",
"0t	c #96d1f3",
"0u	c #64aee0",
"0v	c #1f7dc4",
"0w	c #c4eeff",
"0x	c #84c5ed",
"0y	c #054b8f",
"0z	c #378fd0",
"10	c #4498d3",
"11	c #c8f0ff",
"12	c #79bde9",
"13	c #2380c6",
"14	c #65b0e1",
"15	c #1b79c2",
"16	c #54a3db",
"17	c #95d1f2",
"18	c #b3e4fd",
"19	c #0f60a8",
"1a	c #318bcd",
"1b	c #c0ecff",
"1c	c #cef4ff",
"1d	c #55a4dc",
"1e	c #0a549a",
"1f	c #8ac9ef",
"1g	c #56a4dc",
"1h	c #a8dcf9",
"1i	c #c5f0ff",
"1j	c #a2dbf8",
"1k	c #85c5ee",
"1l	c #308acc",
"1m	c #52a2da",
"1n	c #4196d3",
"1o	c #6bb4e3",
"1p	c #7dc0ea",
"1q	c #1266b0",
"1r	c #beecff",
"1s	c #479bd5",
"1t	c #3a93d3",
"1u	c #d3f8ff",
"1v	c #0b569d",
"1w	c #217ec5",
"1x	c #0b569e",
"1y	c #0d59a1",
"1z	c #1065ad",
"20	c #0e5fa6",
"21	c #3990d1",
"22	c #0e5fa9",
"23	c #b6e5fe",
"24	c #8ac6ef",
"25	c #1165af",
"26	c #0d5ca2",
"27	c #98d2f4",
"28	c #1979c2",
"29	c #a0d8f8",
"2a	c #5daade",
"2b	c #3d93d3",
"2c	c #51a2da",
"2d	c #7ec1eb",
"2e	c #c4f0ff",
"2f	c #00336f",
"2g	c #0d5da2",
"2h	c #1163ae",
"2i	c #1a79c3",
"2j	c #1779c0",
"2k	c #003471",
"2l	c #04478b",
"2m	c #003c7c",
"2n	c #2d86cb",
"2o	c #3a91d1",
"2p	c #bbe8ff",
"2q	c #8ecbf0",
"2r	c #4ea0d9",
"2s	c #b8e6fe",
"2t	c #3e93d3",
"2u	c #074f93",
"2v	c #4da1d9",
"2w	c #3a90d1",
"2x	c #4c9dd6",
"2y	c #76bde8",
"2z	c #a1d8f8",
"30	c #1369b3",
"31	c #0b569c",
"32	c #003b7b",
"33	c #74bbe8",
"34	c #1a77c2",
"35	c #04458a",
"36	c #b4e4fd",
"37	c #1063ad",
"38	c #70b8e5",
"39	c #d5f8ff",
"3a	c #1266af",
"3b	c #72bae6",
"3c	c #d0f6ff",
"3d	c #0f63a9",
"3e	c #71b9e6",
"3f	c #358ecf",
"3g	c #6cb5e4",
"3h	c #1976c2",
"3i	c #023f81",
"3j	c #addffb",
"3k	c #003776",
"3l	c #7abee9",
"3m	c #62aee0",
"3n	c #2581c8",
"3o	c #136db6",
"3p	c #0b569f",
"3q	c #a9ddf9",
"3r	c #4a9fd8",
"3s	c #bde9ff",
"3t	c #2681c8",
"3u	c #4298d3",
"3v	c #83c5ed",
"3w	c #77bde8",
"3x	c #0e5ea6",
"3y	c #075094",
"3z	c #a5dbf8",
"40	c #8dcbf0",
"41	c #66b2e2",
"42	c #4a9dd6",
"43	c #72b9e6",
"44	c #003371",
"45	c #1e7bc4",
"46	c #1674bb",
"47	c #1166af",
"48	c #0b579d",
"49	c #3d92d2",
"4a	c #146ab5",
"                      383b                      ",
"            2v1t    1a39XX3f    1t3r            ",
"          2rXX0p0v340oXXXX1d3h//||XX1m          ",
"          1l11XX0t1k0s1c3c110x0eXX1c0z          ",
"          0c0e11XXXX1b0b0b1bXXXX2e||0k          ",
"    0o2o080z1r1u17212508082521171u3s0z081l42    ",
"  2iXX0s1h2s0f0g1y220c0l0l0c221y0g0f23||1iXX45  ",
"  2j062p0b0w0g1v0l090928280909091x2a0w0b1r0u46  ",
"    2l060w..1q150c            0l1w0k0a1b06//    ",
"    2m061i1m0v1w1z            1z3n3t1d2e1g//    ",
"2g++2n0t1j1n2w30                3o3u1s3z||134748",
"0mXX0p1f..102x1x                3p160o0t0a0jXX49",
"2h0n0n1f2q060h31                1v140h..0e430n4a",
"  ++++0u||1o2y//20            19//3v3w||4107//  ",
"      0v1h1p12123219        203k0x270d1j//      ",
"    ++1g1k0r0r0j0i3526193d263i3l0q2924401d07    ",
"  ++0q0a0x0d0i0a18231615152c3j183q..0d....0e2f  ",
"  2k0r0m0y2t..0i||361c0f0f0s180q0d17101e100i2f  ",
"    ++++  0y1s12332427290p0j..2d2d2c1e    44    ",
"          0y13160g0h0u2a0h3g1o3m06131e          ",
"          1q2z0m0k07372b2b++07++1n0j3x          ",
"          2u140k    071a1a07    ++143y          ",
"                    ++1p3e++                    ",
"                      3a08                      "};