/* XPM */
static char * xpm_apply[] = {
"24 24 112 2",
"  	c None",
"XX	c #34c628",
"++	c #16a116",
"..	c #e3fad6",
"||	c #2ab622",
"//	c #65de4f",
"06	c #28c721",
"07	c #169c16",
"08	c #5ada38",
"09	c #2bbd22",
"0a	c #d1f4b6",
"0b	c #98eb81",
"0c	c #baf1aa",
"0d	c #2db923",
"0e	c #b1f496",
"0f	c #1ea31a",
"0g	c #44d52f",
"0h	c #5ed94a",
"0i	c #18b218",
"0j	c #18b118",
"0k	c #1ead1b",
"0l	c #56da38",
"0m	c #28b421",
"0n	c #44d42f",
"0o	c #41d22c",
"0p	c #16a516",
"0q	c #42d32e",
"0r	c #3ed12b",
"0s	c #32c027",
"0t	c #27b11f",
"0u	c #28ba20",
"0v	c #29bb22",
"0w	c #19b718",
"0x	c #5fd94a",
"0y	c #90e86c",
"0z	c #36c629",
"10	c #18b618",
"11	c #64de3f",
"12	c #62dd3d",
"13	c #3cc82b",
"14	c #19ad19",
"15	c #6bde55",
"16	c #5cdc3a",
"17	c #42cd2e",
"18	c #18b018",
"19	c #57db39",
"1a	c #46d02f",
"1b	c #18ab18",
"1c	c #52d836",
"1d	c #50d735",
"1e	c #51da36",
"1f	c #47d230",
"1g	c #23ae1d",
"1h	c #17a617",
"1i	c #4cd733",
"1j	c #4ad632",
"1k	c #4ad732",
"1l	c #46d430",
"1m	c #47d52f",
"1n	c #47d430",
"1o	c #28c521",
"1p	c #7bef58",
"1q	c #66df4d",
"1r	c #42d22e",
"1s	c #41d32e",
"1t	c #ccf8b3",
"1u	c #3acf25",
"1v	c #3fd02d",
"1w	c #17a917",
"1x	c #33d129",
"1y	c #cdf9b4",
"1z	c #4ad637",
"20	c #3cd02b",
"21	c #41d834",
"22	c #dbfac9",
"23	c #4bd638",
"24	c #3cd029",
"25	c #5ae046",
"26	c #a7ed93",
"27	c #3dd02a",
"28	c #18a818",
"29	c #74e95e",
"2a	c #e8fbdd",
"2b	c #96ea80",
"2c	c #3ed12a",
"2d	c #19ad18",
"2e	c #92ef77",
"2f	c #eafbdf",
"2g	c #7de568",
"2h	c #3dd129",
"2i	c #40d32c",
"2j	c #2abb21",
"2k	c #e8fbdc",
"2l	c #3ccf28",
"2m	c #42d42d",
"2n	c #22aa1c",
"2o	c #cdf7b6",
"2p	c #58db43",
"2q	c #3dd028",
"2r	c #43d42e",
"2s	c #44d62f",
"2t	c #199c17",
"2u	c #42d32d",
"2v	c #179a17",
"2w	c #47d730",
"2x	c #3fcf2d",
"2y	c #22a91c",
"2z	c #41cd2e",
"30	c #48d731",
"31	c #3bcb2a",
"32	c #169f16",
"33	c #23a71c",
"                                                ",
"                                                ",
"                                                ",
"                                                ",
"                                          0h0s  ",
"                                      090h..2z0t",
"                                    090h..//3033",
"                                  090e..//2w310f",
"                                090e..//0g2x0f  ",
"                              2j2o..//2u0q2y32  ",
"                            2d0e..//0o0g0t07    ",
"  0w++++                  282e2k2p0r2s0d07      ",
"0i0x0a15++              0p292f//2q0g0s2v        ",
"0u0y080a06++          0p252a2g2l2rXX2t          ",
"0v0811080a06++      1w21..2b2h2mXX0d            ",
"0j0z12080l0b06++  ++1x22262c2iXX0f              ",
"  0j13160l1c0b061o061y0c0q0rXX2n                ",
"  101417191d1i0b1p1t0c2327XX0m                  ",
"    0i0k1a1e1j1m1q0c1z24XX0d                    ",
"      180k1f1k1n0o1u20XX||                      ",
"        1b1g1l0n1r1vXX||                        ",
"          1h0m0n1sXX||                          ",
"            07||||||                            ",
"              0707                              "};