/* XPM */
static char * xpm_back[] = {
"24 24 302 2",
"  	c None",
"XX	c #0c7ef1",
"++	c #0b87eb",
"..	c #eff7ff",
"||	c #c8e9fc",
"//	c #97def9",
"06	c #6ec9f7",
"07	c #68c7f6",
"08	c #5ec2f6",
"09	c #45b5f2",
"0a	c #249cee",
"0b	c #1c93ed",
"0c	c #0c92f3",
"0d	c #0c8ff3",
"0e	c #0c8ef6",
"0f	c #36acf1",
"0g	c #57c8f5",
"0h	c #0c89f3",
"0i	c #0c87f4",
"0j	c #1d9bef",
"0k	c #daf5ff",
"0l	c #dff4ff",
"0m	c #3db4f1",
"0n	c #0c83f4",
"0o	c #1290ed",
"0p	c #cbf1fe",
"0q	c #e8f3ff",
"0r	c #d8eefd",
"0s	c #c2ebfe",
"0t	c #30a7ef",
"0u	c #0c7def",
"0v	c #0c80f3",
"0w	c #0d8ced",
"0x	c #c1edfd",
"0y	c #ebf6ff",
"0z	c #c1e7fc",
"10	c #97dbfb",
"11	c #a3e0fb",
"12	c #a5e3fc",
"13	c #2ca0ee",
"14	c #0c78ef",
"15	c #bcebfd",
"16	c #c4e9fc",
"17	c #8cd7fb",
"18	c #89d8fa",
"19	c #85d4f9",
"1a	c #93dafb",
"1b	c #97ddfa",
"1c	c #2295ec",
"1d	c #0c75ed",
"1e	c #0c78f1",
"1f	c #047dea",
"1g	c #b0e9fb",
"1h	c #c6e9fc",
"1i	c #89d7fa",
"1j	c #89d7f9",
"1k	c #89d5f9",
"1l	c #83d3f9",
"1m	c #7acdf8",
"1n	c #83d4fa",
"1o	c #82d7f9",
"1p	c #1b88e8",
"1q	c #0c6fec",
"1r	c #0c7af0",
"1s	c #0379e9",
"1t	c #a2e3fa",
"1u	c #eff8ff",
"1v	c #88d6fa",
"1w	c #84d5f9",
"1x	c #84d4f9",
"1y	c #7fd2f8",
"1z	c #78cff8",
"20	c #73cdf7",
"21	c #69c7f7",
"22	c #77d2f9",
"23	c #6ccef6",
"24	c #1783e6",
"25	c #0c6feb",
"26	c #0c79f1",
"27	c #0074e8",
"28	c #98e0fa",
"29	c #eef7ff",
"2a	c #86d5fa",
"2b	c #80d0f9",
"2c	c #7fd2f9",
"2d	c #7cd1f8",
"2e	c #77cef8",
"2f	c #6fccf7",
"2g	c #69c8f7",
"2h	c #66c6f6",
"2i	c #5cc2f6",
"2j	c #6ccaf9",
"2k	c #5dc4f5",
"2l	c #1177e6",
"2m	c #0c6ee9",
"2n	c #0c73ef",
"2o	c #016ce7",
"2p	c #f2f8ff",
"2q	c #d2ebfc",
"2r	c #83d5f9",
"2s	c #79d0f9",
"2t	c #80d1f8",
"2u	c #78cef8",
"2v	c #73ccf7",
"2w	c #62c3f6",
"2x	c #5ac4f7",
"2y	c #52bef7",
"2z	c #5ec7f8",
"30	c #4bbcf4",
"31	c #0c6ee3",
"32	c #0c68e7",
"33	c #0c85f1",
"34	c #127fea",
"35	c #90def9",
"36	c #eaf9ff",
"37	c #dff3fe",
"38	c #b5e5fc",
"39	c #74d0f8",
"3a	c #71ccf8",
"3b	c #75cef8",
"3c	c #63c6f6",
"3d	c #5ac0f5",
"3e	c #55bcf5",
"3f	c #49b2f0",
"3g	c #4cb8f2",
"3h	c #4cbaf3",
"3i	c #58c8f8",
"3j	c #46bef4",
"3k	c #1170e5",
"3l	c #0c6bea",
"3m	c #0c84f0",
"3n	c #54bcf1",
"3o	c #9de5fc",
"3p	c #79cff7",
"3q	c #66c8f6",
"3r	c #6dcbf7",
"3s	c #77cff9",
"3t	c #6dcaf7",
"3u	c #66c7f6",
"3v	c #62c6f6",
"3w	c #60c3f6",
"3x	c #5bc1f5",
"3y	c #55bff4",
"3z	c #51bef4",
"40	c #4fb7f3",
"41	c #3893d9",
"42	c #308ddb",
"43	c #2c8de5",
"44	c #2c91e7",
"45	c #36aaed",
"46	c #2a9cea",
"47	c #0459db",
"48	c #0c6ce7",
"49	c #0c85ef",
"4a	c #0f82e9",
"4b	c #2999ee",
"4c	c #178bec",
"4d	c #1085eb",
"4e	c #0c74e9",
"4f	c #2098ee",
"4g	c #94dbfa",
"4h	c #b4e3fa",
"4i	c #6ac5f6",
"4j	c #59c0f5",
"4k	c #58bff4",
"4l	c #53bdf4",
"4m	c #4ebaf3",
"4n	c #49b7f5",
"4o	c #3790da",
"4p	c #176ad3",
"4q	c #0c70da",
"4r	c #0f71de",
"4s	c #1169e3",
"4t	c #177be7",
"4u	c #106fe3",
"4v	c #0c6ae6",
"4w	c #1181ed",
"4x	c #d6ecfd",
"4y	c #6ac7f6",
"4z	c #4db9f4",
"50	c #51baf4",
"51	c #4eb9f3",
"52	c #46b5f2",
"53	c #43b7f4",
"54	c #3eaff1",
"55	c #3393d9",
"56	c #207fe5",
"57	c #148dee",
"58	c #88d7f8",
"59	c #c4e9fa",
"5a	c #5dc2f3",
"5b	c #42b4f3",
"5c	c #42b6f2",
"5d	c #3eb1f2",
"5e	c #3ab0f2",
"5f	c #34a8f1",
"5g	c #2d93d3",
"5h	c #2078e7",
"5i	c #1388ed",
"5j	c #7ed4f8",
"5k	c #bfe5f9",
"5l	c #55bef4",
"5m	c #40b1f2",
"5n	c #40b3f2",
"5o	c #3daef1",
"5p	c #38abf1",
"5q	c #34aaf2",
"5r	c #30a4ef",
"5s	c #2791d8",
"5t	c #1d6fe2",
"5u	c #1086ec",
"5v	c #74cff6",
"5w	c #b6e2f9",
"5x	c #4ab9f2",
"5y	c #37abf2",
"5z	c #3aabf1",
"60	c #35a9f1",
"61	c #30a6f0",
"62	c #2aa5f2",
"63	c #279fef",
"64	c #2285dd",
"65	c #1b74dd",
"66	c #1180eb",
"67	c #6bccf6",
"68	c #acdff8",
"69	c #44b4f1",
"6a	c #31a5f1",
"6b	c #34a6f0",
"6c	c #2fa4ef",
"6d	c #2aa1ef",
"6e	c #279ff0",
"6f	c #2299ed",
"6g	c #1c7dd6",
"6h	c #1777e2",
"6i	c #0f7bea",
"6j	c #5fc8f4",
"6k	c #a2dbf7",
"6l	c #3db0f1",
"6m	c #2aa3ef",
"6n	c #2ba2ef",
"6o	c #29a1ef",
"6p	c #219af0",
"6q	c #1478d6",
"6r	c #1574e2",
"6s	c #0f74e9",
"6t	c #56c0f4",
"6u	c #94d7f7",
"6v	c #32abef",
"6w	c #239bef",
"6x	c #2198ed",
"6y	c #1d95ed",
"6z	c #1894ee",
"70	c #178deb",
"71	c #1274d3",
"72	c #116edf",
"73	c #0d70e7",
"74	c #51bcf3",
"75	c #90d8f5",
"76	c #2fa5ef",
"77	c #1e95ed",
"78	c #1e94ed",
"79	c #1890eb",
"7a	c #178eed",
"7b	c #1188ea",
"7c	c #0b6fd3",
"7d	c #116ae0",
"7e	c #0c6fe7",
"7f	c #4dbcf4",
"7g	c #63c6f3",
"7h	c #1e9bee",
"7i	c #1a94ed",
"7j	c #1994ee",
"7k	c #1791ed",
"7l	c #138ced",
"7m	c #0f8def",
"7n	c #0e87ec",
"7o	c #096ad3",
"7p	c #0c6ae0",
"7q	c #1676e7",
"7r	c #29a5f1",
"7s	c #20a2f2",
"7t	c #1795f0",
"7u	c #1993ed",
"7v	c #148dec",
"7w	c #1289ea",
"7x	c #0b7ee7",
"7y	c #0978e4",
"7z	c #0672dd",
"80	c #006dda",
"81	c #0c5fd8",
"82	c #0c5ae0",
"83	c #0347ce",
"84	c #0346cf",
"85	c #0348cf",
"86	c #0243cf",
"87	c #023fc9",
"88	c #033dc5",
"89	c #003ec4",
"8a	c #003ac4",
"8b	c #0037c4",
"8c	c #0041c4",
"8d	c #0c48d8",
"                      3m49                      ",
"                    33++4a                      ",
"                  2n343n4b                      ",
"                262o353o4c                      ",
"              1r27//363p4d                      ",
"            1e1s282p373q4e                      ",
"          XX1f1t292q383r4f4w575i5u666i6s737e7q82",
"        0v++1g1u||2r393s4g//585j5v676j6t747f7r83",
"      0n0w15..||2a2s3a3t4h4x595k5w686k6u757g7s84",
"    0i0o0x..1h1v2b2t3b3u4i4y5a5l5x696l6v767h7t85",
"  0e0j0p0y161i1w2c2u063v4j4z5b5m5y6a6m6w777i7u86",
"0c0f0k0q0z171j1x2d2v073w4k50095n5z6b6n0a787j7v87",
"0d0g0l0r10181k1y2e063c3x4l515c5o606c6o6x0b7k7w88",
"  0h0m0s11191l1z2f07083y4m525d5p616d0a6y797l7x89",
"    XX0t121a1m202g2w3d3z4n535e5q626e6p6z7a7m7y8a",
"      0u131b1n212h083e4009545f5r636f0b707b7n7z8b",
"        141c1o222i2x3f414o555g5s646g6q717c7o808c",
"          1d1p232j2y3g424p565h5t656h6r727d7p818d",
"            1q242k2z3h434q                      ",
"              252l303i444r                      ",
"                2m313j454s                      ",
"                  323k464t                      ",
"                    3l474u                      ",
"                      484v                      "};