/* XPM */
static char * xpm_bad_mark[] = {
"24 24 316 2",
"XX	c #ffffff",
"++	c #fc2417",
"..	c #ff0811",
"||	c #fc2015",
"//	c #fa0a10",
"05	c #efbda3",
"06	c #fb1211",
"07	c #ff0911",
"08	c #fc2718",
"09	c #fb1813",
"0a	c #fe744d",
"0b	c #fb1914",
"0c	c #f7e3d5",
"  	c None",
"0e	c #fb1c14",
"0f	c #fb1712",
"0g	c #fa1211",
"0h	c #c00508",
"0i	c #f8dfd2",
"0j	c #fd2819",
"0k	c #ffa27d",
"0l	c #ff2a19",
"0m	c #fc2c1a",
"0n	c #fb0a10",
"0o	c #e30000",
"0p	c #fd2d1a",
"0q	c #fb2015",
"0r	c #fb1913",
"0s	c #fa0b10",
"0t	c #f46c47",
"0u	c #ff2e1b",
"0v	c #ff2618",
"0w	c #fe2216",
"0x	c #ff1e15",
"0y	c #ae0104",
"0z	c #ffa37e",
"10	c #fb2316",
"11	c #fe341e",
"12	c #c20308",
"13	c #fb1212",
"14	c #fb0c10",
"15	c #bf0408",
"16	c #c00408",
"17	c #fc1913",
"18	c #ee0000",
"19	c #e26c4a",
"1a	c #ff7950",
"1b	c #e06a49",
"1c	c #fe7950",
"1d	c #bd0508",
"1e	c #cd3714",
"1f	c #dd3716",
"1g	c #fc1c14",
"1h	c #d63d19",
"1i	c #e56b48",
"1j	c #d92911",
"1k	c #ff8963",
"1l	c #fd623b",
"1m	c #fa6f49",
"1n	c #f9714b",
"1o	c #f8704a",
"1p	c #f76f4a",
"1q	c #f56f47",
"1r	c #f36b45",
"1s	c #f26a46",
"1t	c #f06945",
"1u	c #ef6644",
"1v	c #ee6946",
"1w	c #e94b2b",
"1x	c #dd080c",
"1y	c #db0b0d",
"1z	c #d90b0c",
"20	c #d6090b",
"21	c #d2080b",
"22	c #cf070a",
"23	c #cc0709",
"24	c #c60409",
"25	c #b20206",
"26	c #fe6c44",
"27	c #fe8c63",
"28	c #ff9f78",
"29	c #ff9d74",
"2a	c #ff9a70",
"2b	c #ff986f",
"2c	c #ff966d",
"2d	c #ff9069",
"2e	c #ff8f65",
"2f	c #ff8a64",
"2g	c #ff8a61",
"2h	c #ff8b61",
"2i	c #fe2f1a",
"2j	c #ff1914",
"2k	c #fe1312",
"2l	c #ff0b11",
"2m	c #e4070c",
"2n	c #fd724a",
"2o	c #ffa27e",
"2p	c #e66b48",
"2q	c #de5837",
"2r	c #e15734",
"2s	c #e65835",
"2t	c #e75835",
"2u	c #e85936",
"2v	c #e95a36",
"2w	c #ec5e38",
"2x	c #ee5b37",
"2y	c #f1663c",
"2z	c #eb3a1f",
"30	c #fc2d19",
"31	c #bc0307",
"32	c #dc5837",
"33	c #f1bea5",
"34	c #f7ddcd",
"35	c #f7d9cb",
"36	c #f6dccb",
"37	c #f8dacc",
"38	c #f9ddcc",
"39	c #fadecd",
"3a	c #f9decd",
"3b	c #faefde",
"3c	c #fe331d",
"3d	c #fc2a18",
"3e	c #c30308",
"3f	c #dc5633",
"3g	c #f5d9cc",
"3h	c #e00000",
"3i	c #fb1f15",
"3j	c #fc1d14",
"3k	c #fd764e",
"3l	c #db5633",
"3m	c #f6ddcf",
"3n	c #de0000",
"3o	c #fd754c",
"3p	c #da5536",
"3q	c #e59371",
"3r	c #ecac8e",
"3s	c #eea98c",
"3t	c #eea98b",
"3u	c #efa88b",
"3v	c #efa888",
"3w	c #f1ac8d",
"3x	c #f4b494",
"3y	c #f18d5d",
"3z	c #df0002",
"40	c #fd331c",
"41	c #ffa17c",
"42	c #ef7b58",
"43	c #e66846",
"44	c #d34526",
"45	c #d6411f",
"46	c #e05932",
"47	c #e56f49",
"48	c #ef9f7c",
"49	c #ec835c",
"4a	c #e8562d",
"4b	c #d70000",
"4c	c #df0004",
"4d	c #ff361e",
"4e	c #fb1a14",
"4f	c #ffa279",
"4g	c #f07c59",
"4h	c #ce4322",
"4i	c #e79b79",
"4j	c #fbf4ee",
"4k	c #fdf8e8",
"4l	c #e63a13",
"4m	c #e50105",
"4n	c #fa2b19",
"4o	c #fd2818",
"4p	c #c10409",
"4q	c #ffa67d",
"4r	c #c93e20",
"4s	c #faede3",
"4t	c #eb5e30",
"4u	c #e40000",
"4v	c #f82517",
"4w	c #fd2518",
"4x	c #fe774d",
"4y	c #f38763",
"4z	c #d15d3a",
"50	c #f39a6b",
"51	c #f2140f",
"52	c #fd1d15",
"53	c #fc1311",
"54	c #c10509",
"55	c #ff764f",
"56	c #f38762",
"57	c #dd8361",
"58	c #fae6d1",
"59	c #eb3b13",
"5a	c #ea0000",
"5b	c #f10000",
"5c	c #f30002",
"5d	c #f7040d",
"5e	c #ff7750",
"5f	c #fde6cc",
"5g	c #f52811",
"5h	c #ff0510",
"5i	c #ff7850",
"5j	c #e16c49",
"5k	c #fdf3e0",
"5l	c #f31106",
"5m	c #fe060f",
"5n	c #f0a37b",
"5o	c #dc0000",
"5p	c #e10000",
"5q	c #f17c4c",
"5r	c #f48c60",
"5s	c #f36f3e",
"5t	c #f7060d",
"5u	c #e16c4a",
"5v	c #d3582f",
"5w	c #d33810",
"5x	c #d00600",
"5y	c #e44821",
"5z	c #f01910",
"60	c #f92114",
"61	c #ee0b0b",
"62	c #f10708",
"63	c #f4080a",
"64	c #fa1110",
"65	c #c42c08",
"66	c #cf3815",
"67	c #d42606",
"68	c #df3816",
"69	c #f11d11",
"6a	c #fd2316",
"6b	c #fc2116",
"6c	c #fc1b15",
"6d	c #c32e0b",
"6e	c #d7401b",
"6f	c #f01d11",
"6g	c #bd0408",
"6h	c #fe7951",
"6i	c #e16a49",
"6j	c #c12b0c",
"6k	c #d73d18",
"6l	c #f6dbcd",
"6m	c #f01c11",
"6n	c #fd7750",
"6o	c #ec805c",
"6p	c #cb5c3d",
"6q	c #e39e7e",
"6r	c #c2381b",
"6s	c #fdfffc",
"6t	c #cb3718",
"6u	c #da3918",
"6v	c #f01d12",
"6w	c #fa1111",
"6x	c #bd0307",
"6y	c #fc754d",
"6z	c #ffa47b",
"70	c #e56e4b",
"71	c #e06845",
"72	c #c84929",
"73	c #cd4e2e",
"74	c #cf4629",
"75	c #e9ac8e",
"76	c #e79472",
"77	c #f3c9ad",
"78	c #cc0300",
"79	c #f72817",
"7a	c #fd2718",
"7b	c #be0408",
"7c	c #fc704a",
"7d	c #ffa179",
"7e	c #ff9a75",
"7f	c #ff9873",
"7g	c #ff9b71",
"7h	c #f88961",
"7i	c #f98862",
"7j	c #f7825c",
"7k	c #db5637",
"7l	c #df5839",
"7m	c #ed180f",
"7n	c #fe2f1b",
"7o	c #ff0a11",
"7p	c #ba0209",
"7q	c #fc6943",
"7r	c #fc8b61",
"7s	c #ff9d77",
"7t	c #ff9a73",
"7u	c #ff9870",
"7v	c #ff966e",
"7w	c #ff936d",
"7x	c #ff9468",
"7y	c #ff9169",
"7z	c #ff8e65",
"80	c #ff8a60",
"81	c #ff301a",
"82	c #ff2216",
"83	c #ff1813",
"84	c #ff1313",
"85	c #ff0c11",
"86	c #e3060e",
"87	c #a80003",
"88	c #fa6742",
"89	c #f97049",
"8a	c #f8724b",
"8b	c #f67048",
"8c	c #f56f48",
"8d	c #f36b46",
"8e	c #f26945",
"8f	c #f06944",
"8g	c #ef6845",
"8h	c #ed6441",
"8i	c #ec6946",
"8j	c #e74b2b",
"8k	c #da070b",
"8l	c #d80a0c",
"8m	c #d40a0c",
"8n	c #d2090b",
"8o	c #ce080a",
"8p	c #cb0509",
"8q	c #c80609",
"8r	c #c20508",
"  262n0a0a3k3o0a0a0a4x555e5i1a1c1c1a6h6n6y7c7q  ",
"1l272o0z0k0k0z414f4q4y56195j1b5u191b6i6o6z7d7r88",
"1m0k2p323f3l3p424g4r4z57050505050505056p707e7s89",
"1n282q333g3m3q434h4sXXXXXXXXXXXXXXXXXX6q717f7t8a",
"1o292r34XXXX3r444iXXXXXXXXXXXX5v656d6j6r1i7g7u8b",
"1p2a2s35XXXX3s454jXXXXXXXXXXXXXXXXXXXX6s727h7v8c",
"1q2b2t36XXXX3t46XXXXXXXXXXXXXX0c0c0c0c0c737i7w0t",
"0t2c2u37XXXX3u47XXXXXXXXXXXXXX5w661e1e6t747j7x8d",
"1r2d2v38XXXX3v48XXXXXXXXXXXXXXXXXXXXXXXX757k7y8e",
"1s2e2w39XXXX3w49XXXXXXXXXXXXXXXXXXXXXXXX057l7z8f",
"1t2f2x3aXXXX3x4aXXXXXXXXXXXXXX5x676e6k1h1h1i1k8g",
"1u2g2y3bXXXX3y4b4kXXXXXXXXXXXX0i0i0i6l0i761j1k8h",
"1v2h2z0o3h3n3z4c4lXXXXXXXXXXXXXXXXXXXXXX771j808i",
"1w2i303c1111404d4m4tXXXXXXXX5n5y681f1f6u787m818j",
"1x0u0m0m0p0p0m0p4n4u50XXXXXX5o5z696f6m6v797n0u8k",
"1y0l083d080808084o4v0o58XXXX0o0l0j0j0j0j7a080l8l",
"1z0v++1010++++++++4w5159XXXX5p606a++++++++++0v8m",
"200w||||3i0q0q||||||0w5aXXXX5q616b||||||0q||828n",
"210x0e0b3j0b0b4e0e0e5218XXXX5r626c0b1g0e0b1g0x8o",
"222j0f09090r0r0f0f09175bXXXX5s63170r0909090f838p",
"232k0g06061306060g06535c5f5k18641306066w0g0g848q",
"242l0n//0n0n14//////0s5d5g5l5t0s////140s////858r",
"252m........07..0707..075h5m07....07....077o860y",
"  0y313e1212150h4p1654150h0h160h1d6g1d6x7b7p87  "};