/* XPM */
static char * xpm_bee[] = {
"24 24 227 2",
"  	c None",
"XX	c #9da1ab",
"++	c #7a7d7f",
"..	c #b7bdc6",
"||	c #d3ddf1",
"//	c #ccd1dd",
"06	c #cad6ee",
"07	c #c6d2ed",
"08	c #d6dff2",
"09	c #e1e7f5",
"0a	c #e2e8f5",
"0b	c #38383a",
"0c	c #2f2f30",
"0d	c #333335",
"0e	c #67686b",
"0f	c #d5def1",
"0g	c #dfe1e7",
"0h	c #e2e9f5",
"0i	c #e8ebf0",
"0j	c #f1f3fa",
"0k	c #fafbfd",
"0l	c #d4ddf1",
"0m	c #323133",
"0n	c #8b8e91",
"0o	c #75767a",
"0p	c #595b5d",
"0q	c #3e3e40",
"0r	c #8a8c90",
"0s	c #696a6d",
"0t	c #9094a0",
"0u	c #80828a",
"0v	c #9a9fac",
"0w	c #d5ddf2",
"0x	c #a7aebd",
"0y	c #b4bcce",
"0z	c #d6dff1",
"10	c #dbe3f3",
"11	c #7a7b81",
"12	c #b9bcc7",
"13	c #87898d",
"14	c #b6bece",
"15	c #dae2f2",
"16	c #e7edf7",
"17	c #7f8084",
"18	c #90949e",
"19	c #dfe6f5",
"1a	c #e7ecf7",
"1b	c #a8adb9",
"1c	c #dfe5f4",
"1d	c #eaeff9",
"1e	c #f1f4fa",
"1f	c #cad4e7",
"1g	c #d9e2f3",
"1h	c #e3e9f5",
"1i	c #999ba1",
"1j	c #ecf0f9",
"1k	c #f8f9fd",
"1l	c #ccd8ef",
"1m	c #d5def2",
"1n	c #bfc0c8",
"1o	c #858688",
"1p	c #e8eaeb",
"1q	c #f4f7fc",
"1r	c #8f9196",
"1s	c #a8abaf",
"1t	c #edf2fa",
"1u	c #e4ebf7",
"1v	c #d5dbe9",
"1w	c #616266",
"1x	c #838488",
"1y	c #c8d0dd",
"1z	c #d7e1f3",
"20	c #d4d5ce",
"21	c #aeb5c3",
"22	c #9a9eaa",
"23	c #dcca51",
"24	c #959067",
"25	c #616265",
"26	c #948341",
"27	c #57513d",
"28	c #878a8e",
"29	c #828387",
"2a	c #797c7e",
"2b	c #80848c",
"2c	c #a8b3c5",
"2d	c #a7b1c6",
"2e	c #c4c3b5",
"2f	c #dfd6a8",
"2g	c #a1a8b9",
"2h	c #9f9a75",
"2i	c #fcef67",
"2j	c #aead8b",
"2k	c #7b7d81",
"2l	c #f8df42",
"2m	c #af9941",
"2n	c #3e3f41",
"2o	c #72602e",
"2p	c #66676b",
"2q	c #858b98",
"2r	c #a8b3c7",
"2s	c #d1cbae",
"2t	c #dbcf91",
"2u	c #65676c",
"2v	c #948e66",
"2w	c #fced5e",
"2x	c #a9a782",
"2y	c #787a7e",
"2z	c #fee33d",
"30	c #ae9840",
"31	c #cda223",
"32	c #c9991c",
"33	c #626366",
"34	c #76787b",
"35	c #515255",
"36	c #626367",
"37	c #707175",
"38	c #dcb632",
"39	c #d3af2e",
"3a	c #4c4e50",
"3b	c #8a7f55",
"3c	c #fee33e",
"3d	c #76766f",
"3e	c #65666a",
"3f	c #fcdc32",
"3g	c #a99039",
"3h	c #3a3a3c",
"3i	c #cb9d1f",
"3j	c #efb813",
"3k	c #765b22",
"3l	c #49494b",
"3m	c #525356",
"3n	c #454547",
"3o	c #414245",
"3p	c #4c4c4f",
"3q	c #535557",
"3r	c #d3a727",
"3s	c #cea425",
"3t	c #404042",
"3u	c #7a6d43",
"3v	c #f9d62d",
"3w	c #555658",
"3x	c #505153",
"3y	c #f8d027",
"3z	c #a1832e",
"40	c #c7951a",
"41	c #ecb10e",
"42	c #755920",
"43	c #434347",
"44	c #5b606c",
"45	c #8691a8",
"46	c #c7bc9c",
"47	c #d5c17e",
"48	c #45464b",
"49	c #6b5b34",
"4a	c #f4c71f",
"4b	c #706139",
"4c	c #f3c31c",
"4d	c #987525",
"4e	c #2e2e30",
"4f	c #c38e15",
"4g	c #c38c14",
"4h	c #636567",
"4i	c #70747b",
"4j	c #8a95a9",
"4k	c #8790a7",
"4l	c #b2ac9c",
"4m	c #d8c793",
"4n	c #8b93a3",
"4o	c #6c5b35",
"4p	c #efb814",
"4q	c #61502b",
"4r	c #313133",
"4s	c #e4ac13",
"4t	c #916c1e",
"4u	c #6c5526",
"4v	c #7d7f83",
"4w	c #c4ccda",
"4x	c #d2dff2",
"4y	c #d2ccb9",
"4z	c #a1a6b4",
"50	c #797e88",
"51	c #cb971b",
"52	c #66542e",
"53	c #353637",
"54	c #816328",
"55	c #504733",
"56	c #a4a7ac",
"57	c #e9eff9",
"58	c #e1e9f6",
"59	c #d5dae9",
"5a	c #5e5f62",
"5b	c #808084",
"5c	c #eaebed",
"5d	c #f8fafd",
"5e	c #f0f3fa",
"5f	c #8c8e93",
"5g	c #9b9da3",
"5h	c #f6f8fc",
"5i	c #cbd6ee",
"5j	c #bdc0c6",
"5k	c #acb0bb",
"5l	c #e6ebf7",
"5m	c #edf1f8",
"5n	c #f4f7fb",
"5o	c #c6d0e5",
"5p	c #b8becf",
"5q	c #d8e0f2",
"5r	c #dae2f3",
"5s	c #e2e7f4",
"5t	c #e9edf8",
"5u	c #7b7c7f",
"5v	c #8a8c97",
"5w	c #dce4f4",
"5x	c #e6ebf6",
"5y	c #b1bacc",
"5z	c #d1dbf0",
"60	c #dde4f3",
"61	c #a0a4af",
"62	c #7a7c82",
"63	c #86868b",
"64	c #979daa",
"65	c #d2ddf1",
"66	c #a8afbd",
"67	c #6b6c6f",
"68	c #737476",
"69	c #9497a4",
"6a	c #81848c",
"                    ++    ++                    ",
"                    ++    ++                    ",
"                      ++++                      ",
"                    0n++0o0r                    ",
"                  280o333l430r                  ",
"0s0v0y141b1i1o    290n343m0b0e    5b5g5k5p5y6468",
"0t0w||0f1c1j1p1s1x2a2p0p3n0d4h4v565c0j0h5q5z6569",
"0u080z150h0j0k1t1y2b0p353o0d4i4w575d5h5l5r0f086a",
"  0x10091d1k1q1u1z2c2q363p444j4x585e0k5m5s6066  ",
"  0eXX161e//..XXXX2d2r373q454kXXXX..//5n5t6167  ",
"      17XX..//07072e2s383r464l0707//..XX5u      ",
"      181f1l0606202f2t393s474m4y06065i5o5v      ",
"    11191g1m0l||212g2u3a3t484n4z||||0l085w62    ",
"    121a1h0a0a1v222h2v3b3u494o505909090a5x..    ",
"    130g0i1n1r1w232i2w3c3v4a4p515a5f5j0i0g63    ",
"                242j2x3d3w4b4q52                ",
"                252k2y3e3x0q4r53                ",
"                262l2z3f3y4c4s54                ",
"                272m303g3z4d4t55                ",
"                0b2n0q3h0d4e0c0b                ",
"                  2o313i404f4u                  ",
"                  0m323j414g0m                  ",
"                    0c3k420c                    ",
"                                                "};