/* XPM */
static char * xpm_black_tag[] = {
"24 24 130 2",
"  	c None",
"XX	c #171717",
"++	c #1b1b1b",
"..	c #191919",
"||	c #151515",
"//	c #929292",
"06	c #141414",
"07	c #1a1a1a",
"08	c #232323",
"09	c #343434",
"0a	c #3e3e3e",
"0b	c #1f1f1f",
"0c	c #161616",
"0d	c #101010",
"0e	c #0b0b0b",
"0f	c #212121",
"0g	c #444444",
"0h	c #181818",
"0i	c #0c0c0c",
"0j	c #3d3d3d",
"0k	c #080808",
"0l	c #202020",
"0m	c #353535",
"0n	c #2a2a2a",
"0o	c #272727",
"0p	c #515151",
"0q	c #242424",
"0r	c #282828",
"0s	c #484848",
"0t	c #414141",
"0u	c #2d2d2d",
"0v	c #474747",
"0w	c #363636",
"0x	c #131313",
"0y	c #454545",
"0z	c #2b2b2b",
"10	c #040404",
"11	c #333333",
"12	c #222222",
"13	c #1d1d1d",
"14	c #393939",
"15	c #efefef",
"16	c #262626",
"17	c #7b7b7b",
"18	c #0d0d0d",
"19	c #989898",
"1a	c #0a0a0a",
"1b	c #1e1e1e",
"1c	c #4a4a4a",
"1d	c #4d4d4d",
"1e	c #494949",
"1f	c #ababab",
"1g	c #3a3a3a",
"1h	c #2f2f2f",
"1i	c #292929",
"1j	c #5c5c5c",
"1k	c #030303",
"1l	c #2c2c2c",
"1m	c #070707",
"1n	c #252525",
"1o	c #949494",
"1p	c #323232",
"1q	c #020202",
"1r	c #3b3b3b",
"1s	c #9a9a9a",
"1t	c #808080",
"1u	c #2e2e2e",
"1v	c #9c9c9c",
"1w	c #8a8a8a",
"1x	c #777777",
"1y	c #6f6f6f",
"1z	c #636363",
"20	c #313131",
"21	c #b4b4b4",
"22	c #090909",
"23	c #c2c2c2",
"24	c #7a7a7a",
"25	c #0f0f0f",
"26	c #a7a7a7",
"27	c #505050",
"28	c #aaaaaa",
"29	c #a9a9a9",
"2a	c #525252",
"2b	c #545454",
"2c	c #303030",
"2d	c #afafaf",
"2e	c #4b4b4b",
"2f	c #919191",
"2g	c #adadad",
"2h	c #4f4f4f",
"2i	c #f5f5f5",
"2j	c #404040",
"2k	c #000000",
"2l	c #818181",
"2m	c #010101",
"2n	c #939393",
"2o	c #434343",
"2p	c #979797",
"2q	c #f3f3f3",
"2r	c #8d8d8d",
"2s	c #767676",
"2t	c #969696",
"2u	c #8f8f8f",
"2v	c #868686",
"2w	c #464646",
"2x	c #f2f2f2",
"2y	c #737373",
"2z	c #ffffff",
"30	c #565656",
"31	c #626262",
"32	c #6a6a6a",
"33	c #060606",
"34	c #d0d0d0",
"35	c #a0a0a0",
"36	c #9f9f9f",
"37	c #1c1c1c",
"38	c #888888",
"39	c #656565",
"3a	c #696969",
"3b	c #595959",
"3c	c #727272",
"3d	c #b1b1b1",
"3e	c #3c3c3c",
"3f	c #878787",
"3g	c #666666",
"3h	c #535353",
"3i	c #3f3f3f",
"3j	c #6e6e6e",
"3k	c #111111",
"3l	c #0e0e0e",
"                                  1g0m091120    ",
"                          2w0p1y35232321193f16  ",
"                        0a1v2z34213638241x241z13",
"                      0a1s2x1v191w1t171y3a3g3j..",
"                    0a2p151s191z1237..0t3b3h1j06",
"                  142n2q2t//1x0b      253c0v0v3l",
"                0w1o151o2u1w30        1a//0a0m18",
"              0m//15//2r2v17310x      0k3d141n  ",
"            112f2i2l172s1t2y32080i  1m0u//1rXX  ",
"          1h1j2g1d0s2o1r1p0u1u200s0t39//3e3i3k  ",
"        0u2b2d2h1c0y0j0w1u160f07XX..1i110g0o1a  ",
"      0n2a1f2e0y2j141p0z0q0l++..XX||||XXXX0e    ",
"    0r0p1f1e0g0a0m1h0r080b++0h0hXXXX07250e      ",
"  0o27290v0y0j091l160l1307..XXXX..++0d1a        ",
"0n0p281e0g0j091l1n0b++..XXXX0cXX++0d0e          ",
"0f261c0s0j090z080b++XX||0c0cXX++0d22            ",
"080q1d0g1g2c0r0f++0c||0606XX070d22              ",
"  1b0f0t0w0n08++0h||0x06||07180k                ",
"    ||0h091i0l++XX||0606..1833                  ",
"      0i0x0z1213..0cXX070e10                    ",
"        0k0i0q1b++..++0e10                      ",
"          100k120b0l0i1q                        ",
"            1k1m0o0d1q                          ",
"              1k2k2m                            "};