/* XPM */
static char * xpm_black_bookmark[] = {
"24 24 98 2",
"  	c None",
"XX	c #000000",
"++	c #1a1a1a",
"..	c #232323",
"||	c #1f1f1f",
"//	c #202020",
"06	c #252525",
"07	c #363636",
"08	c #282828",
"09	c #1e1e1e",
"0a	c #1b1b1b",
"0b	c #1c1c1c",
"0c	c #2e2e2e",
"0d	c #1d1d1d",
"0e	c #2b2b2b",
"0f	c #424242",
"0g	c #555555",
"0h	c #434343",
"0i	c #3f3f3f",
"0j	c #3c3c3c",
"0k	c #2a2a2a",
"0l	c #191919",
"0m	c #111111",
"0n	c #414141",
"0o	c #979797",
"0p	c #151515",
"0q	c #5c5c5c",
"0r	c #2f2f2f",
"0s	c #8a8a8a",
"0t	c #545454",
"0u	c #3b3b3b",
"0v	c #5a5a5a",
"0w	c #050505",
"0x	c #585858",
"0y	c #4b4b4b",
"0z	c #464646",
"10	c #303030",
"11	c #373737",
"12	c #2d2d2d",
"13	c #383838",
"14	c #5f5f5f",
"15	c #3a3a3a",
"16	c #535353",
"17	c #474747",
"18	c #323232",
"19	c #272727",
"1a	c #494949",
"1b	c #161616",
"1c	c #222222",
"1d	c #080808",
"1e	c #030303",
"1f	c #0f0f0f",
"1g	c #828282",
"1h	c #444444",
"1i	c #868686",
"1j	c #969696",
"1k	c #5b5b5b",
"1l	c #131313",
"1m	c #595959",
"1n	c #3d3d3d",
"1o	c #0c0c0c",
"1p	c #353535",
"1q	c #8d8d8d",
"1r	c #9a9a9a",
"1s	c #565656",
"1t	c #505050",
"1u	c #adadad",
"1v	c #636363",
"1w	c #959595",
"1x	c #686868",
"1y	c #626262",
"1z	c #8b8b8b",
"20	c #656565",
"21	c #393939",
"22	c #4f4f4f",
"23	c #333333",
"24	c #313131",
"25	c #808080",
"26	c #484848",
"27	c #2c2c2c",
"28	c #757575",
"29	c #292929",
"2a	c #6b6b6b",
"2b	c #343434",
"2c	c #242424",
"2d	c #262626",
"2e	c #646464",
"2f	c #141414",
"2g	c #0d0d0d",
"2h	c #212121",
"2i	c #0e0e0e",
"2j	c #4c4c4c",
"2k	c #101010",
"2l	c #040404",
"2m	c #020202",
"2n	c #070707",
"2o	c #3e3e3e",
"2p	c #171717",
"        1p0x11                                  ",
"      0r1q1u1w13                                ",
"    0e0s1r1v1x1z07                              ",
"  061i0o1s0h1y200s24                            ",
"0b1g1j0t    XX14142519                          ",
"0n0o0q0u    XX0q1616280d                        ",
"++1h1k0vXXXXXX0x22261a2a0m                      ",
"  0p0f1m0g0g0g0y170f0j0j2e2g                    ",
"    1l1n1t0y0z0h0f0u132b110v1d                  ",
"      1o070z0n0i1507180r0c0c0t1e                ",
"        0w100i1507100c0e0k080k2jXX              ",
"          0w1221180c0e080806..081aXX            ",
"            XX0623272919......//0617XX          ",
"              XX||120806..2h||||09..0hXX        ",
"                XX0d0k2c1c0909090d0a//0iXX      ",
"                  XX0l2d//||0b0a++++0a||0jXX    ",
"                    XX1b..090b++0l0l0a0a//2oXX  ",
"                      XX2f1c0d++++2l1e1d0m2p07XX",
"                        XX0m//++++2m    XX  XXXX",
"                          XX2i||0b2n            ",
"                            XX2k//1f            ",
"                              XX1f1b            ",
"                                XX0pXX          ",
"                                  XXXX          "};