/* XPM */
static char * xpm_blog[] = {
"24 24 305 2",
"XX	c #ffffff",
"++	c #ffd991",
"..	c #fc8b21",
"||	c #bd4300",
"//	c #ffda93",
"05	c #fd750a",
"06	c #ffdb93",
"07	c #fc7c0e",
"08	c #ffd78c",
"09	c #fd7d0e",
"0a	c #ffce80",
"  	c None",
"0c	c #ffcb7b",
"0d	c #ffd183",
"0e	c #fd760a",
"0f	c #ffd488",
"0g	c #ffd284",
"0h	c #ffcf81",
"0i	c #ff9725",
"0j	c #fe760a",
"0k	c #fdbf6b",
"0l	c #ffa130",
"0m	c #ffa230",
"0n	c #fb7e11",
"0o	c #f86c05",
"0p	c #f7801a",
"0q	c #f5831f",
"0r	c #f2821f",
"0s	c #f07d1d",
"0t	c #ec7b1d",
"0u	c #e9761d",
"0v	c #e7731b",
"0w	c #e5711a",
"0x	c #e26e19",
"0y	c #df6b17",
"0z	c #dc6411",
"10	c #da5f0c",
"11	c #d85b0b",
"12	c #d35708",
"13	c #d05306",
"14	c #cd5005",
"15	c #ca4d04",
"16	c #c64a02",
"17	c #be4300",
"18	c #a63700",
"19	c #fb6f05",
"1a	c #fdb455",
"1b	c #ffd88f",
"1c	c #ffd58a",
"1d	c #e05d05",
"1e	c #a33500",
"1f	c #fc831a",
"1g	c #ffa02f",
"1h	c #f9760d",
"1i	c #b63f00",
"1j	c #f9caa1",
"1k	c #efcbb3",
"1l	c #fe770a",
"1m	c #feb46b",
"1n	c #fcf7f5",
"1o	c #e46c10",
"1p	c #fbf6f4",
"1q	c #ff9b2a",
"1r	c #ca4c02",
"1s	c #fdf7f4",
"1t	c #ffc36d",
"1u	c #fdf8f5",
"1v	c #dc6009",
"1w	c #ffd992",
"1x	c #cb6d32",
"1y	c #ec7410",
"1z	c #e2a67a",
"20	c #ffca7a",
"21	c #ffc876",
"22	c #d45809",
"23	c #ffc877",
"24	c #ffc572",
"25	c #ffc26d",
"26	c #ffb046",
"27	c #ffa12f",
"28	c #ff9a29",
"29	c #f5841a",
"2a	c #e0640d",
"2b	c #dd6109",
"2c	c #ea6c0c",
"2d	c #fd8111",
"2e	c #ffd58b",
"2f	c #ffd589",
"2g	c #f9b764",
"2h	c #f9b55f",
"2i	c #ffbf68",
"2j	c #ffa432",
"2k	c #ff9a2a",
"2l	c #e0680f",
"2m	c #ca5817",
"2n	c #e4b38c",
"2o	c #e7bea0",
"2p	c #cd7940",
"2q	c #bf4300",
"2r	c #ffc36e",
"2s	c #faa24f",
"2t	c #f9a75d",
"2u	c #f89b44",
"2v	c #ee9343",
"2w	c #efae76",
"2x	c #efb784",
"2y	c #e3741f",
"2z	c #fba12f",
"30	c #ee811d",
"31	c #d06624",
"32	c #fcf8f5",
"33	c #dfae8a",
"34	c #cd4d01",
"35	c #ffd78f",
"36	c #fd9b43",
"37	c #fffbf9",
"38	c #fab35d",
"39	c #f0a769",
"3a	c #e79758",
"3b	c #f0831e",
"3c	c #db610c",
"3d	c #b64b13",
"3e	c #fc8b22",
"3f	c #ffcb7c",
"3g	c #fce6d4",
"3h	c #f9b058",
"3i	c #f5c8a1",
"3j	c #ebae7b",
"3k	c #eb7a18",
"3l	c #d85b08",
"3m	c #c36931",
"3n	c #eb6406",
"3o	c #bd4400",
"3p	c #fce5d3",
"3q	c #f6a24b",
"3r	c #f1b176",
"3s	c #f3cfb3",
"3t	c #de660f",
"3u	c #ebc1a0",
"3v	c #b13f05",
"3w	c #fd9c43",
"3x	c #fdf3eb",
"3y	c #f59e47",
"3z	c #ffca7b",
"40	c #ec974e",
"41	c #fcf7f4",
"42	c #d55001",
"43	c #f2851f",
"44	c #cc5a18",
"45	c #f8ede5",
"46	c #d0834f",
"47	c #d35002",
"48	c #fe9f41",
"49	c #fffbf7",
"4a	c #f19342",
"4b	c #ffd082",
"4c	c #ee9342",
"4d	c #fbece0",
"4e	c #e59356",
"4f	c #e97415",
"4g	c #eb7616",
"4h	c #c94e0c",
"4i	c #db9868",
"4j	c #dea47a",
"4k	c #be4e14",
"4l	c #feb056",
"4m	c #fde1c7",
"4n	c #f5b376",
"4o	c #fcb966",
"4p	c #f8b460",
"4q	c #f1b784",
"4r	c #d0540a",
"4s	c #ec7b1a",
"4t	c #fa8d1e",
"4u	c #eb7212",
"4v	c #e66a0d",
"4w	c #f17510",
"4x	c #fc8011",
"4y	c #fdc085",
"4z	c #fadec7",
"50	c #f49f4a",
"51	c #ffcc7c",
"52	c #e8802d",
"53	c #f8e6d5",
"54	c #f7e4d6",
"55	c #d05c17",
"56	c #fb8d1d",
"57	c #ff8d1c",
"58	c #fd8817",
"59	c #fd8314",
"5a	c #ffd68d",
"5b	c #fa9a43",
"5c	c #f0994c",
"5d	c #fcbc69",
"5e	c #f7a94f",
"5f	c #dd6818",
"5g	c #fcf6f4",
"5h	c #e4a87a",
"5i	c #c54a09",
"5j	c #ce5004",
"5k	c #de6209",
"5l	c #f97c10",
"5m	c #fcad56",
"5n	c #fcdabd",
"5o	c #f9dec8",
"5p	c #ed9241",
"5q	c #ffc46b",
"5r	c #ef8621",
"5s	c #dc7126",
"5t	c #efd5c2",
"5u	c #eed5c3",
"5v	c #d69466",
"5w	c #be4100",
"5x	c #ffd385",
"5y	c #f8a04e",
"5z	c #fefbf6",
"60	c #f0ae76",
"61	c #f1973e",
"62	c #ffb140",
"63	c #ee821e",
"64	c #d76318",
"65	c #f3d8c5",
"66	c #c05c22",
"67	c #ee6d09",
"68	c #f9ac55",
"69	c #fdf9f6",
"6a	c #ea9a56",
"6b	c #f18520",
"6c	c #ffab3a",
"6d	c #f69126",
"6e	c #d35504",
"6f	c #d77633",
"6g	c #b94e14",
"6h	c #f4710b",
"6i	c #ffd486",
"6j	c #f49139",
"6k	c #fbe8d5",
"6l	c #fefaf7",
"6m	c #e17227",
"6n	c #e66f13",
"6o	c #fca230",
"6p	c #eb7c19",
"6q	c #d85c09",
"6r	c #c44400",
"6s	c #ce6f33",
"6t	c #bd4f14",
"6u	c #d95a06",
"6v	c #ffc977",
"6w	c #f09141",
"6x	c #fceee1",
"6y	c #e8a269",
"6z	c #d85604",
"70	c #ed811c",
"71	c #ff9220",
"72	c #fa8619",
"73	c #f67a11",
"74	c #ffd489",
"75	c #fab965",
"76	c #ed9042",
"77	c #fbede1",
"78	c #f4d8c4",
"79	c #dd8445",
"7a	c #cf4e02",
"7b	c #db610d",
"7c	c #e97212",
"7d	c #ee7914",
"7e	c #fd8414",
"7f	c #f9b662",
"7g	c #eb9145",
"7h	c #f7ddc8",
"7i	c #eac19f",
"7j	c #ce6f32",
"7k	c #b73c00",
"7l	c #ef710d",
"7m	c #fec16b",
"7n	c #ea9040",
"7o	c #efb482",
"7p	c #fdf9f7",
"7q	c #e0b08c",
"7r	c #f2a251",
"7s	c #de7225",
"7t	c #e29256",
"7u	c #f6e4d5",
"7v	c #eed5c4",
"7w	c #c44700",
"7x	c #ffc775",
"7y	c #ffc46f",
"7z	c #fdb95f",
"80	c #ec7d1b",
"81	c #d75806",
"82	c #d15d18",
"83	c #da8d55",
"84	c #e8bea0",
"85	c #e6c0a0",
"86	c #c25b21",
"87	c #e76909",
"88	c #ffc571",
"89	c #ffb147",
"8a	c #fc9728",
"8b	c #f2821b",
"8c	c #e2690f",
"8d	c #df640d",
"8e	c #ec720e",
"8f	c #fd8011",
"8g	c #d55909",
"  191f....3e..............................1f19  ",
"0o1a06//353f06060606//////////////////////061a0o",
"0p06++2r361m1m3w484l1t5a1w++++++++++++++++++060p",
"0q//2e2s37XXXXXX494m4y5b5m5x1w++++++++++++++//0q",
"0r1b0c2tXXXXXXXXXXXXXXXX5n5y686i0808080808081b0r",
"0s1c2f2u1j3g3p3xXXXXXXXXXX5z1j6j6v740f0f0f0f1c0s",
"0t0g0d0a383h3q3y4a4n4zXXXXXXXX6k6w750g0d0d0d0g0t",
"0u0h0a0h0k0k0k3z4b4o505c5oXXXXXX6x767f0a0a0a0h0u",
"0v0c0c2v393i3r404c4p515d5p6069XXXX777g7m20200c0v",
"0w232g2wXXXXXXXX4d4q525e5q616a6lXXXX7h7n217x210w",
"0x242h2xXXXXXXXXXXXX535f5r626b6m1sXXXX7o7r7y880x",
"0y252i2y3a3j3s41XXXXXX1u5s636c6n6yXXXX7p7s7z1t0y",
"0z262j2z3b3k1o424e1sXXXX1u646d6o6z78XXXX7t80890z",
"10271g1g0l0l0l0m4f4r54XXXX656e0m7079XXXX7u810m10",
"11282k303c3l3t431q4s555gXXXX6f6p1q7a1pXXXX828a11",
"220i2l311k1n3u444g0i1o5hXXXX1k6q0i7b7iXXXX838b8g",
"12292m32XXXXXX454h4t565iXXXXXX6r717c1zXXXX1z8c12",
"132a2nXXXXXXXXXX4i4u575j5tXXXX6s727d7jXXXX848d13",
"142b2oXXXXXXXXXX4j4v581v5uXXXX1x1y1y1xXXXX851v14",
"152c2pXXXXXXXXXX4k4w595k5vXX1n6t737e7k7q7v868e15",
"162d2q33XXXX1p461r4x0n5l5w666g6u0n0n7l1r7w878f16",
"17091h343d3m3v471h07070709676h070707070909070917",
"181d0j0j1l3n1l0j0e050505050e0e0505050505050e1d18",
"  1e1i||||3o||||||||||||||||||||||||||||||1i1e  "};