/* XPM */
static char * xpm_blue_tag[] = {
"24 24 268 2",
"  	c None",
"XX	c #0083e1",
"++	c #003393",
"..	c #038ae7",
"||	c #003b9f",
"//	c #0890e8",
"06	c #149bec",
"07	c #1198eb",
"08	c #0e94ea",
"09	c #23a8f2",
"0a	c #199fee",
"0b	c #27abf2",
"0c	c #32b4f5",
"0d	c #2eb2f4",
"0e	c #003493",
"0f	c #0086e5",
"0g	c #00389f",
"0h	c #1096eb",
"0i	c #0c94ea",
"0j	c #058ee7",
"0k	c #199eee",
"0l	c #1ca0ef",
"0m	c #0a90e8",
"0n	c #078ee9",
"0o	c #20a8f1",
"0p	c #1d9fef",
"0q	c #2db2f4",
"0r	c #2baef2",
"0s	c #37baf6",
"0t	c #2bb0f2",
"0u	c #077cdf",
"0v	c #00369b",
"0w	c #002c95",
"0x	c #0036a0",
"0y	c #0e6bcb",
"0z	c #3acbfc",
"10	c #00369f",
"11	c #0039a7",
"12	c #116fce",
"13	c #4acef9",
"14	c #0081e5",
"15	c #0082df",
"16	c #0039a0",
"17	c #003dae",
"18	c #1673ce",
"19	c #56d3fb",
"1a	c #0088e6",
"1b	c #0085e5",
"1c	c #0044b3",
"1d	c #1b78d2",
"1e	c #62d6fb",
"1f	c #038fe8",
"1g	c #048ce6",
"1h	c #0083e2",
"1i	c #0049b7",
"1j	c #1d7fd7",
"1k	c #6fd7fa",
"1l	c #0c96eb",
"1m	c #0b93ea",
"1n	c #058de7",
"1o	c #0152c1",
"1p	c #238ad9",
"1q	c #79dbfc",
"1r	c #149bed",
"1s	c #119aec",
"1t	c #0087e7",
"1u	c #0084e3",
"1v	c #0056c4",
"1w	c #5eb7ea",
"1x	c #7fd9fc",
"1y	c #18a3f0",
"1z	c #1b9fef",
"20	c #0088e7",
"21	c #0085e3",
"22	c #003494",
"23	c #015fca",
"24	c #5eb8eb",
"25	c #c4f0ff",
"26	c #1ca8f1",
"27	c #20a6f2",
"28	c #20a4f0",
"29	c #0187e7",
"2a	c #0087e4",
"2b	c #0088e8",
"2c	c #003090",
"2d	c #0163d0",
"2e	c #61bcec",
"2f	c #c3edff",
"2g	c #59cbf8",
"2h	c #24abf1",
"2i	c #26acf3",
"2j	c #1fa4f0",
"2k	c #1c9fef",
"2l	c #038be8",
"2m	c #018fed",
"2n	c #004db7",
"2o	c #003392",
"2p	c #046cd2",
"2q	c #68c0ee",
"2r	c #c5efff",
"2s	c #74d3fa",
"2t	c #60caf8",
"2u	c #28b0f4",
"2v	c #2aaef2",
"2w	c #149ced",
"2x	c #0a90ea",
"2y	c #0897ef",
"2z	c #0052c0",
"30	c #00349a",
"31	c #0674d8",
"32	c #6bc4f0",
"33	c #caeeff",
"34	c #7ad6fc",
"35	c #76d2fb",
"36	c #6cd0fb",
"37	c #139ced",
"38	c #1197ed",
"39	c #10a1f0",
"3a	c #0156c6",
"3b	c #0039a1",
"3c	c #0a78dc",
"3d	c #6fc6f2",
"3e	c #cdf1ff",
"3f	c #81d6fc",
"3g	c #7fd7fc",
"3h	c #7dd6fb",
"3i	c #80d5fc",
"3j	c #31b7f5",
"3k	c #23a7f2",
"3l	c #20a7f1",
"3m	c #1da4ef",
"3n	c #1aa5f3",
"3o	c #0560c9",
"3p	c #003ca8",
"3q	c #0f85e3",
"3r	c #74cef3",
"3s	c #d1f2ff",
"3t	c #88dcfd",
"3u	c #87dafd",
"3v	c #8ad9fd",
"3w	c #83d9fd",
"3x	c #84d9fc",
"3y	c #38bbf7",
"3z	c #27adf2",
"40	c #23abf2",
"41	c #22a7f2",
"42	c #21acf4",
"43	c #0a62cd",
"44	c #0140af",
"45	c #269dea",
"46	c #dff7ff",
"47	c #8fdfff",
"48	c #92e1ff",
"49	c #72cff6",
"4a	c #53bbf0",
"4b	c #6fc9f4",
"4c	c #8adcfd",
"4d	c #4bc4fa",
"4e	c #37b8f7",
"4f	c #27aef3",
"4g	c #26b4f7",
"4h	c #0c6cd2",
"4i	c #0446b4",
"4j	c #4cbaef",
"4k	c #bfeeff",
"4l	c #98e3ff",
"4m	c #58c1f3",
"4n	c #0a76db",
"4o	c #046bd4",
"4p	c #359de5",
"4q	c #62cff9",
"4r	c #3bbcf8",
"4s	c #3bb9f7",
"4t	c #37b9f6",
"4u	c #34b4f5",
"4v	c #2eb3f4",
"4w	c #2fb9f9",
"4x	c #0e72d5",
"4y	c #054cb7",
"4z	c #87d7f9",
"50	c #ace8ff",
"51	c #8fe0fe",
"52	c #0e83e0",
"53	c #036ad1",
"54	c #82d1f6",
"55	c #3cc0f9",
"56	c #40bff8",
"57	c #3bbcf7",
"58	c #38baf7",
"59	c #39bffa",
"5a	c #1179d8",
"5b	c #0451bf",
"5c	c #1093eb",
"5d	c #b3e7fd",
"5e	c #a5e6ff",
"5f	c #8ddffe",
"5g	c #0c80e0",
"5h	c #7fcff3",
"5i	c #52cafc",
"5j	c #40c0f8",
"5k	c #41c0f9",
"5l	c #41c4fb",
"5m	c #1580dc",
"5n	c #0857c4",
"5o	c #1297ee",
"5p	c #c8f0ff",
"5q	c #9de4ff",
"5r	c #9de6ff",
"5s	c #128de4",
"5t	c #0271da",
"5u	c #a4dff9",
"5v	c #76d4fd",
"5w	c #44c0f9",
"5x	c #4cc8fb",
"5y	c #1888df",
"5z	c #095fc9",
"60	c #1da3f0",
"61	c #def7ff",
"62	c #9ee4ff",
"63	c #a5e7ff",
"64	c #6acef9",
"65	c #138ee4",
"66	c #6ecaf3",
"67	c #d0f2ff",
"68	c #84ddff",
"69	c #4bcbfc",
"6a	c #1b8ce3",
"6b	c #0a66cd",
"6c	c #1fa7f1",
"6d	c #dbf6ff",
"6e	c #9fe5ff",
"6f	c #a2e5ff",
"6g	c #a3e7ff",
"6h	c #b5ebff",
"6i	c #bdecfe",
"6j	c #c9f0ff",
"6k	c #cff1ff",
"6l	c #96e1ff",
"6m	c #99e5ff",
"6n	c #34a5ea",
"6o	c #0a6ed2",
"6p	c #1ca5f2",
"6q	c #9ee4fe",
"6r	c #aee8ff",
"6s	c #a1e6ff",
"6t	c #a2e6ff",
"6u	c #a0e5ff",
"6v	c #a0e4ff",
"6w	c #9be4ff",
"6x	c #9ce5ff",
"6y	c #9be5ff",
"6z	c #5cc2f1",
"70	c #0c73d8",
"71	c #1fa8f0",
"72	c #8ce1ff",
"73	c #b7ecff",
"74	c #afedff",
"75	c #9ae4fe",
"76	c #87dcfc",
"77	c #67cdf8",
"78	c #3eb1ee",
"79	c #2599e7",
"7a	c #0c77dc",
"7b	c #1da2f2",
"7c	c #22a6f0",
"7d	c #21a0ef",
"7e	c #1396eb",
"7f	c #0f8ee9",
"                                  5c5o606c6p    ",
"                          3q454j4z5d5p616d6q71  ",
"                        3c3r464k505e5q626e6r727b",
"                      313d3s474l515f5r636f6s737c",
"                    2p323e3t484m525g5s646g6t747d",
"                  2d2q333f3u494n      656h6u757e",
"                232e2r343g3v4a        0u6i6v767f",
"              1v242f2s353h3w4b4o      0u6j6w77  ",
"            1o1w252g2t363i3x4c4p53  5t666k6x78  ",
"          1i1p1x262h2u0q3j3y4d4q545h5u676l6y79  ",
"        1c1j1q1y272i2v0q0c0s4e4r555i5v686m6z7a  ",
"      171d1k1r1z28090b0r0d0c0s4s565j5w696n70    ",
"    11181e1l1s0k0l2j090b0r0d0c4t575k5x6a6o      ",
"  0x12191f1m0h060k2k0o090b0t0d4u585l5y6b        ",
"0v0y131a1g//0i0h060a0p0o3k3z0t4v595m5z          ",
"0w0z141b..1n//0i07060a0p3l404f4w5a5n            ",
"++1015XX0f..0j//08072w0a3m414g4x5b              ",
"  ++16XXXX0f..0j0m0807370l424h4y                ",
"    ++||1hXX1t..0n0m08383n434i                  ",
"      0e0gXX1u20..0n2x393o44                    ",
"        0e0gXX21292l2y3a3p                      ",
"          ++||XX2a2m2z3b                        ",
"            ++||2b2n30                          ",
"              222c2o                            "};