/* XPM */
static char * xpm_blue_bookmark[] = {
"24 24 211 2",
"  	c None",
"XX	c #98deff",
"++	c #2fa0ed",
"..	c #31a2ed",
"||	c #69c7ff",
"//	c #a2ecff",
"06	c #76b6dc",
"07	c #7fd3ff",
"08	c #85e0ff",
"09	c #7edbff",
"0a	c #72ceff",
"0b	c #49adf0",
"0c	c #2397e1",
"0d	c #5dbaf8",
"0e	c #339eea",
"0f	c #a7ecff",
"0g	c #2e97e2",
"0h	c #82dfff",
"0i	c #88e0ff",
"0j	c #67c5ff",
"0k	c #2a91dd",
"0l	c #a3efff",
"0m	c #6a94b0",
"0n	c #61bffa",
"0o	c #268ad7",
"0p	c #413b3d",
"0q	c #82e2ff",
"0r	c #80d9ff",
"0s	c #5db9f9",
"0t	c #2285d2",
"0u	c #5bb9f9",
"0v	c #b2f2ff",
"0w	c #80deff",
"0x	c #6a94af",
"0y	c #2c2422",
"0z	c #80e2ff",
"10	c #79d1ff",
"11	c #78d2ff",
"12	c #57b4f2",
"13	c #1f7fcc",
"14	c #2fa2ed",
"15	c #bcebff",
"16	c #85deff",
"17	c #413b3e",
"18	c #2c2221",
"19	c #456277",
"1a	c #75cfff",
"1b	c #70cdff",
"1c	c #70ccff",
"1d	c #50aeed",
"1e	c #1c7ac7",
"1f	c #2b9beb",
"1g	c #bbe9ff",
"1h	c #84e4ff",
"1i	c #82e3ff",
"1j	c #78d1ff",
"1k	c #71ccff",
"1l	c #70c9ff",
"1m	c #69c5ff",
"1n	c #4ba6ea",
"1o	c #1774c1",
"1p	c #2796e6",
"1q	c #bae8ff",
"1r	c #80daff",
"1s	c #7ad5ff",
"1t	c #77d0ff",
"1u	c #6fc9ff",
"1v	c #6ac6ff",
"1w	c #66c3fd",
"1x	c #61c0fd",
"1y	c #60befa",
"1z	c #44a1e6",
"20	c #146ebe",
"21	c #238fdd",
"22	c #b5e5ff",
"23	c #79d3ff",
"24	c #73cfff",
"25	c #70caff",
"26	c #6bc8ff",
"27	c #67c4fe",
"28	c #64bffc",
"29	c #5ebbf8",
"2a	c #59baf8",
"2b	c #58b8f8",
"2c	c #3a9be2",
"2d	c #1169b8",
"2e	c #1f88d8",
"2f	c #b1e1fe",
"2g	c #6bc7ff",
"2h	c #69c5fe",
"2i	c #65c0fd",
"2j	c #5fbdfb",
"2k	c #5bb9f7",
"2l	c #55b5f6",
"2m	c #4fb4f3",
"2n	c #4db2f2",
"2o	c #3395dc",
"2p	c #0e63b2",
"2q	c #1b83d3",
"2r	c #abdefc",
"2s	c #6cc8ff",
"2t	c #64c3fd",
"2u	c #60befc",
"2v	c #5cbaf8",
"2w	c #56b7f6",
"2x	c #51b3f5",
"2y	c #4baef2",
"2z	c #45adef",
"30	c #42acef",
"31	c #2a8ed8",
"32	c #095fae",
"33	c #197ccc",
"34	c #a8dafa",
"35	c #62bfff",
"36	c #5db9f7",
"37	c #58b7f7",
"38	c #53b4f5",
"39	c #4db0f2",
"3a	c #48acef",
"3b	c #40a9ed",
"3c	c #3aa3ec",
"3d	c #35a5eb",
"3e	c #2388d3",
"3f	c #0958a9",
"3g	c #1477c9",
"3h	c #a3d7f8",
"3i	c #5bbbfa",
"3j	c #53b3f5",
"3k	c #4eb2f3",
"3l	c #43a9ed",
"3m	c #3ca4eb",
"3n	c #37a1e8",
"3o	c #2f9ee5",
"3p	c #289be5",
"3q	c #1682d0",
"3r	c #0554a4",
"3s	c #0f70c3",
"3t	c #9fd3f6",
"3u	c #4fb4f7",
"3v	c #44aaef",
"3w	c #3ea7ec",
"3x	c #38a2ea",
"3y	c #319ee6",
"3z	c #2999e4",
"40	c #1894e2",
"41	c #0a7cca",
"42	c #00509f",
"43	c #0e6bbe",
"44	c #98cff2",
"45	c #46adf2",
"46	c #3da8ec",
"47	c #39a3ec",
"48	c #329fe6",
"49	c #2c9be4",
"4a	c #1b93df",
"4b	c #118edc",
"4c	c #078edd",
"4d	c #0076c6",
"4e	c #004a9c",
"4f	c #0966b7",
"4g	c #90cbf0",
"4h	c #3ba7ed",
"4i	c #34a0e8",
"4j	c #2e9de5",
"4k	c #2698e2",
"4l	c #1d95e1",
"4m	c #1292de",
"4n	c #0a8fdc",
"4o	c #0089d9",
"4p	c #0087d9",
"4q	c #006ec1",
"4r	c #004698",
"4s	c #055fb0",
"4t	c #8cc8ef",
"4u	c #2fa0e7",
"4v	c #2797e2",
"4w	c #1e96e2",
"4x	c #1593de",
"4y	c #076bba",
"4z	c #0067b7",
"50	c #006bbd",
"51	c #0073c6",
"52	c #0076ca",
"53	c #0072c4",
"54	c #004295",
"55	c #015aac",
"56	c #83c3eb",
"57	c #2097e3",
"58	c #1593df",
"59	c #0d8fdd",
"5a	c #0367b7",
"5b	c #004697",
"5c	c #004396",
"5d	c #0055a7",
"5e	c #78bce8",
"5f	c #1091e0",
"5g	c #068ddc",
"5h	c #006bbe",
"5i	c #004fa3",
"5j	c #69b4e3",
"5k	c #008cdc",
"5l	c #0075c6",
"5m	c #004c9e",
"5n	c #004ba0",
"5o	c #5aaee0",
"5p	c #007bcc",
"5q	c #00499c",
"5r	c #3396d6",
"5s	c #004799",
"5t	c #00479a",
"5u	c #00489a",
"        ..0u14                                  ",
"      ++XX0v151f                                ",
"    ++XX//0w161g1p                              ",
"  ++XX0l060x07081q21                            ",
"..XX//06    171h1r222e                          ",
"0d0f0h0m    181i1s232f2q                        ",
"0e||0i070p0y19091t240a2r33                      ",
"  0g0j080q0z091j0a252g2s343g                    ",
"    0k0n0r101a1k1u262h2t353h3s                  ",
"      0o0s111b1l1v272i2u363i3t43                ",
"        0t121c1m1w282j2v373j3u444f              ",
"          131d||1x292k2w383k0b454g4s            ",
"            1e1n1y2a2l2x390b3v464h4t55          ",
"              1o1z2b2m2y3a3l3w474i4u565d        ",
"                202c2n2z3b3m3x484j4v575e5i      ",
"                  2d2o303c3n3y494k4w585f5j5n    ",
"                    2p313d3o3z0c4l4x595g5k5o5q  ",
"                      323e3p0c4a4m4y5a5h5l5p5r5t",
"                        3f3q404b4n4z    5m  5s5u",
"                          3r414c4o50            ",
"                            424d4p51            ",
"                              4e4q52            ",
"                                4r535b          ",
"                                  545c          "};