/* XPM */
static char * xpm_blue_pin[] = {
"24 24 172 2",
"  	c None",
"XX	c #0463d8",
"++	c #d2e8fd",
"..	c #52bff9",
"||	c #0462d8",
"//	c #42b5f6",
"06	c #0472e4",
"07	c #1968db",
"08	c #1793f0",
"09	c #b9e6fe",
"0a	c #7ed0fb",
"0b	c #55bffa",
"0c	c #7bd6ff",
"0d	c #2b9ef1",
"0e	c #1484ec",
"0f	c #0c41c0",
"0g	c #1048c6",
"0h	c #1456cf",
"0i	c #165fd6",
"0j	c #d2d4d5",
"0k	c #bbbcc0",
"0l	c #cbcccf",
"0m	c #c2c4c8",
"0n	c #c8c8cc",
"0o	c #64666b",
"0p	c #c8cacc",
"0q	c #bfc0c4",
"0r	c #616368",
"0s	c #cbcdcf",
"0t	c #b5b6ba",
"0u	c #5f6064",
"0v	c #5fc7fc",
"0w	c #63cbfb",
"0x	c #55bdfa",
"0y	c #43b5f7",
"0z	c #d1d3d6",
"10	c #a8aaac",
"11	c #606266",
"12	c #4ebcf9",
"13	c #6ccefd",
"14	c #7bd5fe",
"15	c #5dc6fd",
"16	c #45b5f8",
"17	c #2ea1f4",
"18	c #1492f4",
"19	c #d8d8d8",
"1a	c #9b9ea2",
"1b	c #63666b",
"1c	c #47b9f9",
"1d	c #5bc6fb",
"1e	c #61c9fd",
"1f	c #54c0f9",
"1g	c #3fb3f6",
"1h	c #2ca3f2",
"1i	c #168ef1",
"1j	c #949396",
"1k	c #696261",
"1l	c #37acf6",
"1m	c #41b2f7",
"1n	c #47b6f8",
"1o	c #3baff5",
"1p	c #32a8f5",
"1q	c #249bf1",
"1r	c #128bee",
"1s	c #017bec",
"1t	c #066cdb",
"1u	c #1e94f1",
"1v	c #269ef2",
"1w	c #63ccfd",
"1x	c #68cefd",
"1y	c #66c6f8",
"1z	c #1c93f1",
"20	c #1790f0",
"21	c #0a82ec",
"22	c #0273e8",
"23	c #0367df",
"24	c #6dd4fd",
"25	c #7fd8ff",
"26	c #bce7fe",
"27	c #d7ecfd",
"28	c #6eccf9",
"29	c #087eec",
"2a	c #0277e9",
"2b	c #046de1",
"2c	c #0463d9",
"2d	c #8bdeff",
"2e	c #7dd8ff",
"2f	c #2ea7f5",
"2g	c #0169e2",
"2h	c #0466da",
"2i	c #0464d8",
"2j	c #42b5f5",
"2k	c #2e9ff2",
"2l	c #066bdd",
"2m	c #b9e4fe",
"2n	c #7ed0fc",
"2o	c #2b9cf1",
"2p	c #1387eb",
"2q	c #046ddf",
"2r	c #8eddff",
"2s	c #89dcff",
"2t	c #b3e4ff",
"2u	c #a7e1ff",
"2v	c #b6e4ff",
"2w	c #7fcffc",
"2x	c #2b9ff1",
"2y	c #1484eb",
"2z	c #0367e0",
"30	c #145ace",
"31	c #175dce",
"32	c #4391e1",
"33	c #dceffb",
"34	c #d7ecff",
"35	c #b8e0fc",
"36	c #81d0f9",
"37	c #51bff9",
"38	c #0371e4",
"39	c #0469d9",
"3a	c #0638b5",
"3b	c #0432b2",
"3c	c #0437b8",
"3d	c #053abb",
"3e	c #0943c5",
"3f	c #7fc3ef",
"3g	c #7dd2fd",
"3h	c #54c1fa",
"3i	c #3fb0f6",
"3j	c #036de4",
"3k	c #0736b5",
"3l	c #0a3dba",
"3m	c #0f48c5",
"3n	c #104bca",
"3o	c #0a49ca",
"3p	c #7ecaf5",
"3q	c #33a9f4",
"3r	c #1383eb",
"3s	c #0471e4",
"3t	c #093cb9",
"3u	c #0d42c1",
"3v	c #114dcb",
"3w	c #155dd4",
"3x	c #1563da",
"3y	c #74ccf9",
"3z	c #36acf7",
"40	c #026fe2",
"41	c #124ecb",
"42	c #1869df",
"43	c #4daff1",
"44	c #279df4",
"45	c #114dca",
"46	c #1457d0",
"47	c #1c6ee0",
"48	c #1e78e3",
"49	c #3096ec",
"4a	c #2aa1f1",
"4b	c #185fd4",
"4c	c #165dd6",
"4d	c #1c73e0",
"4e	c #1f79e4",
"4f	c #2183e8",
"4g	c #309df0",
"4h	c #1d6fde",
"4i	c #1c71e0",
"4j	c #1f7de4",
"4k	c #2284e8",
"4l	c #248cec",
"4m	c #31a2f2",
"4n	c #047cea",
"4o	c #268bea",
"4p	c #248ded",
"4q	c #2f9ef1",
"4r	c #1d97f1",
"                                3a3k3t0f        ",
"                              303b3l3u0g454b    ",
"                            2r313c0f0g41464c4h  ",
"                            2s323d3m3v0h0i074i  ",
"                            2t333e3n0h0i074d4j4o",
"                            2u343f3o3w07474e4k4p",
"                          0c2v353g3p3x42484f4l4q",
"                  1u  2d0c2m++363h0b3y43494g4m4r",
"            121c1l1v242e09++2w373i3q3z444a084n  ",
"          0v131d1m1w2509++2n..//0d3r40          ",
"          0w141e1n1x26++0a..//0d0e3s            ",
"          0x151f1o1y270a..//2x0e06              ",
"          0y161g1p1z280b2j2o2y063j              ",
"            171h1q20292f2k2p0638XX              ",
"            181i1r212a2g2l2q2z39XX              ",
"              081s222b2h||||||XXXX              ",
"            191j1t232c2iXXXXXXXXXX              ",
"          0z1a1k    XXXXXXXXXXXX                ",
"        0s101b          XXXXXX                  ",
"      0p0t11                                    ",
"    0m0q0u                                      ",
"  0k0n0r                                        ",
"  0l0o                                          ",
"0j                                              "};