/* XPM */
static char * xpm_bomb[] = {
"24 24 227 2",
"  	c None",
"XX	c #38393b",
"++	c #2e2e2f",
"..	c #343436",
"||	c #323234",
"//	c #3f3f41",
"06	c #2f2f31",
"07	c #3c3c3e",
"08	c #373739",
"09	c #4c4d4f",
"0a	c #39393b",
"0b	c #353537",
"0c	c #232223",
"0d	c #545557",
"0e	c #333335",
"0f	c #464648",
"0g	c #404043",
"0h	c #2e2d2e",
"0i	c #515355",
"0j	c #3a3a3c",
"0k	c #6f7074",
"0l	c #313133",
"0m	c #3d3d3f",
"0n	c #38383a",
"0o	c #3f4043",
"0p	c #4d4e50",
"0q	c #2d2d2e",
"0r	c #2e2e30",
"0s	c #5d5e60",
"0t	c #37383a",
"0u	c #313234",
"0v	c #414144",
"0w	c #5b5b5f",
"0x	c #343536",
"0y	c #76777b",
"0z	c #363638",
"10	c #454547",
"11	c #3e3e40",
"12	c #909193",
"13	c #57595b",
"14	c #505154",
"15	c #797a7e",
"16	c #252425",
"17	c #8f9296",
"18	c #4e4f51",
"19	c #5a5b5d",
"1a	c #47484a",
"1b	c #393a3c",
"1c	c #48484a",
"1d	c #272627",
"1e	c #919295",
"1f	c #2d2d30",
"1g	c #434345",
"1h	c #303032",
"1i	c #414345",
"1j	c #2c2b2d",
"1k	c #f8f571",
"1l	c #f7f231",
"1m	c #f5f222",
"1n	c #f7f334",
"1o	c #f8f47d",
"1p	c #f9f431",
"1q	c #f7e30b",
"1r	c #f8ce0c",
"1s	c #f7e50b",
"1t	c #f7f341",
"1u	c #343539",
"1v	c #3c3d40",
"1w	c #b2af62",
"1x	c #faf421",
"1y	c #f8cc0c",
"1z	c #fba712",
"20	c #f8d40b",
"21	c #f5f325",
"22	c #f8f32f",
"23	c #f7e20a",
"24	c #f8d20c",
"25	c #f6e70c",
"26	c #f8f440",
"27	c #ffff84",
"28	c #fffd3e",
"29	c #f7f325",
"2a	c #fbf640",
"2b	c #2d2c2f",
"2c	c #2e2c2e",
"2d	c #36373a",
"2e	c #2c2d38",
"2f	c #32343a",
"2g	c #2c2c33",
"2h	c #33333c",
"2i	c #606264",
"2j	c #545457",
"2k	c #3f3f40",
"2l	c #2a2a2c",
"2m	c #7f7e82",
"2n	c #303137",
"2o	c #272732",
"2p	c #2d2c36",
"2q	c #7a7b80",
"2r	c #7e8182",
"2s	c #505254",
"2t	c #4b4c4e",
"2u	c #262526",
"2v	c #68696d",
"2w	c #99989b",
"2x	c #76757a",
"2y	c #606166",
"2z	c #57595c",
"30	c #4a4c4e",
"31	c #2d2c2e",
"32	c #242324",
"33	c #404143",
"34	c #606367",
"35	c #47484b",
"36	c #a3a4a6",
"37	c #7e8185",
"38	c #6d6e72",
"39	c #66686b",
"3a	c #5f6063",
"3b	c #48494c",
"3c	c #3b3b3d",
"3d	c #2a292b",
"3e	c #515256",
"3f	c #7f8083",
"3g	c #515254",
"3h	c #8c8d8f",
"3i	c #96989b",
"3j	c #7d7e82",
"3k	c #7e7f83",
"3l	c #707175",
"3m	c #65666a",
"3n	c #5c5e60",
"3o	c #444547",
"3p	c #2e2f2f",
"3q	c #5e5e60",
"3r	c #afb0b3",
"3s	c #868a8f",
"3t	c #929498",
"3u	c #8a8d90",
"3v	c #7e8084",
"3w	c #6e6f73",
"3x	c #616265",
"3y	c #464749",
"3z	c #2f2e30",
"40	c #2a2b2c",
"41	c #222021",
"42	c #747578",
"43	c #a2a5a7",
"44	c #939499",
"45	c #a5a7aa",
"46	c #a8aaad",
"47	c #a2a3a7",
"48	c #8f9295",
"49	c #797a7c",
"4a	c #64666a",
"4b	c #505053",
"4c	c #222122",
"4d	c #8c8d90",
"4e	c #989a9d",
"4f	c #999ca0",
"4g	c #adafb2",
"4h	c #b4b6b9",
"4i	c #b1b3b4",
"4j	c #999b9e",
"4k	c #7d7e81",
"4l	c #68686b",
"4m	c #a4a8ab",
"4n	c #8c8d91",
"4o	c #a1a4a7",
"4p	c #acacaf",
"4q	c #a8abae",
"4r	c #949598",
"4s	c #656769",
"4t	c #585a5c",
"4u	c #4f5053",
"4v	c #474748",
"4w	c #83878b",
"4x	c #838589",
"4y	c #8f9094",
"4z	c #969699",
"50	c #838387",
"51	c #616263",
"52	c #555659",
"53	c #454648",
"54	c #252324",
"55	c #333436",
"56	c #7e7f80",
"57	c #848588",
"58	c #7a7c80",
"59	c #7c7e82",
"5a	c #7a7b7c",
"5b	c #646668",
"5c	c #5a5b60",
"5d	c #4a4a4d",
"5e	c #2e2e2e",
"5f	c #5b5e60",
"5g	c #888a8d",
"5h	c #686a6e",
"5i	c #6b6d71",
"5j	c #6b6c70",
"5k	c #6a6b6c",
"5l	c #616266",
"5m	c #5b5c60",
"5n	c #211f20",
"5o	c #363739",
"5p	c #5f6065",
"5q	c #606364",
"5r	c #606164",
"5s	c #5c5e61",
"5t	c #595a5c",
"5u	c #272728",
"5v	c #59595b",
"5w	c #78797c",
"5x	c #545758",
"5y	c #56575a",
"5z	c #69696d",
"60	c #606163",
"61	c #494a4d",
"62	c #575759",
"63	c #424345",
"64	c #404244",
"65	c #2c2c2d",
"66	c #262626",
"67	c #525254",
"68	c #424245",
"69	c #313032",
"6a	c #2e2c2d",
"                                                ",
"      XXXXXXXX                                  ",
"      XX    2dXX                                ",
"      1u      0t0x333e                          ",
"      1v      0u2v123f0t                        ",
"      1w    2e2m0y343g3q0u      55              ",
"  1k1p1x22272f0v09350x0o424d4m1e565f5o          ",
"  1l1q1y2328  2n0z0j3h3r434e4n4w575g125v0e      ",
"  1m1r1z2429  2o//363i3s444f174x0y5h5p5w5z||    ",
"  1n1s20252a  2p2w373j17454g4o4y585i5q5x600w||  ",
"  1o1t2126  2g2q2x0k3k3t464h4p4z595j5r5y096210  ",
"            2h2r2y38153u474i4q1e5a5k5s0d096367||",
"            2i0w0s393l3v484j4r500k5l5t0i6164680j",
"          2b0s2s2z3a3m3w494k150k5b5m0d0p0f//0n||",
"            2j2t0i133n3x4a4l4s515c0d181a1i070869",
"          2c2k0f30140d1319194t520i0p1c1g0mXX..0r",
"            //0g103b09184b144u0p5d0f1i0m0a0b0l6a",
"            0607110v3o3y1a1c4v531g0o07XX0b||0r1j",
"            2l080a3c0m//0g0g0o11070j08..0l0r1j  ",
"              0h0b0z0n0a1b1b0a0n080b0e1h++651d  ",
"              2u310l0e........0e||1h1f0h0h66    ",
"                323d3p3z0606061f5e0q++0q16      ",
"                  0c1640++++++++++0q5u0c        ",
"                      414c0c1d540c5n            "};