/* XPM */
static char * xpm_boss[] = {
"24 24 248 2",
"  	c None",
"XX	c #ffffff",
"++	c #34363a",
"..	c #393b40",
"||	c #36383d",
"//	c #323438",
"06	c #f9af3d",
"07	c #3c3d42",
"08	c #f9a636",
"09	c #fab746",
"0a	c #3d3e43",
"0b	c #404146",
"0c	c #313337",
"0d	c #fbbe4b",
"0e	c #84858a",
"0f	c #2d2f33",
"0g	c #35373c",
"0h	c #292b2f",
"0i	c #414247",
"0j	c #38393e",
"0k	c #323338",
"0l	c #101114",
"0m	c #3f4146",
"0n	c #303136",
"0o	c #33353a",
"0p	c #323439",
"0q	c #3e4045",
"0r	c #3a3c41",
"0s	c #1d1f23",
"0t	c #44454d",
"0u	c #3d3f44",
"0v	c #404147",
"0w	c #fa9f2e",
"0x	c #fcdd8f",
"0y	c #202227",
"0z	c #15171a",
"10	c #222428",
"11	c #292a2e",
"12	c #323337",
"13	c #121316",
"14	c #202125",
"15	c #48494d",
"16	c #8d8f92",
"17	c #989ca0",
"18	c #7d8084",
"19	c #212225",
"1a	c #36383c",
"1b	c #8e8f93",
"1c	c #9a9b9f",
"1d	c #626368",
"1e	c #37393f",
"1f	c #2e3034",
"1g	c #1b1d22",
"1h	c #a1a1a5",
"1i	c #373a3d",
"1j	c #34373c",
"1k	c #26272b",
"1l	c #131216",
"1m	c #2c2e32",
"1n	c #99999e",
"1o	c #737678",
"1p	c #37383d",
"1q	c #121215",
"1r	c #313339",
"1s	c #383a3f",
"1t	c #e2d2ad",
"1u	c #fcd298",
"1v	c #f9d399",
"1w	c #ef9a46",
"1x	c #f56614",
"1y	c #0f141c",
"1z	c #ebebeb",
"20	c #63676d",
"21	c #34343a",
"22	c #43444c",
"23	c #3b3d42",
"24	c #37393e",
"25	c #292d37",
"26	c #a1895e",
"27	c #ffe089",
"28	c #fdd27d",
"29	c #fccb73",
"2a	c #fbc667",
"2b	c #ffd58d",
"2c	c #f39c52",
"2d	c #8c8f92",
"2e	c #333539",
"2f	c #44454c",
"2g	c #42444a",
"2h	c #232a33",
"2i	c #bca06a",
"2j	c #ffdc89",
"2k	c #fcd384",
"2l	c #fab541",
"2m	c #f9ad38",
"2n	c #f9a531",
"2o	c #fbbe6d",
"2p	c #eab893",
"2q	c #fdfcfc",
"2r	c #9c9ea2",
"2s	c #85868b",
"2t	c #606167",
"2u	c #616369",
"2v	c #2b2d31",
"2w	c #242227",
"2x	c #0c0c0f",
"2y	c #424348",
"2z	c #32343b",
"30	c #252933",
"31	c #f6d687",
"32	c #ffd989",
"33	c #fbcb6d",
"34	c #fab643",
"35	c #f9a534",
"36	c #fba331",
"37	c #e08e4d",
"38	c #d6e0e6",
"39	c #f6ffff",
"3a	c #212428",
"3b	c #3b3d43",
"3c	c #32343c",
"3d	c #282c35",
"3e	c #bea970",
"3f	c #ffe493",
"3g	c #fdd78a",
"3h	c #fbc152",
"3i	c #fab645",
"3j	c #fa9d2c",
"3k	c #ed943e",
"3l	c #f5f1f1",
"3m	c #75cdf3",
"3n	c #89cff0",
"3o	c #c6e4f6",
"3p	c #a3d3ee",
"3q	c #7dc2e8",
"3r	c #3fa1da",
"3s	c #1e8cd0",
"3t	c #128cd9",
"3u	c #0e1e2a",
"3v	c #43464c",
"3w	c #383b40",
"3x	c #656353",
"3y	c #ffffac",
"3z	c #ffe898",
"40	c #fddd8f",
"41	c #fcd686",
"42	c #fbbe49",
"43	c #eb801d",
"44	c #bcceda",
"45	c #7cd0f4",
"46	c #78c9ee",
"47	c #61bbe8",
"48	c #57b1e3",
"49	c #49a8df",
"4a	c #3ea0da",
"4b	c #2f94d3",
"4c	c #2093dc",
"4d	c #131f2a",
"4e	c #44444b",
"4f	c #373a40",
"4g	c #605d52",
"4h	c #fff4a5",
"4i	c #fbe195",
"4j	c #fcd37a",
"4k	c #e57717",
"4l	c #85d1f3",
"4m	c #cae8f8",
"4n	c #ecf4fb",
"4o	c #d3e8f7",
"4p	c #b5daf0",
"4q	c #7dc0e5",
"4r	c #4eabdd",
"4s	c #0f8cdb",
"4t	c #0d1d2a",
"4u	c #43434b",
"4v	c #2e3239",
"4w	c #fffcaa",
"4x	c #fce296",
"4y	c #fcd279",
"4z	c #fb9d27",
"50	c #e5a467",
"51	c #fdf9f7",
"52	c #ebe4e0",
"53	c #fff5f0",
"54	c #2e2d2f",
"55	c #424449",
"56	c #2a2e36",
"57	c #b2a070",
"58	c #ffee9d",
"59	c #fdde91",
"5a	c #fccf70",
"5b	c #fab03d",
"5c	c #feac36",
"5d	c #ec8820",
"5e	c #f6f4f9",
"5f	c #f2f2f3",
"5g	c #7f8285",
"5h	c #63656a",
"5i	c #54555a",
"5j	c #202327",
"5k	c #24252a",
"5l	c #0b0c0f",
"5m	c #393a3f",
"5n	c #1d2230",
"5o	c #af9b69",
"5p	c #fff19b",
"5q	c #ffdf81",
"5r	c #ffc84f",
"5s	c #ffc14a",
"5t	c #ffb33e",
"5u	c #cf621d",
"5v	c #a17c74",
"5w	c #4a4b52",
"5x	c #37373c",
"5y	c #111114",
"5z	c #34363b",
"60	c #2e3136",
"61	c #21262d",
"62	c #333436",
"63	c #674e3b",
"64	c #ae5121",
"65	c #bb5622",
"66	c #0d1a23",
"67	c #d0d3d4",
"68	c #7d7e85",
"69	c #303138",
"6a	c #121216",
"6b	c #1d2023",
"6c	c #393a40",
"6d	c #44454b",
"6e	c #232529",
"6f	c #131317",
"6g	c #27292d",
"6h	c #424347",
"6i	c #25282b",
"6j	c #36383e",
"6k	c #17181c",
"6l	c #242429",
"6m	c #222327",
"6n	c #35373b",
"6o	c #37393d",
"6p	c #313336",
"6q	c #151419",
"6r	c #1e2023",
"6s	c #1b1c1f",
"6t	c #18191c",
"6u	c #1a1c1f",
"6v	c #16171a",
"                2f0t0t3v4e4u55                  ",
"              222g2y0i0v0m0q0u0a                ",
"            0i0m0q0u3b3w4f....5m0j              ",
"            07230r..3c3x4g4v56++5z              ",
"            0j24||2z3d3y4h4w575n60              ",
"            1r252h303e3z4i4x585o61              ",
"            1s262i313f400x0x595p62              ",
"            1t272j323g414j4y5a5q63              ",
"            1u282k333h420d0d0d5r64              ",
"            1v292l343i090909095s65              ",
"            1w2a2m06060606065b5t                ",
"            1x2b2n35080808085c5u                ",
"            1y2c2o363j0w0w4z5d5v66              ",
"          1mXXXX2p373k434k505eXX676b            ",
"        0b1n1zXXXXXX3l44XXXXXXXX686c6g          ",
"      1a1h1o20XX2q383m454l515fXX696d0v6i        ",
"    141b0e1p212d2rXX3n464mXX5g5w070b6h0p6l      ",
"    151c1i07070n2sXX3o474nXX5h5x0a0a0a0b6m      ",
"  0z161d1j....0o2tXX3p484oXX5i||......0r0n6r    ",
"  10171e0g||||0p2uXX3q494pXX0y0g||||||6j6n6s    ",
"  110e0f++++++2e2vXX3r4a4qXX5j++++++++++6o6t    ",
"  12181f////0c0c0sXX3s4b4r520y0c//////0o6p6u    ",
"  13191g1k0h0k0k2w393t4c4s535k0f0h6e0s6k6q6v    ",
"        1l1q0l0l2x3a3u4d4t545l5y6a6f            "};