/* XPM */
static char * xpm_bottom[] = {
"24 24 271 2",
"  	c None",
"XX	c #002e8f",
"++	c #d6f6ff",
"..	c #8de0fc",
"||	c #6fd4f8",
"//	c #d7f6ff",
"06	c #d6f5ff",
"07	c #83cdee",
"08	c #36aeea",
"09	c #d5f5ff",
"0a	c #29a2e6",
"0b	c #7adbfa",
"0c	c #75d6f8",
"0d	c #7fcbee",
"0e	c #68d0f7",
"0f	c #8cdffc",
"0g	c #002f90",
"0h	c #002d8f",
"0i	c #003ba0",
"0j	c #d8f8ff",
"0k	c #6cc0e9",
"0l	c #003090",
"0m	c #2ea7e9",
"0n	c #125dbb",
"0o	c #084eb3",
"0p	c #0247ad",
"0q	c #0142a7",
"0r	c #003da4",
"0s	c #0744a5",
"0t	c #2ca6e9",
"0u	c #2ba5e8",
"0v	c #0853b5",
"0w	c #88d5f3",
"0x	c #b8edff",
"0y	c #aeebfd",
"0z	c #aff3ff",
"10	c #00389f",
"11	c #3ab1eb",
"12	c #5ac4f0",
"13	c #2099e4",
"14	c #074fb4",
"15	c #85cdf0",
"16	c #48bbed",
"17	c #24a1e7",
"18	c #22a1e9",
"19	c #02399d",
"1a	c #39b2ec",
"1b	c #dffaff",
"1c	c #6ec8f0",
"1d	c #1e90e0",
"1e	c #074eb2",
"1f	c #84cef0",
"1g	c #4ebdee",
"1h	c #2da5e7",
"1i	c #27a6e9",
"1j	c #04389b",
"1k	c #36b0eb",
"1l	c #96e4fc",
"1m	c #61c1eb",
"1n	c #1988db",
"1o	c #064db1",
"1p	c #4dbced",
"1q	c #2ba4e7",
"1r	c #25a3e9",
"1s	c #023798",
"1t	c #8de1fc",
"1u	c #83e0fd",
"1v	c #5cbbe9",
"1w	c #187ed7",
"1x	c #054caf",
"1y	c #4bbaed",
"1z	c #24a3e8",
"20	c #023699",
"21	c #7bdbfb",
"22	c #59b4e7",
"23	c #1a7dd2",
"24	c #054aad",
"25	c #82cdee",
"26	c #49b8ed",
"27	c #28a0e4",
"28	c #22a0e8",
"29	c #013497",
"2a	c #34ace9",
"2b	c #74d9f9",
"2c	c #7fcaed",
"2d	c #1573cd",
"2e	c #0548ad",
"2f	c #47b7ec",
"2g	c #26a0e5",
"2h	c #1f9fe7",
"2i	c #003395",
"2j	c #34a9e9",
"2k	c #76dafa",
"2l	c #6bcff7",
"2m	c #5fcef7",
"2n	c #61bde9",
"2o	c #126bc6",
"2p	c #0545ac",
"2q	c #45b7ec",
"2r	c #269ee3",
"2s	c #1e9ee7",
"2t	c #003294",
"2u	c #33a8e7",
"2v	c #77dafa",
"2w	c #71d5f8",
"2x	c #60caf4",
"2y	c #57c6f2",
"2z	c #5db5e7",
"30	c #1164bf",
"31	c #0445a9",
"32	c #7dc9ee",
"33	c #43b5ec",
"34	c #249de4",
"35	c #1c9ce7",
"36	c #003091",
"37	c #32a7e7",
"38	c #74d9fa",
"39	c #67cff5",
"3a	c #5fc9f4",
"3b	c #56c2f1",
"3c	c #4bbff2",
"3d	c #57b2e4",
"3e	c #145ebd",
"3f	c #0444a8",
"3g	c #7cc9ee",
"3h	c #42b4ea",
"3i	c #229be3",
"3j	c #1b9be6",
"3k	c #32a5e6",
"3l	c #74d7f9",
"3m	c #66cef5",
"3n	c #5ec9f3",
"3o	c #54c1f0",
"3p	c #49bbee",
"3q	c #3cb4ec",
"3r	c #70c7ee",
"3s	c #1964be",
"3t	c #0343a7",
"3u	c #7bc8ed",
"3v	c #40b3ea",
"3w	c #219ae3",
"3x	c #199be6",
"3y	c #30a3e5",
"3z	c #8cdffb",
"40	c #73d8f9",
"41	c #6ed3f7",
"42	c #64cef5",
"43	c #5cc8f3",
"44	c #52c1f0",
"45	c #48b9ee",
"46	c #3eb5ec",
"47	c #1864be",
"48	c #0e51b1",
"49	c #0241a5",
"4a	c #78c7ed",
"4b	c #3fb3ea",
"4c	c #1f96e2",
"4d	c #1798e5",
"4e	c #2fa0e3",
"4f	c #8adffb",
"4g	c #74d5f8",
"4h	c #6dd2f7",
"4i	c #63cdf5",
"4j	c #59c6f3",
"4k	c #51c0f0",
"4l	c #49beef",
"4m	c #36abe9",
"4n	c #0f56b6",
"4o	c #0e53b2",
"4p	c #033ea5",
"4q	c #75c8ec",
"4r	c #3cb0ea",
"4s	c #1d96e0",
"4t	c #1597e5",
"4u	c #2e9fe2",
"4v	c #8adefb",
"4w	c #73d6f8",
"4x	c #6bd0f7",
"4y	c #60cbf5",
"4z	c #59c5f3",
"50	c #53c3f3",
"51	c #2f9be2",
"52	c #105bba",
"53	c #1055b6",
"54	c #023ea4",
"55	c #74c5ec",
"56	c #3bafe9",
"57	c #1b96e1",
"58	c #1495e3",
"59	c #2e9ee1",
"5a	c #89defa",
"5b	c #61cbf4",
"5c	c #5cc9f4",
"5d	c #34a1e4",
"5e	c #0f5bb9",
"5f	c #125dba",
"5g	c #013da1",
"5h	c #74c6ec",
"5i	c #3aaee9",
"5j	c #1995e0",
"5k	c #1294e1",
"5l	c #2b9be0",
"5m	c #d7f7ff",
"5n	c #89ddfa",
"5o	c #6dd3f8",
"5p	c #68d0f5",
"5q	c #66d0f8",
"5r	c #34a1e3",
"5s	c #105ebf",
"5t	c #73c4eb",
"5u	c #38ace8",
"5v	c #1993e0",
"5w	c #1190e1",
"5x	c #2a99e0",
"5y	c #d8f7ff",
"5z	c #86dcfa",
"60	c #6ed5f9",
"61	c #6ed6f8",
"62	c #2891da",
"63	c #1163c2",
"64	c #71c4eb",
"65	c #35ace8",
"66	c #1792de",
"67	c #1090e1",
"68	c #2897df",
"69	c #87defa",
"6a	c #76dcfb",
"6b	c #2a95dd",
"6c	c #1469c6",
"6d	c #00399f",
"6e	c #70c3ea",
"6f	c #34abe7",
"6g	c #158fdd",
"6h	c #0d8ee1",
"6i	c #2896de",
"6j	c #85e1fa",
"6k	c #218dd9",
"6l	c #176ec8",
"6m	c #00389d",
"6n	c #6dc1ea",
"6o	c #32a8e7",
"6p	c #138edd",
"6q	c #0c8de0",
"6r	c #2995dd",
"6s	c #e2fdff",
"6t	c #3198dd",
"6u	c #1672cc",
"6v	c #00369b",
"6w	c #2ea7e6",
"6x	c #128cdc",
"6y	c #0a8ce0",
"6z	c #329adf",
"70	c #6ec5eb",
"71	c #1376cf",
"72	c #003598",
"73	c #2da7e6",
"74	c #118bdc",
"75	c #098adf",
"76	c #002e90",
"77	c #1e85d8",
"78	c #197bd3",
"79	c #003599",
"7a	c #73c8ef",
"7b	c #2fb1ec",
"7c	c #1193e1",
"7d	c #088de5",
"7e	c #2187d8",
"7f	c #033c9d",
"7g	c #002f92",
"7h	c #002b8e",
"7i	c #003595",
"                                                ",
"                                                ",
"                                                ",
"0m0t111a1k08082a2j2u373k3y4e4u595l5x686i6r6z777e",
"  0u121b06090906++++++++++//////5m5y0j0j6s7078  ",
"    131c1l1t........0f0f3z4f4v5a5n5z696j6t71    ",
"      1d1m1u0b0b2k2v383l404g4w||5o606a6k6u      ",
"        1n1v210c0c2w||||414h4x0e5p616b6l        ",
"          1w222b2l0e393m424i4y5b5q626c          ",
"            232c2m2x3a3n434j4z5c5r63            ",
"              2d2n2y3b3o444k505d5s              ",
"                2o2z3c3p454l515e                ",
"                  303d3q464m525f                ",
"                    3e3r0a4n53                  ",
"                      3s474o                    ",
"                        48                      ",
"0n0v141e1o1x242e2p313f3t494p545g0i0i6d6m6v72797f",
"0o0w151f0707250d0d323g3u4a4q555h5t646e6n0k0k7a7g",
"0p0x161g1p1y262f2q333h3v4b4r565i5u656f6o6w737b7h",
"0q0y171h1q0a272g2r343i3w4c4s575j5v666g6p6x747cXX",
"0r0z181i1r1z282h2s353j3x4d4t585k5w676h6q6y757d0l",
"0s10191j1s20292i2t360g0g0h0hXXXXXXXXXXXXXX760l7i",
"                                                ",
"                                                "};