/* XPM */
static char * xpm_briefcase[] = {
"24 24 180 2",
"  	c None",
"XX	c #d38131",
"++	c #cc7931",
"..	c #c5702d",
"||	c #be682a",
"//	c #b76029",
"06	c #b05625",
"07	c #ac5224",
"08	c #aa4e22",
"09	c #aa4c22",
"0a	c #7d310f",
"0b	c #db9961",
"0c	c #b25926",
"0d	c #ad5323",
"0e	c #bd5f35",
"0f	c #9c3c14",
"0g	c #b45b28",
"0h	c #d3d4d4",
"0i	c #a0451e",
"0j	c #993d19",
"0k	c #a3471f",
"0l	c #bdc7cc",
"0m	c #b35520",
"0n	c #a8451b",
"0o	c #7f2f0b",
"0p	c #a8461c",
"0q	c #bf6137",
"0r	c #9d3c14",
"0s	c #bf5d30",
"0t	c #9d3913",
"0u	c #d4d6d7",
"0v	c #c2cad2",
"0w	c #897366",
"0x	c #a24019",
"0y	c #da9860",
"0z	c #d2d3d4",
"10	c #bebfc3",
"11	c #a5aeb6",
"12	c #aabcc6",
"13	c #ab593b",
"14	c #db985f",
"15	c #ad5121",
"16	c #bdc6cb",
"17	c #be592b",
"18	c #9c3810",
"19	c #db9861",
"1a	c #b25824",
"1b	c #a95c39",
"1c	c #b55a25",
"1d	c #a17565",
"1e	c #c9cfd8",
"1f	c #b75922",
"1g	c #a07260",
"1h	c #dbdfe3",
"1i	c #eaedef",
"1j	c #6e5854",
"1k	c #b85822",
"1l	c #ba5c31",
"1m	c #b95f36",
"1n	c #b65d34",
"1o	c #b35a33",
"1p	c #b05932",
"1q	c #ac5632",
"1r	c #a95431",
"1s	c #a85531",
"1t	c #a04924",
"1u	c #8f3710",
"1v	c #83300d",
"1w	c #7c2d09",
"1x	c #792d08",
"1y	c #742b06",
"1z	c #722a05",
"20	c #9e3d15",
"21	c #dfa26e",
"22	c #e0a362",
"23	c #da9b61",
"24	c #d4945d",
"25	c #cd8c5b",
"26	c #c88659",
"27	c #c47f57",
"28	c #c07a56",
"29	c #aa5732",
"2a	c #a67963",
"2b	c #b9856a",
"2c	c #bc876a",
"2d	c #b98469",
"2e	c #b78268",
"2f	c #b48167",
"2g	c #b58169",
"2h	c #8d5134",
"2i	c #dc9960",
"2j	c #d2802f",
"2k	c #cb772d",
"2l	c #c46e29",
"2m	c #bd6626",
"2n	c #b65c24",
"2o	c #b15622",
"2p	c #ab5020",
"2q	c #a3451c",
"2r	c #6a2302",
"2s	c #a7511c",
"2t	c #b45822",
"2u	c #af5320",
"2v	c #ab4f1f",
"2w	c #a94a1d",
"2x	c #a9491e",
"2y	c #7c2e0b",
"2z	c #702a09",
"30	c #a95422",
"31	c #732c0a",
"32	c #a95522",
"33	c #752d0b",
"34	c #aa5522",
"35	c #79300d",
"36	c #aa5523",
"37	c #7b300f",
"38	c #ab5623",
"39	c #a3441a",
"3a	c #ae5521",
"3b	c #956759",
"3c	c #774f44",
"3d	c #975a3a",
"3e	c #cfd4d9",
"3f	c #6f5c59",
"3g	c #cdd4d9",
"3h	c #6f5b59",
"3i	c #946758",
"3j	c #815346",
"3k	c #995b3b",
"3l	c #a1431a",
"3m	c #9a3a15",
"3n	c #b25823",
"3o	c #b45b27",
"3p	c #b25925",
"3q	c #b35926",
"3r	c #b35a26",
"3s	c #b45a26",
"3t	c #b55a26",
"3u	c #b35b28",
"3v	c #b85c28",
"3w	c #b55c28",
"3x	c #b25726",
"3y	c #ae5325",
"3z	c #ac4f23",
"40	c #ac4e23",
"41	c #7e310f",
"42	c #9e3d16",
"43	c #dd9d64",
"44	c #d58533",
"45	c #ce7c32",
"46	c #c7722e",
"47	c #c06a2b",
"48	c #b8622a",
"49	c #b35a27",
"4a	c #ae5424",
"4b	c #a1461e",
"4c	c #9a3e1a",
"4d	c #a34a1e",
"4e	c #9b481c",
"4f	c #98451a",
"4g	c #954219",
"4h	c #913f17",
"4i	c #8f3d17",
"4j	c #782f0c",
"4k	c #ba592d",
"4l	c #b45221",
"4m	c #b15122",
"4n	c #ad4d20",
"4o	c #a94c1f",
"4p	c #a7491e",
"4q	c #a3471d",
"4r	c #a0441b",
"4s	c #9d411b",
"4t	c #8f3a15",
"4u	c #803311",
"4v	c #823311",
"4w	c #7a310e",
"4x	c #7b310e",
"4y	c #77300c",
"4z	c #742e0a",
"                                                ",
"                0z0h0h0h0h0h0h0z                ",
"              0u10160l0l0l0l16100u              ",
"              0v11            110v              ",
"  0p0q0e0e0e0s0w12170e0e0e0e17120w0s0e0e0e0q0p  ",
"0n200r0f0f0f0t0x13180f0f0f0f18130x0t0f0f0f0r420n",
"1l212i0b0b0b0b0y14190b0b0b0b19140y0b0b0b0b0b434k",
"1m222jXXXXXXXXXXXXXXXXXXXXXXXXXXXXXXXXXXXXXX444l",
"1n232k++++++++++++++++++++++++++++++++++++++454m",
"1o242l......................................464n",
"1p252m||||||||||||||||||||||||||||||||||||||474o",
"1q262n//////////////////////////////////////484p",
"1r272o0c0c0c0c0c0c1a0m0m0m0m1a0c0c0c0c0c0c0c494q",
"1s282p0d0d0d0d0d151b1d1g1g1d1b150d0d0d0d0d0d4a4r",
"1t292q0k0k0k0k0k393b1e1h1h1e3i3l0i0i0i0i0i0i4b4s",
"1u2a2r2z313335370o3c3e1i1i3g3j3m0j0j0j0j0j0j4c4t",
"1v2b2s30323436383a3d3f1j1j3h3k3n3p3q3r3s3t3v4d4u",
"0o2c2t0g0g0g0g0g0g1c1f1k1k1f1c3o0g0g0g0g3u3w4e4v",
"1w2d2u0606060606060606060606060606060606063x4f4w",
"1x2e2v0707070707070707070707070707070707073y4g4x",
"1y2f2w0808080808080808080808080808080808083z4h4y",
"1z2g2x090909090909090909090909090909090909404i4z",
"  2h2y0a0a0a0a0a0a0a0a0a0a0a0a0a0a0a0a0a0a414j  ",
"                                                "};