/* XPM */
static char * xpm_brush[] = {
"24 24 121 2",
"  	c None",
"XX	c #9ca1ad",
"++	c #e45427",
"..	c #f76a2e",
"||	c #f05725",
"//	c #d18021",
"06	c #f9973a",
"07	c #fe6529",
"08	c #e26a24",
"09	c #f0ad2b",
"0a	c #ffb77b",
"0b	c #f98c1f",
"0c	c #d67626",
"0d	c #e5b209",
"0e	c #ffe198",
"0f	c #fce080",
"0g	c #ef9f1a",
"0h	c #b9b7b5",
"0i	c #e1e0be",
"0j	c #efbc09",
"0k	c #cc8c21",
"0l	c #969ba9",
"0m	c #d7d9de",
"0n	c #c4c8d0",
"0o	c #707793",
"0p	c #a2a7b4",
"0q	c #e7e8ea",
"0r	c #ccced3",
"0s	c #5b6071",
"0t	c #7d8392",
"0u	c #babec7",
"0v	c #f7f6f8",
"0w	c #c8cad2",
"0x	c #575c70",
"0y	c #8e96a2",
"0z	c #d1d4d8",
"10	c #ffffff",
"11	c #9fa1ad",
"12	c #474d61",
"13	c #a2a5af",
"14	c #bdc0c8",
"15	c #fafbfb",
"16	c #8a8f9d",
"17	c #4a5064",
"18	c #959ba9",
"19	c #1153a9",
"1a	c #6182a6",
"1b	c #fefaf9",
"1c	c #6b7082",
"1d	c #4c5065",
"1e	c #959ca9",
"1f	c #3279c3",
"1g	c #70c7ed",
"1h	c #0b5db3",
"1i	c #b1bcca",
"1j	c #b6b8c0",
"1k	c #9197a5",
"1l	c #3481c5",
"1m	c #74c2ea",
"1n	c #34a2e0",
"1o	c #289add",
"1p	c #0d57a7",
"1q	c #97a4b1",
"1r	c #2a7ac5",
"1s	c #3f8dcd",
"1t	c #72c2ea",
"1u	c #3ca6e1",
"1v	c #35a4e2",
"1w	c #288fd6",
"1x	c #195cad",
"1y	c #2e80ca",
"1z	c #51a2d9",
"20	c #83cbef",
"21	c #47ace5",
"22	c #42abe4",
"23	c #2f8cd1",
"24	c #205fad",
"25	c #2f87ce",
"26	c #58a5dd",
"27	c #89d1f0",
"28	c #4fb3e7",
"29	c #4cb1e8",
"2a	c #3086cd",
"2b	c #2262b3",
"2c	c #348dd4",
"2d	c #5cadde",
"2e	c #80ccf1",
"2f	c #5bbaeb",
"2g	c #53b6e9",
"2h	c #3182cb",
"2i	c #256ab7",
"2j	c #3693d8",
"2k	c #61b2e3",
"2l	c #89d0f2",
"2m	c #65c0ee",
"2n	c #59b8e9",
"2o	c #3080c9",
"2p	c #3b9bdd",
"2q	c #64b6e6",
"2r	c #8fd4f5",
"2s	c #6dc7f1",
"2t	c #5ab5e8",
"2u	c #2e7fc8",
"2v	c #3ea1e0",
"2w	c #69bbe7",
"2x	c #96d9f7",
"2y	c #78cef1",
"2z	c #51aae1",
"30	c #2d82ca",
"31	c #43aae5",
"32	c #6cc0eb",
"33	c #a5dff8",
"34	c #76cbf1",
"35	c #429edb",
"36	c #5bb9eb",
"37	c #b3e6fb",
"38	c #62beec",
"39	c #3d9adb",
"3a	c #4cb0e8",
"3b	c #49aae5",
"3c	c #3d9ede",
"                                          31363a",
"                                        2v32373b",
"                                      2p2w33383c",
"                                    2j2q2x3439  ",
"                                  2c2k2r2y35    ",
"                                252d2l2s2z      ",
"                              1y262e2m2t30      ",
"                            1r1z272f2n2u        ",
"                            1s20282g2o          ",
"                          1l1t21292h            ",
"                        1f1m1u222a2i            ",
"                      191g1n1v232b              ",
"                    131a1h1o1w24                ",
"                  0y141b1i1p1x                  ",
"                0t0z151c1j1q                    ",
"                0u10161d1k                      ",
"              0p0v11171e                        ",
"            0l0q0w1218                          ",
"            0m0r0xXX                            ",
"        0d0h0n0sXX                              ",
"    //090e0i0o                                  ",
"    060a0f0j                                    ",
"  ..070b0g0k                                    ",
"++||080c                                        "};