/* XPM */
static char * xpm_calculator[] = {
"24 24 256 2",
"  	c None",
"XX	c #e3f0fa",
"++	c #deecf8",
"..	c #90cbec",
"||	c #64c6ee",
"//	c #c0dff3",
"06	c #e3effa",
"07	c #c7ecfa",
"08	c #8fcbec",
"09	c #c8e3f5",
"0a	c #c1dff3",
"0b	c #148dd9",
"0c	c #6dc7ee",
"0d	c #3a80c6",
"0e	c #55ade3",
"0f	c #64b9e7",
"0g	c #daeaf8",
"0h	c #5a9bd3",
"0i	c #a7cfea",
"0j	c #d6eaf8",
"0k	c #cce7f6",
"0l	c #eaf2fa",
"0m	c #a5d4ef",
"0n	c #c0e2f5",
"0o	c #317ac2",
"0p	c #2e75c1",
"0q	c #8ecaec",
"0r	c #5abeed",
"0s	c #60b0e3",
"0t	c #5bade0",
"0u	c #5098d5",
"0v	c #4b94d3",
"0w	c #c7e5f6",
"0x	c #6cb4e2",
"0y	c #5ca5db",
"0z	c #6fc8ee",
"10	c #c0e9f8",
"11	c #51b9ea",
"12	c #94d3f0",
"13	c #8dd1f0",
"14	c #3e84c9",
"15	c #4bb8ea",
"16	c #3c83c8",
"17	c #c8e3f4",
"18	c #65acdf",
"19	c #d4e8f6",
"1a	c #d9eaf8",
"1b	c #c3ebf9",
"1c	c #42b1e7",
"1d	c #3c81c7",
"1e	c #dcebf8",
"1f	c #3989cf",
"1g	c #39abe5",
"1h	c #abd1ea",
"1i	c #87bee3",
"1j	c #2fa4e3",
"1k	c #279ee0",
"1l	c #387ec5",
"1m	c #d2e7f6",
"1n	c #d1e7f6",
"1o	c #89c6ea",
"1p	c #a4ddf3",
"1q	c #1f98de",
"1r	c #69aede",
"1s	c #c7e1f3",
"1t	c #3e92d6",
"1u	c #60c2ed",
"1v	c #357bc3",
"1w	c #8bc0e5",
"1x	c #e5f0f9",
"1y	c #b1d6ef",
"1z	c #6daddd",
"20	c #84d0ef",
"21	c #3076c1",
"22	c #80caed",
"23	c #f2251a",
"24	c #2d73c1",
"25	c #9bcfed",
"26	c #9ed1ee",
"27	c #86c5e9",
"28	c #2762b2",
"29	c #419ada",
"2a	c #6cc3ec",
"2b	c #69c0eb",
"2c	c #66bde9",
"2d	c #60b4e4",
"2e	c #57a8df",
"2f	c #55a5dc",
"2g	c #53a2db",
"2h	c #529ed9",
"2i	c #4f9ad6",
"2j	c #498fd0",
"2k	c #468cce",
"2l	c #3372be",
"2m	c #84cdee",
"2n	c #87cbec",
"2o	c #7ec3e8",
"2p	c #dbeaf7",
"2q	c #2f6ebc",
"2r	c #66c6ee",
"2s	c #78d0f1",
"2t	c #6cbde8",
"2u	c #dbecf9",
"2v	c #74c3eb",
"2w	c #daeaf9",
"2x	c #7dc9ee",
"2y	c #79c6ed",
"2z	c #9fd4f0",
"30	c #c5ecfa",
"31	c #b2e4f6",
"32	c #ecf4fb",
"33	c #79bce3",
"34	c #87c2e7",
"35	c #3f96d8",
"36	c #9bdcf4",
"37	c #59c1ec",
"38	c #edf5fc",
"39	c #67afde",
"3a	c #72afdb",
"3b	c #ecf3fb",
"3c	c #7bb6df",
"3d	c #d1e5f3",
"3e	c #d3e6f5",
"3f	c #bde7f8",
"3g	c #83d2f2",
"3h	c #cbe1f3",
"3i	c #d1e5f5",
"3j	c #d6e8f6",
"3k	c #86bae0",
"3l	c #dbebf8",
"3m	c #b8e5f7",
"3n	c #6cc8ee",
"3o	c #46b4e8",
"3p	c #cfe7f6",
"3q	c #c4e3f5",
"3r	c #dcecf8",
"3s	c #d5e9f8",
"3t	c #6ac5ee",
"3u	c #b2e3f6",
"3v	c #55beec",
"3w	c #3daee6",
"3x	c #b4dbf2",
"3y	c #60b6e7",
"3z	c #bedef2",
"40	c #52abe1",
"41	c #69c3ed",
"42	c #62c5ee",
"43	c #bae7f7",
"44	c #35a7e3",
"45	c #367dc3",
"46	c #80c1e7",
"47	c #e8f2fa",
"48	c #67b2e1",
"49	c #a4d3ef",
"4a	c #c0def2",
"4b	c #66c2ec",
"4c	c #b5e3f6",
"4d	c #94d7f2",
"4e	c #2ca1e2",
"4f	c #1992db",
"4g	c #ddeaf6",
"4h	c #94c5e7",
"4i	c #bcdcf1",
"4j	c #dae9f5",
"4k	c #c7e2f4",
"4l	c #3f88cd",
"4m	c #bedbf0",
"4n	c #a0d0ed",
"4o	c #347cc6",
"4p	c #cbe4f5",
"4q	c #63c0ec",
"4r	c #afe1f5",
"4s	c #8cd3f0",
"4t	c #239bdf",
"4u	c #158fda",
"4v	c #9dcaea",
"4w	c #60a2d8",
"4x	c #85bce2",
"4y	c #b7d9f1",
"4z	c #b3d7f0",
"50	c #60beeb",
"51	c #5dc1ec",
"52	c #aadff4",
"53	c #1b95dd",
"54	c #daa0bc",
"55	c #ee757e",
"56	c #e35770",
"57	c #b5dcf2",
"58	c #b8daf1",
"59	c #baddf3",
"5a	c #a7d9f2",
"5b	c #9bd3f0",
"5c	c #5dbcea",
"5d	c #5cbeec",
"5e	c #7bcdee",
"5f	c #1790db",
"5g	c #bec3df",
"5h	c #f6817a",
"5i	c #f85131",
"5j	c #d17392",
"5k	c #add7f0",
"5l	c #6ebae6",
"5m	c #80c2e9",
"5n	c #b6dbf2",
"5o	c #59b9ea",
"5p	c #59beeb",
"5q	c #9dd9f2",
"5r	c #b5aed1",
"5s	c #f28073",
"5t	c #f84b2d",
"5u	c #c16c8d",
"5v	c #b5daf0",
"5w	c #57a3da",
"5x	c #c3dff2",
"5y	c #499bd8",
"5z	c #2c72be",
"60	c #56b6e9",
"61	c #57baea",
"62	c #97d6f0",
"63	c #81cfed",
"64	c #1992dc",
"65	c #148ad7",
"66	c #3881c8",
"67	c #b96480",
"68	c #d52c29",
"69	c #b82630",
"6a	c #a1c5e5",
"6b	c #afd3eb",
"6c	c #a0cce9",
"6d	c #89c4e9",
"6e	c #94c9ea",
"6f	c #a8cfe9",
"6g	c #3880c7",
"6h	c #296fbd",
"6i	c #51b3e9",
"6j	c #7ac2ea",
"6k	c #59b2e5",
"6l	c #3997d8",
"6m	c #2f8ad2",
"6n	c #3184cd",
"6o	c #8dc9eb",
"6p	c #4dade5",
"6q	c #4aabe3",
"6r	c #4aa7e2",
"6s	c #47a4e0",
"6t	c #46a1df",
"6u	c #439edd",
"6v	c #3d95d7",
"6w	c #3a8cd2",
"6x	c #3887cf",
"6y	c #3684ce",
"6z	c #3581cc",
"70	c #347ec9",
"71	c #317bc7",
"72	c #2f7ac6",
"73	c #2970c0",
"        0r0z0z0c0c0c3t414b4q505c5o606i          ",
"      0r0w2r||||||||||421u1u515d5p616j6p        ",
"      0c2m070707071b10434c4r521p5q626k6q        ",
"      2a2n07301b3f3m3u1p4d4s205e20630e6r        ",
"      2b2o1031363g3n3v151c1g1j1k1q646l6s        ",
"      2c0x2s||37113o3w444e4t535f0b0b6m6t        ",
"      0f0y11151c1g1j1k1q4f4u0b0b0b656n6u        ",
"      0f0g0h161d0d0d1l451v0o210p24662729        ",
"      2dXX060k0k++++1m191s090a5g5r26..29        ",
"      0sXX1232381h3p080l4g1y545h5s67..6v        ",
"      0tXX1217171h0n08091n1z555i5t680q1t        ",
"      0t062t18390h3q0f460u4v56232369..6w        ",
"      2eXX2u333a3h1e3x184h0a0a5j5u6a..1f        ",
"      2fXX060j1e++++1m++4i090a5k5v26..6x        ",
"      2gXX0i0l3b0i0j08474j1y571x0l6b..6y        ",
"      2hXX13////0i0n08//4k4w13////6c..6z        ",
"      2iXX2v0s0y0h0k3y484l4x225l0x0o6o70        ",
"      0uXX2w343c3i3r3z1r1w4y585m5w6d0q71        ",
"      0vXX0j193d3j++1n1s4m0959//5x6e..72        ",
"      0v062x++++1i0w080g1x1w5a0e0g6f..0p        ",
"      2jXX2y0m0m1i0n1o494n1z220e0m1r0q24        ",
"      2kXX2z351f3k3s401t4o4z5b0e5y6g1o73        ",
"      2l2p061a3e3l++1a4a4p090a5n25252728        ",
"        2q1414161d0d0d1l1v0o210p5z6h28          "};