/* XPM */
static char * xpm_calendar[] = {
"24 24 316 2",
"  	c None",
"XX	c #ffffff",
"++	c #b1def9",
"..	c #7db0de",
"||	c #9dd4f4",
"//	c #9ec7e9",
"06	c #91ccf1",
"07	c #dae3f3",
"08	c #2d7fc4",
"09	c #458dcc",
"0a	c #9ec7ea",
"0b	c #1458a5",
"0c	c #84d3f7",
"0d	c #6cc2ef",
"0e	c #3a9edd",
"0f	c #198dd8",
"0g	c #0a4192",
"0h	c #e3eef9",
"0i	c #9bc6e9",
"0j	c #155ba6",
"0k	c #95cff4",
"0l	c #81c2ec",
"0m	c #2f97d9",
"0n	c #9dd3f4",
"0o	c #9ac5e9",
"0p	c #b1ddf8",
"0q	c #97d1f3",
"0r	c #1559a5",
"0s	c #7db1dd",
"0t	c #185aa7",
"0u	c #97cff3",
"0v	c #9ed4f5",
"0w	c #abd0ee",
"0x	c #98d2f3",
"0y	c #a5cfef",
"0z	c #72b6e4",
"10	c #2a91d6",
"11	c #1b5ba7",
"12	c #95c1e8",
"13	c #dee6f6",
"14	c #5395d0",
"15	c #478dcc",
"16	c #4488c9",
"17	c #4085c5",
"18	c #3e81c3",
"19	c #3e80c2",
"1a	c #3d7fc1",
"1b	c #3b7bbe",
"1c	c #206ab5",
"1d	c #226ab4",
"1e	c #2168b1",
"1f	c #1c63af",
"1g	c #195eaa",
"1h	c #1b61ad",
"1i	c #1c539f",
"1j	c #77addc",
"1k	c #c8edff",
"1l	c #aee2fc",
"1m	c #a8ddfb",
"1n	c #a2d7f6",
"1o	c #d4e9f9",
"1p	c #d1e6fa",
"1q	c #a1d3f3",
"1r	c #86c2eb",
"1s	c #c4ddf5",
"1t	c #abd2f1",
"1u	c #65b0e5",
"1v	c #3ea0de",
"1w	c #a0c7ea",
"1x	c #9dc5eb",
"1y	c #4da1df",
"1z	c #1a5ea9",
"20	c #3b90d0",
"21	c #3c8acc",
"22	c #307ec4",
"23	c #4087c7",
"24	c #2264b0",
"25	c #1153a0",
"26	c #427abc",
"27	c #b6ddf9",
"28	c #e3edfa",
"29	c #bfdaf2",
"2a	c #95c2e9",
"2b	c #6dbae9",
"2c	c #54afe5",
"2d	c #bbe2fb",
"2e	c #bedaf2",
"2f	c #95c1e9",
"2g	c #59aade",
"2h	c #67b6e7",
"2i	c #56a6dd",
"2j	c #4095d6",
"2k	c #2c85cd",
"2l	c #1776c2",
"2m	c #1d4e9c",
"2n	c #a3d9f8",
"2o	c #cee2f6",
"2p	c #cae1f7",
"2q	c #afd3f1",
"2r	c #89c4ea",
"2s	c #abd1ef",
"2t	c #aaceed",
"2u	c #60abe2",
"2v	c #5ba7df",
"2w	c #9fc4e8",
"2x	c #9bc2e8",
"2y	c #4c9ddb",
"2z	c #195ba6",
"30	c #1e6eb7",
"31	c #1869b4",
"32	c #6b9ed3",
"33	c #6498ce",
"34	c #4d85c3",
"35	c #80b8e5",
"36	c #84c6ee",
"37	c #80c0ec",
"38	c #5fb1e5",
"39	c #3ea1df",
"3a	c #369cdc",
"3b	c #399cdb",
"3c	c #1e8bd5",
"3d	c #1586d2",
"3e	c #188ad5",
"3f	c #1c5ca7",
"3g	c #81b3de",
"3h	c #b6e2fc",
"3i	c #a4d9f8",
"3j	c #9ad2f4",
"3k	c #a9d6f3",
"3l	c #dfe9f8",
"3m	c #aad0ee",
"3n	c #95c1ea",
"3o	c #90bfe7",
"3p	c #87b9e6",
"3q	c #1659a5",
"3r	c #7eb2de",
"3s	c #9bd1f4",
"3t	c #aed7f3",
"3u	c #e3eef8",
"3v	c #a7cdee",
"3w	c #9ac6e9",
"3x	c #93c0e8",
"3y	c #1358a5",
"3z	c #7dafde",
"40	c #a8d5f3",
"41	c #d2e4f7",
"42	c #83c1ea",
"43	c #95c2e8",
"44	c #72b0e2",
"45	c #88bbe7",
"46	c #7db2de",
"47	c #9cd2f4",
"48	c #85c6ee",
"49	c #7ec1ec",
"4a	c #77bcea",
"4b	c #4aaae2",
"4c	c #3b9fde",
"4d	c #339bdc",
"4e	c #379bdc",
"4f	c #3097d9",
"4g	c #1c8ad4",
"4h	c #1086d2",
"4i	c #1688d5",
"4j	c #1c5ba7",
"4k	c #9bd2f3",
"4l	c #a1d1f1",
"4m	c #ebf2fb",
"4n	c #e9eff9",
"4o	c #aad2f1",
"4p	c #6cb7e7",
"4q	c #e2e9f8",
"4r	c #dde6f4",
"4s	c #7cb7e5",
"4t	c #57a7df",
"4u	c #dbe4f4",
"4v	c #6aacdf",
"4w	c #afd7f5",
"4x	c #dae7f7",
"4y	c #a8ceee",
"4z	c #9cc6ea",
"50	c #9cc6e9",
"51	c #93c0e7",
"52	c #b0d8f3",
"53	c #dce7f7",
"54	c #9fc8ea",
"55	c #98c2e8",
"56	c #1659a6",
"57	c #9ed3f5",
"58	c #aad4f2",
"59	c #8ac5ec",
"5a	c #55afe4",
"5b	c #78bae8",
"5c	c #55a6e0",
"5d	c #3f9ddb",
"5e	c #5da6dd",
"5f	c #59a3de",
"5g	c #9dd2f4",
"5h	c #aad5f4",
"5i	c #96c9ec",
"5j	c #48a8e2",
"5k	c #77bae8",
"5l	c #44a0dd",
"5m	c #3f9cdb",
"5n	c #5fa7de",
"5o	c #58a1dc",
"5p	c #aeddf8",
"5q	c #9bd1f2",
"5r	c #b1d7f4",
"5s	c #e7f0f9",
"5t	c #9ecaed",
"5u	c #9fc8e9",
"5v	c #99c3e9",
"5w	c #b1ddf9",
"5x	c #b0d8f4",
"5y	c #b5d6f0",
"5z	c #9bc6ea",
"60	c #81b2e0",
"61	c #b6e3fc",
"62	c #a3d9f7",
"63	c #9ad4f5",
"64	c #a2d1f1",
"65	c #edf3fb",
"66	c #e9eef9",
"67	c #b7d7f2",
"68	c #83beea",
"69	c #e0e9f8",
"6a	c #7bb7e5",
"6b	c #76b2e3",
"6c	c #d9e4f4",
"6d	c #6aade2",
"6e	c #175aa6",
"6f	c #2172ba",
"6g	c #1a6db7",
"6h	c #6ba1d4",
"6i	c #689ad0",
"6j	c #5086c4",
"6k	c #7eb8e3",
"6l	c #84c6ed",
"6m	c #80c3ec",
"6n	c #80bfea",
"6o	c #6eb8e7",
"6p	c #3ba0df",
"6q	c #369ddd",
"6r	c #399ddc",
"6s	c #1f8cd6",
"6t	c #1588d3",
"6u	c #188bd4",
"6v	c #1b5ca6",
"6w	c #58aade",
"6x	c #66b7e5",
"6y	c #56a6de",
"6z	c #4198d7",
"70	c #2b87cd",
"71	c #1778c2",
"72	c #1c4f9e",
"73	c #b3dff9",
"74	c #ecf3fb",
"75	c #e8eef9",
"76	c #c7def5",
"77	c #dee8f6",
"78	c #88bde6",
"79	c #75b2e3",
"7a	c #dbe4f5",
"7b	c #6aade1",
"7c	c #6dbbe9",
"7d	c #54afe7",
"7e	c #b8e1fb",
"7f	c #e1edf9",
"7g	c #bed9f2",
"7h	c #9bc5e8",
"7i	c #1558a6",
"7j	c #398bcd",
"7k	c #3987cc",
"7l	c #2e7cc2",
"7m	c #4081c2",
"7n	c #2062af",
"7o	c #114f9e",
"7p	c #427abd",
"7q	c #b7def8",
"7r	c #dde9f8",
"7s	c #b8d7f1",
"7t	c #a2cbeb",
"7u	c #90bee6",
"7v	c #88b9e6",
"7w	c #1659a7",
"7x	c #76acdb",
"7y	c #c9efff",
"7z	c #afe2fe",
"80	c #a9ddfb",
"81	c #9bd4f7",
"82	c #91cdf2",
"83	c #8bc9f0",
"84	c #86c5ee",
"85	c #7cbeea",
"86	c #44a6e3",
"87	c #3da3e0",
"88	c #359cdd",
"89	c #2893db",
"8a	c #1d8dd6",
"8b	c #1d91d9",
"8c	c #1c5da9",
"8d	c #5394d0",
"8e	c #468ccb",
"8f	c #4489c9",
"8g	c #4386c6",
"8h	c #4283c5",
"8i	c #4282c3",
"8j	c #3f7fc1",
"8k	c #417dc1",
"8l	c #3274ba",
"8m	c #256ab3",
"8n	c #2469b2",
"8o	c #2165b0",
"8p	c #2162ab",
"8q	c #1e63ae",
"8r	c #1b519d",
"                                                ",
"                                                ",
"    202b2g                            6w7c7j    ",
"    210c2h30                        6f6x0c7k    ",
"    220d2i31                        6g6y0d7l    ",
"081j232c2j323g3r3z460s..........0s606h6z7d7m7x08",
"141k240e2k333h++0p++0p++++++++5p5w616i700e7n7y8d",
"091l250f2l343i0n||0n||||0v575g0v||626j710f7o7z09",
"151m260g2m353j3s0q474k0u0u0x0x5q0q636k720g7p808e",
"161n272d2n0k3k3t40064l4w5206065r5x640k737e7q818f",
"171oXXXX2o36XXXXXX484mXXXX585hXXXX656l74XXXX828g",
"181pXXXX2p0lXXXXXX494nXXXX0y0yXXXX666m75XXXX838h",
"191q280h2q373l3u414a4o4x53595i5s0h676n767f7r848i",
"1a1r292e2r383m3v424b4p4y0w5a5j5t5y686o0w7g7s0l8j",
"1b1sXXXX2s39XXXXXX4c4qXXXX5b5kXXXX696p77XXXX858k",
"1c1tXXXX2t3aXXXXXX4d4rXXXX0z0zXXXX136q13XXXX868l",
"1d1u0a0a2u3b3n3w434e4s4z545c5l5u5z6a6r787h7t878m",
"1e1v//0i2v0m3o0o444f4t50//5d5m//0o6b0m790i7u888n",
"1f1wXXXX2w3cXXXXXX4g4uXXXX5e5nXXXX6c6s7aXXXX898o",
"1g1xXXXX2x3dXXXXXX4h07XXXX5f5oXXXX076t07XXXX8a8p",
"1h1y2a2f2y3e3p3x454i4v515510105v126d6u7b127v8b8q",
"1i1z0b0j2z3f3q3y0r4j0t0b5611110r0j6e6v0t7i7w8c8r",
"                                                ",
"                                                "};