/* XPM */
static char * xpm_car_key[] = {
"24 24 212 2",
"  	c None",
"XX	c #5c5f63",
"++	c #90d4f1",
"..	c #ade2f9",
"||	c #ace6fa",
"//	c #76777c",
"06	c #5a6061",
"07	c #7d7e85",
"08	c #d8d9db",
"09	c #c5c6c9",
"0a	c #d3d4d6",
"0b	c #a5a8ad",
"0c	c #b6b7bc",
"0d	c #a1a3a9",
"0e	c #e0e2e4",
"0f	c #54565d",
"0g	c #9da1a7",
"0h	c #bbbdc2",
"0i	c #bcbfc4",
"0j	c #cacbcd",
"0k	c #46484c",
"0l	c #72777b",
"0m	c #afb1b8",
"0n	c #c3c5c7",
"0o	c #d4d5d8",
"0p	c #e2e3e7",
"0q	c #93979b",
"0r	c #44474c",
"0s	c #8a8e94",
"0t	c #b6b9bd",
"0u	c #c7c8cd",
"0v	c #d7d8da",
"0w	c #e3e2e3",
"0x	c #156cc5",
"0y	c #1265c4",
"0z	c #0b59bb",
"10	c #898a90",
"11	c #edeff0",
"12	c #535659",
"13	c #9fa1a6",
"14	c #bcbdc2",
"15	c #c7c9cc",
"16	c #dededd",
"17	c #e7e7e9",
"18	c #2b9be3",
"19	c #31adea",
"1a	c #25a1e5",
"1b	c #1b99e6",
"1c	c #095fbf",
"1d	c #a7abae",
"1e	c #d7d8db",
"1f	c #424249",
"1g	c #6d6f76",
"1h	c #acb1b6",
"1i	c #c1c3c7",
"1j	c #d3d3d5",
"1k	c #80c4e9",
"1l	c #9ddef8",
"1m	c #39b2ed",
"1n	c #34ace8",
"1o	c #2ba0e5",
"1p	c #2098e2",
"1q	c #1796e3",
"1r	c #003ba8",
"1s	c #e7ddd2",
"1t	c #a5a6ab",
"1u	c #3f4145",
"1v	c #878d91",
"1w	c #b4b8b8",
"1x	c #c7c7cd",
"1y	c #d5d7d9",
"1z	c #dfe1e2",
"20	c #ade5fa",
"21	c #a7e0f8",
"22	c #53c0ef",
"23	c #38afea",
"24	c #2fa6e7",
"25	c #259ee4",
"26	c #1d95e1",
"27	c #0c88de",
"28	c #124a93",
"29	c #595453",
"2a	c #9ca0a3",
"2b	c #bbbcc1",
"2c	c #cccdcf",
"2d	c #d8d9dc",
"2e	c #e7e8e7",
"2f	c #c2e9f9",
"2g	c #b5e6fc",
"2h	c #a9e2f7",
"2i	c #80d3f5",
"2j	c #3ab1eb",
"2k	c #36ace8",
"2l	c #2ca3e5",
"2m	c #2198e1",
"2n	c #178fde",
"2o	c #0074d5",
"2p	c #537ea4",
"2q	c #cdc9c6",
"2r	c #d1d2d4",
"2s	c #dedfe3",
"2t	c #d3eefc",
"2u	c #bcecfd",
"2v	c #b5e8fc",
"2w	c #a9e3f9",
"2x	c #9ddbf6",
"2y	c #49b9ed",
"2z	c #38afeb",
"30	c #31a7e7",
"31	c #279ee4",
"32	c #1c95e0",
"33	c #138edf",
"34	c #005ac4",
"35	c #bac4cd",
"36	c #f0eae6",
"37	c #e2f4fd",
"38	c #bbecfc",
"39	c #b0e8fc",
"3a	c #4fbaec",
"3b	c #6cc2ea",
"3c	c #93daf7",
"3d	c #3bb1eb",
"3e	c #36ace9",
"3f	c #2da4e5",
"3g	c #239be2",
"3h	c #1890de",
"3i	c #0a88de",
"3j	c #004eb6",
"3k	c #b8e4f9",
"3l	c #e8f9ff",
"3m	c #45aee7",
"3n	c #88cbed",
"3o	c #6ccef3",
"3p	c #39b1eb",
"3q	c #32aae7",
"3r	c #289fe5",
"3s	c #1f95e1",
"3t	c #138edc",
"3u	c #0685dc",
"3v	c #003ba5",
"3w	c #dcf1fd",
"3x	c #def8ff",
"3y	c #71c4eb",
"3z	c #308cd4",
"40	c #99d6f0",
"41	c #4dbfef",
"42	c #35ade9",
"43	c #2ea4e6",
"44	c #249be2",
"45	c #1a91de",
"46	c #0f88dc",
"47	c #0680da",
"48	c #ecf9ff",
"49	c #c5effe",
"4a	c #4fa8e0",
"4b	c #3d8fd0",
"4c	c #a0ddf6",
"4d	c #45b9ee",
"4e	c #30a9e8",
"4f	c #29a0e5",
"4g	c #1f97e1",
"4h	c #158ddd",
"4i	c #0a8ade",
"4j	c #0048ad",
"4k	c #a6dcf6",
"4l	c #f7feff",
"4m	c #aae2f7",
"4n	c #358ad1",
"4o	c #5196d2",
"4p	c #a0e1f7",
"4q	c #3eb2eb",
"4r	c #2ba4e5",
"4s	c #249ce4",
"4t	c #1b91e0",
"4u	c #118fe0",
"4v	c #024db1",
"4w	c #c0e6f8",
"4x	c #f5feff",
"4y	c #8dd2ef",
"4z	c #1e68bf",
"50	c #7ec4e8",
"51	c #9adcf6",
"52	c #4db9ed",
"53	c #219de4",
"54	c #219ce4",
"55	c #1275d2",
"56	c #d6effc",
"57	c #e7fcff",
"58	c #60abdb",
"59	c #165eb3",
"5a	c #175ab0",
"5b	c #92d4f0",
"5c	c #9bdef6",
"5d	c #98dcf6",
"5e	c #6ecbf0",
"5f	c #116dc9",
"5g	c #f0f8ff",
"5h	c #cef0fe",
"5i	c #9bdcf4",
"5j	c #9edef5",
"5k	c #a7e3fa",
"5l	c #a1dcf7",
"5m	c #6eb3e1",
"5n	c #7eccf0",
"5o	c #f6ffff",
"5p	c #c2ecfd",
"5q	c #b8e8fa",
"5r	c #9bd7f2",
"5s	c #9ed8f3",
"5t	c #d8effc",
"5u	c #cae9fa",
"5v	c #b6dcf2",
"                      2t373k                    ",
"                    2f2u383l3w                  ",
"                  ++2g2v39||3x484k              ",
"                1k20..2w3a3m3y494l4w            ",
"                1l212h2x      4a4m4x56          ",
"              181m222i..3b      4n4y575g5n      ",
"            0x191n232j2y3c3n3z    4z585h5o5s    ",
"            0y1a1o242k2z3d3o404b    595i5p5t    ",
"            0z1b1p252l303e3p414c4o  5a5j||5u    ",
"              1c1q262m313f3q424d4p505b5k5q5v    ",
"                1r272n323g3r434e4q515c5l5r      ",
"                1s282o333h3s444f4r525d++        ",
"              1d1t292p343i3t454g4s535e5m        ",
"            101e1u2a2q353j3u464h4t545f          ",
"            111f1v2b2r36  3v474i4u55            ",
"          0pXX1g1w2c2s        4j4v              ",
"        0i0q121h1x2d                            ",
"      0d0j0r131i1y2e                            ",
"      0e0k0s141j1z                              ",
"    08XX0l0t15                                  ",
"  //090f0m0u16                                  ",
"    0a0g0n0v17                                  ",
"  060b0h0o0w                                    ",
"  070c                                          "};