/* XPM */
static char * xpm_clock[] = {
"24 24 319 2",
"  	c None",
"XX	c #ffffff",
"++	c #262324",
"..	c #1b1819",
"||	c #efeff0",
"//	c #e7e8e9",
"06	c #e3e4e6",
"07	c #dddddf",
"08	c #ebebec",
"09	c #dedfe1",
"0a	c #f4f5f6",
"0b	c #dfe0e1",
"0c	c #edeeef",
"0d	c #fbfdfe",
"0e	c #dadadc",
"0f	c #ceced0",
"0g	c #c1c3c6",
"0h	c #bebbbd",
"0i	c #f8fafb",
"0j	c #f8f9fa",
"0k	c #f2f3f3",
"0l	c #f3f4f4",
"0m	c #f4f4f5",
"0n	c #f2f3f4",
"0o	c #f1f2f2",
"0p	c #f0f1f1",
"0q	c #efe9e7",
"0r	c #b0afb1",
"0s	c #9b9a9c",
"0t	c #d5d6d8",
"0u	c #d2d4d6",
"0v	c #d7d2d1",
"0w	c #dbe9f4",
"0x	c #b4dbf0",
"0y	c #fffbf9",
"0z	c #f5f6f7",
"10	c #12459f",
"11	c #d4effb",
"12	c #d5effb",
"13	c #84d3f2",
"14	c #faf6f5",
"15	c #cecdcd",
"16	c #ebeced",
"17	c #63c7ee",
"18	c #daf0fb",
"19	c #c9ecfb",
"1a	c #73cff0",
"1b	c #dff0fb",
"1c	c #a9dff6",
"1d	c #060304",
"1e	c #5398d2",
"1f	c #0a89d9",
"1g	c #1268be",
"1h	c #f2eeed",
"1i	c #e9eaeb",
"1j	c #e5e6e8",
"1k	c #e2e3e5",
"1l	c #dad9d9",
"1m	c #cfd1d3",
"1n	c #d1d3d5",
"1o	c #cbcdd0",
"1p	c #d3cfcd",
"1q	c #dcd9da",
"1r	c #2382d1",
"1s	c #2d91d6",
"1t	c #3699db",
"1u	c #3da2de",
"1v	c #3c9ddc",
"1w	c #318dd4",
"1x	c #277bcb",
"1y	c #1c63bb",
"1z	c #339ddd",
"20	c #75caed",
"21	c #a0e1f6",
"22	c #a2e0f6",
"23	c #a0dcf6",
"24	c #94d7f3",
"25	c #6ecbf0",
"26	c #59c4ee",
"27	c #54c0ed",
"28	c #48b9ea",
"29	c #3499db",
"2a	c #1e67bc",
"2b	c #2b95dd",
"2c	c #6bc6eb",
"2d	c #caeefb",
"2e	c #daeff9",
"2f	c #cdebf8",
"2g	c #84d5f3",
"2h	c #62caf0",
"2i	c #5dc4ef",
"2j	c #55bfed",
"2k	c #4dbbeb",
"2l	c #4bb9eb",
"2m	c #44b5e8",
"2n	c #41b2e8",
"2o	c #3db4ea",
"2p	c #2583d0",
"2q	c #1854ad",
"2r	c #38a4e3",
"2s	c #8dd8f2",
"2t	c #d7effa",
"2u	c #d7eefa",
"2v	c #a9e2f7",
"2w	c #93d7f2",
"2x	c #5ab6e5",
"2y	c #6ebbe6",
"2z	c #6fbdeb",
"30	c #a1d4f2",
"31	c #97ccea",
"32	c #6db5e3",
"33	c #7bcbed",
"34	c #45b5e8",
"35	c #33a7e5",
"36	c #33aae6",
"37	c #248ed7",
"38	c #1859b2",
"39	c #2e9fe2",
"3a	c #91d9f4",
"3b	c #daf1fb",
"3c	c #d2edfa",
"3d	c #a3dff7",
"3e	c #85c9ea",
"3f	c #e1edf6",
"3g	c #9bc9e6",
"3h	c #7dcdee",
"3i	c #2da5e3",
"3j	c #29a3e2",
"3k	c #1f89d5",
"3l	c #154ca6",
"3m	c #74ceef",
"3n	c #d8f1fb",
"3o	c #d4ecfa",
"3p	c #9bdff5",
"3q	c #f4f2f0",
"3r	c #fefdfc",
"3s	c #cac9ca",
"3t	c #a9c8e3",
"3u	c #9bd6f0",
"3v	c #21a0e0",
"3w	c #219de0",
"3x	c #1874c8",
"3y	c #40b1e7",
"3z	c #cef0fd",
"40	c #dff2fb",
"41	c #ace5f8",
"42	c #fffffe",
"43	c #fafbfc",
"44	c #fafaf9",
"45	c #e6e5e7",
"46	c #fafbfa",
"47	c #fffffc",
"48	c #a1c6e2",
"49	c #9cd9f2",
"4a	c #1b9bdf",
"4b	c #1a9ae1",
"4c	c #1353aa",
"4d	c #8ad8f4",
"4e	c #def0fb",
"4f	c #c7ebfa",
"4g	c #8cd1f0",
"4h	c #f6f7f8",
"4i	c #e3e2e1",
"4j	c #7bb5df",
"4k	c #59bfea",
"4l	c #1493dd",
"4m	c #1578cd",
"4n	c #34aae6",
"4o	c #c0ecf9",
"4p	c #e1f2fb",
"4q	c #a2e1f7",
"4r	c #bad0e2",
"4s	c #aadcf1",
"4t	c #1294dc",
"4u	c #1491dc",
"4v	c #4fbdec",
"4w	c #ecebed",
"4x	c #eceded",
"4y	c #f1f0f1",
"4z	c #eeebeb",
"50	c #5ba5da",
"51	c #3db3e5",
"52	c #1090dc",
"53	c #1254ac",
"54	c #a7dcf2",
"55	c #f7f8f9",
"56	c #fcf7f3",
"57	c #8bbdde",
"58	c #67c8ec",
"59	c #0d8dda",
"5a	c #125db7",
"5b	c #bfeafa",
"5c	c #82d4ef",
"5d	c #c0eafa",
"5e	c #81d3f0",
"5f	c #a3d8f0",
"5g	c #eceeee",
"5h	c #221e1f",
"5i	c #85b7db",
"5j	c #65c7eb",
"5k	c #0c8bd9",
"5l	c #125db8",
"5m	c #4fbceb",
"5n	c #e6e2e4",
"5o	c #5ba6da",
"5p	c #38b0e4",
"5q	c #0e8ddb",
"5r	c #1255ac",
"5s	c #33aae7",
"5t	c #bdecf9",
"5u	c #e0f0fb",
"5v	c #a0dff7",
"5w	c #c3d7e6",
"5x	c #98b4cf",
"5y	c #aadef3",
"5z	c #0e8eda",
"60	c #118dda",
"61	c #8ad7f4",
"62	c #ddf0fb",
"63	c #c6e9f9",
"64	c #86cfee",
"65	c #d0d2d2",
"66	c #74b0db",
"67	c #50bfea",
"68	c #108dda",
"69	c #1175c9",
"6a	c #40b2e7",
"6b	c #cceffb",
"6c	c #dfeffb",
"6d	c #ace4f9",
"6e	c #9bcae6",
"6f	c #e2dcda",
"6g	c #7da7cd",
"6h	c #97dbf3",
"6i	c #1494dc",
"6j	c #1494de",
"6k	c #1350aa",
"6l	c #72cdef",
"6m	c #d8f0fa",
"6n	c #d2ecfa",
"6o	c #98dcf5",
"6p	c #93c4e4",
"6q	c #c9cccf",
"6r	c #80a9d0",
"6s	c #98d9f2",
"6t	c #1696de",
"6u	c #1696dd",
"6v	c #146ec5",
"6w	c #2f9de1",
"6x	c #8ad7f2",
"6y	c #d9effa",
"6z	c #d1ecf9",
"70	c #9fdff7",
"71	c #7bc3e8",
"72	c #b4ccdc",
"73	c #d8d4d5",
"74	c #c6c1c2",
"75	c #b2b3b7",
"76	c #86a2c0",
"77	c #93c3e5",
"78	c #75ccf0",
"79	c #1d9fdf",
"7a	c #1c99de",
"7b	c #1782d2",
"7c	c #164ca6",
"7d	c #37a3e2",
"7e	c #88d4f1",
"7f	c #d3eefa",
"7g	c #d5ecf9",
"7h	c #a2dff6",
"7i	c #8dd4f3",
"7j	c #71c3e9",
"7k	c #53a0d4",
"7l	c #489cd9",
"7m	c #7db9e1",
"7n	c #71aed8",
"7o	c #70bbe9",
"7p	c #77ccef",
"7q	c #37ace6",
"7r	c #249fdf",
"7s	c #239fe2",
"7t	c #1c86d4",
"7u	c #1657b0",
"7v	c #2895dc",
"7w	c #68c2ea",
"7x	c #bce9f9",
"7y	c #d8edfa",
"7z	c #c5e7f7",
"80	c #9fdbf4",
"81	c #54c1ee",
"82	c #50bfed",
"83	c #48b8ea",
"84	c #43b5e9",
"85	c #3bafe7",
"86	c #34a9e5",
"87	c #30a6e3",
"88	c #2ba7e4",
"89	c #1e7acd",
"8a	c #1854ab",
"8b	c #339adc",
"8c	c #6dc7ec",
"8d	c #a8e1f5",
"8e	c #ace1f6",
"8f	c #90d7f2",
"8g	c #85d3f1",
"8h	c #5ec3ed",
"8i	c #46b7ea",
"8j	c #41b5e9",
"8k	c #39ace6",
"8l	c #298ed7",
"8m	c #1e65bc",
"8n	c #2280d0",
"8o	c #2a8dd4",
"8p	c #3194d9",
"8q	c #3499dc",
"8r	c #3496d9",
"8s	c #2b87d1",
"8t	c #2576c9",
"8u	c #1d62b9",
"                4n4v171a1a175m5s                ",
"            3y4d4o11181b1b18115t616a            ",
"        393m3z4e4p12195b5d19125u626b6l6w        ",
"      2r3a3n404f4q13541c1c5f135v636c6m6x7d      ",
"    2b2s3b3o414g0w14140d1h1h5n5w646d6n6y7e7v    ",
"    2c2t3c3p0x0y++150j..090c1j++156e6o6z7f7w    ",
"  1z2d2u3d0x420j//4w0a0a0c16//090f6f6p707g7x8b  ",
"  202e2v3e0y0h0i0m0o0z..095g0606090e1q717h7y8c  ",
"1r212f2w3f3q++0i0n0p55..0h||1k0b07++1q727i7z8d8n",
"1s222g2xXX3r434h0n0p0d..0r0n1k0b070u0r737j808e8o",
"1t232h2yXXXX440a0m0o0d..0rXX0m||1i06090v7k818f8p",
"1u242i2zXX0hXX0k0c4x0d..0sXXXXXXXX06090v7l828g8q",
"1v252j30XX++XX0k||080j1d1d5h........0s0v7m838h8r",
"1w262k31XXXX0i0k||08080a0l081j070u1o6q747n848i8s",
"1x272l32XX3s||0l||08//060b0e0t1m1o0g0g757o858j8t",
"1y282m330w++450l||08//060b0e0t1m1n++0g767p868k8u",
"  292n343gXX460z0a16//060b0e0t1n0u0g1p777q878l  ",
"  2a2o353h3t474i++0p//0c1i070f++651p6r787r888m  ",
"    2p363i3u4807074y0o++0s//1l0f0f6g6s797s89    ",
"    2q373j3v494j4r4z560q0q0q1l5x666h6t7a7t8a    ",
"      383k3w4a4k4s50571e1e5i5o5y676i6u7b7u      ",
"        3l3x4b4l4t51585c5e5j5p5z686j6v7c        ",
"            4c4m4u52591f1f5k5q60696k            ",
"                10535a1g1g5l5r10                "};