/* XPM */
static char * xpm_close[] = {
"24 24 301 2",
"XX	c #ffffff",
"++	c #f36564",
"..	c #f58f79",
"||	c #f6937d",
"//	c #f6947e",
"05	c #f6927c",
"06	c #f58d77",
"07	c #f6917b",
"08	c #ee2828",
"09	c #b81117",
"0a	c #f58370",
"0b	c #f5907a",
"0c	c #f58a75",
"0d	c #ed1c24",
"  	c None",
"0f	c #ef4a34",
"0g	c #ef4131",
"0h	c #ee372d",
"0i	c #ef4532",
"0j	c #ee2d2a",
"0k	c #ed2427",
"0l	c #f4806e",
"0m	c #ed2226",
"0n	c #b91117",
"0o	c #f5816e",
"0p	c #ef4633",
"0q	c #ee2929",
"0r	c #f58874",
"0s	c #ef4934",
"0t	c #ed2426",
"0u	c #ed2326",
"0v	c #ba1218",
"0w	c #f2595d",
"0x	c #fef4f5",
"0y	c #aa0f14",
"0z	c #ed2126",
"10	c #b91217",
"11	c #ed2025",
"12	c #e65359",
"13	c #ee312c",
"14	c #f58c77",
"15	c #ee2c2a",
"16	c #ed1d24",
"17	c #f47c6b",
"18	c #f47e6c",
"19	c #f16161",
"1a	c #ee6261",
"1b	c #bd161a",
"1c	c #f36162",
"1d	c #f58b75",
"1e	c #f58672",
"1f	c #f47e6d",
"1g	c #f04e37",
"1h	c #ee332c",
"1i	c #ee2e2a",
"1j	c #b61217",
"1k	c #ce2522",
"1l	c #ee322c",
"1m	c #ee2928",
"1n	c #f48473",
"1o	c #ec575c",
"1p	c #b61218",
"1q	c #b41318",
"1r	c #f0585d",
"1s	c #f59498",
"1t	c #ea565b",
"1u	c #ef4c36",
"1v	c #bb141a",
"1w	c #cd6a6d",
"1x	c #af1116",
"1y	c #f69598",
"1z	c #f0523a",
"20	c #f04f38",
"21	c #c0151b",
"22	c #ca696c",
"23	c #f8bfc1",
"24	c #cd171f",
"25	c #ed2527",
"26	c #f58e78",
"27	c #ec545a",
"28	c #f7bfc1",
"29	c #e32c28",
"2a	c #e95359",
"2b	c #f6bfc1",
"2c	c #da6d71",
"2d	c #c3171d",
"2e	c #ed1f25",
"2f	c #ed1e25",
"2g	c #ed1e24",
"2h	c #ef575c",
"2i	c #ef4b35",
"2j	c #f26464",
"2k	c #f26061",
"2l	c #ef4030",
"2m	c #b31016",
"2n	c #ef5f60",
"2o	c #b91218",
"2p	c #f06362",
"2q	c #ef6362",
"2r	c #ec6160",
"2s	c #ea6060",
"2t	c #e9605f",
"2u	c #e75f5f",
"2v	c #e55e5e",
"2w	c #e35d5d",
"2x	c #e05656",
"2y	c #d52525",
"2z	c #d32324",
"30	c #d12222",
"31	c #ce2021",
"32	c #cc1f20",
"33	c #c91d1f",
"34	c #c71b1e",
"35	c #c4191d",
"36	c #f47c71",
"37	c #f6927b",
"38	c #f58974",
"39	c #f58471",
"3a	c #f2614c",
"3b	c #ef3d2f",
"3c	c #d51d20",
"3d	c #f37b6e",
"3e	c #f38070",
"3f	c #f47966",
"3g	c #f05139",
"3h	c #ef4d37",
"3i	c #e33029",
"3j	c #ef585c",
"3k	c #f37e6e",
"3l	c #f58671",
"3m	c #f26650",
"3n	c #f05039",
"3o	c #ef4d36",
"3p	c #e22b27",
"3q	c #ba1318",
"3r	c #f58675",
"3s	c #ef7479",
"3t	c #f27c6d",
"3u	c #f0553e",
"3v	c #f05038",
"3w	c #d12724",
"3x	c #e4a6a9",
"3y	c #e12625",
"3z	c #f58777",
"40	c #ed7378",
"41	c #e7565b",
"42	c #f2796b",
"43	c #f3735e",
"44	c #dc3229",
"45	c #e6a7a9",
"46	c #da2022",
"47	c #f4706a",
"48	c #f2555b",
"49	c #fabfc2",
"4a	c #ef9497",
"4b	c #e4565a",
"4c	c #ee5e4e",
"4d	c #e0382d",
"4e	c #c4161d",
"4f	c #e8a7aa",
"4g	c #faf0f0",
"4h	c #ba3c40",
"4i	c #df2123",
"4j	c #f36b67",
"4k	c #f0555b",
"4l	c #f9bfc1",
"4m	c #ed9497",
"4n	c #da2b30",
"4o	c #ea4735",
"4p	c #e23a2e",
"4q	c #c9161e",
"4r	c #e9a8aa",
"4s	c #faf0f1",
"4t	c #bf3d42",
"4u	c #e12525",
"4v	c #ed2627",
"4w	c #f26a66",
"4x	c #ee545a",
"4y	c #e56f74",
"4z	c #d31c21",
"50	c #eba8ab",
"51	c #d16b6e",
"52	c #e22926",
"53	c #ee2a29",
"54	c #f2736a",
"55	c #e26f73",
"56	c #e37d81",
"57	c #d46c70",
"58	c #b91519",
"59	c #ee2f2b",
"5a	c #f1756a",
"5b	c #d76d71",
"5c	c #bf161b",
"5d	c #e43029",
"5e	c #f07369",
"5f	c #ef9b9e",
"5g	c #e5342b",
"5h	c #f37c6d",
"5i	c #ed9094",
"5j	c #db2c27",
"5k	c #f5917a",
"5l	c #f37e6f",
"5m	c #f09497",
"5n	c #e7a7aa",
"5o	c #d92825",
"5p	c #f48070",
"5q	c #f19497",
"5r	c #e57d81",
"5s	c #e06e73",
"5t	c #e5a7a9",
"5u	c #d72423",
"5v	c #ed2728",
"5w	c #f6927d",
"5x	c #f48271",
"5y	c #f39498",
"5z	c #efa8ab",
"60	c #d11820",
"61	c #dd6e72",
"62	c #e3a6a8",
"63	c #b01116",
"64	c #c5191c",
"65	c #ed2628",
"66	c #f27479",
"67	c #f4bfc1",
"68	c #d8272f",
"69	c #e43a2f",
"6a	c #e84131",
"6b	c #cb191f",
"6c	c #db6d72",
"6d	c #e1a5a8",
"6e	c #ab0f14",
"6f	c #c1161a",
"6g	c #f48574",
"6h	c #f3757a",
"6i	c #e35359",
"6j	c #ea5247",
"6k	c #f04e38",
"6l	c #e83e2f",
"6m	c #c7181e",
"6n	c #d86d71",
"6o	c #dfa5a7",
"6p	c #a60d13",
"6q	c #c2151a",
"6r	c #f26564",
"6s	c #f47e70",
"6t	c #ee6e65",
"6u	c #f36f5c",
"6v	c #e73a2d",
"6w	c #c84045",
"6x	c #fbf0f1",
"6y	c #df1c21",
"6z	c #f48372",
"70	c #f0585c",
"71	c #ec6461",
"72	c #f0503a",
"73	c #e6352b",
"74	c #be161b",
"75	c #c43f43",
"76	c #af1016",
"77	c #e02023",
"78	c #f48170",
"79	c #ee6562",
"7a	c #f1604d",
"7b	c #ee3c2f",
"7c	c #e43129",
"7d	c #b91419",
"7e	c #b41218",
"7f	c #e12425",
"7g	c #b71117",
"7h	c #f47f6f",
"7i	c #f06a64",
"7j	c #f37462",
"7k	c #ee3b2f",
"7l	c #df2625",
"7m	c #f37a6f",
"7n	c #f58873",
"7o	c #f58571",
"7p	c #f47c6a",
"7q	c #f37968",
"7r	c #f15a47",
"7s	c #ef4432",
"7t	c #ee3b2e",
"7u	c #ee362d",
"7v	c #d3171e",
"7w	c #ed6160",
"7x	c #eb6060",
"7y	c #ea605f",
"7z	c #e85f5f",
"80	c #e75e5e",
"81	c #e55d5d",
"82	c #e35c5d",
"83	c #e15b5b",
"84	c #de5454",
"85	c #d32223",
"86	c #d02022",
"87	c #cd1e21",
"88	c #cb1d1f",
"89	c #c91b1f",
"8a	c #c6191d",
"8b	c #c3171c",
"8c	c #c0151a",
"  1c1c++++++++++++++++++++++++++++++6r2j2j2k2k  ",
"1936////////////////||||||||||5w0505050507077m2n",
"19||||||||3z470505050507075k0b0b0b6g6s........2n",
"2p3707073r0w484j0b0b..........261n0w0w6z0606141a",
"2q....1n1r1y494k4w2606060614145x1r6h1y70780c0c7w",
"1a063d3j1sXXXX4l4x541d0c0c0c5p2h660xXX1s2h7h7n7x",
"2r1d3e1o3s0xXXXX23275a0r0r5l1o5yXXXXXX23277i7o7y",
"2s380r3k1t400xXXXX282a5e5h1t5qXXXXXX282a790a0a7z",
"2t1e1e3l3t414aXXXXXX2b12125mXXXXXX2b12710o0l0l80",
"2u390a0a0a424b4mXXXXXX5f5iXXXXXX676i6t1f18181881",
"2v0o0o0l0l434c4n4yXXXXXXXXXXXX5z686j6u1717177p82",
"2w1f3f3m3u1z1z4o4z55XXXXXXXX5r60696k1g727a7j7q83",
"2x3a3g3n3v20204p2456XXXXXXXX5s246a2i2i0f0f0s7r84",
"2y1g3h3o1u1u4d4q50XXXXXXXXXXXX616b6l0p0p0i0i7s85",
"2z0f0f0s0s444e4rXXXXXX2c2cXXXXXX6c6m6v0g0g2l2l86",
"300p0i0i3w214fXXXXXX5b2d215nXXXXXX6n2d737b7k7t87",
"310g0g1k1v45XXXXXX575c5g5j1v5tXXXXXX6w747c0h7u88",
"323b1k1p3xXXXX4s51585d0h0h5o1p62XXXX6x757d291389",
"330h3i1q1wXX4g4t1q291h1l13135u636dXXXX1w7e7l158a",
"341h1l3p1x224h1x52591i0j0j1515646e6o22767f08088b",
"351i0j0j3y0y0y4u530q0q1m08085v656f6p0y770k0t0u8c",
"1b0q1m0808464i4v25250k0k0t0u0m0m0z6q6y112e2f2g2o",
"1b3c0k0t0u0m0m0z0z11112e2f2g1616160d0d0d0d0d7v2o",
"  1j1j3q0v0v0v1010100n0n0n0n0909090909097g2m2m  "};