/* XPM */
static char * xpm_coin[] = {
"24 24 401 2",
"  	c None",
"XX	c #e7b345",
"++	c #a55e1e",
"..	c #dd9c26",
"||	c #d99f1a",
"//	c #fcf8ab",
"06	c #d2ad56",
"07	c #e4cf56",
"08	c #c39a40",
"09	c #ebae00",
"0a	c #d8b957",
"0b	c #edc04a",
"0c	c #f1c963",
"0d	c #e8a90d",
"0e	c #dba156",
"0f	c #deae3b",
"0g	c #d99d00",
"0h	c #f4d321",
"0i	c #c76f00",
"0j	c #e9b01a",
"0k	c #c46a00",
"0l	c #ebb10f",
"0m	c #c26800",
"0n	c #d2af47",
"0o	c #ecdc58",
"0p	c #f0ba15",
"0q	c #f2d500",
"0r	c #f0cb00",
"0s	c #edc400",
"0t	c #ebbe00",
"0u	c #ecb800",
"0v	c #be6200",
"0w	c #f4c73c",
"0x	c #ffd723",
"0y	c #f6ce4b",
"0z	c #fffcc0",
"10	c #fffbc4",
"11	c #f9eb2b",
"12	c #ffc61f",
"13	c #c1740c",
"14	c #d1ab2c",
"15	c #ffcd21",
"16	c #e9a600",
"17	c #e8a000",
"18	c #edc100",
"19	c #e9a700",
"1a	c #df910a",
"1b	c #f4cf5e",
"1c	c #f6db3d",
"1d	c #f0c857",
"1e	c #e2a210",
"1f	c #df9a13",
"1g	c #e4ab39",
"1h	c #e5b046",
"1i	c #f0cd77",
"1j	c #f9edb0",
"1k	c #fcf2b9",
"1l	c #f4dd99",
"1m	c #f1d784",
"1n	c #eed06a",
"1o	c #eed064",
"1p	c #f9ec74",
"1q	c #f3dd5e",
"1r	c #e2af2f",
"1s	c #cf7e07",
"1t	c #fdf3bd",
"1u	c #edd193",
"1v	c #dba457",
"1w	c #f4e34d",
"1x	c #d99917",
"1y	c #f7df93",
"1z	c #f7e7b4",
"20	c #e6c174",
"21	c #f6e999",
"22	c #faf79c",
"23	c #faf58c",
"24	c #f8f15b",
"25	c #f9f14a",
"26	c #f7f035",
"27	c #f8ef1e",
"28	c #f0dd06",
"29	c #cd7f0c",
"2a	c #f3e03c",
"2b	c #e4b61e",
"2c	c #f7e194",
"2d	c #f7e7b5",
"2e	c #da9c4d",
"2f	c #f4e496",
"2g	c #fcf7a8",
"2h	c #faf6a0",
"2i	c #faf594",
"2j	c #f9f477",
"2k	c #f9f150",
"2l	c #f8f13b",
"2m	c #f7f024",
"2n	c #f7ee0b",
"2o	c #f7ea01",
"2p	c #f5e302",
"2q	c #ebc500",
"2r	c #cb7800",
"2s	c #efd725",
"2t	c #e2b317",
"2u	c #f4cf62",
"2v	c #fbefc0",
"2w	c #dba04e",
"2x	c #f9f1a4",
"2y	c #fcf6a3",
"2z	c #faf598",
"30	c #f9f68b",
"31	c #f9f261",
"32	c #f8f141",
"33	c #f7f02b",
"34	c #f8ef13",
"35	c #f7ec02",
"36	c #f6e602",
"37	c #f4dd01",
"38	c #f3d700",
"39	c #e8bc00",
"3a	c #cd7b02",
"3b	c #f4da24",
"3c	c #d48f0a",
"3d	c #efbd29",
"3e	c #fef4c2",
"3f	c #e1b063",
"3g	c #f2df90",
"3h	c #f1e48e",
"3i	c #f4eb7d",
"3j	c #f9f24c",
"3k	c #f7f031",
"3l	c #f8ee19",
"3m	c #f7ed04",
"3n	c #f6e802",
"3o	c #f5df01",
"3p	c #f3d800",
"3q	c #f0ce00",
"3r	c #eec700",
"3s	c #e4ae00",
"3t	c #d59009",
"3u	c #c66e00",
"3v	c #f8da7a",
"3w	c #f6e3ad",
"3x	c #e7bd68",
"3y	c #dabe57",
"3z	c #f5e8a1",
"40	c #f8f137",
"41	c #f8ef21",
"42	c #f7ee08",
"43	c #f7e902",
"44	c #f5e102",
"45	c #f4db00",
"46	c #f2d200",
"47	c #efca00",
"48	c #edc200",
"49	c #ecbd00",
"4a	c #d99000",
"4b	c #efc61d",
"4c	c #dc990d",
"4d	c #fdf2bb",
"4e	c #e8bb6c",
"4f	c #f5e797",
"4g	c #f3e794",
"4h	c #ddbd5c",
"4i	c #fffbc2",
"4j	c #fffbbb",
"4k	c #f7f026",
"4l	c #f8ef0f",
"4m	c #f7eb02",
"4n	c #f5e502",
"4o	c #f4dc00",
"4p	c #e7a900",
"4q	c #e0a10f",
"4r	c #f4c41c",
"4s	c #fffcd5",
"4t	c #e4b056",
"4u	c #ddc15c",
"4v	c #fffbc1",
"4w	c #f9f0ad",
"4x	c #eddd53",
"4y	c #e8d21a",
"4z	c #e7d00c",
"50	c #e6ca0a",
"51	c #e2c30a",
"52	c #e1ba09",
"53	c #e0b408",
"54	c #dead07",
"55	c #dda807",
"56	c #daa208",
"57	c #da9d09",
"58	c #d88b03",
"59	c #c97202",
"5a	c #fcf1be",
"5b	c #e7b95c",
"5c	c #f7ef9c",
"5d	c #fffbc5",
"5e	c #f5e8a0",
"5f	c #c8a233",
"5g	c #c5992a",
"5h	c #bf9520",
"5i	c #bd8e19",
"5j	c #bc8618",
"5k	c #bd8019",
"5l	c #be7b17",
"5m	c #be7718",
"5n	c #c27819",
"5o	c #d89209",
"5p	c #db8d02",
"5q	c #fdd01f",
"5r	c #d07e05",
"5s	c #f7e6ac",
"5t	c #e9c062",
"5u	c #f2e78c",
"5v	c #ddbd5e",
"5w	c #fff9b9",
"5x	c #fff8ae",
"5y	c #fef692",
"5z	c #fbf472",
"60	c #faf25b",
"61	c #f9f240",
"62	c #fce526",
"63	c #ffdb23",
"64	c #ffd022",
"65	c #ffc920",
"66	c #d88f09",
"67	c #dc8f02",
"68	c #f6c118",
"69	c #f8e7ac",
"6a	c #eac261",
"6b	c #f2e687",
"6c	c #fffcbf",
"6d	c #fff9b7",
"6e	c #fff8ad",
"6f	c #fdf693",
"6g	c #fbf471",
"6h	c #faf259",
"6i	c #f9f13e",
"6j	c #fce326",
"6k	c #ffda23",
"6l	c #ffd021",
"6m	c #ffc721",
"6n	c #d78c09",
"6o	c #dd9103",
"6p	c #f7c118",
"6q	c #fffcca",
"6r	c #eac058",
"6s	c #f2e680",
"6t	c #f7eaa6",
"6u	c #f6e9a3",
"6v	c #f4e79e",
"6w	c #f3e597",
"6x	c #f0e185",
"6y	c #ead75c",
"6z	c #e8d34b",
"70	c #e7d036",
"71	c #e6ca2b",
"72	c #e6c226",
"73	c #e8b924",
"74	c #e8b222",
"75	c #e9ab1f",
"76	c #eaaa1f",
"77	c #d58909",
"78	c #df9304",
"79	c #ffcf22",
"7a	c #d07c05",
"7b	c #fffccd",
"7c	c #eabb53",
"7d	c #f7f282",
"7e	c #e3cc4a",
"7f	c #e0c942",
"7g	c #ddc13b",
"7h	c #c2910a",
"7i	c #c1880a",
"7j	c #bd810a",
"7k	c #ba7a0b",
"7l	c #b7740b",
"7m	c #b56e0c",
"7n	c #b3680e",
"7o	c #b1680e",
"7p	c #b4670f",
"7q	c #e29303",
"7r	c #e5a30b",
"7s	c #c97000",
"7t	c #fcf1b6",
"7u	c #f2d378",
"7v	c #f4dc67",
"7w	c #faf46f",
"7x	c #f9f35d",
"7y	c #faf44a",
"7z	c #f9f141",
"80	c #f8eb41",
"81	c #f7e438",
"82	c #ecb300",
"83	c #eaab00",
"84	c #e79800",
"85	c #e59802",
"86	c #f2b613",
"87	c #f7b916",
"88	c #f7da77",
"89	c #fcf1b1",
"8a	c #f9f361",
"8b	c #faf450",
"8c	c #f9f243",
"8d	c #f8ec41",
"8e	c #f8e741",
"8f	c #f7e13f",
"8g	c #f0cd00",
"8h	c #eec600",
"8i	c #ecbb00",
"8j	c #edb500",
"8k	c #e8a100",
"8l	c #e79a00",
"8m	c #e69400",
"8n	c #e7a308",
"8o	c #ffc91a",
"8p	c #fdf3b8",
"8q	c #f5db7b",
"8r	c #f4d94b",
"8s	c #f9f345",
"8t	c #f8ed40",
"8u	c #f8e941",
"8v	c #f7e43f",
"8w	c #f6dd3d",
"8x	c #f4cf0b",
"8y	c #ecbc00",
"8z	c #ecb600",
"90	c #ecb000",
"91	c #eaa900",
"92	c #e8a300",
"93	c #e89d00",
"94	c #e79700",
"95	c #e79e04",
"96	c #f5bc13",
"97	c #fac018",
"98	c #c66b00",
"99	c #fef9b8",
"9a	c #f4d265",
"9b	c #f6de43",
"9c	c #f8ea41",
"9d	c #f7e440",
"9e	c #f7de3e",
"9f	c #f4cf1a",
"9g	c #ecbe00",
"9h	c #ecb700",
"9i	c #ecb200",
"9j	c #eaaa00",
"9k	c #e89f00",
"9l	c #e69900",
"9m	c #e89d02",
"9n	c #f3ba11",
"9o	c #f6df87",
"9p	c #fef5a4",
"9q	c #f6d968",
"9r	c #f5d545",
"9s	c #f7df3f",
"9t	c #f5d73c",
"9u	c #f4cf2f",
"9v	c #ecba00",
"9w	c #ecb400",
"9x	c #ebad00",
"9y	c #e89c00",
"9z	c #eba805",
"a0	c #f4be11",
"a1	c #ffcf21",
"a2	c #e8a30f",
"a3	c #f6de82",
"a4	c #fdf7a2",
"a5	c #f9e273",
"a6	c #f5ce4a",
"a7	c #f5d141",
"a8	c #f5d23e",
"a9	c #f4ce3d",
"aa	c #efb806",
"ab	c #eaa800",
"ac	c #eba700",
"ad	c #edab04",
"ae	c #f0b60a",
"af	c #f9ca18",
"ag	c #ffd122",
"ah	c #e9a511",
"ai	c #faef92",
"aj	c #fcf385",
"ak	c #f9e76b",
"al	c #f6d955",
"am	c #f6d54d",
"an	c #f2c123",
"ao	c #f2b909",
"ap	c #f4c310",
"aq	c #f5c613",
"ar	c #f9cf1a",
"as	c #f9c91d",
"at	c #db9009",
"au	c #eecc5b",
"av	c #f7e977",
"aw	c #fbf571",
"ax	c #faf464",
"ay	c #faf159",
"az	c #fae929",
"b0	c #fbe526",
"b1	c #fde025",
"b2	c #f6ca1d",
"b3	c #e4a92b",
"b4	c #e5b02c",
"                0p0w0y0b0b0y0w0p                ",
"            3d3v4d4s5a5s696q7b7t881b            ",
"        0l2u3e3w4e4t5b5t6a6r7c7u898p1b0l        ",
"      0j2c2v3f3x4f//5c5u6b6s7d7v0b8q999o0j      ",
"    0d1y2d2w3g//4g4u0a5v0a0a077w8a8r9a9pa30d    ",
"    0c1z2e2x3h3y4h075d10106t7e7x8b8s9b9qa41d    ",
"  0c1t0e2f//0n074i4v0z0z6c6u7f7y8c8t9c9ra5ai1d  ",
"  1i1u202g2y0n3z4j4w5e5w6d6v7g7z8d8u9d9sa6ajau  ",
"1f1j0e212h2z06060608085x6e6w14808e8v9e1ca7akav  ",
"1g1k1v222i303i0o0o4x085y6f6x14818f8w1c9ta8alawb3",
"1h1l0f232j313j404k4y5f5z6g6y7h0q8g8x9f9ua9amaxb4",
"..1m0f242k323k414l4z5g606h6z7i0r8h189g9vaaanay..",
"..1n||252l333l424m505h616i707j0s188y9h9w09aoaz..",
"XX1o||262m343m434n515i1111717k0t8i8z9i9xabapb0XX",
"XX1p||272n353n444o525j626j727l0u8j909j19acaqb1XX",
"XX1q0g282o363o450q535k636k737m8209911617adarb2XX",
"  1r0h0g2p373p460r545l646l747n8319929k9yae0x1e  ",
"  1s1w292q383q470s555m656m757o168k939l9zafas1e  ",
"    1x2a2r393r480t565n1212767p178l949ma0agat    ",
"    0i2b2s3a3s490u57++++++++++848m959na1ah0i    ",
"      0k2t3b3t4a4p095o666n777q858n9615a20k      ",
"        0m3c0h4b4q585p676o787r868o971a0m        ",
"            3u4c4r0x5q686p7915871a98            ",
"                0v595r13137a7s0v                "};