/* XPM */
static char * xpm_comment[] = {
"24 24 112 2",
"  	c None",
"XX	c #ffffff",
"++	c #b4e6fa",
"..	c #b3e6fa",
"||	c #41aee8",
"//	c #b7e7fa",
"06	c #99d8f4",
"07	c #5290cc",
"08	c #4ab6eb",
"09	c #3bace8",
"0a	c #88d5f3",
"0b	c #dfe8f0",
"0c	c #1f7ac9",
"0d	c #51b2e7",
"0e	c #82cdee",
"0f	c #338cd3",
"0g	c #89d5f3",
"0h	c #1f6cbd",
"0i	c #1f6cbc",
"0j	c #74bfe8",
"0k	c #75bfe9",
"0l	c #e5ebf2",
"0m	c #81d5f5",
"0n	c #b6e6fa",
"0o	c #42b0e9",
"0p	c #3fa2df",
"0q	c #3caee9",
"0r	c #73bee8",
"0s	c #3aa9e6",
"0t	c #124b9e",
"0u	c #a8e0f8",
"0v	c #a5def7",
"0w	c #7dc8ed",
"0x	c #79c6eb",
"0y	c #76c1ea",
"0z	c #3f9bdb",
"10	c #3a98d8",
"11	c #b6e7fa",
"12	c #b8e8fb",
"13	c #b4e6fb",
"14	c #b1e4f9",
"15	c #aee4f9",
"16	c #62c3f0",
"17	c #59bfee",
"18	c #53bbec",
"19	c #4ab8ed",
"1a	c #b5e6fa",
"1b	c #b1e5fa",
"1c	c #afe3f8",
"1d	c #ace2f8",
"1e	c #61c2f0",
"1f	c #58beee",
"1g	c #52b8eb",
"1h	c #48b2e9",
"1i	c #b9e8fa",
"1j	c #a6e0f8",
"1k	c #46a7e2",
"1l	c #48b4e9",
"1m	c #247bc9",
"1n	c #50b1e7",
"1o	c #207ac9",
"1p	c #8fd9f6",
"1q	c #90daf6",
"1r	c #81d3f5",
"1s	c #2fa3e4",
"1t	c #1e9ee5",
"1u	c #1567ba",
"1v	c #73bee7",
"1w	c #66b6e4",
"1x	c #409edd",
"1y	c #8fd6f5",
"1z	c #67c6f1",
"20	c #a3ddf6",
"21	c #7ed0f3",
"22	c #67c6f0",
"23	c #a5def6",
"24	c #75cff3",
"25	c #4daee4",
"26	c #74bfe9",
"27	c #52b3e7",
"28	c #9bddf7",
"29	c #72bee8",
"2a	c #99ddf8",
"2b	c #2070be",
"2c	c #2da3e4",
"2d	c #1c6bbd",
"2e	c #26a3e5",
"2f	c #196dbf",
"2g	c #144ea1",
"2h	c #269ee1",
"2i	c #30a6e6",
"2j	c #27a2e4",
"2k	c #179ce7",
"2l	c #1f6abb",
"2m	c #1853a6",
"2n	c #1751a5",
"2o	c #144ea0",
"2p	c #73bfe9",
"2q	c #98dcf7",
"2r	c #53b2e7",
"2s	c #98daf5",
"2t	c #6ccbf4",
"2u	c #4eafe4",
"2v	c #a5ddf6",
"2w	c #6ac9f3",
"2x	c #68c6f0",
"2y	c #a6dff7",
"2z	c #76cff3",
"30	c #69c7f1",
"31	c #74bfe7",
"32	c #4faae3",
"33	c #429fdd",
"                                                ",
"  0g0g0g0g0a0a0a0a0a0a0a0a0a0a0a0a0a0a0g0g0g0g  ",
"0e0n0n1i////////////////////////////////1i0n0n0e",
"0e111a++++++++++++++++++++++++++++++++++++1a110e",
"0e12....++............................++....120e",
"0e131b1j060606060606060606060606060606061j1b130e",
"0w141c0kXXXXXXXXXXXXXXXXXXXXXXXXXXXXXXXX0k1c140w",
"0x151d0kXXXXXXXXXXXXXXXXXXXXXXXXXXXXXXXX0k1d150x",
"0y0u0v0k260r290r0r0j0j0j0j0j0j0j0j0r2p0k0k0v0u0y",
"1v0v20230u282a1p1q1r0m0m0m0m0m0m1r1q1p2q2s2v2y31",
"1w1y2124271n1n0d0d0d0d0d0d0d0d0d0d0d0d2r2t2w2z32",
"1x1z2225070707070707070707070707070707072u2x3033",
"0z161e1k0lXXXXXXXXXXXXXXXXXXXXXXXXXXXX0l1k1e160z",
"10171f0p0l0l0b0b0b0b0b0b0b0b0b0b0b0b0l0l0p1f1710",
"0f181g0p1m1o0c0c0c0c0c0c0c0c0c0c0c0c1o1m0p1g180f",
"0f191h1l080808080808080808080808080808081l1h190f",
"0f0o0o||||||||||||||||||||||||||||||||||||0o0o0f",
"0f09090q090909090909090s0s0s0s09090909090q0q0q0f",
"  0h0h0h0h0i0i0i0i0i2b2c1s1s2i2l0i0i0i0h0h0h0h  ",
"                      2d2e2h2j2m                ",
"                        2f1t1t2n                ",
"                        2g1u2k2o                ",
"                          0t1u0t                ",
"                            0t0t                "};