/* XPM */
static char * xpm_component[] = {
"24 24 285 2",
"  	c None",
"XX	c #63be38",
"++	c #5ebb39",
"..	c #9dd66c",
"||	c #63bd38",
"//	c #25662a",
"06	c #5dba39",
"07	c #57b739",
"08	c #66be37",
"09	c #a0d66c",
"0a	c #5bba39",
"0b	c #2c792e",
"0c	c #a8db6b",
"0d	c #5ab839",
"0e	c #9ed56f",
"0f	c #9ed570",
"0g	c #76b964",
"0h	c #47a630",
"0i	c #4a9a43",
"0j	c #2b742b",
"0k	c #45a42e",
"0l	c #9ed569",
"0m	c #65be35",
"0n	c #a5d96b",
"0o	c #a2d86b",
"0p	c #9cd56f",
"0q	c #66be35",
"0r	c #58b93a",
"0s	c #66be36",
"0t	c #a0d66b",
"0u	c #72c541",
"0v	c #24632a",
"0w	c #9fd571",
"0x	c #60bd3a",
"0y	c #409533",
"0z	c #51ac3d",
"10	c #25652a",
"11	c #99d36e",
"12	c #2b732c",
"13	c #2b722c",
"14	c #35872e",
"15	c #368731",
"16	c #418e3e",
"17	c #4d9648",
"18	c #ceeab0",
"19	c #bce498",
"1a	c #b9e398",
"1b	c #9ad96e",
"1c	c #59a847",
"1d	c #b2e088",
"1e	c #95d268",
"1f	c #90d167",
"1g	c #5ebd30",
"1h	c #57b334",
"1i	c #47a232",
"1j	c #439f31",
"1k	c #3e982b",
"1l	c #358931",
"1m	c #b0de90",
"1n	c #98d46d",
"1o	c #81ca56",
"1p	c #64c136",
"1q	c #449732",
"1r	c #2c742c",
"1s	c #236527",
"1t	c #27692a",
"1u	c #53ab3f",
"1v	c #cce8a7",
"1w	c #9dd081",
"1x	c #79bc65",
"1y	c #5aa64d",
"1z	c #3e9035",
"20	c #32872e",
"21	c #add697",
"22	c #9bd46e",
"23	c #6dc23b",
"24	c #65c138",
"25	c #33822e",
"26	c #276f29",
"27	c #246b28",
"28	c #226824",
"29	c #367e37",
"2a	c #4d9449",
"2b	c #85c575",
"2c	c #226227",
"2d	c #85c768",
"2e	c #c8e694",
"2f	c #a7dc66",
"2g	c #b2df79",
"2h	c #b9e38a",
"2i	c #bfe693",
"2j	c #c5e8a2",
"2k	c #bbe199",
"2l	c #94d36c",
"2m	c #64bd33",
"2n	c #64bf38",
"2o	c #5fb839",
"2p	c #7bc160",
"2q	c #7fc666",
"2r	c #9edb80",
"2s	c #84cf63",
"2t	c #72c552",
"2u	c #5bbe3b",
"2v	c #2a732b",
"2w	c #aed990",
"2x	c #b2e074",
"2y	c #a7db6a",
"2z	c #a4d96a",
"30	c #a1d769",
"31	c #9ad568",
"32	c #9ad36a",
"33	c #8ed063",
"34	c #63be37",
"35	c #5cbb37",
"36	c #5ab936",
"37	c #57b934",
"38	c #57b736",
"39	c #55b637",
"3a	c #58ba39",
"3b	c #388b2f",
"3c	c #4ba935",
"3d	c #cbe7a6",
"3e	c #a9db64",
"3f	c #7fca50",
"3g	c #439d33",
"3h	c #4fac3c",
"3i	c #d6eda6",
"3j	c #acdd67",
"3k	c #afe06e",
"3l	c #aadc6e",
"3m	c #a3d96b",
"3n	c #7ac849",
"3o	c #57b73a",
"3p	c #4aa737",
"3q	c #4baa37",
"3r	c #bce092",
"3s	c #92cd65",
"3t	c #489d3d",
"3u	c #63b150",
"3v	c #abdd71",
"3w	c #5cbb39",
"3x	c #5ebe3a",
"3y	c #5abd3a",
"3z	c #59bb3a",
"40	c #5dc23c",
"41	c #23622a",
"42	c #4da739",
"43	c #409c2f",
"44	c #3a922d",
"45	c #acd98a",
"46	c #75c542",
"47	c #57b538",
"48	c #266a2a",
"49	c #368630",
"4a	c #3e9532",
"4b	c #37932c",
"4c	c #a1d76b",
"4d	c #69c236",
"4e	c #67bf37",
"4f	c #5fbd3a",
"4g	c #449b32",
"4h	c #286a2b",
"4i	c #28682a",
"4j	c #27672a",
"4k	c #37922b",
"4l	c #a1d76a",
"4m	c #66c032",
"4n	c #67bf38",
"4o	c #4eaa37",
"4p	c #4faa3b",
"4q	c #48a034",
"4r	c #389129",
"4s	c #c3e2a7",
"4t	c #9fd568",
"4u	c #71c43d",
"4v	c #286c2a",
"4w	c #256628",
"4x	c #dff3b1",
"4y	c #a5d777",
"4z	c #469b39",
"50	c #cde8a7",
"51	c #74c542",
"52	c #5ebb3a",
"53	c #50ab36",
"54	c #236428",
"55	c #206425",
"56	c #327b34",
"57	c #65ac5b",
"58	c #226428",
"59	c #4fab3c",
"5a	c #c8e890",
"5b	c #abdc66",
"5c	c #bce685",
"5d	c #c1e591",
"5e	c #a6da6f",
"5f	c #9fd56b",
"5g	c #5cbd39",
"5h	c #5eb445",
"5i	c #84c373",
"5j	c #99d880",
"5k	c #66c646",
"5l	c #216128",
"5m	c #c4e68c",
"5n	c #aadb67",
"5o	c #a7da69",
"5p	c #a3d869",
"5q	c #a1d86a",
"5r	c #81ca53",
"5s	c #5ab838",
"5t	c #54b635",
"5u	c #52b534",
"5v	c #58bd39",
"5w	c #226129",
"5x	c #bfe295",
"5y	c #abdc67",
"5z	c #9bd56e",
"60	c #89cd59",
"61	c #51b438",
"62	c #9fd284",
"63	c #addd67",
"64	c #a6da6b",
"65	c #a5db6c",
"66	c #a6d96f",
"67	c #a2da6e",
"68	c #9dd56d",
"69	c #91d166",
"6a	c #65be34",
"6b	c #63bf38",
"6c	c #66c139",
"6d	c #61c03a",
"6e	c #60be3a",
"6f	c #5dbd3a",
"6g	c #5bb939",
"6h	c #409832",
"6i	c #66b550",
"6j	c #c4e987",
"6k	c #adde6e",
"6l	c #9fd470",
"6m	c #7ec15e",
"6n	c #5fac4e",
"6o	c #55a248",
"6p	c #97d173",
"6q	c #9cd571",
"6r	c #66c238",
"6s	c #33822f",
"6t	c #36832e",
"6u	c #3a8c30",
"6v	c #49a034",
"6w	c #55b538",
"6x	c #5bbe3a",
"6y	c #5dc03c",
"6z	c #286c2b",
"70	c #51a93c",
"71	c #76bf5a",
"72	c #4da040",
"73	c #37922d",
"74	c #338729",
"75	c #6aaf5d",
"76	c #c5e6a4",
"77	c #78c749",
"78	c #66c237",
"79	c #2f7a2e",
"7a	c #286e2b",
"7b	c #28682b",
"7c	c #2a722c",
"7d	c #35842f",
"7e	c #26672a",
"7f	c #378b2d",
"7g	c #bedfa7",
"7h	c #a0d771",
"7i	c #89cd5e",
"7j	c #62bf35",
"7k	c #53ae35",
"7l	c #338b2b",
"7m	c #91c879",
"7n	c #9fda6f",
"7o	c #9fd972",
"7p	c #a2da76",
"7q	c #69c539",
"7r	c #5fb937",
"7s	c #31852b",
"7t	c #3b8a38",
"7u	c #3a8738",
"7v	c #549e49",
"7w	c #2e7931",
"                                                ",
"                                                ",
"          0k0k3c3h3q      4o0z590z0h0h0h        ",
"      1i1u2d2w3d3i3r42    4p4x5a5m5x626i70      ",
"      1j1v2e2x3e3j3s43    4q4y5b5n5y636j71      ",
"      1k1w2f2y0c3k3t        4z5c5o0c0c6k72      ",
"        1x2g2z0n3l3u444b4k4r0g5d5p0n646l73      ",
"        1y2h300o3m3v450g0g4s505e5q0o656m        ",
"        1z2i0l09090t0t4c4l4t0l5f0909666n747f7l  ",
"140i0i1l202j31......................676o757g7m7s",
"15181d1m212k320p0e0e0f0w0w0f0f0e0p5z686p767h7n7t",
"16191e1n222l333f3n0u464d4m4u510u5r60696q11117o7u",
"171a1f1o232m0m0q0s08084e4n0808080s0m6a0q777i7p7v",
"0b1b1g1p242nXXXXXXXXXXXXXXXXXXXXXXXX6b6r787j7q7w",
"0b1c1h1q252o34||||||||||||||||||||||6c6s797k7r12",
"0b0j0j1r262p35++++++++++++++++++++++6d6t  121313",
"        272q36060606++4f0x0x520606066e6u        ",
"        282r370a0a3w474g0y0y535g0a0a6f6v7a      ",
"        292s380d0d3x484h  4v545h5s0d6g6w7b      ",
"        2a2t3907073y0v      555i5t07076x7c      ",
"      1s2b2u3a0r3o3z494i    565j5u070r6y7d      ",
"      1t2c2v3b3g3p404a4j  4w575k5v616h6z7e      ",
"        //////////41//      585l5w0v1010        ",
"                                                "};