/* XPM */
static char * xpm_company[] = {
"24 24 251 2",
"  	c None",
"XX	c #49a9e0",
"++	c #82d3f2",
"..	c #7ed0f1",
"||	c #6dc7ee",
"//	c #58bbea",
"06	c #44ade4",
"07	c #29a1df",
"08	c #5ab5e6",
"09	c #3aa5de",
"0a	c #5fbfe9",
"0b	c #4eb0e4",
"0c	c #398acb",
"0d	c #2a70b8",
"0e	c #185ba5",
"0f	c #bde8f9",
"0g	c #92dcf6",
"0h	c #8cd8f5",
"0i	c #4ba1d9",
"0j	c #3280c3",
"0k	c #195eaa",
"0l	c #acd9f1",
"0m	c #58b2e3",
"0n	c #2064ae",
"0o	c #95def7",
"0p	c #4ca7df",
"0q	c #5ab1e0",
"0r	c #2b70ba",
"0s	c #2267af",
"0t	c #6ebde9",
"0u	c #148ad2",
"0v	c #5eb4e4",
"0w	c #58b0e1",
"0x	c #67bee7",
"0y	c #58b3e3",
"0z	c #48a5dd",
"10	c #3898d6",
"11	c #238bcf",
"12	c #86d6f3",
"13	c #4197d5",
"14	c #4297d5",
"15	c #3584c6",
"16	c #2765ae",
"17	c #2160a9",
"18	c #3889ca",
"19	c #307cc1",
"1a	c #2a6fb8",
"1b	c #2062ad",
"1c	c #317dc2",
"1d	c #6bc1e8",
"1e	c #5cb6e5",
"1f	c #4ca9df",
"1g	c #3c9cd8",
"1h	c #268ed2",
"1i	c #69bee8",
"1j	c #5bb3e5",
"1k	c #49a7de",
"1l	c #399bd8",
"1m	c #258ed1",
"1n	c #cce6f6",
"1o	c #d5e9f9",
"1p	c #c2e2f6",
"1q	c #c1e2f5",
"1r	c #b9dff6",
"1s	c #8ccdee",
"1t	c #a2d6f2",
"1u	c #9ad3f2",
"1v	c #6bbfea",
"1w	c #86cdef",
"1x	c #82cdf1",
"1y	c #198cd3",
"1z	c #44a5df",
"20	c #58afe0",
"21	c #55a8dc",
"22	c #55a9dc",
"23	c #52a5da",
"24	c #55a7db",
"25	c #4899d4",
"26	c #4c9ad3",
"27	c #4593ce",
"28	c #428dca",
"29	c #438ecb",
"2a	c #3e86c5",
"2b	c #3982c4",
"2c	c #3a82c4",
"2d	c #3981c0",
"2e	c #3277ba",
"2f	c #3378bb",
"2g	c #3174b9",
"2h	c #286cb2",
"2i	c #2a6db2",
"2j	c #1a549d",
"2k	c #3ea2de",
"2l	c #caeefc",
"2m	c #aee6f8",
"2n	c #aae2f7",
"2o	c #a7e1f7",
"2p	c #8cd0ee",
"2q	c #9cdbf4",
"2r	c #87cced",
"2s	c #8cd4f2",
"2t	c #7ac4e9",
"2u	c #7ac9ee",
"2v	c #77caee",
"2w	c #67c0e9",
"2x	c #4ab5e4",
"2y	c #1f63ac",
"2z	c #43a6df",
"30	c #ace0f6",
"31	c #7cd0f1",
"32	c #42a1db",
"33	c #78ccef",
"34	c #74c8ee",
"35	c #4ca7dc",
"36	c #4195d1",
"37	c #2b76be",
"38	c #2468b3",
"39	c #1e5ca9",
"3a	c #1859a3",
"3b	c #50b1e4",
"3c	c #4db0e4",
"3d	c #46a1db",
"3e	c #4da9df",
"3f	c #49a4dd",
"3g	c #49a0d8",
"3h	c #3381c4",
"3i	c #2f77be",
"3j	c #317dc1",
"3k	c #94def7",
"3l	c #4ba7df",
"3m	c #5ab0e0",
"3n	c #2a70b9",
"3o	c #2266af",
"3p	c #4cafe4",
"3q	c #3f9eda",
"3r	c #4ca8df",
"3s	c #48a3dd",
"3t	c #3d95d3",
"3u	c #4096d4",
"3v	c #4095d4",
"3w	c #3482c6",
"3x	c #2a71b9",
"3y	c #1f5aa4",
"3z	c #4fb1e4",
"40	c #48a7df",
"41	c #4daee2",
"42	c #409eda",
"43	c #4ea9df",
"44	c #4aa4dd",
"45	c #3f96d3",
"46	c #2b72b9",
"47	c #2766ae",
"48	c #266cb4",
"49	c #3ea1de",
"4a	c #afe2f6",
"4b	c #80d2f2",
"4c	c #48a4dd",
"4d	c #7cceef",
"4e	c #78caee",
"4f	c #51aadd",
"4g	c #4599d3",
"4h	c #317ac0",
"4i	c #2a6eb6",
"4j	c #2262ad",
"4k	c #185aa4",
"4l	c #40a3df",
"4m	c #a3ddf3",
"4n	c #7fd0f1",
"4o	c #47a2db",
"4p	c #7bcdee",
"4q	c #76c9ed",
"4r	c #51a7dc",
"4s	c #4297d3",
"4t	c #2f79be",
"4u	c #286cb4",
"4v	c #2160ac",
"4w	c #56afe0",
"4x	c #54a8dc",
"4y	c #4fa3d9",
"4z	c #489ad4",
"50	c #4697d3",
"51	c #4697d1",
"52	c #4190cc",
"53	c #4693cd",
"54	c #3f8bc9",
"55	c #3983c3",
"56	c #3e86c6",
"57	c #387ebe",
"58	c #367dbe",
"59	c #3880c0",
"5a	c #3375b9",
"5b	c #3172b7",
"5c	c #266bb1",
"5d	c #286ab0",
"5e	c #1b5199",
"5f	c #d6eafa",
"5g	c #c3e3f7",
"5h	c #c1e3f7",
"5i	c #57b4e5",
"5j	c #b9e0f7",
"5k	c #8acef0",
"5l	c #a0d8f4",
"5m	c #99d5f4",
"5n	c #69c2ed",
"5o	c #85d0f2",
"5p	c #81d0f4",
"5q	c #138dd5",
"5r	c #8fceef",
"5s	c #c5e3f5",
"5t	c #93cff0",
"5u	c #54b2e5",
"5v	c #55b1e5",
"5w	c #4aade3",
"5x	c #41a6e0",
"5y	c #3da5e0",
"5z	c #40a4df",
"60	c #349ddc",
"61	c #2c99d9",
"62	c #2a99d9",
"63	c #1f93d6",
"64	c #1c91d5",
"65	c #1c90d6",
"66	c #1b90d4",
"67	c #138bd2",
"68	c #1089d1",
"69	c #62bae9",
"6a	c #d3e8f9",
"6b	c #6dbce9",
"6c	c #c0e1f6",
"6d	c #c0e0f5",
"6e	c #57b1e3",
"6f	c #b8ddf5",
"6g	c #8acbee",
"6h	c #a0d5f2",
"6i	c #98d2f2",
"6j	c #6abfea",
"6k	c #85ccef",
"6l	c #81ccf1",
"6m	c #5db5e5",
"6n	c #65bae6",
"6o	c #64bae6",
"6p	c #61b7e5",
"6q	c #48a9e0",
"6r	c #58b1e3",
"6s	c #45a9e0",
"6t	c #39a2dd",
"6u	c #40a7df",
"6v	c #2b9bda",
"6w	c #2d9dda",
"6x	c #2d9edb",
"6y	c #2a9dda",
"          XXXXXXXXXXXXXXXX                      ",
"          XX12++++++++1240                      ",
"      1z2k2z3b0b0b0b0b3z41494l                  ",
"      0v2l30++0f0f++0f0f++4a4m0v                ",
"      202m313c3k0o3p0o0o0b4b4n4w085r5t          ",
"      21++323d3l0p3q0p0p424c4o0w1n5s1n69        ",
"      222n333e0g0g3r0g0g434d4p4x080808080808    ",
"      232o343f0h0h3s0h0h444e4q4y5f1o5u1o6a08    ",
"      240a353g3m0q3t0q0q454f4r4z0l0l5v0l0l6m    ",
"      252p0x13....3u....131d1i500t0t5w0t6b6n    ",
"      262q0x14....3v....141d1i515g1p5x1p6c6o    ",
"      270a36150i0i3w0i0i154g4s525h1q5y1q6d6p    ",
"      282r0y0c||||18||||0c1e1j535i0m5z0m6e6q    ",
"      292s0y0c||||18||||0c1e1j545j1r601r6f6r    ",
"      2a0a373h0j0j3x0j0j464h4t555k1s611s6g6s    ",
"      2b2t0z3i////19////1c1f1k560m0m6209096t    ",
"      2c2u0z3j////19////1c1f1k575l1t631t6h6u    ",
"      2d0a38163n0r160r0r474i4u585m1u641u6i09    ",
"      2e2v100d06061a06060d1g1l595n1v651v6j6v    ",
"      2f2w100d06061a06060d1g1l5a09096609096w    ",
"      2g0w39173o0s3y0s0s484j4v5b5o1w671w6k6x    ",
"      2h0a111707071b07070n1h1m5c5p1x681x6l6y    ",
"      2i2x110n07071b07070n1h1m5d5q0u1y0u0u1y    ",
"      2j2y3a0e0k0k0e0k0k0e4k0e5e                "};