/* XPM */
static char * xpm_compass[] = {
"24 24 423 2",
"  	c None",
"XX	c #000000",
"++	c #ececed",
"..	c #ffffff",
"||	c #e7e8e9",
"//	c #d9dadc",
"06	c #f1f1f1",
"07	c #d7edfe",
"08	c #dddee0",
"09	c #d7d7d9",
"0a	c #a7d5f0",
"0b	c #35abeb",
"0c	c #cccccc",
"0d	c #f5f6f6",
"0e	c #00419f",
"0f	c #43b8f0",
"0g	c #cbeeff",
"0h	c #cbebfe",
"0i	c #58c2f3",
"0j	c #d1ecfe",
"0k	c #e4e5e6",
"0l	c #005ab6",
"0m	c #68caf5",
"0n	c #b4e7fe",
"0o	c #dedfe0",
"0p	c #0087dc",
"0q	c #0064be",
"0r	c #d2d3d5",
"0s	c #167dd2",
"0t	c #208cd8",
"0u	c #2a93de",
"0v	c #319cdf",
"0w	c #3197df",
"0x	c #2586d5",
"0y	c #1877cb",
"0z	c #0c5ebb",
"10	c #2898df",
"11	c #6ac4f1",
"12	c #96ddfa",
"13	c #98dcfa",
"14	c #94d8f8",
"15	c #88d1f6",
"16	c #64c6f4",
"17	c #4dc0f4",
"18	c #4bbaf1",
"19	c #3eb5ed",
"1a	c #2791dd",
"1b	c #0e62bd",
"1c	c #1d92e0",
"1d	c #60beee",
"1e	c #bdeafd",
"1f	c #d0ebfa",
"1g	c #c4e9fb",
"1h	c #79d1f8",
"1i	c #58c5f5",
"1j	c #51bef3",
"1k	c #4abbf1",
"1l	c #42b8f1",
"1m	c #40b3ef",
"1n	c #38aeee",
"1o	c #35acec",
"1p	c #31afef",
"1q	c #177fd2",
"1r	c #0850ae",
"1s	c #2b9ee6",
"1t	c #83d3f5",
"1u	c #cdedfd",
"1v	c #cdeafd",
"1w	c #9ee0fa",
"1x	c #87d3f7",
"1y	c #4eb0e6",
"1z	c #64b4e8",
"20	c #64b7ec",
"21	c #96ccf2",
"22	c #8cc5e9",
"23	c #62afe4",
"24	c #72c6f0",
"25	c #3aafee",
"26	c #27a2e9",
"27	c #24a7ea",
"28	c #188ada",
"29	c #0555b1",
"2a	c #229ce6",
"2b	c #86d4f7",
"2c	c #d1eefe",
"2d	c #c9eafe",
"2e	c #96dbfa",
"2f	c #78c2ec",
"2g	c #d8e7f4",
"2h	c #8c827e",
"2i	c #8a817e",
"2j	c #fffcfe",
"2k	c #c9daeb",
"2l	c #90bfe5",
"2m	c #72c7f1",
"2n	c #22a0e7",
"2o	c #1a9de6",
"2p	c #0e85d8",
"2q	c #0348a7",
"2r	c #69c8f3",
"2s	c #cef0ff",
"2t	c #cae9fc",
"2u	c #8ed8f8",
"2v	c #fffcfc",
"2w	c #fffffe",
"2x	c #fdfefe",
"2y	c #fdfcfc",
"2z	c #fffffd",
"30	c #fdfbf8",
"31	c #9dc1e0",
"32	c #90d0f2",
"33	c #139be4",
"34	c #0f99e6",
"35	c #0570ca",
"36	c #c3edff",
"37	c #d9effe",
"38	c #a1e1fc",
"39	c #fffefd",
"3a	c #f9feff",
"3b	c #f8f9fb",
"3c	c #f8f8fa",
"3d	c #fefefe",
"3e	c #fcfdfd",
"3f	c #f6f7f7",
"3g	c #fffef9",
"3h	c #95bdde",
"3i	c #93d3f4",
"3j	c #0c96e3",
"3k	c #0796e7",
"3l	c #004bab",
"3m	c #7fd3f6",
"3n	c #d5edfe",
"3o	c #bce9fe",
"3p	c #80cbf2",
"3q	c #f9f6f4",
"3r	c #f5fcfc",
"3s	c #fa9da2",
"3t	c #f3ffff",
"3u	c #f4f9fa",
"3v	c #f5f5f6",
"3w	c #f5f5f4",
"3x	c #f5f5f5",
"3y	c #f2f2f2",
"3z	c #f3f2f2",
"40	c #f2eeef",
"41	c #6facdc",
"42	c #4ebbee",
"43	c #018fe2",
"44	c #0075cf",
"45	c #28a5ed",
"46	c #b3e7fe",
"47	c #daeffe",
"48	c #95ddfb",
"49	c #cee0f1",
"4a	c #f6f4f3",
"4b	c #f1f9fa",
"4c	c #f79093",
"4d	c #fb4751",
"4e	c #f1eae9",
"4f	c #f1fefe",
"4g	c #edeeee",
"4h	c #f4f0ef",
"4i	c #abc5db",
"4j	c #9fd7f2",
"4k	c #0091e1",
"4l	c #008de1",
"4m	c #77cff6",
"4n	c #f2edee",
"4o	c #eef0f0",
"4p	c #edf1f2",
"4q	c #ecf7f8",
"4r	c #f42632",
"4s	c #f50e17",
"4t	c #f19ba3",
"4u	c #e7f3f6",
"4v	c #e7f0f0",
"4w	c #e7e9ea",
"4x	c #e8e9ea",
"4y	c #e8e5e6",
"4z	c #519cda",
"50	c #31aee9",
"51	c #008ee0",
"52	c #0050ac",
"53	c #bfe9ff",
"54	c #9bd8f4",
"55	c #f9f5f3",
"56	c #f8f9fa",
"57	c #f0f1f2",
"58	c #ebf1f2",
"59	c #ead7d8",
"5a	c #e9121a",
"5b	c #eb1d25",
"5c	c #e60000",
"5d	c #e4b8bb",
"5e	c #e7ecec",
"5f	c #e4e4e5",
"5g	c #e3e4e5",
"5h	c #ebeced",
"5i	c #f5f6f7",
"5j	c #faf5f2",
"5k	c #80b4dc",
"5l	c #5ec2ef",
"5m	c #008bdf",
"5n	c #9edbf7",
"5o	c #9c9494",
"5p	c #181314",
"5q	c #bfbdbf",
"5r	c #eaeced",
"5s	c #e7f5f6",
"5t	c #e36d74",
"5u	c #e31b22",
"5v	c #e2151a",
"5w	c #ba0000",
"5x	c #abd9ee",
"5y	c #e4e2e0",
"5z	c #9a9a9c",
"60	c #6c6260",
"61	c #4a93d0",
"62	c #77d0f3",
"63	c #9cd9f7",
"64	c #999291",
"65	c #191415",
"66	c #c9c9ca",
"67	c #e8e8e9",
"68	c #e5e7e8",
"69	c #e4f0f1",
"6a	c #d70c11",
"6b	c #d8a5ab",
"6c	c #28abf6",
"6d	c #1184d9",
"6e	c #e3dddb",
"6f	c #dbdbdc",
"6g	c #dedfe1",
"6h	c #ababad",
"6i	c #68605c",
"6j	c #4a91d0",
"6k	c #76cdf3",
"6l	c #c0eaff",
"6m	c #97d3f1",
"6n	c #efeae9",
"6o	c #edeef0",
"6p	c #e4e6e8",
"6q	c #e1e2e4",
"6r	c #e0e1e3",
"6s	c #e1e7e9",
"6t	c #e3bdbb",
"6u	c #389ee3",
"6v	c #1584d8",
"6w	c #1176ce",
"6x	c #64a0cd",
"6y	c #e2dad8",
"6z	c #d5d5d8",
"70	c #dadadd",
"71	c #e5e5e9",
"72	c #eae3e3",
"73	c #7aaed8",
"74	c #5cc3ef",
"75	c #0087db",
"76	c #79cff7",
"77	c #e0dcdd",
"78	c #dddfe1",
"79	c #e1e3e4",
"7a	c #d9d7d8",
"7b	c #549ed2",
"7c	c #0367c5",
"7d	c #0056bb",
"7e	c #adc0cd",
"7f	c #d5d3d3",
"7g	c #cfd0d2",
"7h	c #d0d1d2",
"7i	c #cdcbce",
"7j	c #52a1da",
"7k	c #2dabe9",
"7l	c #008bdc",
"7m	c #0051ac",
"7n	c #27a5ec",
"7o	c #b2e8fe",
"7p	c #d9eefe",
"7q	c #94dbfb",
"7r	c #b7cee0",
"7s	c #dddbdb",
"7t	c #dadbdd",
"7u	c #cfcfcf",
"7v	c #d4cfcd",
"7w	c #a9bbca",
"7x	c #1365ba",
"7y	c #0358b0",
"7z	c #dbd4d0",
"80	c #c8cacd",
"81	c #cdcccd",
"82	c #86a5c2",
"83	c #9ed7f5",
"84	c #008bde",
"85	c #0088db",
"86	c #7fd2f6",
"87	c #d4edfe",
"88	c #bbe8fc",
"89	c #79caef",
"8a	c #d9d5d6",
"8b	c #d8d8d9",
"8c	c #dadadc",
"8d	c #c9cbcd",
"8e	c #c9cbcc",
"8f	c #cac9c8",
"8g	c #d9d2ca",
"8h	c #477fb4",
"8i	c #608eba",
"8j	c #cbcac8",
"8k	c #bfbdc2",
"8l	c #69a9d8",
"8m	c #47b9ee",
"8n	c #008ade",
"8o	c #0073c8",
"8p	c #c0ecff",
"8q	c #a0e0fc",
"8r	c #8dc1e2",
"8s	c #dbd5d2",
"8t	c #d3d3d5",
"8u	c #d8dadd",
"8v	c #7b797d",
"8w	c #7d7b7f",
"8x	c #c2c3c9",
"8y	c #bcbdc2",
"8z	c #c4c2c3",
"90	c #c4c1c3",
"91	c #c5c0c0",
"92	c #749fc9",
"93	c #8cd4f4",
"94	c #0290e1",
"95	c #0091e2",
"96	c #004aa9",
"97	c #67c7f2",
"98	c #ceedfe",
"99	c #c9e9fe",
"9a	c #8cd9fa",
"9b	c #89bddf",
"9c	c #cfcdcf",
"9d	c #d1d0d0",
"9e	c #ced0d2",
"9f	c #d5d8dc",
"9g	c #c4c9ca",
"9h	c #b6babb",
"9i	c #babbba",
"9j	c #b1b1b7",
"9k	c #749fca",
"9l	c #8ed3f5",
"9m	c #0593e2",
"9n	c #0292e2",
"9o	c #006ac5",
"9p	c #2298e6",
"9q	c #7fd2f5",
"9r	c #cfecff",
"9s	c #c8e8f9",
"9t	c #94dcfb",
"9u	c #6fbbe9",
"9v	c #a3bfd3",
"9w	c #cdc8cb",
"9x	c #cdc7c8",
"9y	c #59504f",
"9z	c #585050",
"a0	c #bcb9ba",
"a1	c #aaacb0",
"a2	c #7d9ab8",
"a3	c #87b9e1",
"a4	c #6ac5f3",
"a5	c #0e9ae3",
"a6	c #0b98e5",
"a7	c #047cd5",
"a8	c #0448a7",
"a9	c #2b9de5",
"aa	c #7dcef3",
"ab	c #c8ecfc",
"ac	c #cbe8fa",
"ad	c #96dbf9",
"ae	c #82d0f7",
"af	c #67bbee",
"ag	c #4a9bd4",
"ah	c #3e93d5",
"ai	c #72b2df",
"aj	c #69a7d7",
"ak	c #65b4eb",
"al	c #6bc4f2",
"am	c #2ba7e9",
"an	c #149be4",
"ao	c #139de6",
"ap	c #0982d5",
"aq	c #0453b0",
"ar	c #1c90e0",
"as	c #5dbbec",
"at	c #b0e6fc",
"au	c #ceebfb",
"av	c #bae2f9",
"aw	c #94d6f8",
"ax	c #49bbf2",
"ay	c #45bbf3",
"az	c #3db3ef",
"b0	c #37aeee",
"b1	c #2faaed",
"b2	c #29a4e9",
"b3	c #22a1e7",
"b4	c #1ca2e9",
"b5	c #0e76cf",
"b6	c #0751ad",
"b7	c #2793df",
"b8	c #62c0ee",
"b9	c #9edcf8",
"ba	c #a0dcf8",
"bb	c #85d1f4",
"bc	c #79ccf5",
"bd	c #54bef0",
"be	c #3bb2ee",
"bf	c #36acec",
"bg	c #2da9ea",
"bh	c #1b8ada",
"bi	c #0d60bd",
"bj	c #137cd1",
"bk	c #1e88d6",
"bl	c #2590db",
"bm	c #2895df",
"bn	c #2791da",
"bo	c #1e82d3",
"bp	c #1672ca",
"bq	c #0f5eb9",
"                450f0i0m0m0i0f7n                ",
"            0b3m460g0j07070j0g7o860b            ",
"        2a2r363n470h530n0n6l0h7p878p979p        ",
"      1s2b2s373o484m545n636m767q8807989qa9      ",
"    1c1t2c2t383p494n555o646n777r898q999raaar    ",
"    1d1u2d2u0a3q4a4o565p656o0o7s8a8r9a9sabas    ",
"  101e1v2e0a393r4b4p575q666p08//8b8s9b9tacatb7  ",
"  111f1w2f2v3a3s4c4q585r676q08//098t9c9uadaub8  ",
"0s121g1x2g2w3b3t4d4r595s686r08//090r9d9vaeavb9bj",
"0t131h1y..2x3c3u4e4s5a5t696s78//090r9e9wafawbabk",
"0u141i1z....3d3v4f4t5b5u6a6t797t8c8u9f9xagaxbbbl",
"0v151j202hXX0c3w4g4u5c5v6b6u7a7u8d8vXX9yahaybcbm",
"0w161k212iXX0c3x++4v5d5w6c6v7b7v8e8wXX9zaiazbdbn",
"0x171l22....3e3y++4w5e5x6d6w7c7w8f8x9ga0ajb0bebo",
"0y181m232j2y0d06++||5f5y6e6x7d7x8g8y9ha1akb1bfbp",
"0z191n242k2z0d06++||5g0o6f6y7e7y8h8z9ia2alb2bgbq",
"  1a1o252l303f06++||0k0k6g6z7f7z8i909ja3amb3bh  ",
"  1b1p262m313g3z++||5h5z6h707g808j919ka4anb4bi  ",
"    1q272n323h404h4x5iXXXX717h818k929la5aob5    ",
"    1r282o333i414i4y5j606i727i828l939ma6apb6    ",
"      292p343j424j4z5k616j737j838m949na7aq      ",
"        2q353k434k505l626k747k848n959oa8        ",
"            3l444l515m0p0p757l858o96            ",
"                0e520l0q0q0l7m0e                "};