/* XPM */
static char * xpm_computer[] = {
"24 24 215 2",
"  	c None",
"XX	c #a5a3a8",
"++	c #ebebed",
"..	c #726e71",
"||	c #677c8c",
"//	c #59b3e2",
"06	c #6eb8e1",
"07	c #77c4ec",
"08	c #84ceef",
"09	c #8bd9fc",
"0a	c #a9a9a9",
"0b	c #7b7b7b",
"0c	c #80c1e6",
"0d	c #67b6e3",
"0e	c #6ab9e7",
"0f	c #979797",
"0g	c #848484",
"0h	c #ffffff",
"0i	c #707070",
"0j	c #595959",
"0k	c #8f8f8f",
"0l	c #aaaaaa",
"0m	c #acacac",
"0n	c #a4a4a4",
"0o	c #ababab",
"0p	c #a5a5a5",
"0q	c #adadad",
"0r	c #717171",
"0s	c #666666",
"0t	c #b3b3b3",
"0u	c #9a9a9a",
"0v	c #a7a7a7",
"0w	c #9d9d9d",
"0x	c #999999",
"0y	c #878787",
"0z	c #828282",
"10	c #797979",
"11	c #747474",
"12	c #6a6a6a",
"13	c #b1b1b1",
"14	c #d0d0d0",
"15	c #bebebe",
"16	c #b2b2b2",
"17	c #a8a8a8",
"18	c #656565",
"19	c #626262",
"1a	c #e6e6e6",
"1b	c #636363",
"1c	c #888888",
"1d	c #5c5c5c",
"1e	c #cfcdd3",
"1f	c #edefef",
"1g	c #9fa3a7",
"1h	c #69a4c9",
"1i	c #64a3c8",
"1j	c #6eabce",
"1k	c #6faac9",
"1l	c #79787a",
"1m	c #a6aaad",
"1n	c #57525b",
"1o	c #58b4e4",
"1p	c #6eb9e3",
"1q	c #78c6ef",
"1r	c #85d0f2",
"1s	c #8ddcff",
"1t	c #a6abae",
"1u	c #56515a",
"1v	c #a6a9ad",
"1w	c #9fa2a6",
"1x	c #a1a4a8",
"1y	c #667c8c",
"1z	c #c4c4cb",
"20	c #b0b0b0",
"21	c #a0a0a0",
"22	c #919191",
"23	c #7e7e7e",
"24	c #6c6c6c",
"25	c #4a4a4a",
"26	c #b5b5b5",
"27	c #8d8d8d",
"28	c #6d6d6d",
"29	c #5f5f5f",
"2a	c #7c7c7c",
"2b	c #eaeaea",
"2c	c #e1e1e1",
"2d	c #d9d9d9",
"2e	c #c7c7c7",
"2f	c #b6b6b6",
"2g	c #606060",
"2h	c #8e8e8e",
"2i	c #bababa",
"2j	c #bdbdbd",
"2k	c #5a5a5a",
"2l	c #e7e7e7",
"2m	c #cfcfcf",
"2n	c #bbbbbb",
"2o	c #676767",
"2p	c #f8f8f8",
"2q	c #bcbcbc",
"2r	c #727272",
"2s	c #e5e5e5",
"2t	c #c1c1c1",
"2u	c #b7b7b7",
"2v	c #aeaeae",
"2w	c #989898",
"2x	c #646464",
"2y	c #575757",
"2z	c #777777",
"30	c #e9e9e9",
"31	c #dddddd",
"32	c #d5d5d5",
"33	c #cccccc",
"34	c #c3c3c3",
"35	c #b8b8b8",
"36	c #afafaf",
"37	c #a2a2a2",
"38	c #9f9f9f",
"39	c #909090",
"3a	c #808080",
"3b	c #767676",
"3c	c #4b4b4b",
"3d	c #cccbd1",
"3e	c #cac9cf",
"3f	c #c8c6c9",
"3g	c #c4c2c7",
"3h	c #bfbdc2",
"3i	c #b9b6bc",
"3j	c #b3b2b6",
"3k	c #aeacb2",
"3l	c #a9a7ad",
"3m	c #88858c",
"3n	c #e6e9eb",
"3o	c #e2dedf",
"3p	c #e5e1e0",
"3q	c #e3dede",
"3r	c #dfdbd9",
"3s	c #c9c4c2",
"3t	c #b9b4b4",
"3u	c #ada8aa",
"3v	c #a19d9e",
"3w	c #aaabaf",
"3x	c #59545d",
"3y	c #eae9ec",
"3z	c #6c7f8b",
"40	c #579dc6",
"41	c #75aacc",
"42	c #7fb2d1",
"43	c #5898c2",
"44	c #6a666e",
"45	c #8e8c92",
"46	c #7ec2e7",
"47	c #7dc2e9",
"48	c #69bbe9",
"49	c #827f86",
"4a	c #aeacae",
"4b	c #7fc1e5",
"4c	c #73bde6",
"4d	c #69b9e6",
"4e	c #504b55",
"4f	c #49424c",
"4g	c #7b787f",
"4h	c #a3a1a6",
"4i	c #a0a3a7",
"4j	c #c9cacd",
"4k	c #edeeef",
"4l	c #959399",
"4m	c #bdbec0",
"4n	c #d9d9db",
"4o	c #8e8c91",
"4p	c #b8b9bc",
"4q	c #d1d1d2",
"4r	c #8b878c",
"4s	c #b4b5b7",
"4t	c #c7c7c9",
"4u	c #fefefd",
"4v	c #858188",
"4w	c #b5b6b8",
"4x	c #c6c7c8",
"4y	c #807e85",
"4z	c #514c57",
"50	c #4c444e",
"51	c #7e7b82",
"52	c #838187",
"53	c #7fc2e7",
"54	c #74bfe8",
"55	c #6abbe9",
"56	c #85828a",
"57	c #828085",
"58	c #e9e9ec",
"59	c #569dc6",
"5a	c #75abcd",
"5b	c #70a9cc",
"5c	c #5898c3",
"5d	c #6f6a72",
"5e	c #5f5b62",
"5f	c #e6e8ea",
"5g	c #e2dfdf",
"5h	c #e5e2e1",
"5i	c #e4dfde",
"5j	c #e1dcda",
"5k	c #c3bfbe",
"5l	c #bab5b5",
"5m	c #aeaaab",
"5n	c #a29e9f",
"5o	c #b4b6b7",
"5p	c #5a545d",
"5q	c #c2c1c7",
"5r	c #c1c0c5",
"5s	c #bebcc1",
"5t	c #b8b6bd",
"5u	c #adadb3",
"5v	c #9b99a0",
"5w	c #929197",
"5x	c #87858c",
"5y	c #6d6a72",
"                                                ",
"                                                ",
"0u130m0q0q0q2v0u                                ",
"2026170a0a0a0l17                                ",
"0m0w0f0f0f0f2w0m  XXXXXXXXXXXXXXXXXXXXXXXXXXXXXX",
"0a0f2h0k0k0k0k0a  1e3n3y++++++++++++++++++585f1z",
"0v270g0g0g0g0g0v  1e1f3z||||||||||||||||1y1y1f1z",
"0n0z0b0b0b0b0b0p  3d3o401o//////////////1o595g5q",
"21100i0r0r0r0i37  3e3p1h1p060606060606061p1h5h5r",
"0w28180s0s0s2x38  3f3q41464b0c0c0c0c0c0c535a5i5s",
"0x290j0j0j0j2y0x  3g3r42474c0d0d0d0d0d0d545b5j5t",
"222a191b1b192z39  3h3s43484d0e0e0e0e0e0e555c5k5u",
"0y2b1a2l1a2s300y  3i3t1i1q070707070707071q1i5lXX",
"0z2c0o1c1c0o313a  3j3u1j1r080808080808081r1j5m5v",
"232d130h2p2t320b  3k3v1k1s090909090909091s1k5n5w",
"10142i2m142u333b  3l3w1l..................1l5o5x",
"112e2j2n2q15340i  3m1g1m1t1v4i1w1w1g1x1v1t1m1x5y",
"0i15160t0t0t3512    3x1n1u4e4j4m4p4s4w4z1u1n5p  ",
"242f0a0l0l0l3618          4f4k4n4q4t4x50        ",
"12160p0p0n0n0o1d      44494g0h0h0h4u0h51565d    ",
"252g2k2o2r111d3c      454a4h4l4o4r4v4y52575e    ",
"                                                ",
"                                                ",
"                                                "};