/* XPM */
static char * xpm_create[] = {
"24 24 167 2",
"  	c None",
"XX	c #ffffff",
"++	c #53ce1d",
"..	c #50cd1d",
"||	c #4fcd1e",
"//	c #50d11f",
"06	c #4fce1e",
"07	c #a2e15f",
"08	c #a3e35d",
"09	c #71c15c",
"0a	c #54ab47",
"0b	c #54d016",
"0c	c #4ecd1e",
"0d	c #4dd020",
"0e	c #008500",
"0f	c #54d320",
"0g	c #4bcd1e",
"0h	c #027105",
"0i	c #006d00",
"0j	c #006800",
"0k	c #097903",
"0l	c #087c02",
"0m	c #0d8108",
"0n	c #17880a",
"0o	c #006700",
"0p	c #117808",
"0q	c #61b344",
"0r	c #9edc71",
"0s	c #a6e868",
"0t	c #a9e86c",
"0u	c #a6e86c",
"0v	c #aaea77",
"0w	c #6ad431",
"0x	c #3ebb15",
"0y	c #259f0f",
"0z	c #198d0b",
"10	c #016e05",
"11	c #006600",
"12	c #78c252",
"13	c #d1f0a2",
"14	c #c2ed8d",
"15	c #9de15c",
"16	c #9edf61",
"17	c #9bde63",
"18	c #9fe06b",
"19	c #6fd532",
"1a	c #53cd17",
"1b	c #58d01c",
"1c	c #59d41f",
"1d	c #48c719",
"1e	c #22990d",
"1f	c #22980c",
"1g	c #006500",
"1h	c #187d10",
"1i	c #aee279",
"1j	c #d6f1a9",
"1k	c #b1e574",
"1l	c #9ee15a",
"1m	c #a2e162",
"1n	c #a5e467",
"1o	c #a6e46c",
"1p	c #74db30",
"1q	c #5ad117",
"1r	c #5ad11d",
"1s	c #57cf1c",
"1t	c #52cf1e",
"1u	c #30aa11",
"1v	c #259c0b",
"1w	c #006a06",
"1x	c #17780f",
"1y	c #bae97f",
"1z	c #d1efa2",
"20	c #bce885",
"21	c #9fe059",
"22	c #a4e361",
"23	c #5ec02e",
"24	c #3caa16",
"25	c #34a611",
"26	c #109400",
"27	c #129300",
"28	c #28a206",
"29	c #59d11c",
"2a	c #50ce1e",
"2b	c #53d320",
"2c	c #31ae10",
"2d	c #27a00e",
"2e	c #006000",
"2f	c #a7dd6d",
"2g	c #d2ef9d",
"2h	c #c8eb95",
"2i	c #a1e15a",
"2j	c #a1e15e",
"2k	c #a3e35e",
"2l	c #76c363",
"2m	c #5bae50",
"2n	c #55d116",
"2o	c #2aa30e",
"2p	c #005c00",
"2q	c #74bc46",
"2r	c #d3ee98",
"2s	c #cbec9a",
"2t	c #b3e470",
"2u	c #a3e15c",
"2v	c #50cf1f",
"2w	c #45c91d",
"2x	c #2aa10d",
"2y	c #0f730b",
"2z	c #c1e781",
"30	c #cfec99",
"31	c #c8ea94",
"32	c #a1e154",
"33	c #a5e15e",
"34	c #33b111",
"35	c #006702",
"36	c #54a531",
"37	c #d4ef97",
"38	c #cdeb98",
"39	c #c0e97d",
"3a	c #a7e355",
"3b	c #a7e35c",
"3c	c #a4e35d",
"3d	c #a6e55c",
"3e	c #70c058",
"3f	c #51aa42",
"3g	c #53d40f",
"3h	c #51d117",
"3i	c #4ed017",
"3j	c #4ed019",
"3k	c #50d11e",
"3l	c #4ccf1f",
"3m	c #44c318",
"3n	c #2fa90f",
"3o	c #005900",
"3p	c #90ce5b",
"3q	c #d5ee9a",
"3r	c #d1ec9c",
"3s	c #79d13a",
"3t	c #88d267",
"3u	c #84cf5f",
"3v	c #7eca5e",
"3w	c #75c458",
"3x	c #93ce89",
"3y	c #80bc80",
"3z	c #4ca841",
"40	c #4ea545",
"41	c #4da445",
"42	c #51a44a",
"43	c #1b9b06",
"44	c #52d120",
"45	c #4bce1e",
"46	c #4ace1f",
"47	c #2fa80e",
"48	c #005000",
"49	c #b4e175",
"4a	c #d1ec97",
"4b	c #d4ed9e",
"4c	c #57c317",
"4d	c #4ed120",
"4e	c #2ea60e",
"4f	c #006400",
"4g	c #c4ea86",
"4h	c #cfec96",
"4i	c #d4ed9f",
"4j	c #55c111",
"4k	c #31ae0f",
"4l	c #12870a",
"4m	c #0f800a",
"                353o484f4f483o35                ",
"            2p2y363p494g4g493p362y2p            ",
"        1w2e2q2z373q4a4h4h4a3q372z2q2e1w        ",
"      1g1x2f2r30383r4b4i4i4b3r38302r2f1x1g      ",
"    101h1y2g2s31393s4c4j4j4c3s39312s2g1y1h10    ",
"    111i1z2h2t323a3tXXXXXXXX3t3a322t2h1z1i11    ",
"  0o121j202i2u333b3uXXXXXXXX3u3b332u2i201j120o  ",
"  0p131k212j07073c3vXXXXXXXX3v3c07072j211k130p  ",
"0h0q141l222k08083d3wXXXXXXXX3w3d08082k221l140q0h",
"0i0r151m232l09093e3xXXXXXXXX3x3e09092l231m150r0i",
"0j0s161n24XXXXXXXXXXXXXXXXXXXXXXXXXXXX241n160s0j",
"0k0t171o25XXXXXXXXXXXXXXXXXXXXXXXXXXXX251o170t0k",
"4l0u181p26XXXXXXXXXXXXXXXXXXXXXXXXXXXX261p180u4m",
"0l0v191q27XXXXXXXXXXXXXXXXXXXXXXXXXXXX271q190v0l",
"0m0w1a1r282m0a0a3f3yXXXXXXXX3y3f0a0a2m281r1a0w0m",
"0n0x1b1s292n0b0b3g3zXXXXXXXX3z3g0b0b2n291s1b0x0n",
"  0y1c++++++++++3h40XXXXXXXX403h++++++++++1c0y  ",
"  0z1d1t........3i41XXXXXXXX413i........1t1d0z  ",
"    1e//2a||||||3j42XXXXXXXX423j||||||2a//1e    ",
"    1f1u2b060c0c3k430e0e0e0e433k0c0c062b1u1f    ",
"      1v2c//2v||06440f0f0f0f4406||2v//2c1v      ",
"        2d2o2w0d3l450g0g0g0g453l0d2w2o2d        ",
"            2x343m464d0d0d4d463m342x            ",
"                3n474e4k4k4e473n                "};