/* XPM */
static char * xpm_danger[] = {
"24 24 236 2",
"  	c None",
"XX	c #ffffff",
"++	c #f32d20",
"..	c #f33724",
"||	c #f33122",
"//	c #f2291f",
"06	c #f33b25",
"07	c #f2241d",
"08	c #f43f28",
"09	c #f78366",
"0a	c #f2201d",
"0b	c #f7866a",
"0c	c #f21b1b",
"0d	c #f1171a",
"0e	c #f11115",
"0f	c #f77f66",
"0g	c #f78569",
"0h	c #f78367",
"0i	c #faa892",
"0j	c #f4432b",
"0k	c #ed3f47",
"0l	c #f03b44",
"0m	c #e6211a",
"0n	c #cf1113",
"0o	c #ba0a0f",
"0p	c #f43222",
"0q	c #f42e21",
"0r	c #f62c20",
"0s	c #eb1e1b",
"0t	c #be0b0f",
"0u	c #b1090c",
"0v	c #f4251d",
"0w	c #f5201c",
"0x	c #c80e10",
"0y	c #aa080c",
"0z	c #f3201d",
"10	c #f91d1c",
"11	c #c50c0f",
"12	c #a6070a",
"13	c #f7876a",
"14	c #f31b1b",
"15	c #f51819",
"16	c #ae080c",
"17	c #f78e72",
"18	c #f7896d",
"19	c #f78067",
"1a	c #f43d25",
"1b	c #f3171b",
"1c	c #e81216",
"1d	c #9d0609",
"1e	c #faa991",
"1f	c #f78c6d",
"1g	c #f78a6e",
"1h	c #f6654a",
"1i	c #f44028",
"1j	c #f71519",
"1k	c #b8080c",
"1l	c #f89578",
"1m	c #f78d6f",
"1n	c #f7876b",
"1o	c #f43a22",
"1p	c #f3361f",
"1q	c #f33421",
"1r	c #f33021",
"1s	c #f2281e",
"1t	c #f2211a",
"1u	c #f21c19",
"1v	c #f21a1a",
"1w	c #f41519",
"1x	c #dd0d12",
"1y	c #9b0508",
"1z	c #fbbda6",
"20	c #f88a6b",
"21	c #f68361",
"22	c #faae99",
"23	c #f66f57",
"24	c #f66c54",
"25	c #f56851",
"26	c #f4553f",
"27	c #f22112",
"28	c #f32a1c",
"29	c #f11a10",
"2a	c #f33f37",
"2b	c #f44c49",
"2c	c #f21111",
"2d	c #f21418",
"2e	c #f01216",
"2f	c #9a0508",
"2g	c #fbb199",
"2h	c #f8987b",
"2i	c #facfcb",
"2j	c #f21204",
"2k	c #fbbab3",
"2l	c #f2191c",
"2m	c #f91318",
"2n	c #980508",
"2o	c #f49f8f",
"2p	c #fbad94",
"2q	c #fcd4c9",
"2r	c #f22614",
"2s	c #f9989b",
"2t	c #f00a0e",
"2u	c #f81318",
"2v	c #a8060a",
"2w	c #f3434b",
"2x	c #e83f47",
"2y	c #e83e46",
"2z	c #e73e47",
"30	c #e63c45",
"31	c #e24046",
"32	c #db3b45",
"33	c #cd1118",
"34	c #c60a10",
"35	c #f55a5d",
"36	c #f87568",
"37	c #f87362",
"38	c #f87a61",
"39	c #f8775f",
"3a	c #f73f28",
"3b	c #f12d1f",
"3c	c #f04249",
"3d	c #f5565a",
"3e	c #f9a08b",
"3f	c #f7876c",
"3g	c #f77d64",
"3h	c #f77962",
"3i	c #f77a64",
"3j	c #f43e28",
"3k	c #f33622",
"3l	c #f44249",
"3m	c #f13842",
"3n	c #f88e81",
"3o	c #faaa91",
"3p	c #f78163",
"3q	c #f77e65",
"3r	c #f77c64",
"3s	c #f77b64",
"3t	c #f55840",
"3u	c #f33822",
"3v	c #f3434a",
"3w	c #f03842",
"3x	c #f88d82",
"3y	c #faaa92",
"3z	c #f77d65",
"40	c #f7755e",
"41	c #f43922",
"42	c #f33a24",
"43	c #ef3b44",
"44	c #f78e83",
"45	c #fab399",
"46	c #f77f68",
"47	c #f55439",
"48	c #f43d26",
"49	c #f44048",
"4a	c #ef5557",
"4b	c #fbc3ab",
"4c	c #f77860",
"4d	c #ed3942",
"4e	c #f9b5a0",
"4f	c #f78169",
"4g	c #f5424a",
"4h	c #e94d51",
"4i	c #fbc2ac",
"4j	c #f78063",
"4k	c #f5472c",
"4l	c #f03d46",
"4m	c #f2867c",
"4n	c #faa68f",
"4o	c #faa692",
"4p	c #f66e56",
"4q	c #ec3b44",
"4r	c #f4a191",
"4s	c #eb3a43",
"4t	c #ea3a43",
"4u	c #e93a43",
"4v	c #f4a090",
"4w	c #eb3c45",
"4x	c #ec8379",
"4y	c #f78d74",
"4z	c #f67158",
"50	c #f54249",
"51	c #d9494b",
"52	c #fdc2ad",
"53	c #f78266",
"54	c #f66043",
"55	c #f43f25",
"56	c #f43e25",
"57	c #dd343c",
"58	c #f9b5a1",
"59	c #f76c51",
"5a	c #f4442a",
"5b	c #d74e50",
"5c	c #fdc3ab",
"5d	c #f78468",
"5e	c #f77559",
"5f	c #f44429",
"5g	c #db353c",
"5h	c #eb8c7f",
"5i	c #fcb49a",
"5j	c #f78467",
"5k	c #f44227",
"5l	c #cd2f37",
"5m	c #eb897d",
"5n	c #fcab93",
"5o	c #f7836b",
"5p	c #f54c31",
"5q	c #f4422a",
"5r	c #f3424a",
"5s	c #c82d35",
"5t	c #e57c72",
"5u	c #fdab92",
"5v	c #f78164",
"5w	c #f78068",
"5x	c #d9353d",
"5y	c #cc4a4b",
"5z	c #f8a08c",
"60	c #fa8a6e",
"61	c #f97a61",
"62	c #f53f26",
"63	c #ea3f45",
"64	c #cf3139",
"65	c #d14f4f",
"66	c #e57266",
"67	c #ec432e",
"68	c #f94329",
"69	c #f63f27",
"6a	c #f73c26",
"6b	c #f12f21",
"6c	c #eb4148",
"6d	c #e23c45",
"6e	c #d8313a",
"6f	c #c5050b",
"6g	c #ce0a11",
"6h	c #cd0a12",
"6i	c #c90a11",
"6j	c #c60b10",
"                4g4l4q4s4t4u4w50                ",
"            494d4h4m4r2o2o4v4x51570k            ",
"        3v434a4e4i1z2g2p2p2g1z52585b5g2w        ",
"      3l3w444b1e1l202h2q2q2h201l1e5c5h5l5r      ",
"    3c3m3x45171f1m21XXXXXXXX211m1f175i5m5s2w    ",
"    0l3n3y13181g1n22XXXXXXXX221n1g18135n5t5x    ",
"  0k3d3o090g0b0b090iXXXXXXXX0i090b0b0g095u5y63  ",
"  0l3e3p090h0h0h4j4nXXXXXXXX0i530g5d5j095v5z64  ",
"2x353f3q0f0f194f0f4oXXXXXXXX4y54595e195o5w60656c",
"2y363g3r3z464c1h4k4pXXXXXXXX4z555a5f5k5p1h61666d",
"2z373h3s40471a1i1a23XXXXXXXX23560j0j0j5q1i62676e",
"30383i3t414808081o24XXXXXXXX241o080808080808686f",
"31393j3u420606061p25XXXXXXXX251p060606060606696g",
"323a3k..........1q26XXXXXXXX261q............6a6h",
"333b0p||||||||||1r272iXXXX2i271r||||||||||0p6b6i",
"340m0q++++++++++++282j2r2r2j28++++++++++++0q0m6j",
"  0n0r//////////1s292kXXXX2k291s//////////0r0n  ",
"  0o0s0v070707071t2aXXXXXXXX2a1t070707070v0s0o  ",
"    0t0w0z0a0a0a1u2bXXXXXXXX2b1u0a0a0a0z0w0t    ",
"    0u0x10140c0c1v2cXXXXXXXX2c1v0c0c14100x0u    ",
"      0y11151b0d0d0e2l2s2s2l0e0d0d1b15110y      ",
"        12161c1j1w2d0e2t2t0e2d1w1j1c1612        ",
"            1d1k1x2e2m2u2u2m2e1x1k1d            ",
"                1y2f2n2v2v2n2f1y                "};