/* XPM */
static char * xpm_database[] = {
"24 24 334 2",
"  	c None",
"XX	c #ddeefa",
"++	c #e2effa",
"..	c #b3e1f7",
"||	c #c8e7f8",
"//	c #c5e3f7",
"06	c #abdaf4",
"07	c #92d3ef",
"08	c #80cef0",
"09	c #78ccef",
"0a	c #71c8ed",
"0b	c #61bde9",
"0c	c #52b4e5",
"0d	c #43aae1",
"0e	c #35a1dd",
"0f	c #2796d9",
"0g	c #1a8cd5",
"0h	c #9cdbf6",
"0i	c #5bbae8",
"0j	c #148bd4",
"0k	c #1559ab",
"0l	c #b1e3f8",
"0m	c #164a9c",
"0n	c #39a4e1",
"0o	c #c7e6f8",
"0p	c #e1effa",
"0q	c #148dd5",
"0r	c #4bb0e5",
"0s	c #5fbce8",
"0t	c #3ba5e0",
"0u	c #53b5e7",
"0v	c #5abae8",
"0w	c #5cbae8",
"0x	c #54b5e7",
"0y	c #40a9e1",
"0z	c #39a5e2",
"10	c #38a4e1",
"11	c #3aa4e1",
"12	c #3da7e1",
"13	c #48ace3",
"14	c #cbecfa",
"15	c #c6eaf9",
"16	c #b3e5f8",
"17	c #b8e7f9",
"18	c #82ceef",
"19	c #59b5e4",
"1a	c #d4f0fb",
"1b	c #c3e9f8",
"1c	c #b0e3f8",
"1d	c #bfeafa",
"1e	c #69bee8",
"1f	c #4caee3",
"1g	c #ceeefa",
"1h	c #bfe8f9",
"1i	c #b3e6f9",
"1j	c #b4e6f9",
"1k	c #b7e7fa",
"1l	c #88d3f0",
"1m	c #3ba2df",
"1n	c #57b4e4",
"1o	c #d1eefb",
"1p	c #97daf6",
"1q	c #9eddf7",
"1r	c #84d0f0",
"1s	c #72bce8",
"1t	c #c6e8fa",
"1u	c #99daf6",
"1v	c #a1ddf7",
"1w	c #66bfe9",
"1x	c #86c9ec",
"1y	c #b4e3f8",
"1z	c #9adbf6",
"20	c #9ddbf6",
"21	c #a9e2f9",
"22	c #369bdb",
"23	c #57ade0",
"24	c #d9effc",
"25	c #b0e0f7",
"26	c #b6e2f8",
"27	c #95d4f0",
"28	c #75bbe6",
"29	c #ccebf9",
"2a	c #b1e0f7",
"2b	c #bae4f8",
"2c	c #62b7e4",
"2d	c #83c5e9",
"2e	c #c2e5f8",
"2f	c #b2e1f7",
"2g	c #bfe8fa",
"2h	c #2f94d7",
"2i	c #56acde",
"2j	c #e6f3fd",
"2k	c #cbe8f9",
"2l	c #a6d8f0",
"2m	c #7abce4",
"2n	c #ddeffc",
"2o	c #d0ebfa",
"2p	c #6eb8e3",
"2q	c #89c6e8",
"2r	c #d6ecfa",
"2s	c #c7e7f8",
"2t	c #d6effb",
"2u	c #2b8ed4",
"2v	c #59aadc",
"2w	c #f6fafe",
"2x	c #dcedfa",
"2y	c #e1f0fb",
"2z	c #bbdcf1",
"30	c #81bfe2",
"31	c #edf5fc",
"32	c #e6f2fc",
"33	c #7bbde3",
"34	c #90c8e7",
"35	c #e9f3fc",
"36	c #edf7fd",
"37	c #2788d1",
"38	c #55a6da",
"39	c #f8fafd",
"3a	c #e5f1fb",
"3b	c #c0dcf0",
"3c	c #80bbe1",
"3d	c #f0f6fc",
"3e	c #ebf4fc",
"3f	c #7cbae2",
"3g	c #90c4e6",
"3h	c #ecf4fc",
"3i	c #f2f8fe",
"3j	c #2582cd",
"3k	c #4da0d7",
"3l	c #e5f3fc",
"3m	c #c3e2f7",
"3n	c #c8e5f8",
"3o	c #a1d2ee",
"3p	c #6db1dc",
"3q	c #dbedfb",
"3r	c #c4e2f7",
"3s	c #cde7f9",
"3t	c #67afdc",
"3u	c #81bee3",
"3v	c #d1eaf9",
"3w	c #c4e3f7",
"3x	c #d4ecfb",
"3y	c #237fca",
"3z	c #489ad5",
"40	c #d4edfa",
"41	c #a8d9f4",
"42	c #aedcf5",
"43	c #89c9eb",
"44	c #5da5d7",
"45	c #c7e8f9",
"46	c #a9d9f4",
"47	c #b3def6",
"48	c #56a5da",
"49	c #77b8e1",
"4a	c #bae2f6",
"4b	c #aad9f4",
"4c	c #b7e2f8",
"4d	c #247bc6",
"4e	c #4397d2",
"4f	c #c5e8f7",
"4g	c #8fd2ef",
"4h	c #95d5f0",
"4i	c #76c0e9",
"4j	c #56a0d5",
"4k	c #b3dff7",
"4l	c #90d2ef",
"4m	c #99d7f1",
"4n	c #489fd7",
"4o	c #70b5df",
"4p	c #a4daf4",
"4q	c #91d2ef",
"4r	c #9cdbf3",
"4s	c #2376c3",
"4t	c #3e91d0",
"4u	c #b8e4f7",
"4v	c #7ccdef",
"4w	c #82d0f1",
"4x	c #68bde7",
"4y	c #519bd2",
"4z	c #a8def6",
"50	c #7ecdf0",
"51	c #86d3f2",
"52	c #4299d5",
"53	c #69b0dd",
"54	c #95d6f3",
"55	c #7fcdf0",
"56	c #89d6f4",
"57	c #2372c0",
"58	c #3b8ccd",
"59	c #b3e2f6",
"5a	c #74cbee",
"5b	c #7acef0",
"5c	c #60b9e6",
"5d	c #4d96cf",
"5e	c #9edcf5",
"5f	c #75cbef",
"5g	c #7dd1f2",
"5h	c #3d95d1",
"5i	c #66abdb",
"5j	c #8ad5f2",
"5k	c #77cbef",
"5l	c #80d4f4",
"5m	c #216dbb",
"5n	c #3988ca",
"5o	c #aee2f6",
"5p	c #6cc6ec",
"5q	c #73caee",
"5r	c #59b4e3",
"5s	c #4a94cc",
"5t	c #99d9f3",
"5u	c #6ec6ed",
"5v	c #76cdf0",
"5w	c #3890d0",
"5x	c #63a9d8",
"5y	c #84d2f1",
"5z	c #6fc7ed",
"60	c #78d0f2",
"61	c #2068b7",
"62	c #3682c6",
"63	c #a1dbf3",
"64	c #5cbbe8",
"65	c #62bfea",
"66	c #4faae0",
"67	c #458cc9",
"68	c #8ad2f0",
"69	c #5ebce8",
"6a	c #65c2ec",
"6b	c #3086cc",
"6c	c #5ca3d6",
"6d	c #74c7ed",
"6e	c #60bce9",
"6f	c #67c5ee",
"6g	c #1f64b4",
"6h	c #327ec3",
"6i	c #96d7f0",
"6j	c #4cb1e4",
"6k	c #53b6e6",
"6l	c #44a2db",
"6m	c #3f88c7",
"6n	c #7ccbed",
"6o	c #4fb3e4",
"6p	c #55b9e8",
"6q	c #2c80c8",
"6r	c #569ed3",
"6s	c #66c0ea",
"6t	c #51b3e5",
"6u	c #56bcea",
"6v	c #205fb1",
"6w	c #3078c1",
"6x	c #89d0ed",
"6y	c #3da7e0",
"6z	c #44ace2",
"70	c #3897d8",
"71	c #3d84c2",
"72	c #70c3ea",
"73	c #40a8e0",
"74	c #46aee4",
"75	c #2473c1",
"76	c #539cd1",
"77	c #57b6e6",
"78	c #41a9e1",
"79	c #46b1e5",
"7a	c #1f5caf",
"7b	c #2d74bd",
"7c	c #79c9ec",
"7d	c #2f9edc",
"7e	c #36a2de",
"7f	c #2e8fd4",
"7g	c #387dc0",
"7h	c #5fbce6",
"7i	c #329fdc",
"7j	c #36a5e0",
"7k	c #1e6cbd",
"7l	c #4e97cf",
"7m	c #47aee2",
"7n	c #34a0dd",
"7o	c #37a7e1",
"7p	c #1e59ab",
"7q	c #2871ba",
"7r	c #69c3e8",
"7s	c #2193d8",
"7t	c #2797da",
"7u	c #2287d0",
"7v	c #3177bc",
"7w	c #4eb4e2",
"7x	c #2494d8",
"7y	c #289adc",
"7z	c #1765b8",
"80	c #4691cc",
"81	c #36a5de",
"82	c #2695d9",
"83	c #289cdd",
"84	c #1c55a7",
"85	c #266eb6",
"86	c #5abee7",
"87	c #1589d4",
"88	c #1a8ed6",
"89	c #1881cb",
"8a	c #3079bb",
"8b	c #3dacdf",
"8c	c #188ad4",
"8d	c #1b90d8",
"8e	c #1462b5",
"8f	c #4091c9",
"8g	c #2a9edc",
"8h	c #198bd5",
"8i	c #1a93db",
"8j	c #1b52a5",
"8k	c #1c5bab",
"8l	c #4db9e4",
"8m	c #1089d3",
"8n	c #148ed5",
"8o	c #156fbf",
"8p	c #286cb3",
"8q	c #39b0e2",
"8r	c #1289d3",
"8s	c #1490d7",
"8t	c #1259ab",
"8u	c #205eac",
"8v	c #2098d9",
"8w	c #148cd5",
"8x	c #148ed7",
"8y	c #1577c5",
"8z	c #1950a2",
"90	c #1654a7",
"91	c #1459ab",
"92	c #155aac",
"93	c #174b9d",
"94	c #1858aa",
"95	c #1458ab",
"96	c #1657a7",
"97	c #164d9f",
"98	c #154a9d",
"99	c #164d9e",
"      131n232i2v383k3z4e4t585n626h6w7b7q858k    ",
"    0r141o242j2w393l404f4u595o636i6x7c7r868l90  ",
"    0i151p250o2x0p3m414g4v5a5p646j6y7d7s878m91  ",
"    0i160h..||XX++//060708090a0b0c0d0e0f0g0j0k  ",
"    0i0l0h..||XX++//060708090a0b0c0d0e0f0g0j0k  ",
"    0i0l0h..||XX++//060708090a0b0c0d0e0f0g0j0k  ",
"    0s171q262k2y3a3n424h4w5b5q656k6z7e7t888n92  ",
"    0t181r272l2z3b3o434i4x5c5r666l707f7u898o93  ",
"      191s282m303c3p444j4y5d5s676m717g7v8a8p    ",
"    0u1a1t292n313d3q454k4z5e5t686n727h7w8b8q94  ",
"    0v1b1u2a0oXX0p3r464l505f5u696o737i7x8c8r95  ",
"    0i1c0h..||XX++//060708090a0b0c0d0e0f0g0j0k  ",
"    0i0l0h..||XX++//060708090a0b0c0d0e0f0g0j0k  ",
"    0w0l0h..||XX++//060708090a0b0c0d0e0f0g0j0k  ",
"    0x1d1v2b2o323e3s474m515g5v6a6p747j7y8d8s96  ",
"      1e1w2c2p333f3t484n525h5w6b6q757k7z8e8t    ",
"    0y1f1x2d2q343g3u494o535i5x6c6r767l808f8u97  ",
"    0z1g1y2e2r353h3v4a4p545j5y6d6s777m818g8v98  ",
"    101h1z2f2sXX++3w4b4q555k5z6e6t787n828h8w0m  ",
"    0n1i0h..||XX++//060708090a0b0c0d0e0f0g0q0m  ",
"    0n1j0h..||XX++//060708090a0b0c0d0e0f0g0q0m  ",
"    111k20..||XX++//060708090a0b0c0d0e0f0g8x0m  ",
"    121l212g2t363i3x4c4r565l606f6u797o838i8y99  ",
"      1m222h2u373j3y4d4s575m616g6v7a7p848j8z    "};