/* XPM */
static char * xpm_delete[] = {
"24 24 285 2",
"  	c None",
"XX	c #ab0f14",
"++	c #f0533c",
"..	c #f05039",
"||	c #ef4d37",
"//	c #ef4934",
"06	c #f26346",
"07	c #f15f44",
"08	c #ef4230",
"09	c #f05139",
"0a	c #ea1a22",
"0b	c #eb2b32",
"0c	c #b30e15",
"0d	c #b3181e",
"0e	c #b9272b",
"0f	c #ad161b",
"0g	c #a20d12",
"0h	c #ec1922",
"0i	c #ef4b4e",
"0j	c #de1821",
"0k	c #b60e15",
"0l	c #bc272d",
"0m	c #de6768",
"0n	c #ee5857",
"0o	c #dd2a2e",
"0p	c #b11116",
"0q	c #9d0a0f",
"0r	c #f5876b",
"0s	c #f26747",
"0t	c #eb4a3b",
"0u	c #db1720",
"0v	c #bf272d",
"0w	c #e67473",
"0x	c #f65d5a",
"0y	c #ef2625",
"0z	c #f42326",
"10	c #d91b20",
"11	c #a30c11",
"12	c #ef363c",
"13	c #f26548",
"14	c #f2674a",
"15	c #ee2828",
"16	c #f02528",
"17	c #e41e23",
"18	c #aa0d13",
"19	c #ed232a",
"1a	c #f5817b",
"1b	c #f6937a",
"1c	c #f26749",
"1d	c #f26649",
"1e	c #f26447",
"1f	c #f3635a",
"1g	c #ee2d2a",
"1h	c #ef2929",
"1i	c #f12528",
"1j	c #cb171d",
"1k	c #a00b10",
"1l	c #eb1821",
"1m	c #ed3138",
"1n	c #f58d83",
"1o	c #f26547",
"1p	c #ee322b",
"1q	c #ee2e2a",
"1r	c #f12a2a",
"1s	c #d51d20",
"1t	c #a80d12",
"1u	c #9e0b0f",
"1v	c #ea161f",
"1w	c #ec2f36",
"1x	c #c9131c",
"1y	c #ee362c",
"1z	c #ee332c",
"20	c #f12f2b",
"21	c #d72122",
"22	c #a30d12",
"23	c #f58770",
"24	c #f15c42",
"25	c #ee3b2e",
"26	c #ef382d",
"27	c #f1342d",
"28	c #d92423",
"29	c #af1115",
"2a	c #a70e13",
"2b	c #f15a40",
"2c	c #f0573d",
"2d	c #f1543c",
"2e	c #ef3c2f",
"2f	c #f0392e",
"2g	c #da2824",
"2h	c #b21217",
"2i	c #f1583e",
"2j	c #f0563d",
"2k	c #ef4533",
"2l	c #f03d2f",
"2m	c #db2b27",
"2n	c #b71319",
"2o	c #b01016",
"2p	c #f0543a",
"2q	c #ef4532",
"2r	c #f04231",
"2s	c #de2f28",
"2t	c #bb151b",
"2u	c #b41218",
"2v	c #f04633",
"2w	c #ed3f2f",
"2x	c #c51b1e",
"2y	c #b81219",
"2z	c #ea3135",
"30	c #e51f27",
"31	c #e11720",
"32	c #f4887c",
"33	c #f37a64",
"34	c #ed4d40",
"35	c #e21c22",
"36	c #ee2b32",
"37	c #f7958b",
"38	c #f3694a",
"39	c #e01c23",
"3a	c #bb1016",
"3b	c #f8a697",
"3c	c #f4785b",
"3d	c #f36648",
"3e	c #eb4838",
"3f	c #dc1b22",
"3g	c #d81720",
"3h	c #be1117",
"3i	c #c3292f",
"3j	c #e87573",
"3k	c #f35953",
"3l	c #ee2b28",
"3m	c #e94637",
"3n	c #d91b22",
"3o	c #d5161f",
"3p	c #c21117",
"3q	c #c72a2e",
"3r	c #e87976",
"3s	c #ee312a",
"3t	c #f58c73",
"3u	c #f16145",
"3v	c #f26044",
"3w	c #e84336",
"3x	c #d51a21",
"3y	c #d2171f",
"3z	c #c51119",
"40	c #ca2a30",
"41	c #ea7b75",
"42	c #f4675b",
"43	c #ee352a",
"44	c #f48981",
"45	c #f58970",
"46	c #f26245",
"47	c #f15e43",
"48	c #f25d41",
"49	c #e64133",
"4a	c #d21920",
"4b	c #cd151e",
"4c	c #cd2d34",
"4d	c #e97872",
"4e	c #f46456",
"4f	c #ee392d",
"4g	c #e8171f",
"4h	c #e8252d",
"4i	c #f17a75",
"4j	c #f15f42",
"4k	c #f15b40",
"4l	c #f2593f",
"4m	c #e53f32",
"4n	c #d21c21",
"4o	c #d22e33",
"4p	c #ea736c",
"4q	c #f36353",
"4r	c #ef3e2c",
"4s	c #e6171f",
"4t	c #e6242c",
"4u	c #f07873",
"4v	c #f4836c",
"4w	c #f15c41",
"4x	c #ec4936",
"4y	c #ee5442",
"4z	c #f15540",
"50	c #ef4330",
"51	c #ef4231",
"52	c #e2151d",
"53	c #e3252c",
"54	c #f2867e",
"55	c #f5816b",
"56	c #f1523a",
"57	c #f04d35",
"58	c #ef4732",
"59	c #df161e",
"5a	c #e22f37",
"5b	c #f1887f",
"5c	c #f4735d",
"5d	c #dd141d",
"5e	c #e4474b",
"5f	c #f69484",
"5g	c #f15e46",
"5h	c #dd131c",
"5i	c #e33f44",
"5j	c #f79585",
"5k	c #f15f47",
"5l	c #df151e",
"5m	c #e22e36",
"5n	c #f1867f",
"5o	c #f47660",
"5p	c #e2141d",
"5q	c #e42d35",
"5r	c #f28880",
"5s	c #f4816b",
"5t	c #f1593e",
"5u	c #ef4c35",
"5v	c #ef4833",
"5w	c #e5161f",
"5x	c #e72f36",
"5y	c #f2897f",
"5z	c #f5846c",
"60	c #f15c40",
"61	c #ef503a",
"62	c #f05540",
"63	c #f04f3a",
"64	c #ef432f",
"65	c #e8161f",
"66	c #e92f36",
"67	c #f38b82",
"68	c #f15e42",
"69	c #f25b41",
"6a	c #e53f31",
"6b	c #d42123",
"6c	c #d42f32",
"6d	c #e97068",
"6e	c #f36858",
"6f	c #ef402f",
"6g	c #f48c84",
"6h	c #f58971",
"6i	c #f26145",
"6j	c #f25c41",
"6k	c #e33930",
"6l	c #d21820",
"6m	c #cd141d",
"6n	c #cd2b32",
"6o	c #e7746f",
"6p	c #f36a5c",
"6q	c #ef392c",
"6r	c #f58b73",
"6s	c #f26146",
"6t	c #f25f44",
"6u	c #e33931",
"6v	c #d41720",
"6w	c #d21720",
"6x	c #c51118",
"6y	c #c71f26",
"6z	c #e26c6a",
"70	c #f4675c",
"71	c #ef352a",
"72	c #f16246",
"73	c #e63a32",
"74	c #d81820",
"75	c #d61820",
"76	c #c11018",
"77	c #c31f25",
"78	c #e16c6a",
"79	c #ee302a",
"7a	c #f8a696",
"7b	c #f4785c",
"7c	c #f36748",
"7d	c #e83e34",
"7e	c #d91820",
"7f	c #be1118",
"7g	c #c01e25",
"7h	c #e47270",
"7i	c #f45e59",
"7j	c #ee2b27",
"7k	c #ee2b31",
"7l	c #f79389",
"7m	c #f36a4c",
"7n	c #df1b23",
"7o	c #dd1820",
"7p	c #b91016",
"7q	c #f4897c",
"7r	c #f37861",
"7s	c #ec4437",
"7t	c #e21d23",
"7u	c #ea3034",
"7v	c #e41a22",
"7w	c #e11821",
"  0h3612191l                        1l19127k0h  ",
"0a0i373b1a1m1v                    1v1m1a7a7l0i0a",
"0b320r3c1b1n1w4g                651w1n1b7b0r7q0b",
"2z330s131c3t444h4s            5w666g6r1c130s7r7u",
"303438141d1o454i4t52        5p5x676h1o1d147m7s7v",
"31350t3d1e0646234u5359    5l5q5y236i061e7c0t7t7w",
"  0j393e063u074j4v545a5d5h5m5r5z68076s727d7n0j  ",
"    0u3f3m3v47244w555b5e5i5n5s6024076t730u7o    ",
"      3g3n3w484k2b2i5c5f5j5o5t2b696j6u747e      ",
"        3o3x494l2c2j2p5g5k2p2j2c2i6k6v75        ",
"          3y4a4m2d++++0909++++2d6a6l6w          ",
"            4b4n4x56........09616b6m            ",
"            1x4o4y57||||||||5u626c1x            ",
"          3z4c4p4z58////////5v636d6n6x          ",
"        3p404d4q502k2q2v2v2q2k646e6o6y76        ",
"      3h3q414e4r51082r2w2w2r08086f6p6z777f      ",
"    3a3i3r424f252e2l2s2x2x2s2l2e256q70787g7p    ",
"  0k0v3j1f431y262f2m2t2y2y2t2m2f261y711f7h0v0k  ",
"0c0l0w3k3s1p1z272g2n2u    2u2n2g271z1p797i0w0l0c",
"0d0m0x3l1g1q20282h2o        2o2h28201q1g7j0x0m0d",
"0e0n0y151h1r2129XX            XX29211r1h150y0n0e",
"0f0o0z161i1sXX2a                2aXX1s1i160z0o0f",
"0g0p10171j1t22                    221t1j17100p0g",
"  0q11181k1u                        1u1k18110q  "};