/* XPM */
static char * xpm_delivery[] = {
"24 24 286 2",
"  	c None",
"XX	c #5bc017",
"++	c #49b115",
"..	c #6ec915",
"||	c #65c417",
"//	c #80c2ec",
"06	c #eaf5ff",
"07	c #e4eef7",
"08	c #74d6f9",
"09	c #a7d2f0",
"0a	c #6accf4",
"0b	c #5bc3f0",
"0c	c #47b4eb",
"0d	c #35a5e5",
"0e	c #2295dd",
"0f	c #5ac010",
"0g	c #e3f0fc",
"0h	c #38393c",
"0i	c #c1def6",
"0j	c #0b88d7",
"0k	c #bdefff",
"0l	c #c2dff6",
"0m	c #5bc212",
"0n	c #57bd18",
"0o	c #47484e",
"0p	c #bceeff",
"0q	c #e8f3fe",
"0r	c #2a9414",
"0s	c #40a814",
"0t	c #39a014",
"0u	c #349b13",
"0v	c #309613",
"0w	c #2c9113",
"0x	c #278c13",
"0y	c #258611",
"0z	c #218311",
"10	c #1f7f11",
"11	c #1d7d11",
"12	c #2f9c15",
"13	c #6fcb15",
"14	c #69c717",
"15	c #5fc317",
"16	c #5ac019",
"17	c #54bd19",
"18	c #4fbb19",
"19	c #4ab719",
"1a	c #45af15",
"1b	c #70ca15",
"1c	c #66c417",
"1d	c #75dcff",
"1e	c #0a8de0",
"1f	c #2b2320",
"1g	c #ecf5ff",
"1h	c #74d7fa",
"1i	c #39383a",
"1j	c #bcefff",
"1k	c #5ac111",
"1l	c #bdf0ff",
"1m	c #1b790e",
"1n	c #1a7904",
"1o	c #146f00",
"1p	c #003900",
"1q	c #46b718",
"1r	c #43b516",
"1s	c #40b410",
"1t	c #3fb40a",
"1u	c #3bb00c",
"1v	c #34ab94",
"1w	c #54c3ff",
"1x	c #52c3ff",
"1y	c #45b9ff",
"1z	c #35acf7",
"20	c #279be4",
"21	c #2396e1",
"22	c #51ba17",
"23	c #4db912",
"24	c #46b309",
"25	c #40b201",
"26	c #31a535",
"27	c #36a67c",
"28	c #289cbc",
"29	c #007ce8",
"2a	c #7bdaff",
"2b	c #6dd0f8",
"2c	c #5cccfc",
"2d	c #47aee4",
"2e	c #33adf2",
"2f	c #2196e0",
"2g	c #0b85d5",
"2h	c #52bb0f",
"2i	c #32a443",
"2j	c #4eb5cc",
"2k	c #62beff",
"2l	c #7dcaff",
"2m	c #86cefb",
"2n	c #329dd8",
"2o	c #40abdd",
"2p	c #7adafc",
"2q	c #68cef9",
"2r	c #47525d",
"2s	c #686160",
"2t	c #4b4e52",
"2u	c #2590d9",
"2v	c #0a88da",
"2w	c #1874bf",
"2x	c #2b1b12",
"2y	c #383839",
"2z	c #58be15",
"30	c #3fb023",
"31	c #94d8ff",
"32	c #b8e8ff",
"33	c #bde1f3",
"34	c #cee5f3",
"35	c #e5eef6",
"36	c #d3e6f8",
"37	c #9bcff1",
"38	c #4c86ac",
"39	c #544f50",
"3a	c #686c70",
"3b	c #645e5f",
"3c	c #295b88",
"3d	c #176eb6",
"3e	c #47484d",
"3f	c #5abf10",
"3g	c #279971",
"3h	c #bfefff",
"3i	c #e4edf5",
"3j	c #f6f9ff",
"3k	c #dcecfc",
"3l	c #a3d0ef",
"3m	c #7ec2ec",
"3n	c #4c8cb4",
"3o	c #332b29",
"3p	c #4a4b4e",
"3q	c #3f3835",
"3r	c #21588a",
"3s	c #1768b1",
"3t	c #28956b",
"3u	c #bcedff",
"3v	c #e5eef7",
"3w	c #e6f3fd",
"3x	c #d3e7f8",
"3y	c #a5d1ef",
"3z	c #6fdbff",
"40	c #234057",
"41	c #110400",
"42	c #18222e",
"43	c #2397e3",
"44	c #0a89d9",
"45	c #1473c3",
"46	c #249166",
"47	c #e7f3fd",
"48	c #cde5f8",
"49	c #a6d1ef",
"4a	c #6acef6",
"4b	c #5eccfd",
"4c	c #4ac2fe",
"4d	c #37aff3",
"4e	c #2397e0",
"4f	c #0a87d7",
"4g	c #107dd3",
"4h	c #238f65",
"4i	c #e8f3fd",
"4j	c #c9e1f8",
"4k	c #a6d2ef",
"4l	c #0a87d6",
"4m	c #1277cb",
"4n	c #228d60",
"4o	c #0e72ca",
"4p	c #1f885f",
"4q	c #0d6ec7",
"4r	c #5ac011",
"4s	c #1e865a",
"4t	c #c1dff6",
"4u	c #0b6bc2",
"4v	c #1d8259",
"4w	c #0a66c1",
"4x	c #1a8054",
"4y	c #0c89d7",
"4z	c #0863be",
"50	c #187c53",
"51	c #0c89d8",
"52	c #065fb8",
"53	c #187952",
"54	c #0c8ad8",
"55	c #055db7",
"56	c #16764d",
"57	c #e6f1fe",
"58	c #6acdf5",
"59	c #5bc9f8",
"5a	c #46bcf8",
"5b	c #34abee",
"5c	c #2296de",
"5d	c #0c8ad9",
"5e	c #0259b9",
"5f	c #5bc312",
"5g	c #14744c",
"5h	c #6cd6ff",
"5i	c #4a6e8b",
"5j	c #594d47",
"5k	c #46627b",
"5l	c #2396e0",
"5m	c #0b8cdc",
"5n	c #044da3",
"5o	c #126f4e",
"5p	c #c1f3ff",
"5q	c #e7eff5",
"5r	c #f0f7ff",
"5s	c #c8e2f7",
"5t	c #75dbfe",
"5u	c #5396bb",
"5v	c #574f4f",
"5w	c #717276",
"5x	c #645c5a",
"5y	c #296697",
"5z	c #0b90e3",
"60	c #07448e",
"61	c #2c2723",
"62	c #59bf16",
"63	c #36a119",
"64	c #87c8ff",
"65	c #b3e8ff",
"66	c #b1dcef",
"67	c #bfddee",
"68	c #a7cbe3",
"69	c #b5daf3",
"6a	c #88c6ee",
"6b	c #77dcff",
"6c	c #477ea5",
"6d	c #3b3638",
"6e	c #4f4f53",
"6f	c #4c4445",
"6g	c #204f7c",
"6h	c #0c91e4",
"6i	c #03438d",
"6j	c #2c2724",
"6k	c #58bd18",
"6l	c #54be11",
"6m	c #218828",
"6n	c #2f8aa6",
"6o	c #4291e7",
"6p	c #74bef7",
"6q	c #52baf8",
"6r	c #0779c7",
"6s	c #2b9cd4",
"6t	c #7ddcfe",
"6u	c #6bd0fb",
"6v	c #171b23",
"6w	c #201513",
"6x	c #181514",
"6y	c #238bd7",
"6z	c #0c8fdf",
"70	c #004391",
"71	c #30251b",
"72	c #39393b",
"73	c #51bb17",
"74	c #4ebb14",
"75	c #48b70b",
"76	c #44b704",
"77	c #228c22",
"78	c #167453",
"79	c #0661a0",
"7a	c #004dc7",
"7b	c #78dbff",
"7c	c #71d6fc",
"7d	c #63d4ff",
"7e	c #41a7e1",
"7f	c #3ab4f8",
"7g	c #249ce3",
"7h	c #0d8adc",
"7i	c #46b818",
"7j	c #45b717",
"7k	c #43b813",
"7l	c #43ba0d",
"7m	c #39af0c",
"7n	c #15725f",
"7o	c #2887e6",
"7p	c #3ca6f1",
"7q	c #319aec",
"7r	c #238ce5",
"7s	c #106ec5",
"7t	c #0048a5",
"7u	c #1c7a0f",
"7v	c #1d7d09",
"7w	c #146d00",
"7x	c #003d00",
"  121a++++++++++++++++++++++++++++++++++++1a12  ",
"0r131b....................................1b130r",
"0s141c||||||||||||||||||||||||||||||||||||1c140s",
"0t15XXXXXXXXXXXXXXXXXXXXXXXXXXXXXXXXXXXXXXXX150t",
"0u160n0n2z3f0f0f0f0f0f4r1k1k0m0m0m5f0m626k0n160u",
"0v17222h303g3t464h4n4p4s4v4x5053565g5o636l73170v",
"0w18232i313h3u0p0p0p1j1j0k0k0k0k1l1l5p646m74180w",
"0x19242j323i3v07070707070707070707075q656n75190x",
"0y1q252k333j0606060606060606060606065r666o767i0y",
"0z1r262l341g3w474i0q0q0g0g0g0g0g570q1g676p777j0z",
"101s272m353k3x484j0i0i4t0l0l0l0l0i0i5s686q787k10",
"111t282n363l3y494k09090909090909090909696r797l11",
"1m1u292o373m//////////////////////////6a6s7a7m7u",
"1n1v2a2p1d1d1h080808080808080808081h5t6b6t7b7n7v",
"1o1w2b2q383n3z4a0a0a0a0a0a0a0a0a585h5u6c6u7c7o7w",
"1p1x2c2r393o404b0b0b0b0b0b0b0b0b595i5v6d6v7d7p7x",
"  1y2d2s3a3p414c0c0c0c0c0c0c0c0c5a5j5w6e6w7e7q  ",
"  1z2e2t3b3q424d0d0d0d0d0d0d0d0d5b5k5x6f6x7f7r  ",
"  202f2u3c3r434e0e0e0e0e0e0e0e0e5c5l5y6g6y7g7s  ",
"  212g2v1e1e444f4l0j0j0j0j4y51545d5m5z6h6z7h7t  ",
"      2w3d3s454g4m4o4q4u4w4z52555e5n606i70      ",
"      2x1f1f                        616j71      ",
"      2y0h0h1i                    1i0h0h72      ",
"        3e0o                        0o0o        "};