/* XPM */
static char * xpm_diagram[] = {
"24 24 181 2",
"  	c None",
"XX	c #86d1f2",
"++	c #85d1f2",
"..	c #53ade1",
"||	c #f35435",
"//	c #ef1016",
"06	c #2a92d3",
"07	c #49ab2e",
"08	c #339f2b",
"09	c #208bcf",
"0a	c #258ed1",
"0b	c #f2442b",
"0c	c #f23d27",
"0d	c #f13120",
"0e	c #f0211c",
"0f	c #59b2e3",
"0g	c #f35031",
"0h	c #f45c3b",
"0i	c #f35637",
"0j	c #f24129",
"0k	c #f12b1f",
"0l	c #ef1819",
"0m	c #5fb7e5",
"0n	c #59b1e3",
"0o	c #f5714d",
"0p	c #f46442",
"0q	c #f2482d",
"0r	c #f12e1f",
"0s	c #f01a1a",
"0t	c #fb0203",
"0u	c #58c8f9",
"0v	c #5eb4e5",
"0w	c #58b1e3",
"0x	c #52ace0",
"0y	c #4aa8de",
"0z	c #f2492e",
"10	c #f35b39",
"11	c #f24028",
"12	c #f12a1d",
"13	c #ef1719",
"14	c #fc0103",
"15	c #5db3e5",
"16	c #57b0e2",
"17	c #4ba8de",
"18	c #44a2db",
"19	c #3c9cd9",
"1a	c #f4321e",
"1b	c #f33e27",
"1c	c #f23c26",
"1d	c #f12f20",
"1e	c #f0201b",
"1f	c #ef1318",
"1g	c #fb0406",
"1h	c #55b0e2",
"1i	c #52ade0",
"1j	c #3c9dd8",
"1k	c #3498d6",
"1l	c #e33531",
"1m	c #f42317",
"1n	c #f0251c",
"1o	c #f01d1b",
"1p	c #ef1518",
"1q	c #3397d5",
"1r	c #82d2f5",
"1s	c #ef1617",
"1t	c #ef1316",
"1u	c #2a92d2",
"1v	c #7dccf1",
"1w	c #2990d2",
"1x	c #228dd0",
"1y	c #82cff1",
"1z	c #1c8add",
"20	c #86d2f2",
"21	c #7eccf1",
"22	c #4ba921",
"23	c #7acbf0",
"24	c #69b935",
"25	c #70bb36",
"26	c #69b934",
"27	c #55b130",
"28	c #40a62d",
"29	c #76c7ef",
"2a	c #7cc238",
"2b	c #92cc3e",
"2c	c #7fc23a",
"2d	c #62b433",
"2e	c #75c6ef",
"2f	c #67b833",
"2g	c #7ec23a",
"2h	c #95cd3e",
"2i	c #80c33a",
"2j	c #64b733",
"2k	c #84d1f2",
"2l	c #78c8ef",
"2m	c #59b2e7",
"2n	c #69ba35",
"2o	c #75bd38",
"2p	c #6bba35",
"2q	c #58b031",
"2r	c #42a52d",
"2s	c #319f2b",
"2t	c #85d0f2",
"2u	c #79caf1",
"2v	c #4da7e3",
"2w	c #52ac30",
"2x	c #57b131",
"2y	c #54ad30",
"2z	c #45a72e",
"30	c #36a12b",
"31	c #2f9e2a",
"32	c #7dcdf1",
"33	c #64bae9",
"34	c #4ca6e1",
"35	c #42a81e",
"36	c #3da41d",
"37	c #35a31e",
"38	c #2f9e28",
"39	c #87d2f2",
"3a	c #82cef2",
"3b	c #77c8ee",
"3c	c #60b6ec",
"3d	c #81cff1",
"3e	c #7dcaf1",
"3f	c #61bdff",
"3g	c #f7f01d",
"3h	c #f4e70e",
"3i	c #f8ce0e",
"3j	c #2890d1",
"3k	c #1a86cd",
"3l	c #d0e49a",
"3m	c #fef467",
"3n	c #f9f463",
"3o	c #f6f228",
"3p	c #f5df0c",
"3q	c #fbb610",
"3r	c #3499d6",
"3s	c #2f94d3",
"3t	c #268fd1",
"3u	c #1985cc",
"3v	c #fff56c",
"3w	c #fdf9b3",
"3x	c #fcf799",
"3y	c #f7f34c",
"3z	c #f4e90e",
"40	c #f9c20e",
"41	c #fa9b11",
"42	c #1f8ace",
"43	c #1886cc",
"44	c #f9f365",
"45	c #fbf79c",
"46	c #faf586",
"47	c #f7f240",
"48	c #f4e70d",
"49	c #f9c00e",
"4a	c #fc990e",
"4b	c #2b93d3",
"4c	c #1786cc",
"4d	c #f6f12b",
"4e	c #f8f34d",
"4f	c #f7f241",
"4g	c #f4f017",
"4h	c #f7d70e",
"4i	c #fab010",
"4j	c #ff9301",
"4k	c #3b9dd9",
"4l	c #3297d5",
"4m	c #f4e40d",
"4n	c #f4e80f",
"4o	c #f4e70f",
"4p	c #f7d70d",
"4q	c #f9bd0e",
"4r	c #fd9b0e",
"4s	c #47aff1",
"4t	c #4daadf",
"4u	c #47a5dd",
"4v	c #3f9fda",
"4w	c #3a9cd7",
"4x	c #f8c80e",
"4y	c #fabc0f",
"4z	c #faae10",
"50	c #fa9a11",
"                                39              ",
"                  20XXXX++2k2t  XX++            ",
"            XX++1y2123292e2l2u323a3d            ",
"            1r1v              333b3e            ",
"  0g||0z1a1l              2m2v343c3f3l3v444d4m  ",
"0b0h0o101b1m                        3m3w454e4n4x",
"0c0i0p||1c1n1s                    3g3n3x464f4o4y",
"0d0j0q111d1o1t                    3h3o3y474g4p4z",
"0e0k0r121e1p//                    3i3p3z484h4q50",
"  0l0s131f//                        3q40494i4r  ",
"    0t141g                            414a4j    ",
"    0u                                      4s  ",
"  0m0v15                                    4t  ",
"0f0n0w161h                                  4u  ",
"....0x  1i                                  4v  ",
"    0y17                                  4k4w  ",
"      18                            3r    4l    ",
"      191j              2f          3s  4b06    ",
"        1k1q        242a2g2n2w    3j3t0a0a      ",
"          061u1w    252b2h2o2x35  090942        ",
"              1x1z  262c2i2p2y36  3k3u434c      ",
"                  22272d2j2q2z37                ",
"                    2807072r3038                ",
"                      08082s31                  "};