/* XPM */
static char * xpm_dial[] = {
"24 24 238 2",
"  	c None",
"XX	c #6dd846",
"++	c #6cd846",
"..	c #8fdc3a",
"||	c #6fd845",
"//	c #6ed846",
"06	c #71de48",
"07	c #92dd39",
"08	c #8cdc3b",
"09	c #8adb3c",
"0a	c #82da3f",
"0b	c #7eda3f",
"0c	c #79da41",
"0d	c #40a038",
"0e	c #75d944",
"0f	c #338f35",
"0g	c #2d8233",
"0h	c #72e148",
"0i	c #6cd844",
"0j	c #3d9d38",
"0k	c #6dda46",
"0l	c #4bb238",
"0m	c #5fbb52",
"0n	c #84cb6a",
"0o	c #7dca69",
"0p	c #7bc56a",
"0q	c #4eab4a",
"0r	c #3a9f36",
"0s	c #45b42f",
"0t	c #83cf6b",
"0u	c #d2edad",
"0v	c #d9f298",
"0w	c #c3eb74",
"0x	c #beea6e",
"0y	c #bdeb6e",
"0z	c #d1f194",
"10	c #d1eeb1",
"11	c #9ed88a",
"12	c #4ba64b",
"13	c #54bc39",
"14	c #bee69b",
"15	c #d7f09a",
"16	c #a7e246",
"17	c #90db2d",
"18	c #8fdc33",
"19	c #8cdb33",
"1a	c #8bdb34",
"1b	c #86da33",
"1c	c #83d92f",
"1d	c #a3e558",
"1e	c #c8f09a",
"1f	c #a3d997",
"1g	c #429b43",
"1h	c #46b82e",
"1i	c #abe095",
"1j	c #b8e67e",
"1k	c #93dd2b",
"1l	c #95dc35",
"1m	c #8ddc3b",
"1n	c #8adb3b",
"1o	c #89db3b",
"1p	c #84da3b",
"1q	c #7fda34",
"1r	c #98e152",
"1s	c #caeea6",
"1t	c #6cba6b",
"1u	c #2a872b",
"1v	c #86d45d",
"1w	c #c6ef9d",
"1x	c #3cac2e",
"1y	c #7acf36",
"1z	c #9be138",
"20	c #93de39",
"21	c #8edc3a",
"22	c #88db3e",
"23	c #85db3e",
"24	c #80d93c",
"25	c #79d935",
"26	c #b0ea79",
"27	c #9fd497",
"28	c #2e8a32",
"29	c #95d969",
"2a	c #9fe23f",
"2b	c #78dd40",
"2c	c #3fa53b",
"2d	c #74cd37",
"2e	c #96e03a",
"2f	c #88db3c",
"2g	c #86dd3e",
"2h	c #84db3f",
"2i	c #80da40",
"2j	c #78d93a",
"2k	c #90e456",
"2l	c #a5d99b",
"2m	c #2e8a31",
"2n	c #4ab936",
"2o	c #80d537",
"2p	c #98df38",
"2q	c #79dd43",
"2r	c #379c39",
"2s	c #71c938",
"2t	c #96e23b",
"2u	c #8bdc3b",
"2v	c #8bdc3c",
"2w	c #8ce13f",
"2x	c #74d13c",
"2y	c #85de41",
"2z	c #81db40",
"30	c #7dda40",
"31	c #76d93c",
"32	c #87e04d",
"33	c #afdfa5",
"34	c #2d8831",
"35	c #4cba3a",
"36	c #82d439",
"37	c #94e03b",
"38	c #76dd43",
"39	c #339537",
"3a	c #4eac39",
"3b	c #94e33d",
"3c	c #8ae040",
"3d	c #47aa38",
"3e	c #3a9b37",
"3f	c #369637",
"3g	c #57ba3c",
"3h	c #7fdd41",
"3i	c #7edb41",
"3j	c #79da42",
"3k	c #74d83e",
"3l	c #86e14e",
"3m	c #a2d89b",
"3n	c #2f8732",
"3o	c #82d336",
"3p	c #92df3a",
"3q	c #77de44",
"3r	c #319037",
"3s	c #4cab39",
"3t	c #59bb3a",
"3u	c #399737",
"3v	c #409f37",
"3w	c #7ee041",
"3x	c #7bdc42",
"3y	c #77d942",
"3z	c #76d941",
"40	c #73d841",
"41	c #87e350",
"42	c #87ca85",
"43	c #80d338",
"44	c #92e13c",
"45	c #78e045",
"46	c #379238",
"47	c #3f9f37",
"48	c #7ce043",
"49	c #78db42",
"4a	c #6fd941",
"4b	c #90e165",
"4c	c #4c9d51",
"4d	c #68c636",
"4e	c #69c93b",
"4f	c #52b73c",
"4g	c #6fd543",
"4h	c #77db45",
"4i	c #73d944",
"4j	c #6ed845",
"4k	c #6bd93e",
"4l	c #a2e190",
"4m	c #328836",
"4n	c #389436",
"4o	c #75dc42",
"4p	c #73da45",
"4q	c #6ed843",
"4r	c #77e047",
"4s	c #5eab60",
"4t	c #59bc47",
"4u	c #70da44",
"4v	c #6bda42",
"4w	c #88d675",
"4x	c #2a862c",
"4y	c #91d780",
"4z	c #6dd940",
"50	c #6dd945",
"51	c #6cd649",
"52	c #2b8a2a",
"53	c #80c47d",
"54	c #b9ec99",
"55	c #6ad73f",
"56	c #2b8033",
"57	c #399736",
"58	c #9dd693",
"59	c #c4efa8",
"5a	c #6ed93f",
"5b	c #a0dd8d",
"5c	c #96d882",
"5d	c #6dda41",
"5e	c #3b9b37",
"5f	c #3d9c39",
"5g	c #e4faa6",
"5h	c #55c332",
"5i	c #48ad38",
"5j	c #71dc47",
"5k	c #6ed946",
"5l	c #3c9d37",
"5m	c #349234",
"5n	c #80d13f",
"5o	c #93e43a",
"5p	c #50b63c",
"5q	c #43a439",
"5r	c #70db47",
"5s	c #6dd946",
"5t	c #318534",
"5u	c #2f8d35",
"5v	c #78cb35",
"5w	c #92e540",
"5x	c #49b13c",
"5y	c #6edd47",
"5z	c #6bd946",
"60	c #379337",
"61	c #90db37",
"62	c #8de341",
"63	c #46ab3c",
"64	c #389637",
"65	c #6fdd47",
"66	c #72df48",
"67	c #48b13c",
"68	c #359137",
"69	c #8fdc37",
"6a	c #8ae442",
"6b	c #42a73b",
"6c	c #369237",
"6d	c #6adb44",
"6e	c #2d8033",
"6f	c #348f36",
"6g	c #8ddc37",
"6h	c #8be842",
"6i	c #45ad3c",
"6j	c #2d8134",
"6k	c #62bc39",
"6l	c #41a239",
"      1h1v292n                                  ",
"    131i1w2a2o35                                ",
"  0s141j1x2b2p36                                ",
"  0t151k1y2c2q373o                              ",
"0l0u161l1z2d2r383p43                            ",
"0m0v1707202e2s393q444d                          ",
"0n0w1807....2t3a3r454e                          ",
"0o0x19..21082u3b3s464f                          ",
"0p0y1a1m08092v3c3t0d                            ",
"0q0z1b1n092f2w3d0d                              ",
"0r101c1o222g2x3e                                ",
"  111d1p232h0b3f                                ",
"  121e1q0a0a2y3g3u                              ",
"    1f1r242i2z3h3v                5f5m          ",
"    1g1s250b303i3w47          575b5g5n5u        ",
"      1t262j0c0c3x480f      52585c5h5o5v60      ",
"      1u272k313j3y494g4n  4x53595d5i5p5w6168    ",
"        282l323k3z0e4h4o4t4y545a0i5j5q5x62696f  ",
"          2m333l400e4i4p4u4z550iXX5k5r0j636a6g0f",
"            343m414a4j||||||//XXXXXX5s5y646b6h6k",
"              3n424b4k4q////XXXXXX++++0k656c6i6l",
"                  4c4l4r4v50XXXX++++++0k666d6j  ",
"                    4m4s4w510h0606060h5z676e    ",
"                          0g560j5e5l5t0g        "};