/* XPM */
static char * xpm_disaster[] = {
"24 24 139 2",
"  	c None",
"XX	c #aa070a",
"++	c #a20608",
"..	c #f87f68",
"||	c #fa9f80",
"//	c #f99276",
"06	c #a90609",
"07	c #a30407",
"08	c #c71317",
"09	c #b70d10",
"0a	c #b8060a",
"0b	c #b4070d",
"0c	c #a20406",
"0d	c #c11519",
"0e	c #f4252c",
"0f	c #d10f13",
"0g	c #a70609",
"0h	c #d6080f",
"0i	c #bf060b",
"0j	c #f55b5c",
"0k	c #c11217",
"0l	c #a60206",
"0m	c #c1191b",
"0n	c #ed2c32",
"0o	c #ff1f25",
"0p	c #cd0a0e",
"0q	c #a40609",
"0r	c #da0f17",
"0s	c #f28682",
"0t	c #d40c15",
"0u	c #c6080d",
"0v	c #cd1217",
"0w	c #fc786f",
"0x	c #f93431",
"0y	c #f62f30",
"0z	c #ef444a",
"10	c #fa252c",
"11	c #fa141a",
"12	c #e30e15",
"13	c #a30609",
"14	c #e42a33",
"15	c #f9aa97",
"16	c #fc9176",
"17	c #f2857f",
"18	c #cf040b",
"19	c #cb070c",
"1a	c #e14a4c",
"1b	c #fb786b",
"1c	c #f4241f",
"1d	c #f41f1c",
"1e	c #f41a1d",
"1f	c #f51319",
"1g	c #f8141a",
"1h	c #e30f16",
"1i	c #e00a12",
"1j	c #ec595a",
"1k	c #fba58b",
"1l	c #fa8a6f",
"1m	c #f8836a",
"1n	c #fc9279",
"1o	c #e44f51",
"1p	c #ed7774",
"1q	c #fd998a",
"1r	c #f53328",
"1s	c #f52521",
"1t	c #f5221f",
"1u	c #f41c1e",
"1v	c #f7161c",
"1w	c #e20f16",
"1x	c #e20c15",
"1y	c #f27870",
"1z	c #fba080",
"20	c #f98f72",
"21	c #f98a70",
"22	c #f8846c",
"23	c #f87f66",
"24	c #fb947f",
"25	c #f9836d",
"26	c #f87160",
"27	c #f6372d",
"28	c #ee211d",
"29	c #ef1d1c",
"2a	c #f81c1f",
"2b	c #f11419",
"2c	c #a10608",
"2d	c #e81e29",
"2e	c #f89f8a",
"2f	c #fa9c7d",
"2g	c #f99476",
"2h	c #f98f73",
"2i	c #f98a6f",
"2j	c #f8846b",
"2k	c #f77a64",
"2l	c #f77661",
"2m	c #f97665",
"2n	c #f3332b",
"2o	c #bd080e",
"2p	c #b80a0d",
"2q	c #e81618",
"2r	c #ae080a",
"2s	c #e61f28",
"2t	c #fbae8f",
"2u	c #f9977a",
"2v	c #f98e73",
"2w	c #fa8b70",
"2x	c #f9866c",
"2y	c #f77c65",
"2z	c #f97a65",
"30	c #ef605b",
"31	c #c3090f",
"32	c #b0080c",
"33	c #e30b12",
"34	c #ee4e4f",
"35	c #faa686",
"36	c #f9987b",
"37	c #fa9275",
"38	c #f6826d",
"39	c #f36d5f",
"3a	c #f9856b",
"3b	c #f98169",
"3c	c #f0665b",
"3d	c #c80e13",
"3e	c #e40a14",
"3f	c #f26b62",
"3g	c #fa9879",
"3h	c #f68773",
"3i	c #dd1a22",
"3j	c #d60c15",
"3k	c #f27163",
"3l	c #eb564f",
"3m	c #cb0d12",
"3n	c #e21019",
"3o	c #f78671",
"3p	c #f37667",
"3q	c #db0d16",
"3r	c #d4131a",
"3s	c #d00d14",
"3t	c #e31c25",
"3u	c #dd0d14",
"                            2s33                ",
"                          2d2t343e              ",
"                        1x2e||353f3n            ",
"                      1i1y2f2u36||3o3t          ",
"                      1j1z2g////3g3p3u          ",
"                    141k202h2v373h3q            ",
"                  0r151l212i2w383i              ",
"                0h0s161m222j2x393j              ",
"                  0t171n23....3a3k3r            ",
"                    181o242k2y3b3l3s            ",
"                    191p252l2z3c3m              ",
"                  0u1a1q262m303d                ",
"                  0v1b1r272n31                  ",
"                0i0w1c1s282o                    ",
"              0a0j0x1d1t292p                    ",
"              0b0k0y1e1u2a2q32                  ",
"                0l0z1f1v2b2r                    ",
"                0m101g1w2c                      ",
"              0c0n111h++                        ",
"              0d0o12++                          ",
"            070e0p13                            ",
"            080f0q                              ",
"          06090g                                ",
"          XXXX                                  "};