/* XPM */
static char * xpm_display[] = {
"24 24 276 2",
"  	c None",
"XX	c #b0acb6",
"++	c #4eaee0",
"..	c #60b4e2",
"||	c #6eb7e3",
"//	c #76bde7",
"06	c #6dbeec",
"07	c #74c3ef",
"08	c #7bc9f2",
"09	c #f3f5f7",
"0a	c #91a3b1",
"0b	c #81cef4",
"0c	c #8adaff",
"0d	c #b2b3b5",
"0e	c #9ca1a2",
"0f	c #5f5a63",
"0g	c #56515a",
"0h	c #9fa3a5",
"0i	c #63b7e8",
"0j	c #9fa2a5",
"0k	c #a0a4a7",
"0l	c #585357",
"0m	c #82c2eb",
"0n	c #6fbde9",
"0o	c #b3b4b7",
"0p	c #ffffff",
"0q	c #f3f6f8",
"0r	c #585358",
"0s	c #585356",
"0t	c #97949f",
"0u	c #949199",
"0v	c #918d97",
"0w	c #87818b",
"0x	c #fbfcfc",
"0y	c #fafafb",
"0z	c #56505a",
"10	c #f2f5f7",
"11	c #899ca9",
"12	c #5e5d64",
"13	c #aeafb2",
"14	c #88c7ee",
"15	c #5e5a5e",
"16	c #716e75",
"17	c #f3f6f7",
"18	c #80c1ea",
"19	c #48424c",
"1a	c #81c1ea",
"1b	c #62b6e8",
"1c	c #81c3ea",
"1d	c #7ec2ec",
"1e	c #575256",
"1f	c #ebebec",
"1g	c #4b444e",
"1h	c #5d5a61",
"1i	c #8d9da8",
"1j	c #5c5d62",
"1k	c #f8fafa",
"1l	c #97939e",
"1m	c #aaa8b1",
"1n	c #a6a3ab",
"1o	c #a3a0a9",
"1p	c #a09da7",
"1q	c #9e9aa2",
"1r	c #9a979f",
"1s	c #97949b",
"1t	c #8d8992",
"1u	c #8a868e",
"1v	c #838087",
"1w	c #807c85",
"1x	c #7c7981",
"1y	c #7c777f",
"1z	c #9997a1",
"20	c #fbfefe",
"21	c #f7faf9",
"22	c #f8f9fb",
"23	c #fafbfc",
"24	c #fefefd",
"25	c #f8faf9",
"26	c #f5f5f5",
"27	c #ebebed",
"28	c #e2e2e2",
"29	c #dcdcdc",
"2a	c #d4d5d6",
"2b	c #cccccf",
"2c	c #c5c6c7",
"2d	c #bcbebf",
"2e	c #b4b7bb",
"2f	c #a5a7a9",
"2g	c #b0adb7",
"2h	c #f6f9fb",
"2i	c #f6f9f9",
"2j	c #f8f8f9",
"2k	c #f9f9fa",
"2l	c #fafafa",
"2m	c #f8f8f7",
"2n	c #f4f4f4",
"2o	c #f0f1f0",
"2p	c #e4e2e3",
"2q	c #dbdadb",
"2r	c #d4d2d4",
"2s	c #cbcacd",
"2t	c #c3c3c4",
"2u	c #b7b8b9",
"2v	c #abacaf",
"2w	c #a0a3a6",
"2x	c #a0a6ac",
"2y	c #a6adb5",
"2z	c #a8adb5",
"30	c #a8aeb5",
"31	c #a9aeb5",
"32	c #a9aeb4",
"33	c #a2a6ad",
"34	c #838b93",
"35	c #838a93",
"36	c #818992",
"37	c #828a91",
"38	c #4a454e",
"39	c #4d4951",
"3a	c #7bc6ee",
"3b	c #71bee9",
"3c	c #7fc4eb",
"3d	c #8fcdf1",
"3e	c #98d2f2",
"3f	c #8ecff4",
"3g	c #7fcaf5",
"3h	c #8ad2f8",
"3i	c #90d7fb",
"3j	c #97dcff",
"3k	c #93dcfe",
"3l	c #4d4650",
"3m	c #e6e4e6",
"3n	c #90a3b1",
"3o	c #4cade0",
"3p	c #5eb3e1",
"3q	c #6cb6e2",
"3r	c #74bce7",
"3s	c #7fc1ea",
"3t	c #6cbce9",
"3u	c #6bbeed",
"3v	c #72c2ef",
"3w	c #79c8f2",
"3x	c #80cef4",
"3y	c #8ad9ff",
"3z	c #49424c",
"40	c #8ac8ee",
"41	c #63b7e9",
"42	c #6e6b70",
"43	c #87c8ed",
"44	c #b2b3b6",
"45	c #9ea1a5",
"46	c #504954",
"47	c #4f4b52",
"48	c #6c686f",
"49	c #cac9cc",
"4a	c #dfdee0",
"4b	c #69666e",
"4c	c #82c3ea",
"4d	c #77c0ea",
"4e	c #e2e2e3",
"4f	c #f3f3f4",
"4g	c #69656c",
"4h	c #d9d8da",
"4i	c #eeeeee",
"4j	c #f6f7f6",
"4k	c #67626a",
"4l	c #d4d2d5",
"4m	c #f3f4f4",
"4n	c #666168",
"4o	c #cdcdcf",
"4p	c #e9e8e9",
"4q	c #f1f0f1",
"4r	c #656067",
"4s	c #c6c6c9",
"4t	c #e6e6e7",
"4u	c #eeeeef",
"4v	c #625f66",
"4w	c #c2c2c4",
"4x	c #e5e5e6",
"4y	c #615e65",
"4z	c #73bfe9",
"50	c #a6a4a9",
"51	c #d2d1d4",
"52	c #ececed",
"53	c #605d62",
"54	c #524c55",
"55	c #514d54",
"56	c #f0f0f2",
"57	c #5e5a61",
"58	c #82c3ec",
"59	c #eff0ef",
"5a	c #5d5960",
"5b	c #91a4b1",
"5c	c #8bc8ee",
"5d	c #61b6e8",
"5e	c #82cff4",
"5f	c #8bdaff",
"5g	c #4c454f",
"5h	c #eef0f0",
"5i	c #8b9da9",
"5j	c #4aaee4",
"5k	c #5cb5e6",
"5l	c #6ab8e7",
"5m	c #73beeb",
"5n	c #7dc3ee",
"5o	c #88cbf2",
"5p	c #68bcf0",
"5q	c #6cc3f4",
"5r	c #74c9f7",
"5s	c #7ccff9",
"5t	c #83d5fc",
"5u	c #83d6fd",
"5v	c #4f4952",
"5w	c #bcbdbf",
"5x	c #90a1af",
"5y	c #92a1b0",
"5z	c #95a4af",
"60	c #96a4b0",
"61	c #99a7b0",
"62	c #8090a1",
"63	c #6f8190",
"64	c #70808f",
"65	c #6f808e",
"66	c #708190",
"67	c #4c4751",
"68	c #4e4a52",
"69	c #b1adb7",
"6a	c #f6fafb",
"6b	c #f4f6f8",
"6c	c #fafaf9",
"6d	c #fbfbfa",
"6e	c #fcfcfa",
"6f	c #f9f9f8",
"6g	c #f7f5f5",
"6h	c #f0efee",
"6i	c #e5e2e3",
"6j	c #dddbdc",
"6k	c #d6d3d5",
"6l	c #cdcbce",
"6m	c #c5c3c5",
"6n	c #b7b8ba",
"6o	c #adadb1",
"6p	c #a1a4a7",
"6q	c #9fa5a6",
"6r	c #9997a2",
"6s	c #f5f9fb",
"6t	c #f4f8f9",
"6u	c #f6fafa",
"6v	c #fafbfb",
"6w	c #f9fafa",
"6x	c #f6f6f7",
"6y	c #f2f3f2",
"6z	c #e3e2e3",
"70	c #dbdcdd",
"71	c #d5d4d6",
"72	c #cbccce",
"73	c #c3c3c5",
"74	c #babbbd",
"75	c #b1b2b5",
"76	c #a6a9ac",
"77	c #939699",
"78	c #57525b",
"79	c #96929e",
"7a	c #a8a4af",
"7b	c #a3a0aa",
"7c	c #a29ea8",
"7d	c #9e9ba5",
"7e	c #9d99a1",
"7f	c #98969e",
"7g	c #8b8791",
"7h	c #827f86",
"7i	c #7f7983",
"7j	c #7a767e",
"7k	c #75727a",
"7l	c #716d74",
"7m	c #6c6973",
"7n	c #5d5760",
"0t1z2gXXXXXXXXXXXXXXXXXXXXXXXXXXXXXXXXXXXX696r0t",
"1l202h100q17090909090909090909090909170q106a6s79",
"1m210q11113n0a0a0a0a0a0a0a0a0a0a0a0a5b5i1i6b6t7a",
"1n222i2x3a3o++++++++++++++++++++++++++5j1i1k6u7b",
"1o232j2y3b3p..........................5k5x6c1k7c",
"1p0x2k2z3c3q||||||||||||||||||||||||||5l5y6d6v7d",
"1q242l30143r//////////////////////////5m5z6e0x7e",
"1r0y2m313d3s181a1c4c0m0m0m0m0m0m1c1a185n606f6w7f",
"1s252n323e1440431d4d0n0n0n0n0n4z1d585c5o616g6x0u",
"0u262o333f3t411b0i0i0i0i0i0i0i0i0i1b5d5p626h6y0v",
"0v272p343g3u060606060606060606060606065q636i6z7g",
"1t282q353h3v070707070707070707070707075r646j700w",
"1u292r363i3w080808080808080808080808085s656k717h",
"0w2a2s373j3x0b0b0b0b0b0b0b0b0b0b0b0b5e5t666l727i",
"1v2b2t123k3y0c0c0c0c0c0c0c0c0c0c0c0c5f5u1j6m737j",
"1w2c2u12150l0r0r0s0s0l1e1e0l0l0s0l0r0l151j6n747k",
"1x2d2v130d0o0o440d0d0d0d0d0d0d0d0d0o0o0d136o757l",
"1y2e2w0k0k0k0k450j0j0j0j0j0j0j0j0j0k0k0k0k6p767m",
"0f2f0h0h0h0h0h0e0e0e0e0e0e0e0e0e0e0h0h0h0h6q777n",
"  0g0z0g0g0g0g460f0f0f0f0f0f0f0f540g0g0g0g0z78  ",
"              47494e4h4l4o4s4w5055              ",
"        3l3z19194a4f4i1f4p4t4x511g1g5g5v        ",
"      383m0p0p0p0p0y4j4m4q4u1f5256595h5w67      ",
"      39161642484b4g4k4n4r4v4y53575a1h1h68      "};