/* XPM */
static char * xpm_door[] = {
"24 24 156 2",
"  	c None",
"XX	c #712e0d",
"++	c #c0704f",
"..	c #d68a3a",
"||	c #a34a23",
"//	c #bd7f64",
"06	c #8a3d19",
"07	c #b45326",
"08	c #853a17",
"09	c #d08338",
"0a	c #cd7f36",
"0b	c #ca7c35",
"0c	c #c77834",
"0d	c #c47432",
"0e	c #c17031",
"0f	c #be6d2f",
"0g	c #b35f2b",
"0h	c #b15c2a",
"0i	c #ae5929",
"0j	c #ac5628",
"0k	c #a95326",
"0l	c #a75025",
"0m	c #b95a29",
"0n	c #ba692e",
"0o	c #b8662d",
"0p	c #b5622c",
"0q	c #8f4c2e",
"0r	c #cda08e",
"0s	c #b04c23",
"0t	c #af4c23",
"0u	c #ac4a22",
"0v	c #a94921",
"0w	c #a64721",
"0x	c #a34620",
"0y	c #a0451f",
"0z	c #9c431e",
"10	c #99421d",
"11	c #96411c",
"12	c #933f1b",
"13	c #903e1a",
"14	c #8d3c19",
"15	c #8b3b18",
"16	c #873a17",
"17	c #843816",
"18	c #823715",
"19	c #7f3614",
"1a	c #7c3412",
"1b	c #7a3311",
"1c	c #773210",
"1d	c #75300f",
"1e	c #732f0e",
"1f	c #72351e",
"1g	c #b45c38",
"1h	c #9e4a21",
"1i	c #f6f6f7",
"1j	c #ead5c9",
"1k	c #8e4b2e",
"1l	c #8d4b2d",
"1m	c #8c492c",
"1n	c #89472a",
"1o	c #864429",
"1p	c #824126",
"1q	c #7e3e25",
"1r	c #7a3b23",
"1s	c #783921",
"1t	c #753820",
"1u	c #753720",
"1v	c #74361f",
"1w	c #73361e",
"1x	c #72341e",
"1y	c #72361f",
"1z	c #c17531",
"20	c #be7330",
"21	c #bc702f",
"22	c #ba6d2e",
"23	c #b86a2d",
"24	c #b6672c",
"25	c #b3642b",
"26	c #b1622a",
"27	c #b77243",
"28	c #bd825c",
"29	c #ba7e5a",
"2a	c #b27653",
"2b	c #a35d37",
"2c	c #a25023",
"2d	c #a35024",
"2e	c #a14e23",
"2f	c #9f4c22",
"2g	c #9c4821",
"2h	c #9a4520",
"2i	c #b87c62",
"2j	c #924d2f",
"2k	c #ca7834",
"2l	c #c77533",
"2m	c #c47231",
"2n	c #c16f30",
"2o	c #be6b2f",
"2p	c #bb682d",
"2q	c #b8652c",
"2r	c #dab195",
"2s	c #ffffff",
"2t	c #a55125",
"2u	c #a34f24",
"2v	c #a04c23",
"2w	c #9e4a22",
"2x	c #9c4820",
"2y	c #954f30",
"2z	c #985031",
"30	c #9c5232",
"31	c #9f5333",
"32	c #a25534",
"33	c #a55635",
"34	c #a95736",
"35	c #ad5937",
"36	c #b15b37",
"37	c #b85b29",
"38	c #b65928",
"39	c #b35727",
"3a	c #b05526",
"3b	c #ad5325",
"3c	c #aa5124",
"3d	c #a64f23",
"3e	c #a44d22",
"3f	c #a14c21",
"3g	c #9b4820",
"3h	c #98461f",
"3i	c #96451e",
"3j	c #93431d",
"3k	c #91411c",
"3l	c #8e3f1b",
"3m	c #8c3e1a",
"3n	c #d38739",
"3o	c #a54d24",
"3p	c #bc6744",
"3q	c #c37449",
"3r	c #d89d6f",
"3s	c #d59b6f",
"3t	c #d3996e",
"3u	c #d1976d",
"3v	c #cf956c",
"3w	c #cd936b",
"3x	c #cb916a",
"3y	c #c98f69",
"3z	c #c78d68",
"40	c #c48b68",
"41	c #c38967",
"42	c #c18766",
"43	c #bf8666",
"44	c #bd8465",
"45	c #bb8264",
"46	c #b98163",
"47	c #b87f62",
"48	c #b67d62",
"49	c #b47c61",
"4a	c #b37a60",
"4b	c #b1795f",
"        0s++++++++++++++++++++++++++3p0s        ",
"        0t0q0q2j2y2z303132333435361g3q0t        ",
"        0u0q1z......................3r0u        ",
"        0v0q202k070m0m0m0m0m0m0m373n3s0v        ",
"        0w0q212l070909090909090938093t0w        ",
"        0x1k222m070a0a0a0a0a0a0a390a3u0x        ",
"        0y1l232n070b0b0b0b0b0b0b3a0b3v0y        ",
"        0z1m242o070c0c0c0c0c0c0c3b0c3w0z        ",
"        101n252p070d0d0d0d0d0d0d3c0d3x10        ",
"        111o262q070e0e0e0e0e0e0e3d0e3y11        ",
"        121p272r070f0f0f0f0f0f0f3e0f3z12        ",
"        131q282s1j1j0n0n0n0n0n0n3f0n4013        ",
"        141r291i0r0r0o0o0o0o0o0o1h0o4114        ",
"        151s2a1i08060p0p0p0p0p0p3g0p4215        ",
"        161t2b0r080g0g0g0g0g0g0g3h0g4316        ",
"        171u2c06080h0h0h0h0h0h0h3i0h4417        ",
"        181v2d2t080i0i0i0i0i0i0i3j0i4518        ",
"        191w2e2u080j0j0j0j0j0j0j3k0j4619        ",
"        1a1x2f2v080k0k0k0k0k0k0k3l0k471a        ",
"        1b1f1h2w080l0l0l0l0l0l0l3m0l481b        ",
"        1c1y2g2x0806060606060606063o491c        ",
"        1d1f2h||||||||||||||||||||||4a1d        ",
"        1e1g2i//////////////////////4b1e        ",
"        XXXXXXXXXXXXXXXXXXXXXXXXXXXXXXXX        "};