/* XPM */
static char * xpm_down[] = {
"24 24 246 2",
"  	c None",
"XX	c #257ed3",
"++	c #0057c1",
"..	c #0e5fc5",
"||	c #7fd6f6",
"//	c #0088e0",
"06	c #67cdf5",
"07	c #0087e1",
"08	c #2cabee",
"09	c #0e60c5",
"0a	c #35bbf4",
"0b	c #23aaf0",
"0c	c #3dc4f4",
"0d	c #1660c1",
"0e	c #1869ca",
"0f	c #32b6f3",
"0g	c #1a96e8",
"0h	c #6cdafb",
"0i	c #61d2f9",
"0j	c #6bd7fb",
"0k	c #57cbf8",
"0l	c #3b9ae1",
"0m	c #109eeb",
"0n	c #008be2",
"0o	c #1063c9",
"0p	c #1c6ecd",
"0q	c #abecfd",
"0r	c #39b4f2",
"0s	c #e4fcff",
"0t	c #b3ebfa",
"0u	c #8ae8fe",
"0v	c #d3f6ff",
"0w	c #b1e8f8",
"0x	c #29a4ed",
"0y	c #1c9aea",
"0z	c #1a94e7",
"10	c #1993e7",
"11	c #1890e6",
"12	c #198fe6",
"13	c #1891e5",
"14	c #188ce4",
"15	c #148be2",
"16	c #2794e4",
"17	c #74e2fd",
"18	c #76ddfc",
"19	c #c0f1fe",
"1a	c #beeefc",
"1b	c #209eec",
"1c	c #a4e6fa",
"1d	c #aceafb",
"1e	c #a8e8fb",
"1f	c #a8e7fb",
"1g	c #a6e8fa",
"1h	c #a6e7f9",
"1i	c #a4e6f9",
"1j	c #a3e5f9",
"1k	c #a1e4f9",
"1l	c #a0e3f8",
"1m	c #93dff9",
"1n	c #6fdbfb",
"1o	c #62d4fa",
"1p	c #5bd0f8",
"1q	c #b9ebfa",
"1r	c #32a8ec",
"1s	c #cff5ff",
"1t	c #dbf8ff",
"1u	c #d4f6ff",
"1v	c #d5f6ff",
"1w	c #d3f5ff",
"1x	c #d2f4ff",
"1y	c #cef3ff",
"1z	c #cbf2ff",
"20	c #c7f1ff",
"21	c #c9f1ff",
"22	c #b2ebfd",
"23	c #61d4fa",
"24	c #61d1f9",
"25	c #55cbf8",
"26	c #4dc9f7",
"27	c #2499e7",
"28	c #80e3fc",
"29	c #95eaff",
"2a	c #8be6fe",
"2b	c #85e5fd",
"2c	c #7ee2fe",
"2d	c #7ee0fd",
"2e	c #76dffd",
"2f	c #72dcfa",
"2g	c #69d6fb",
"2h	c #59cff8",
"2i	c #57cbf7",
"2j	c #50caf6",
"2k	c #45c2f6",
"2l	c #1f94e4",
"2m	c #77e2fd",
"2n	c #8ce8ff",
"2o	c #81e3fe",
"2p	c #7be2fd",
"2q	c #77defd",
"2r	c #71dcfb",
"2s	c #66d6fa",
"2t	c #60d0f9",
"2u	c #59ccf8",
"2v	c #54caf7",
"2w	c #4fcbf6",
"2x	c #49c5f6",
"2y	c #41c1f5",
"2z	c #3ebdf4",
"30	c #379be1",
"31	c #0c5ec4",
"32	c #1e8be2",
"33	c #76defc",
"34	c #86e5fe",
"35	c #79e0fd",
"36	c #77ddfb",
"37	c #70dafb",
"38	c #66d3fa",
"39	c #5ed0f8",
"3a	c #51caf7",
"3b	c #4ec6f7",
"3c	c #45c3f5",
"3d	c #3fbef4",
"3e	c #39baf3",
"3f	c #32b4f3",
"3g	c #2daff1",
"3h	c #22acef",
"3i	c #119fed",
"3j	c #1d86de",
"3k	c #6dd9fb",
"3l	c #7de0fe",
"3m	c #72dbfb",
"3n	c #65d3fa",
"3o	c #60d1f9",
"3p	c #59cdf8",
"3q	c #52caf6",
"3r	c #4dcbf7",
"3s	c #47c4f6",
"3t	c #41bff4",
"3u	c #3abaf4",
"3v	c #33b5f3",
"3w	c #2db1f1",
"3x	c #26acf0",
"3y	c #1ea7ee",
"3z	c #18a3ee",
"40	c #008ae2",
"41	c #2abef4",
"42	c #1a7fda",
"43	c #64d5f9",
"44	c #75dcfd",
"45	c #68d6fa",
"46	c #5ecef8",
"47	c #56ccf7",
"48	c #4fc8f6",
"49	c #49c4f6",
"4a	c #42c1f5",
"4b	c #3dbdf4",
"4c	c #34b7f3",
"4d	c #2eb0f1",
"4e	c #27adf0",
"4f	c #22a9ef",
"4g	c #1aa4ed",
"4h	c #139fec",
"4i	c #0c9beb",
"4j	c #0090ea",
"4k	c #0096ea",
"4l	c #3bb8f0",
"4m	c #2176d0",
"4n	c #0c5dc4",
"4o	c #167ad6",
"4p	c #5bd0f7",
"4q	c #6ad8fc",
"4r	c #5ecdf9",
"4s	c #51caf6",
"4t	c #4ac6f6",
"4u	c #45c4f6",
"4v	c #3dbef4",
"4w	c #38baf3",
"4x	c #31b5f2",
"4y	c #2aadf1",
"4z	c #23a8ef",
"50	c #1ca5ed",
"51	c #15a1ed",
"52	c #0f9cec",
"53	c #0897ea",
"54	c #029fec",
"55	c #155fc0",
"56	c #0c5ec5",
"57	c #1575d2",
"58	c #57ccf7",
"59	c #62d5fa",
"5a	c #58cef9",
"5b	c #4fccf8",
"5c	c #48c6f7",
"5d	c #42c3f6",
"5e	c #3cc0f5",
"5f	c #33b8f4",
"5g	c #2db1f2",
"5h	c #24aff2",
"5i	c #1fa8ef",
"5j	c #17a1ed",
"5k	c #0997ea",
"5l	c #0293e8",
"5m	c #0088e1",
"5n	c #07a1eb",
"5o	c #136ece",
"5p	c #3cb1ef",
"5q	c #42bcf5",
"5r	c #3ab5f2",
"5s	c #35b1f0",
"5t	c #2fabf0",
"5u	c #2aa8ee",
"5v	c #26a1ec",
"5w	c #229eeb",
"5x	c #1b99ea",
"5y	c #1696e8",
"5z	c #1195e7",
"60	c #0b99eb",
"61	c #0695e9",
"62	c #008ee5",
"63	c #0da6ee",
"64	c #0e60c6",
"65	c #1061c7",
"66	c #0c5bc4",
"67	c #0b58c2",
"68	c #0b58c0",
"69	c #0b55c1",
"6a	c #0a55be",
"6b	c #0a53bd",
"6c	c #0954bc",
"6d	c #0a53bc",
"6e	c #0852ba",
"6f	c #0951ba",
"6g	c #085bc3",
"6h	c #0097eb",
"6i	c #1ab0f1",
"6j	c #0f62c7",
"6k	c #045cc4",
"6l	c #008ee2",
"6m	c #1dafee",
"6n	c #0053bc",
"6o	c #0090e5",
"6p	c #29b9f1",
"6q	c #39c2f4",
"6r	c #0f63c9",
"6s	c #1065c9",
"6t	c #186bc7",
"            0x1b1r272l323j424o575o65            ",
"            0y1c1s282m333k434p585p66            ",
"            0g1d1t292n343l444q595q67            ",
"            0g1e1u2a2o353m454r5a5r68            ",
"            0z1f1v2b2p360j0i0k5b5s69            ",
"            101g1w2c2q373n464s5c5t6a            ",
"            111h1x2d2r0j3o474t5d5u6b            ",
"            121i1y2e0h383p484u5e5v6c            ",
"            131j1z2f2s393q494v5f5w6d            ",
"            141k200h2t0k3r4a4w5g5x6e            ",
"            151l212g2u3a3s4b4x5h5y6f            ",
"XX080f080r08161m220i2v3b3t4c4y5i5z6g6k6n++++++++",
"0eXX060q0s0u171n232h2w3c3u4d4z5j606h6l6o6q//6t++",
"  0eXX060t0v181o242i2x3d3v4e500m610n0n6p//6s++  ",
"    0pXX060w191p252j2y3e3w4f515k62//6m//6r++    ",
"      ..XX061a||262k2z3f3x4g525l//6i//0o++      ",
"        ..XX0a1q||0a0f3g3y4h535m63//0o++        ",
"          09XX0a||0c0b3h3z4i075n070d++          ",
"            09XX0b||0c3i0m4j54070d6j            ",
"              ..XX0b||0c404k070d64              ",
"                ..XX30||414l55..                ",
"                  ..XX0l||4m56                  ",
"                    31XX0l4n                    ",
"                      ..09                      "};