/* XPM */
static char * xpm_download[] = {
"24 24 187 2",
"  	c None",
"XX	c #ffffff",
"++	c #8d8f93",
"..	c #8a8d91",
"||	c #e0e0e3",
"//	c #fafafa",
"06	c #f4f5f5",
"07	c #e3e4e4",
"08	c #eff0f1",
"09	c #ccccce",
"0a	c #2b8825",
"0b	c #319125",
"0c	c #e4e5e5",
"0d	c #37a621",
"0e	c #175e18",
"0f	c #57c12e",
"0g	c #257923",
"0h	c #1a5a1f",
"0i	c #1f6320",
"0j	c #aaacb1",
"0k	c #9fa2a7",
"0l	c #969a9f",
"0m	c #909399",
"0n	c #888d91",
"0o	c #83868b",
"0p	c #7d8086",
"0q	c #79797e",
"0r	c #2d8a23",
"0s	c #d1d3d5",
"0t	c #fdfefd",
"0u	c #f5f6f6",
"0v	c #ececec",
"0w	c #dbdddf",
"0x	c #dbdcdf",
"0y	c #77787d",
"0z	c #3f9c35",
"10	c #3f9838",
"11	c #247a1e",
"12	c #a9acb1",
"13	c #edeeef",
"14	c #dedfe1",
"15	c #c5c6c9",
"16	c #dcdddf",
"17	c #8f9195",
"18	c #2e8b28",
"19	c #caefa2",
"1a	c #429840",
"1b	c #1e6d1c",
"1c	c #eeeff0",
"1d	c #cacacc",
"1e	c #86898c",
"1f	c #dfdfe2",
"1g	c #3cac26",
"1h	c #2a941d",
"1i	c #268b1c",
"1j	c #22821a",
"1k	c #187517",
"1l	c #70d133",
"1m	c #bde7a0",
"1n	c #3e903f",
"1o	c #78cc58",
"1p	c #d5eda3",
"1q	c #cceaa2",
"1r	c #c9eaa2",
"1s	c #c8e8a2",
"1t	c #c5e8a2",
"1u	c #c5e7a9",
"1v	c #56c424",
"1w	c #58c428",
"1x	c #aee48e",
"1y	c #3b893e",
"1z	c #79c95a",
"20	c #7cd31d",
"21	c #72cd21",
"22	c #6ccb21",
"23	c #65c922",
"24	c #60c722",
"25	c #5bc425",
"26	c #5cc42c",
"27	c #56c02b",
"28	c #52c128",
"29	c #ace38e",
"2a	c #38853d",
"2b	c #0a530c",
"2c	c #77c65a",
"2d	c #7dd326",
"2e	c #75ce2b",
"2f	c #6fcc2b",
"2g	c #6aca2c",
"2h	c #64c72d",
"2i	c #5ec52d",
"2j	c #5bc22d",
"2k	c #52be2b",
"2l	c #4ebf28",
"2m	c #a9e38f",
"2n	c #3c8541",
"2o	c #004c01",
"2p	c #75c45a",
"2q	c #79d126",
"2r	c #72cd2b",
"2s	c #6ecb2c",
"2t	c #67c92c",
"2u	c #61c62d",
"2v	c #5dc42d",
"2w	c #5ac22d",
"2x	c #56c02e",
"2y	c #53bf2e",
"2z	c #4fbe2d",
"30	c #4cbf2b",
"31	c #004a00",
"32	c #72c058",
"33	c #7ad227",
"34	c #73cd2b",
"35	c #6bcb2c",
"36	c #68c82e",
"37	c #62c72d",
"38	c #5cc32d",
"39	c #54bf2d",
"3a	c #52be2f",
"3b	c #4fc02f",
"3c	c #0a4f0d",
"3d	c #72c05b",
"3e	c #64c427",
"3f	c #5ebf2b",
"3g	c #59bd2b",
"3h	c #53b92b",
"3i	c #4fb62b",
"3j	c #49b12a",
"3k	c #58c32f",
"3l	c #54c22e",
"3m	c #52c22f",
"3n	c #19581b",
"3o	c #227122",
"3p	c #216c21",
"3q	c #195e1f",
"3r	c #5bca2e",
"3s	c #4dbd2d",
"3t	c #1d631f",
"3u	c #4ec02e",
"3v	c #1f6620",
"3w	c #1c5f1f",
"3x	c #1c621f",
"3y	c #fdfbfd",
"3z	c #f7f6f8",
"40	c #e4efe2",
"41	c #dbe6db",
"42	c #f6f3f8",
"43	c #cccdcf",
"44	c #e8e6ea",
"45	c #c6e5ba",
"46	c #60bf32",
"47	c #269306",
"48	c #cedcd1",
"49	c #cfced2",
"4a	c #e9e7eb",
"4b	c #b2dca6",
"4c	c #6cca1e",
"4d	c #38ab0e",
"4e	c #ccd9d0",
"4f	c #cdcdd0",
"4g	c #878b8e",
"4h	c #dfe0e2",
"4i	c #e6e6e7",
"4j	c #f1f6f0",
"4k	c #9ac79a",
"4l	c #87b68d",
"4m	c #eeeef1",
"4n	c #d9dadc",
"4o	c #b0b4b7",
"4p	c #dcdde0",
"4q	c #8e9094",
"4r	c #abaeb2",
"4s	c #e0e0e2",
"4t	c #f4f4f6",
"4u	c #eaebeb",
"4v	c #d9dcdd",
"4w	c #e1e2e4",
"4x	c #7e8185",
"4y	c #a7a9ae",
"4z	c #c2c4c8",
"50	c #babbbe",
"51	c #b2b6b7",
"52	c #a9abaf",
"53	c #9fa2a5",
"54	c #96999c",
"55	c #84858a",
"56	c #74767b",
"        1g1o1z2c2p323d0a                        ",
"        0d1p202d2q333e0a                        ",
"        0d1q212e2r343f0g                        ",
"        1h1r222f2s353g0g                        ",
"        1i1s232g2t363h3o                        ",
"        1j1t242h2u373i3p                        ",
"0b0b0z181k1u252i2v383j3q3t3v0i0i                ",
"  0r10191l1v262j2w0f3k3r3u0a3x                  ",
"    111a1m1w270f2x393l3s0a3w                    ",
"      1b1n1x282k2y3a3m0a0h                      ",
"        0e1y292l2z3b0a0h                        ",
"          0e2a2m300a3n                          ",
"            2b2n0a3c                            ",
"              2o31                              ",
"    12                                      4r  ",
"0j0s0c0707070707070707070707070707070c444a4i4s4y",
"0kXXXXXXXXXXXXXXXXXXXXXXXXXXXXXXXXXXXX454b4jXX4z",
"0lXX//////////////////////////////3y40464c4kXX50",
"0m0t0606060606060606060606060606063z41474d4lXX51",
"0n0u131c080808080808080808080808080842484e4m4t52",
"0o0v141d090909090909090909090909090943494f4n4u53",
"0p0w151e................................4g4o4v54",
"0q0x161f||||||||||||||||||||||||||||||||4h4p4w55",
"  0y17++++++++++++++++++++++++++++++++++++4q4x56"};