/* XPM */
static char * xpm_e-mail[] = {
"24 24 297 2",
"  	c None",
"XX	c #2c7cc1",
"++	c #61b7e9",
"..	c #1b92da",
"||	c #165daa",
"//	c #2367b1",
"06	c #99d4f3",
"07	c #ade1f9",
"08	c #b3e4fb",
"09	c #3388ce",
"0a	c #2260ab",
"0b	c #9ed7f4",
"0c	c #93cfef",
"0d	c #3da6e3",
"0e	c #b4e5fc",
"0f	c #1c68b3",
"0g	c #1a93da",
"0h	c #1c64b1",
"0i	c #1a93d9",
"0j	c #a6dcf8",
"0k	c #1c56a1",
"0l	c #2974bf",
"0m	c #297dc8",
"0n	c #3686ca",
"0o	c #4995d1",
"0p	c #4896cf",
"0q	c #4992ce",
"0r	c #3985c7",
"0s	c #2c7cc2",
"0t	c #2364b1",
"0u	c #368bcf",
"0v	c #5ea8db",
"0w	c #8fcbec",
"0x	c #98d3f3",
"0y	c #97d3f3",
"0z	c #80caf1",
"10	c #54b3e9",
"11	c #4fb2e8",
"12	c #4cafe7",
"13	c #3894d5",
"14	c #2a7ac2",
"15	c #215ea9",
"16	c #318fd4",
"17	c #59a8dd",
"18	c #98d2f0",
"19	c #a0daf7",
"1a	c #98d2f2",
"1b	c #7abbe4",
"1c	c #58a2d6",
"1d	c #4c98d1",
"1e	c #3182c9",
"1f	c #2f7fc6",
"1g	c #3283c9",
"1h	c #3d9ddc",
"1i	c #3da7e3",
"1j	c #3195d8",
"1k	c #2264b1",
"1l	c #3995d7",
"1m	c #78bee8",
"1n	c #a5dcf6",
"1o	c #9ed6f4",
"1p	c #6cb3e0",
"1q	c #388bcd",
"1r	c #2265b0",
"1s	c #2870ba",
"1t	c #3295d7",
"1u	c #2e9cdc",
"1v	c #1f64ae",
"1w	c #3e9ada",
"1x	c #7bc2e8",
"1y	c #8eceee",
"1z	c #4194d3",
"20	c #2873bd",
"21	c #2362ad",
"22	c #2a93d6",
"23	c #2597db",
"24	c #1b59a3",
"25	c #61b3e4",
"26	c #b0e2f9",
"27	c #92cef1",
"28	c #3a91d3",
"29	c #3786c9",
"2a	c #3a8ed0",
"2b	c #479dd9",
"2c	c #4da6e0",
"2d	c #48a2dd",
"2e	c #42a0db",
"2f	c #3283ca",
"2g	c #2368b5",
"2h	c #205daa",
"2i	c #2690d7",
"2j	c #1f81ca",
"2k	c #1952a2",
"2l	c #47a2df",
"2m	c #a6dcf6",
"2n	c #a0d8f3",
"2o	c #3a96d6",
"2p	c #3287cb",
"2q	c #60a7da",
"2r	c #93d1f2",
"2s	c #64bded",
"2t	c #60bbec",
"2u	c #5ab8e9",
"2v	c #55b4e7",
"2w	c #4db0e6",
"2x	c #4aabe4",
"2y	c #3fa0de",
"2z	c #286db7",
"30	c #1e66b2",
"31	c #2098dc",
"32	c #185eaa",
"33	c #76c1eb",
"34	c #55a7de",
"35	c #72b7e3",
"36	c #9fd8f4",
"37	c #80c9f1",
"38	c #4aa2dc",
"39	c #378acd",
"3a	c #3383c8",
"3b	c #3080c6",
"3c	c #3488cd",
"3d	c #42a9e3",
"3e	c #3592d5",
"3f	c #1e58a4",
"3g	c #1f8fd5",
"3h	c #1a75c2",
"3i	c #40a0df",
"3j	c #9ed7f2",
"3k	c #3897d8",
"3l	c #318ad0",
"3m	c #74bae4",
"3n	c #9fd9f6",
"3o	c #3687cc",
"3p	c #2b77c2",
"3q	c #2567b2",
"3r	c #3084c9",
"3s	c #256cb4",
"3t	c #1f79c3",
"3u	c #198ad3",
"3v	c #19519c",
"3w	c #4ca8e2",
"3x	c #74bfe9",
"3y	c #489ad6",
"3z	c #a2d9f5",
"40	c #3386c9",
"41	c #2974bd",
"42	c #256eb9",
"43	c #1751a0",
"44	c #63b8e9",
"45	c #b4e5fb",
"46	c #62b5e4",
"47	c #6db7e3",
"48	c #a4dcf7",
"49	c #54a1d8",
"4a	c #2a77c0",
"4b	c #3ea8e4",
"4c	c #165eaa",
"4d	c #b5e4fc",
"4e	c #47a0dd",
"4f	c #7bc0e8",
"4g	c #368bce",
"4h	c #2466b1",
"4i	c #3897d6",
"4j	c #348dd0",
"4k	c #b6e6fc",
"4l	c #45a1dd",
"4m	c #63aedf",
"4n	c #50a1d7",
"4o	c #2569b4",
"4p	c #3b94d4",
"4q	c #3998d7",
"4r	c #2262af",
"4s	c #1c53a2",
"4t	c #55ace0",
"4u	c #4c9fd8",
"4v	c #a4daf6",
"4w	c #7bc0e6",
"4x	c #2e81ca",
"4y	c #2b79c2",
"4z	c #2d7ac2",
"50	c #3586cb",
"51	c #49a9e0",
"52	c #49a8e3",
"53	c #3b98d8",
"54	c #60b4e8",
"55	c #b4e3fb",
"56	c #63b5e5",
"57	c #2e87cf",
"58	c #66aedf",
"59	c #a0d9f6",
"5a	c #67afdf",
"5b	c #469cd9",
"5c	c #56ace3",
"5d	c #5fb7e8",
"5e	c #5bb9ea",
"5f	c #56b5e8",
"5g	c #4daee5",
"5h	c #49a9e3",
"5i	c #41a6e1",
"5j	c #3ca1df",
"5k	c #2263ae",
"5l	c #165eab",
"5m	c #4aa6e1",
"5n	c #aee2fa",
"5o	c #8fcef1",
"5p	c #57a8dd",
"5q	c #99d2f0",
"5r	c #98d3f2",
"5s	c #68c1ee",
"5t	c #67bfef",
"5u	c #58b5e6",
"5v	c #48a1db",
"5w	c #388ccf",
"5x	c #2b75bf",
"5y	c #3081c8",
"5z	c #3da5e2",
"60	c #256fb9",
"61	c #174f9b",
"62	c #3b9fdf",
"63	c #98d4f3",
"64	c #a9ddf7",
"65	c #3e99d9",
"66	c #59abde",
"67	c #a9def9",
"68	c #92ceef",
"69	c #7fc3e7",
"6a	c #3990d1",
"6b	c #3080c7",
"6c	c #2974be",
"6d	c #2976bf",
"6e	c #3da6e4",
"6f	c #2364af",
"6g	c #1f7ac3",
"6h	c #1986d1",
"6i	c #19519d",
"6j	c #5bb0e5",
"6k	c #7ec3e9",
"6l	c #499bd7",
"6m	c #4496d2",
"6n	c #3186cc",
"6o	c #2568b3",
"6p	c #358fd1",
"6q	c #3aa0de",
"6r	c #225faa",
"6s	c #1e5ba6",
"6t	c #1f8bd3",
"6u	c #1a72be",
"6v	c #3e9ddc",
"6w	c #92cfef",
"6x	c #afe1f8",
"6y	c #5caddf",
"6z	c #2872bc",
"70	c #43ade7",
"71	c #2a7ac1",
"72	c #1c59a4",
"73	c #1a5ba6",
"74	c #459edb",
"75	c #a5dbf4",
"76	c #7abfe6",
"77	c #3b91d1",
"78	c #266db9",
"79	c #2f7fc4",
"7a	c #48aae4",
"7b	c #3c99d8",
"7c	c #215fae",
"7d	c #419bd8",
"7e	c #92d0f1",
"7f	c #a7def8",
"7g	c #72b9e4",
"7h	c #50a0d7",
"7i	c #519dd5",
"7j	c #4593d1",
"7k	c #3285ca",
"7l	c #3b90d0",
"7m	c #4ca9e1",
"7n	c #50b3e9",
"7o	c #3d98d7",
"7p	c #2467b4",
"7q	c #3994d4",
"7r	c #61aedf",
"7s	c #94cfef",
"7t	c #a1dbf8",
"7u	c #a0d9f5",
"7v	c #9cd6f5",
"7w	c #99d4f4",
"7x	c #63bdec",
"7y	c #5cbbec",
"7z	c #49a3de",
"80	c #2f7fc5",
"81	c #2465b2",
"82	c #4795d2",
"83	c #4f9fd7",
"84	c #4d99d3",
"85	c #4e99d3",
"86	c #3d8ccd",
"87	c #2a74be",
"88	c #266fb9",
"                3i3w44++++++545m62              ",
"            2l330b0e454d4k0e555n636j6v          ",
"        1w252m083j3x464e4l4t565o64086w74        ",
"      1l1x262n343k              656k6x757d      ",
"    161m07272o                      6y077e7q    ",
"    171n1y28    3l3y474f4m4u575p666l  767f7r    ",
"  0u181o1z    093m3z480j0j4v585q676m  770b7s09  ",
"  0v191p    2p353n0c494g4n4w5906686n    7g7t82  ",
"0m0w1a1q    2q360c40      4x5a5r69      7h7u83  ",
"0n0x1b    292r373o          5b5s6a      7i7v84  ",
"0o061c    2a2s383p        4y5c5t6b      7j7w85  ",
"0p0y1d    2b2t39          0l5d5u6c      7k7x86  ",
"0q0z1e  202c2u3a          4z5e5v        7l7y87  ",
"0r101f    2d2v3b          505f5w      787m7z88  ",
"0s11XX    2e2wXX        4o515gXX      797n80    ",
"0t121g    2f2x3c3q    4h4p525h5x  6o6z7a7o81    ",
"//131h1r  2g2y3d3r414a4i4q535i5y6d6p707b7p      ",
"  141i1s    2z3e0d0d4b4j4r0l5j5z6e6q717c        ",
"  151j1t21    0a3s42//0a    5k606f6r            ",
"    1k1u222h                                    ",
"      1v232i303f                  6s            ",
"        242j313g3t0f0h0k4s0k0h0f6g6t72          ",
"          2k323h3u0g0i......0i0g6h6u73          ",
"                3v434c||||||5l616i              "};