/* XPM */
static char * xpm_eject[] = {
"24 24 270 2",
"  	c None",
"XX	c #ffffff",
"++	c #6fdbf9",
"..	c #6ddafa",
"||	c #206ec4",
"//	c #68cff1",
"06	c #6edafa",
"07	c #51c1ef",
"08	c #6dd9fa",
"09	c #0549b5",
"0a	c #0346b7",
"0b	c #0247b7",
"0c	c #0c66cd",
"0d	c #116fd3",
"0e	c #003aaa",
"0f	c #0856bb",
"0g	c #3798db",
"0h	c #6cc8ef",
"0i	c #70d4f5",
"0j	c #7adbf8",
"0k	c #90e2f9",
"0l	c #57c8f3",
"0m	c #32afed",
"0n	c #1c8ce1",
"0o	c #137ada",
"0p	c #0139a5",
"0q	c #003fab",
"0r	c #40a0e1",
"0s	c #92def5",
"0t	c #85d9f5",
"0u	c #60caf2",
"0v	c #6bccf3",
"0w	c #1989e1",
"0x	c #00349b",
"0y	c #0951b7",
"0z	c #5fc2ec",
"10	c #90e0f7",
"11	c #66caf1",
"12	c #55c3f0",
"13	c #63c9f1",
"14	c #29a5ea",
"15	c #1a8de3",
"16	c #003196",
"17	c #084fb6",
"18	c #65c7ee",
"19	c #84d8f4",
"1a	c #6dcef1",
"1b	c #4ebfef",
"1c	c #b4e5f7",
"1d	c #2babec",
"1e	c #1c96e7",
"1f	c #00359d",
"1g	c #50b6e8",
"1h	c #79d6f2",
"1i	c #79d3f1",
"1j	c #46bbed",
"1k	c #59c6f0",
"1l	c #73defb",
"1m	c #209fea",
"1n	c #002a90",
"1o	c #2e92da",
"1p	c #6cd2f2",
"1q	c #78d2f1",
"1r	c #46bbef",
"1s	c #52c0ef",
"1t	c #72dcfa",
"1u	c #5dd6f7",
"1v	c #1c9aea",
"1w	c #0243ab",
"1x	c #59c2ed",
"1y	c #6ed3f2",
"1z	c #7be4fd",
"20	c #2caeef",
"21	c #002c91",
"22	c #1d78ce",
"23	c #65d0f1",
"24	c #6dd2f2",
"25	c #77e0fc",
"26	c #55cef5",
"27	c #20a1ec",
"28	c #00298f",
"29	c #3ba6e2",
"2a	c #75e0fc",
"2b	c #71ddfa",
"2c	c #1fa2ec",
"2d	c #00278e",
"2e	c #52baec",
"2f	c #75defb",
"2g	c #7fe5fc",
"2h	c #1da0ec",
"2i	c #00339a",
"2j	c #5bc7ef",
"2k	c #fffffd",
"2l	c #74dffb",
"2m	c #7ee3fc",
"2n	c #25aaef",
"2o	c #2faaee",
"2p	c #2da6ee",
"2q	c #6fdcfa",
"2r	c #84bbe1",
"2s	c #3aafed",
"2t	c #0a5dc3",
"2u	c #0d67cd",
"2v	c #055fca",
"2w	c #82dbf7",
"2x	c #73d2f4",
"2y	c #80d4f5",
"2z	c #54c6f3",
"30	c #48c1f5",
"31	c #53cbf5",
"32	c #5ed3f7",
"33	c #4ec7f3",
"34	c #188be1",
"35	c #6cccf3",
"36	c #73d3f5",
"37	c #45bff2",
"38	c #40bbf2",
"39	c #32b6f1",
"3a	c #2db5f1",
"3b	c #30b5f1",
"3c	c #3cc0f4",
"3d	c #61d5f8",
"3e	c #58c5f0",
"3f	c #64caf1",
"3g	c #63cbf2",
"3h	c #40b8f0",
"3i	c #1a9ceb",
"3j	c #38b7f2",
"3k	c #34b1ef",
"3l	c #b7e7f7",
"3m	c #4ec9f5",
"3n	c #75e0fb",
"3o	c #58c2f0",
"3p	c #5ac3ef",
"3q	c #fffffe",
"3r	c #0d8fe7",
"3s	c #36b6f1",
"3t	c #55bded",
"3u	c #afdff3",
"3v	c #4ac6f4",
"3w	c #4eb9ed",
"3x	c #7accef",
"3y	c #fffdfe",
"3z	c #0885e1",
"40	c #35b4f0",
"41	c #4bb6eb",
"42	c #a4dcf3",
"43	c #45c4f4",
"44	c #6fcff2",
"45	c #35b6ec",
"46	c #46bded",
"47	c #49b2ea",
"48	c #8dd0ee",
"49	c #0379de",
"4a	c #36b3ef",
"4b	c #49afe9",
"4c	c #a2d8f2",
"4d	c #43c1f3",
"4e	c #55c5ef",
"4f	c #3bb5ec",
"4g	c #3faae8",
"4h	c #adddf1",
"4i	c #0072d8",
"4j	c #33b3ef",
"4k	c #43a8e6",
"4l	c #a1d5f0",
"4m	c #42c0f2",
"4n	c #6fd3f2",
"4o	c #42b7ed",
"4p	c #3aa0e4",
"4q	c #ddecf5",
"4r	c #0068d1",
"4s	c #32b3ef",
"4t	c #3fa4e3",
"4u	c #9ed3ef",
"4v	c #42bef1",
"4w	c #5ac1ed",
"4x	c #45a3e2",
"4y	c #e6f1f7",
"4z	c #005dc9",
"50	c #32b0ef",
"51	c #3c9dde",
"52	c #9cd0ec",
"53	c #41bcf1",
"54	c #55bdea",
"55	c #47a2df",
"56	c #0055c2",
"57	c #32aeef",
"58	c #3796dc",
"59	c #97ceeb",
"5a	c #3fbaf0",
"5b	c #57bfec",
"5c	c #429adc",
"5d	c #004dbb",
"5e	c #30adef",
"5f	c #338fd8",
"5g	c #95c9ea",
"5h	c #3eb8ef",
"5i	c #55b9ea",
"5j	c #2884d3",
"5k	c #e5f0f5",
"5l	c #0046b4",
"5m	c #31adee",
"5n	c #308ad4",
"5o	c #92c6e8",
"5p	c #3fb6ef",
"5q	c #70d4f2",
"5r	c #3fb6ec",
"5s	c #2880d1",
"5t	c #b0d6ed",
"5u	c #003bad",
"5v	c #2c82d1",
"5w	c #91c2e7",
"5x	c #3bb5ee",
"5y	c #57c7f0",
"5z	c #37b0ea",
"60	c #2c84d5",
"61	c #9ac9e7",
"62	c #0036a6",
"63	c #287ece",
"64	c #8cbfe4",
"65	c #3ab4ee",
"66	c #70cff2",
"67	c #37b7ed",
"68	c #46bdef",
"69	c #308ad5",
"6a	c #539dd8",
"6b	c #002f9f",
"6c	c #2da9ee",
"6d	c #2675c7",
"6e	c #88bce2",
"6f	c #3bb2ed",
"6g	c #55c6f2",
"6h	c #3694d9",
"6i	c #3889cf",
"6j	c #fffffc",
"6k	c #002b98",
"6l	c #2072c5",
"6m	c #85bbe2",
"6n	c #37b1ec",
"6o	c #5dcaf2",
"6p	c #45a5e3",
"6q	c #2073c5",
"6r	c #edfcfa",
"6s	c #002796",
"6t	c #87bbe1",
"6u	c #38afed",
"6v	c #67cdf3",
"6w	c #54b8eb",
"6x	c #0751b5",
"6y	c #001f89",
"6z	c #2ba3ec",
"70	c #87bee2",
"71	c #76e2fc",
"72	c #6ecff5",
"73	c #6ecff3",
"74	c #37aeec",
"75	c #44c4f7",
"76	c #74d2f5",
"77	c #80d6f5",
"78	c #54c6f4",
"79	c #4ac5f6",
"7a	c #56cff8",
"7b	c #61d8f9",
"7c	c #50caf5",
"7d	c #198ce1",
"7e	c #82daf8",
"7f	c #0b5dc3",
"7g	c #0b63ca",
"7h	c #0560ca",
"                21282d2i2i2d2821                ",
"            1n1w22292e2j2j2e29221w1n            ",
"        161f1o1x23////545b////231x1o1f16        ",
"      0x171g1p1y244n4w555c5i5q241y1p1g170x      ",
"    0p0y181h1q444e4o4x2k2k5j5r5y661q1h180y0p    ",
"    0q0z191i07454f4p4yXXXX5k5s5z67071i190z0q    ",
"  0e0r101a1j1r464g4qXXXXXXXX5t60681r1j1a100r0e  ",
"  0f0s111b071s474hXXXXXXXXXXXX61696g1s1b110s0f  ",
"090g0t123e1k3w48XXXXXXXXXXXXXXXX6a6h6o1k120t0g09",
"0a0h0u133f3o3xXXXXXXXXXXXXXXXXXXXX6i6p6v130u0h0a",
"0b0i0v353g3p3yXXXXXXXXXXXXXXXXXXXX6j6q6w720v0i0b",
"2t0j2x363h3qXXXXXXXXXXXXXXXXXXXXXXXX6r6x73760j7f",
"2u2w2y373i3r3z494i4r4z565d5l5u626b6k6s6y74777e7g",
"2v0k2z383j3s404a4j4s50575e5m2o2o6c2p2p6z75780k7h",
"0c0l30393k3t414b4k4t51585f5n5v636d6l||||||790l0c",
"0d0m313a3lXXXXXXXXXXXXXXXXXXXXXXXXXXXX70||7a0m0d",
"  0n323b1cXXXXXXXXXXXXXXXXXXXXXXXXXXXX2r||7b0n  ",
"  0o333c1c3u424c4l4u52595g5o5w646e6m6t2r2s7c0o  ",
"    343d3m3v434d4m4v535a5h5p5x656f6n6u2s2q7d    ",
"    0w143n..080808..........060606062q71140w    ",
"      151d1l1t++++++++++++++++++++1t1l1d15      ",
"        1e1m1u1z252a2f2l2l2f2a251z1u1m1e        ",
"            1v20262b2g2m2m2g2b26201v            ",
"                272c2h2n2n2h2c27                "};