/* XPM */
static char * xpm_erase[] = {
"24 24 236 2",
"  	c None",
"XX	c #f00a0f",
"++	c #f00a10",
"..	c #f64f33",
"||	c #f6402a",
"//	c #f53b27",
"06	c #f00a0e",
"07	c #f20e15",
"08	c #f98371",
"09	c #f75c3b",
"0a	c #f50e0f",
"0b	c #f75437",
"0c	c #f75636",
"0d	c #f85852",
"0e	c #c0080b",
"0f	c #ef1110",
"0g	c #f6462c",
"0h	c #670404",
"0i	c #f41c1f",
"0j	c #f64e32",
"0k	c #f5231a",
"0l	c #f6432b",
"0m	c #f53524",
"0n	c #f53824",
"0o	c #f65233",
"0p	c #f51412",
"0q	c #f50f10",
"0r	c #f74441",
"0s	c #f42823",
"0t	c #f87858",
"0u	c #f7603c",
"0v	c #f64b33",
"0w	c #ee1014",
"0x	c #7a0505",
"0y	c #930d10",
"0z	c #900b0d",
"10	c #790505",
"11	c #f41d20",
"12	c #faa287",
"13	c #f7583a",
"14	c #f75739",
"15	c #f53b2a",
"16	c #8b0505",
"17	c #c11e20",
"18	c #f63333",
"19	c #f51b1c",
"1a	c #f40c11",
"1b	c #9d0607",
"1c	c #f52729",
"1d	c #f99b7c",
"1e	c #f7593b",
"1f	c #ed1e1c",
"1g	c #9a0607",
"1h	c #ea3937",
"1i	c #f62221",
"1j	c #ef0d0d",
"1k	c #ee0d0e",
"1l	c #ee0c0e",
"1m	c #f40d10",
"1n	c #d40a0c",
"1o	c #f20c13",
"1p	c #faab8f",
"1q	c #f75839",
"1r	c #f75b3a",
"1s	c #f75234",
"1t	c #f5422c",
"1u	c #b6070a",
"1v	c #ba0f11",
"1w	c #f75349",
"1x	c #f41916",
"1y	c #ef100f",
"1z	c #ef0f0f",
"20	c #ed0d0f",
"21	c #ed0c0d",
"22	c #f40d0f",
"23	c #c4080b",
"24	c #f87a5a",
"25	c #f75939",
"26	c #f75337",
"27	c #f64d31",
"28	c #eb241e",
"29	c #d02021",
"2a	c #f85b4e",
"2b	c #ef1612",
"2c	c #ef1211",
"2d	c #ef0e0e",
"2e	c #ed0d0e",
"2f	c #f00c0e",
"2g	c #f00b0d",
"2h	c #800505",
"2i	c #f98974",
"2j	c #f76041",
"2k	c #f75336",
"2l	c #f64c31",
"2m	c #e00e13",
"2n	c #c8080b",
"2o	c #ec413c",
"2p	c #f75a4b",
"2q	c #f31e16",
"2r	c #f01713",
"2s	c #ef1412",
"2t	c #f00f0e",
"2u	c #cc090b",
"2v	c #f99274",
"2w	c #f64a30",
"2x	c #ef2f22",
"2y	c #d2080a",
"2z	c #f14f46",
"30	c #f85e4d",
"31	c #f32216",
"32	c #f31f17",
"33	c #f01815",
"34	c #f11512",
"35	c #f51311",
"36	c #e80e0f",
"37	c #8f0607",
"38	c #f73737",
"39	c #f98769",
"3a	c #f64c2f",
"3b	c #f64a2f",
"3c	c #f6452d",
"3d	c #f64029",
"3e	c #f45549",
"3f	c #f86754",
"3g	c #f42a1b",
"3h	c #f4261a",
"3i	c #f32118",
"3j	c #f41b16",
"3k	c #f41612",
"3l	c #b90b0b",
"3m	c #f8594f",
"3n	c #f86f51",
"3o	c #f6482d",
"3p	c #f6442d",
"3q	c #f63e2a",
"3r	c #f64632",
"3s	c #f53220",
"3t	c #f4311f",
"3u	c #f5291d",
"3v	c #e21614",
"3w	c #a40709",
"3x	c #ee090d",
"3y	c #f85c51",
"3z	c #f7583b",
"40	c #f53321",
"41	c #f62b1e",
"42	c #d31412",
"43	c #ea0b11",
"44	c #f75037",
"45	c #f33020",
"46	c #c90c10",
"47	c #f1191c",
"48	c #fa9d86",
"49	c #f75036",
"4a	c #f53422",
"4b	c #e6201a",
"4c	c #ef0d14",
"4d	c #f9907d",
"4e	c #f75d43",
"4f	c #f6432a",
"4g	c #f63d28",
"4h	c #f43321",
"4i	c #f62c1f",
"4j	c #d91814",
"4k	c #f10a10",
"4l	c #f7554b",
"4m	c #f9886c",
"4n	c #f6472c",
"4o	c #f6492e",
"4p	c #e51b19",
"4q	c #eb281e",
"4r	c #f63925",
"4s	c #f43320",
"4t	c #f42b1e",
"4u	c #f6261c",
"4v	c #dd1814",
"4w	c #f52426",
"4x	c #faa88d",
"4y	c #f64f31",
"4z	c #e9201c",
"50	c #d6080f",
"51	c #e11c18",
"52	c #f63522",
"53	c #f52b1e",
"54	c #f4241a",
"55	c #f51e19",
"56	c #d41210",
"57	c #f98877",
"58	c #f86f50",
"59	c #f22d23",
"5a	c #d31011",
"5b	c #f62a1c",
"5c	c #f31d17",
"5d	c #f51815",
"5e	c #da1010",
"5f	c #830506",
"5g	c #f73636",
"5h	c #faa589",
"5i	c #f53527",
"5j	c #be070b",
"5k	c #e21a15",
"5l	c #f51d17",
"5m	c #f11714",
"5n	c #e80f0f",
"5o	c #910607",
"5p	c #f98c7a",
"5q	c #f87456",
"5r	c #f64831",
"5s	c #ae070a",
"5t	c #b60a0c",
"5u	c #ee1513",
"5v	c #f41010",
"5w	c #a10607",
"5x	c #690404",
"5y	c #faa88e",
"5z	c #f01418",
"60	c #900607",
"61	c #ac090b",
"62	c #eb0f0f",
"63	c #f50e10",
"64	c #e70a0d",
"65	c #910606",
"66	c #f98e6d",
"67	c #f52b24",
"68	c #750505",
"69	c #960607",
"6a	c #bc080b",
"6b	c #e70b0e",
"6c	c #f50e12",
"6d	c #f9806d",
"6e	c #f75843",
"6f	c #6a0404",
"6g	c #730404",
"6h	c #fbc0a3",
"6i	c #f41e1c",
"6j	c #f73b3a",
"                                                ",
"  XX111c1o++                            ++XX06++",
"0708121d1p0d07                      060i0d6d6h6j",
"0r0t131e1q242i0i                065g5p5y666e6i  ",
"0s0u09091r252j2v38XX        4k4w575h5q0c67      ",
"  0v140b0b262k..393m3x    4c4l4x580o5r5z        ",
"  0w150c1s....0j3a3n3y43474d4m0j0o5i            ",
"      1f1t272l2w3b3o3z08484e4n4y59              ",
"          280g0g3c3p0l44494f4o4z                ",
"            2m2x3d3q||||||0l4p                  ",
"              2y3e3r//////4g4q50                ",
"            2n2z3f3s0m0n0n0m4r51                ",
"          0e2o303g3t40454a4h4s525a              ",
"        1u292p313h3u41464b4i4t535b5j            ",
"        1v2a2q323i0k42    4j4u540k5k5s          ",
"      1g1w2b2r333j3v        4v555c5l5t          ",
"    161h1x2c2s343k3w          565d5m5u60        ",
"    171i1y0f0f353l              5e0p0p61        ",
"  0x181j1z2d2t36                5f5n5v6268      ",
"  0y191k202e0a37                  5o0q0q69      ",
"  0z0a1l212f2u                      5w636a      ",
"  101a1m222g0h                      5x646b0h    ",
"    1b1n232h                          656c6f    ",
"                                        0e6g    "};