/* XPM */
static char * xpm_error[] = {
"24 24 234 2",
"  	c None",
"XX	c #ffffff",
"++	c #ef3c2e",
"..	c #ee372d",
"||	c #f15c41",
"//	c #f15a40",
"06	c #ef4131",
"07	c #f16044",
"08	c #ee322b",
"09	c #f26246",
"0a	c #f26548",
"0b	c #ef4132",
"0c	c #ee2e2a",
"0d	c #f26244",
"0e	c #f36851",
"0f	c #ea1700",
"0g	c #ec240d",
"0h	c #ed2e2a",
"0i	c #ee2928",
"0j	c #ca161b",
"0k	c #9a090d",
"0l	c #eb111b",
"0m	c #eb0815",
"0n	c #eb1520",
"0o	c #eb101b",
"0p	c #e80210",
"0q	c #f15e58",
"0r	c #f79f83",
"0s	c #f7a080",
"0t	c #f35d57",
"0u	c #e9111c",
"0v	c #e70814",
"0w	c #eb2c31",
"0x	c #f69f85",
"0y	c #f37c5c",
"0z	c #f16546",
"10	c #f16747",
"11	c #f48059",
"12	c #e8101c",
"13	c #e83e47",
"14	c #e50e1a",
"15	c #f58875",
"16	c #f58b6a",
"17	c #f26649",
"18	c #f2684c",
"19	c #f2674b",
"1a	c #f47350",
"1b	c #e82628",
"1c	c #e94e55",
"1d	c #ea535e",
"1e	c #ef635e",
"1f	c #f79878",
"1g	c #f26545",
"1h	c #f26448",
"1i	c #f4704d",
"1j	c #e62327",
"1k	c #e84e56",
"1l	c #e7424c",
"1m	c #ef7371",
"1n	c #faab97",
"1o	c #f56647",
"1p	c #f25d40",
"1q	c #f26044",
"1r	c #f26146",
"1s	c #f46d4b",
"1t	c #e42125",
"1u	c #e5464f",
"1v	c #e96163",
"1w	c #f59e91",
"1x	c #f8a48f",
"1y	c #f16448",
"1z	c #f15c40",
"20	c #f16144",
"21	c #f15f44",
"22	c #f36948",
"23	c #e12226",
"24	c #e24b53",
"25	c #e24752",
"26	c #f3948b",
"27	c #fba48e",
"28	c #f5856f",
"29	c #f78874",
"2a	c #ef5336",
"2b	c #f15b41",
"2c	c #f46545",
"2d	c #de2025",
"2e	c #dd414c",
"2f	c #ed807c",
"2g	c #faa796",
"2h	c #f78972",
"2i	c #f5816d",
"2j	c #f58672",
"2k	c #f47560",
"2l	c #f1563c",
"2m	c #f1593f",
"2n	c #f15940",
"2o	c #f56243",
"2p	c #db1f24",
"2q	c #db464e",
"2r	c #e35e63",
"2s	c #f9a99a",
"2t	c #f5826a",
"2u	c #f3674e",
"2v	c #f36d58",
"2w	c #f04227",
"2x	c #ef3418",
"2y	c #ef371a",
"2z	c #ef391e",
"30	c #ef4a2f",
"31	c #f1533a",
"32	c #ef4427",
"33	c #ef371b",
"34	c #ef3b1e",
"35	c #f14e35",
"36	c #f66142",
"37	c #d81f23",
"38	c #d9454e",
"39	c #f39389",
"3a	c #f99885",
"3b	c #f26a54",
"3c	c #fac1b9",
"3d	c #f48c7b",
"3e	c #ec2f11",
"3f	c #fbd4cd",
"3g	c #f15c47",
"3h	c #ee3217",
"3i	c #d52024",
"3j	c #e6716f",
"3k	c #f99683",
"3l	c #f47461",
"3m	c #f37d6d",
"3n	c #fce2dc",
"3o	c #ee2d11",
"3p	c #d31f24",
"3q	c #d64c51",
"3r	c #e57271",
"3s	c #f8826e",
"3t	c #f47564",
"3u	c #f37d6c",
"3v	c #fef5f4",
"3w	c #ee2c11",
"3x	c #d01e21",
"3y	c #d1464e",
"3z	c #f17c6f",
"40	c #f87b67",
"41	c #f26754",
"42	c #f9bfb9",
"43	c #f38776",
"44	c #eb250b",
"45	c #fbd0cb",
"46	c #f0533f",
"47	c #ef351a",
"48	c #ce1d21",
"49	c #ce4751",
"4a	c #da5758",
"4b	c #f67566",
"4c	c #f56c58",
"4d	c #f15d4c",
"4e	c #f15c49",
"4f	c #f15f4d",
"4g	c #ef3f2b",
"4h	c #ec2009",
"4i	c #ec2811",
"4j	c #ec2f15",
"4k	c #ec331a",
"4l	c #ed321d",
"4m	c #ec260f",
"4n	c #ec2813",
"4o	c #ec3118",
"4p	c #ef381d",
"4q	c #c91c20",
"4r	c #c94750",
"4s	c #e3615d",
"4t	c #f87466",
"4u	c #f57367",
"4v	c #f5756a",
"4w	c #f1594b",
"4x	c #ef3d2d",
"4y	c #f64834",
"4z	c #c7191e",
"50	c #ca4a51",
"51	c #cb4d53",
"52	c #e7645c",
"53	c #fb7569",
"54	c #f35446",
"55	c #ef382a",
"56	c #f64131",
"57	c #c3181d",
"58	c #c6494f",
"59	c #d05458",
"5a	c #f05850",
"5b	c #f53529",
"5c	c #f0382e",
"5d	c #f53c30",
"5e	c #c0181c",
"5f	c #c74f54",
"5g	c #bc444b",
"5h	c #c51515",
"5i	c #f6362f",
"5j	c #f2342d",
"5k	c #ef322b",
"5l	c #ed322b",
"5m	c #f7362e",
"5n	c #bc151a",
"5o	c #ae0c14",
"5p	c #a90b13",
"5q	c #d52121",
"5r	c #fc332e",
"5s	c #f1302c",
"5t	c #f7322d",
"5u	c #b91319",
"5v	c #a60c12",
"5w	c #a80d13",
"5x	c #e82526",
"5y	c #fa2d2b",
"5z	c #f02928",
"60	c #ed2928",
"61	c #f72d2b",
"62	c #b61317",
"63	c #9d0910",
"64	c #b71317",
"65	c #f12528",
"66	c #f52628",
"67	c #ee2426",
"68	c #ed2426",
"69	c #fd292b",
"6a	c #a10b11",
"6b	c #a20a0f",
"6c	c #95070d",
"6d	c #f72327",
"6e	c #ff242a",
"6f	c #9d0a0f",
"6g	c #9c090d",
"6h	c #99090c",
"                                                ",
"                                                ",
"                        3q                      ",
"                    383j3r3y                    ",
"                  2q393k3s3z49                  ",
"                  2r3a3l3t404a                  ",
"                2e2s3b3m3u414b4r                ",
"              242f2t3cXXXX424c4s50              ",
"              252g2uXXXXXXXX4d4t51              ",
"            1u262h0eXXXXXXXX4e4u5258            ",
"          1k1v272i0eXXXXXXXX4f4v53595f          ",
"          1l1w282j2vXXXXXXXX4g4w545a5g          ",
"        1c1m1x292k2wXXXXXXXX4h4x555b5h5o        ",
"        1d1n1y2a2l2xXXXXXXXX0g06++5c5i5p        ",
"      131e1o1z||//2yXXXXXXXX0g06++..5j5q5v      ",
"      141f1p20||//2zXXXXXXXX4i06++..5k5r5w      ",
"    0v151g1q07||//303dXXXX434j0b++..085s5x63    ",
"    0w160d0907||2m313e0f0f444k0b++..080h5y646b  ",
"  0p0x0d0a0907||//323fXXXX454l06++..080c5z656c  ",
"0l0q0y170a0907||//33XXXXXXXX4m06++..080c0i660j0k",
"0m0r0z180a0907||//34XXXXXXXX4n06++..080c0i676d6g",
"0n0s10191h1r212b2n353g3n3v464o0b++..5l0h60686e6h",
"0o0t111a1i1s222c2o363h3o3w474p4y565d5m5t61690j0k",
"  0u121b1j1t232d2p373i3p3x484q4z575e5n5u626a6f  "};