/* XPM */
static char * xpm_exit[] = {
"24 24 279 2",
"  	c None",
"XX	c #1c90d2",
"++	c #8fd0ef",
"..	c #86caed",
"||	c #7dc6ea",
"//	c #74c2e8",
"06	c #2092d4",
"07	c #1f91d4",
"08	c #1e90d3",
"09	c #1d90d2",
"0a	c #6dbce6",
"0b	c #2394d5",
"0c	c #65b9e4",
"0d	c #2595d5",
"0e	c #55b8eb",
"0f	c #99d7f2",
"0g	c #2c9ad7",
"0h	c #2897d7",
"0i	c #5db4e2",
"0j	c #f4452c",
"0k	c #cd1315",
"0l	c #eb2c1f",
"0m	c #f99e84",
"0n	c #f43f2a",
"0o	c #ef4e4a",
"0p	c #f4422c",
"0q	c #55b7ea",
"0r	c #140904",
"0s	c #1b0f09",
"0t	c #1f96d7",
"0u	c #56b2e0",
"0v	c #319cd9",
"0w	c #4dace3",
"0x	c #ed3a3a",
"0y	c #f48074",
"0z	c #f27b70",
"10	c #ef786f",
"11	c #ef766d",
"12	c #ef504d",
"13	c #faa084",
"14	c #f4452a",
"15	c #f4442a",
"16	c #f43d26",
"17	c #ef4e4b",
"18	c #f4482c",
"19	c #f4462d",
"1a	c #eb2d22",
"1b	c #f4472c",
"1c	c #f4452d",
"1d	c #eb2c22",
"1e	c #f99c83",
"1f	c #f4462c",
"1g	c #f43e2a",
"1h	c #eb2c21",
"1i	c #ef504b",
"1j	c #f99c84",
"1k	c #f4442c",
"1l	c #f43d29",
"1m	c #eb2b21",
"1n	c #f11218",
"1o	c #f1272b",
"1p	c #ef2b29",
"1q	c #ef3b36",
"1r	c #faa08b",
"1s	c #f3462c",
"1t	c #f43c29",
"1u	c #ec2c22",
"1v	c #f1171b",
"1w	c #f9a18d",
"1x	c #f76744",
"1y	c #f44b2e",
"1z	c #f4482f",
"20	c #f33a27",
"21	c #f43225",
"22	c #f82c24",
"23	c #e41b1b",
"24	c #fa2725",
"25	c #feac94",
"26	c #f65b3d",
"27	c #f4412b",
"28	c #f33927",
"29	c #f63123",
"2a	c #e81915",
"2b	c #52b1e4",
"2c	c #4face3",
"2d	c #4daae0",
"2e	c #49a6df",
"2f	c #47a1dc",
"2g	c #459cd9",
"2h	c #4099d8",
"2i	c #329cde",
"2j	c #259ce1",
"2k	c #b74562",
"2l	c #ffa791",
"2m	c #f55238",
"2n	c #f43e29",
"2o	c #f53928",
"2p	c #f72519",
"2q	c #5c4578",
"2r	c #1e7ecb",
"2s	c #1f75c3",
"2t	c #2468b4",
"2u	c #2263af",
"2v	c #1f60ab",
"2w	c #52b3e6",
"2x	c #489bd0",
"2y	c #3f83b7",
"2z	c #3e82b8",
"30	c #3b7eb3",
"31	c #3a7bb1",
"32	c #3878af",
"33	c #3675ab",
"34	c #3271ab",
"35	c #2c6ba5",
"36	c #d62026",
"37	c #ffa795",
"38	c #f6482f",
"39	c #f82f20",
"3a	c #822436",
"3b	c #1f62a1",
"3c	c #265892",
"3d	c #25558d",
"3e	c #22518d",
"3f	c #204e89",
"3g	c #1f4b86",
"3h	c #1b4984",
"3i	c #2e5170",
"3j	c #140a04",
"3k	c #150a04",
"3l	c #150a05",
"3m	c #160a06",
"3n	c #160b06",
"3o	c #140c07",
"3p	c #110d0b",
"3q	c #cf1a1b",
"3r	c #ff6f5c",
"3s	c #8f090b",
"3t	c #0e110d",
"3u	c #190e09",
"3v	c #1b0e09",
"3w	c #1b0f0a",
"3x	c #1b100b",
"3y	c #2f5575",
"3z	c #1c2126",
"40	c #3f90c6",
"41	c #3780b8",
"42	c #327ab2",
"43	c #2e75af",
"44	c #2b6faa",
"45	c #276aa4",
"46	c #24659e",
"47	c #1d5e9a",
"48	c #195896",
"49	c #7d2b4f",
"4a	c #065190",
"4b	c #0b4b88",
"4c	c #0a4986",
"4d	c #064680",
"4e	c #02417b",
"4f	c #023d78",
"4g	c #023a74",
"4h	c #02376f",
"4i	c #00397e",
"4j	c #004090",
"4k	c #00377f",
"4l	c #2c4f6d",
"4m	c #587484",
"4n	c #a9e4ff",
"4o	c #97d7f4",
"4p	c #8fd1f1",
"4q	c #84cdef",
"4r	c #7bc9ed",
"4s	c #75c4ec",
"4t	c #6cc1e9",
"4u	c #65bce8",
"4v	c #5abbe7",
"4w	c #4db8e8",
"4x	c #75c8ea",
"4y	c #95d0ea",
"4z	c #1f91d7",
"50	c #259bdc",
"51	c #239adb",
"52	c #2199db",
"53	c #2099da",
"54	c #1f99d9",
"55	c #1f99d8",
"56	c #1f97d7",
"57	c #2b4d6b",
"58	c #5d7b90",
"59	c #9fdef8",
"5a	c #4daddf",
"5b	c #91c3de",
"5c	c #dccbc4",
"5d	c #2787c4",
"5e	c #2295d6",
"5f	c #1d8fd2",
"5g	c #294967",
"5h	c #82b1c8",
"5i	c #9cdaf6",
"5j	c #54b0e0",
"5k	c #2594d4",
"5l	c #1779c0",
"5m	c #2396d7",
"5n	c #274562",
"5o	c #a6dcf4",
"5p	c #9ad7f3",
"5q	c #57b3e0",
"5r	c #45a7dd",
"5s	c #2c99d7",
"5t	c #2999d7",
"5u	c #24405c",
"5v	c #b0e8fe",
"5w	c #5ab4e1",
"5x	c #329ed9",
"5y	c #51b3e8",
"5z	c #4f8bb2",
"60	c #ade4fa",
"61	c #5eb6e2",
"62	c #4bacde",
"63	c #2f9bd9",
"64	c #50b1e6",
"65	c #5596bf",
"66	c #abe2f9",
"67	c #5eb4e3",
"68	c #36a0d9",
"69	c #309cd9",
"6a	c #4eade3",
"6b	c #7bcaed",
"6c	c #a9dff7",
"6d	c #67bae4",
"6e	c #4babdf",
"6f	c #369fd9",
"6g	c #8fd3f0",
"6h	c #a7dff6",
"6i	c #6fbce6",
"6j	c #60b6e4",
"6k	c #3ba3dd",
"6l	c #37a0da",
"6m	c #9bd9f4",
"6n	c #afe2f7",
"6o	c #a0dbf4",
"6p	c #96d4f1",
"6q	c #8dceef",
"6r	c #83caed",
"6s	c #79c6ea",
"6t	c #71c0e8",
"6u	c #46aadf",
"6v	c #3ea7df",
"6w	c #37a4dc",
"6x	c #31a0dc",
"6y	c #2c9eda",
"6z	c #279bd9",
"70	c #2499d7",
"71	c #2297d7",
"72	c #1e95d7",
"73	c #1d94d6",
"74	c #1d95d5",
"75	c #1c95d6",
"76	c #50b0e4",
"77	c #48a7df",
"78	c #45a0db",
"79	c #419cd8",
"7a	c #3f99d6",
"7b	c #3d94d3",
"7c	c #3c90d0",
"7d	c #3b8ccd",
"7e	c #3789ca",
"7f	c #3984c8",
"7g	c #3680c4",
"7h	c #357dc1",
"7i	c #3378bc",
"7j	c #3174b9",
"7k	c #2f70b7",
"7l	c #2d6bb3",
"7m	c #2c68b0",
"7n	c #2865ad",
"7o	c #2561aa",
"7p	c #235da7",
"7q	c #1f58a4",
"                  2b2w0q0e0e0e0e0e0q5y646a0w0w76",
"                  2c2x3i3y4l575g5n5u5z656b6g6m77",
"                  2d2y0r3z4m585h5o5v60666c6h6n78",
"                  2e2z3j404n595i5p0f0f0f0f0f6o79",
"                  2f300r414o++++++++++++++++6p7a",
"                  2g313k424p................6q7b",
"            1n    2h323l434q||||||||||||||||6r7c",
"            1o1v  2i333m444r////////////////6s7d",
"            1p1w242j343n454s0a0a0a0a0a0a0a6i6t7e",
"0x12170o0o1i1q1x252k353o464t0c0c0c0c0c0c6d6j6u7f",
"0y130m0m1e1j1r1y262l363p474u0i0i0i0i61676e6k6v7g",
"0z14181b1f0j1s1z0j2m373q484v0u0u5q5w62686f6l6w7h",
"1015191c0j1k0p0p272n383r494w5a5j5r5x63690v0v6x7i",
"11160n0n1g1l1t20282o393s4a4x5b5k5s0g0g0g0g0g6y7j",
"0l0l1a1d1h1m1u21292p3a3t4b4y5c5l5t0h0h0h0h0h6z7k",
"            0k222a2q3b3u4c4z5d5m0d0d0d0d0d0d707l",
"            0k23  2r3c3v4d505e0b0b0b0b0b0b0b717m",
"            0k    2s3d0s4e5106060606060606060t7n",
"                  2t3e0s4f520707070707070707727o",
"                  2u3f3w4g530808080808080808737p",
"                  2v3g3x4h540909090909090909747q",
"                    3h  4i55XXXXXXXXXXXXXXXX75  ",
"                        4j56XXXXXXXXXX          ",
"                        4k0t5f                  "};