/* XPM */
static char * xpm_expand[] = {
"24 24 300 2",
"  	c None",
"XX	c #b9ebfb",
"++	c #63c4ef",
"..	c #75cff2",
"||	c #1461b9",
"//	c #66c5ef",
"06	c #8eddf8",
"07	c #ace8fc",
"08	c #8cdbf8",
"09	c #1d9be1",
"0a	c #189ae1",
"0b	c #3191d8",
"0c	c #2373c5",
"0d	c #2e80cb",
"0e	c #2ba5e6",
"0f	c #88dcf8",
"0g	c #259fe2",
"0h	c #aae7fc",
"0i	c #9fe3f9",
"0j	c #56beed",
"0k	c #46b2ea",
"0l	c #43b3ec",
"0m	c #2473c5",
"0n	c #75d3f4",
"0o	c #6ecdf4",
"0p	c #3799dc",
"0q	c #6bcaf3",
"0r	c #5dc3ef",
"0s	c #47b7ec",
"0t	c #62c3ee",
"0u	c #5dbdec",
"0v	c #5abaea",
"0w	c #56b6e8",
"0x	c #55b2e7",
"0y	c #56b3e5",
"0z	c #45a3e0",
"10	c #3b88cf",
"11	c #3482cc",
"12	c #337eca",
"13	c #2f7bc7",
"14	c #2b78c5",
"15	c #2a77c4",
"16	c #185ab1",
"17	c #9de2f9",
"18	c #90dcf6",
"19	c #389bdd",
"1a	c #2675c5",
"1b	c #4dbcec",
"1c	c #44b5e9",
"1d	c #3bb2e8",
"1e	c #33afe8",
"1f	c #2cafe8",
"1g	c #1867bb",
"1h	c #8ddcf8",
"1i	c #8bdaf8",
"1j	c #86dbf8",
"1k	c #76d1f4",
"1l	c #3298dd",
"1m	c #1f6ac0",
"1n	c #2c9ce1",
"1o	c #229de1",
"1p	c #1b99e0",
"1q	c #1798e1",
"1r	c #1460b9",
"1s	c #6bcaf0",
"1t	c #3193dd",
"1u	c #1a62bb",
"1v	c #53ace1",
"1w	c #8fdff8",
"1x	c #8fdcf9",
"1y	c #88dbf7",
"1z	c #87d9f7",
"20	c #65c6ee",
"21	c #2f90db",
"22	c #1a65bd",
"23	c #75bee7",
"24	c #2ba5e5",
"25	c #26a1e3",
"26	c #1d9be2",
"27	c #189ae2",
"28	c #81d8f6",
"29	c #5fc3ee",
"2a	c #89dcf6",
"2b	c #85d8f7",
"2c	c #83d9f6",
"2d	c #61c2ee",
"2e	c #2c8cd7",
"2f	c #1a6bc1",
"2g	c #77c0e8",
"2h	c #2ea8e6",
"2i	c #2da5e5",
"2j	c #1f7dcf",
"2k	c #1f91dc",
"2l	c #189ce3",
"2m	c #3dabe7",
"2n	c #38a1e4",
"2o	c #40abe6",
"2p	c #86d9f7",
"2q	c #81d6f6",
"2r	c #7ed6f5",
"2s	c #5abdec",
"2t	c #2a86d4",
"2u	c #1c70c5",
"2v	c #7bc2e9",
"2w	c #38abe8",
"2x	c #33aae9",
"2y	c #206cc1",
"2z	c #1b5fb5",
"30	c #1a5eb4",
"31	c #1792df",
"32	c #1563bb",
"33	c #399fe2",
"34	c #41a7e3",
"35	c #80d7f5",
"36	c #7cd3f5",
"37	c #79d4f5",
"38	c #58baea",
"39	c #2983d2",
"3a	c #1e75c8",
"3b	c #7ec6ea",
"3c	c #3eb1eb",
"3d	c #3caeea",
"3e	c #226fc3",
"3f	c #1e63ba",
"3g	c #175cb2",
"3h	c #155db6",
"3i	c #389bdf",
"3j	c #3da3e1",
"3k	c #7cd4f5",
"3l	c #77d1f5",
"3m	c #74d1f4",
"3n	c #51b7e9",
"3o	c #267fcf",
"3p	c #2077cb",
"3q	c #82c9ea",
"3r	c #45b5ec",
"3s	c #42b5ec",
"3t	c #2068bb",
"3u	c #1556ae",
"3v	c #3698dd",
"3w	c #3b9fdf",
"3x	c #72cef4",
"3y	c #48aee6",
"3z	c #78c2e9",
"40	c #7ccff1",
"41	c #4bb8ed",
"42	c #48b7eb",
"43	c #2577ca",
"44	c #216abe",
"45	c #3394da",
"46	c #6fcff3",
"47	c #66c7f1",
"48	c #5cc3f0",
"49	c #55beee",
"4a	c #4ebaed",
"4b	c #287dcc",
"4c	c #226fc2",
"4d	c #2f8ed8",
"4e	c #389cde",
"4f	c #6ccbf3",
"4g	c #65c6f0",
"4h	c #58c1ee",
"4i	c #2e86d2",
"4j	c #2270c4",
"4k	c #278ad6",
"4l	c #93d2ef",
"4m	c #75cef3",
"4n	c #64c6f0",
"4o	c #57c1ee",
"4p	c #3fa4e1",
"4q	c #206dc2",
"4r	c #2a8fdb",
"4s	c #95d5f0",
"4t	c #68c9f2",
"4u	c #69caf2",
"4v	c #61c7f1",
"4w	c #57bfee",
"4x	c #51beee",
"4y	c #3ba0e0",
"4z	c #206bc0",
"50	c #2d93dd",
"51	c #98d6f1",
"52	c #2f8cd6",
"53	c #2d85d3",
"54	c #56c0ee",
"55	c #50baed",
"56	c #4bb9ed",
"57	c #369ce0",
"58	c #2066bc",
"59	c #2f97df",
"5a	c #9bd7f2",
"5b	c #73d0f5",
"5c	c #71d0f4",
"5d	c #3390d8",
"5e	c #2a83d0",
"5f	c #287dcd",
"5g	c #2b83d1",
"5h	c #50bbed",
"5i	c #4ab7ec",
"5j	c #44b6eb",
"5k	c #3296dd",
"5l	c #1f62b9",
"5m	c #1456ae",
"5n	c #309ae1",
"5o	c #9cdbf3",
"5p	c #78d3f6",
"5q	c #3595db",
"5r	c #2c85d3",
"5s	c #2779ca",
"5t	c #2a7fce",
"5u	c #4ab7eb",
"5v	c #43b3ea",
"5w	c #3eb1ea",
"5x	c #2c93db",
"5y	c #1c60b7",
"5z	c #175eb5",
"60	c #1d67b7",
"61	c #3cabe7",
"62	c #319fe3",
"63	c #a0ddf4",
"64	c #7dd5f5",
"65	c #7bd6f7",
"66	c #2e8dd7",
"67	c #2575c6",
"68	c #287acc",
"69	c #43b5ec",
"6a	c #3daee9",
"6b	c #34ade8",
"6c	c #278fd9",
"6d	c #1a5cb3",
"6e	c #175bb5",
"6f	c #6fccee",
"6g	c #196abd",
"6h	c #7fd7f6",
"6i	c #8ed7f4",
"6j	c #81d7f7",
"6k	c #81d8f5",
"6l	c #3a9fdf",
"6m	c #3190d8",
"6n	c #2370c4",
"6o	c #2677ca",
"6p	c #3dafea",
"6q	c #33abe7",
"6r	c #2ea9e7",
"6s	c #208ad6",
"6t	c #5bbbe7",
"6u	c #20a6e6",
"6v	c #1360b9",
"6w	c #8cdcf9",
"6x	c #86dcf7",
"6y	c #84d8f7",
"6z	c #3ea3e1",
"70	c #3394dc",
"71	c #226dc1",
"72	c #34aae9",
"73	c #2ea6e6",
"74	c #239fe3",
"75	c #1999e1",
"76	c #1698e1",
"77	c #89dcf8",
"78	c #59bcec",
"79	c #3397dd",
"7a	c #2067be",
"7b	c #1f75c8",
"7c	c #2da7e7",
"7d	c #78d2f4",
"7e	c #3498dd",
"7f	c #1d6ac0",
"7g	c #8ad0ee",
"7h	c #2ea8e5",
"7i	c #239de2",
"7j	c #93e1f9",
"7k	c #91dff9",
"7l	c #8cdff8",
"7m	c #8adcf8",
"7n	c #7ad5f6",
"7o	c #3697dd",
"7p	c #2374c5",
"7q	c #92d7f2",
"7r	c #40b6ec",
"7s	c #2ca8e7",
"7t	c #25a2e4",
"7u	c #1e9fe3",
"7v	c #189de4",
"7w	c #1462ba",
"7x	c #48b6ed",
"7y	c #55bcec",
"7z	c #4db7eb",
"80	c #4ab2e9",
"81	c #47ade7",
"82	c #45abe6",
"83	c #45a9e3",
"84	c #3b9edf",
"85	c #2c7ecd",
"86	c #2073c7",
"87	c #2170c4",
"88	c #1d6dc2",
"89	c #1968bf",
"8a	c #1766be",
"8b	c #155ab0",
"0s//++++++++//0j0l            0l0j//++++++++//7x",
"0tXXXXXXXX0h0i0k                0k0i0h070707077y",
"0uXX1h061w282m                    616h0606067j7z",
"0vXX1i081x292n                    626i6w08087k80",
"0wXX1j0f1y2a2o33                5n63XX6x770f7l81",
"0x171k1s1z2b2p343i            595oXX6j6y787d7m82",
"0y181l1t202c2q353j3v        505aXX646k6z797e7n83",
"0z19    212d2r363k3w45    4r51XX5p656l70    7o84",
"0b        2e2s373l0n0p4d4k4sXX5b0n0p6m        0b",
"            2t383m3x464e4lXX0o5c5q66            ",
"              393n0o0q4f4m4t0q5d5r              ",
"                3o3y474g4n4u525e                ",
"                3p3z480r0r4v535f                ",
"              3a3q40494h4o4w545g5s              ",
"            2u3b..414a4i4p4x555h5t67            ",
"0c        2f2v..3r424b4j4q4y565i5u686n        0c",
"0d1a    222g..3c3s434c    4z575j5v696o71    7p0d",
"10..1m1u23..2w3d0m44        585k5w6a6p0m7a7f7q85",
"111b1n1v..2h2x3e3t            5l5x6b6q727b7g7r86",
"121c0e0e242i2y3f                5y6c6r737c7h7s87",
"131d1o0g252j2z                    6d6s740g7i7t88",
"141e1p09262k30                    6e6t7509097u89",
"151f1q0a272l313g                5z6f6u760a0a7v8a",
"161g1r||||||323h3u            5m606g6v||||||7w8b"};