/* XPM */
static char * xpm_eye[] = {
"24 24 335 2",
"  	c None",
"XX	c #ffffff",
"++	c #000000",
"..	c #f08b29",
"||	c #f6912b",
"//	c #f48f2b",
"06	c #f28d2a",
"07	c #f58d29",
"08	c #e57818",
"09	c #c05f12",
"0a	c #fcc455",
"0b	c #f7932c",
"0c	c #55b8ed",
"0d	c #f6902b",
"0e	c #ed7c1c",
"0f	c #f38d2a",
"0g	c #010000",
"0h	c #ee7c1b",
"0i	c #030405",
"0j	c #f18c2b",
"0k	c #ee8a29",
"0l	c #ec8829",
"0m	c #e47e25",
"0n	c #eb8728",
"0o	c #c4b7a9",
"0p	c #ea8529",
"0q	c #fcdd72",
"0r	c #fedb6b",
"0s	c #d68d31",
"0t	c #f3ebe4",
"0u	c #d68e3a",
"0v	c #f2b747",
"0w	c #fbdc73",
"0x	c #fede71",
"0y	c #f6cc5c",
"0z	c #efe0d1",
"10	c #c97a2f",
"11	c #f4b546",
"12	c #fdc150",
"13	c #fbdd74",
"14	c #fddb70",
"15	c #fbd772",
"16	c #bb550c",
"17	c #e2c096",
"18	c #f9f6f2",
"19	c #ba5105",
"1a	c #f5af43",
"1b	c #fbb747",
"1c	c #fbdb73",
"1d	c #fdd96f",
"1e	c #fed868",
"1f	c #ca6f1d",
"1g	c #c87a2e",
"1h	c #ddb481",
"1i	c #c16014",
"1j	c #fbb242",
"1k	c #fbad3f",
"1l	c #fbda71",
"1m	c #fcd76c",
"1n	c #fed96e",
"1o	c #e59c38",
"1p	c #bb520a",
"1q	c #f6efe4",
"1r	c #fcffff",
"1s	c #bd5f13",
"1t	c #e2862a",
"1u	c #fcaa3c",
"1v	c #faa436",
"1w	c #fcd96e",
"1x	c #fcd66b",
"1y	c #fdd569",
"1z	c #f7c354",
"20	c #d16718",
"21	c #d68f45",
"22	c #f4ffff",
"23	c #dcf1fb",
"24	c #c9e7f6",
"25	c #c3e3f6",
"26	c #bfe0f4",
"27	c #e5eff7",
"28	c #d8a367",
"29	c #ca6518",
"2a	c #f79f33",
"2b	c #fa9f34",
"2c	c #fa9b30",
"2d	c #fcd56a",
"2e	c #fcd266",
"2f	c #fcd466",
"2g	c #e9902e",
"2h	c #d36814",
"2i	c #c0c2b8",
"2j	c #b9e7fd",
"2k	c #b5e2f5",
"2l	c #b3e0f4",
"2m	c #8bceee",
"2n	c #59b8e7",
"2o	c #49b0e3",
"2p	c #71c1e9",
"2q	c #ece7e3",
"2r	c #ce6511",
"2s	c #e98528",
"2t	c #fa9b2f",
"2u	c #f9942b",
"2v	c #fcd165",
"2w	c #fbcf62",
"2x	c #e37921",
"2y	c #d37019",
"2z	c #bef2ff",
"30	c #bce5f8",
"31	c #b8e3f7",
"32	c #b8e3f8",
"33	c #6dc6f0",
"34	c #62bdea",
"35	c #53b2e3",
"36	c #41a7e0",
"37	c #2fa7ea",
"38	c #c56e24",
"39	c #e37d24",
"3a	c #f9952d",
"3b	c #fcd063",
"3c	c #fccd60",
"3d	c #fdcc5e",
"3e	c #f7a63a",
"3f	c #e47a1f",
"3g	c #ce995e",
"3h	c #bdeeff",
"3i	c #bbe6fa",
"3j	c #b6e0f2",
"3k	c #8cafc3",
"3l	c #4a80a9",
"3m	c #54acdf",
"3n	c #44a8e0",
"3o	c #289ee5",
"3p	c #937d5c",
"3q	c #e77d21",
"3r	c #f5902c",
"3s	c #fccc5f",
"3t	c #fcc95a",
"3u	c #fcc85a",
"3v	c #f5972e",
"3w	c #e5791c",
"3x	c #cbb696",
"3y	c #bcecff",
"3z	c #c2d2dc",
"40	c #c7c1bf",
"41	c #7b7472",
"42	c #2f2824",
"43	c #0e0300",
"44	c #2a608b",
"45	c #43ade6",
"46	c #289ee1",
"47	c #788176",
"48	c #ea7c1f",
"49	c #f38e2a",
"4a	c #fcc959",
"4b	c #fbc456",
"4c	c #f58b27",
"4d	c #e57919",
"4e	c #c6cfcd",
"4f	c #bde1f2",
"4g	c #e8e2e1",
"4h	c #e5e2e2",
"4i	c #5a5657",
"4j	c #151414",
"4k	c #0a0a0a",
"4l	c #3796d4",
"4m	c #289de0",
"4n	c #4688a5",
"4o	c #f5902b",
"4p	c #fbc554",
"4q	c #fabf51",
"4r	c #fcc04e",
"4s	c #c5d8dd",
"4t	c #b7ccd8",
"4u	c #c9c6c5",
"4v	c #a19d9d",
"4w	c #302e2c",
"4x	c #0a0c0c",
"4y	c #020304",
"4z	c #173859",
"50	c #279fe4",
"51	c #3787b1",
"52	c #f48e2c",
"53	c #fabe4f",
"54	c #fbbb4c",
"55	c #fbba49",
"56	c #c6d8dd",
"57	c #a4b7c3",
"58	c #999493",
"59	c #555655",
"5a	c #080808",
"5b	c #020303",
"5c	c #16395a",
"5d	c #239ce3",
"5e	c #3586ae",
"5f	c #f58e2c",
"5g	c #f18c2a",
"5h	c #f08c2a",
"5i	c #fabb4c",
"5j	c #fab646",
"5k	c #fbb345",
"5l	c #c4dadf",
"5m	c #a3c5d7",
"5n	c #817c77",
"5o	c #252525",
"5p	c #030304",
"5q	c #236fa9",
"5r	c #1d98df",
"5s	c #4083a2",
"5t	c #f08b2a",
"5u	c #fab647",
"5v	c #fab142",
"5w	c #fbae3f",
"5x	c #f5922c",
"5y	c #e57a1c",
"5z	c #cbb493",
"60	c #bcefff",
"61	c #7d919e",
"62	c #241f1b",
"63	c #122235",
"64	c #30a5e7",
"65	c #1691dc",
"66	c #6d7e75",
"67	c #ea7d1f",
"68	c #faaf42",
"69	c #faac3d",
"6a	c #fba83b",
"6b	c #f6982f",
"6c	c #e57b1f",
"6d	c #cca371",
"6e	c #b6e9ff",
"6f	c #bce9ff",
"6g	c #6599bc",
"6h	c #224564",
"6i	c #224260",
"6j	c #327bb2",
"6k	c #3dacec",
"6l	c #2898d9",
"6m	c #1090dc",
"6n	c #9b784a",
"6o	c #e77d22",
"6p	c #ef8b29",
"6q	c #faa639",
"6r	c #faa336",
"6s	c #f89d32",
"6t	c #e37e24",
"6u	c #d46f18",
"6v	c #b4ebff",
"6w	c #b2dff6",
"6x	c #91d3f3",
"6y	c #60bff1",
"6z	c #46abe4",
"70	c #349fdc",
"71	c #2092d7",
"72	c #0b92e3",
"73	c #d26b19",
"74	c #ee8929",
"75	c #f9a135",
"76	c #fa9d32",
"77	c #fa9a30",
"78	c #e88326",
"79	c #d46914",
"7a	c #b8cfd8",
"7b	c #aedff9",
"7c	c #9ad3f0",
"7d	c #53b5e5",
"7e	c #4baee4",
"7f	c #38a3dd",
"7g	c #2397db",
"7h	c #3aa4da",
"7i	c #c4b2a1",
"7j	c #d16916",
"7k	c #e58126",
"7l	c #ed8828",
"7m	c #fa9c31",
"7n	c #f9982e",
"7o	c #fa942c",
"7p	c #d26c1b",
"7q	c #d1975a",
"7r	c #d5e4f1",
"7s	c #b6d6e8",
"7t	c #72bde4",
"7u	c #66b5e0",
"7v	c #8cbdda",
"7w	c #b2c9d5",
"7x	c #dddadd",
"7y	c #c78e52",
"7z	c #cd6a1c",
"80	c #eb8829",
"81	c #eb8628",
"82	c #f8942c",
"83	c #f9932c",
"84	c #be570b",
"85	c #dbdbda",
"86	c #dddcdd",
"87	c #ddd9d8",
"88	c #dbd6d5",
"89	c #d7d4d4",
"8a	c #d1d1d3",
"8b	c #cbcbca",
"8c	c #bc560d",
"8d	c #db7622",
"8e	c #ed8729",
"8f	c #ea8628",
"8g	c #f7912b",
"8h	c #c9651a",
"8i	c #c68544",
"8j	c #d7dee7",
"8k	c #d2d4d6",
"8l	c #d0d1d3",
"8m	c #cdced1",
"8n	c #cad3db",
"8o	c #c18140",
"8p	c #c36018",
"8q	c #ec8728",
"8r	c #e98428",
"8s	c #f48e2a",
"8t	c #bd5911",
"8u	c #cab292",
"8v	c #d0d4da",
"8w	c #cccfd1",
"8x	c #c9ced2",
"8y	c #c05b10",
"8z	c #e68127",
"90	c #f18d2b",
"91	c #ec8426",
"92	c #c36215",
"93	c #c9c4bd",
"94	c #c8ced5",
"95	c #c5cdd1",
"96	c #e78125",
"97	c #ef8926",
"98	c #cf6b15",
"99	c #c57227",
"9a	c #e67e23",
"                                                ",
"                                                ",
"                3b3s4a4p535i5u68                ",
"          1w2d2v3c3t4b4q545j5v696q757m          ",
"        1l1x2e2w3d3u0a4r555k5w6a6r767n82        ",
"      1c1m1y2f0a3e3v4c0707075x6b6s777o0b||      ",
"    131d1n1z2g2x3f3w4d0808085y6c6t78//838g//    ",
"  0w141e1o202h2y3g3x4e4s565l5z6d6u797p0m0d8s06  ",
"  0x151f1p212i2z3h3y4f4t575m606e6v7a7q848h..90  ",
"0q0y161g1q222j303i3z4g4u585n616f6w7b7r858i8t91..",
"0r0917XXXX232k313j404h4v595o626g6x7c7s868j8u9297",
"0s0zXXXXXX242l323k414i4w5a++++6h6y7d7t878k8v9398",
"0tXXXXXXXX252m333l424j4x5b0i++6i0c7e7u888l8w940o",
"0uXXXXXXXX262n343m434k4y0i5p++6j6z7f7v898m8x9599",
"0v1018XXXX272o350c44++0g0g++636k707g7w8a8n0o099a",
"  11191h1rXX2p363n454l4z5c5q646l717h7x8b8o8y96  ",
"  121a1i1s282q373o464m505d5r656m727i7y8c8p8z0p  ",
"    1b1j1t292r383p474n515e5s666n737j7z8d8q0p    ",
"      1k1u2a2s393q480e0h0h0e676o0m7k808e8r      ",
"        1v2b2t3a3r4906525f0j0j6p747l0n8f        ",
"          2c2u0b||||4o0f5g5t..0k0l0n81          ",
"                0d//0f065h..0k0l                ",
"                                                ",
"                                                "};