/* XPM */
static char * xpm_fast-forward[] = {
"24 24 266 2",
"  	c None",
"XX	c #ffffff",
"++	c #80cef3",
"..	c #7ccbf2",
"||	c #84d1f3",
"//	c #77c8f0",
"06	c #67bae5",
"07	c #8acaea",
"08	c #87d4f6",
"09	c #7dccf3",
"0a	c #83c8e9",
"0b	c #6ebce6",
"0c	c #7dc5e7",
"0d	c #85c9e9",
"0e	c #72c5ef",
"0f	c #86d3f5",
"0g	c #66bae5",
"0h	c #fffffe",
"0i	c #5db5e4",
"0j	c #2366b3",
"0k	c #2067b4",
"0l	c #1f66b4",
"0m	c #2a77be",
"0n	c #2d7cc6",
"0o	c #3285ca",
"0p	c #1d5dac",
"0q	c #2c72b8",
"0r	c #5da0d1",
"0s	c #86c2e5",
"0t	c #9fd7f4",
"0u	c #74c2eb",
"0v	c #58aee3",
"0w	c #4198d6",
"0x	c #358ccf",
"0y	c #1d5ba9",
"0z	c #1e60ab",
"10	c #65a8d5",
"11	c #9fd2ef",
"12	c #94cfee",
"13	c #3d97d6",
"14	c #3c94d6",
"15	c #1855a5",
"16	c #2a70b4",
"17	c #7ebde1",
"18	c #4ca9e0",
"19	c #3d99d9",
"1a	c #1856a1",
"1b	c #286eb4",
"1c	c #81c1e4",
"1d	c #94ceee",
"1e	c #82d1f5",
"1f	c #88d4f6",
"1g	c #51ace3",
"1h	c #409edd",
"1i	c #1956a4",
"1j	c #6fb5dd",
"1k	c #8bcdeb",
"1l	c #81cff3",
"1m	c #43a4de",
"1n	c #114c9d",
"1o	c #539bd0",
"1p	c #82cae8",
"1q	c #87d2f4",
"1r	c #7accf0",
"1s	c #40a1df",
"1t	c #2064ad",
"1u	c #77bee2",
"1v	c #82c9e9",
"1w	c #58b3e3",
"1x	c #79caf1",
"1y	c #85d1f3",
"1z	c #8cd7f7",
"20	c #52afe5",
"21	c #124d9d",
"22	c #418cc6",
"23	c #7dc8e7",
"24	c #82c8e9",
"25	c #73c1e5",
"26	c #5bb4e4",
"27	c #6ebde7",
"28	c #89d4f6",
"29	c #72c8ee",
"2a	c #45a5e3",
"2b	c #0f4b9b",
"2c	c #61abd6",
"2d	c #7fc7e8",
"2e	c #60b8e3",
"2f	c #86d2f5",
"2g	c #42a7e3",
"2h	c #0d4a9a",
"2i	c #72bae0",
"2j	c #54b3e1",
"2k	c #5db6e4",
"2l	c #79c3e8",
"2m	c #90d9f7",
"2n	c #41a5e2",
"2o	c #1656a3",
"2p	c #79c1e5",
"2q	c #52b0e1",
"2r	c #8fd7f6",
"2s	c #4aade5",
"2t	c #307dc5",
"2u	c #2678c3",
"2v	c #88ccec",
"2w	c #8ed1f0",
"2x	c #94d1f1",
"2y	c #7ac3ea",
"2z	c #81c6ec",
"30	c #86c9ed",
"31	c #91cdef",
"32	c #71c3ed",
"33	c #68beed",
"34	c #71c6f0",
"35	c #7accf2",
"36	c #6dc1ec",
"37	c #99d3f0",
"38	c #7fc3e9",
"39	c #6cbae5",
"3a	c #74bee5",
"3b	c #77bee6",
"3c	c #7dc1e7",
"3d	c #59b0e2",
"3e	c #4ba6df",
"3f	c #52a7e0",
"3g	c #56ace0",
"3h	c #58aee1",
"3i	c #77caf1",
"3j	c #7fcff4",
"3k	c #86c7ea",
"3l	c #7dbfe7",
"3m	c #9acae9",
"3n	c #93c2e4",
"3o	c #8ebfe1",
"3p	c #7fb4db",
"3q	c #5192ca",
"3r	c #4f90c6",
"3s	c #4c87c1",
"3t	c #4b85c0",
"3u	c #2a68ae",
"3v	c #2875bd",
"3w	c #6db7e4",
"3x	c #2163ac",
"3y	c #54a9dd",
"3z	c #7fcef4",
"40	c #6ebce5",
"41	c #64b9e5",
"42	c #6db9e4",
"43	c #a0cde9",
"44	c #94bbd9",
"45	c #1a67b3",
"46	c #7fd1f6",
"47	c #6ebbe5",
"48	c #64b0e0",
"49	c #ecf4f9",
"4a	c #0e53a6",
"4b	c #62b9e8",
"4c	c #70b9e4",
"4d	c #7ab8e1",
"4e	c #6fa4cf",
"4f	c #3384c9",
"4g	c #78cbf2",
"4h	c #78c3e8",
"4i	c #449ad6",
"4j	c #c8ddef",
"4k	c #e1ecf4",
"4l	c #0c56aa",
"4m	c #6dc5f0",
"4n	c #73c6f0",
"4o	c #4ea9e0",
"4p	c #267fc8",
"4q	c #4c8cc6",
"4r	c #4298d5",
"4s	c #70c6ef",
"4t	c #5eb5e4",
"4u	c #6dbce6",
"4v	c #54b3e7",
"4w	c #2f8bd0",
"4x	c #aacee6",
"4y	c #cfe1ee",
"4z	c #1b6aba",
"50	c #75ccf6",
"51	c #75ccf3",
"52	c #7acef4",
"53	c #7dcef4",
"54	c #75bbe6",
"55	c #6ab2e0",
"56	c #2f8bcf",
"57	c #1e79c5",
"58	c #116cbe",
"59	c #1c70bd",
"5a	c #115fb1",
"5b	c #0a53a7",
"5c	c #084ca2",
"5d	c #0c499c",
"5e	c #2877be",
"5f	c #6abae6",
"5g	c #7abee7",
"5h	c #4a85bf",
"5i	c #4297d1",
"5j	c #80cff5",
"5k	c #6bb8e4",
"5l	c #c7dff3",
"5m	c #bcd4e7",
"5n	c #0a51a5",
"5o	c #81d2f7",
"5p	c #6dbbe5",
"5q	c #61aedf",
"5r	c #1e63ae",
"5s	c #5cb1e3",
"5t	c #7acbf2",
"5u	c #6db6e3",
"5v	c #9dcae7",
"5w	c #9abedb",
"5x	c #1e69b6",
"5y	c #78cef4",
"5z	c #6fbce5",
"60	c #66b8e5",
"61	c #76c0e8",
"62	c #5fa9d9",
"63	c #eef3f8",
"64	c #044da4",
"65	c #67c0eb",
"66	c #73c8f0",
"67	c #64b7e4",
"68	c #6dbbe6",
"69	c #76c1e8",
"6a	c #73bae4",
"6b	c #70aedb",
"6c	c #5f9ccd",
"6d	c #3589cc",
"6e	c #72c7f0",
"6f	c #82c7e9",
"6g	c #6bbae5",
"6h	c #75c0e7",
"6i	c #7dc4ea",
"6j	c #61a7da",
"6k	c #d0e2ef",
"6l	c #e8eff6",
"6m	c #115db0",
"6n	c #68c0ed",
"6o	c #6ec2ee",
"6p	c #9dd5f0",
"6q	c #7cc3e9",
"6r	c #72bfe6",
"6s	c #7cc3ea",
"6t	c #7ac0e7",
"6u	c #68a7d6",
"6v	c #5e9bcd",
"6w	c #459dd9",
"6x	c #6bbfee",
"6y	c #6dc1ed",
"6z	c #7dcef3",
"70	c #7ac2ea",
"71	c #82c7ed",
"72	c #74b6e0",
"73	c #6babd8",
"74	c #73c5ef",
"75	c #67bcec",
"76	c #6fc4ee",
"77	c #78caf1",
"78	c #6bbfeb",
"79	c #87cbed",
"7a	c #90d1f2",
"7b	c #96d4f4",
"7c	c #2d7cc2",
"7d	c #2777c3",
"                212b2h2o2o2h2b21                ",
"            1n1t222c2i2p2p2i2c221t1n            ",
"        1a1i1o1u232d0c0c0c0c2d231u1o1i1a        ",
"      151b1j1p1v240a0d0d0d0d0a241v1p1j1b15      ",
"    0y161c1k070a252e2j2q2q2j2e250a071k1c160y    ",
"    0z171d07401w260i2k4t2k0i0i261w5z071d170z    ",
"  0p10373k0g41060606060g0b5f0g060660676f6p100p  ",
"  0q11383l3w4247270b0b4u545g5k5p270b686g6q110q  ",
"0j0r12393mXX43484c4h2l2l55XX5l5q5u61696h6r120r0j",
"0k0s2y3a3nXXXX494d4i4o4v56XXXX0h5v626a6i6s700s0k",
"0l2v2z3b3oXXXXXXXX4j4p4w57XXXXXXXX636b6j6t71790l",
"0m2w303c3pXXXXXXXXXXXX4x58XXXXXXXXXXXX6k6u727a0m",
"2t2x313d3qXXXXXXXXXXXX4y59XXXXXXXXXXXX6l6v737b7c",
"2u0t323e3rXXXXXXXX4k4q4z5aXXXXXXXX0h6c6m6w740t7d",
"0n0u333f3sXXXX0h4e4l4r505bXXXXXX5w646d6n6x750u0n",
"0o0v343g3tXX444a4f4m4s515cXX5m5r5x656e6o6y760v0o",
"  0w353h3u3x454b4g4n0e525d5h5n5s5y660e0e0e770w  ",
"  0x363i3v3y461x//////535e5i5o5t////////1x780x  ",
"    133j1e3z09........091e5j09........096z13    ",
"    14181f1l++++++++++++++++++++++++1l1f1814    ",
"      191g081q1y||||||||||||||||1y1q081g19      ",
"        1h1m1r1z28080f0f0f0f08281z1r1m1h        ",
"            1s20292f2m2r2r2m2f29201s            ",
"                2a2g2n2s2s2n2g2a                "};