/* XPM */
static char * xpm_favourites[] = {
"24 24 270 2",
"  	c None",
"XX	c #fee44f",
"++	c #fee34f",
"..	c #fee052",
"||	c #fdb902",
"//	c #fde84e",
"06	c #fcce01",
"07	c #fedf4f",
"08	c #fdbd01",
"09	c #d28659",
"0a	c #a92c09",
"0b	c #cd7949",
"0c	c #fde94e",
"0d	c #fbd200",
"0e	c #fbd101",
"0f	c #fbd001",
"0g	c #fde745",
"0h	c #fde64d",
"0i	c #fccc02",
"0j	c #fccb02",
"0k	c #fdc801",
"0l	c #c6500a",
"0m	c #fee24f",
"0n	c #fcc501",
"0o	c #a72b0d",
"0p	c #d08253",
"0q	c #cf8153",
"0r	c #fdbe01",
"0s	c #fdba01",
"0t	c #fdb403",
"0u	c #ac340c",
"0v	c #feb503",
"0w	c #ffb603",
"0x	c #cf8051",
"0y	c #d18358",
"0z	c #d18353",
"10	c #ffffff",
"11	c #e2b45a",
"12	c #cf805b",
"13	c #d79773",
"14	c #ffffc9",
"15	c #fff945",
"16	c #e2b057",
"17	c #cf805c",
"18	c #ddac8f",
"19	c #ffffaa",
"1a	c #fcef49",
"1b	c #fff950",
"1c	c #e1af58",
"1d	c #cf815c",
"1e	c #cf8251",
"1f	c #edd6d1",
"1g	c #fff688",
"1h	c #fcee4a",
"1i	c #fdee4f",
"1j	c #fff44d",
"1k	c #e2af59",
"1l	c #d07f5c",
"1m	c #ab2f09",
"1n	c #a92a0a",
"1o	c #a92b09",
"1p	c #ae360b",
"1q	c #f0dcde",
"1r	c #fded3f",
"1s	c #fcec4d",
"1t	c #fceb4e",
"1u	c #feeb4e",
"1v	c #fff450",
"1w	c #d79136",
"1x	c #a52108",
"1y	c #a62407",
"1z	c #c86f50",
"20	c #cb6a20",
"21	c #dc9a33",
"22	c #ecbe2f",
"23	c #f6d11b",
"24	c #fff63d",
"25	c #ce7d4d",
"26	c #f9f3f7",
"27	c #feea41",
"28	c #fdea4e",
"29	c #feea55",
"2a	c #fee408",
"2b	c #fdde09",
"2c	c #fff12d",
"2d	c #ffe000",
"2e	c #ffdf00",
"2f	c #fed900",
"2g	c #fdd400",
"2h	c #ffd900",
"2i	c #d87804",
"2j	c #ab310c",
"2k	c #cd7a4b",
"2l	c #fefaeb",
"2m	c #fde842",
"2n	c #fde547",
"2o	c #fad500",
"2p	c #fcd600",
"2q	c #fdd101",
"2r	c #fccb01",
"2s	c #ac310c",
"2t	c #d08053",
"2u	c #cd7b51",
"2v	c #e5bda8",
"2w	c #fffaaa",
"2x	c #fde74d",
"2y	c #fde752",
"2z	c #fddf25",
"30	c #fbd100",
"31	c #fccf01",
"32	c #ffd301",
"33	c #ce5d08",
"34	c #ac320d",
"35	c #d18458",
"36	c #cd7b52",
"37	c #e6bfa9",
"38	c #fdf6b2",
"39	c #ffec52",
"3a	c #fee64e",
"3b	c #fee555",
"3c	c #fcd612",
"3d	c #fbce00",
"3e	c #fccd01",
"3f	c #fecc00",
"3g	c #f8bb03",
"3h	c #a72a0d",
"3i	c #ce7e4f",
"3j	c #d28962",
"3k	c #e8c7a9",
"3l	c #fdf2a2",
"3m	c #ffed52",
"3n	c #fde746",
"3o	c #fee64c",
"3p	c #fee458",
"3q	c #fccb00",
"3r	c #fdc901",
"3s	c #fcc801",
"3t	c #ffce00",
"3u	c #d08152",
"3v	c #efdbd4",
"3w	c #fff9ac",
"3x	c #ffe941",
"3y	c #fde748",
"3z	c #fee44d",
"40	c #fee251",
"41	c #fedc3b",
"42	c #fcc800",
"43	c #fcc701",
"44	c #fcc601",
"45	c #fec701",
"46	c #f1a205",
"47	c #eedad3",
"48	c #ffec5e",
"49	c #ffe84b",
"4a	c #ffe54f",
"4b	c #fee14f",
"4c	c #fed727",
"4d	c #fcc500",
"4e	c #fcc401",
"4f	c #fdc501",
"4g	c #fdc201",
"4h	c #fec401",
"4i	c #f19f05",
"4j	c #d28866",
"4k	c #e7b663",
"4l	c #fbe150",
"4m	c #ffe74e",
"4n	c #ffe251",
"4o	c #fedf54",
"4p	c #fdcd16",
"4q	c #fdc300",
"4r	c #fdc301",
"4s	c #fdc101",
"4t	c #ffc500",
"4u	c #d0845a",
"4v	c #cd7e5c",
"4w	c #e3ad59",
"4x	c #fde050",
"4y	c #ffe54d",
"4z	c #ffde4d",
"50	c #fede4e",
"51	c #fedc4f",
"52	c #fedd55",
"53	c #fdc70d",
"54	c #fdc100",
"55	c #fdbb01",
"56	c #febb01",
"57	c #f9a606",
"58	c #a72c0d",
"59	c #cd7e5b",
"5a	c #e2ab63",
"5b	c #ffe667",
"5c	c #feda4c",
"5d	c #feda4f",
"5e	c #fedc57",
"5f	c #fdba00",
"5g	c #fdbc01",
"5h	c #fdb802",
"5i	c #fdb603",
"5j	c #ffb902",
"5k	c #cd5409",
"5l	c #cd7a50",
"5m	c #fefaf0",
"5n	c #fed844",
"5o	c #fed84f",
"5p	c #feda58",
"5q	c #fdb700",
"5r	c #fdb303",
"5s	c #fdb203",
"5t	c #fdb003",
"5u	c #fdaf03",
"5v	c #feb004",
"5w	c #fea905",
"5x	c #ac330d",
"5y	c #ce7d4e",
"5z	c #f9eddd",
"60	c #ffd645",
"61	c #fed853",
"62	c #fed039",
"63	c #fdb400",
"64	c #ffb502",
"65	c #fcaa03",
"66	c #ffbb02",
"67	c #ffb503",
"68	c #ffb203",
"69	c #ffad03",
"6a	c #ffb101",
"6b	c #d86009",
"6c	c #f0dfdf",
"6d	c #ffd545",
"6e	c #fed655",
"6f	c #fecf3c",
"6g	c #feb100",
"6h	c #e27108",
"6i	c #a5290d",
"6j	c #a62a0b",
"6k	c #c45822",
"6l	c #c95714",
"6m	c #dc6d07",
"6n	c #eb8d11",
"6o	c #f69e10",
"6p	c #ffa705",
"6q	c #a9310d",
"6r	c #edd8d2",
"6s	c #ffe179",
"6t	c #fed252",
"6u	c #ffcc3c",
"6v	c #ffb100",
"6w	c #cd510b",
"6x	c #a8300d",
"6y	c #a9300c",
"6z	c #a92f0c",
"70	c #a9300d",
"71	c #ae370c",
"72	c #ddae91",
"73	c #ffe588",
"74	c #ffd050",
"75	c #ffd13c",
"76	c #cd4f05",
"77	c #a9320c",
"78	c #d79974",
"79	c #fff6cd",
"7a	c #ffd24c",
"7b	c #da8944",
"7c	c #a82d06",
"7d	c #d18455",
"7e	c #fffff5",
"7f	c #e29a50",
"7g	c #cd7b4f",
"7h	c #d1855a",
"                      3u0p                      ",
"                    3i3v470q                    ",
"                    3j3w484j                    ",
"                  353k3x494k4u                  ",
"                  363l3y4a4l4v                  ",
"                2t373m3z++4m4w                  ",
"                2u383nXX++4n4x59                ",
"        1e0b252k2v393oXX0m..4y5a5l5y0b0p        ",
"090z13181f1q262l2w0gXX++4b074z5b5m5z6c6r72787d09",
"0x1014191g1r272m0g0hXX++..07505c5n606d6s73797e0q",
"0y11151a1h1s28//2x3aXX0m..07515d5o616e6t747a7f7h",
"  12161b1i1t0c//0hXX++40..4o525e5p626f6u757b7g  ",
"    171c1j1u//0c2y3b3p414c4p535f5q636g6v767c    ",
"      1d1k1v292n2z3c3q424d4q545g||0v0w6w77      ",
"        1l1w2a2o303d0i0k0n4r0r0s||646h6x        ",
"          1x2b2p0e060j434e4s08||0v656i          ",
"          1y2c0d0f3e3r444f0r555h5r666j          ",
"          1z2d0d310i0k0n4g080s5i5s0w6k          ",
"          202e0e060j3s454h08||0t5t676l          ",
"        1m212f0f063f3t464i4t560t5u686m          ",
"        0a222g2q323g0l0o0o0l575j5v696n6y        ",
"        1n232h2r333h        585k5w6a6o6z        ",
"        1o242i2s34            0u5x6b6p70        ",
"        1p0a2j                    0u6q71        "};