/* XPM */
static char * xpm_female_symbol[] = {
"24 24 186 2",
"  	c None",
"XX	c #dc2859",
"++	c #fccbd6",
"..	c #dc2a5b",
"||	c #fbc7d3",
"//	c #f992aa",
"06	c #fa93a9",
"07	c #dd2c5c",
"08	c #fcd8e0",
"09	c #e43664",
"0a	c #f9b7c8",
"0b	c #f98ca5",
"0c	c #ea4573",
"0d	c #f9809a",
"0e	c #f25a7f",
"0f	c #f76185",
"0g	c #fbcad6",
"0h	c #f36689",
"0i	c #f36d8e",
"0j	c #f8a4b9",
"0k	c #f986a1",
"0l	c #f887a3",
"0m	c #fccfd9",
"0n	c #f67f9e",
"0o	c #f8829e",
"0p	c #f991a9",
"0q	c #f35e82",
"0r	c #fcccd6",
"0s	c #f97390",
"0t	c #f25b80",
"0u	c #fcc9d5",
"0v	c #f0537b",
"0w	c #f27898",
"0x	c #f2799a",
"0y	c #f17a9a",
"0z	c #ee547a",
"10	c #ea3c66",
"11	c #f35e84",
"12	c #f9b8c9",
"13	c #fdd9e0",
"14	c #fdd8df",
"15	c #fdcfd7",
"16	c #fcc7d4",
"17	c #faa3b5",
"18	c #f8a3b7",
"19	c #ee5c82",
"1a	c #e63966",
"1b	c #f56e90",
"1c	c #fddce2",
"1d	c #fcd5de",
"1e	c #fcc7d3",
"1f	c #fbc8d5",
"1g	c #fcb3c3",
"1h	c #fa96ac",
"1i	c #f57494",
"1j	c #e53662",
"1k	c #e12d5b",
"1l	c #ed648b",
"1m	c #e23766",
"1n	c #f66286",
"1o	c #fcd3db",
"1p	c #fccad5",
"1q	c #fcc7d2",
"1r	c #f6a2b8",
"1s	c #f27c9d",
"1t	c #f05b82",
"1u	c #f47092",
"1v	c #f991a7",
"1w	c #fa8fa7",
"1x	c #f36b8d",
"1y	c #eb5c84",
"1z	c #fc9aae",
"20	c #f3688b",
"21	c #fab2c3",
"22	c #f26488",
"23	c #ea406a",
"24	c #f7849f",
"25	c #ef6c91",
"26	c #fcdce3",
"27	c #eb4771",
"28	c #f98ca6",
"29	c #f888a1",
"2a	c #e33362",
"2b	c #ef6a8f",
"2c	c #f785a1",
"2d	c #fcdbe2",
"2e	c #fccdd7",
"2f	c #f37f9d",
"2g	c #f887a1",
"2h	c #e74671",
"2i	c #e64975",
"2j	c #f07a9b",
"2k	c #f97f9b",
"2l	c #f35d81",
"2m	c #e33969",
"2n	c #e4416f",
"2o	c #dc285c",
"2p	c #fcd4dc",
"2q	c #f17a9b",
"2r	c #f88ba3",
"2s	c #fa89a3",
"2t	c #fa97ae",
"2u	c #f97791",
"2v	c #f86b8b",
"2w	c #f97795",
"2x	c #f9839f",
"2y	c #fb7a99",
"2z	c #de285a",
"30	c #fcd5dc",
"31	c #f1799a",
"32	c #f994ab",
"33	c #f9809b",
"34	c #f87b96",
"35	c #f87593",
"36	c #f8708d",
"37	c #f86c8c",
"38	c #f96688",
"39	c #f96184",
"3a	c #f95d7f",
"3b	c #de295b",
"3c	c #f786a0",
"3d	c #fcd5dd",
"3e	c #fccdd8",
"3f	c #f48ca8",
"3g	c #f88aa3",
"3h	c #e8416d",
"3i	c #e6406d",
"3j	c #ef587e",
"3k	c #f9728e",
"3l	c #e33465",
"3m	c #e33565",
"3n	c #db2759",
"3o	c #fdd5dd",
"3p	c #ea4673",
"3q	c #faacbc",
"3r	c #f886a1",
"3s	c #e33461",
"3t	c #ed5178",
"3u	c #f9b0c3",
"3v	c #fcced8",
"3w	c #fcccd7",
"3x	c #f26387",
"3y	c #ea3f6a",
"3z	c #f8aabe",
"40	c #fa92aa",
"41	c #f98ba4",
"42	c #ed5279",
"43	c #f55d81",
"44	c #fcd2da",
"45	c #fccbd5",
"46	c #f7adc0",
"47	c #f482a1",
"48	c #f05d82",
"49	c #f58ba8",
"4a	c #fab9c7",
"4b	c #fa9ab0",
"4c	c #fa8da6",
"4d	c #f36a8d",
"4e	c #ea4972",
"4f	c #fa7691",
"4g	c #f56f91",
"4h	c #fcc8d4",
"4i	c #fbcfd8",
"4j	c #fbabbc",
"4k	c #f99fb3",
"4l	c #f46d8f",
"4m	c #e53762",
"4n	c #e13060",
"4o	c #ec4d76",
"4p	c #e13262",
"4q	c #f35f85",
"4r	c #f8afc1",
"4s	c #fcc8d3",
"4t	c #fbcbd6",
"4u	c #fbc9d6",
"4v	c #fbadbf",
"4w	c #fb99ae",
"4x	c #f88da7",
"4y	c #ed557c",
"4z	c #e73967",
"50	c #f0547c",
"51	c #f27496",
"52	c #f27597",
"53	c #f06588",
"54	c #ed4e76",
"55	c #ea3e67",
"                  0f2c0l0l3c0f                  ",
"              1n21262d2p303d3o3u43              ",
"            1b0808++2e0m0m3e0r3v444g            ",
"          111c1o++0g0j0n0n0j0g3w++0u4q          ",
"          121d1p0a0h        0h0a450r4r          ",
"        0v131e1q22            3x0u4h4s50        ",
"        0w14||1r                46||4t51        ",
"        0x151f1s                474i4u52        ",
"        0y161g1t                484j4v53        ",
"        0z171h1u                494k4w54        ",
"        1018////23            3y4a0p4x55        ",
"          19061v2427        3p3z4b064y          ",
"          1a1i1w0b282f2q313f3q404c4l4z          ",
"            1j1x0b292g2r323g3r414d4m            ",
"              090c0i0k0o0o0k0i0c09              ",
"                  2a2h2s333h3s                  ",
"                    2i2t343i                    ",
"            1k1y252b2j0p353j3t424e4n            ",
"            1l1z0d0d2k2u363k0s0s4f4o            ",
"            1m200e0e2l2v370q0t0t0q4p            ",
"            07XXXXXX2m2w383l......07            ",
"                    2n2x393m                    ",
"                    2o2y3a3n                    ",
"                      2z3b                      "};