/* XPM */
static char * xpm_female[] = {
"24 24 263 2",
"  	c None",
"XX	c #2c2e31",
"++	c #f32c1e",
"..	c #f33822",
"||	c #44464d",
"//	c #f2201a",
"06	c #f44128",
"07	c #f54c2f",
"08	c #fa1718",
"09	c #fcb43e",
"0a	c #9b0003",
"0b	c #f44027",
"0c	c #45474e",
"0d	c #fdbd49",
"0e	c #2b2e31",
"0f	c #383a3f",
"0g	c #313439",
"0h	c #2d2e31",
"0i	c #f3201b",
"0j	c #44444d",
"0k	c #980002",
"0l	c #3b3d42",
"0m	c #f54b2e",
"0n	c #ffe89e",
"0o	c #ffe295",
"0p	c #f91718",
"0q	c #ffd35e",
"0r	c #f81718",
"0s	c #fcaa35",
"0t	c #d10005",
"0u	c #cf0e15",
"0v	c #c71017",
"0w	c #c71f22",
"0x	c #c9292d",
"0y	c #a30000",
"0z	c #e2040d",
"10	c #eb4d4e",
"11	c #f48f85",
"12	c #fea995",
"13	c #fd8e77",
"14	c #fc7a6a",
"15	c #ff746d",
"16	c #be1317",
"17	c #2d2b30",
"18	c #fa0008",
"19	c #f3706f",
"1a	c #feb398",
"1b	c #f97758",
"1c	c #f53d23",
"1d	c #f2311a",
"1e	c #f22618",
"1f	c #f41b15",
"1g	c #d70a0d",
"1h	c #45474d",
"1i	c #3e4046",
"1j	c #13272b",
"1k	c #ff6e6e",
"1l	c #fdb9a0",
"1m	c #f75d3b",
"1n	c #f5472a",
"1o	c #e51113",
"1p	c #9a0003",
"1q	c #3d3f44",
"1r	c #36383d",
"1s	c #282c35",
"1t	c #1d212a",
"1u	c #1a1f27",
"1v	c #1a1f28",
"1w	c #1d232a",
"1x	c #24282e",
"1y	c #2a2d30",
"1z	c #242b2e",
"20	c #5f3d42",
"21	c #ffbaa3",
"22	c #f86544",
"23	c #f65232",
"24	c #fb1719",
"25	c #43454c",
"26	c #292d37",
"27	c #6d634f",
"28	c #d5be84",
"29	c #ffe1a2",
"2a	c #ffdd9c",
"2b	c #d4b17f",
"2c	c #7a6757",
"2d	c #222831",
"2e	c #1c2327",
"2f	c #fa9893",
"2g	c #fc8065",
"2h	c #f75937",
"2i	c #f65434",
"2j	c #41434a",
"2k	c #31343c",
"2l	c #7f785e",
"2m	c #fffba8",
"2n	c #ffe898",
"2o	c #ffde8c",
"2p	c #ffd986",
"2q	c #ffc44f",
"2r	c #ffbf46",
"2s	c #ffd27f",
"2t	c #d6824d",
"2u	c #f58b18",
"2v	c #fda33e",
"2w	c #f97541",
"2x	c #f54b32",
"2y	c #990002",
"2z	c #3e4048",
"30	c #464747",
"31	c #ffffb5",
"32	c #ffdd8d",
"33	c #ffd379",
"34	c #fdbb45",
"35	c #fcb33c",
"36	c #fda72d",
"37	c #ffc46e",
"38	c #d16127",
"39	c #fdbb3e",
"3a	c #ffdc63",
"3b	c #fcaf5a",
"3c	c #f44029",
"3d	c #9f0003",
"3e	c #3b3e46",
"3f	c #686558",
"3g	c #ffffb2",
"3h	c #ffdd8f",
"3i	c #fecb5f",
"3j	c #fdbc48",
"3k	c #fca934",
"3l	c #fea22a",
"3m	c #e49c60",
"3n	c #eb942f",
"3o	c #fef284",
"3p	c #f8914f",
"3q	c #f43b25",
"3r	c #b20207",
"3s	c #3c3d43",
"3t	c #484948",
"3u	c #c5b77d",
"3v	c #fff5a6",
"3w	c #ffe396",
"3x	c #ffdd92",
"3y	c #fec64b",
"3z	c #fda129",
"40	c #f6aa4d",
"41	c #d87424",
"42	c #ffd45e",
"43	c #fdec80",
"44	c #f9ae61",
"45	c #f33924",
"46	c #b40207",
"47	c #44454c",
"48	c #3d3e42",
"49	c #32353b",
"4a	c #1c212e",
"4b	c #8a7b59",
"4c	c #ffee9d",
"4d	c #ffdb82",
"4e	c #fec64d",
"4f	c #ffa62c",
"4g	c #cf5815",
"4h	c #e89232",
"4i	c #fef384",
"4j	c #f7703f",
"4k	c #f43d26",
"4l	c #a00003",
"4m	c #43434b",
"4n	c #35373c",
"4o	c #2e3035",
"4p	c #131926",
"4q	c #fee193",
"4r	c #ffd97a",
"4s	c #fec64e",
"4t	c #feac35",
"4u	c #ffa42d",
"4v	c #a7300e",
"4w	c #ffc445",
"4x	c #ffdb62",
"4y	c #fcba61",
"4z	c #f4412a",
"50	c #44474e",
"51	c #42424a",
"52	c #3a3c41",
"53	c #34363b",
"54	c #2d2e35",
"55	c #22262d",
"56	c #8d7b59",
"57	c #ffe67e",
"58	c #ffcb50",
"59	c #ffc34a",
"5a	c #ffbd3f",
"5b	c #ffb137",
"5c	c #a83a13",
"5d	c #ea8823",
"5e	c #ffb243",
"5f	c #fa8a49",
"5g	c #f54a31",
"5h	c #3f4148",
"5i	c #393b40",
"5j	c #32353a",
"5k	c #2c2e34",
"5l	c #2a2c30",
"5m	c #2b2e33",
"5n	c #a38552",
"5o	c #e6ae4c",
"5p	c #9a713b",
"5q	c #7d5a37",
"5r	c #222a30",
"5s	c #36222c",
"5t	c #ff4937",
"5u	c #f85f40",
"5v	c #f75c3b",
"5w	c #f65435",
"5x	c #f3201a",
"5y	c #f51617",
"5z	c #9e0004",
"60	c #3f4044",
"61	c #292d30",
"62	c #22262e",
"63	c #1d242e",
"64	c #212730",
"65	c #242930",
"66	c #292d31",
"67	c #1d2f32",
"68	c #b22526",
"69	c #fe6c43",
"6a	c #f7603d",
"6b	c #f65535",
"6c	c #e71113",
"6d	c #a10004",
"6e	c #303238",
"6f	c #2b2d31",
"6g	c #212f32",
"6h	c #98181f",
"6i	c #f9211f",
"6j	c #f86941",
"6k	c #f65636",
"6l	c #f5211b",
"6m	c #db0d10",
"6n	c #a30005",
"6o	c #1e3033",
"6p	c #f0060f",
"6q	c #ed231f",
"6r	c #f75735",
"6s	c #f65132",
"6t	c #f54229",
"6u	c #f33922",
"6v	c #f6211b",
"6w	c #c6090b",
"6x	c #e60911",
"6y	c #e30910",
"6z	c #e7231d",
"70	c #ef3223",
"71	c #f73e24",
"72	c #f72f1f",
"73	c #f7221a",
"74	c #b20209",
"75	c #db070f",
"76	c #d1070d",
"77	c #cb040c",
"78	c #c5070d",
"79	c #c70a0d",
"7a	c #b30308",
"                ||||||||||||||500c              ",
"              ||||||0c0c0j474m515h60            ",
"            1h0j252j2z3e3s480l525i0f            ",
"            1i1q0l2k303f3t494n535j0g6e          ",
"            0f1r262l313g3u4a4o545k0h6f          ",
"            0g1s272m0n0n3v4b4p555lXXXX          ",
"            0h1t282n0o0o3w4c4q565m61XX          ",
"            XX1u292o323h3x4d4r575n62XX          ",
"            XX1v2a2p333i3y4e4s585o63            ",
"            XX1w2b2q343j0d0d0d595p64XX          ",
"          XXXX1x2c2r35090909095a5q65XXXX        ",
"          XXXX1y2d2s363k0s0s4t5b5r66XXXX        ",
"          0e0e1z2e2t373l3z4f4u5c5s676g6o        ",
"          171j202f2u383m404g4v5d5t686h          ",
"          181k212g2v393n414h4w5e5u696i6p        ",
"        0z191l222h2w3a0q420q4x5f5v6a6j6q6x      ",
"        101a1m232i2x3b3o434i4y5g5w6b6k6r6y      ",
"      0t111b1n07070m3c3p444j4z0m0707076s6z75    ",
"      0u121c0b0606060b3q454k0b060606066t7076    ",
"      0v131d..........................6u7177    ",
"      0w141e++++++++++++++++++++++++++++7278    ",
"      0x151f0i//////////////////5x0i6l6v7379    ",
"      0y161g1o2408080p0r0r0p08085y6c6m6w747a    ",
"          0a1p0k0k2y3d3r464l0a0a5z6d6n          "};