/* XPM */
static char * xpm_filter[] = {
"24 24 221 2",
"  	c None",
"XX	c #5cbaeb",
"++	c #5fbfed",
"..	c #ffffff",
"||	c #5dbceb",
"//	c #5ebceb",
"06	c #5bb9eb",
"07	c #1f94db",
"08	c #46ace5",
"09	c #44aae5",
"0a	c #51b5ea",
"0b	c #53b6eb",
"0c	c #fffffe",
"0d	c #1791da",
"0e	c #5ebeed",
"0f	c #67c5f0",
"0g	c #72cbf2",
"0h	c #389fdf",
"0i	c #53b7ea",
"0j	c #60b8e6",
"0k	c #64b5e4",
"0l	c #4bb1e3",
"0m	c #76bee5",
"0n	c #2b8fd8",
"0o	c #108cd7",
"0p	c #74c1e7",
"0q	c #288bd5",
"0r	c #148fd8",
"0s	c #8dd8f6",
"0t	c #9bd3ef",
"0u	c #318fd5",
"0v	c #1791d9",
"0w	c #d7eaf3",
"0x	c #87d4f3",
"0y	c #89d5f5",
"0z	c #b2e0f4",
"10	c #2a8ad1",
"11	c #d7e9f2",
"12	c #fffefa",
"13	c #9fd9f5",
"14	c #71cdf3",
"15	c #75ccf2",
"16	c #c3e7f9",
"17	c #3c96d5",
"18	c #d5e7ef",
"19	c #fffcf8",
"1a	c #9bd7f4",
"1b	c #72ccf2",
"1c	c #71caf1",
"1d	c #67c5ef",
"1e	c #abdef5",
"1f	c #61adde",
"1g	c #2277c6",
"1h	c #1891da",
"1i	c #d3e6ee",
"1j	c #fff8f6",
"1k	c #bae0f3",
"1l	c #6fcbf2",
"1m	c #71c9f1",
"1n	c #6cc6f0",
"1o	c #61c2ed",
"1p	c #91d4f2",
"1q	c #79bae2",
"1r	c #4797d3",
"1s	c #4492d1",
"1t	c #428fce",
"1u	c #3f8bcc",
"1v	c #3d88c9",
"1w	c #3d85c7",
"1x	c #3c83c5",
"1y	c #3980c4",
"1z	c #367ec1",
"20	c #3479bf",
"21	c #337cbf",
"22	c #1c5dae",
"23	c #1d94da",
"24	c #94cfe6",
"25	c #fff8f3",
"26	c #c0e1f2",
"27	c #6dc8f1",
"28	c #6fc8f0",
"29	c #6ac5ef",
"2a	c #65c2ed",
"2b	c #5fbdec",
"2c	c #69c1ed",
"2d	c #76c7ee",
"2e	c #70c6ee",
"2f	c #6ac3ed",
"2g	c #65c1eb",
"2h	c #5fbdea",
"2i	c #5ab9e8",
"2j	c #51b5e7",
"2k	c #4ab2e5",
"2l	c #41aee3",
"2m	c #3babe4",
"2n	c #36a7e2",
"2o	c #1652a5",
"2p	c #7cc3e3",
"2q	c #fef5f0",
"2r	c #bddff1",
"2s	c #6cc7f1",
"2t	c #6ec7f0",
"2u	c #68c4ef",
"2v	c #64beed",
"2w	c #60beeb",
"2x	c #51b8ea",
"2y	c #4fb3e8",
"2z	c #49b1e6",
"30	c #42ace5",
"31	c #3da8e3",
"32	c #36a4e2",
"33	c #309fe0",
"34	c #299dde",
"35	c #2397dd",
"36	c #1d95dd",
"37	c #1874c6",
"38	c #7bc3e1",
"39	c #fcf2ee",
"3a	c #bbddef",
"3b	c #6bc6f0",
"3c	c #6bc5ef",
"3d	c #69c5ef",
"3e	c #66c1ed",
"3f	c #5bbbea",
"3g	c #40a0dd",
"3h	c #3b97db",
"3i	c #3594d8",
"3j	c #3190d6",
"3k	c #2d8cd6",
"3l	c #2987d2",
"3m	c #2683d1",
"3n	c #207ecc",
"3o	c #1d7ac9",
"3p	c #1876c8",
"3q	c #1473c4",
"3r	c #1955a7",
"3s	c #77c1e0",
"3t	c #f9f0ec",
"3u	c #badcee",
"3v	c #6bc8f1",
"3w	c #70caf2",
"3x	c #50aee6",
"3y	c #3b96da",
"3z	c #277dce",
"40	c #267acf",
"41	c #2474c8",
"42	c #2070c5",
"43	c #1e6bc1",
"44	c #1b67bd",
"45	c #1861bb",
"46	c #155db7",
"47	c #125ab4",
"48	c #0f56b0",
"49	c #0d53ac",
"4a	c #0c4096",
"4b	c #1b5daf",
"4c	c #1a93db",
"4d	c #cbdee6",
"4e	c #f9eeea",
"4f	c #add8ec",
"4g	c #45abe5",
"4h	c #328fd9",
"4i	c #2e87d7",
"4j	c #2d85d3",
"4k	c #2a81d1",
"4l	c #2b82ce",
"4m	c #348ed1",
"4n	c #3187cf",
"4o	c #2e86cc",
"4p	c #2b7ec9",
"4q	c #297bc7",
"4r	c #2779c5",
"4s	c #2476c2",
"4t	c #2272c0",
"4u	c #1f70bf",
"4v	c #1d62b4",
"4w	c #1c94db",
"4x	c #a3cbdf",
"4y	c #aec8da",
"4z	c #3f99db",
"50	c #3191db",
"51	c #328dd9",
"52	c #2f87d5",
"53	c #3088d5",
"54	c #3691d4",
"55	c #2b7dc9",
"56	c #2197dc",
"57	c #6aafd5",
"58	c #94bdd4",
"59	c #479fdb",
"5a	c #3392dc",
"5b	c #308bd7",
"5c	c #3894db",
"5d	c #348fd3",
"5e	c #2296dc",
"5f	c #68b0d4",
"5g	c #96bad2",
"5h	c #3997db",
"5i	c #308fdb",
"5j	c #48a6e1",
"5k	c #338ed3",
"5l	c #1f97dc",
"5m	c #8bb7d1",
"5n	c #91b6ce",
"5o	c #3397e1",
"5p	c #4fade5",
"5q	c #328bd4",
"5r	c #1c95dc",
"5s	c #8db5ce",
"5t	c #93bed8",
"5u	c #47aae5",
"5v	c #3290d6",
"5w	c #5ebcec",
"5x	c #319eda",
"5y	c #ccd0d5",
"5z	c #5caddd",
"60	c #3194da",
"61	c #55b9ea",
"62	c #54adde",
"63	c #4da6dd",
"64	c #39a1df",
"      090a0b++++++0e0f0g0g0f0e++++++0b0a09      ",
"  080iXX||//||XXXXXXXX0606XXXXXXXX||////5w6108  ",
"  0h0j0l0o0r0v0d0d1h230707074c4w565e5l5r5x6264  ",
"    0k....0c0w11181i242p383s4d4x575f5m5s5y63    ",
"      0m....0c12191j252q393t4e4y585g5n5t5z      ",
"      0n0p0s0x131a1k262r3a3u4f4z595h5o5u60      ",
"        0q0t0y141b1l272s3b3v4g505a5i5p5v        ",
"          0u0z151c1m282t3c3w4h515b5j5q          ",
"            10161d1n292u3d3x4i525c5k            ",
"              171e1o2a2v3e3y4j535d              ",
"                1f1p2b2w3f3z4k54                ",
"                1g1q2c063g404l55                ",
"                  1r2d2x3h414m                  ",
"                  1s2e2y3i424n                  ",
"                  1t2f2z3j434o                  ",
"                  1u2g303k444p                  ",
"                  1v2h313l454q                  ",
"                  1w2i323m464r                  ",
"                  1x2j333n474s                  ",
"                  1y2k343o484t                  ",
"                  1z2l353p494u                  ",
"                  202m363q4a4v                  ",
"                  212n373r4b                    ",
"                  222o                          "};