/* XPM */
static char * xpm_first_record[] = {
"24 24 278 2",
"  	c None",
"XX	c #ffffff",
"++	c #7ecdf3",
"..	c #63b4e3",
"||	c #7bcaf2",
"//	c #7fc3e7",
"06	c #77c7f1",
"07	c #81cff5",
"08	c #77bde8",
"09	c #6ab7e5",
"0a	c #59aee1",
"0b	c #72c3f0",
"0c	c #2163ae",
"0d	c #2065af",
"0e	c #1e64ae",
"0f	c #2a73b8",
"0g	c #2674bf",
"0h	c #2c79c2",
"0i	c #3180c6",
"0j	c #1b5aa6",
"0k	c #2a6db2",
"0l	c #5a9ace",
"0m	c #7fbce2",
"0n	c #81c5eb",
"0o	c #87c9ee",
"0p	c #8cccf1",
"0q	c #97d2f4",
"0r	c #70bdea",
"0s	c #54a8e0",
"0t	c #3f92d2",
"0u	c #3587cc",
"0v	c #1b5aa4",
"0w	c #1c5da6",
"0x	c #61a1d0",
"0y	c #98cced",
"0z	c #8cc9ec",
"10	c #75bce8",
"11	c #7bbfe9",
"12	c #7fc2ea",
"13	c #89c7ee",
"14	c #6bbcea",
"15	c #61b5ea",
"16	c #6abeed",
"17	c #71c4f1",
"18	c #66b9e9",
"19	c #3b93d3",
"1a	c #3b91d3",
"1b	c #1752a0",
"1c	c #296daf",
"1d	c #78b7dd",
"1e	c #96d1ee",
"1f	c #85c7ec",
"1g	c #68baec",
"1h	c #5eb6eb",
"1i	c #68bbee",
"1j	c #6dc2f0",
"1k	c #72c6f3",
"1l	c #7bcdf6",
"1m	c #3c94d6",
"1n	c #17539c",
"1o	c #2669af",
"1p	c #3f99da",
"1q	c #18559f",
"1r	c #6bafd9",
"1s	c #429edc",
"1t	c #104b98",
"1u	c #5296cc",
"1v	c #74c6f0",
"1w	c #3e9cdd",
"1x	c #1f60a8",
"1y	c #71b6dd",
"1z	c #7dc3e7",
"20	c #7ec1e7",
"21	c #87d3f7",
"22	c #4faae4",
"23	c #114d99",
"24	c #4187c1",
"25	c #78c2e5",
"26	c #7dc2e7",
"27	c #7fcef5",
"28	c #84d1f6",
"29	c #6cc0ed",
"2a	c #43a0e1",
"2b	c #0f4a97",
"2c	c #5ea6d3",
"2d	c #7ac2e6",
"2e	c #7ec2e7",
"2f	c #82d0f6",
"2g	c #80cff3",
"2h	c #41a1e1",
"2i	c #0d4996",
"2j	c #6db4db",
"2k	c #78c1e5",
"2l	c #50acde",
"2m	c #89d4f5",
"2n	c #409fe0",
"2o	c #16549e",
"2p	c #73bbe2",
"2q	c #78c0e5",
"2r	c #4eabde",
"2s	c #5aafe1",
"2t	c #89d2f5",
"2u	c #47a7e4",
"2v	c #2f79c0",
"2w	c #6ebbe6",
"2x	c #7dc1ea",
"2y	c #7fcff8",
"2z	c #4ca4dd",
"30	c #7abce1",
"31	c #7abee9",
"32	c #6bb5e3",
"33	c #5caadf",
"34	c #5da7dd",
"35	c #5ca3da",
"36	c #5ba1d5",
"37	c #4692cd",
"38	c #1c73bd",
"39	c #1e6fbb",
"3a	c #1c69b7",
"3b	c #1b66b5",
"3c	c #1764b1",
"3d	c #1762af",
"3e	c #266fb4",
"3f	c #80d0f6",
"3g	c #4ea6e0",
"3h	c #83c5eb",
"3i	c #66b5e7",
"3j	c #003d91",
"3k	c #5fb1e3",
"3l	c #85d2f6",
"3m	c #7dc4e6",
"3n	c #80c2e9",
"3o	c #65b4e6",
"3p	c #003f93",
"3q	c #60b2e3",
"3r	c #83d1f5",
"3s	c #6cb8e8",
"3t	c #c6e0f1",
"3u	c #bcdaed",
"3v	c #bcd9ec",
"3w	c #bcd6ec",
"3x	c #99c3e3",
"3y	c #98c2e2",
"3z	c #97c0e0",
"40	c #93badb",
"41	c #90b7d8",
"42	c #8db1d4",
"43	c #8bafd1",
"44	c #94b5d5",
"45	c #023d91",
"46	c #68bae7",
"47	c #80cff4",
"48	c #6cbce4",
"49	c #5fb1e1",
"4a	c #5fb2e2",
"4b	c #62b3e3",
"4c	c #69b4e3",
"4d	c #5fb0e1",
"4e	c #3694d6",
"4f	c #1a6ebb",
"4g	c #2572bb",
"4h	c #3e94d3",
"4i	c #4ba1dd",
"4j	c #4da3dd",
"4k	c #4ea5dd",
"4l	c #53a6df",
"4m	c #63b6e7",
"4n	c #7ecef3",
"4o	c #5bb0e0",
"4p	c #58aee1",
"4q	c #73bde7",
"4r	c #5db1e6",
"4s	c #2e8acf",
"4t	c #a4c8e5",
"4u	c #c6d9ec",
"4v	c #2572bc",
"4w	c #69bef0",
"4x	c #6abfed",
"4y	c #6ec1ef",
"4z	c #75c6f1",
"50	c #79c9f2",
"51	c #7ccaf2",
"52	c #73bee7",
"53	c #4ca3dd",
"54	c #3586c9",
"55	c #387dbc",
"56	c #4c9fda",
"57	c #6bbfee",
"58	c #6cbfee",
"59	c #74bee7",
"5a	c #338bce",
"5b	c #c0d7ed",
"5c	c #dde9f1",
"5d	c #135ead",
"5e	c #68bced",
"5f	c #6dc0ef",
"5g	c #6bb8e6",
"5h	c #6cb3e3",
"5i	c #68aada",
"5j	c #568fc6",
"5k	c #3c8ccc",
"5l	c #6fc4f1",
"5m	c #69b6e4",
"5n	c #5da8dd",
"5o	c #e6f1f7",
"5p	c #fcfbfc",
"5q	c #0850a3",
"5r	c #66baec",
"5s	c #73c4f1",
"5t	c #5bb1e0",
"5u	c #66b2e2",
"5v	c #a6cceb",
"5w	c #90b5d7",
"5x	c #2b77be",
"5y	c #78caf5",
"5z	c #78c8f1",
"60	c #6ebce4",
"61	c #57aee0",
"62	c #61b3e3",
"63	c #6fb3e3",
"64	c #fbfcfe",
"65	c #1c5da8",
"66	c #5aace2",
"67	c #7acaf3",
"68	c #54ace0",
"69	c #64b4e4",
"6a	c #bfdcf0",
"6b	c #b3cce3",
"6c	c #1158a7",
"6d	c #80d1f8",
"6e	c #7ccbf3",
"6f	c #7cc4e6",
"6g	c #84c3e8",
"6h	c #6ebbe5",
"6i	c #7cbce9",
"6j	c #3e78b6",
"6k	c #4b9ed6",
"6l	c #80cef4",
"6m	c #86c6ea",
"6n	c #75bde9",
"6o	c #bfdff2",
"6p	c #ecf3fa",
"6q	c #e7eff8",
"6r	c #e6f0f7",
"6s	c #e5f0f6",
"6t	c #dbe8f2",
"6u	c #d8e7f1",
"6v	c #d8e6f1",
"6w	c #d7e4f0",
"6x	c #d6e3f0",
"6y	c #dce6f2",
"6z	c #9cbfd9",
"70	c #064494",
"71	c #84d4f9",
"72	c #82d0f5",
"73	c #7bbbe1",
"74	c #7fc3ec",
"75	c #73bae6",
"76	c #63afe2",
"77	c #62acde",
"78	c #60a8dc",
"79	c #60a6d9",
"7a	c #4a95cf",
"7b	c #2277c3",
"7c	c #2373bc",
"7d	c #206db9",
"7e	c #1f6ab6",
"7f	c #1d68b1",
"7g	c #1f66b1",
"7h	c #236bb3",
"7i	c #88d7fa",
"7j	c #4ea5e0",
"7k	c #77bde7",
"7l	c #6dbbe6",
"7m	c #7cc1ea",
"7n	c #7fd0f8",
"7o	c #4ba4dd",
"7p	c #2d75bd",
"                232b2i2o2o2i2b23                ",
"            1t1x242c2j2p2p2j2c241x1t            ",
"        1n1q1u1y252d2k2q2q2k2d251y1u1q1n        ",
"      1b1o1r3m1z262e////////2e261z6f1r1o1b      ",
"    0v1c303h3n20484o2l2r2r2l5t60206g6m731c0v    ",
"    0w1d313i3o3s494p0a2s2s0a0a61686h6n741d0w    ",
"  0j0x1e32XXXX3t4a............62696i6o751e0x0j  ",
"  0k0y0833XXXX3u4b0909095g5m5u636aXX6p767k0y0k  ",
"0c0l0z2w34XXXX3v4c4q52595h5n5v64XXXX6q777l0z0l0c",
"0d0m100835XXXX3w4d4r535a5i5oXXXXXXXX6r7808100m0d",
"0e0n112x36XXXX3x4e4s545bXXXXXXXXXXXX6s797m110n0e",
"0f0o121f37XXXX3y4f4tXXXXXXXXXXXXXXXX6t7a1f120o0f",
"2v0p131g38XXXX3z4g4uXXXXXXXXXXXXXXXX6u7b1g130p7p",
"0g0q141h39XXXX404h4v555cXXXXXXXXXXXX6v7c1h140q0g",
"0h0r151i3aXXXX414i4w565d5j5pXXXXXXXX6w7d1i150r0h",
"0i0s161j3bXXXX424j4x575e5k5q5wXXXXXX6x7e1j160s0i",
"  0t171k3cXXXX434k4y585f5l5r5x656bXX6y7f1k170t  ",
"  0u181l3dXXXX444l4z0b0b0b5s5y666c6j6z7g1l180u  ",
"    192y3e3j3p454m50060606065z676d6k707h7n19    ",
"    1a2z3f3k3q462751||||||||||||6e27717i7o1a    ",
"      1m3g3l3r474n++++++++++++++++6l727j1m      ",
"        1p1s1v21282f070707072f28211v1s1p        ",
"            1w22292g2m2t2t2m2g29221w            ",
"                2a2h2n2u2u2n2h2a                "};