/* XPM */
static char * xpm_first[] = {
"24 24 295 2",
"  	c None",
"XX	c #2ea5e7",
"++	c #003193",
"..	c #4fbef0",
"||	c #47b9ee",
"//	c #40b4ec",
"06	c #35abe9",
"07	c #46b7ed",
"08	c #39afe9",
"09	c #ccefff",
"0a	c #2da7e9",
"0b	c #239fe8",
"0c	c #1d98e3",
"0d	c #1d93e0",
"0e	c #1b8cdd",
"0f	c #1688da",
"0g	c #1781d7",
"0h	c #147bd3",
"0i	c #1376d0",
"0j	c #1071cc",
"0k	c #0e6bc9",
"0l	c #0d67c5",
"0m	c #0b61bf",
"0n	c #0a5cbc",
"0o	c #0958b7",
"0p	c #0950b3",
"0q	c #074cb0",
"0r	c #0547ab",
"0s	c #0542a9",
"0t	c #0440a2",
"0u	c #013ba0",
"0v	c #00389c",
"0w	c #003699",
"0x	c #02399a",
"0y	c #22a2e7",
"0z	c #e1fbff",
"10	c #caf3ff",
"11	c #c7f2ff",
"12	c #c3f2ff",
"13	c #c1f0ff",
"14	c #bceeff",
"15	c #b9edff",
"16	c #b4ecfe",
"17	c #b0eafe",
"18	c #ace8fd",
"19	c #a7e6fd",
"1a	c #a3e3fc",
"1b	c #9ce2fa",
"1c	c #95dff9",
"1d	c #91def7",
"1e	c #89daf8",
"1f	c #82d9f6",
"1g	c #7ad3f4",
"1h	c #71d2f4",
"1i	c #65d0f3",
"1j	c #5cccf1",
"1k	c #58d1f7",
"1l	c #20a1e7",
"1m	c #d7f6ff",
"1n	c #89defc",
"1o	c #72d8f9",
"1p	c #6fd7f9",
"1q	c #6cd4f7",
"1r	c #65cff6",
"1s	c #5eccf5",
"1t	c #5ac8f3",
"1u	c #55c4f2",
"1v	c #39b2eb",
"1w	c #32ace8",
"1x	c #2ba6e7",
"1y	c #259fe5",
"1z	c #219be3",
"20	c #1994e0",
"21	c #138dde",
"22	c #0c8adc",
"23	c #0782da",
"24	c #0284dd",
"25	c #013293",
"26	c #21a1e7",
"27	c #daf8ff",
"28	c #90e1fd",
"29	c #79dbfb",
"2a	c #77d9fa",
"2b	c #73d5f9",
"2c	c #6dd1f8",
"2d	c #66cef7",
"2e	c #62ccf5",
"2f	c #5cc5f4",
"2g	c #54c3f2",
"2h	c #4ebef0",
"2i	c #41b6ed",
"2j	c #3ab1ea",
"2k	c #34aae9",
"2l	c #279ee4",
"2m	c #219ae2",
"2n	c #1a94e0",
"2o	c #148cdc",
"2p	c #0c89db",
"2q	c #068adf",
"2r	c #003292",
"2s	c #25a2e8",
"2t	c #b5ebfd",
"2u	c #73d6f7",
"2v	c #64cef5",
"2w	c #61ccf4",
"2x	c #5dc8f2",
"2y	c #58c5f0",
"2z	c #52c0f0",
"30	c #4fbbee",
"31	c #48b9ed",
"32	c #43b1ea",
"33	c #3dade8",
"34	c #37a7e7",
"35	c #33a4e5",
"36	c #2e9ce3",
"37	c #2a98e1",
"38	c #2594de",
"39	c #218edc",
"3a	c #1b86d8",
"3b	c #1582d6",
"3c	c #0f7cd3",
"3d	c #0a77d1",
"3e	c #0674d2",
"3f	c #003494",
"3g	c #2ea7e9",
"3h	c #249be4",
"3i	c #2295e1",
"3j	c #2291de",
"3k	c #1e8adb",
"3l	c #1f84d8",
"3m	c #1c7ed3",
"3n	c #1b7ad1",
"3o	c #1875cd",
"3p	c #186fca",
"3q	c #166ec8",
"3r	c #1467c5",
"3s	c #1262c1",
"3t	c #125ebb",
"3u	c #1157b6",
"3v	c #0f51b3",
"3w	c #0d4dad",
"3x	c #0c49ac",
"3y	c #0b46a4",
"3z	c #0941a3",
"40	c #073f9f",
"41	c #053b9c",
"42	c #033797",
"43	c #013897",
"44	c #0c4dae",
"45	c #1563bc",
"46	c #2b79c7",
"47	c #0846a9",
"48	c #0e5cbb",
"49	c #9ddaf2",
"4a	c #a9e7f9",
"4b	c #226fc0",
"4c	c #0746a7",
"4d	c #0c5fbd",
"4e	c #7bc1e8",
"4f	c #a1e2f8",
"4g	c #33b0eb",
"4h	c #80d4f3",
"4i	c #185ab6",
"4j	c #0843a5",
"4k	c #0e66c4",
"4l	c #7dc5ea",
"4m	c #a7e4fa",
"4n	c #3eb6ec",
"4o	c #3cb0eb",
"4p	c #2facea",
"4q	c #6cc3eb",
"4r	c #0e4faa",
"4s	c #116dc8",
"4t	c #80c9eb",
"4u	c #bce9fc",
"4v	c #53c0f0",
"4w	c #3fb5ec",
"4x	c #3eb0eb",
"4y	c #35ade9",
"4z	c #2fa8e9",
"50	c #78c9ed",
"51	c #0b4baa",
"52	c #1577ce",
"53	c #84caed",
"54	c #bceafc",
"55	c #56c2f0",
"56	c #43b5ec",
"57	c #41b5ec",
"58	c #3bb0eb",
"59	c #2ea6e7",
"5a	c #28a4e7",
"5b	c #67bbe6",
"5c	c #01399d",
"5d	c #157ad1",
"5e	c #5fb5e4",
"5f	c #c3edfe",
"5g	c #5cc7f3",
"5h	c #4abbef",
"5i	c #47b6ed",
"5j	c #40b6ec",
"5k	c #3aafeb",
"5l	c #2fa5e7",
"5m	c #299fe5",
"5n	c #23a0e5",
"5o	c #63aee0",
"5p	c #003799",
"5q	c #1981d6",
"5r	c #62b8e7",
"5s	c #c3edfc",
"5t	c #63c9f2",
"5u	c #4dbcef",
"5v	c #34a9e8",
"5w	c #29a0e4",
"5x	c #239ae2",
"5y	c #27a4e7",
"5z	c #5dacdd",
"60	c #002e93",
"61	c #1888db",
"62	c #65bde8",
"63	c #6dcef5",
"64	c #54c2f1",
"65	c #52bff0",
"66	c #4cbcef",
"67	c #3fb4ec",
"68	c #33a9e8",
"69	c #299fe4",
"6a	c #2299e2",
"6b	c #1992df",
"6c	c #20a2e4",
"6d	c #3886cb",
"6e	c #002e91",
"6f	c #1f92df",
"6g	c #69c2ec",
"6h	c #81d7f9",
"6i	c #57c7f3",
"6j	c #55c3f1",
"6k	c #53bcf0",
"6l	c #4abbee",
"6m	c #44b6ed",
"6n	c #3fb1ec",
"6o	c #38ade9",
"6p	c #33a8e8",
"6q	c #2da3e6",
"6r	c #289fe4",
"6s	c #2199e2",
"6t	c #1c94e0",
"6u	c #128edc",
"6v	c #2da9e7",
"6w	c #3c86c7",
"6x	c #002e8f",
"6y	c #289de4",
"6z	c #55b8ec",
"70	c #d9f8ff",
"71	c #89e0fb",
"72	c #60cef6",
"73	c #60ccf6",
"74	c #5cc9f4",
"75	c #54c4f3",
"76	c #4fc3f1",
"77	c #48bef1",
"78	c #42b9f0",
"79	c #3bb5ed",
"7a	c #35b0ed",
"7b	c #2eabeb",
"7c	c #28a5e8",
"7d	c #22a0e6",
"7e	c #1c99e5",
"7f	c #1595e3",
"7g	c #0b8ce1",
"7h	c #25aeec",
"7i	c #2d79c5",
"7j	c #003493",
"7k	c #30a8e9",
"7l	c #29a0e5",
"7m	c #37a6e5",
"7n	c #2b9be1",
"7o	c #1986d8",
"7p	c #1b83d6",
"7q	c #1a7bd2",
"7r	c #1975ce",
"7s	c #176eca",
"7t	c #146ac7",
"7u	c #1363c0",
"7v	c #115ebd",
"7w	c #1058b8",
"7x	c #0e52b2",
"7y	c #0d4daf",
"7z	c #0c47ab",
"80	c #0b44a5",
"81	c #0941a1",
"82	c #073d9d",
"83	c #043999",
"84	c #003293",
"85	c #003795",
"86	c #003896",
"      0a0y1l262s3g                        7k    ",
"      0b0z1m272t3h                      6y7l    ",
"      0c101n282u3i                    6f6z7m    ",
"      0d111o292v3j                  616g707n    ",
"      0e121p2a2w3k                5q6209717o    ",
"      0f131q2b2x3l              5d5r096h727p    ",
"      0g141r2c2y3m            525e5s636i737q    ",
"      0h151s2d2z3n          4s535f5t646j747r    ",
"      0i161t2e303o        4k4t545g..656k757s    ",
"      0j171u2f313p      4d4l4u555h5u666l767t    ",
"      0k18..2g323q    484e4m4v565i07076m777u    ",
"      0l19||2h333r  45494f4n4w575j//676n787v    ",
"      0m1a//||343s44464a4g4o4x585k08086o797w    ",
"      0n1b1v2i353t  474b4h4p4y06065v686p7a7x    ",
"      0o1c1w2j363u    4c4i4q4z595lXXXX6q7b7y    ",
"      0p1d1x2k373v      4j4r505a5m5w696r7c7z    ",
"      0q1e1yXX383w          515b5n5x6a6s7d80    ",
"      0r1f1z2l393x            5c5o5y6b6t7e81    ",
"      0s1g202m3a3y              5p5z6c6u7f82    ",
"      0t1h212n3b3z                606d6v7g83    ",
"      0u1i222o3c40                  6e6w7h++    ",
"      0v1j232p3d41                    6x7i84    ",
"      0w1k242q3e42                      7j85    ",
"      0x++252r3f43                        86    "};