/* XPM */
static char * xpm_flag[] = {
"24 24 158 2",
"  	c None",
"XX	c #f64e31",
"++	c #f5422a",
"..	c #f53825",
"||	c #f62d22",
"//	c #f21e1d",
"06	c #df1312",
"07	c #f87b59",
"08	c #66686c",
"09	c #f9825e",
"0a	c #f7613e",
"0b	c #e6231a",
"0c	c #f54a2c",
"0d	c #f76745",
"0e	c #f76746",
"0f	c #f87956",
"0g	c #f7603e",
"0h	c #e62319",
"0i	c #eb3521",
"0j	c #ec3521",
"0k	c #f25437",
"0l	c #f87451",
"0m	c #f87452",
"0n	c #f75c3d",
"0o	c #8c8c90",
"0p	c #bec0c3",
"0q	c #bfc2c5",
"0r	c #bec3c5",
"0s	c #babfc2",
"0t	c #b8bdbe",
"0u	c #b5b9bb",
"0v	c #b1b6bb",
"0w	c #aab0b3",
"0x	c #a4a9ac",
"0y	c #9ea7a9",
"0z	c #9ba1a5",
"10	c #989ca0",
"11	c #919599",
"12	c #8d9094",
"13	c #85868a",
"14	c #7f8185",
"15	c #7b7d81",
"16	c #76797d",
"17	c #737479",
"18	c #6f7074",
"19	c #6a6c70",
"1a	c #65676b",
"1b	c #a7a8ac",
"1c	c #e2eaeb",
"1d	c #f8e9eb",
"1e	c #f6dce0",
"1f	c #f5dbdd",
"1g	c #f3d8dc",
"1h	c #f0d3d7",
"1i	c #edd0d4",
"1j	c #e9c8ca",
"1k	c #e6c0c6",
"1l	c #e1bbc0",
"1m	c #e1b3b8",
"1n	c #bfc6ca",
"1o	c #b2b3b7",
"1p	c #a5a6ab",
"1q	c #989a9e",
"1r	c #909296",
"1s	c #898b90",
"1t	c #828287",
"1u	c #7a7c80",
"1v	c #727478",
"1w	c #6b6d71",
"1x	c #fb5947",
"1y	c #f62516",
"1z	c #f6291a",
"20	c #f52919",
"21	c #f52819",
"22	c #f5291a",
"23	c #f62719",
"24	c #f62717",
"25	c #f62718",
"26	c #ff2112",
"27	c #fea084",
"28	c #f85f3b",
"29	c #f64f2f",
"2a	c #f54c2e",
"2b	c #f54b2d",
"2c	c #f54b2c",
"2d	c #f5492b",
"2e	c #f5492c",
"2f	c #f99f84",
"2g	c #f76440",
"2h	c #f76644",
"2i	c #f76645",
"2j	c #f76845",
"2k	c #f66542",
"2l	c #f98f6c",
"2m	c #f8734e",
"2n	c #f87f5c",
"2o	c #f9825f",
"2p	c #f9835f",
"2q	c #f8815d",
"2r	c #f87551",
"2s	c #f87855",
"2t	c #f86d4a",
"2u	c #f87c59",
"2v	c #f99e83",
"2w	c #f75c3c",
"2x	c #f75c3a",
"2y	c #f75f3d",
"2z	c #f7603d",
"30	c #f9967e",
"31	c #f6482a",
"32	c #fa8d77",
"33	c #f43c24",
"34	c #f88472",
"35	c #f5321e",
"36	c #f8796d",
"37	c #f52a1d",
"38	c #f52c21",
"39	c #f62c21",
"3a	c #f63f3a",
"3b	c #f32827",
"3c	c #f21d1c",
"3d	c #f21c1b",
"3e	c #e83635",
"3f	c #df1211",
"3g	c #de1312",
"3h	c #df1110",
"3i	c #ed3728",
"3j	c #e9281d",
"3k	c #e7251b",
"3l	c #e6241a",
"3m	c #f58a75",
"3n	c #ee422b",
"3o	c #ee3d26",
"3p	c #ec3723",
"3q	c #ec3622",
"3r	c #ec3823",
"3s	c #f79a82",
"3t	c #f15031",
"3u	c #f35739",
"3v	c #f25538",
"3w	c #f25336",
"3x	c #f15134",
"3y	c #f14f32",
"3z	c #f14d31",
"40	c #f9a98f",
"41	c #f76a44",
"42	c #f87552",
"43	c #f86c49",
"44	c #f76642",
"45	c #f76540",
"46	c #f99a81",
"47	c #f75637",
"48	c #f7593b",
"49	c #f75b3c",
"4a	c #f75a3b",
"4b	c #f65637",
"4c	c #f65334",
"4d	c #f65132",
"    0o1b          2v30323436                    ",
"    0p1c  272f2l2s2w313335373a    3m3s4046      ",
"    0q1d1x282g2m2t2xXX++..383b3e3i3n3t4147      ",
"    0r1e1y290d2n0f2yXX++..||3c3f3j3o3u0l48      ",
"    0s1f1z2a0d09070aXX++..||//063k3p3v4249      ",
"    0t1g202b2h092u0gXX++..||//060b0i0k0m0n      ",
"    0u1h212c2i09070aXX++..||//060b0i0k0m0n      ",
"    0v1i220c0e2o070aXX++..||//060b0j3w0l4a      ",
"    0w1j232d0e2p070gXX++..||//060h0j3x434b      ",
"    0x1k242e2j2q0f2zXX    393d3g0h3q3y444c      ",
"    0y1l250c2k2r              3h3l3r3z454d      ",
"    0z1m26                                      ",
"    101n                                        ",
"    111o                                        ",
"    121p                                        ",
"    131q                                        ",
"    141r                                        ",
"    151s                                        ",
"    161t                                        ",
"    171u                                        ",
"    181v                                        ",
"    191w                                        ",
"    1a08                                        ",
"    0808                                        "};