/* XPM */
static char * xpm_flash_drive[] = {
"24 24 151 2",
"  	c None",
"XX	c #a5d9f2",
"++	c #53b0e3",
"..	c #40a4dd",
"||	c #208bd0",
"//	c #41a6e1",
"06	c #bae6f8",
"07	c #aadef5",
"08	c #a8dcf4",
"09	c #49aae0",
"0a	c #36a0da",
"0b	c #2b98d8",
"0c	c #1a55a1",
"0d	c #5bb6e5",
"0e	c #a5daf2",
"0f	c #b2b0bb",
"0g	c #a3d9f2",
"0h	c #a4d9f2",
"0i	c #9fd7f2",
"0j	c #a4daf2",
"0k	c #9ad5f1",
"0l	c #62bae8",
"0m	c #6ac1e9",
"0n	c #63bae8",
"0o	c #90d1ef",
"0p	c #63bbe8",
"0q	c #68bdea",
"0r	c #64bbe8",
"0s	c #9c98a5",
"0t	c #afadb8",
"0u	c #eef3f6",
"0v	c #e8ebed",
"0w	c #87838d",
"0x	c #b5b3be",
"0y	c #e2e7eb",
"0z	c #f6f9fa",
"10	c #f7f6f7",
"11	c #eaeaec",
"12	c #74717b",
"13	c #aeb4b8",
"14	c #1b1c1d",
"15	c #bababe",
"16	c #f7f8f8",
"17	c #ededef",
"18	c #d8d7da",
"19	c #625d68",
"1a	c #43a7e1",
"1b	c #80caec",
"1c	c #379ada",
"1d	c #baaeb5",
"1e	c #f0f4f6",
"1f	c #dee1e3",
"1g	c #29292b",
"1h	c #878789",
"1i	c #f4f4f6",
"1j	c #e2e2e3",
"1k	c #d7d6d8",
"1l	c #bdbbbe",
"1m	c #56515c",
"1n	c #c8ebfa",
"1o	c #99d1ef",
"1p	c #77b7df",
"1q	c #fdf9f6",
"1r	c #f9f8f8",
"1s	c #e8e9ea",
"1t	c #f9f8fa",
"1u	c #a9a9ab",
"1v	c #c1c1c1",
"1w	c #cacacc",
"1x	c #b5b8bb",
"1y	c #5b5960",
"1z	c #aaddf5",
"20	c #b3e1f7",
"21	c #8cc8e9",
"22	c #73aed9",
"23	c #fffcf6",
"24	c #edecee",
"25	c #d6d6d8",
"26	c #1e1f21",
"27	c #2f3032",
"28	c #a8acac",
"29	c #58565d",
"2a	c #a2d9f2",
"2b	c #aadcf4",
"2c	c #85c2e4",
"2d	c #6aa2d0",
"2e	c #eee7e2",
"2f	c #dbd9da",
"2g	c #939496",
"2h	c #626467",
"2i	c #5e5c63",
"2j	c #9dd6f1",
"2k	c #9ad3ef",
"2l	c #99d3f0",
"2m	c #6ab2de",
"2n	c #5a90c0",
"2o	c #d4ccc9",
"2p	c #b8babc",
"2q	c #5c5a61",
"2r	c #9ed7f1",
"2s	c #9bd3f0",
"2t	c #74c3ea",
"2u	c #56b4e4",
"2v	c #5eb8e6",
"2w	c #5eaada",
"2x	c #4d80b3",
"2y	c #5f5554",
"2z	c #a0d8f2",
"30	c #8ccdee",
"31	c #63bbe7",
"32	c #59b5e5",
"33	c #47a9e0",
"34	c #4dade1",
"35	c #53a2d8",
"36	c #1c56a2",
"37	c #7bc7ec",
"38	c #61bae8",
"39	c #5ab6e5",
"3a	c #349eda",
"3b	c #35a4de",
"3c	c #3888c8",
"3d	c #72c3eb",
"3e	c #1955a2",
"3f	c #68bde9",
"3g	c #42a7e1",
"3h	c #84cbec",
"3i	c #bde7f9",
"3j	c #96d3f1",
"3k	c #5ab2e3",
"3l	c #b3e3f7",
"3m	c #a9dcf4",
"3n	c #99d4f1",
"3o	c #94d2ef",
"3p	c #a7dbf3",
"3q	c #6dc2e9",
"3r	c #479cd6",
"3s	c #a2d9f3",
"3t	c #78c6ed",
"3u	c #4d9fd6",
"3v	c #67bfeb",
"3w	c #5bb7e5",
"3x	c #3c90ce",
"3y	c #53b1e5",
"3z	c #4aace1",
"40	c #2d76be",
"41	c #3b9ad7",
"42	c #37a4de",
"43	c #2b9bda",
"44	c #2167b0",
"45	c #1f75be",
"46	c #1a55a2",
"                              3g3h3k            ",
"                            //XX3i3l3o3r        ",
"                          //XX06073m3p3s3u      ",
"                        //XX0607080j0i3t3v3x    ",
"                      //XX0607080e3n3q0l3w3y40  ",
"                    //XX0607080e3j0m0n0d++3z41  ",
"                  //XX0607080e0o0q0p0d++09..4244",
"                //XX0607080e0o0q0r0d++09..0a4345",
"              //XX0607080j0k3f0r0d++09..0a0b||46",
"            //XX0607080h0k0m0p0d++09..0a0b||0c  ",
"          //XX0607080h0i3d0n0d++09..0a0b||0c    ",
"        1aXX0607080g2z370l0d++09..0a0b||0c      ",
"        1b1n1z080g2r30380d++09..0a0b||0c        ",
"        1c1o202a2j2s3139++09..0a0b||0c          ",
"        1d1p212b2k2t32++09..0a0b||0c            ",
"      0f1e1q222c2l2u++09..0a0b||0c              ",
"    0x131f1r232d2m2v33..0a0b||0c                ",
"  0t0y141g1s242e2n2w343a0b||0c                  ",
"0f0u0z151h1t252f2o2x353b||0c                    ",
"0s0v10161i1u262g2p2y363c3e                      ",
"  0w11171j1v272h2q                              ",
"    12181k1w282i                                ",
"      191l1x29                                  ",
"        1m1y                                    "};