/* XPM */
static char * xpm_folder[] = {
"24 24 345 2",
"  	c None",
"XX	c #811f00",
"++	c #c54700",
"..	c #c54800",
"||	c #811e00",
"//	c #e47817",
"06	c #fcae42",
"07	c #d75500",
"08	c #811d00",
"09	c #fcb449",
"0a	c #fcac3f",
"0b	c #fcb348",
"0c	c #fcad41",
"0d	c #fcaa3d",
"0e	c #fcb144",
"0f	c #fcab3e",
"0g	c #faa73b",
"0h	c #faa537",
"0i	c #faa335",
"0j	c #faa234",
"0k	c #d45501",
"0l	c #ffedab",
"0m	c #d75400",
"0n	c #fee097",
"0o	c #fdc056",
"0p	c #fdbc52",
"0q	c #fdb94c",
"0r	c #fee299",
"0s	c #feda93",
"0t	c #fdb74c",
"0u	c #fcb245",
"0v	c #fedc93",
"0w	c #fed98f",
"0x	c #fcb54a",
"0y	c #fcb246",
"0z	c #fcaf43",
"10	c #fca83c",
"11	c #faa539",
"12	c #faa63a",
"13	c #faa436",
"14	c #faa033",
"15	c #faa437",
"16	c #fa9e30",
"17	c #fa9f30",
"18	c #fa9c2d",
"19	c #fa9f32",
"1a	c #fa9d2e",
"1b	c #fa992b",
"1c	c #fa9b2c",
"1d	c #f99728",
"1e	c #fa9b2d",
"1f	c #f99526",
"1g	c #f99626",
"1h	c #fec478",
"1i	c #fc8e1e",
"1j	c #f98c1d",
"1k	c #fc8f1e",
"1l	c #e77a18",
"1m	c #ce4d00",
"1n	c #c94900",
"1o	c #c64600",
"1p	c #be4400",
"1q	c #bb4000",
"1r	c #b73e00",
"1s	c #b03900",
"1t	c #ad3700",
"1u	c #a93500",
"1v	c #a53200",
"1w	c #a13000",
"1x	c #9c2d00",
"1y	c #982a00",
"1z	c #942800",
"20	c #8f2600",
"21	c #8d2200",
"22	c #882100",
"23	c #892400",
"24	c #d95901",
"25	c #e69753",
"26	c #f6dcac",
"27	c #f5d4a4",
"28	c #f4d4a4",
"29	c #f3d2a3",
"2a	c #f2d1a2",
"2b	c #f1cea1",
"2c	c #f0cda0",
"2d	c #f1cb9e",
"2e	c #efcb9f",
"2f	c #eec389",
"2g	c #edbf83",
"2h	c #edbd83",
"2i	c #ecbb80",
"2j	c #ecb87f",
"2k	c #ecb67d",
"2l	c #e8b47c",
"2m	c #ebb77c",
"2n	c #b86b3b",
"2o	c #852100",
"2p	c #f8ddac",
"2q	c #fff9c5",
"2r	c #fff0ad",
"2s	c #ffeba9",
"2t	c #ffe9a7",
"2u	c #ffe7a6",
"2v	c #ffe5a3",
"2w	c #ffe3a1",
"2x	c #ffdf9d",
"2y	c #ffcd69",
"2z	c #ffcc6a",
"30	c #ffc968",
"31	c #ffc664",
"32	c #ffc460",
"33	c #ffc05c",
"34	c #ffbe5a",
"35	c #ffbd5a",
"36	c #e99b43",
"37	c #f7d8a5",
"38	c #fff0ae",
"39	c #fee79f",
"3a	c #fee69c",
"3b	c #fee29a",
"3c	c #fede95",
"3d	c #fede93",
"3e	c #feda92",
"3f	c #fdce6f",
"3g	c #fdc357",
"3h	c #fdb649",
"3i	c #fcb347",
"3j	c #fcb042",
"3k	c #ffaf40",
"3l	c #e6902f",
"3m	c #f7d7a5",
"3n	c #ffeead",
"3o	c #fee79d",
"3p	c #fee49c",
"3q	c #fee096",
"3r	c #fede94",
"3s	c #fedb91",
"3t	c #fdc760",
"3u	c #fdbe53",
"3v	c #fdbb50",
"3w	c #ffae3f",
"3x	c #e58e30",
"3y	c #f7d5a4",
"3z	c #fee39b",
"40	c #fedf95",
"41	c #feda91",
"42	c #fdc053",
"43	c #fdc054",
"44	c #fdbc51",
"45	c #fdb94d",
"46	c #ffab3d",
"47	c #e58c2e",
"48	c #f8d9a8",
"49	c #ffefac",
"4a	c #ffe69e",
"4b	c #ffe49b",
"4c	c #fee094",
"4d	c #feda90",
"4e	c #fed17c",
"4f	c #fdbf52",
"4g	c #fdba4e",
"4h	c #fdb64b",
"4i	c #fcaf44",
"4j	c #fda93b",
"4k	c #e58b2a",
"4l	c #d95a01",
"4m	c #e69551",
"4n	c #f5ce8a",
"4o	c #f3c57b",
"4p	c #f1bf73",
"4q	c #ffe7a5",
"4r	c #fed98e",
"4s	c #fed890",
"4t	c #fdca70",
"4u	c #fdbc50",
"4v	c #fdba50",
"4w	c #fcab3d",
"4x	c #faa73a",
"4y	c #fda737",
"4z	c #e58828",
"50	c #ce4f00",
"51	c #c94b00",
"52	c #c13c00",
"53	c #f7d5aa",
"54	c #ffe19d",
"55	c #fed78c",
"56	c #fed58d",
"57	c #fdc360",
"58	c #fdba4f",
"59	c #fda535",
"5a	c #e58727",
"5b	c #f3cb9b",
"5c	c #ffde9b",
"5d	c #fed48b",
"5e	c #fed48c",
"5f	c #fdc05d",
"5g	c #fdb84c",
"5h	c #fda233",
"5i	c #e58625",
"5j	c #f4ca9c",
"5k	c #ffdd99",
"5l	c #fed288",
"5m	c #fed38b",
"5n	c #fdbf59",
"5o	c #fdb54a",
"5p	c #fda030",
"5q	c #e58423",
"5r	c #f4cb9b",
"5s	c #ffdc98",
"5t	c #fed187",
"5u	c #fed189",
"5v	c #fdbc57",
"5w	c #fcb145",
"5x	c #fcad42",
"5y	c #faa034",
"5z	c #fd9e2d",
"60	c #e58321",
"61	c #f4c99b",
"62	c #ffdb97",
"63	c #fed085",
"64	c #fed188",
"65	c #fdba54",
"66	c #faa83b",
"67	c #fd9b2b",
"68	c #e47f1e",
"69	c #f4ca9a",
"6a	c #ffd895",
"6b	c #fecf83",
"6c	c #fecd85",
"6d	c #fdb851",
"6e	c #faa639",
"6f	c #fc9928",
"6g	c #e47e1d",
"6h	c #f4c999",
"6i	c #ffd793",
"6j	c #fecc81",
"6k	c #fecd84",
"6l	c #fdb54e",
"6m	c #fcac40",
"6n	c #fa9d2f",
"6o	c #fc9726",
"6p	c #e57c1a",
"6q	c #f4c697",
"6r	c #ffd691",
"6s	c #fecb7f",
"6t	c #feca81",
"6u	c #fdba60",
"6v	c #fcaa3b",
"6w	c #f9972a",
"6x	c #fd9324",
"6y	c #e47b18",
"6z	c #f4c595",
"70	c #ffd590",
"71	c #fec97e",
"72	c #fec97f",
"73	c #fdbd64",
"74	c #faa739",
"75	c #fa982a",
"76	c #fa9323",
"77	c #fc9120",
"78	c #f3c596",
"79	c #ffd38e",
"7a	c #fec77c",
"7b	c #fec67b",
"7c	c #fdbf6f",
"7d	c #faa434",
"7e	c #faa032",
"7f	c #f99627",
"7g	c #f99424",
"7h	c #f99020",
"7i	c #fc8f1f",
"7j	c #f3c495",
"7k	c #ffd28b",
"7l	c #fec57a",
"7m	c #fdc57c",
"7n	c #fa9e2f",
"7o	c #f99425",
"7p	c #f99121",
"7q	c #f98e1e",
"7r	c #f3c595",
"7s	c #ffce8a",
"7t	c #fdc377",
"7u	c #fdc378",
"7v	c #fcab49",
"7w	c #fa9d2d",
"7x	c #f9982a",
"7y	c #fa9123",
"7z	c #f98f1f",
"80	c #f3c494",
"81	c #ffcd88",
"82	c #fec277",
"83	c #fdc175",
"84	c #fdbf73",
"85	c #fdb663",
"86	c #fa9a29",
"87	c #fa982b",
"88	c #fa9324",
"89	c #f98f20",
"8a	c #f98d1d",
"8b	c #c64800",
"8c	c #f3c696",
"8d	c #ffd08b",
"8e	c #fec477",
"8f	c #ffc376",
"8g	c #ffc074",
"8h	c #ffc178",
"8i	c #fc9c2f",
"8j	c #fb9727",
"8k	c #fb9625",
"8l	c #fb9221",
"8m	c #fb8f1f",
"8n	c #fb8e1e",
"8o	c #ff921e",
"8p	c #e77b18",
"8q	c #812000",
"8r	c #c74c00",
"8s	c #e49e66",
"8t	c #f2b26b",
"8u	c #f0a95d",
"8v	c #eea65c",
"8w	c #eda459",
"8x	c #eca35b",
"8y	c #eb933e",
"8z	c #e8811c",
"90	c #e87f1c",
"91	c #e77c19",
"92	c #e67917",
"93	c #e57a17",
"94	c #b64f0d",
"95	c #852400",
"96	c #c04a00",
"97	c #bc4300",
"98	c #b74100",
"99	c #b03d00",
"9a	c #ad3b00",
"9b	c #a93a00",
"9c	c #a53600",
"9d	c #a13602",
"9e	c #9d3303",
"9f	c #983001",
"9g	c #952e01",
"9h	c #8f2c00",
"9i	c #8e2700",
"9j	c #882600",
"9k	c #892700",
"                                                ",
"                                                ",
"  24070m0m07074l                                ",
"0k252p373m3y484m0k                              ",
"1m262q383n0l494n50                              ",
"1n272r393o3z4a4o51                              ",
"1o280l3a3p0r4b4p52++++++++++++............8b8r  ",
"1p292s3b0r0n4c4q535b5j5r61696h6q6z787j7r808c8s96",
"1q2a2t0n3q400v0s545c5k5s626a6i6r70797k7s818d8t97",
"1r2b2u3c3r0v4d4r555d5l5t636b6j6s717a7l1h828e8u98",
"1s2c2v3d3s410w4s565e5m5u646c6k6t727b1h7t838f8v99",
"1t2d2w3e0s0w4e4t575f5n5v656d6l6u737c7m7u848g8w9a",
"1u2e2x3f3t424f4u585g5o0b0e066m6v747d117v858h8x9b",
"1v2f2y3g0o430p4v0q0x0b5w060a0d0g0h0i197w868i8y9c",
"1w2g2z0o3u444g0t090y0e5x0f1012150j7e7n1e878j8z9d",
"1x2h300p3v454h090u0z0c0f666e130j171a1c7x1g8k909e",
"1y2i310q0t0x0b0e060a0d0g0h0i1416181b1d1f888l919f",
"1z2j323h090y4i0c0f1012150j196n1e757f7o7y898m1l9g",
"202k333i0u0z0c4w0g11135y171a1c6w1g7g7p7z8a8n929h",
"212l343j060a0d4x0h0i1416181b1d1f767h7q1j1j1i939i",
"222m353k3w464j4y595h5p5z676f6o6x777i1i1k1k8o1l9j",
"232n363l3x474k4z5a5i5q60686g6p6y//////////8p949k",
"  2o080808||||||||||XXXXXXXXXXXXXXXXXXXXXX8q95  ",
"                                                "};