/* XPM */
static char * xpm_forbidden[] = {
"24 24 272 2",
"  	c None",
"XX	c #f6261c",
"++	c #f6211a",
"..	c #f61d19",
"||	c #fd866a",
"//	c #f61818",
"06	c #ff2e1f",
"07	c #fd8a6e",
"08	c #f51416",
"09	c #fd8f70",
"0a	c #fd8569",
"0b	c #fd8367",
"0c	c #ff2e1e",
"0d	c #fd8e6f",
"0e	c #ffb29b",
"0f	c #f51015",
"0g	c #fd8366",
"0h	c #ff6244",
"0i	c #061416",
"0j	c #444f52",
"0k	c #c9060c",
"0l	c #ea1e17",
"0m	c #d20c0f",
"0n	c #bc050a",
"0o	c #f43a44",
"0p	c #fd2e1f",
"0q	c #fa281d",
"0r	c #ee1b17",
"0s	c #c10609",
"0t	c #b30307",
"0u	c #899497",
"0v	c #ff2d1d",
"0w	c #f8221b",
"0x	c #f81e1a",
"0y	c #ca0a0c",
"0z	c #ab0207",
"10	c #ffaa91",
"11	c #ff7f61",
"12	c #f71d19",
"13	c #fc1a1a",
"14	c #c7070a",
"15	c #a70105",
"16	c #fd876a",
"17	c #3d3d3f",
"18	c #f71818",
"19	c #f91416",
"1a	c #af0107",
"1b	c #fd8f71",
"1c	c #fd896d",
"1d	c #3a3a3c",
"1e	c #f71517",
"1f	c #ea0e12",
"1g	c #9e0003",
"1h	c #feb4a0",
"1i	c #fd8d6d",
"1j	c #ff8063",
"1k	c #373739",
"1l	c #fa1116",
"1m	c #b90207",
"1n	c #fd957a",
"1o	c #5d676b",
"1p	c #f71116",
"1q	c #df080d",
"1r	c #9d0002",
"1s	c #ff8466",
"1t	c #303032",
"1u	c #2c2b2d",
"1v	c #f61015",
"1w	c #f30d13",
"1x	c #9c0002",
"1y	c #fd8468",
"1z	c #fc0e15",
"20	c #9a0002",
"21	c #272627",
"22	c #fb0e15",
"23	c #a90005",
"24	c #29282a",
"25	c #252325",
"26	c #212021",
"27	c #222021",
"28	c #1e1d1e",
"29	c #ec3e46",
"2a	c #ec3c46",
"2b	c #eb3c46",
"2c	c #e83b45",
"2d	c #e43f47",
"2e	c #dd3a43",
"2f	c #d00f16",
"2g	c #f13d46",
"2h	c #f53944",
"2i	c #fa595d",
"2j	c #ff7567",
"2k	c #ff7461",
"2l	c #ff7a61",
"2m	c #ff775e",
"2n	c #fe3f27",
"2o	c #f72d1c",
"2p	c #f54048",
"2q	c #fb585b",
"2r	c #fea08b",
"2s	c #ff896c",
"2t	c #ec7761",
"2u	c #e1715d",
"2v	c #e5715f",
"2w	c #d13323",
"2x	c #d0291b",
"2y	c #de291b",
"2z	c #f84048",
"30	c #f53742",
"31	c #fe8d82",
"32	c #ffa98f",
"33	c #fd8163",
"34	c #ff7f63",
"35	c #899298",
"36	c #6d7479",
"37	c #475254",
"38	c #434f52",
"39	c #0d272a",
"3a	c #f74149",
"3b	c #f43742",
"3c	c #fd8c82",
"3d	c #fd8266",
"3e	c #777779",
"3f	c #424143",
"3g	c #3f3e40",
"3h	c #393a3c",
"3i	c #0f1d21",
"3j	c #fb8d82",
"3k	c #ffb39a",
"3l	c #8b9598",
"3m	c #575759",
"3n	c #414547",
"3o	c #37383b",
"3p	c #0e1d1f",
"3q	c #f73e47",
"3r	c #f45658",
"3s	c #ffc2aa",
"3t	c #ff7f62",
"3u	c #838e94",
"3v	c #414143",
"3w	c #3f3f41",
"3x	c #343335",
"3y	c #0c1c1e",
"3z	c #f03742",
"40	c #fea991",
"41	c #798388",
"42	c #424244",
"43	c #313032",
"44	c #0d1a1e",
"45	c #f94049",
"46	c #ef4c52",
"47	c #ffc2ac",
"48	c #ff8264",
"49	c #3e3e40",
"4a	c #333336",
"4b	c #2e2e2f",
"4c	c #0c191d",
"4d	c #f53c45",
"4e	c #f5867b",
"4f	c #ffbda6",
"4g	c #3b3c3e",
"4h	c #091a1a",
"4i	c #f03a44",
"4j	c #f9a191",
"4k	c #ff7255",
"4l	c #4e5a5f",
"4m	c #38393b",
"4n	c #343336",
"4o	c #2d2d2e",
"4p	c #2a272a",
"4q	c #08181b",
"4r	c #ef3843",
"4s	c #f9a08e",
"4t	c #ff6a4c",
"4u	c #4d595e",
"4v	c #363638",
"4w	c #2b2b2c",
"4x	c #091719",
"4y	c #ee3843",
"4z	c #f8a08e",
"50	c #4c595d",
"51	c #323235",
"52	c #2d2d2f",
"53	c #242425",
"54	c #091718",
"55	c #ed3943",
"56	c #f8a08f",
"57	c #4c595c",
"58	c #2e2e31",
"59	c #262525",
"5a	c #242224",
"5b	c #071618",
"5c	c #f13b44",
"5d	c #f08379",
"5e	c #ffbda7",
"5f	c #ff6344",
"5g	c #49565c",
"5h	c #2b2a2c",
"5i	c #2a282a",
"5j	c #222122",
"5k	c #061518",
"5l	c #f94048",
"5m	c #dd4a4b",
"5n	c #ffc3ac",
"5o	c #485558",
"5p	c #262625",
"5q	c #232123",
"5r	c #061517",
"5s	c #e0343b",
"5t	c #ff6b4d",
"5u	c #475357",
"5v	c #252425",
"5w	c #211e20",
"5x	c #f23d46",
"5y	c #dc5051",
"5z	c #ffc3ab",
"60	c #ff7356",
"61	c #465255",
"62	c #232223",
"63	c #201f20",
"64	c #201c1f",
"65	c #de353b",
"66	c #ef8b7d",
"67	c #ffb49a",
"68	c #fd8467",
"69	c #201e1f",
"6a	c #f7414a",
"6b	c #d13036",
"6c	c #ef887c",
"6d	c #ffab92",
"6e	c #211f20",
"6f	c #1f1c1e",
"6g	c #1d1d1c",
"6h	c #051416",
"6i	c #f74049",
"6j	c #cc2e35",
"6k	c #e87c73",
"6l	c #ffab91",
"6m	c #fe8163",
"6n	c #ff8265",
"6o	c #1a2428",
"6p	c #151f21",
"6q	c #121b1f",
"6r	c #0d181c",
"6s	c #001114",
"6t	c #f9414a",
"6u	c #dc353c",
"6v	c #d04a4b",
"6w	c #fc9f8b",
"6x	c #ff8a6d",
"6y	c #ee745f",
"6z	c #d73825",
"70	c #d83827",
"71	c #d63322",
"72	c #d42e20",
"73	c #e02b1d",
"74	c #ec3d45",
"75	c #d33238",
"76	c #d44e4e",
"77	c #ea7265",
"78	c #f3422d",
"79	c #ff4327",
"7a	c #fe3f25",
"7b	c #fe3b23",
"7c	c #f72e1e",
"7d	c #ef3f47",
"7e	c #e53c46",
"7f	c #d93039",
"7g	c #c80008",
"7h	c #d2050c",
"7i	c #d1050c",
"7j	c #cb050c",
"                454d4i4r4y555c5l                ",
"            3q3z464e4j4s4z565d5m5s5x            ",
"        3a0o3r1h474f0e0e0e0e5e5n1h5y656a        ",
"      2z3b3j3s401n0d090909090d1n105z666b6i      ",
"    2p303c3k1b1i0d0909090909090d1i1b676c6j6t    ",
"    0o3110161c070707070707070707071c166d6k6u    ",
"  2g2q320g0a||||||||||||||||||||||||0a0g6l6v74  ",
"  2h2r333d0b0b0b0b0b1y0a0a0a0a0a0a1y680g6m6w75  ",
"292i2s3411113t1j481s4k4t0h0h5f0h5t601j1s6n6x767d",
"2a2j2t0u0u3l3u411o1o4l4u50575g5o5u610j0j0j6y777e",
"2b2k2u353e3m3v42494g4m4v51585h24212526286o6z787f",
"2c2l2v363f3n3w171d1k4n1t521u5i5p5v62276e6p70797g",
"2d2m2w373g171d1k4a1t4o4w2459255q2763696f6q717a7h",
"2e2n2x383h3o3x434b1u4p21535a5j265w64286g6r727b7i",
"2f2o2y393i3p3y444c4h4q4x545b5k5r0i0i0i6h6s737c7j",
"0k0l0p0v0v0c0c0c0c0606060606060606060606060p0l0k",
"  0m0qXXXXXXXXXXXXXXXXXXXXXXXXXXXXXXXXXXXX0q0m  ",
"  0n0r0w++++++++++++++++++++++++++++++++0w0r0n  ",
"    0s0x12............................120x0s    ",
"    0t0y1318////////////////////////18130y0t    ",
"      0z14191e080808080808080808081e19140z      ",
"        151a1f1l1p1v0f0f0f0f1v1p1l1f1a15        ",
"            1g1m1q1w1z22221z1w1q1m1g            ",
"                1r1x202323201x1r                "};