/* XPM */
static char * xpm_free_bsd[] = {
"24 24 225 2",
"  	c None",
"XX	c #78211f",
"++	c #000000",
"..	c #98261f",
"||	c #0f1516",
"//	c #a52326",
"06	c #732120",
"07	c #ed3025",
"08	c #060908",
"09	c #04090a",
"0a	c #d22d23",
"0b	c #822520",
"0c	c #881f14",
"0d	c #bd2a26",
"0e	c #b3ad7b",
"0f	c #6a2c23",
"0g	c #bb9f91",
"0h	c #882920",
"0i	c #cb3428",
"0j	c #c83528",
"0k	c #ffffc4",
"0l	c #ebdfa2",
"0m	c #80271e",
"0n	c #d92e23",
"0o	c #141411",
"0p	c #3b201d",
"0q	c #7b251d",
"0r	c #c92f20",
"0s	c #e92f1b",
"0t	c #dc2f2b",
"0u	c #de2920",
"0v	c #8b8672",
"0w	c #0b1013",
"0x	c #8a1f1d",
"0y	c #40221f",
"0z	c #2d201c",
"10	c #731d1e",
"11	c #7a211f",
"12	c #c86e53",
"13	c #171215",
"14	c #b02a28",
"15	c #cd281e",
"16	c #cf2d25",
"17	c #100b09",
"18	c #101616",
"19	c #e72d20",
"1a	c #5a1508",
"1b	c #99271b",
"1c	c #4e251e",
"1d	c #e9301f",
"1e	c #e53727",
"1f	c #e93626",
"1g	c #dc2b26",
"1h	c #e23a22",
"1i	c #d3312a",
"1j	c #ba2924",
"1k	c #b72a24",
"1l	c #d12f2a",
"1m	c #a3251e",
"1n	c #96241e",
"1o	c #c47f5e",
"1p	c #080a0b",
"1q	c #a52023",
"1r	c #e83123",
"1s	c #e93325",
"1t	c #962624",
"1u	c #ab342f",
"1v	c #942422",
"1w	c #ad3930",
"1x	c #d1b995",
"1y	c #991a1c",
"1z	c #de281e",
"20	c #e02f20",
"21	c #932523",
"22	c #da2d29",
"23	c #77211f",
"24	c #b12b27",
"25	c #cebd90",
"26	c #693026",
"27	c #561619",
"28	c #8f1618",
"29	c #a41a1a",
"2a	c #90211e",
"2b	c #6e1f1f",
"2c	c #de2820",
"2d	c #c92826",
"2e	c #af9378",
"2f	c #b65f49",
"2g	c #b93a2c",
"2h	c #621c1c",
"2i	c #631c1c",
"2j	c #a51b17",
"2k	c #df2a21",
"2l	c #d12927",
"2m	c #bb4d3c",
"2n	c #e7cca5",
"2o	c #feffcd",
"2p	c #7a755c",
"2q	c #57523e",
"2r	c #902927",
"2s	c #ca251c",
"2t	c #e12d24",
"2u	c #cb2d2a",
"2v	c #f1f4b5",
"2w	c #faffbc",
"2x	c #f8f9aa",
"2y	c #d1d092",
"2z	c #e2e0a2",
"30	c #ab3028",
"31	c #e92d23",
"32	c #e73025",
"33	c #ffe9b1",
"34	c #feeca6",
"35	c #fcf2a7",
"36	c #fef8ab",
"37	c #ffffb3",
"38	c #ffffb6",
"39	c #fff7b8",
"3a	c #a38d77",
"3b	c #b3231e",
"3c	c #eb3025",
"3d	c #d82f27",
"3e	c #ae3932",
"3f	c #caad99",
"3g	c #cfb39b",
"3h	c #caaf99",
"3i	c #b79d8e",
"3j	c #8d6664",
"3k	c #6f2d2c",
"3l	c #4d2720",
"3m	c #9f302e",
"3n	c #903939",
"3o	c #84383a",
"3p	c #8e3637",
"3q	c #ab2f2b",
"3r	c #241a18",
"3s	c #58251f",
"3t	c #a42c24",
"3u	c #e82e21",
"3v	c #e92d20",
"3w	c #ea3022",
"3x	c #e73426",
"3y	c #c32c24",
"3z	c #5f272c",
"40	c #3e1f18",
"41	c #7a241d",
"42	c #7a261e",
"43	c #83261f",
"44	c #9a2820",
"45	c #ae2b22",
"46	c #bb2d24",
"47	c #be2f26",
"48	c #b32d25",
"49	c #9c2821",
"4a	c #79231d",
"4b	c #81241e",
"4c	c #722721",
"4d	c #472423",
"4e	c #4a221d",
"4f	c #7d251d",
"4g	c #77231c",
"4h	c #76221d",
"4i	c #7a231d",
"4j	c #7e241d",
"4k	c #80241d",
"4l	c #7d241d",
"4m	c #7b231d",
"4n	c #75231d",
"4o	c #5b221b",
"4p	c #1e1e1f",
"4q	c #0d1516",
"4r	c #0e110e",
"4s	c #171916",
"4t	c #5a231d",
"4u	c #7c251c",
"4v	c #64231c",
"4w	c #55211b",
"4x	c #57211b",
"4y	c #56211b",
"4z	c #51201a",
"50	c #431e19",
"51	c #311d19",
"52	c #1b1c1b",
"53	c #111a19",
"54	c #070d0c",
"55	c #742822",
"56	c #8a271f",
"57	c #78241d",
"58	c #4f231b",
"59	c #1f1b17",
"5a	c #1e1b18",
"5b	c #1f1917",
"5c	c #191918",
"5d	c #161b1a",
"5e	c #131b1b",
"5f	c #010403",
"5g	c #c5271d",
"5h	c #c92d24",
"5i	c #41211b",
"5j	c #191b19",
"5k	c #101515",
"5l	c #111616",
"5m	c #0e1313",
"5n	c #060b0a",
"5o	c #d12c24",
"5p	c #241d1a",
"5q	c #151b1d",
"5r	c #0f1313",
"5s	c #080b09",
"5t	c #050707",
"5u	c #080c0a",
"5v	c #af2b22",
"5w	c #47231d",
"5x	c #141b1c",
"5y	c #111617",
"5z	c #ca2a1f",
"60	c #ba2d24",
"61	c #1b1d1c",
"62	c #13191b",
"63	c #1c1d1d",
"64	c #131a1c",
"65	c #040708",
"66	c #060b04",
"67	c #141b1b",
"68	c #040707",
"                                                ",
"                                                ",
"          0j0x                          1a      ",
"        1u0x0y                          0h1a    ",
"      0j0d0y                            0h0c||  ",
"    0j0u0d0z0z0f0f0f0f3l3r0o0o          0h0c66||",
"    0s0u0d1010////////0m3s400o4r        0h1b1c||",
"    0s1l1v240d0a0a0a0a//0m414e4s1717    5z1b1c||",
"    1h1m1w252e0a0g0g3e0n//0m0q4t555g1919600c67||",
"    ..1n1x0k2f2m2v330g0n3t424f4u565h5o5v0c63||||",
"    ..1o0k0l2g2n2w340g3m0n434g0q570q0c5w61646808",
"    ..0k0l0l122o2x353f3n3u444h4v585i5p5x626508  ",
"    ..0v0v0e122p0e363g3o3v454i4w595j5q5y0808    ",
"    ..0w0w2613130e373h3p3w464j4x5a185r0808      ",
"  ....1p092709090e383i3q3x474k4y5b5k5s++        ",
"0r1d1i1q1y2809092y393j1507484l4z5c5l5t++        ",
"0r1e1j1r1z292h2q2z3a3k0707494m505d5m5u++        ",
"0i1f1k1s202a2i2r303b15073y4a4n515e5n++          ",
"0i1g0t1t212b2j2s313c0707164b4o5218++++          ",
"  XX0i0t222c2k2t323d160b0b4c0p535f++            ",
"    XXXX232d2l2u14140b0b0b4d4p54++              ",
"        XX11110606060606060p4q++                ",
"          XXXXXXXXXXXXXX3z0p++                  ",
"              XXXXXXXXXXXX                      "};