/* XPM */
static char * xpm_gift[] = {
"24 24 152 2",
"  	c None",
"XX	c #c0bdc6",
"++	c #fffffe",
"..	c #e8e9ea",
"||	c #c2c5c6",
"//	c #6a6c70",
"06	c #fefdfe",
"07	c #eeeff0",
"08	c #e9eaeb",
"09	c #e4e5e7",
"0a	c #e0e1e3",
"0b	c #dcddde",
"0c	c #d7d8da",
"0d	c #d2d3d5",
"0e	c #cccdcf",
"0f	c #c7c8cb",
"0g	c #c2c3c6",
"0h	c #bbbdc0",
"0i	c #bbbec1",
"0j	c #5f5d65",
"0k	c #f44e31",
"0l	c #f43a26",
"0m	c #ffffff",
"0n	c #f6643f",
"0o	c #dd565c",
"0p	c #f44e30",
"0q	c #f6623e",
"0r	c #c0bdc4",
"0s	c #c3c2c7",
"0t	c #aaa7af",
"0u	c #7d7b83",
"0v	c #a9a4ae",
"0w	c #9c99a2",
"0x	c #97939d",
"0y	c #928e98",
"0z	c #8d8993",
"10	c #87838e",
"11	c #827e87",
"12	c #7d7a82",
"13	c #77737d",
"14	c #736f77",
"15	c #6e6a73",
"16	c #6b6770",
"17	c #534d55",
"18	c #ebecec",
"19	c #c4c7c8",
"1a	c #6a6d71",
"1b	c #f5f6f6",
"1c	c #f0f1f1",
"1d	c #ebeced",
"1e	c #e7e8e9",
"1f	c #e3e4e4",
"1g	c #dedfe1",
"1h	c #d9dadc",
"1i	c #d3d4d6",
"1j	c #cecfd2",
"1k	c #c9cacd",
"1l	c #c2c4c7",
"1m	c #bbbec2",
"1n	c #4d4952",
"1o	c #bcbec2",
"1p	c #615f67",
"1q	c #f53824",
"1r	c #f4160e",
"1s	c #feffff",
"1t	c #e7ecef",
"1u	c #c0c9cc",
"1v	c #667176",
"1w	c #fdffff",
"1x	c #edf4f7",
"1y	c #e8eff2",
"1z	c #e3eaee",
"20	c #dfe7eb",
"21	c #dbe4e6",
"22	c #d6dfe2",
"23	c #d1dadd",
"24	c #cad4d7",
"25	c #c5d0d3",
"26	c #c0cbce",
"27	c #b9c5c8",
"28	c #b8c5c8",
"29	c #5c6068",
"2a	c #efbeaa",
"2b	c #dd9286",
"2c	c #b0393d",
"2d	c #f9c7b2",
"2e	c #f2b4a3",
"2f	c #f0ad9a",
"2g	c #eca392",
"2h	c #ea9a89",
"2i	c #e89282",
"2j	c #e5887b",
"2k	c #e37e75",
"2l	c #e27470",
"2m	c #de6b6b",
"2n	c #dd6264",
"2o	c #da5b5f",
"2p	c #82424a",
"2q	c #f43b26",
"2r	c #f87c52",
"2s	c #f3593f",
"2t	c #e61115",
"2u	c #f86d43",
"2v	c #f75c36",
"2w	c #f6512f",
"2x	c #f54729",
"2y	c #f53e24",
"2z	c #f5361f",
"30	c #f42e1b",
"31	c #f42519",
"32	c #f31e17",
"33	c #f41714",
"34	c #f31112",
"35	c #f30e12",
"36	c #f90a0f",
"37	c #a8292f",
"38	c #f43925",
"39	c #f7774f",
"3a	c #f41711",
"3b	c #fbccbb",
"3c	c #f31d18",
"3d	c #e65a4b",
"3e	c #f87b50",
"3f	c #f21e1a",
"3g	c #f6382e",
"3h	c #f88259",
"3i	c #f88159",
"3j	c #f25d44",
"3k	c #e3161a",
"3l	c #f7734b",
"3m	c #f6633e",
"3n	c #f55837",
"3o	c #f4452c",
"3p	c #f43d27",
"3q	c #f33523",
"3r	c #f32c20",
"3s	c #f2251e",
"3t	c #f21e1b",
"3u	c #f11819",
"3v	c #f11418",
"3w	c #f71015",
"3x	c #a52c32",
"3y	c #f6613e",
"3z	c #f44f32",
"40	c #f31c16",
"41	c #e16658",
"42	c #f97a50",
"43	c #f77752",
"44	c #f41610",
"45	c #fcccba",
"46	c #f7734d",
"47	c #f62d18",
"                    39      4346                ",
"                0q0n0n0q  3y0n0n0q              ",
"              0p0k0k0k0p  3z0k0k0k0p            ",
"              1q380l0l2q  2q0l0l0l1q47          ",
"                  1r3a3c3f40441r                ",
"      XXXXXXXXXXXXXX0o3d3g410oXXXXXXXXXXXXXX    ",
"    0r0m++++++++++1s3b3e3h42451s++++++++++0m0r  ",
"    0s18..........1t2a2r3i2r2a1t..........180s  ",
"    0t19||||||||||1u2b2s3j2s2b1u||||||||||190t  ",
"    0u1a//////////1v2c2t3k2t2c1v//////////1a0u  ",
"    0v0m06060606061w2d2u3l2u2d1w06060606060m0v  ",
"    0w1b07070707071x2e2v3m2v2e1x07070707071b0w  ",
"    0x1c08080808081y2f2w3n2w2f1y08080808081c0x  ",
"    0y1d09090909091z2g2x0k2x2g1z09090909091d0y  ",
"    0z1e0a0a0a0a0a202h2y3o2y2h200a0a0a0a0a1e0z  ",
"    101f0b0b0b0b0b212i2z3p2z2i210b0b0b0b0b1f10  ",
"    111g0c0c0c0c0c222j303q302j220c0c0c0c0c1g11  ",
"    121h0d0d0d0d0d232k313r312k230d0d0d0d0d1h12  ",
"    131i0e0e0e0e0e242l323s322l240e0e0e0e0e1i13  ",
"    141j0f0f0f0f0f252m333t332m250f0f0f0f0f1j14  ",
"    151k0g0g0g0g0g262n343u342n260g0g0g0g0g1k15  ",
"    161l0h0h0h0h0h272o353v352o270h0h0h0h0h1l16  ",
"    171m1o0i0i0i0i280o363w360o280i0i0i0i1o1m17  ",
"      1n1p0j0j0j0j292p373x372p290j0j0j0j1p1n    "};