/* XPM */
static char * xpm_globe[] = {
"24 24 413 2",
"  	c None",
"XX	c #84d9f8",
"++	c #cce0f2",
"..	c #f4f8fb",
"||	c #baddf4",
"//	c #beddf2",
"06	c #83d9f8",
"07	c #80d8f8",
"08	c #85d9f8",
"09	c #97d1ef",
"0a	c #d0e7f7",
"0b	c #93d1ef",
"0c	c #e5effa",
"0d	c #d7e9f8",
"0e	c #c4e4f7",
"0f	c #a2d4f1",
"0g	c #f3f7fb",
"0h	c #58c2f0",
"0i	c #51c2ed",
"0j	c #56b8ea",
"0k	c #bee1f3",
"0l	c #7fd8f8",
"0m	c #008ede",
"0n	c #f1f6fb",
"0o	c #4dbdee",
"0p	c #bedcf2",
"0q	c #89daf8",
"0r	c #49bcee",
"0s	c #0061bc",
"0t	c #dae7f5",
"0u	c #c6e5f7",
"0v	c #36b6e9",
"0w	c #88cfed",
"0x	c #2a90d6",
"0y	c #4ca5de",
"0z	c #5facde",
"10	c #6bbae5",
"11	c #65b7e3",
"12	c #56a5da",
"13	c #378ed1",
"14	c #1e75c2",
"15	c #3ea4df",
"16	c #b3d7ee",
"17	c #cde9f7",
"18	c #ace6fb",
"19	c #80d5f6",
"1a	c #75cff4",
"1b	c #dbe9f7",
"1c	c #67cdf3",
"1d	c #8ed2f1",
"1e	c #96c4e4",
"1f	c #1f7dc6",
"1g	c #329ce1",
"1h	c #77c7ec",
"1i	c #e3f0fa",
"1j	c #dbeffb",
"1k	c #85daf8",
"1l	c #aee1f8",
"1m	c #acddf6",
"1n	c #6accf5",
"1o	c #5fc7f1",
"1p	c #98d3f3",
"1q	c #76c9ef",
"1r	c #3bb6ec",
"1s	c #add8f2",
"1t	c #9fd5f0",
"1u	c #3d9dd8",
"1v	c #1163b6",
"1w	c #42a8e4",
"1x	c #9cd7f1",
"1y	c #c2e9fa",
"1z	c #eef2fa",
"20	c #7cd7f7",
"21	c #ade0f7",
"22	c #95d8f5",
"23	c #8dd4f4",
"24	c #96d3f3",
"25	c #c1dff4",
"26	c #34b5ec",
"27	c #24aee9",
"28	c #d7e1f3",
"29	c #2db1ea",
"2a	c #32a0dc",
"2b	c #0a58b1",
"2c	c #38a4e5",
"2d	c #9cd7f2",
"2e	c #a3e3fa",
"2f	c #dbedfa",
"2g	c #e7f2fa",
"2h	c #edf4fb",
"2i	c #ecf3fa",
"2j	c #e0ecf9",
"2k	c #a9ddf5",
"2l	c #a4d9f3",
"2m	c #b0ddf4",
"2n	c #cee3f5",
"2o	c #d8e7f6",
"2p	c #d6e5f5",
"2q	c #c7dff2",
"2r	c #08a1e6",
"2s	c #0a7ace",
"2t	c #0a57af",
"2u	c #7eccef",
"2v	c #dff1fc",
"2w	c #f4f5fb",
"2x	c #9fdff8",
"2y	c #7bd6f7",
"2z	c #67ccf5",
"30	c #62c9f2",
"31	c #45bcee",
"32	c #c3e0f5",
"33	c #2eb1eb",
"34	c #28ace8",
"35	c #40b7ea",
"36	c #0065be",
"37	c #d0ebfa",
"38	c #b9e5f9",
"39	c #d8edfa",
"3a	c #8bdbf8",
"3b	c #7dd5f7",
"3c	c #d0e9f7",
"3d	c #6acbf4",
"3e	c #65c8f2",
"3f	c #59c2f0",
"3g	c #46baed",
"3h	c #b9dcf4",
"3i	c #34b1ea",
"3j	c #31ade9",
"3k	c #1da5e6",
"3l	c #4bb9ea",
"3m	c #72c9eb",
"3n	c #075bb2",
"3o	c #b6e6f9",
"3p	c #d1ecfa",
"3q	c #9fdff7",
"3r	c #83d5f7",
"3s	c #5ec8f2",
"3t	c #59c3f0",
"3u	c #4dbeee",
"3v	c #3db8ee",
"3w	c #a7d7f2",
"3x	c #37b3eb",
"3y	c #25a9e7",
"3z	c #19a4e6",
"40	c #3eb4e9",
"41	c #0092e0",
"42	c #19a8e4",
"43	c #4f9cd3",
"44	c #45b0e9",
"45	c #bde7f9",
"46	c #87dbf9",
"47	c #8bdbf9",
"48	c #f5f9fb",
"49	c #caebfa",
"4a	c #e1f1fb",
"4b	c #ddeefa",
"4c	c #deedf9",
"4d	c #ebf3fb",
"4e	c #eaf0f9",
"4f	c #e6eff8",
"4g	c #e2edf8",
"4h	c #c9e2f4",
"4i	c #dbe7f4",
"4j	c #cee1f2",
"4k	c #0090df",
"4l	c #048ada",
"4m	c #044ea8",
"4n	c #6bc2ed",
"4o	c #e0f1fb",
"4p	c #e3f1fb",
"4q	c #f3f8fc",
"4r	c #b0e4f9",
"4s	c #7cd5f6",
"4t	c #96d7f4",
"4u	c #5cc5f1",
"4v	c #51c0ef",
"4w	c #47bced",
"4x	c #3ab5ec",
"4y	c #5dc0ec",
"4z	c #1ca4e6",
"50	c #14a2e5",
"51	c #38b6e8",
"52	c #c9dff2",
"53	c #93d2ef",
"54	c #abd7ef",
"55	c #52c1eb",
"56	c #0958ae",
"57	c #7fcbef",
"58	c #d0edfb",
"59	c #81d8f8",
"5a	c #f1f7fb",
"5b	c #8adbf8",
"5c	c #7fd5f7",
"5d	c #98d9f5",
"5e	c #5fc6f2",
"5f	c #56c1ef",
"5g	c #40b5eb",
"5h	c #5fc1ec",
"5i	c #22a6e7",
"5j	c #1ba5e5",
"5k	c #0698e1",
"5l	c #008dde",
"5m	c #008bdb",
"5n	c #43baeb",
"5o	c #1c72be",
"5p	c #86d1f2",
"5q	c #9adef9",
"5r	c #87daf8",
"5s	c #7cd4f6",
"5t	c #95d8f4",
"5u	c #5bc3f1",
"5v	c #53c0ef",
"5w	c #3eb6eb",
"5x	c #5cc0ec",
"5y	c #20a5e5",
"5z	c #1aa2e5",
"60	c #069ae2",
"61	c #c0ddf2",
"62	c #028edd",
"63	c #008bdc",
"64	c #89d1f2",
"65	c #98dff9",
"66	c #85d8f7",
"67	c #78d2f5",
"68	c #92d6f4",
"69	c #51bfef",
"6a	c #47baed",
"6b	c #39b3ea",
"6c	c #58beeb",
"6d	c #1ca3e6",
"6e	c #17a1e4",
"6f	c #0399e2",
"6g	c #008ddd",
"6h	c #018ddc",
"6i	c #008adb",
"6j	c #7cc9ef",
"6k	c #c9eaf9",
"6l	c #eff5fb",
"6m	c #82d7f7",
"6n	c #75d1f5",
"6o	c #90d5f4",
"6p	c #54c1ee",
"6q	c #44b9ec",
"6r	c #38b1eb",
"6s	c #54bdeb",
"6t	c #1aa4e6",
"6u	c #149ee3",
"6v	c #0094e0",
"6w	c #bcdbf2",
"6x	c #0089db",
"6y	c #0085da",
"6z	c #3eb7ea",
"70	c #1b6fbe",
"71	c #6cc3ed",
"72	c #d7edfb",
"73	c #dbecfa",
"74	c #eef5fb",
"75	c #a8e0f8",
"76	c #78d3f6",
"77	c #6bcdf3",
"78	c #87d1f2",
"79	c #40baed",
"7a	c #37b4eb",
"7b	c #2cace9",
"7c	c #4abaeb",
"7d	c #0d9fe4",
"7e	c #0899e2",
"7f	c #28aee6",
"7g	c #c6ddf1",
"7h	c #8cd0ee",
"7i	c #a5d5f1",
"7j	c #49bdeb",
"7k	c #095bb3",
"7l	c #46b0e9",
"7m	c #ace1f8",
"7n	c #f0f2fa",
"7o	c #c0e5f8",
"7p	c #d1e9f8",
"7q	c #e8eff9",
"7r	c #d4e7f6",
"7s	c #e2ecf8",
"7t	c #e1ebf7",
"7u	c #dce9f6",
"7v	c #bfdff4",
"7w	c #aad8f0",
"7x	c #d0e4f5",
"7y	c #c9def2",
"7z	c #0084db",
"80	c #0084d9",
"81	c #0082d5",
"82	c #044fa8",
"83	c #b5dbf2",
"84	c #a2dff8",
"85	c #81d9f8",
"86	c #cde9f9",
"87	c #a1ddf7",
"88	c #71d0f5",
"89	c #66cbf3",
"8a	c #64c8f1",
"8b	c #b5def4",
"8c	c #40b8ed",
"8d	c #3ab7ec",
"8e	c #32b1ea",
"8f	c #22a8e6",
"8g	c #18a4e6",
"8h	c #0a9de3",
"8i	c #0496e1",
"8j	c #23aae5",
"8k	c #0084da",
"8l	c #0e9de2",
"8m	c #4b98d2",
"8n	c #b4e4f9",
"8o	c #cee8f8",
"8p	c #6ecff4",
"8q	c #6accf3",
"8r	c #5bc4f0",
"8s	c #c1e1f6",
"8t	c #45baec",
"8u	c #42b8ec",
"8v	c #3ab2ea",
"8w	c #26a9e7",
"8x	c #a5d7f1",
"8y	c #11a1e4",
"8z	c #139ce3",
"90	c #0094df",
"91	c #33b2e7",
"92	c #5ebfea",
"93	c #065ab2",
"94	c #7ccaef",
"95	c #bce5f9",
"96	c #e5edf8",
"97	c #edeff9",
"98	c #88d4f5",
"99	c #60c7f1",
"9a	c #4ebff0",
"9b	c #c8e3f4",
"9c	c #3bb7ed",
"9d	c #39b3eb",
"9e	c #2faee9",
"9f	c #1ca5e7",
"9g	c #add8f1",
"9h	c #059be3",
"9i	c #0397e2",
"9j	c #13a5e2",
"9k	c #005dbb",
"9l	c #39a4e5",
"9m	c #8ad2f1",
"9n	c #7ad7f8",
"9o	c #d1e7f7",
"9p	c #d8e8f7",
"9q	c #dce7f6",
"9r	c #d3e5f5",
"9s	c #a2d5f1",
"9t	c #92d1f0",
"9u	c #8bceef",
"9v	c #8dcfef",
"9w	c #c0ddf1",
"9x	c #0089dc",
"9y	c #0171c7",
"9z	c #0b58af",
"a0	c #45a9e4",
"a1	c #80cdef",
"a2	c #84d7f7",
"a3	c #e7ecf8",
"a4	c #50c2f0",
"a5	c #47bcee",
"a6	c #c2e0f4",
"a7	c #82ccf0",
"a8	c #64c2ee",
"a9	c #58bfec",
"aa	c #67c3ed",
"ab	c #a3d4f0",
"ac	c #0197e1",
"ad	c #008ee0",
"ae	c #049ce2",
"af	c #0674cb",
"ag	c #0d5bb2",
"ah	c #2e99df",
"ai	c #3ba9e5",
"aj	c #aadbf3",
"ak	c #c3e1f7",
"al	c #48bdee",
"am	c #81ccf1",
"an	c #83cdef",
"ao	c #2eaee9",
"ap	c #24a8e7",
"aq	c #69c4ed",
"ar	c #3eb6e9",
"as	c #0598e2",
"at	c #86cfef",
"au	c #55bce9",
"av	c #056dc4",
"aw	c #105eb6",
"ax	c #2794db",
"ay	c #89c3e7",
"az	c #77c6ed",
"b0	c #3dbaee",
"b1	c #cfe4f6",
"b2	c #2cade9",
"b3	c #21aae7",
"b4	c #c3dff3",
"b5	c #0a9fe5",
"b6	c #3caee4",
"b7	c #70acdb",
"b8	c #0c63bb",
"b9	c #2587d3",
"ba	c #2689d5",
"bb	c #449bd8",
"bc	c #258fd7",
"bd	c #218ad5",
"be	c #3990d3",
"bf	c #1a71c4",
"bg	c #196bc1",
"                444n575p646j717l                ",
"            0j0k454o585q656k727m830j            ",
"        2c2u0k3o460n590q0q060c06840u949l        ",
"      1w2d2v370l474p0lXXXX077307850u959ma0      ",
"    1g1x2e0g383p484q5a0g0n6l747n868n969na1ah    ",
"    1h1y2f2w393q494r060808XX757o878o979oa2ai    ",
"  151i1z2g2x08064aXX5b5r666m767p888p989pa3ajax  ",
"  161j202hXX3aXX..4s5c5s676n777q898q999qa4akay  ",
"0x171k072i2y3b3r4b0a........0a0a8a8r9a0ta5alazb9",
"0y181l0d2j0d3c0e4c4t5d5t686o787r8b8s9b9ra6amb0ba",
"0z0c1m210e2z3d3s4d4u5e5u0h6p0r7s8c8t9c9sa7anb1bb",
"10191n222k303e3t4e4v5f5v690o797t8d8u9d9ta8aob2bc",
"111a1o232l0h3f3u4f4w0o0r6a6q7a7u8e8v9e9ua9apb3bd",
"121b1p242m313g3v4g4x5g5w6b6r7b0t8f8w9f9vaaaqb4be",
"131c1q252n323h3w4h0b////////0b7v0b8x9g9wabarb5bf",
"141d1r262o333i3x||4y5h5x6c6s7c7w8g8y9h++acasb6bg",
"  1e1s272p343j3y4i4z5i5y6d6t7d7x8h8z9i0padatb7  ",
"  1f1t282q353k3z||505j5z6e6u7e||8i909j++++aub8  ",
"    1u290f++++40||515k606f6v7f||8j09++0waeav    ",
"    1v2a2r0f3l094j520p61//6w7g7y09910w9xafaw    ",
"      2b2s0i3m414k535l0m6g6x7h7z8k920v9yag      ",
"        2t360i420m545m626h6y7i808l0v9k9z        ",
"            3n434l555n636i6z7j818m93            ",
"                4m565o0s0s707k82                "};