/* XPM */
static char * xpm_go[] = {
"24 24 241 2",
"  	c None",
"XX	c #ffffff",
"++	c #60c8f0",
"..	c #66cbf1",
"||	c #b0d7eb",
"//	c #53bfed",
"06	c #5ac3ee",
"07	c #6ccff2",
"08	c #70d2f3",
"09	c #55b8e7",
"0a	c #6cc3eb",
"0b	c #65c0e9",
"0c	c #4eb8eb",
"0d	c #74d5f4",
"0e	c #78caea",
"0f	c #5cbce8",
"0g	c #74d5f5",
"0h	c #4cb3e5",
"0i	c #68c1e9",
"0j	c #46b3e9",
"0k	c #70c9e9",
"0l	c #e1edf6",
"0m	c #0b4aab",
"0n	c #084aab",
"0o	c #0749ac",
"0p	c #0d61be",
"0q	c #1465c1",
"0r	c #186fc7",
"0s	c #053ea1",
"0t	c #1157af",
"0u	c #3e93d0",
"0v	c #6ebfe5",
"0w	c #71caec",
"0x	c #7bd1f0",
"0y	c #80d2f2",
"0z	c #8fd9f4",
"10	c #59beeb",
"11	c #39a7e2",
"12	c #2587d5",
"13	c #1a78ce",
"14	c #053c9c",
"15	c #0741a0",
"16	c #479bd5",
"17	c #8fd4ef",
"18	c #83d0ee",
"19	c #64c0ea",
"1a	c #74c9ec",
"1b	c #7dccef",
"1c	c #58bfeb",
"1d	c #4cb7eb",
"1e	c #55c1ee",
"1f	c #5fc8f0",
"1g	c #50bcea",
"1h	c #2087d6",
"1i	c #2085d5",
"1j	c #013696",
"1k	c #0f53ab",
"1l	c #61b8e2",
"1m	c #8ed6f0",
"1n	c #58bae8",
"1o	c #77caec",
"1p	c #4fb9ea",
"1q	c #43b1e9",
"1r	c #4eb7eb",
"1s	c #5bc3ee",
"1t	c #62caf1",
"1u	c #67cff2",
"1v	c #309fe0",
"1w	c #228ad8",
"1x	c #023490",
"1y	c #0e51ab",
"1z	c #67bde4",
"20	c #84cfed",
"21	c #6ec5e9",
"22	c #51b6e7",
"23	c #5bbce8",
"24	c #3bade8",
"25	c #67ccf1",
"26	c #32a4e2",
"27	c #2490dc",
"28	c #023696",
"29	c #53aede",
"2a	c #79cdeb",
"2b	c #4ab4e4",
"2c	c #54b7e7",
"2d	c #66c1e9",
"2e	c #6dd0f2",
"2f	c #2899df",
"2g	c #002d8b",
"2h	c #358cce",
"2i	c #6ec8ea",
"2j	c #55b9e6",
"2k	c #4ab2e5",
"2l	c #73d3f4",
"2m	c #60cdf0",
"2n	c #2396e0",
"2o	c #0745a1",
"2p	c #5cb9e3",
"2q	c #6ecae9",
"2r	c #70c6e9",
"2s	c #7bdaf7",
"2t	c #33a7e5",
"2u	c #002f8c",
"2v	c #2376c1",
"2w	c #67c7e9",
"2x	c #6ec9e9",
"2y	c #77d7f6",
"2z	c #59c5ed",
"30	c #279be2",
"31	c #002c8b",
"32	c #41a1d6",
"33	c #69c5e9",
"34	c #c6e1f1",
"35	c #0b55b3",
"36	c #72d4f4",
"37	c #75d6f6",
"38	c #71d4f3",
"39	c #269be2",
"3a	c #002989",
"3b	c #55b2e0",
"3c	c #67c4e8",
"3d	c #bcd9ea",
"3e	c #7edbf7",
"3f	c #249ae1",
"3g	c #013795",
"3h	c #5ebce4",
"3i	c #67c3e8",
"3j	c #71cae9",
"3k	c #4eb2e5",
"3l	c #7ddaf6",
"3m	c #2da3e5",
"3n	c #40afe3",
"3o	c #3c9cda",
"3p	c #2182d0",
"3q	c #39a9e5",
"3r	c #115db7",
"3s	c #1566c0",
"3t	c #6ec4eb",
"3u	c #61c2ea",
"3v	c #45b3e9",
"3w	c #6bc4eb",
"3x	c #35abe5",
"3y	c #3eaee8",
"3z	c #4bb7e8",
"40	c #36a9e4",
"41	c #3fafe8",
"42	c #3aabe2",
"43	c #4bb2e5",
"44	c #5cbde9",
"45	c #6cc4ea",
"46	c #30a5e4",
"47	c #39ace6",
"48	c #41b2ea",
"49	c #48b7eb",
"4a	c #51bced",
"4b	c #57c4ef",
"4c	c #5ec8f0",
"4d	c #65cef3",
"4e	c #6bd0f3",
"4f	c #6dd0f3",
"4g	c #71d2f3",
"4h	c #5abbe7",
"4i	c #50b6e7",
"4j	c #4eb3e5",
"4k	c #4eb2e4",
"4l	c #52afe3",
"4m	c #41a5e0",
"4n	c #1680d2",
"4o	c #1a80d2",
"4p	c #1b80d1",
"4q	c #1d7fcf",
"4r	c #1c7dcd",
"4s	c #1c7dcc",
"4t	c #1b7dcb",
"4u	c #1d7bcb",
"4v	c #207aca",
"4w	c #67cff1",
"4x	c #71d3f4",
"4y	c #6fc9e9",
"4z	c #4db7e6",
"50	c #60beea",
"51	c #d4e9f5",
"52	c #c5e3f2",
"53	c #36aadf",
"54	c #53b6e8",
"55	c #74d9f7",
"56	c #71d3f3",
"57	c #33a6e0",
"58	c #41b0e2",
"59	c #003ca4",
"5a	c #63cef4",
"5b	c #6ed1f3",
"5c	c #34a6e0",
"5d	c #46aae0",
"5e	c #fefafc",
"5f	c #f8fcfa",
"5g	c #002c98",
"5h	c #4bb9ea",
"5i	c #69cef3",
"5j	c #38ace0",
"5k	c #53b6e5",
"5l	c #54a9de",
"5m	c #00399f",
"5n	c #37a1e1",
"5o	c #64cdf3",
"5p	c #44b0e2",
"5q	c #3faee3",
"5r	c #56b9e8",
"5s	c #51a7dd",
"5t	c #1665ba",
"5u	c #5fcaf1",
"5v	c #61c9f0",
"5w	c #5bbce6",
"5x	c #3eaee2",
"5y	c #5ebee9",
"5z	c #69b2de",
"60	c #5ba2d3",
"61	c #59c7f2",
"62	c #5bc4ee",
"63	c #3bace2",
"64	c #5dbde8",
"65	c #6ac6ea",
"66	c #0668c7",
"67	c #cbe4ef",
"68	c #0355b7",
"69	c #4bb9ec",
"6a	c #54c0ee",
"6b	c #69c2ea",
"6c	c #44ade4",
"6d	c #075cbc",
"6e	c #0553b8",
"6f	c #50baec",
"6g	c #53c0ed",
"6h	c #6bc6ec",
"6i	c #32a5e2",
"6j	c #48b5ea",
"6k	c #4fb8eb",
"6l	c #6ec4ec",
"6m	c #62c2eb",
"6n	c #115eb7",
"6o	c #1362be",
"                2u313a3g3g3a312u                ",
"            2g2o2v323b3h3h3b322v2o2g            ",
"        1x282h2p2w333c3i3i3c332w2p2h281x        ",
"      1j1y292i2q2x4y0k3j3j0k0k2x2q2i291y1j      ",
"    141k1z2a0e2r4h4z53575c5j5p5w2r0e2a1z1k14    ",
"    151l200e2j424i5054583n3n5q5x632j0e201l15    ",
"  0s161m212b2k434j510l3k3k0h0h0h0h2k2b211m160s  ",
"  0t170i222c09094k52XX0l5d5k5r0909092c220i170t  ",
"0m0u181n230f0f444l34XXXX5e5l3o5y640f0f231n180u0m",
"0n0v190b0b2d0i454m34XXXXXXXX5s3o656b2d0b0b190v0n",
"0o0w0a0a3t3w3z464n||XXXXXXXXXX5z666c6h6l0a0a0w0o",
"3r0x1a1o3u3x40474o||XXXXXXXXXXXX0l6d6i6m1o1a0x6n",
"3s0y1b1p243y41484p||XXXXXXXXXXXX676e3q241p1b0y6o",
"0p0z1c1q3v0j0j494q||XXXXXXXXXX60683q6j0j1q1c0z0p",
"0q101d1r0c0c0c4a4r||XXXXXXXX5t3p696f6k0c1r1d100q",
"0r111e////////4b4s||XXXX5f5m3p616a6g//////1e110r",
"  121f1s0606064c4t||XX3d5g5n5u62060606061s1f12  ",
"  131g1t++++++4d4u||3d595h5o5v++++++++++1t1g13  ",
"    1h1u25....4e4v35355a5i............251u1h    ",
"    1i1v0d2e074f4w36555b0707070707072e0d1v1i    ",
"      1w260d2l4g4x36560808080808082l0d261w      ",
"        272f2m2s2y370g0g0g0g372y2s2m2f27        ",
"            2n2t2z383e3l3l3e382z2t2n            ",
"                30393f3m3m3f3930                "};