/* XPM */
static char * xpm_go_back[] = {
"24 24 243 2",
"  	c None",
"XX	c #ffffff",
"++	c #004db5",
"..	c #69ccf2",
"||	c #6fd0f2",
"//	c #69cff3",
"06	c #73d3f3",
"07	c #1158b0",
"08	c #7ccceb",
"09	c #0948a2",
"0a	c #003995",
"0b	c #51b6e6",
"0c	c #3077bf",
"0d	c #3094da",
"0e	c #6acdf3",
"0f	c #70d1f2",
"0g	c #0c4dab",
"0h	c #094cac",
"0i	c #074aac",
"0j	c #0e62bf",
"0k	c #1567c2",
"0l	c #1a72c8",
"0m	c #0640a0",
"0n	c #4395d1",
"0o	c #72c1e7",
"0p	c #93dcf5",
"0q	c #5fbfec",
"0r	c #3da9e3",
"0s	c #2789d6",
"0t	c #1d79ce",
"0u	c #06409c",
"0v	c #0743a1",
"0w	c #4b9ed6",
"0x	c #95d6f0",
"0y	c #88d2ef",
"0z	c #58c3ee",
"10	c #63caf1",
"11	c #55beeb",
"12	c #2288d7",
"13	c #2486d6",
"14	c #023997",
"15	c #1255ad",
"16	c #67bbe4",
"17	c #6cd1f3",
"18	c #339fe0",
"19	c #258cd9",
"1a	c #013793",
"1b	c #0f54ac",
"1c	c #6dbfe6",
"1d	c #87d1ef",
"1e	c #78d7f4",
"1f	c #36a5e3",
"1g	c #2691dd",
"1h	c #013897",
"1i	c #59b1e0",
"1j	c #7dcfed",
"1k	c #78d7f5",
"1l	c #2b99df",
"1m	c #00308d",
"1n	c #3990d0",
"1o	c #72caeb",
"1p	c #58bae7",
"1q	c #4fb5e5",
"1r	c #76d4f4",
"1s	c #65cff0",
"1t	c #2696df",
"1u	c #60bbe5",
"1v	c #72cbea",
"1w	c #73c7ea",
"1x	c #7fdcf7",
"1y	c #37a8e6",
"1z	c #00328e",
"20	c #2678c2",
"21	c #6bc9e8",
"22	c #72caea",
"23	c #0546a5",
"24	c #7ad8f6",
"25	c #5cc7ee",
"26	c #2b9ce3",
"27	c #46a2d8",
"28	c #6cc6e9",
"29	c #73cbea",
"2a	c #78d7f6",
"2b	c #75d6f3",
"2c	c #299ce3",
"2d	c #5ab4e2",
"2e	c #2784d0",
"2f	c #279be3",
"2g	c #82ddf6",
"2h	c #30a5e6",
"2i	c #c5e1f0",
"2j	c #44a4de",
"2k	c #8bb9dc",
"2l	c #44a6de",
"2m	c #1360b8",
"2n	c #1565bf",
"2o	c #76ccef",
"2p	c #82d6f2",
"2q	c #88d8f4",
"2r	c #67c2eb",
"2s	c #72c9ef",
"2t	c #62b3e2",
"2u	c #4792d0",
"2v	c #60c8f1",
"2w	c #50b9ed",
"2x	c #91d9f0",
"2y	c #6bc2ea",
"2z	c #5dbce7",
"30	c #6bc5ec",
"31	c #58aee2",
"32	c #2e71b9",
"33	c #57c2f2",
"34	c #57c1ee",
"35	c #5dc4ee",
"36	c #67cbf1",
"37	c #71c6ea",
"38	c #55b7e7",
"39	c #62c0e9",
"3a	c #53a9e0",
"3b	c #2674bf",
"3c	c #5cc8f2",
"3d	c #5ec5ee",
"3e	c #64c9f0",
"3f	c #4db4e4",
"3g	c #5abae8",
"3h	c #5fbce6",
"3i	c #2478c5",
"3j	c #e5f0f4",
"3k	c #fafdfa",
"3l	c #63ccf2",
"3m	c #65caf0",
"3n	c #56b7e6",
"3o	c #277ec8",
"3p	c #d7e6f2",
"3q	c #fcfefb",
"3r	c #2f95da",
"3s	c #6bd1f4",
"3t	c #3fafe4",
"3u	c #4fb3e4",
"3v	c #2c86ce",
"3w	c #d8e9f0",
"3x	c #fbfefb",
"3y	c #3ba3e1",
"3z	c #6fd3f5",
"40	c #5ebee8",
"41	c #41abe1",
"42	c #318fd2",
"43	c #dae8f3",
"44	c #b9d8e9",
"45	c #52bfed",
"46	c #75d6f5",
"47	c #74d4f3",
"48	c #4bb7e3",
"49	c #2785ce",
"4a	c #dcebf5",
"4b	c #b6d8ea",
"4c	c #56c3f0",
"4d	c #78d8f5",
"4e	c #6bc5e8",
"4f	c #71c8eb",
"4g	c #eef4f9",
"4h	c #cdeaf3",
"4i	c #68d3f6",
"4j	c #7ad9f7",
"4k	c #82ddf7",
"4l	c #64bfe6",
"4m	c #69c4e9",
"4n	c #68c3eb",
"4o	c #3e99d7",
"4p	c #2e8bd0",
"4q	c #207bca",
"4r	c #bcddee",
"4s	c #81b5da",
"4t	c #71d3f5",
"4u	c #64bfe7",
"4v	c #6ac4e8",
"4w	c #75cbea",
"4x	c #36a8e1",
"4y	c #44b2e5",
"4z	c #53b9e7",
"50	c #41a4dc",
"51	c #c7e1f1",
"52	c #8bb8dc",
"53	c #71dcfb",
"54	c #73dbfb",
"55	c #7adffa",
"56	c #7bdef9",
"57	c #79d9f6",
"58	c #81dcf6",
"59	c #6ac5e8",
"5a	c #74cbea",
"5b	c #3bace1",
"5c	c #44b1e4",
"5d	c #44a1de",
"5e	c #8ab7db",
"5f	c #77d6f5",
"5g	c #48b1e3",
"5h	c #43b0e4",
"5i	c #5ebde7",
"5j	c #42b0e3",
"5k	c #c5e0f1",
"5l	c #3faee3",
"5m	c #c6e2f1",
"5n	c #8bbadd",
"5o	c #c6e2f3",
"5p	c #8ebadd",
"5q	c #4eb6e4",
"5r	c #46a6de",
"5s	c #cde6f3",
"5t	c #99c5e2",
"5u	c #73c8eb",
"5v	c #45a4dd",
"5w	c #449dda",
"5x	c #4199d8",
"5y	c #3d96d4",
"5z	c #227fc9",
"60	c #004ab0",
"61	c #0044a9",
"62	c #003aa1",
"63	c #68cef2",
"64	c #92d9f0",
"65	c #6cc3eb",
"66	c #5dbee9",
"67	c #6ac4eb",
"68	c #72c7ee",
"69	c #7ed1ef",
"6a	c #56c1ed",
"6b	c #4cbbee",
"6c	c #57c1f2",
"6d	c #5ccaf3",
"6e	c #61caf1",
"6f	c #67ccf1",
"6g	c #67c1eb",
"6h	c #6fc4ec",
"6i	c #77caec",
"6j	c #81cdef",
"6k	c #5abfec",
"6l	c #4fb8ec",
"6m	c #75ccee",
"6n	c #80d3f1",
"6o	c #85d4f2",
"6p	c #135fb7",
"6q	c #1768c1",
"                1z090a0a0a0a091z                ",
"            1m0920272d4l4u2d2720091m            ",
"        1a1h1n1u21284e4m4v5928211u1n1h1a        ",
"      141b1i1o1v22294f4n4w5a29221v1o1i1b14      ",
"    0u151c1j081w40482e2e4x5b5g5i1w081j1c150u    ",
"    0v161d081p3t41494g4o4y5c5h5j5l1p081d160v    ",
"  0m0w2x373f1q3u424aXX4p4z0b0b0b0b1q5q5u640w0m  ",
"  070x2y383g3n3v43XXXX4q505d2j2j2l2l5r5v650x07  ",
"0g0n0y2z393h3o3wXXXXXX4r512i2i5k5m5o5s5w660y0n0g",
"0h0o2r303a3i3pXXXXXXXXXXXXXXXXXXXXXXXX5x676g0o0h",
"0i2o2s313b3jXXXXXXXXXXXXXXXXXXXXXXXXXX5y686h6m0i",
"2m2p2t32XXXXXXXXXXXXXXXXXXXXXXXXXXXXXX5z696i6n6p",
"2n2q2u0cXXXXXXXXXXXXXXXXXXXXXXXXXXXXXX++6a6j6o6q",
"0j0p2v0d0c3kXXXXXXXXXXXXXXXXXXXXXXXXXX606b6k0p0j",
"0k0q2w330d0c3qXXXXXXXXXXXXXXXXXXXXXXXX616c6l0q0k",
"0l0r0z343c0d073xXXXXXX4s525e2k2k5n5p5t626d0z0r0l",
"  0s10353d3l3r0744XXXX++++++++++++++++++6e100s  ",
"  0t11363e3m3s3y234bXX++53////////////636f110t  ",
"    12170e..0e3z45++4h++54............0e1712    ",
"    13181e0f||0f464c23++55||||||||||0f1e1813    ",
"      191f1k1r06474d4i++56060606061r1k1f19      ",
"        1g1l1s1x242a4j4t575f2a241x1s1l1g        ",
"            1t1y252b4k2g582g2b251y1t            ",
"                262c2f2h2h2f2c26                "};