/* XPM */
static char * xpm_green_bookmark[] = {
"24 24 187 2",
"  	c None",
"XX	c #a9fb6f",
"++	c #5ad614",
"..	c #55d214",
"||	c #005900",
"//	c #4ecd14",
"06	c #005500",
"07	c #28b106",
"08	c #a9fb70",
"09	c #aeff3f",
"0a	c #77c321",
"0b	c #6b9f36",
"0c	c #6adf12",
"0d	c #68dd12",
"0e	c #65db12",
"0f	c #006d00",
"0g	c #61d814",
"0h	c #5ad314",
"0i	c #53d014",
"0j	c #51d015",
"0k	c #50ce14",
"0l	c #005600",
"0m	c #49cb15",
"0n	c #48cb15",
"0o	c #46c915",
"0p	c #47ce16",
"0q	c #005000",
"0r	c #47cd16",
"0s	c #0c8100",
"0t	c #199104",
"0u	c #005300",
"0v	c #2cb008",
"0w	c #5fce33",
"0x	c #27a70a",
"0y	c #28af06",
"0z	c #a9f970",
"10	c #b4ff45",
"11	c #66d40a",
"12	c #219f0a",
"13	c #85f303",
"14	c #88f30c",
"15	c #64d30d",
"16	c #1c9409",
"17	c #afff3c",
"18	c #7ee311",
"19	c #83f20e",
"1a	c #5bce0d",
"1b	c #158d06",
"1c	c #2bb308",
"1d	c #393345",
"1e	c #7ff50b",
"1f	c #7ceb11",
"1g	c #57c60e",
"1h	c #138604",
"1i	c #5fd032",
"1j	c #c6ff5f",
"1k	c #83f300",
"1l	c #1f1631",
"1m	c #7ef50e",
"1n	c #73e510",
"1o	c #75e410",
"1p	c #4dc30e",
"1q	c #0c8103",
"1r	c #2ab109",
"1s	c #8cf40e",
"1t	c #80e510",
"1u	c #393344",
"1v	c #1f122f",
"1w	c #3c5f1c",
"1x	c #77ee0f",
"1y	c #73e210",
"1z	c #6ee112",
"20	c #6fe413",
"21	c #48be0e",
"22	c #077a00",
"23	c #26a606",
"24	c #88f20f",
"25	c #80f70a",
"26	c #7ff50e",
"27	c #7aee0f",
"28	c #73e30f",
"29	c #6de012",
"2a	c #69de12",
"2b	c #6ae013",
"2c	c #43ba0e",
"2d	c #027100",
"2e	c #1d9e04",
"2f	c #7eed13",
"2g	c #74e30f",
"2h	c #72e210",
"2i	c #6ce010",
"2j	c #61db14",
"2k	c #63dd15",
"2l	c #3fb40e",
"2m	c #199603",
"2n	c #7ae916",
"2o	c #6cdf0e",
"2p	c #6cdf12",
"2q	c #61da14",
"2r	c #5bd714",
"2s	c #5fd815",
"2t	c #3bb10e",
"2u	c #006700",
"2v	c #118c00",
"2w	c #74e516",
"2x	c #67dc10",
"2y	c #66dd12",
"2z	c #63da14",
"30	c #56d314",
"31	c #5ad715",
"32	c #34ae0b",
"33	c #006300",
"34	c #0f8600",
"35	c #9ae374",
"36	c #6de218",
"37	c #62db10",
"38	c #60d814",
"39	c #56d214",
"3a	c #54d114",
"3b	c #55d317",
"3c	c #31ad0b",
"3d	c #005c00",
"3e	c #088000",
"3f	c #95e170",
"3g	c #67de1a",
"3h	c #5dd812",
"3i	c #58d314",
"3j	c #51ce15",
"3k	c #51cf14",
"3l	c #4fd216",
"3m	c #2eaa0b",
"3n	c #037800",
"3o	c #8ddc6f",
"3p	c #62de1a",
"3q	c #57d212",
"3r	c #49ce15",
"3s	c #4ed016",
"3t	c #2ba80b",
"3u	c #007200",
"3v	c #8ad86b",
"3w	c #5cda1a",
"3x	c #55d212",
"3y	c #48cd15",
"3z	c #49cc15",
"40	c #4ace16",
"41	c #27a60b",
"42	c #85d768",
"43	c #59d71a",
"44	c #4fcd14",
"45	c #4bcd15",
"46	c #44ca15",
"47	c #25a10b",
"48	c #006500",
"49	c #80d367",
"4a	c #56d41a",
"4b	c #4acd14",
"4c	c #49cd15",
"4d	c #47ca15",
"4e	c #47cd17",
"4f	c #48d217",
"4g	c #24a40b",
"4h	c #006100",
"4i	c #79cf64",
"4j	c #52d41a",
"4k	c #47ca14",
"4l	c #118402",
"4m	c #29ab0e",
"4n	c #33b611",
"4o	c #29ac0c",
"4p	c #005b00",
"4q	c #76ce60",
"4r	c #4fd11a",
"4s	c #45c814",
"4t	c #48ce16",
"4u	c #005700",
"4v	c #6fca5e",
"4w	c #4cd11a",
"4x	c #45cc15",
"4y	c #005400",
"4z	c #6bc85a",
"50	c #4ad21b",
"51	c #28aa0c",
"52	c #005200",
"53	c #6bc559",
"54	c #35b812",
"55	c #004d00",
"56	c #67cb52",
"        1c1i1r                                  ",
"      07XX1jXX23                                ",
"    0708091k1sXX2e                              ",
"  0y08170a0b1t24XX2m                            ",
"0v0z090a    1u252fXX2v                          ",
"0w10130b    1v262g2nXX34                        ",
"0x1114181d1l1w272h2o2w353e                      ",
"  1215191e1m1x282i2p2x363f3n                    ",
"    161a1f1n1y290c0d2y373g3o3u                  ",
"      1b1g1o1z0c0d0e2z383h3p3v0f                ",
"        1h1p202a0e2q0g++++3q3w4248              ",
"          1q212b2j0g++0h3i..3x43494h            ",
"            222c2k2r0h39..0i0j444a4i4p          ",
"              2d2l2s30..0i0j0k//4b4j4q4u        ",
"                0f2t313a3j0k//454c4k4r4v4y      ",
"                  2u323b3k//3y0m0n0o4s4w4z52    ",
"                    333c3l3r0m0n4d0r4t4x505355  ",
"                      3d3m3s3z0o0p4l0s0t51545606",
"                        ||3t40464e0s    0u  0u||",
"                          0l410p0r0t            ",
"                            06474f4m            ",
"                              0q4g4n            ",
"                                0q4o06          ",
"                                  0l||          "};