/* XPM */
static char * xpm_hard_disk[] = {
"24 24 218 2",
"  	c None",
"XX	c #bec1c3",
"++	c #464648",
"..	c #8d8f92",
"||	c #ebeced",
"//	c #d2d4d6",
"06	c #454547",
"07	c #57585b",
"08	c #d9dadd",
"09	c #72757a",
"0a	c #595a5d",
"0b	c #464547",
"0c	c #75787c",
"0d	c #535457",
"0e	c #515255",
"0f	c #75787d",
"0g	c #85888c",
"0h	c #e6e7e8",
"0i	c #c7c8cc",
"0j	c #5b5c5f",
"0k	c #5f6165",
"0l	c #73767b",
"0m	c #d0d3d5",
"0n	c #fcfbfc",
"0o	c #ebecec",
"0p	c #555659",
"0q	c #4b4b4f",
"0r	c #72767a",
"0s	c #73767a",
"0t	c #73777b",
"0u	c #bdbfc1",
"0v	c #cfd1d2",
"0w	c #5a5b5f",
"0x	c #545458",
"0y	c #898a8c",
"0z	c #848589",
"10	c #7d7f81",
"11	c #77787b",
"12	c #707275",
"13	c #6b6d70",
"14	c #666868",
"15	c #636365",
"16	c #58585b",
"17	c #686a6f",
"18	c #d7d9da",
"19	c #c8cbcd",
"1a	c #b0b4b6",
"1b	c #9a9ca2",
"1c	c #757679",
"1d	c #67696d",
"1e	c #5c5d61",
"1f	c #bbbbbe",
"1g	c #75797d",
"1h	c #fafafb",
"1i	c #b1b4b6",
"1j	c #999ca0",
"1k	c #818386",
"1l	c #5a5c5f",
"1m	c #c3c5c7",
"1n	c #d7d9db",
"1o	c #e9eaea",
"1p	c #d7d8da",
"1q	c #c6c8cb",
"1r	c #b1b4b7",
"1s	c #9c9fa4",
"1t	c #8a8c8f",
"1u	c #78797d",
"1v	c #cfcfd0",
"1w	c #e4e5e6",
"1x	c #bdc0c2",
"1y	c #d8d9da",
"1z	c #c1c4c6",
"20	c #a9aeb2",
"21	c #91959a",
"22	c #7a7d82",
"23	c #66686b",
"24	c #55565b",
"25	c #909296",
"26	c #f2f3f4",
"27	c #e8e9e9",
"28	c #dadbde",
"29	c #c9c9cd",
"2a	c #b4b5b9",
"2b	c #9c9fa3",
"2c	c #84868a",
"2d	c #d1d3d6",
"2e	c #e1e3e3",
"2f	c #bec0c3",
"2g	c #aaacb0",
"2h	c #989b9f",
"2i	c #88888d",
"2j	c #78787d",
"2k	c #c7c9ca",
"2l	c #b3b7b9",
"2m	c #97999e",
"2n	c #7d8084",
"2o	c #696d71",
"2p	c #595b5d",
"2q	c #e8e9ea",
"2r	c #dbdbdf",
"2s	c #cbcbce",
"2t	c #b4b8bc",
"2u	c #9fa2a5",
"2v	c #535356",
"2w	c #eceded",
"2x	c #dadcde",
"2y	c #cacccf",
"2z	c #b7babd",
"30	c #a5a8ac",
"31	c #7d7e82",
"32	c #818286",
"33	c #525356",
"34	c #d6d7d7",
"35	c #a4a6aa",
"36	c #898c91",
"37	c #72757c",
"38	c #48494e",
"39	c #4f5056",
"3a	c #fafafa",
"3b	c #b3b5b9",
"3c	c #9ca0a3",
"3d	c #838589",
"3e	c #d9d9dc",
"3f	c #c9cbce",
"3g	c #b5b8bb",
"3h	c #a1a4a8",
"3i	c #8e9094",
"3j	c #7d7e83",
"3k	c #74777b",
"3l	c #d5d7d7",
"3m	c #a3a6ab",
"3n	c #8a8d91",
"3o	c #71757a",
"3p	c #4e4f53",
"3q	c #fbfafb",
"3r	c #e6e7e7",
"3s	c #c8c9cd",
"3t	c #b0b3b7",
"3u	c #999da1",
"3v	c #818487",
"3w	c #dedfe0",
"3x	c #ced1d2",
"3y	c #b9babd",
"3z	c #a1a5a9",
"40	c #929599",
"41	c #808286",
"42	c #717277",
"43	c #caccce",
"44	c #b6babc",
"45	c #9b9da4",
"46	c #83868d",
"47	c #707379",
"48	c #5f6065",
"49	c #4d4e53",
"4a	c #56575a",
"4b	c #cdcfd0",
"4c	c #babec0",
"4d	c #9497a2",
"4e	c #5e6e57",
"4f	c #445b3c",
"4g	c #4e4957",
"4h	c #535259",
"4i	c #58595c",
"4j	c #8e9194",
"4k	c #cdd0d1",
"4l	c #bcbec6",
"4m	c #798c5b",
"4n	c #cbf051",
"4o	c #9ee33a",
"4p	c #397c2d",
"4q	c #4d4952",
"4r	c #464647",
"4s	c #86878a",
"4t	c #ebebec",
"4u	c #d3d5d7",
"4v	c #bfc0c8",
"4w	c #75993f",
"4x	c #ddf16d",
"4y	c #b1e344",
"4z	c #3b9729",
"50	c #46414c",
"51	c #64666a",
"52	c #78797c",
"53	c #d8dadc",
"54	c #c1c4c5",
"55	c #bfc1c8",
"56	c #697960",
"57	c #88d631",
"58	c #5eca27",
"59	c #33672f",
"5a	c #535159",
"5b	c #5f6164",
"5c	c #b3b6ba",
"5d	c #787c80",
"5e	c #d2d4d4",
"5f	c #bfc2c4",
"5g	c #a2a3ab",
"5h	c #6c6a77",
"5i	c #55505f",
"5j	c #625f69",
"5k	c #58585e",
"5l	c #5d5e61",
"5m	c #59595c",
"5n	c #606164",
"5o	c #d8dadb",
"5p	c #c4cacc",
"5q	c #abadb1",
"5r	c #93969a",
"5s	c #7f8286",
"5t	c #6b6d71",
"5u	c #616164",
"5v	c #848586",
"5w	c #686b6e",
"5x	c #606066",
"5y	c #585a5d",
"5z	c #515154",
"60	c #444546",
"61	c #47474a",
"                                                ",
"                                                ",
"                                                ",
"                                                ",
"                                                ",
"        0k25........................4j4s51      ",
"      1l1v260o||||||||||||||||||||||||4t52      ",
"    071m1w0m2d////////////////////////4u535b    ",
"  161f1n1xXXXXXXXXXXXXXXXXXXXXXXXXXXXXXX545c5m  ",
"0x171g090l090l0c0r0s0t090s3k0r0t0c0f0f0c0f5d5n0p",
"0y181h1o1y0n2e2k0n2w343a0o3l3q3w434b4k0v0v5e5o5v",
"0z190h1p1z270m2l2q2x0u0h3e0u3r3x444c4l4v555f5p5w",
"101a081q20282f2m2r2y35083f3m083y454d4m4w565g5q5x",
"111b0i1r21292g2n2s2z360i3g3n3s3z464e4n4x575h5r5y",
"120g1i1s222a2h2o2t30373b3h3o3t40474f4o4y585i5s5z",
"131c1j1t232b2i2p2u31383c3i0k3u41484g4p4z595j5t0q",
"141d1k1u242c2j0q0g32393d3j3p3v42494h4q505a5k0w60",
"151e0j0a0a070p072v330d0e0e0d0e0d4a4i0a0w0j5l5u61",
"060606060b0b++++++++++++++++++++++++4r0b060606++",
"                                                ",
"                                                ",
"                                                ",
"                                                ",
"                                                "};