/* XPM */
static char * xpm_heart[] = {
"24 24 296 2",
"  	c None",
"XX	c #fd8b6d",
"++	c #f8221a",
"..	c #f9331f",
"||	c #f92f1e",
"//	c #fd8d6f",
"06	c #f93d24",
"07	c #f93b23",
"08	c #f93822",
"09	c #f93922",
"0a	c #f93620",
"0b	c #f92c1d",
"0c	c #f93721",
"0d	c #f92d1d",
"0e	c #f8241b",
"0f	c #f81d18",
"0g	c #f92b1d",
"0h	c #f9281c",
"0i	c #fa2831",
"0j	c #fe9573",
"0k	c #fe9775",
"0l	c #fd9675",
"0m	c #fd9273",
"0n	c #fd8f70",
"0o	c #fd9574",
"0p	c #fd9171",
"0q	c #fd8e70",
"0r	c #fb4729",
"0s	c #f94128",
"0t	c #f93f25",
"0u	c #b50005",
"0v	c #fd8e6f",
"0w	c #fd8a6c",
"0x	c #f92a1d",
"0y	c #f8251b",
"0z	c #f93f27",
"10	c #f93520",
"11	c #f9301e",
"12	c #f8281c",
"13	c #f81f19",
"14	c #f9321f",
"15	c #f9291d",
"16	c #f82119",
"17	c #feb6a0",
"18	c #f81e19",
"19	c #fd8265",
"1a	c #f82019",
"1b	c #f81c18",
"1c	c #f8271b",
"1d	c #fc7e64",
"1e	c #f8231a",
"1f	c #fd8064",
"1g	c #fc7c62",
"1h	c #fc7961",
"1i	c #fc7860",
"1j	c #f8262f",
"1k	c #f8353a",
"1l	c #f94648",
"1m	c #f22d31",
"1n	c #ee2029",
"1o	c #eb1f24",
"1p	c #fc6561",
"1q	c #ffbca7",
"1r	c #ffbda3",
"1s	c #ffad8c",
"1t	c #ffa787",
"1u	c #fe9276",
"1v	c #f45a54",
"1w	c #e51a1f",
"1x	c #d50003",
"1y	c #fe8a7c",
"1z	c #ffc5ac",
"20	c #fe9b7b",
"21	c #fe9370",
"22	c #fd916f",
"23	c #fd8867",
"24	c #fd7f61",
"25	c #fe7e5d",
"26	c #f8361d",
"27	c #df0a0a",
"28	c #d00206",
"29	c #fc5b59",
"2a	c #ffcab5",
"2b	c #fc7150",
"2c	c #fa3e23",
"2d	c #fc3d21",
"2e	c #e71511",
"2f	c #cf0308",
"2g	c #f82a32",
"2h	c #ffad9b",
"2i	c #fea789",
"2j	c #fd9877",
"2k	c #fd9173",
"2l	c #fb4e2f",
"2m	c #fb472a",
"2n	c #fc4226",
"2o	c #fa3e25",
"2p	c #ef2319",
"2q	c #d2040a",
"2r	c #f82d35",
"2s	c #ffcfb8",
"2t	c #fe9876",
"2u	c #fd8c6f",
"2v	c #fc7956",
"2w	c #fb492a",
"2x	c #f93e27",
"2y	c #fb3e23",
"2z	c #ef241a",
"30	c #cd040a",
"31	c #fb474b",
"32	c #ffbc9f",
"33	c #fe8f6f",
"34	c #fd9774",
"35	c #fd8e71",
"36	c #fd8d72",
"37	c #fc603f",
"38	c #fb4229",
"39	c #f94028",
"3a	c #f93b22",
"3b	c #fc3922",
"3c	c #ee2118",
"3d	c #c4040a",
"3e	c #fb494d",
"3f	c #ffb99c",
"3g	c #fe8d6b",
"3h	c #fd9473",
"3i	c #fd8f6f",
"3j	c #fb4829",
"3k	c #fb4629",
"3l	c #f94228",
"3m	c #fc321f",
"3n	c #ed1d15",
"3o	c #bd0207",
"3p	c #f92831",
"3q	c #ffcbb1",
"3r	c #fd8763",
"3s	c #fd8f71",
"3t	c #fc795a",
"3u	c #fb4427",
"3v	c #f94328",
"3w	c #f94027",
"3x	c #f93c24",
"3y	c #f9311e",
"3z	c #fc2a1d",
"40	c #ea1815",
"41	c #fa3039",
"42	c #fe8b7e",
"43	c #fe9776",
"44	c #fd8c6b",
"45	c #fc6a4c",
"46	c #fb4226",
"47	c #f93a23",
"48	c #f92e1e",
"49	c #fb241b",
"4a	c #e91413",
"4b	c #aa0004",
"4c	c #f93139",
"4d	c #ffb7a0",
"4e	c #fd896c",
"4f	c #fd896b",
"4g	c #fc5b3a",
"4h	c #f94026",
"4i	c #f93c23",
"4j	c #fc1c18",
"4k	c #e71011",
"4l	c #a00001",
"4m	c #fa464b",
"4n	c #ffa493",
"4o	c #fd8b6b",
"4p	c #fd8667",
"4q	c #fd876a",
"4r	c #fb4f33",
"4s	c #f93a22",
"4t	c #f91917",
"4u	c #fb1516",
"4v	c #e60b0d",
"4w	c #9b0002",
"4x	c #fb474c",
"4y	c #feac9f",
"4z	c #fe8f75",
"50	c #fd8669",
"51	c #fb4a2e",
"52	c #f93e24",
"53	c #f8271c",
"54	c #f81b17",
"55	c #f91615",
"56	c #fa1113",
"57	c #e3080a",
"58	c #930001",
"59	c #fa363e",
"5a	c #febdaa",
"5b	c #feb098",
"5c	c #fd8061",
"5d	c #fc866a",
"5e	c #f93921",
"5f	c #f9311f",
"5g	c #f81716",
"5h	c #f91214",
"5i	c #df080b",
"5j	c #8c0001",
"5k	c #fa2f36",
"5l	c #fd9087",
"5m	c #fd8162",
"5n	c #fd8367",
"5o	c #fd8365",
"5p	c #fc8268",
"5q	c #f9391f",
"5r	c #f81a17",
"5s	c #fb1515",
"5t	c #ee0c0e",
"5u	c #8e0001",
"5v	c #f92a34",
"5w	c #ffcfb7",
"5x	c #fd8567",
"5y	c #fd8366",
"5z	c #fc8167",
"60	c #f9361e",
"61	c #fa1718",
"62	c #f41112",
"63	c #a40003",
"64	c #f94a4c",
"65	c #ffbea8",
"66	c #fd8263",
"67	c #fd8466",
"68	c #fc7e65",
"69	c #f94029",
"6a	c #f92e1d",
"6b	c #fa1a18",
"6c	c #f51314",
"6d	c #af0106",
"6e	c #fa484a",
"6f	c #ffb39a",
"6g	c #fd8262",
"6h	c #f9422b",
"6i	c #f9341f",
"6j	c #fa1c18",
"6k	c #f51515",
"6l	c #f62d34",
"6m	c #ffbba3",
"6n	c #fd7b5d",
"6o	c #fc7b61",
"6p	c #fb4830",
"6q	c #f9291c",
"6r	c #fb1e19",
"6s	c #ee1313",
"6t	c #bb0308",
"6u	c #f62830",
"6v	c #ffa191",
"6w	c #fd7d63",
"6x	c #fc7a60",
"6y	c #fc7960",
"6z	c #fc775e",
"70	c #fc775f",
"71	c #fb4e38",
"72	c #f92c1b",
"73	c #fb201a",
"74	c #ec1212",
"75	c #bb0208",
"76	c #fa5654",
"77	c #ff9981",
"78	c #fc755b",
"79	c #fc755d",
"7a	c #fc725c",
"7b	c #fb5f4a",
"7c	c #f92719",
"7d	c #fc211a",
"7e	c #e51112",
"7f	c #c10408",
"7g	c #f32831",
"7h	c #fd857b",
"7i	c #fe8a6d",
"7j	c #fc765c",
"7k	c #fc735c",
"7l	c #fc7159",
"7m	c #fc6f5e",
"7n	c #f92819",
"7o	c #f9261c",
"7p	c #fa2219",
"7q	c #dd0b0f",
"7r	c #c5060a",
"7s	c #f02a32",
"7t	c #f66764",
"7u	c #fc7a65",
"7v	c #fd745b",
"7w	c #fd7058",
"7x	c #fe6d5d",
"7y	c #f83024",
"7z	c #e91212",
"80	c #d0060b",
"81	c #c80609",
"82	c #eb303a",
"83	c #ec3740",
"84	c #ec4143",
"85	c #e83c42",
"86	c #de252d",
"87	c #cd0307",
"                                                ",
"        2g2r313e3p41        5k5v646e6l6u        ",
"    0i292h2s323f3q424c    595l5w656f6m6v767g    ",
"  0i1y2a2i0j333g3r434d4m4x5a17XX666g6n6w777h7s  ",
"  1p1z0j0k2t343h0n440v4n4y5b5m5x67191f6x787i7t  ",
"1j1q200k2j0l0o0p3s0v0w4o175c5n5y1f1d6o6y1i7j7u82",
"1k1r210l0o0m350q//XX4e4p4z195o1d1g1h1i6z797k7v83",
"1l1s220m0p0q//XXXX0w4f4q505d5p5z681g1h707a7l7w84",
"1m1t230n//2u363i3t454g4r515e5q60696h6p717b7m7x85",
"1n1u24XX2k2v373j3u464h0z520607090a6i||727c7n7y86",
"1o1v252b2l0r0r3k3v0s0z0607090c1014||0d0g0h7o7z87",
"  1w262c2m2w383l3w0t4i4s080a..116a0g6q1c1e7p80  ",
"  1x272d2n0s390t3x47080c..5f||0b15120e++7d7q81  ",
"    282e2o2x0607090c1014||0d0x0h0y++1a737e7r    ",
"      2f2p2y3a080a..110d0g0h1c1e16186r747f      ",
"        2q2z3b..3y480b15530e++130f6j6s75        ",
"          303c3m0b0x120e++1a0f1b6b6k6t          ",
"            3d3n3z0y++16181b5r616c0u            ",
"              3o4049130f545g5s626d              ",
"                0u4a4j4t555h5t63                ",
"                  4b4k4u565i5u                  ",
"                    4l4v575j                    ",
"                      4w58                      ",
"                                                "};