/* XPM */
static char * xpm_help_book[] = {
"24 24 332 2",
"  	c None",
"XX	c #ffffff",
"++	c #9bd8f6",
"..	c #9e9ea3",
"||	c #3b3c42",
"//	c #585a60",
"06	c #7b7c81",
"07	c #b4b4b7",
"08	c #62636a",
"09	c #9fd9f6",
"0a	c #45a2de",
"0b	c #3f9dda",
"0c	c #1d89cf",
"0d	c #4ba7e0",
"0e	c #399ad8",
"0f	c #3195d5",
"0g	c #2a92d4",
"0h	c #238cd2",
"0i	c #ccedfd",
"0j	c #197ac3",
"0k	c #57aee5",
"0l	c #53abe2",
"0m	c #1787ce",
"0n	c #9d9a9b",
"0o	c #9cd6f5",
"0p	c #1786cd",
"0q	c #cdedfd",
"0r	c #a1daf7",
"0s	c #9e9a9c",
"0t	c #848081",
"0u	c #858081",
"0v	c #878281",
"0w	c #8ccdf1",
"0x	c #99d5f3",
"0y	c #1e84cb",
"0z	c #7ac2eb",
"10	c #a0daf6",
"11	c #9ed8f6",
"12	c #1786ce",
"13	c #a0daf7",
"14	c #7ac4ed",
"15	c #e5f0f9",
"16	c #ccecfd",
"17	c #c0c9d7",
"18	c #ccecfc",
"19	c #1886cd",
"1a	c #151f26",
"1b	c #b5b4b8",
"1c	c #78797e",
"1d	c #7e7f84",
"1e	c #5d5f65",
"1f	c #58595f",
"1g	c #595a60",
"1h	c #525359",
"1i	c #242d34",
"1j	c #3a3e44",
"1k	c #dddedf",
"1l	c #b1b1b4",
"1m	c #b6b6b9",
"1n	c #a5a5aa",
"1o	c #9d9da2",
"1p	c #1d262d",
"1q	c #8a8b8c",
"1r	c #adaeb3",
"1s	c #5d5e65",
"1t	c #63656b",
"1u	c #4e4f55",
"1v	c #3a3b41",
"1w	c #0d161c",
"1x	c #a4a4a4",
"1y	c #c7c7c8",
"1z	c #999698",
"20	c #9c9a9b",
"21	c #9f9c9d",
"22	c #939091",
"23	c #817d7f",
"24	c #847f81",
"25	c #858182",
"26	c #868182",
"27	c #878282",
"28	c #878182",
"29	c #0a1013",
"2a	c #9ca7b4",
"2b	c #b7d2de",
"2c	c #7aaecb",
"2d	c #7db1cd",
"2e	c #7bb0cc",
"2f	c #79aecb",
"2g	c #74a9cb",
"2h	c #71a7ca",
"2i	c #6da5c8",
"2j	c #69a1c6",
"2k	c #5e9ac1",
"2l	c #367caf",
"2m	c #357aab",
"2n	c #3075a9",
"2o	c #2b72a6",
"2p	c #276ea2",
"2q	c #2169a0",
"2r	c #1c669c",
"2s	c #17619b",
"2t	c #115d96",
"2u	c #0d5992",
"2v	c #07538e",
"2w	c #0e558b",
"2x	c #3e78a2",
"2y	c #a5b7c6",
"2z	c #cff0ff",
"30	c #9edbf9",
"31	c #a1dcfa",
"32	c #9ed9f9",
"33	c #9ad7f7",
"34	c #96d3f6",
"35	c #91d1f3",
"36	c #88cbf1",
"37	c #7cc4ee",
"38	c #59b1e9",
"39	c #55afe7",
"3a	c #4dabe5",
"3b	c #47a6e3",
"3c	c #40a1df",
"3d	c #3a9edd",
"3e	c #3299da",
"3f	c #2b96d9",
"3g	c #2490d7",
"3h	c #1e8dd4",
"3i	c #178ad2",
"3j	c #208ad2",
"3k	c #4185b4",
"3l	c #a8b6c4",
"3m	c #ceedfe",
"3n	c #96d1f3",
"3o	c #90cff1",
"3p	c #8acaee",
"3q	c #87c8ed",
"3r	c #79c1ea",
"3s	c #1f85cc",
"3t	c #3d80b0",
"3u	c #abb9c7",
"3v	c #9dd6f5",
"3w	c #97d4f3",
"3x	c #6db8e5",
"3y	c #7cc1e9",
"3z	c #88caef",
"40	c #88c9ee",
"41	c #7ac1ea",
"42	c #3a7bad",
"43	c #aebbc9",
"44	c #9ed7f6",
"45	c #79c0ea",
"46	c #bddaee",
"47	c #c8e0f1",
"48	c #6eabda",
"49	c #74b7e4",
"4a	c #399bd8",
"4b	c #3296d6",
"4c	c #2b94d6",
"4d	c #238dd3",
"4e	c #3579aa",
"4f	c #b1bfcc",
"4g	c #75bae7",
"4h	c #7bb5e0",
"4i	c #84c6ee",
"4j	c #7ac1eb",
"4k	c #54ade3",
"4l	c #4ca9e2",
"4m	c #44a3e0",
"4n	c #3f9fdc",
"4o	c #399edb",
"4p	c #247fc5",
"4q	c #1a6fbb",
"4r	c #2086ce",
"4s	c #1c8ad1",
"4t	c #1d83c8",
"4u	c #3173a7",
"4v	c #b3bfcc",
"4w	c #8ccdf0",
"4x	c #acd4ed",
"4y	c #f5f9fc",
"4z	c #62adde",
"50	c #89c9ee",
"51	c #58b0e7",
"52	c #3b92d2",
"53	c #1e6fb9",
"54	c #5f9ed0",
"55	c #3886c6",
"56	c #1a63b0",
"57	c #94b6d4",
"58	c #cddbea",
"59	c #2f68a8",
"5a	c #1679c1",
"5b	c #1d80c7",
"5c	c #2e70a3",
"5d	c #b6c1cf",
"5e	c #e2eef6",
"5f	c #75bce8",
"5g	c #8acaef",
"5h	c #6fbce9",
"5i	c #2e80c5",
"5j	c #a9cbe3",
"5k	c #4e8cc2",
"5l	c #83add3",
"5m	c #0953a2",
"5n	c #1789d0",
"5o	c #1b7fc6",
"5p	c #2a6ca1",
"5q	c #b7c3d0",
"5r	c #7ac5ec",
"5s	c #e3eff8",
"5t	c #e0edf6",
"5u	c #62afe0",
"5v	c #6fb7e3",
"5w	c #4e96ce",
"5x	c #ebf2f6",
"5y	c #4884bf",
"5z	c #95b9d9",
"60	c #064ea0",
"61	c #188ad0",
"62	c #1b7ec6",
"63	c #26679f",
"64	c #bac5d3",
"65	c #bcd8ec",
"66	c #bdd7ec",
"67	c #f3f5f9",
"68	c #dee9ef",
"69	c #498cc4",
"6a	c #2b6db3",
"6b	c #fdfbfb",
"6c	c #8caed0",
"6d	c #1063b0",
"6e	c #1788cf",
"6f	c #1b7ec5",
"6g	c #23649b",
"6h	c #bdc6d4",
"6i	c #add5ee",
"6j	c #85b4d7",
"6k	c #2074bd",
"6l	c #3189cf",
"6m	c #3691d4",
"6n	c #3291d2",
"6o	c #1762af",
"6p	c #1159a7",
"6q	c #1568b4",
"6r	c #1c8cd2",
"6s	c #1a7bc4",
"6t	c #1f6099",
"6u	c #bec8d5",
"6v	c #6db8e6",
"6w	c #f2f6fb",
"6x	c #639fd1",
"6y	c #3892d3",
"6z	c #4dabe3",
"70	c #46a4df",
"71	c #409edb",
"72	c #3a9bd9",
"73	c #3297d7",
"74	c #2b96d7",
"75	c #248ed4",
"76	c #1d8acf",
"77	c #1a7bc3",
"78	c #1a5d95",
"79	c #9dd7f6",
"7a	c #8ecff1",
"7b	c #69b4e2",
"7c	c #b7d6ed",
"7d	c #e7f0f7",
"7e	c #b8d3ea",
"7f	c #3c8ac9",
"7g	c #459ed9",
"7h	c #55ade4",
"7i	c #4ba8e0",
"7j	c #155a93",
"7k	c #96d2f3",
"7l	c #7ec3eb",
"7m	c #6db4e2",
"7n	c #51a6df",
"7o	c #5cb3e7",
"7p	c #5ab0e6",
"7q	c #54abe2",
"7r	c #125691",
"7s	c #c3cbd8",
"7t	c #98d4f3",
"7u	c #94d0f2",
"7v	c #91cff1",
"7w	c #86c9ef",
"7x	c #63b8ea",
"7y	c #5fb6e7",
"7z	c #59afe5",
"80	c #135ea2",
"81	c #7fa8c4",
"82	c #d5f3ff",
"83	c #9edaf8",
"84	c #a1dbf8",
"85	c #9ed8f7",
"86	c #9ad6f5",
"87	c #96d2f4",
"88	c #93d1f1",
"89	c #72c1ed",
"8a	c #63b9ea",
"8b	c #5fb6e8",
"8c	c #59b0e6",
"8d	c #53ace3",
"8e	c #4aa8e1",
"8f	c #44a3df",
"8g	c #3e9edb",
"8h	c #389bd9",
"8i	c #3095d6",
"8j	c #2992d5",
"8k	c #218cd3",
"8l	c #1b89d0",
"8m	c #064392",
"8n	c #94c3e2",
"8o	c #7fbce1",
"8p	c #83bde1",
"8q	c #82bce0",
"8r	c #80badf",
"8s	c #7cb7de",
"8t	c #7cb6de",
"8u	c #61a9d8",
"8v	c #62a8d8",
"8w	c #5ea6d6",
"8x	c #5aa2d6",
"8y	c #56a0d4",
"8z	c #539dd3",
"90	c #509ad2",
"91	c #4b97d0",
"92	c #4795cf",
"93	c #4293cd",
"94	c #3c90cc",
"95	c #388dca",
"96	c #338cc9",
"97	c #2a86c6",
"      1i1p1w292x3k3t424e4u5c5p636g6t787j7r80    ",
"    1a1j1q1x2a2y3l3u434f4v5d5q646h6u17177s818m  ",
"    1b1k1r1y2b2z3m0q0q0q0i0i0i0i161618180i828n  ",
"    1c1l1s1z2c30++++++++++++++++++++++++++838o  ",
"    060708202d3109090910130r0r0r1310090909848p  ",
"    0607080n2e320o3v44114w145r140w11790o0o858q  ",
"    0607080n2f330x3w454g4x155s156i6v7a0x7t868r  ",
"    0607080n2g343n3x46XXXXXXXXXXXX6w7b7k7u878s  ",
"    0607080s2h353o3y47XX4y5e5tXXXXXX7c7l7v888t  ",
"    0607080s2i0w3p3z484h4z5f5u65XXXX7d7m7w898u  ",
"    1d1m1t212j363q40494i505g5v66XXXX7e7n7x8a8v  ",
"    1e1n1u222k373r410z4j0z5h5wXXXXXX7f7o7y8b8w  ",
"    1f1o1v232l380k0k0k0k515i5xXXXX6x7g7p7z8c8x  ",
"    //..||242m390l0l0l4k525jXXXX6j6y7h7q0l8d8y  ",
"    //..||0t2n3a0d0d0d4l53XXXX676k6z7i0d0d8e8z  ",
"    //..||0t2o3b0a0a0a4m54XXXX686l700a0a0a8f90  ",
"    //..||0u2p3c0b0b0b4n555k5y696m710b0b0b8g91  ",
"    //..||0u2q3d0e0e4a4o565l5z6a6n720e0e0e8h92  ",
"    //..||252r3e0f0f4b4p57XXXX6b6o730f0f0f8i93  ",
"    //..||262s3f0g0g4c4q58XXXXXX6p740g0g0g8j94  ",
"    //..||272t3g0h0h4d4r59XXXX6c6q750h0h0h8k95  ",
"    //..||0v2u3h0c0c0c4s5a5m606d6r760c0c0c8l96  ",
"    1g..||0v2v3i0p0p0p120m5n616e0m0m0m19191297  ",
"    1h..||282w3j3s0y0y4t5b5o626f6s770j0j0j0j0j  "};