/* XPM */
static char * xpm_help[] = {
"24 24 300 2",
"  	c None",
"XX	c #f66821",
"++	c #f77c25",
"..	c #f6501b",
"||	c #f3f3f4",
"//	c #f5581c",
"06	c #f78327",
"07	c #f66d21",
"08	c #f6521b",
"09	c #f78127",
"0a	c #f66c21",
"0b	c #d74711",
"0c	c #f39c39",
"0d	c #f39f40",
"0e	c #f19131",
"0f	c #ec7a1d",
"0g	c #fa9e34",
"0h	c #fa9d34",
"0i	c #fa9d33",
"0j	c #fba33c",
"0k	c #5e5963",
"0l	c #f55d1d",
"0m	c #f65b1b",
"0n	c #9e9aa6",
"0o	c #f1f1f2",
"0p	c #eaf5fb",
"0q	c #f0f0f0",
"0r	c #f1f3f5",
"0s	c #e86c12",
"0t	c #f9661d",
"0u	c #f97d25",
"0v	c #ea7a1f",
"0w	c #f8501b",
"0x	c #f6581c",
"0y	c #fa9730",
"0z	c #f55c1d",
"10	c #fa972f",
"11	c #f29838",
"12	c #d74812",
"13	c #f6561a",
"14	c #f6671f",
"15	c #f77b23",
"16	c #df6224",
"17	c #fa8d37",
"18	c #ea781c",
"19	c #e9e9ea",
"1a	c #e4e4e5",
"1b	c #f4f4f5",
"1c	c #dededf",
"1d	c #e96c11",
"1e	c #ec7c1f",
"1f	c #f1912f",
"1g	c #ea6b11",
"1h	c #93817f",
"1i	c #f2811c",
"1j	c #fba137",
"1k	c #fcb75c",
"1l	c #f69131",
"1m	c #725e5c",
"1n	c #938d9a",
"1o	c #8f8b97",
"1p	c #a6b0be",
"1q	c #e36813",
"1r	c #f98428",
"1s	c #f78125",
"1t	c #fa923a",
"1u	c #e47c2b",
"1v	c #9da6b3",
"1w	c #68626d",
"1x	c #94919d",
"1y	c #a29fa7",
"1z	c #c6c9c9",
"20	c #d7dfe7",
"21	c #d57730",
"22	c #f96c1e",
"23	c #f66c1f",
"24	c #fa893e",
"25	c #d4803c",
"26	c #dce3e8",
"27	c #d1d1d3",
"28	c #89848d",
"29	c #57525c",
"2a	c #9994a0",
"2b	c #acabb1",
"2c	c #cdcecf",
"2d	c #dfdfe1",
"2e	c #eef3f7",
"2f	c #dcad7f",
"2g	c #f25414",
"2h	c #f65d1d",
"2i	c #f07735",
"2j	c #e0b793",
"2k	c #f1f6f8",
"2l	c #e4e3e5",
"2m	c #d7d8d9",
"2n	c #a09da2",
"2o	c #534f58",
"2p	c #a8a4ae",
"2q	c #cececf",
"2r	c #e2e2e3",
"2s	c #f1f1f1",
"2t	c #f3f5f8",
"2u	c #e2d6c7",
"2v	c #e64508",
"2w	c #f74f18",
"2x	c #e06425",
"2y	c #e1d1c2",
"2z	c #f2f4f6",
"30	c #e8e8e8",
"31	c #d9d9db",
"32	c #848289",
"33	c #544e58",
"34	c #a09da8",
"35	c #c8c8c9",
"36	c #e1e1e1",
"37	c #ececed",
"38	c #e6edee",
"39	c #cf3a00",
"3a	c #eb4a17",
"3b	c #d74811",
"3c	c #dc4712",
"3d	c #ec5520",
"3e	c #cc4a0d",
"3f	c #e9eaec",
"3g	c #e6e6e7",
"3h	c #d7d7d8",
"3i	c #635c67",
"3j	c #a19ca9",
"3k	c #b1bac6",
"3l	c #d9dfe5",
"3m	c #eef2f6",
"3n	c #f3f5f7",
"3o	c #ebebec",
"3p	c #e6e6e6",
"3q	c #989ba9",
"3r	c #aa410b",
"3s	c #904e2b",
"3t	c #828390",
"3u	c #e6e5e5",
"3v	c #e9eaeb",
"3w	c #f3f7fb",
"3x	c #e0e7ee",
"3y	c #adb5c0",
"3z	c #4c4953",
"40	c #ea6b10",
"41	c #f18626",
"42	c #e17929",
"43	c #d5894e",
"44	c #e0b691",
"45	c #e5ddd4",
"46	c #9b9dac",
"47	c #7e818c",
"48	c #e9f6fc",
"49	c #dfd2c5",
"4a	c #dcab7e",
"4b	c #d48341",
"4c	c #e26e1e",
"4d	c #f47e1d",
"4e	c #fcb658",
"4f	c #fa9239",
"4g	c #fa8a41",
"4h	c #ec702d",
"4i	c #e06224",
"4j	c #c64407",
"4k	c #9b5c39",
"4l	c #944923",
"4m	c #d03a00",
"4n	c #e04207",
"4o	c #ee5011",
"4p	c #fb9b32",
"4q	c #f78025",
"4r	c #f66b1f",
"4s	c #f8521b",
"4t	c #e5531d",
"4u	c #dc4813",
"4v	c #ef902f",
"4w	c #d84812",
"4x	c #f6511b",
"4y	c #fa962e",
"4z	c #f29c3f",
"50	c #f18f2d",
"51	c #f65c1d",
"52	c #f8511b",
"53	c #dd4712",
"54	c #e5541e",
"55	c #fa9d3a",
"56	c #ef8f31",
"57	c #ec7c20",
"58	c #fba237",
"59	c #f98327",
"5a	c #f96a1d",
"5b	c #ee5212",
"5c	c #e14407",
"5d	c #d03900",
"5e	c #9f562d",
"5f	c #8a4d2c",
"5g	c #c64508",
"5h	c #ec6e2c",
"5i	c #fa8640",
"5j	c #fcae53",
"5k	c #ea6c11",
"5l	c #f27f19",
"5m	c #e16f1c",
"5n	c #d58240",
"5o	c #ddac80",
"5p	c #e0d3c6",
"5q	c #e8f5fb",
"5r	c #9a9eab",
"5s	c #807e8a",
"5t	c #e7f1f9",
"5u	c #e2dad1",
"5v	c #deb591",
"5w	c #d78f51",
"5x	c #e2792a",
"5y	c #f4862a",
"5z	c #e86b11",
"60	c #a09daa",
"61	c #b6bec9",
"62	c #dbe1e9",
"63	c #f2f6fa",
"64	c #f1f4f5",
"65	c #989aa6",
"66	c #9a5832",
"67	c #a7410c",
"68	c #818391",
"69	c #e3e4e3",
"6a	c #e7e7e9",
"6b	c #eff0f3",
"6c	c #f4f8fb",
"6d	c #e5ebef",
"6e	c #b0b8c4",
"6f	c #4c4852",
"6g	c #a19da9",
"6h	c #cccccd",
"6i	c #e4e4e6",
"6j	c #e9eaea",
"6k	c #e8f3f9",
"6l	c #cb480b",
"6m	c #e8541f",
"6n	c #e34914",
"6o	c #cf3b00",
"6p	c #e5eaed",
"6q	c #e7e8e9",
"6r	c #eeeeef",
"6s	c #dbdbdd",
"6t	c #655e67",
"6u	c #a9a7b0",
"6v	c #d3d3d5",
"6w	c #e8e8e7",
"6x	c #dfcfc1",
"6y	c #f74d18",
"6z	c #f7501b",
"70	c #e54208",
"71	c #dfd1c4",
"72	c #eff2f4",
"73	c #ebeced",
"74	c #87848d",
"75	c #534e57",
"76	c #98949f",
"77	c #b1b0b6",
"78	c #d4d5d5",
"79	c #f3f7f9",
"7a	c #deb793",
"7b	c #f07234",
"7c	c #f05012",
"7d	c #dbac80",
"7e	c #f4f8fc",
"7f	c #e8e8ea",
"7g	c #a4a2a7",
"7h	c #524e58",
"7i	c #93919c",
"7j	c #a7a3aa",
"7k	c #d0d0d1",
"7l	c #dee5eb",
"7m	c #d37f3d",
"7n	c #f9833d",
"7o	c #d78644",
"7p	c #e4ebf0",
"7q	c #d8dada",
"7r	c #8d8992",
"7s	c #57515c",
"7t	c #928d9a",
"7u	c #8f8c98",
"7v	c #adb7c1",
"7w	c #e2772a",
"7x	c #e26613",
"7y	c #a4adba",
"7z	c #69646f",
"80	c #907f7e",
"81	c #f18b2d",
"82	c #fcb259",
"83	c #fa9c39",
"84	c #fa972e",
"85	c #fb9b31",
"86	c #f27d1d",
"87	c #725f5e",
"88	c #e76a11",
"89	c #ef9030",
"8a	c #f29d3f",
"8b	c #ef8f2f",
"                400f0e0d0c50575k                ",
"              3j414e0j0i0h0g585l60              ",
"          0n343k424f4q090909595m616g0n          ",
"        2a2p353l434g4r0a0a0a5a5n626h6u76        ",
"      1x2b2q363m444h0m0z0z515b5o636i6v777i      ",
"    1n1y2c2r0o3n454i4s..4x525c5p64||6w787j7t    ",
"    1o1z2d2s0o3o0p4j4t0b12535d5q190q||1a7k7u    ",
"  1h1p202e2t373p464k        5e5r1a6j0r797l7v80  ",
"1d1i1q212f2u383q                656k6x7a7m7w8188",
"1e1j1r222g2v393r                666l167b7n178218",
"1f0g06072h083a                    6m6y1314158389",
"0c0h06070l083b                    0b..//XX++848a",
"0d0i06070l083c                    12..//XX++1011",
"0e0j1s230m2w3d                    6n6z0xXX++0y8b",
"0f1k1t242i2x3e3s                676o707c0t0u850v",
"1g1l1u252j2y0p3t                686p717d7o7x860s",
"  1m1v262k2z3f3u474l        5f5s696q727e7p7y87  ",
"    1w272l||0q3v484m4u4w0b545g5t6a6r1b7f7q7z    ",
"    0k282m30||0r494n0w....0w165u6b1b731c7r0k    ",
"      292n313g3w4a4o0x////135h5v6c191c7g7s      ",
"        2o323h3x4b0tXXXXXX145i5w6d6s747h        ",
"          333i3y4c0u++++++15175x6e6t75          ",
"              3z4d4p0y104y555j5y6f              ",
"                0s0v4v114z56185z                "};