/* XPM */
static char * xpm_history[] = {
"24 24 302 2",
"  	c None",
"XX	c #e7e7e8",
"++	c #8bd53d",
"..	c #575354",
"||	c #666265",
"//	c #6bc937",
"06	c #f2f3f4",
"07	c #e1e1e3",
"08	c #e2e3e4",
"09	c #b1e26d",
"0a	c #58be38",
"0b	c #f1f2f2",
"0c	c #eeeff0",
"0d	c #f4f5f5",
"0e	c #dddee0",
"0f	c #dadbdc",
"0g	c #d5d6d8",
"0h	c #d3d4d7",
"0i	c #cde1cd",
"0j	c #59be38",
"0k	c #f3f4f4",
"0l	c #559958",
"0m	c #e8e8e9",
"0n	c #333132",
"0o	c #dddedf",
"0p	c #e1e1e2",
"0q	c #dfe0e1",
"0r	c #d1d2d4",
"0s	c #cecfd2",
"0t	c #dcddde",
"0u	c #cdced1",
"0v	c #cacecf",
"0w	c #4fb035",
"0x	c #82d230",
"0y	c #fff7ff",
"0z	c #ffffff",
"10	c #fdfdfd",
"11	c #f6f6f6",
"12	c #f7f7f7",
"13	c #fffcff",
"14	c #f6f7f7",
"15	c #5ba950",
"16	c #f6f8f7",
"17	c #f1f0f4",
"18	c #2e8133",
"19	c #1b5e35",
"1a	c #e9eaeb",
"1b	c #1673c3",
"1c	c #b0acab",
"1d	c #252123",
"1e	c #ece9e8",
"1f	c #ebebec",
"1g	c #f1f1f2",
"1h	c #2b2728",
"1i	c #e9e3df",
"1j	c #9ddbf5",
"1k	c #dcdddf",
"1l	c #d8d9db",
"1m	c #e0e1e2",
"1n	c #433f43",
"1o	c #cdd2d5",
"1p	c #dadcdb",
"1q	c #cccdd0",
"1r	c #e1e2e4",
"1s	c #c8c9cc",
"1t	c #dbd9d8",
"1u	c #c0bdbd",
"1v	c #74c35d",
"1w	c #6dc34b",
"1x	c #5abc35",
"1y	c #5abb36",
"1z	c #56b836",
"20	c #4eb235",
"21	c #76c35e",
"22	c #8fd260",
"23	c #7ccf3c",
"24	c #70ca35",
"25	c #6ac537",
"26	c #65c537",
"27	c #64c438",
"28	c #5abc36",
"29	c #4aaa34",
"2a	c #86ca6a",
"2b	c #8dd449",
"2c	c #75cd33",
"2d	c #73cb35",
"2e	c #6fca36",
"2f	c #6ac736",
"2g	c #68c436",
"2h	c #63c336",
"2i	c #62c338",
"2j	c #60c237",
"2k	c #60c338",
"2l	c #3b962f",
"2m	c #3c942f",
"2n	c #3d9730",
"2o	c #8fcd73",
"2p	c #7bcf33",
"2q	c #78cf35",
"2r	c #73cb31",
"2s	c #73cb37",
"2t	c #78cc41",
"2u	c #74cc42",
"2v	c #6bc83b",
"2w	c #5fc234",
"2x	c #5fc135",
"2y	c #5ec138",
"2z	c #5dc138",
"30	c #348c2e",
"31	c #3b942f",
"32	c #4eb335",
"33	c #3f9c31",
"34	c #6cb85c",
"35	c #a4df51",
"36	c #56b329",
"37	c #48a62f",
"38	c #6db663",
"39	c #c2dbc1",
"3a	c #b9d7b7",
"3b	c #afd4ae",
"3c	c #78bb6d",
"3d	c #5cc036",
"3e	c #5cbf38",
"3f	c #5abf38",
"3g	c #50b736",
"3h	c #57c038",
"3i	c #58c239",
"3j	c #32852d",
"3k	c #499b46",
"3l	c #71c927",
"3m	c #459a38",
"3n	c #fffeff",
"3o	c #fdfbfe",
"3p	c #fffbff",
"3q	c #91c18f",
"3r	c #5bbe37",
"3s	c #55be38",
"3t	c #4cb135",
"3u	c #80c260",
"3v	c #75c13a",
"3w	c #38915f",
"3x	c #f8f7f8",
"3y	c #64ae5b",
"3z	c #5bbe36",
"40	c #56be38",
"41	c #46a831",
"42	c #9ed275",
"43	c #36936e",
"44	c #f8f8f8",
"45	c #e7eae8",
"46	c #5bbf37",
"47	c #59bf38",
"48	c #3c9526",
"49	c #196bc2",
"4a	c #5fa75d",
"4b	c #b8dff6",
"4c	c #8b878a",
"4d	c #f4f4f5",
"4e	c #ededed",
"4f	c #58bd37",
"4g	c #59c137",
"4h	c #1b91e4",
"4i	c #3c9170",
"4j	c #8ad0e4",
"4k	c #ecf1f7",
"4l	c #ededee",
"4m	c #efecf1",
"4n	c #94b99a",
"4o	c #5da359",
"4p	c #55be34",
"4q	c #58c135",
"4r	c #1b8cdd",
"4s	c #1661b5",
"4t	c #86d4f9",
"4u	c #a4dcf6",
"4v	c #f4f1f0",
"4w	c #f4f5f6",
"4x	c #eff0f1",
"4y	c #ebecec",
"4z	c #eeecf0",
"50	c #eae9eb",
"51	c #a1c0a6",
"52	c #63c446",
"53	c #0e6cc5",
"54	c #8cd6f3",
"55	c #afdcf0",
"56	c #f5f3f1",
"57	c #f4f6f6",
"58	c #f6f8f8",
"59	c #d4d4d5",
"5a	c #d9d9da",
"5b	c #e5e5e6",
"5c	c #e6e5e7",
"5d	c #eae7ea",
"5e	c #f0ebf1",
"5f	c #3b8ecc",
"5g	c #1476c5",
"5h	c #9cddf5",
"5i	c #aeddf3",
"5j	c #2e2b2c",
"5k	c #696568",
"5l	c #181516",
"5m	c #010000",
"5n	c #ededef",
"5o	c #cec8c8",
"5p	c #3685c4",
"5q	c #147ece",
"5r	c #9dddf5",
"5s	c #aedcf2",
"5t	c #262223",
"5u	c #1e1b1b",
"5v	c #e9eaec",
"5w	c #e4e0dc",
"5x	c #3584c2",
"5y	c #147fce",
"5z	c #85d3f2",
"60	c #afdbf0",
"61	c #1b79c3",
"62	c #7bcdef",
"63	c #e3e1e4",
"64	c #e3e4e4",
"65	c #e5e6e7",
"66	c #edeeef",
"67	c #0b72c7",
"68	c #176dbe",
"69	c #5abcea",
"6a	c #b6e7f9",
"6b	c #c2d6e3",
"6c	c #e5e5e5",
"6d	c #eaeced",
"6e	c #7ea1c4",
"6f	c #118fd9",
"6g	c #175db1",
"6h	c #98dbf4",
"6i	c #9ad6f0",
"6j	c #e5e2e0",
"6k	c #e7e8e9",
"6l	c #1c76c0",
"6m	c #1680ce",
"6n	c #61bfea",
"6o	c #b5e6f8",
"6p	c #b1d0e4",
"6q	c #e0dfdd",
"6r	c #dadcdc",
"6s	c #dee1e0",
"6t	c #cccdcf",
"6u	c #d3cecd",
"6v	c #568bb8",
"6w	c #1693dc",
"6x	c #1866b7",
"6y	c #80cfef",
"6z	c #a1def4",
"70	c #b6cddd",
"71	c #dad7d8",
"72	c #cbccce",
"73	c #c3c5c9",
"74	c #c4c6ca",
"75	c #3b3839",
"76	c #d2cfcf",
"77	c #819dba",
"78	c #178cd7",
"79	c #1b79c7",
"7a	c #8ad3f0",
"7b	c #a8c9df",
"7c	c #d0d1d3",
"7d	c #c0c2c6",
"7e	c #bdbfc2",
"7f	c #c3c3c5",
"7g	c #cfc9c7",
"7h	c #588aba",
"7i	c #1c8bd7",
"7j	c #1f84cf",
"7k	c #79c8ec",
"7l	c #aae0f6",
"7m	c #8dcae9",
"7n	c #b1c9da",
"7o	c #d3d2d3",
"7p	c #b7b6bb",
"7q	c #7e9ab8",
"7r	c #2d82c9",
"7s	c #2aa2e2",
"7t	c #2383cd",
"7u	c #55b2e4",
"7v	c #8ed3ef",
"7w	c #9fddf4",
"7x	c #78c5ea",
"7y	c #50a3d7",
"7z	c #509bd0",
"80	c #4e96ce",
"81	c #4697d0",
"82	c #2d92d8",
"83	c #39a7e3",
"84	c #329cdc",
"85	c #2778c5",
"86	c #429cd9",
"87	c #51abe1",
"88	c #48a7e1",
"89	c #4fb1e4",
"8a	c #49ade3",
"8b	c #3c9ad9",
"8c	c #3692d5",
"8d	c #2978c4",
"                                                ",
"                  4i4t545h5r5z6269              ",
"          3k3u424a4j4u555i5s601j6a6h6n          ",
"        34093v434b4k4v561c1e1e636b6i6o6y        ",
"      2o353l3w0i060606145j1f1f646c6j6p6z7a      ",
"    2a++0x3m0i064c064w575k0m0m65..1p6q701j7k    ",
"  212b2p360i0z1216164x0d||XXXX081m1m1p717b7l7u  ",
"  222c2q370y10100k0b0c0d||XXXX080q0t6r1k1t7m7v  ",
"1v232d2r380y..440k0b0c0d||XXXX080q0t6s..1t7n7w86",
"1w242e2s393n11110k0b0c0d||XXXX080q0t1r727c7o7x87",
"1x//2f2t3a3o12144d0b0c580n1g1g666d6k1r0h0v1u7y88",
"1y252g2u3b3p3x454e4l4y595l5t1h0n1n..||0h0v1c7z89",
"1z262h2v3c0z131517171a5a5m5u1h0n1n..||0h0v..808a",
"20272i2w093q13++154m1a0m5n5v081k1l0h0u737d1u818b",
"  282j2x++093y0x++4n4z5b070e0f0g0r1q1s747e7p828c",
"  292k2y3d++09//++4o505c070e0f0g0r1q1s757f7q838d",
"    0w2z3e3r3z46//++515d070e0f0g0r0s0u0u7g7r84  ",
"    2l0w3f0j0j0j4f//0l5e070e0f1l0s0s6t767h7s85  ",
"      303g0a0a0a0a4p//0l070o0o0o1d0g6u777i7t    ",
"      313h3s40474g4q520l1d0p0p0p1o1o6v787j      ",
"    2m323i3t4148181919185o5w1i1i6e6l6w79        ",
"    2n333j    494h4r535f5p5x61676f6m6x          ",
"                  4s1b5g5q5y1b686g              ",
"                                                "};