/* XPM */
static char * xpm_home[] = {
"24 24 324 2",
"  	c None",
"XX	c #ffffff",
"++	c #838688",
"..	c #e6e7e8",
"||	c #eaeced",
"//	c #98989d",
"06	c #dadbdc",
"07	c #e2e3e4",
"08	c #a0a2a4",
"09	c #e3e4e5",
"0a	c #b1b2b8",
"0b	c #eff0f1",
"0c	c #cdced1",
"0d	c #d2d3d5",
"0e	c #d6d7d9",
"0f	c #dfe0e1",
"0g	c #efeff0",
"0h	c #d3d4d5",
"0i	c #dbdcde",
"0j	c #d4d5d6",
"0k	c #dcdcdf",
"0l	c #e1e2e2",
"0m	c #e4e5e6",
"0n	c #e8e9ea",
"0o	c #edeeee",
"0p	c #cfd1d3",
"0q	c #d5d5d7",
"0r	c #dcdee0",
"0s	c #e2e2e3",
"0t	c #e9eaea",
"0u	c #8c9193",
"0v	c #eeeeef",
"0w	c #fffffc",
"0x	c #d0d1d4",
"0y	c #939499",
"0z	c #d4d5d8",
"10	c #cecfd2",
"11	c #cccbcc",
"12	c #fafafa",
"13	c #d3d3d4",
"14	c #f6f6f6",
"15	c #0758b7",
"16	c #0085dc",
"17	c #d7d7d8",
"18	c #008dde",
"19	c #dddddc",
"1a	c #dfe0e2",
"1b	c #78c9f1",
"1c	c #4db5ec",
"1d	c #9ad6f3",
"1e	c #68c4ef",
"1f	c #1399e4",
"1g	c #2ca8ed",
"1h	c #9bd6f2",
"1i	c #74c8f1",
"1j	c #21a1e9",
"1k	c #63b0da",
"1l	c #fffdf4",
"1m	c #88defe",
"1n	c #6eccf5",
"1o	c #9dd6f2",
"1p	c #7ecdf3",
"1q	c #2faaeb",
"1r	c #5faedc",
"1s	c #fef7f4",
"1t	c #7dd9fc",
"1u	c #61c5f2",
"1v	c #a0d7f2",
"1w	c #8ad3f5",
"1x	c #3db5f0",
"1y	c #65b4dd",
"1z	c #cacacb",
"20	c #cdcfd2",
"21	c #d7d8d9",
"22	c #e0e1e2",
"23	c #e7e8e9",
"24	c #ecedee",
"25	c #f0f1f1",
"26	c #fff7f4",
"27	c #7cd8fb",
"28	c #5dc3f0",
"29	c #a3d7f2",
"2a	c #90d9f8",
"2b	c #49baf4",
"2c	c #6cb7dd",
"2d	c #c6c6c9",
"2e	c #cacbcd",
"2f	c #ced1d3",
"2g	c #d8d8da",
"2h	c #f1f1f1",
"2i	c #fff8f5",
"2j	c #7ad5fb",
"2k	c #58baef",
"2l	c #a4d9f3",
"2m	c #9adcf9",
"2n	c #53c0f5",
"2o	c #73b9e0",
"2p	c #c1c2c4",
"2q	c #c6c7ca",
"2r	c #cbccce",
"2s	c #d8d9db",
"2t	c #e5e6e6",
"2u	c #eeeeee",
"2v	c #f1f2f2",
"2w	c #fff9f6",
"2x	c #75d4fa",
"2y	c #53b7ec",
"2z	c #a2d9f1",
"30	c #9fe0fb",
"31	c #61caf7",
"32	c #78bce2",
"33	c #bdbec2",
"34	c #c3c6c7",
"35	c #c9c9cd",
"36	c #cdced0",
"37	c #d3d5d7",
"38	c #dddee0",
"39	c #e2e3e5",
"3a	c #e7e8e8",
"3b	c #eaebec",
"3c	c #f2f2f4",
"3d	c #f6f5f6",
"3e	c #f9fafa",
"3f	c #71d3fa",
"3g	c #4db4ec",
"3h	c #a2d7f1",
"3i	c #a9e3fe",
"3j	c #6cd0fb",
"3k	c #7ec0e3",
"3l	c #aaabaf",
"3m	c #afb2b5",
"3n	c #b4b4bb",
"3o	c #b8bbbb",
"3p	c #cccdcf",
"3q	c #6a6a6d",
"3r	c #78797e",
"3s	c #828386",
"3t	c #8a8c8e",
"3u	c #939597",
"3v	c #9b9c9e",
"3w	c #a2a3a6",
"3x	c #a9aaad",
"3y	c #b6b0b1",
"3z	c #83cbec",
"40	c #47b0ea",
"41	c #a2d6f2",
"42	c #a9e8fe",
"43	c #71d4fd",
"44	c #82c3e4",
"45	c #a6a5ab",
"46	c #8b8c90",
"47	c #8d8e93",
"48	c #8c8d92",
"49	c #848589",
"4a	c #d6d7da",
"4b	c #d3d4d7",
"4c	c #2d2d2f",
"4d	c #474648",
"4e	c #504f51",
"4f	c #57595b",
"4g	c #5e5e60",
"4h	c #63646a",
"4i	c #696a71",
"4j	c #737477",
"4k	c #7b7577",
"4l	c #6ebde6",
"4m	c #41ace9",
"4n	c #80c3e9",
"4o	c #b0ebff",
"4p	c #7cd5fc",
"4q	c #8ac6e2",
"4r	c #b0b1b7",
"4s	c #a6a9ae",
"4t	c #919194",
"4u	c #939398",
"4v	c #8a8b90",
"4w	c #d9dbdc",
"4x	c #353536",
"4y	c #4e4e50",
"4z	c #565658",
"50	c #5d5f62",
"51	c #67686b",
"52	c #6b6e6f",
"53	c #707177",
"54	c #78797d",
"55	c #817b7c",
"56	c #6bbae4",
"57	c #3aa8e7",
"58	c #6eb7e2",
"59	c #91e2fe",
"5a	c #7cd6fc",
"5b	c #89c1e1",
"5c	c #a7aab0",
"5d	c #929295",
"5e	c #949599",
"5f	c #8a8b91",
"5g	c #d5d6d8",
"5h	c #373739",
"5i	c #4e4f51",
"5j	c #565759",
"5k	c #5e6063",
"5l	c #616165",
"5m	c #6d7071",
"5n	c #707178",
"5o	c #79797d",
"5p	c #817b7d",
"5q	c #64b7e2",
"5r	c #34a2e5",
"5s	c #0f6cc3",
"5t	c #5bbeec",
"5u	c #80d8fa",
"5v	c #68cef9",
"5w	c #78bcdf",
"5x	c #a9abae",
"5y	c #8b8c91",
"5z	c #8e8e93",
"60	c #8d8e92",
"61	c #85868a",
"62	c #dbdcdd",
"63	c #d4d6d8",
"64	c #2e2e31",
"65	c #49484a",
"66	c #525153",
"67	c #5a5c5d",
"68	c #403f43",
"69	c #4e4d4e",
"6a	c #6c6c73",
"6b	c #73747a",
"6c	c #7d7778",
"6d	c #5db1e0",
"6e	c #2e9fe4",
"6f	c #0f65be",
"6g	c #51b5e8",
"6h	c #6ccef7",
"6i	c #50bef5",
"6j	c #6ab2dc",
"6k	c #c6c5c8",
"6l	c #c9cdce",
"6m	c #d5d6d7",
"6n	c #6c6d70",
"6o	c #7a7b82",
"6p	c #a4a6a9",
"6q	c #adaeb0",
"6r	c #bcb6b4",
"6s	c #69bde6",
"6t	c #2498e0",
"6u	c #0055b6",
"6v	c #309ce0",
"6w	c #45b8f0",
"6x	c #33aceb",
"6y	c #56aad9",
"6z	c #c5c7c8",
"70	c #c9cacd",
"71	c #d9dadd",
"72	c #e4e4e6",
"73	c #eaebeb",
"74	c #edeeef",
"75	c #f4f5f6",
"76	c #f8f9f9",
"77	c #fcfcfb",
"78	c #3eb7f0",
"79	c #2091dd",
"7a	c #085fbb",
"7b	c #d1dbe0",
"7c	c #fff6ed",
"7d	c #f8f6f8",
"7e	c #2da8ea",
"7f	c #119ae5",
"7g	c #3ca2d7",
"7h	c #d8d9da",
"7i	c #f1f1f2",
"7j	c #f4f5f5",
"7k	c #33aeec",
"7l	c #188cd8",
"7m	c #045ab9",
"7n	c #aabccb",
"7o	c #d6d5d5",
"7p	c #dde0e2",
"7q	c #e2e1e1",
"7r	c #d5dce0",
"7s	c #0a99e4",
"7t	c #0089dd",
"7u	c #36a2d7",
"7v	c #d9dadb",
"7w	c #e5e6e7",
"7x	c #f1f2f3",
"7y	c #2ba9ea",
"7z	c #1087d6",
"80	c #93a5b0",
"81	c #bfb7b4",
"82	c #cec7c1",
"83	c #cdc5c1",
"84	c #d4c8c1",
"85	c #b9c3c4",
"86	c #0089de",
"87	c #38a4d9",
"88	c #dedfe1",
"89	c #e6e6e7",
"8a	c #eaeaec",
"8b	c #eeeff0",
"8c	c #f2f3f4",
"8d	c #fbfbfb",
"8e	c #23a5e7",
"8f	c #0a82d4",
"8g	c #0257b4",
"8h	c #0252b1",
"8i	c #017ad0",
"8j	c #3baadb",
"8k	c #f3f4f4",
"8l	c #f7f7f7",
"8m	c #fcfcfc",
"8n	c #169ee5",
"8o	c #0580d2",
"8p	c #047bd0",
"8q	c #0084db",
"8r	c #3eabdc",
"8s	c #109fe8",
"8t	c #0181d5",
"8u	c #037acf",
"8v	c #008fdf",
"8w	c #008ee1",
"8x	c #0041a5",
"8y	c #0268bf",
"8z	c #0168c0",
"                      4n585s    7a7m1515        ",
"                    414o595t6f  7b7n808g        ",
"                  3h424p5a5u6g6u7c7o81          ",
"                2z3i434q5b5v6h6vXX7p82          ",
"              2l303j44++++5w6i6w7d7q83          ",
"            292m313k++4r0a++6j6x7e7r84          ",
"          1v2a2n32++454s5c5x//6y7f7s858h        ",
"        1o1w2b2o0u3l464t5d5y6k0a7g7t868i        ",
"      1h1p1x2c//333m470y5e5z6l6z0a7u16188p      ",
"    1d1i1q1y//2p343n484u0y600x7011118716188u    ",
"  1b1e1j1r082d2q353o494v5f610z100p13138j8q8v8y  ",
"  1c1f1k081z2e2r360x4a4w0i626m0h0j0q17178r8w8z  ",
"    1g0c0c202f0p373p4b0z5g6310717h7v0619198x    ",
"      0d0d0h0j0q383q4c4x5h646n720k0r881a1a      ",
"      0e0e212g2s393r4d4y5i656o730l0s070909      ",
"      06060i0k0r3a3s4e4z5j66++740m7w89....      ",
"      0f0f220l0s3b3t4f505k670u0b0n0t8a||||      ",
"      0707090m2t0v3u4g515l68//750o0v8b0b0b      ",
"      ....230n0t3c3v4h525m6908767i7x8c8k0w      ",
"      ||||240o2u3d3w4i535n6a6p777j14148lXX      ",
"      0g0g252h2v3e3x4j545o6b6qXX12128d8mXX      ",
"      1l1s262i2w0w3y4k555p6c6rXXXXXXXXXXXX      ",
"      1m1t272j2x3f3z4l565q6d6s787k7y8e8n8s      ",
"      1n1u282k2y3g404m575r6e6t797l7z8f8o8t      "};