/* XPM */
static char * xpm_hourglass[] = {
"24 24 286 2",
"  	c None",
"XX	c #ffffff",
"++	c #f1f7ff",
"..	c #f2dc8a",
"||	c #48a9e3",
"//	c #8b8aa4",
"06	c #fdd00b",
"07	c #42a5e2",
"08	c #44a7e2",
"09	c #46a9e4",
"0a	c #48aae5",
"0b	c #44a6e2",
"0c	c #43a5e2",
"0d	c #3f9fdd",
"0e	c #bae8fb",
"0f	c #8ed3f4",
"0g	c #4aa0da",
"0h	c #4198d4",
"0i	c #9dd8f6",
"0j	c #aee5fa",
"0k	c #409fdd",
"0l	c #3a99d9",
"0m	c #a6e1f9",
"0n	c #6fc5ef",
"0o	c #62a9dc",
"0p	c #d6ced5",
"0q	c #b6b4c3",
"0r	c #a3a2b8",
"0s	c #a5a0b6",
"0t	c #746e7b",
"0u	c #696472",
"0v	c #838396",
"0w	c #9b8e91",
"0x	c #559bc8",
"0y	c #8ed1f4",
"0z	c #89d5f6",
"10	c #3c9ad9",
"11	c #3893d5",
"12	c #a3ddf9",
"13	c #6ec2ec",
"14	c #67b2e0",
"15	c #c3b674",
"16	c #9b98b6",
"17	c #736e7b",
"18	c #9e9ca8",
"19	c #edf0f5",
"1a	c #ffdb6e",
"1b	c #ffbf00",
"1c	c #679da7",
"1d	c #88cdf3",
"1e	c #87d3f4",
"1f	c #3a92d5",
"1g	c #358dd0",
"1h	c #9ddbf7",
"1i	c #68bceb",
"1j	c #65abdb",
"1k	c #fff084",
"1l	c #e4cc32",
"1m	c #9592b3",
"1n	c #797380",
"1o	c #d1d0d5",
"1p	c #f5f8ff",
"1q	c #fec719",
"1r	c #ffbe04",
"1s	c #ffc104",
"1t	c #6299a4",
"1u	c #84caf2",
"1v	c #81d0f4",
"1w	c #378ed1",
"1x	c #3388cc",
"1y	c #9cd7f6",
"1z	c #63b9e9",
"20	c #62a7d8",
"21	c #feee81",
"22	c #cab555",
"23	c #928faa",
"24	c #827d89",
"25	c #c1bfc6",
"26	c #facd3a",
"27	c #ffc005",
"28	c #ffc40b",
"29	c #ffc806",
"2a	c #6094a0",
"2b	c #81c7f1",
"2c	c #7dccf3",
"2d	c #3589cc",
"2e	c #2f83c9",
"2f	c #97d7f5",
"2g	c #5eb6e6",
"2h	c #60a3d5",
"2i	c #fdffff",
"2j	c #fdeb80",
"2k	c #fcd600",
"2l	c #a59a8a",
"2m	c #85839a",
"2n	c #8b8ba4",
"2o	c #fec100",
"2p	c #fec60a",
"2q	c #fec80c",
"2r	c #ffcb07",
"2s	c #5b929e",
"2t	c #7dc4f0",
"2u	c #76c9f0",
"2v	c #3184c9",
"2w	c #2c7cc4",
"2x	c #91d4f3",
"2y	c #5ab0e4",
"2z	c #5c9dd2",
"30	c #fbfeff",
"31	c #fcea7f",
"32	c #fcd300",
"33	c #fdd30a",
"34	c #ffd308",
"35	c #ccaf4b",
"36	c #cba547",
"37	c #ffc307",
"38	c #fdc200",
"39	c #ffc502",
"3a	c #ffc70c",
"3b	c #feca0c",
"3c	c #fecb0c",
"3d	c #ffd007",
"3e	c #598f99",
"3f	c #78c0ee",
"3g	c #71c5f1",
"3h	c #2e7ec5",
"3i	c #2a77c0",
"3j	c #8bcff2",
"3k	c #55aae2",
"3l	c #599ace",
"3m	c #f9fbff",
"3n	c #fbe67e",
"3o	c #fdd001",
"3p	c #fdd10b",
"3q	c #ffcd0b",
"3r	c #ffce0a",
"3s	c #ffc708",
"3t	c #ffc80a",
"3u	c #ffc80b",
"3v	c #fecb0b",
"3w	c #fecc0c",
"3x	c #fecd0b",
"3y	c #ffd206",
"3z	c #558c95",
"40	c #74bceb",
"41	c #6bc1ef",
"42	c #2d78c1",
"43	c #2771bb",
"44	c #85ccf0",
"45	c #4da8df",
"46	c #5695ca",
"47	c #fffffc",
"48	c #f6f8ff",
"49	c #f9e37c",
"4a	c #fecc01",
"4b	c #fecd0c",
"4c	c #ffcc0c",
"4d	c #ffca0a",
"4e	c #ceac4c",
"4f	c #cba947",
"4g	c #f5cb25",
"4h	c #f8d22f",
"4i	c #fdcf08",
"4j	c #fecf09",
"4k	c #fdd20b",
"4l	c #fdd20a",
"4m	c #ffd706",
"4n	c #53878f",
"4o	c #6fb9e9",
"4p	c #64bded",
"4q	c #2b74bb",
"4r	c #276db7",
"4s	c #80caef",
"4t	c #47a2dc",
"4u	c #5191c6",
"4v	c #fffdfa",
"4w	c #f0f4fd",
"4x	c #f8e07a",
"4y	c #ffc904",
"4z	c #ffca0c",
"50	c #ffc90b",
"51	c #a6988c",
"52	c #86839a",
"53	c #827f99",
"54	c #d5d9eb",
"55	c #d8d3c2",
"56	c #fcd200",
"57	c #fcd409",
"58	c #fcd60a",
"59	c #ffda06",
"5a	c #51858d",
"5b	c #6ab5e8",
"5c	c #5cb9ea",
"5d	c #296fb7",
"5e	c #2568b3",
"5f	c #79c6ed",
"5g	c #429dda",
"5h	c #4f8ac3",
"5i	c #fef9f6",
"5j	c #ecf0fa",
"5k	c #f6dc77",
"5l	c #ffc604",
"5m	c #ffc706",
"5n	c #cbaa57",
"5o	c #9291aa",
"5p	c #837e8a",
"5q	c #adacb3",
"5r	c #cdd1df",
"5s	c #e4d25d",
"5t	c #ffda02",
"5u	c #fcda09",
"5v	c #ffde06",
"5w	c #4e8188",
"5x	c #66b2e6",
"5y	c #54b4e8",
"5z	c #276ab3",
"60	c #2362b0",
"61	c #73c4eb",
"62	c #3c98d7",
"63	c #4b85bf",
"64	c #faf6f2",
"65	c #e8eaf4",
"66	c #f4d971",
"67	c #ffc300",
"68	c #e5b832",
"69	c #9593b3",
"6a	c #7c7684",
"6b	c #aeaeb5",
"6c	c #c0c4d9",
"6d	c #ead238",
"6e	c #ffde01",
"6f	c #ffe404",
"6g	c #4d8086",
"6h	c #61aee3",
"6i	c #4cb0e6",
"6j	c #2565b0",
"6k	c #2160ab",
"6l	c #6ac0ea",
"6m	c #3693d4",
"6n	c #4881bd",
"6o	c #f8f4ee",
"6p	c #e8ebf1",
"6q	c #ead17f",
"6r	c #c4aa74",
"6s	c #9a9bb6",
"6t	c #77727e",
"6u	c #888592",
"6v	c #aaaec2",
"6w	c #c9c480",
"6x	c #fee41b",
"6y	c #4d817d",
"6z	c #5ba9e1",
"70	c #46aae5",
"71	c #2362ab",
"72	c #1c5aa7",
"73	c #63bbe9",
"74	c #318fd2",
"75	c #3e76b2",
"76	c #cfc8cf",
"77	c #b4b2c0",
"78	c #a5a4b9",
"79	c #a5a1b6",
"7a	c #76707d",
"7b	c #6e6976",
"7c	c #757082",
"7d	c #7e798a",
"7e	c #2c62a8",
"7f	c #57a9dc",
"7g	c #3ea5e2",
"7h	c #1f5da8",
"7i	c #1a57a4",
"7j	c #5ebceb",
"7k	c #2b91d5",
"7l	c #2460a8",
"7m	c #1e579f",
"7n	c #53a9dd",
"7o	c #35a6e3",
"7p	c #1c5aa4",
"7q	c #1a57a2",
"7r	c #17529f",
"7s	c #19559f",
"7t	c #1757a2",
"7u	c #1958a3",
"7v	c #17549f",
"7w	c #19549f",
"7x	c #1a58a2",
"        ||0d0l111g1x2e2w3i434r5e606k727i7q      ",
"        070e0m121h1y2f2x3j444s5f616l737j7r      ",
"        080f0n131i1z2g2y3k454t5g626m747k7s      ",
"        090g0o141j202h2z3l464u5h636n757l7t      ",
"            0pXXXXXXXXXXXX474v5i646o76          ",
"            0qXXXXXX2i303m484w5j656p77          ",
"            0r++1k212j313n494x5k666q78          ",
"            0s15++..2k323o4a4y5l676r79          ",
"              161l++..333p4b4z5m686s            ",
"                1m22....064c505n69              ",
"                  232l343q4d515o                ",
"                    //353r4e//                  ",
"                    2m363s4f52                  ",
"                  242n373t4g535p                ",
"                1n25++383u4h545q6a              ",
"              171o++..393v4i555r6b6t            ",
"            0t181p262o3a3w4j565s6c6u7a          ",
"            0u191q272p3b3x4k575t6d6v7b          ",
"            0v1a1r282q3c064l585u6e6w7c          ",
"            0w1b1s292r3d3y4m595v6f6x7d          ",
"        0a0h0x1c1t2a2s3e3z4n5a5w6g6y7e7m7u      ",
"        0b0i0y1d1u2b2t3f404o5b5x6h6z7f7n7v      ",
"        0c0j0z1e1v2c2u3g414p5c5y6i707g7o7w      ",
"        ||0k101f1w2d2v3h424q5d5z6j717h7p7x      "};