/* XPM */
static char * xpm_in-yang[] = {
"24 24 300 2",
"  	c None",
"XX	c #f2f3f3",
"++	c #f5f6f6",
"..	c #efefef",
"||	c #ebebec",
"//	c #e8e8e9",
"06	c #e4e5e5",
"07	c #f9f9fa",
"08	c #ffffff",
"09	c #303032",
"0a	c #7d7c7c",
"0b	c #211f21",
"0c	c #e2e3e4",
"0d	c #e0e1e1",
"0e	c #353537",
"0f	c #313133",
"0g	c #3a3a3d",
"0h	c #333335",
"0i	c #262426",
"0j	c #222222",
"0k	c #222022",
"0l	c #97979a",
"0m	c #98989b",
"0n	c #cdcfd2",
"0o	c #f3f3f3",
"0p	c #ececed",
"0q	c #2b2b2d",
"0r	c #363638",
"0s	c #343436",
"0t	c #c3c5c8",
"0u	c #2f2f31",
"0v	c #29282a",
"0w	c #272727",
"0x	c #939295",
"0y	c #dadada",
"0z	c #969699",
"10	c #f0f0f0",
"11	c #d8d9da",
"12	c #3b3b3e",
"13	c #8e9091",
"14	c #3e3e40",
"15	c #38383b",
"16	c #e5e6e6",
"17	c #707074",
"18	c #4b4c4f",
"19	c #343537",
"1a	c #e1e2e2",
"1b	c #353638",
"1c	c #dcdcde",
"1d	c #48494c",
"1e	c #d7d8da",
"1f	c #555659",
"1g	c #d2d3d5",
"1h	c #222223",
"1i	c #cecfd2",
"1j	c #4f5153",
"1k	c #242325",
"1l	c #cbced0",
"1m	c #c7cacc",
"1n	c #444345",
"1o	c #3c3c3e",
"1p	c #373739",
"1q	c #c0c3c7",
"1r	c #bdc0c4",
"1s	c #747377",
"1t	c #282829",
"1u	c #3e3f41",
"1v	c #2c2c2e",
"1w	c #242224",
"1x	c #2c2b2d",
"1y	c #232223",
"1z	c #6a6a6d",
"20	c #7c7c80",
"21	c #808084",
"22	c #908e92",
"23	c #838387",
"24	c #818184",
"25	c #b4b4b7",
"26	c #a19fa3",
"27	c #6f6f73",
"28	c #6e6e71",
"29	c #fefefd",
"2a	c #fafbfb",
"2b	c #fafafb",
"2c	c #fdfdfe",
"2d	c #929297",
"2e	c #6d6d71",
"2f	c #fdfdfd",
"2g	c #f7f7f7",
"2h	c #f6f7f7",
"2i	c #e4e4e4",
"2j	c #909096",
"2k	c #626267",
"2l	c #67676c",
"2m	c #fbfbfa",
"2n	c #f3f4f4",
"2o	c #f7f8f8",
"2p	c #8e8e93",
"2q	c #65656a",
"2r	c #f0f2f3",
"2s	c #f4f4f4",
"2t	c #f6f6f6",
"2u	c #f8f9f9",
"2v	c #b3b4b8",
"2w	c #a2a5a5",
"2x	c #bdbec0",
"2y	c #e8eaec",
"2z	c #f3f3f4",
"30	c #a5a5a6",
"31	c #767979",
"32	c #414144",
"33	c #3d3f41",
"34	c #333537",
"35	c #27272a",
"36	c #898a8c",
"37	c #f5f5f6",
"38	c #e9e9ea",
"39	c #979797",
"3a	c #7a7c7d",
"3b	c #4d4f53",
"3c	c #4d4e51",
"3d	c #47494b",
"3e	c #434345",
"3f	c #282a2b",
"3g	c #828285",
"3h	c #edeeed",
"3i	c #cecece",
"3j	c #c1c3c5",
"3k	c #605f65",
"3l	c #515255",
"3m	c #3d3d40",
"3n	c #3a393b",
"3o	c #3b3c3e",
"3p	c #39383c",
"3q	c #202022",
"3r	c #dddfe1",
"3s	c #e2e3e3",
"3t	c #e3e4e3",
"3u	c #e4e5e4",
"3v	c #e9eaea",
"3w	c #727276",
"3x	c #86888c",
"3y	c #a2a3a6",
"3z	c #545658",
"40	c #4f5053",
"41	c #5d5d60",
"42	c #d1d2d3",
"43	c #d0d2d2",
"44	c #3c3c3f",
"45	c #36373a",
"46	c #76787b",
"47	c #e4e4e6",
"48	c #dddcde",
"49	c #e1e1e3",
"4a	c #c0c1c4",
"4b	c #8d8e91",
"4c	c #b6b8ba",
"4d	c #e3e2e5",
"4e	c #dddddf",
"4f	c #e5e5e6",
"4g	c #96989b",
"4h	c #55565a",
"4i	c #edeeef",
"4j	c #fbfbfc",
"4k	c #d7d7da",
"4l	c #2e2e2f",
"4m	c #2e2e30",
"4n	c #4a4a4d",
"4o	c #e2e3e5",
"4p	c #d9dadc",
"4q	c #c8c9cd",
"4r	c #303033",
"4s	c #313134",
"4t	c #bdc0c1",
"4u	c #dadbdd",
"4v	c #d6d8da",
"4w	c #e2e2e3",
"4x	c #727376",
"4y	c #96979a",
"4z	c #47484b",
"50	c #f0f1f1",
"51	c #e0e1e2",
"52	c #e2e2e4",
"53	c #2d2d2f",
"54	c #404042",
"55	c #dedfe1",
"56	c #848689",
"57	c #212222",
"58	c #2b2b2c",
"59	c #777679",
"5a	c #d1d2d4",
"5b	c #dddee0",
"5c	c #737477",
"5d	c #959699",
"5e	c #9a9a9e",
"5f	c #d1d5d7",
"5g	c #d4d7d9",
"5h	c #838587",
"5i	c #313234",
"5j	c #1f1e1f",
"5k	c #dcdee1",
"5l	c #131112",
"5m	c #151415",
"5n	c #131213",
"5o	c #c4c5ca",
"5p	c #cfd0d3",
"5q	c #cdced1",
"5r	c #d7d8db",
"5s	c #626466",
"5t	c #abacaf",
"5u	c #515355",
"5v	c #444648",
"5w	c #535457",
"5x	c #4c4d54",
"5y	c #abadb0",
"5z	c #cacecf",
"60	c #cacbce",
"61	c #9f9fa2",
"62	c #cacccf",
"63	c #c9ccce",
"64	c #cccdd1",
"65	c #939296",
"66	c #424346",
"67	c #acadaf",
"68	c #5e6062",
"69	c #494a4e",
"6a	c #3d3e42",
"6b	c #2a2a2c",
"6c	c #343437",
"6d	c #d2d4d7",
"6e	c #c4c6c9",
"6f	c #c3c4c7",
"6g	c #c5c7ca",
"6h	c #c2c4c7",
"6i	c #cfd2d5",
"6j	c #3e3d3f",
"6k	c #99999c",
"6l	c #858688",
"6m	c #7f8083",
"6n	c #4d4c4f",
"6o	c #4a4b4e",
"6p	c #454547",
"6q	c #3f4043",
"6r	c #2d2b2d",
"6s	c #535355",
"6t	c #c2c5c9",
"6u	c #bcbfc3",
"6v	c #c9ccd1",
"6w	c #747479",
"6x	c #161415",
"6y	c #a2a3a5",
"6z	c #4e4f52",
"70	c #444446",
"71	c #3f3f41",
"72	c #363739",
"73	c #2d2c2e",
"74	c #272627",
"75	c #737277",
"76	c #a0a3a6",
"77	c #c5c9cd",
"78	c #acafb3",
"79	c #8a8a8e",
"7a	c #333232",
"7b	c #1a1818",
"7c	c #232122",
"7d	c #787a7d",
"7e	c #454649",
"7f	c #29292a",
"7g	c #272728",
"7h	c #1d1b1d",
"7i	c #181818",
"7j	c #161315",
"7k	c #161416",
"7l	c #191719",
"7m	c #1d1b1c",
"7n	c #1f1d1e",
"7o	c #383739",
"7p	c #8b8d8e",
"7q	c #5c5d5e",
"7r	c #404144",
"7s	c #201e1f",
"7t	c #201e20",
"7u	c #3a3c3e",
"7v	c #828585",
"7w	c #4c4d50",
"7x	c #3b3b3d",
"7y	c #38383a",
"7z	c #5f6162",
"80	c #353538",
"81	c #323234",
"82	c #5a5a5d",
"83	c #2e2d2f",
"84	c #272628",
"85	c #262526",
"86	c #222122",
"87	c #232123",
"88	c #252325",
"89	c #29292b",
"8a	c #39393a",
"8b	c #262627",
"                13133x174x5c5s66                ",
"            0m0m0c3j3y4g4y5d5t676l1s            ",
"        2l0l0n0c3a3k3z4h1f1f5u686m6y1s7o        ",
"        0z072u313b3l401d4z181j1j6n6z7d7p7u      ",
"    280z2m2r0c323c18414i505e5v696o1d7e7q7v7y    ",
"    0l2f0o0o2v333d3m4207515f5w1n6p701n7r7w1z    ",
"  0m0y2gXX2s2w123e3n434j0c5g5x6a6q711u1u7x7z1z  ",
"  2529++XX0o2x34143o444k525h0e1o1o0g0g0g158082  ",
"200y2a++XX102y35153p454l535i0r1p1p720r0r1b19140f",
"210807++XX..2z363f191b0e0e0e0s0s0s0h0h0h0h810f09",
"0l0807++XX..0p373g3q0q4m09090f0f0909090u0u0u830g",
"0x0807++XX..||383h3r464n545j1k6b6r731v1v1x0q0q1x",
"220807++XX..||//063s474o555k5y6c1k1t7f0v0v0v8489",
"0x0807++XX..||//060d1c1e1g1i1l6d6s1h7g0w0w0w858a",
"230807++XX..||//060d484p1e1i1m6e1q741w0i0i0i0i8b",
"240n2b++XX..||//061a494q561g5z6f6t757h1w1y1y861t",
"  262c++XX..||//063t4a4r575l600t1r767i0j0j0j87  ",
"  270n2hXX..||//06164b12585m616g6u777j0k0k0k88  ",
"    2d2i2n..||//063u4c4s1h5n620t1r787k0b0b0k    ",
"    2e2j2o10||//061a4d4t595o1l6h1q797l0b0b0j    ",
"      2k2p2t0p//060d4e4u115p1m0t6v7a7m7s0b      ",
"        2q0a110p160d1c4v5a5q636i6w7b7n7t        ",
"            30393i3v4f4w5b5r646j6x7c            ",
"                173w0a0a0a0a656k                "};