/* XPM */
static char * xpm_info[] = {
"24 24 187 2",
"  	c None",
"XX	c #1890c1",
"++	c #ffffff",
"..	c #1994c6",
"||	c #22a2d6",
"//	c #1892c3",
"06	c #4eb5de",
"07	c #178ebd",
"08	c #5ebce1",
"09	c #1893c4",
"0a	c #178fbe",
"0b	c #56b8df",
"0c	c #5bbae0",
"0d	c #1996c9",
"0e	c #50b6df",
"0f	c #1fa5d1",
"0g	c #c0e5f3",
"0h	c #fcfdfe",
"0i	c #f9fdfe",
"0j	c #62bde2",
"0k	c #1c9ed3",
"0l	c #59b9e0",
"0m	c #54b7df",
"0n	c #1da1d6",
"0o	c #24a4d7",
"0p	c #cceaf5",
"0q	c #49b3dd",
"0r	c #f3fafd",
"0s	c #2ca7d8",
"0t	c #034d9e",
"0u	c #004d99",
"0v	c #004a93",
"0w	c #02437c",
"0x	c #084781",
"0y	c #0a5388",
"0z	c #004992",
"10	c #0c68a6",
"11	c #6ce1e8",
"12	c #77e1ea",
"13	c #31b8d4",
"14	c #158ebb",
"15	c #0f6a9f",
"16	c #0b578d",
"17	c #024a9a",
"18	c #004991",
"19	c #52aec2",
"1a	c #a2ede9",
"1b	c #8ce1e9",
"1c	c #56c5e0",
"1d	c #58bedf",
"1e	c #57b9df",
"1f	c #1eadd3",
"1g	c #199bc7",
"1h	c #0d6599",
"1i	c #0c6598",
"1j	c #00498f",
"1k	c #89e7e9",
"1l	c #a8e8eb",
"1m	c #6dc9e3",
"1n	c #1c9fcb",
"1o	c #117aaa",
"1p	c #0b6b9c",
"1q	c #004396",
"1r	c #a0e2ea",
"1s	c #7dc8e7",
"1t	c #1b9bc9",
"1u	c #20a8d2",
"1v	c #107dae",
"1w	c #0e6da0",
"1x	c #004489",
"1y	c #9be1e8",
"1z	c #8fcfea",
"20	c #1b9ac9",
"21	c #0e72a3",
"22	c #004184",
"23	c #96e3e4",
"24	c #94d3eb",
"25	c #68c1e3",
"26	c #53b7df",
"27	c #1d9ecb",
"28	c #1d97c9",
"29	c #0d71a1",
"2a	c #94d8e9",
"2b	c #8dcfea",
"2c	c #4bb4de",
"2d	c #1996c5",
"2e	c #1fa0cf",
"2f	c #1180b1",
"2g	c #004692",
"2h	c #3da4bc",
"2i	c #96e4e4",
"2j	c #91d2eb",
"2k	c #78c6e6",
"2l	c #1d9bcc",
"2m	c #1896c3",
"2n	c #0f79a9",
"2o	c #00407f",
"2p	c #61ccd3",
"2q	c #97dee7",
"2r	c #2ba6d8",
"2s	c #29a6d8",
"2t	c #32a9d9",
"2u	c #1f9ece",
"2v	c #0e79a8",
"2w	c #003872",
"2x	c #83e7e1",
"2y	c #92d7e9",
"2z	c #cae9f5",
"30	c #b6e0f1",
"31	c #20a3d1",
"32	c #0e77a6",
"33	c #00478e",
"34	c #92eee5",
"35	c #91d3ea",
"36	c #a3d9ee",
"37	c #58b9e0",
"38	c #20a1d0",
"39	c #0f7eae",
"3a	c #e9f5fb",
"3b	c #f1fafd",
"3c	c #0560a6",
"3d	c #0a4e87",
"3e	c #57b2cc",
"3f	c #7fdae3",
"3g	c #71e7ec",
"3h	c #75e8eb",
"3i	c #5fbde1",
"3j	c #20a4d3",
"3k	c #1798c3",
"3l	c #1aa4cb",
"3m	c #176da9",
"3n	c #65bee2",
"3o	c #1997c6",
"3p	c #1668a3",
"3q	c #7fe7e4",
"3r	c #7ae4e4",
"3s	c #46acbc",
"3t	c #115e9e",
"3u	c #80e4dc",
"3v	c #1688b6",
"3w	c #1991bf",
"3x	c #41b0dc",
"3y	c #dff1f9",
"3z	c #d5eef8",
"40	c #dcf0f9",
"41	c #86cce9",
"42	c #72c4e5",
"43	c #c5e7f4",
"44	c #c6e7f4",
"45	c #1a96c7",
"46	c #fafdfe",
"47	c #f7fbfd",
"48	c #9ed7ed",
"49	c #eef8fc",
"4a	c #feffff",
"4b	c #a6daee",
"4c	c #9fd7ed",
"4d	c #66bee2",
"4e	c #f4fbfd",
"4f	c #eff9fc",
"4g	c #1a9acd",
"4h	c #9cd6ed",
"4i	c #1da1d4",
"4j	c #25a4d7",
"4k	c #1992c1",
"4l	c #115fa0",
"4m	c #87e6e0",
"4n	c #6dc2e3",
"4o	c #1996c8",
"4p	c #54c0ce",
"4q	c #6ddddd",
"4r	c #1998cb",
"4s	c #1769a3",
"4t	c #8beae9",
"4u	c #178dbb",
"4v	c #186fac",
"4w	c #1995c4",
"4x	c #5cbbe0",
"4y	c #1e9fcd",
"4z	c #1799c4",
"50	c #1aa2ca",
"51	c #53adc7",
"52	c #77d5df",
"53	c #69e3e8",
"54	c #6de4e8",
"55	c #0560a5",
"56	c #0a4880",
"                2g2o2w33332w2o2g                ",
"            223t2h2p2x34342x2p2h4l22            ",
"        1q1x3s3u2i2q2y35352y2q2i4m4p1x1q        ",
"      1j3p3r232a2j||3x0q0q0q||2j2a234q4s1j      ",
"    173m3q1y242b2k2r3y460h4e0s2k2b241y4t4v17    ",
"    181k1r1z252c062s3z++++++2r062c251z1r1k18    ",
"  0z191l1s0e2606062s40470i4f0s060m260e1s1l190z  ",
"  101a1m060m0b0b0b0o41364b364j084n0b0m061m1a10  ",
"0t3e1b0e0l0b0c0c0c2t0l0o0d4g2t0c0c0c0b0l0e1b510t",
"0u3f1c080808||||||0642484c4h0s||||0d0j0j371c520u",
"0v3g1d08080k||||||0o43493a3a0a..4o0d0d0j081d530v",
"3c3h1e3n0k0nXX09XX3v0g++++0r09XX//..4r0d0j1e5455",
"3d113i0k0aXXXXXXXX0a0g++++0r09XXXX//..4u0d4x1156",
"0w123jXX0aXXXXXXXX0a0g++++3b09XXXXXX0907XX4y120w",
"0x133kXXXXXXXXXXXX0a0g++++3b..XXXXXXXX07XX4z130x",
"0y143l//XXXXXXXXXX07444a++0r..XXXXXXXXXXXX50140y",
"  151f3oXXXXXXXXXX070p0h++0i..XXXXXXXXXX4w1f15  ",
"  161g1n//XXXXXXXX072z0h++0i..XXXXXXXXXX1n1g16  ",
"    1h0f1t//XXXXXX072z0h++0i..XXXXXX//1t0f1h    ",
"    1i1o1u20//XXXX07300p0p30..XX////201u1o1i    ",
"      1p1v0f272d0907..374d....092d270f1v1p      ",
"        1w21282e2l3w450n0n4i4k2l2e28211w        ",
"            292f2m2u313838312u2m2f29            ",
"                2n2v323939322v2n                "};