/* XPM */
static char * xpm_last_recor[] = {
"24 24 278 2",
"  	c None",
"XX	c #ffffff",
"++	c #74c7f1",
"..	c #78cbf1",
"||	c #7bcdf3",
"//	c #79ccf1",
"06	c #5bb0e1",
"07	c #71c5f0",
"08	c #7ecff4",
"09	c #6cc1ee",
"0a	c #63b3e3",
"0b	c #1c5ba9",
"0c	c #1b5bab",
"0d	c #1a5baa",
"0e	c #1f6cbb",
"0f	c #2570be",
"0g	c #2979c1",
"0h	c #1652a1",
"0i	c #2466ae",
"0j	c #5294c9",
"0k	c #78b9e0",
"0l	c #7bc2e9",
"0m	c #82c8ed",
"0n	c #69b8e8",
"0o	c #4ba4de",
"0p	c #378ccf",
"0q	c #2d7ec8",
"0r	c #17509f",
"0s	c #1753a1",
"0t	c #599bd0",
"0u	c #94cbeb",
"0v	c #89c8ea",
"0w	c #6eb9e6",
"0x	c #74bde7",
"0y	c #7bc0e8",
"0z	c #84c5ec",
"10	c #65b7e8",
"11	c #5bb3e8",
"12	c #64baeb",
"13	c #6dc4ef",
"14	c #5eb6e7",
"15	c #338cd0",
"16	c #3389d0",
"17	c #13499a",
"18	c #71b4dc",
"19	c #91ceed",
"1a	c #66b8e4",
"1b	c #70bae6",
"1c	c #75bfe8",
"1d	c #80c5ea",
"1e	c #60b7ea",
"1f	c #57b3e9",
"1g	c #62b9ec",
"1h	c #6dc6f1",
"1i	c #75cbf4",
"1j	c #79cef6",
"1k	c #42a0db",
"1l	c #348dd3",
"1m	c #134a96",
"1n	c #2062ab",
"1o	c #3793d7",
"1p	c #134b9a",
"1q	c #64abd8",
"1r	c #e5eef6",
"1s	c #3a99d9",
"1t	c #0d4291",
"1u	c #4890c9",
"1v	c #6dc5ee",
"1w	c #3695da",
"1x	c #1a58a3",
"1y	c #6ab4dd",
"1z	c #76c1e5",
"20	c #81d2f6",
"21	c #47a5e1",
"22	c #0f4393",
"23	c #387fbd",
"24	c #72bfe3",
"25	c #76c0e5",
"26	c #66c0eb",
"27	c #3b9bde",
"28	c #0c4090",
"29	c #54a0d2",
"2a	c #74bfe4",
"2b	c #77c1e5",
"2c	c #55adde",
"2d	c #5ab0e1",
"2e	c #7ccef4",
"2f	c #399bdd",
"2g	c #0a3e8f",
"2h	c #65b0da",
"2i	c #72bee3",
"2j	c #78c1e5",
"2k	c #48a9dc",
"2l	c #52acdf",
"2m	c #84d3f5",
"2n	c #389add",
"2o	c #114c97",
"2p	c #6cb8e0",
"2q	c #72bde3",
"2r	c #78c2e5",
"2s	c #46a5dc",
"2t	c #53addf",
"2u	c #83d2f5",
"2v	c #3fa3e0",
"2w	c #003488",
"2x	c #246bb4",
"2y	c #2772bd",
"2z	c #87cbf0",
"30	c #93d0f2",
"31	c #2264ab",
"32	c #71bae6",
"33	c #68c0ef",
"34	c #75b9e0",
"35	c #7ac1ea",
"36	c #6db7e4",
"37	c #5bacdf",
"38	c #5ba7dc",
"39	c #58a4da",
"3a	c #58a1d8",
"3b	c #4290cc",
"3c	c #1a6dbe",
"3d	c #1a6bb9",
"3e	c #1865b4",
"3f	c #1662b1",
"3g	c #165fad",
"3h	c #175dad",
"3i	c #1c63ae",
"3j	c #81d4f8",
"3k	c #46a1de",
"3l	c #80c5e8",
"3m	c #6ebce7",
"3n	c #bedff2",
"3o	c #ebf2fa",
"3p	c #e6eff7",
"3q	c #dae6f2",
"3r	c #d8e5f1",
"3s	c #d7e6f0",
"3t	c #d6e3ef",
"3u	c #d5e2ee",
"3v	c #dbe6f0",
"3w	c #97bdd8",
"3x	c #02398f",
"3y	c #7cd2f8",
"3z	c #77c2e4",
"40	c #7ec1e6",
"41	c #67b7e3",
"42	c #77bae7",
"43	c #3471b2",
"44	c #4498d4",
"45	c #78cdf4",
"46	c #7bcdf2",
"47	c #77c0e5",
"48	c #4ba9de",
"49	c #5db0e2",
"4a	c #bfdcf0",
"4b	c #b1cde2",
"4c	c #0a4ea1",
"4d	c #7acff8",
"4e	c #75c8f2",
"4f	c #68b7e1",
"4g	c #50acde",
"4h	c #5aafe1",
"4i	c #67b0e0",
"4j	c #fcfdfe",
"4k	c #1453a2",
"4l	c #53a9e0",
"4m	c #74c8f2",
"4n	c #52abdf",
"4o	c #5fafe0",
"4p	c #a2cce9",
"4q	c #8cb2d5",
"4r	c #236fbb",
"4s	c #72c9f3",
"4t	c #72c6f0",
"4u	c #63b2e2",
"4v	c #56a5db",
"4w	c #e5f0f6",
"4x	c #fcfdfd",
"4y	c #02459d",
"4z	c #5fb9ea",
"50	c #6dc2ef",
"51	c #64b4e4",
"52	c #66b0e0",
"53	c #62a7d7",
"54	c #4e8dc2",
"55	c #3386c9",
"56	c #6bc4ef",
"57	c #6dbbe4",
"58	c #2b84cc",
"59	c #bed8ec",
"5a	c #dde7f1",
"5b	c #0b55a9",
"5c	c #62baeb",
"5d	c #68bfed",
"5e	c #6cbae4",
"5f	c #449ddb",
"5g	c #2b80c6",
"5h	c #2d77b9",
"5i	c #449ad8",
"5j	c #65bbec",
"5k	c #67beec",
"5l	c #51abdf",
"5m	c #6cb9e4",
"5n	c #56afe4",
"5o	c #2682cb",
"5p	c #9fc7e3",
"5q	c #c4dbeb",
"5r	c #1d6bb9",
"5s	c #63bcee",
"5t	c #64bceb",
"5u	c #69c1ed",
"5v	c #6fc3ef",
"5w	c #73c7f1",
"5x	c #67b7e1",
"5y	c #56addf",
"5z	c #58afe0",
"60	c #5baee1",
"61	c #62b0e1",
"62	c #58acdf",
"63	c #2e8fd3",
"64	c #1364b7",
"65	c #1d6ab7",
"66	c #368ed1",
"67	c #439bdb",
"68	c #459edb",
"69	c #47a0db",
"6a	c #4ba3dd",
"6b	c #5cb4e5",
"6c	c #78ccf4",
"6d	c #78bfe5",
"6e	c #67b4e5",
"6f	c #c6dff1",
"6g	c #bad9ed",
"6h	c #bad8ec",
"6i	c #bad6eb",
"6j	c #95c1e0",
"6k	c #96c0e0",
"6l	c #93bdde",
"6m	c #8fb6d8",
"6n	c #8bb3d6",
"6o	c #89b0d2",
"6p	c #85accf",
"6q	c #8eb3d3",
"6r	c #61b7e5",
"6s	c #7acdf2",
"6t	c #78c2e4",
"6u	c #7ac0e7",
"6v	c #5fafe3",
"6w	c #003689",
"6x	c #5aaee2",
"6y	c #7ed0f4",
"6z	c #7dc4e9",
"70	c #60b0e4",
"71	c #59ade1",
"72	c #73bae0",
"73	c #74bce7",
"74	c #64b3e1",
"75	c #54a6dc",
"76	c #56a4da",
"77	c #549fd7",
"78	c #549dd4",
"79	c #3d8cca",
"7a	c #146aba",
"7b	c #1667b7",
"7c	c #1361b2",
"7d	c #125faf",
"7e	c #0f5aad",
"7f	c #105aaa",
"7g	c #1f67b1",
"7h	c #7acdf3",
"7i	c #46a3de",
"7j	c #2364ab",
"7k	c #71bbe6",
"7l	c #67c0ef",
"7m	c #88cbf0",
"7n	c #94d0f2",
"7o	c #236ab5",
"7p	c #246eb8",
"                22282g2o2o2g2822                ",
"            1t1x23292h2p2p2h29231x1t            ",
"        1m1p1u1y242a2i2q2q2i2a241y1u1p1m        ",
"      171n1q3z1z252b2j2r2r2j2b251z6t1q1n17      ",
"    0r31343l40474f2c2k2s2s2k2c5x6d6u6z727j0r    ",
"    0s18353m41484g4n2l2t2t2l5l5y6e6v7073180s    ",
"  0h0t19363n42494h2d060606062d5z6fXXXX74190t0h  ",
"  0i0u32373oXX4a4i4o4u510a0a0a606gXXXX757k0u0i  ",
"0b0j0v1a383pXXXX4j4p4v52575e5m616hXXXX761a0v0j0b",
"0c0k0w1b391rXXXXXXXX4w53585f5n626iXXXX771b0w0k0c",
"0d0l0x1c3a1rXXXXXXXXXXXX595g5o636jXXXX781c0x0l0d",
"2x0m0y1d3b3qXXXXXXXXXXXXXXXX5p646kXXXX791d0y0m7o",
"2y2z0z1e3c3rXXXXXXXXXXXXXXXX5q656lXXXX7a1e0z7m7p",
"0e30101f3d3sXXXXXXXXXXXX5a5h5r666mXXXX7b1f107n0e",
"0f0n111g3e3tXXXXXXXX4x545b5i5s676nXXXX7c1g110n0f",
"0g0o12333f3uXXXXXX4q4y555c5j5t686oXXXX7d7l120o0g",
"  0p131h3g3vXX4b4k4r4z565d5k5u696pXXXX7e1h130p  ",
"  0q141i3h3w434c4l4s500909095v6a6qXXXX7f1i140q  ",
"    151j3i3x444d4m4t070707075w6b2w6w2w7g1j15    ",
"    161k3j3y454e++++++++++++++6c6r6x717h1k16    ",
"      1l3k||46//..............//6s6y087i1l      ",
"        1o1s1v20082e||||||||2e08201v1s1o        ",
"            1w2126//2m2u2u2m//26211w            ",
"                272f2n2v2v2n2f27                "};