/* XPM */
static char * xpm_left-right[] = {
"24 24 194 2",
"  	c None",
"XX	c #1d78cc",
"++	c #0e65bf",
"..	c #0079d0",
"||	c #3da3e2",
"//	c #76d6fb",
"06	c #74d3f9",
"07	c #65c8f5",
"08	c #2394dd",
"09	c #0177cd",
"0a	c #0179d0",
"0b	c #017bd2",
"0c	c #0180d6",
"0d	c #2a9ee6",
"0e	c #3eade7",
"0f	c #d8f8ff",
"0g	c #5fbfef",
"0h	c #36a2e5",
"0i	c #d2f3ff",
"0j	c #95dfff",
"0k	c #bcefff",
"0l	c #2a95dd",
"0m	c #b6e7ff",
"0n	c #a4e5ff",
"0o	c #b3eaff",
"0p	c #389edf",
"0q	c #288edb",
"0r	c #b7e9fe",
"0s	c #b1e9ff",
"0t	c #75d6fb",
"0u	c #78d6fb",
"0v	c #74d3fa",
"0w	c #71d0f9",
"0x	c #b0e9fe",
"0y	c #3699dc",
"0z	c #248cd8",
"10	c #b6eafe",
"11	c #afe9ff",
"12	c #74d3fb",
"13	c #77d5fa",
"14	c #72d0f8",
"15	c #6acff8",
"16	c #6acbf6",
"17	c #a2e0f9",
"18	c #2280d0",
"19	c #2489d6",
"1a	c #b6e9fd",
"1b	c #afeaff",
"1c	c #72d2fa",
"1d	c #72d1f8",
"1e	c #6dcff8",
"1f	c #68cbf6",
"1g	c #5fc6f3",
"1h	c #5dc5f4",
"1i	c #94d6f6",
"1j	c #1d79cb",
"1k	c #1c7cd1",
"1l	c #b0e7fd",
"1m	c #b5ecff",
"1n	c #72d5fb",
"1o	c #6ed0f8",
"1p	c #6dcdf8",
"1q	c #6accf6",
"1r	c #64c6f5",
"1s	c #5ec4f3",
"1t	c #5abff3",
"1u	c #58bbf0",
"1v	c #55bcef",
"1w	c #9edbf6",
"1x	c #1b71c7",
"1y	c #227ecd",
"1z	c #3c9adb",
"20	c #74c2ec",
"21	c #41a8e2",
"22	c #b9eafe",
"23	c #76cff8",
"24	c #63c6f5",
"25	c #5fc5f3",
"26	c #5ac0f1",
"27	c #57bcf0",
"28	c #54bdef",
"29	c #2e91da",
"2a	c #2d91d8",
"2b	c #3b9bdd",
"2c	c #328ad2",
"2d	c #1969bf",
"2e	c #cdf3ff",
"2f	c #71cff4",
"2g	c #5cc1f3",
"2h	c #58bdf0",
"2i	c #52baee",
"2j	c #4db7ee",
"2k	c #4cbbf0",
"2l	c #c8f0ff",
"2m	c #6ac7f1",
"2n	c #51b9ef",
"2o	c #50b9ee",
"2p	c #4bb4ec",
"2q	c #46b1eb",
"2r	c #44b4ec",
"2s	c #c4eeff",
"2t	c #62c1f1",
"2u	c #4bb5ec",
"2v	c #47b3eb",
"2w	c #42aee9",
"2x	c #3caae9",
"2y	c #3bade9",
"2z	c #bdecff",
"30	c #5bbcec",
"31	c #42afea",
"32	c #3eaae9",
"33	c #3aa8e5",
"34	c #35a3e5",
"35	c #32a6e6",
"36	c #b7eaff",
"37	c #53b7eb",
"38	c #3aa8e7",
"39	c #36a4e5",
"3a	c #31a0e4",
"3b	c #2d9ce1",
"3c	c #299de2",
"3d	c #b3e6fd",
"3e	c #49b1e7",
"3f	c #32a1e4",
"3g	c #2e9de1",
"3h	c #2b97df",
"3i	c #1f95e1",
"3j	c #1359b1",
"3k	c #1d69bf",
"3l	c #2a89d3",
"3m	c #2682d0",
"3n	c #8cd6f4",
"3o	c #3ca8e4",
"3p	c #2a97e0",
"3q	c #2695df",
"3r	c #2092dc",
"3s	c #1a8dda",
"3t	c #138cd8",
"3u	c #0c65bd",
"3v	c #0864bd",
"3w	c #0b58b3",
"3x	c #0d4ba3",
"3y	c #0f50a9",
"3z	c #34a0e2",
"40	c #3aade9",
"41	c #31a3e4",
"42	c #299be1",
"43	c #2695dd",
"44	c #2292dd",
"45	c #1c8edb",
"46	c #168ad8",
"47	c #1185d6",
"48	c #0c81d3",
"49	c #077fd6",
"4a	c #017fd3",
"4b	c #0175cd",
"4c	c #0b49a1",
"4d	c #0e4fa8",
"4e	c #2a96df",
"4f	c #2c9be0",
"4g	c #1e8fdc",
"4h	c #188bd8",
"4i	c #1286d7",
"4j	c #0d82d5",
"4k	c #087fd3",
"4l	c #037ad0",
"4m	c #0272ca",
"4n	c #08429d",
"4o	c #0c49a3",
"4p	c #1d8ada",
"4q	c #1b91db",
"4r	c #1389d7",
"4s	c #0e83d6",
"4t	c #0a81d3",
"4u	c #047bd1",
"4v	c #074199",
"4w	c #09469d",
"4x	c #0e7fd1",
"4y	c #0c84d5",
"4z	c #077cd3",
"50	c #0279d0",
"51	c #0078cf",
"52	c #007cd2",
"53	c #0443a0",
"54	c #053f97",
"55	c #0374cc",
"56	c #0178cf",
"57	c #01419b",
"58	c #01419a",
"59	c #017ad0",
"5a	c #00419a",
"5b	c #00429a",
"5c	c #004ea9",
"5d	c #00368e",
"                                                ",
"                                                ",
"                                                ",
"                1y            3j                ",
"              1k1z            3k3y              ",
"            191l20            3l3z4d            ",
"          0z1a1m21            3m404e4o          ",
"        0q101b1n||XXXXXXXXXXXXXX414f4p4w        ",
"      0l0r111c1o222e2l2s2z363d3n42084q4x54      ",
"    0h0m0s12061p232f2m2t30373e3o434g4r4y5558    ",
"  0e0i0n0t131d1q242g2n2u31383f3p444h4s4z..0b5b  ",
"0d0f0j//0u061e07252h2o2v32393g3q454i4t5056590c5d",
"  0g0k//0v141f1r262i2p2w333a3h3r464j4u510a0c5c  ",
"    ||0o0w15071s272j2q2x343b083s474k090a0b5a    ",
"      0p0x161g1t282k2r2y353c3i3t484l..5257      ",
"        0y171h1u29++++++++++++++49..0953        ",
"          181i1v2a            3u4a4m4v          ",
"            1j1w2b            3v4b4n            ",
"              1x2c            3w4c              ",
"                2d            3x                ",
"                                                ",
"                                                ",
"                                                ",
"                                                "};