/* XPM */
static char * xpm_letter[] = {
"24 24 209 2",
"  	c None",
"XX	c #a9e2f8",
"++	c #7fceef",
"..	c #7dd1f3",
"||	c #1659a9",
"//	c #1891d9",
"06	c #78cef1",
"07	c #1b90d7",
"08	c #73caf0",
"09	c #1e93d8",
"0a	c #40a9e2",
"0b	c #38a4df",
"0c	c #2497da",
"0d	c #6cc7ee",
"0e	c #31a0dd",
"0f	c #48b0e4",
"0g	c #299bdc",
"0h	c #66c2ed",
"0i	c #6cc4ec",
"0j	c #2499db",
"0k	c #1e96da",
"0l	c #83c7ea",
"0m	c #7eceef",
"0n	c #7cd1f3",
"0o	c #94d7f3",
"0p	c #165baa",
"0q	c #75cdf1",
"0r	c #9dd8f2",
"0s	c #299dde",
"0t	c #77cef1",
"0u	c #74cbf0",
"0v	c #93d2ee",
"0w	c #72c9f0",
"0x	c #7bcef1",
"0y	c #39a6e0",
"0z	c #2b93d7",
"10	c #69c6ee",
"11	c #90d4f2",
"12	c #4d99d0",
"13	c #6bc7ee",
"14	c #62c0ed",
"15	c #9ddcf4",
"16	c #347fc5",
"17	c #247fc9",
"18	c #65c1ed",
"19	c #62c1ed",
"1a	c #5dbeec",
"1b	c #299ede",
"1c	c #5ebfec",
"1d	c #55b9e9",
"1e	c #1d74c1",
"1f	c #41abe3",
"1g	c #51b5e7",
"1h	c #80cff0",
"1i	c #7dc9ed",
"1j	c #59aee0",
"1k	c #64b7e3",
"1l	c #5fb0e0",
"1m	c #5babdd",
"1n	c #57a6da",
"1o	c #51a0d6",
"1p	c #4f9bd2",
"1q	c #4b97cf",
"1r	c #4790cc",
"1s	c #428cc8",
"1t	c #4088c6",
"1u	c #3d83c2",
"1v	c #387ebf",
"1w	c #357bbc",
"1x	c #1e58a2",
"1y	c #bfe7f9",
"1z	c #69bae4",
"20	c #88d1f0",
"21	c #7ccbed",
"22	c #75c7eb",
"23	c #6bc3e9",
"24	c #62bde8",
"25	c #5cb9e7",
"26	c #52b6e5",
"27	c #49b4e4",
"28	c #43b1e2",
"29	c #3cade1",
"2a	c #38ace2",
"2b	c #35a2db",
"2c	c #1f57a1",
"2d	c #8dd8f4",
"2e	c #5daee0",
"2f	c #4baae1",
"2g	c #58bae9",
"2h	c #4eb4e7",
"2i	c #45afe3",
"2j	c #3ea8e1",
"2k	c #35a2de",
"2l	c #2f9edc",
"2m	c #2799db",
"2n	c #2295d9",
"2o	c #1c93d9",
"2p	c #1883d0",
"2q	c #124899",
"2r	c #155cac",
"2s	c #4098d5",
"2t	c #50b2e4",
"2u	c #52b6e7",
"2v	c #1d88d1",
"2w	c #144797",
"2x	c #1887d2",
"2y	c #3289cd",
"2z	c #50b4e6",
"30	c #48b1e4",
"31	c #218bd4",
"32	c #144798",
"33	c #1a85d0",
"34	c #1893da",
"35	c #2b81c9",
"36	c #4ab3e6",
"37	c #32a2de",
"38	c #2490d5",
"39	c #134492",
"3a	c #1c89d2",
"3b	c #1b92d8",
"3c	c #76bde2",
"3d	c #2f89cf",
"3e	c #41ace4",
"3f	c #134493",
"3g	c #1d7bc5",
"3h	c #3394d6",
"3i	c #3198da",
"3j	c #124393",
"3k	c #207cc6",
"3l	c #259bdd",
"3m	c #124998",
"3n	c #2a9fdf",
"3o	c #9ad8f2",
"3p	c #2972bc",
"3q	c #30a0df",
"3r	c #299cdc",
"3s	c #84c8ea",
"3t	c #206bba",
"3u	c #2273be",
"3v	c #9ad8f1",
"3w	c #2d7ac1",
"3x	c #2f9fde",
"3y	c #114696",
"3z	c #299ddd",
"40	c #369ad9",
"41	c #2883ca",
"42	c #144e9f",
"43	c #289cdc",
"44	c #2498db",
"45	c #75bce2",
"46	c #318fd1",
"47	c #39a8e1",
"48	c #154e9f",
"49	c #2498da",
"4a	c #1e94d8",
"4b	c #2e86cc",
"4c	c #49b3e6",
"4d	c #32a4df",
"4e	c #1f7dc7",
"4f	c #154c9d",
"4g	c #1d94d9",
"4h	c #1b91d8",
"4i	c #3288cc",
"4j	c #53b8e9",
"4k	c #299edf",
"4l	c #1d7ac4",
"4m	c #144d9d",
"4n	c #1a91d7",
"4o	c #1892da",
"4p	c #3f98d5",
"4q	c #57bae8",
"4r	c #249adc",
"4s	c #1977c3",
"4t	c #154c9e",
"4u	c #8fd9f4",
"4v	c #5eafdf",
"4w	c #58b7e7",
"4x	c #59bae9",
"4y	c #1876c2",
"4z	c #144f9f",
"50	c #1658a7",
"51	c #73c1e7",
"52	c #55b2e5",
"53	c #67c4ed",
"54	c #5bbcea",
"55	c #52b7e8",
"56	c #49b2e5",
"57	c #31a2df",
"58	c #2499dc",
"59	c #1b96dc",
"5a	c #1777c5",
"5b	c #1657a6",
"5c	c #81cff0",
"5d	c #74c5ec",
"5e	c #3798da",
"5f	c #46a5df",
"5g	c #3f9ddb",
"5h	c #3d97d7",
"5i	c #3790d2",
"5j	c #3389ce",
"5k	c #3083c9",
"5l	c #2c7ec6",
"5m	c #2977c1",
"5n	c #2673be",
"5o	c #236db9",
"5p	c #2069b4",
"5q	c #1c63b1",
"5r	c #195cab",
"5s	c #195ead",
"                                                ",
"                                                ",
"                                                ",
"                                                ",
"1h0m0m++++++++++++++++++++++++++++++++++++++++5c",
"1i1yXXXXXXXXXXXXXXXXXXXXXXXXXXXXXXXXXXXXXXXXXX5d",
"1jXX2d0n................................0n4u515e",
"1k1z2e0o0q0t0606060606060606060606060t0q0o4v525f",
"1l202f2s0r0u0w080808080808080808080w0u0r4p4w535g",
"1m212g2t2y0v0x10130d0d0d0d0d0d13100x0v4i4q4x545h",
"1n222h2u2z353c1114180h0h0h0h181411454b4j1g1g555i",
"1o232i0f30363d1215191a1c1c1a191512464c0f0f0f565j",
"1p242j0a0a0a3e3h163o0i1d1d0i3v16401f0a0a0a0a1f5k",
"1q252k0b0b0b0y3i3m3p3s0i0i0l3w3y41470b0b0b0b0y5l",
"1r262l0e0e370z3j173q3t0l0l3u3x0z42174d0e0e0e575m",
"1s272m0g0s383f3k3n3r1b1e1e1b0g3z43484e4k0g0g0s5n",
"1t282n0j31393g3l0c0c0c0j0j0c0c0c44494f4l4r0c585o",
"1u292o2v323a0k090909090909090909094a4g4m4s0k0k5p",
"1v2a2p2w333b0707070707070707070707074h4n4t4y595q",
"1w2b2q2x34////////////////////////////4o//4z5a5r",
"1x2c2r0p||||||||||||||||||||||||||||||||0p505b5s",
"                                                ",
"                                                ",
"                                                "};