/* XPM */
static char * xpm_liner[] = {
"24 24 264 2",
"  	c None",
"XX	c #71cbef",
"++	c #1d71c1",
"..	c #3a9ada",
"||	c #1d5eb0",
"//	c #2571bf",
"06	c #81d4f2",
"07	c #7bd2f2",
"08	c #66c4ed",
"09	c #2aa2e1",
"0a	c #1855a7",
"0b	c #7ed2f2",
"0c	c #6cc7ed",
"0d	c #77cff1",
"0e	c #2a77c4",
"0f	c #7ad0f1",
"0g	c #40a1de",
"0h	c #2772c0",
"0i	c #266cbc",
"0j	c #3fa4e1",
"0k	c #68bee9",
"0l	c #3b9bdb",
"0m	c #2975c1",
"0n	c #4b9ed7",
"0o	c #3c91d3",
"0p	c #43aae3",
"0q	c #72c5eb",
"0r	c #bbe9f9",
"0s	c #59bae7",
"0t	c #3b98d9",
"0u	c #2673c0",
"0v	c #77cdef",
"0w	c #3daae3",
"0x	c #256aba",
"0y	c #42a9e3",
"0z	c #99daf1",
"10	c #9de0f7",
"11	c #8cdbf5",
"12	c #2771c1",
"13	c #62b6e3",
"14	c #40b0e5",
"15	c #2f8ad1",
"16	c #2364b6",
"17	c #75c6eb",
"18	c #ace4f9",
"19	c #98def6",
"1a	c #5cbbe7",
"1b	c #3793d8",
"1c	c #5aaadc",
"1d	c #44b1e5",
"1e	c #38aae4",
"1f	c #2366b7",
"1g	c #46a9e1",
"1h	c #bfebf9",
"1i	c #97ddf5",
"1j	c #80d5f3",
"1k	c #3a96d7",
"1l	c #3c89cd",
"1m	c #59bde8",
"1n	c #38aae3",
"1o	c #2d93d8",
"1p	c #2162b4",
"1q	c #3ea4e0",
"1r	c #ade3f5",
"1s	c #94dcf5",
"1t	c #83d5f3",
"1u	c #58b7e7",
"1v	c #3590d5",
"1w	c #428fd0",
"1x	c #67c2ea",
"1y	c #37a8e2",
"1z	c #32a7e1",
"20	c #29a0e0",
"21	c #217dcb",
"22	c #1d57a9",
"23	c #3fa5e0",
"24	c #91d5f1",
"25	c #90dbf5",
"26	c #3691d5",
"27	c #2574c3",
"28	c #6bbae4",
"29	c #44afe4",
"2a	c #39abe4",
"2b	c #32a9e2",
"2c	c #22a0de",
"2d	c #1e94da",
"2e	c #186fbf",
"2f	c #63b9e6",
"2g	c #a4e1f7",
"2h	c #7fd3f2",
"2i	c #54b3e3",
"2j	c #338dd2",
"2k	c #2878c6",
"2l	c #75bfe5",
"2m	c #70c9ed",
"2n	c #50b7e8",
"2o	c #44b2e5",
"2p	c #2e83cd",
"2q	c #2674c0",
"2r	c #2582cd",
"2s	c #218bd3",
"2t	c #1d9bdf",
"2u	c #196fbf",
"2v	c #399ddd",
"2w	c #b7e8f9",
"2x	c #83d4f2",
"2y	c #7cd1f1",
"2z	c #7bd3f3",
"30	c #3992d5",
"31	c #2a7dca",
"32	c #7ac3e7",
"33	c #77cbee",
"34	c #56bae9",
"35	c #4ab5e7",
"36	c #3fa7e2",
"37	c #2566b7",
"38	c #1e5cb0",
"39	c #1c59aa",
"3a	c #1a57aa",
"3b	c #3c9ede",
"3c	c #94d7f1",
"3d	c #89d7f4",
"3e	c #7bd0f1",
"3f	c #79d0f2",
"3g	c #56b5e5",
"3h	c #297fcc",
"3i	c #7dc7e8",
"3j	c #7ecff0",
"3k	c #5dc0eb",
"3l	c #52b9e8",
"3m	c #42ade3",
"3n	c #276ebd",
"3o	c #76c6e9",
"3p	c #8dd9f5",
"3q	c #2e86d0",
"3r	c #7ec5e9",
"3s	c #81d1ef",
"3t	c #63c2ed",
"3u	c #57beea",
"3v	c #49b1e5",
"3w	c #2872bf",
"3x	c #50ade2",
"3y	c #a0e0f6",
"3z	c #74ccf0",
"40	c #348fd4",
"41	c #58b4e6",
"42	c #6bc7ee",
"43	c #65c3ec",
"44	c #60c1ec",
"45	c #4fb4e6",
"46	c #2976c4",
"47	c #3a9bdb",
"48	c #91d5f2",
"49	c #3794d7",
"4a	c #6bc6ed",
"4b	c #65c4ed",
"4c	c #55bae9",
"4d	c #2b79c5",
"4e	c #3898d8",
"4f	c #6fc9ee",
"4g	c #6cc7ee",
"4h	c #5bbbe9",
"4i	c #2b7bc8",
"4j	c #3a95d6",
"4k	c #3d9fdd",
"4l	c #abe0f4",
"4m	c #7bd1f2",
"4n	c #76cef0",
"4o	c #63c1eb",
"4p	c #2b7ec9",
"4q	c #4baae1",
"4r	c #64c5ee",
"4s	c #5ebfec",
"4t	c #3693d7",
"4u	c #286fbe",
"4v	c #2669b9",
"4w	c #3da3df",
"4x	c #aee1f4",
"4y	c #94dbf5",
"4z	c #67c2ec",
"50	c #2d82cd",
"51	c #4eafe3",
"52	c #71caf0",
"53	c #7bcff0",
"54	c #68c4ec",
"55	c #4eb8e9",
"56	c #40abe3",
"57	c #2c81cb",
"58	c #2262b4",
"59	c #42a7e1",
"5a	c #b1e4f5",
"5b	c #98ddf6",
"5c	c #7dd2f2",
"5d	c #6cc8ed",
"5e	c #3289d1",
"5f	c #54b2e4",
"5g	c #71cdf1",
"5h	c #80d0f1",
"5i	c #7acef0",
"5j	c #6ac4ec",
"5k	c #5fbfea",
"5l	c #45b0e4",
"5m	c #3aade4",
"5n	c #30a2df",
"5o	c #2379c6",
"5p	c #1d5cae",
"5q	c #45ade4",
"5r	c #b7e6f6",
"5s	c #9cdef7",
"5t	c #86d7f3",
"5u	c #82d5f3",
"5v	c #73ccef",
"5w	c #3591d4",
"5x	c #358bd2",
"5y	c #3085ce",
"5z	c #3a91d4",
"60	c #4fa8de",
"61	c #54b4e6",
"62	c #5fc1ec",
"63	c #4ab3e6",
"64	c #39aae3",
"65	c #31a6e1",
"66	c #2aa3e1",
"67	c #238fd5",
"68	c #1856a8",
"69	c #47b1e6",
"6a	c #b5e6f7",
"6b	c #a0e1f6",
"6c	c #88d8f4",
"6d	c #87d8f4",
"6e	c #77cff0",
"6f	c #3996d6",
"6g	c #2b78c5",
"6h	c #3185cd",
"6i	c #3897d9",
"6j	c #37a5e0",
"6k	c #32aae2",
"6l	c #229ede",
"6m	c #1e9fe1",
"6n	c #45b2e8",
"6o	c #b9e8f8",
"6p	c #a2e2f7",
"6q	c #8ddaf5",
"6r	c #8bdaf5",
"6s	c #276cbc",
"6t	c #2666b8",
"6u	c #247cca",
"6v	c #2391d7",
"6w	c #1a56aa",
"6x	c #60c1eb",
"6y	c #bbeafa",
"6z	c #93ddf6",
"70	c #90dcf6",
"71	c #81d4f3",
"72	c #3d9edd",
"73	c #2162b3",
"74	c #1d5bac",
"75	c #46b2e8",
"76	c #97ddf4",
"77	c #98e1f8",
"78	c #3fa3df",
"79	c #44aee5",
"7a	c #4cb1e5",
"7b	c #41a6e1",
"                                        6n6x75  ",
"                                      696o6y7679",
"    0p0y                            5q6a6p6z777a",
"  0j0q0z171g1q23                  595r6b6q700f7b",
"0g0k0r10181h1r242f2v3b          4w5a5s6c6r7178  ",
"  0l0s11191i1s252g2w3c3o3x47  4k4x5b5t6d0772    ",
"    0t..1a1j1t062h2x3d3p3y484e4l4y065u6e..      ",
"        1b1k1u070b2y3e0b3z49XX4m0f5c5v6f        ",
"            1v262i2z3f0c400c0d4n0d5d5w          ",
"                2j303g3q41XX4fXX4z5e5x          ",
"                    3h3r424a4g4o505f5y          ",
"                  313i3s434b4h4p515g5z          ",
"                2k323j3t444c4i4q525h60          ",
"              272l333k3u454d4j4r535i616g        ",
"  0m0u12    //282m343l3v46  0e4s545j080e        ",
"0h0n0v131c1l1w082n353m3w      4t555k626h        ",
"0i0o0w141d1m1x292o363n        4u565l636i6s      ",
"    0x151e1n1y2a2p37          4v575m646j6t      ",
"      161f1o1z2b2q              585n656k//      ",
"          1p20092r                5o66096u73    ",
"          ||212c2s38              5p676l6v||    ",
"            222d2t39                ++6m++74    ",
"              2e2u3a                68++6w      ",
"              0a0a                              "};