/* XPM */
static char * xpm_linux[] = {
"24 24 257 2",
"  	c None",
"XX	c #000000",
"++	c #f7f7f7",
"..	c #383838",
"||	c #353535",
"//	c #e9e7e6",
"06	c #4d4d4e",
"07	c #a8a8a8",
"08	c #f9f9f9",
"09	c #f6f5f4",
"0a	c #ef923a",
"0b	c #f19c37",
"0c	c #f3ad30",
"0d	c #f1bc24",
"0e	c #fcaf5b",
"0f	c #ffb849",
"0g	c #ffc522",
"0h	c #ffe715",
"0i	c #ffc976",
"0j	c #fed19d",
"0k	c #ffc680",
"0l	c #ffbf38",
"0m	c #ffe117",
"0n	c #edbf23",
"0o	c #303030",
"0p	c #2d2d2e",
"0q	c #020712",
"0r	c #7d6949",
"0s	c #ffefb6",
"0t	c #ffd3a1",
"0u	c #ffc583",
"0v	c #ffc35a",
"0w	c #ffd720",
"0x	c #f2c91b",
"0y	c #3f3f3e",
"0z	c #484747",
"10	c #555a60",
"11	c #75593d",
"12	c #ecb871",
"13	c #ffd898",
"14	c #ffc682",
"15	c #ffc062",
"16	c #ffcb30",
"17	c #fee217",
"18	c #2a2a2a",
"19	c #282828",
"1a	c #2e2e2f",
"1b	c #5e5e5c",
"1c	c #a19f9b",
"1d	c #b3afa9",
"1e	c #747372",
"1f	c #53371e",
"1g	c #b37530",
"1h	c #f9bb69",
"1i	c #ffbb60",
"1j	c #ffc339",
"1k	c #ffe518",
"1l	c #f1ca1b",
"1m	c #060605",
"1n	c #2d2d2c",
"1o	c #6e6e6e",
"1p	c #cdcecf",
"1q	c #f2f2f2",
"1r	c #e6e3e1",
"1s	c #e0dad3",
"1t	c #f3ebdf",
"1u	c #817f7c",
"1v	c #5e340e",
"1w	c #f8aa50",
"1x	c #ffc536",
"1y	c #ffeb23",
"1z	c #f3cb1c",
"20	c #373737",
"21	c #383839",
"22	c #545251",
"23	c #82807b",
"24	c #8a693c",
"25	c #9d7222",
"26	c #936d0a",
"27	c #747170",
"28	c #a4a4a3",
"29	c #d1cec9",
"2a	c #f7f6f5",
"2b	c #fdfefe",
"2c	c #efefef",
"2d	c #dfdcd6",
"2e	c #e1d9cf",
"2f	c #f6eadb",
"2g	c #938d84",
"2h	c #666561",
"2i	c #e9c7a4",
"2j	c #c68f36",
"2k	c #b88b1a",
"2l	c #9c9c9c",
"2m	c #a9a9a7",
"2n	c #aeacaa",
"2o	c #dca460",
"2p	c #ffd955",
"2q	c #f9be2c",
"2r	c #e4b561",
"2s	c #f4f0ea",
"2t	c #e7e5e2",
"2u	c #f6f5f5",
"2v	c #f8f8f9",
"2w	c #f5f6f6",
"2x	c #f2f2f1",
"2y	c #e7e5df",
"2z	c #dfd8cd",
"30	c #eadfd1",
"31	c #fff2df",
"32	c #fffae5",
"33	c #fafaea",
"34	c #6b615b",
"35	c #6f6f6f",
"36	c #4b4b4b",
"37	c #222224",
"38	c #282524",
"39	c #daa772",
"3a	c #ffd971",
"3b	c #fdd316",
"3c	c #d5a005",
"3d	c #e2dad6",
"3e	c #e7e7e8",
"3f	c #f9fafa",
"3g	c #f7f8f8",
"3h	c #ece9e6",
"3i	c #e2dbd2",
"3j	c #e7dcce",
"3k	c #f3e7d7",
"3l	c #fff3e3",
"3m	c #fffff0",
"3n	c #8c867f",
"3o	c #7d7d7d",
"3p	c #393939",
"3q	c #aaaaa9",
"3r	c #969595",
"3s	c #ac7943",
"3t	c #ffd047",
"3u	c #efb62a",
"3v	c #d3a03b",
"3w	c #e7e1d8",
"3x	c #f9f9fa",
"3y	c #f8f8f8",
"3z	c #eceae7",
"40	c #e3dcd4",
"41	c #e8ddcf",
"42	c #f4e8d9",
"43	c #fcf3e6",
"44	c #fffff1",
"45	c #8a837a",
"46	c #434343",
"47	c #a2a2a2",
"48	c #484848",
"49	c #787775",
"4a	c #c8c5c1",
"4b	c #ac8859",
"4c	c #f2b72c",
"4d	c #e9b623",
"4e	c #f6ede4",
"4f	c #f7f6f8",
"4g	c #e4e2e0",
"4h	c #f3f3f3",
"4i	c #fafafb",
"4j	c #f5f4f3",
"4k	c #eceae5",
"4l	c #e3dcd3",
"4m	c #e7ded0",
"4n	c #f4eadd",
"4o	c #fef7eb",
"4p	c #fffff7",
"4q	c #716b63",
"4r	c #2f2f2f",
"4s	c #060607",
"4t	c #393938",
"4u	c #474545",
"4v	c #4c340b",
"4w	c #625133",
"4x	c #858283",
"4y	c #c7c3bd",
"4z	c #e8e5e1",
"50	c #f0f0ef",
"51	c #f2f1f0",
"52	c #e6e3de",
"53	c #dfdcd5",
"54	c #e5e0da",
"55	c #f1e8de",
"56	c #fff3e6",
"57	c #e0d9d1",
"58	c #554a4e",
"59	c #201f1e",
"5a	c #585654",
"5b	c #acacab",
"5c	c #e6e7e9",
"5d	c #ededed",
"5e	c #e3e1df",
"5f	c #dfe0df",
"5g	c #ecd8c3",
"5h	c #f7bf87",
"5i	c #f4b87a",
"5j	c #fab76e",
"5k	c #e8aa49",
"5l	c #c8a02b",
"5m	c #ffe11a",
"5n	c #030303",
"5o	c #171818",
"5p	c #a3a3a3",
"5q	c #cdcac9",
"5r	c #adaba8",
"5s	c #876949",
"5t	c #d79d59",
"5u	c #fdbc6a",
"5v	c #feb147",
"5w	c #ffbb29",
"5x	c #ffd423",
"5y	c #ffe716",
"5z	c #ffdb19",
"60	c #2e2e2e",
"61	c #2a2a2b",
"62	c #171718",
"63	c #0c0c0c",
"64	c #151515",
"65	c #1c1b1b",
"66	c #313030",
"67	c #2b2d2f",
"68	c #584632",
"69	c #eebe73",
"6a	c #ffc356",
"6b	c #ffc42d",
"6c	c #ffd41c",
"6d	c #ffee10",
"6e	c #1b1b1b",
"6f	c #050505",
"6g	c #050404",
"6h	c #323231",
"6i	c #292e32",
"6j	c #7f6548",
"6k	c #f8ca78",
"6l	c #ffc84c",
"6m	c #ffcd25",
"6n	c #ffdf16",
"6o	c #fee317",
"6p	c #242424",
"6q	c #111111",
"6r	c #090808",
"6s	c #1a1a1a",
"6t	c #050f1e",
"6u	c #a9803f",
"6v	c #ffcd4a",
"6w	c #ffc52b",
"6x	c #ffd91b",
"6y	c #ffea16",
"6z	c #e59a38",
"70	c #f8b12f",
"71	c #ffd11e",
"72	c #fee316",
"73	c #f0aa30",
"74	c #f6ca21",
"                      353o46                    ",
"                  202l070747..                  ",
"                  2106363p484rXX                ",
"                  222m373q494sXX                ",
"                  232n383r4a4tXX                ",
"                  242o393s4b4uXX                ",
"                  252p3a3t4c4vXX                ",
"                  262q3b3u4d4wXX                ",
"                XX272r3c3v4e4xXX5n              ",
"                1m282s3d3w4f4y59XX60            ",
"              181n292t3e//4g4z5aXX61            ",
"            0y191o2a2u08084h505b5o62||          ",
"            ..1a1p2b2v3f3x4i++5c06636e6p        ",
"          0o||1b1q2c2w3g3y++++5d5p646f6q        ",
"          0p0z1c1r//2x09094j515e5q656g6r        ",
"          0q101d1s2d2y3h3z4k525f5r666h6s        ",
"          0r111e1t2e2z3i404l535g5s676i6t        ",
"        0i0s121f1u2f303j414m545h5t686j6u6z      ",
"    0a0e0j0t131gXX2g313k424n555i5u696k6v70      ",
"    0b0f0k0u141h1v2h323l434o565j5v6a6l6w7173    ",
"    0c0g0l0v151i1w2i333m444p575k5w6b6m6x7274    ",
"    0d0h0m0w161j1x2j343n454q585l5x6c6n6y        ",
"        0n0x171k1y2k          5m5y6d6o          ",
"              1l1z              5z              "};