/* XPM */
static char * xpm_list[] = {
"24 24 236 2",
"  	c None",
"XX	c #ffffff",
"++	c #e1e9ee",
"..	c #e4eef2",
"||	c #edf2f5",
"//	c #fa8700",
"06	c #084d7b",
"07	c #417b9e",
"08	c #eadfb5",
"09	c #3b65ac",
"0a	c #edf3f5",
"0b	c #eef2f5",
"0c	c #115684",
"0d	c #fafafa",
"0e	c #345fa5",
"0f	c #3b65ad",
"0g	c #084776",
"0h	c #2a6890",
"0i	c #0d4e7a",
"0j	c #fbfafa",
"0k	c #3963ab",
"0l	c #fdfafa",
"0m	c #6794ac",
"0n	c #8caec0",
"0o	c #89abbe",
"0p	c #86a8be",
"0q	c #14537f",
"0r	c #e3d69d",
"0s	c #fcfbfa",
"0t	c #eff2f6",
"0u	c #ecf2f5",
"0v	c #3862ab",
"0w	c #f3f5f9",
"0x	c #3964ab",
"0y	c #3863ab",
"0z	c #325aa2",
"10	c #bbcddb",
"11	c #ebf2f5",
"12	c #3a729a",
"13	c #417b99",
"14	c #78a1bd",
"15	c #95b3c5",
"16	c #7ca5be",
"17	c #749db8",
"18	c #f4f6fb",
"19	c #c9d9e3",
"1a	c #cad9e3",
"1b	c #84a5bc",
"1c	c #82a6bc",
"1d	c #7da4bb",
"1e	c #759eb8",
"1f	c #6e94b1",
"1g	c #658ea5",
"1h	c #5986a0",
"1i	c #4e7d9c",
"1j	c #8bacc1",
"1k	c #87a9bf",
"1l	c #084d7c",
"1m	c #e6eef1",
"1n	c #fcfafa",
"1o	c #fcfcfc",
"1p	c #fcfcf7",
"1q	c #fcfcf9",
"1r	c #fbfcfc",
"1s	c #fcfffc",
"1t	c #ecf4f7",
"1u	c #86a9bf",
"1v	c #dce3ec",
"1w	c #fefffe",
"1x	c #f3faf6",
"1y	c #f5fafa",
"1z	c #f6fcfa",
"20	c #88a9bf",
"21	c #cedbe2",
"22	c #f4f5f8",
"23	c #e9f0f9",
"24	c #f6fbfd",
"25	c #fbfbfa",
"26	c #f4fcfa",
"27	c #89aac0",
"28	c #c2d3de",
"29	c #e7edf5",
"2a	c #e0e8f4",
"2b	c #eef3f5",
"2c	c #3763a9",
"2d	c #fafcfa",
"2e	c #f9fafa",
"2f	c #f0f4f7",
"2g	c #ebf0f3",
"2h	c #8babc0",
"2i	c #b7ccd9",
"2j	c #d9e4ec",
"2k	c #d8e2e8",
"2l	c #e5e8eb",
"2m	c #355fa6",
"2n	c #f1f9f8",
"2o	c #f9fcfa",
"2p	c #ebf0f4",
"2q	c #7ba2be",
"2r	c #a5c1ce",
"2s	c #cbd7e0",
"2t	c #d0dbe3",
"2u	c #d8dfe8",
"2v	c #335ca3",
"2w	c #e6f1f4",
"2x	c #f0f9f8",
"2y	c #f3f4fa",
"2z	c #f0f0f8",
"30	c #3a65ac",
"31	c #ecf1f5",
"32	c #7ea4be",
"33	c #94b4cb",
"34	c #b4ccda",
"35	c #bdd0de",
"36	c #ccd7e7",
"37	c #e2ebf1",
"38	c #ebf1f5",
"39	c #3863a9",
"3a	c #fafcfc",
"3b	c #f3fafa",
"3c	c #f7f2fa",
"3d	c #3b66ad",
"3e	c #f2f7f9",
"3f	c #f0f5f8",
"3g	c #eff2f5",
"3h	c #6f9db5",
"3i	c #8bacc5",
"3j	c #afc4d7",
"3k	c #b8cedc",
"3l	c #c6d4e2",
"3m	c #e4eaee",
"3n	c #e5eef0",
"3o	c #3560a9",
"3p	c #ebf5f7",
"3q	c #f9f7fc",
"3r	c #f5fdfa",
"3s	c #f1f8fa",
"3t	c #3c66b0",
"3u	c #edf2f4",
"3v	c #ecf2f3",
"3w	c #edf4f7",
"3x	c #325ca1",
"3y	c #5c8da7",
"3z	c #86adc3",
"40	c #8fb2ca",
"41	c #9eb8ce",
"42	c #224787",
"43	c #dae3eb",
"44	c #345ea4",
"45	c #e5eff2",
"46	c #f2f5f5",
"47	c #3962aa",
"48	c #f9fafb",
"49	c #f1fdfa",
"4a	c #3c68b1",
"4b	c #f0f4f8",
"4c	c #eaf4f5",
"4d	c #325aa1",
"4e	c #335ca1",
"4f	c #e3eaee",
"4g	c #e7f1ee",
"4h	c #3661a7",
"4i	c #f6f7fc",
"4j	c #f9fcfb",
"4k	c #3c67af",
"4l	c #f4f6fc",
"4m	c #f4f4f9",
"4n	c #e7f2f4",
"4o	c #eaf2f0",
"4p	c #325ba2",
"4q	c #7ba1bc",
"4r	c #c1d0d8",
"4s	c #3159a0",
"4t	c #d9e2e9",
"4u	c #e0e5ef",
"4v	c #345ea5",
"4w	c #edf5f7",
"4x	c #f9f8fc",
"4y	c #3c66af",
"4z	c #f2f5fa",
"50	c #e8f2f5",
"51	c #edf0f2",
"52	c #325ca3",
"53	c #6f99b5",
"54	c #e1e8ee",
"55	c #f0f1f3",
"56	c #88a6c4",
"57	c #2f569c",
"58	c #d1dde4",
"59	c #dbe4e7",
"5a	c #345ca2",
"5b	c #e9edf4",
"5c	c #eef3f7",
"5d	c #3d67b1",
"5e	c #f4f6fd",
"5f	c #f1f5f9",
"5g	c #f1f4f6",
"5h	c #335ca4",
"5i	c #6a98b4",
"5j	c #bdcedc",
"5k	c #2a4f95",
"5l	c #bdcddc",
"5m	c #c7d4de",
"5n	c #2f579b",
"5o	c #d4e0e9",
"5p	c #dae5ee",
"5q	c #eceef5",
"5r	c #3965ab",
"5s	c #e4eff2",
"5t	c #e8eef3",
"5u	c #2f589e",
"5v	c #074c7a",
"5w	c #c6d3da",
"5x	c #ccdbe3",
"5y	c #e0e6ef",
"5z	c #eaeef5",
"60	c #f7f8fc",
"61	c #4880a4",
"62	c #8faec1",
"63	c #95b6c7",
"64	c #a5bfd1",
"65	c #b6cada",
"66	c #c4d3e2",
"67	c #cfdbe5",
"68	c #cbdae3",
"69	c #cadae3",
"6a	c #ccdbe4",
"6b	c #27658e",
"6c	c #20628b",
"6d	c #1d5e8a",
"6e	c #1a5d88",
"6f	c #175b87",
"6g	c #155985",
"6h	c #135784",
"6i	c #125684",
"6j	c #105483",
"      0n1j1k0p1u20272h2q323h3y12                ",
"      0n++++1m1v21282i2r333i0m1312              ",
"      0o++XXXX1w22292j2s343j3z134q07            ",
"      0o++XX1n1x232a2k2t353k400m4r5307          ",
"      0p++XX1o0s242b2l2u363l410m..545i07        ",
"      1b++08////082c2m2v0z0z4214XX..5j1707      ",
"      1c++XX1p0d252d2n2w373m1014XX55..5w170h    ",
"      1d++XX1q0d0d0s2o2x383n431515561616616b    ",
"      1e++08////080k0k0x393o444e4s575k10626c    ",
"      1f++XX1r1y0j0j0d0j3a3p454f4t585l5x636d    ",
"      1g++XX1s1z262e0l0l0l3q464g4u595m5y646e    ",
"      1h++08////080v0k0y0y0x474h4v5a5n5z656f    ",
"      1i++XX1t0t0u2f0w2y3b3r484i4w5b5oXX666g    ",
"      07++XX0a||0u2g2p2z3c3s494j4x5c5pXX676h    ",
"      07++0r////080909303d3t4a4k4y5d0v18686i    ",
"      07++XX0a||||||||313e3u4b4l4z5e5qXX190c    ",
"      07++XX0a||||||||||3f3v0t4m0w5f11XX190c    ",
"      07++0r////0809090909090f0f0f0f5r181a0c    ",
"      07++XX0a||||||||||||||114n50||5sXX1a0c    ",
"      0h++XX0a0b0b0b0b0b3g3w4c4o515g5tXX690c    ",
"      0h++08////080e0e0e0e3x4d4p525h5u606a6j    ",
"      0q++XXXXXXXXXXXXXXXXXXXXXXXXXXXXXX..0q    ",
"      0i..................................0g    ",
"      0i0i1l0606060606060606060606065v0g0g0g    "};