/* XPM */
static char * xpm_low_rating[] = {
"24 24 174 2",
"  	c None",
"XX	c #ffffff",
"++	c #fdfdfd",
"..	c #fefefe",
"||	c #000000",
"//	c #fcfcfc",
"06	c #fafafa",
"07	c #fbfbfb",
"08	c #f9fafa",
"09	c #f8f9f9",
"0a	c #f5f6f6",
"0b	c #f3f4f4",
"0c	c #f3f3f3",
"0d	c #f7f7f7",
"0e	c #f4f5f5",
"0f	c #f1f2f2",
"0g	c #f2f3f3",
"0h	c #f6f8f9",
"0i	c #a09daa",
"0j	c #eaeded",
"0k	c #fcfbfb",
"0l	c #f7f8f8",
"0m	c #dedddf",
"0n	c #f8f8f8",
"0o	c #f6f5f5",
"0p	c #8f8b93",
"0q	c #9d9aa3",
"0r	c #85828a",
"0s	c #9b98a0",
"0t	c #f2f4f1",
"0u	c #d1d0d2",
"0v	c #7b757d",
"0w	c #b9b8bc",
"0x	c #eaeaeb",
"0y	c #d0d1d5",
"0z	c #77747b",
"10	c #bfbdc1",
"11	c #edefed",
"12	c #dedfe2",
"13	c #76737b",
"14	c #645d6c",
"15	c #d9dadc",
"16	c #f1f1f2",
"17	c #ebe9ec",
"18	c #726c76",
"19	c #241f29",
"1a	c #18121f",
"1b	c #120b15",
"1c	c #7b777f",
"1d	c #dfdee0",
"1e	c #f5f5f5",
"1f	c #f6f6f6",
"1g	c #dbdadc",
"1h	c #3e3a43",
"1i	c #3c3440",
"1j	c #9b979c",
"1k	c #aba9ad",
"1l	c #cdcbd0",
"1m	c #ebf0f3",
"1n	c #615e65",
"1o	c #88868c",
"1p	c #e1e0e2",
"1q	c #f7f9f9",
"1r	c #f9f9f9",
"1s	c #eaeceb",
"1t	c #dbdad9",
"1u	c #d8d8da",
"1v	c #dee1e5",
"1w	c #a09ea4",
"1x	c #f3f3f4",
"1y	c #faf9f9",
"1z	c #f8f7f7",
"20	c #eeeeee",
"21	c #e9e7ea",
"22	c #e0e5e7",
"23	c #e6e9e9",
"24	c #5d575f",
"25	c #94909c",
"26	c #e5e6e7",
"27	c #f2f1f2",
"28	c #ebebec",
"29	c #f0f2f1",
"2a	c #f0f0ef",
"2b	c #837c89",
"2c	c #a2a1a8",
"2d	c #f4f4f3",
"2e	c #f6f8f8",
"2f	c #f8f8f7",
"2g	c #443c46",
"2h	c #8d8a96",
"2i	c #aaa8ae",
"2j	c #f0f1f3",
"2k	c #fdfefe",
"2l	c #f5f8f8",
"2m	c #dfdde0",
"2n	c #f6f7f6",
"2o	c #f3f5f4",
"2p	c #f6f6f4",
"2q	c #f7f9f7",
"2r	c #ececec",
"2s	c #261f29",
"2t	c #f8f9f7",
"2u	c #f7f6f6",
"2v	c #f8f6f6",
"2w	c #f0f0f0",
"2x	c #403d45",
"2y	c #8e8a95",
"2z	c #a4a0ab",
"30	c #fafafb",
"31	c #fcfafa",
"32	c #f4f7f7",
"33	c #f1f0f3",
"34	c #85808c",
"35	c #8f8d98",
"36	c #dbdcde",
"37	c #faf8f8",
"38	c #f6f6f8",
"39	c #545057",
"3a	c #807e86",
"3b	c #d6d6d9",
"3c	c #f2f2f2",
"3d	c #edecec",
"3e	c #f2f1f3",
"3f	c #edeef0",
"3g	c #94919a",
"3h	c #edeeef",
"3i	c #f9f9fa",
"3j	c #eeedee",
"3k	c #e7e8e8",
"3l	c #e3e9e7",
"3m	c #e9eaec",
"3n	c #5b5960",
"3o	c #86828a",
"3p	c #e2e0e1",
"3q	c #fafaf9",
"3r	c #f8f8f9",
"3s	c #f6f6f9",
"3t	c #eceeee",
"3u	c #dddee0",
"3v	c #d8d9db",
"3w	c #dee0e1",
"3x	c #000002",
"3y	c #77707b",
"3z	c #d4d4d6",
"40	c #2c2835",
"41	c #332e3b",
"42	c #646067",
"43	c #8a888e",
"44	c #d4d1d7",
"45	c #e5e8e7",
"46	c #fdffff",
"47	c #76747a",
"48	c #5c5864",
"49	c #dadadb",
"4a	c #f1f1f1",
"4b	c #d9d7d8",
"4c	c #261c2b",
"4d	c #251e2b",
"4e	c #bdbcc0",
"4f	c #f6f5f3",
"4g	c #eef0f0",
"4h	c #cfd1d1",
"4i	c #27222c",
"4j	c #b6b6bb",
"4k	c #e9ebeb",
"4l	c #bdbfc2",
"4m	c #221b29",
"4n	c #98949c",
"4o	c #f4f5f7",
"4p	c #d9dcde",
"4q	c #5b5760",
"4r	c #807d89",
"4s	c #8f8c93",
"4t	c #7d7881",
"                      0i0i                      ",
"                    2h0j0j2y                    ",
"                    2i2n2t2z                    ",
"                  2b2j2o2u0m34                  ",
"                  2cXX2p2vXX35                  ",
"                  2d2k2q0hXX36                  ",
"                25XX09080830XX3a                ",
"        141c1o1w26XX06////31XX3b3g3o3y48        ",
"0p0s0w10151d1p1xXX++++++++++XXXX3h3p0m494e4j4n4r",
"0q0t0x0bXXXXXXXX..++++....++++XXXXXXXXXX4f4k4o4s",
"0r0uXX11161e1q06++++..XXXX..++++//090o0c4gXX4p4t",
"  0v0yXX0c0d06//++..XXXXXXXX..++//3q0a4aXX4l4q  ",
"    0z12XX1f06//++..XXXXXXXXXX++073r0bXX4h4m    ",
"      1317XX0807++++XXXXXXXX..++063sXX4b4i      ",
"        181gXX1y07++........++//3iXX3z4c        ",
"          1hXX1z0607++++++++//070dXX40          ",
"          1iXX0e0908070k0k07060n0eXX41          ",
"          1jXX0f0a2e090l0l0n370a0fXX42          ",
"          1k1r20270g2lXXXX320g3c3jXX43          ",
"        ||1l1s21282fXX2r2wXX0o3d3k3t44||        ",
"        ||XX1t22290h2m2s2x33383e3l3u45||        ",
"        191m1u232a2g||    ||393f3m3v46||        ",
"        1aXX1v24||            ||3n3wXX4d        ",
"        1b1n||                    3x47||        "};