/* XPM */
static char * xpm_magic_wand[] = {
"24 24 165 2",
"  	c None",
"XX	c #97999c",
"++	c #747578",
"..	c #383839",
"||	c #cecfd1",
"//	c #48484b",
"06	c #cdced0",
"07	c #595e67",
"08	c #faae12",
"09	c #f7e411",
"0a	c #434853",
"0b	c #f7f238",
"0c	c #f7f34d",
"0d	c #faf699",
"0e	c #f9d40f",
"0f	c #f7e211",
"0g	c #f7e511",
"0h	c #f7e611",
"0i	c #f7e812",
"0j	c #343334",
"0k	c #737475",
"0l	c #333233",
"0m	c #3b383b",
"0n	c #6e6f6f",
"0o	c #cfd0d3",
"0p	c #9ea1a4",
"0q	c #363637",
"0r	c #404042",
"0s	c #727275",
"0t	c #737478",
"0u	c #4b4b4c",
"0v	c #434346",
"0w	c #757679",
"0x	c #474749",
"0y	c #7b7b7c",
"0z	c #4c4c50",
"10	c #7d7d80",
"11	c #515254",
"12	c #808083",
"13	c #565659",
"14	c #838487",
"15	c #4b4b4d",
"16	c #5a5c5e",
"17	c #85878a",
"18	c #96999c",
"19	c #737477",
"1a	c #4d4e52",
"1b	c #3b3b3d",
"1c	c #5d5f61",
"1d	c #898a8d",
"1e	c #cccdcf",
"1f	c #96989b",
"1g	c #747478",
"1h	c #575759",
"1i	c #414143",
"1j	c #fca311",
"1k	c #a8aaac",
"1l	c #c8c9cb",
"1m	c #95979a",
"1n	c #737677",
"1o	c #595a5e",
"1p	c #474748",
"1q	c #a6a8ae",
"1r	c #fcfdfd",
"1s	c #ededee",
"1t	c #87888b",
"1u	c #5c5c5e",
"1v	c #484b4d",
"1w	c #fab512",
"1x	c #fab212",
"1y	c #f9bf12",
"1z	c #f8e311",
"20	c #dab71d",
"21	c #b3b58b",
"22	c #fafbff",
"23	c #ecedee",
"24	c #d8dadc",
"25	c #9a9c9f",
"26	c #4b4b4e",
"27	c #fab711",
"28	c #fab611",
"29	c #fac310",
"2a	c #f7ee14",
"2b	c #f7ec1c",
"2c	c #f7f323",
"2d	c #efeb28",
"2e	c #f9f416",
"2f	c #f7f4a3",
"2g	c #f0ee81",
"2h	c #d7d8de",
"2i	c #9d9fa5",
"2j	c #f9d511",
"2k	c #f7e413",
"2l	c #f7f222",
"2m	c #f7f34e",
"2n	c #f7f33a",
"2o	c #f8f21b",
"2p	c #d7d584",
"2q	c #989dab",
"2r	c #fac610",
"2s	c #fac910",
"2t	c #f9cf11",
"2u	c #f7eb1a",
"2v	c #f8f467",
"2w	c #f9f68b",
"2x	c #f9f68f",
"2y	c #f8f46c",
"2z	c #f7f33c",
"30	c #fdf717",
"31	c #a8a027",
"32	c #facc10",
"33	c #f7f223",
"34	c #f9f68d",
"35	c #fbfacd",
"36	c #fbfad2",
"37	c #faf695",
"38	c #f7f554",
"39	c #e7e32d",
"3a	c #e1c61a",
"3b	c #ffd20e",
"3c	c #f9d210",
"3d	c #f7e813",
"3e	c #f7f124",
"3f	c #f7f34f",
"3g	c #f9f691",
"3h	c #fcfad6",
"3i	c #fcfadd",
"3j	c #f8f455",
"3k	c #f8ef24",
"3l	c #f9df11",
"3m	c #face0f",
"3n	c #f8db0e",
"3o	c #f7ef1c",
"3p	c #f7f33e",
"3q	c #f8f470",
"3r	c #faf79c",
"3s	c #f8f475",
"3t	c #f7f343",
"3u	c #f7f220",
"3v	c #f7e410",
"3w	c #f7e20f",
"3x	c #f7e913",
"3y	c #f7f126",
"3z	c #f7f342",
"40	c #f8f458",
"41	c #f8f459",
"42	c #f7f345",
"43	c #f7f22a",
"44	c #f8d90f",
"45	c #f8da0f",
"46	c #f7de0f",
"47	c #f7e20e",
"48	c #f7ef15",
"49	c #f7f01f",
"4a	c #f7f229",
"4b	c #f7f028",
"4c	c #f7f121",
"4d	c #f7df0f",
"4e	c #f6ec12",
"4f	c #f7ed13",
"4g	c #f7e610",
"4h	c #f7e711",
"4i	c #f7e311",
"4j	c #f7e912",
"4k	c #f6ed11",
"                              2r    0e          ",
"                          27  2s323c0e  46      ",
"                          282j2t093d3n3w        ",
"                        1w292k2u333e3o3x470g    ",
"                        1x2a2l0b0c3f3p3y480f    ",
"                      08092b0b2v343g3q3z494e0i  ",
"                        1y2c0c2w353h0d404a0h    ",
"                    1j081z2d2m2x363i3r414b4f4j4k",
"                        202e2n2y370d3s424c4g    ",
"                      07212f2o2z383j3t430g4h0i  ",
"                    071q222g2p30393k3u0f0h      ",
"                  1c1k1r232h2q313a3l3v444d4i    ",
"                161d1l1s242i0a  3b3m  45        ",
"              13171e1m1t250a                    ",
"            1114061f1n1u26                      ",
"          0z1206181g1o1v                        ",
"        0x1006XX191h1p                          ",
"      0v0y||XX++1a1i                            ",
"    0r0w||XX++151b                              ",
"  0m0s||XX++//..                                ",
"0j0n||XX++//..                                  ",
"0k0oXX++//..                                    ",
"0l0p0t//..                                      ",
"  0q0u..                                        "};