/* XPM */
static char * xpm_male[] = {
"24 24 262 2",
"  	c None",
"XX	c #01b5db",
"++	c #02acda",
"..	c #02abda",
"||	c #01b9db",
"//	c #02b0db",
"06	c #05b1e0",
"07	c #002e78",
"08	c #00c8dc",
"09	c #00c1db",
"0a	c #01b8db",
"0b	c #00c2db",
"0c	c #002b77",
"0d	c #faa22c",
"0e	c #00cade",
"0f	c #44cce1",
"0g	c #00d2ea",
"0h	c #03b0dc",
"0i	c #00337d",
"0j	c #01b6db",
"0k	c #02aeda",
"0l	c #292b2f",
"0m	c #fbac33",
"0n	c #00d2e4",
"0o	c #ffd77c",
"0p	c #feac36",
"0q	c #fb9a24",
"0r	c #0078b7",
"0s	c #00448a",
"0t	c #004c8f",
"0u	c #00498f",
"0v	c #025998",
"0w	c #00387f",
"0x	c #00559a",
"0y	c #0c77b0",
"0z	c #5ae0ee",
"10	c #48e4f2",
"11	c #3fd9ef",
"12	c #00458b",
"13	c #0271ae",
"14	c #6ff2f6",
"15	c #43e0ee",
"16	c #00b2dd",
"17	c #01aedd",
"18	c #005fa4",
"19	c #0783b8",
"1a	c #59e7eb",
"1b	c #68eef1",
"1c	c #00e0ed",
"1d	c #03c7e4",
"1e	c #01b3dd",
"1f	c #0081bd",
"1g	c #0280ba",
"1h	c #5feaec",
"1i	c #5becef",
"1j	c #00e2ee",
"1k	c #00d9ea",
"1l	c #02c8e3",
"1m	c #02bcdf",
"1n	c #03addb",
"1o	c #018ec7",
"1p	c #003079",
"1q	c #303236",
"1r	c #2b2c32",
"1s	c #27292d",
"1t	c #202228",
"1u	c #23222b",
"1v	c #c1ad8f",
"1w	c #fcc67b",
"1x	c #f5c27d",
"1y	c #e9812b",
"1z	c #ec4300",
"20	c #0079b9",
"21	c #45cfe6",
"22	c #61edef",
"23	c #00e6ed",
"24	c #00dae7",
"25	c #00cde3",
"26	c #01bcdd",
"27	c #04b1e1",
"28	c #34333a",
"29	c #2f3236",
"2a	c #2b2b31",
"2b	c #26272c",
"2c	c #1a1e26",
"2d	c #77634b",
"2e	c #ffde75",
"2f	c #ffcc6b",
"2g	c #fec260",
"2h	c #ffbb5a",
"2i	c #ffc879",
"2j	c #df5d13",
"2k	c #2dd2c5",
"2l	c #00dee6",
"2m	c #00dce5",
"2n	c #00d0e1",
"2o	c #00c3dc",
"2p	c #33343b",
"2q	c #323338",
"2r	c #2e2f34",
"2s	c #25272c",
"2t	c #141921",
"2u	c #947854",
"2v	c #ffd776",
"2w	c #ffcb70",
"2x	c #fdab31",
"2y	c #fa9f27",
"2z	c #fb9820",
"30	c #ffb765",
"31	c #c65508",
"32	c #00d4e8",
"33	c #00d2dd",
"34	c #00cadd",
"35	c #00b9db",
"36	c #34373b",
"37	c #313338",
"38	c #2c2e33",
"39	c #21242a",
"3a	c #111422",
"3b	c #e6be73",
"3c	c #ffd376",
"3d	c #fec25d",
"3e	c #fba931",
"3f	c #fa9822",
"3g	c #ff9925",
"3h	c #d95e23",
"3i	c #00b9b2",
"3j	c #00d1df",
"3k	c #04b0e0",
"3l	c #34343a",
"3m	c #2f3237",
"3n	c #2b2c33",
"3o	c #22232b",
"3p	c #131723",
"3q	c #977f5b",
"3r	c #ffe280",
"3s	c #ffd176",
"3t	c #fbb843",
"3u	c #fb9924",
"3v	c #fb9019",
"3w	c #ec873b",
"3x	c #9c710a",
"3y	c #00cfe3",
"3z	c #00c2dc",
"40	c #34343c",
"41	c #2f3137",
"42	c #282931",
"43	c #453f3e",
"44	c #ffff9a",
"45	c #ffe487",
"46	c #ffd67b",
"47	c #fed275",
"48	c #fbb23a",
"49	c #fbab33",
"4a	c #fba22d",
"4b	c #fa9924",
"4c	c #fd921b",
"4d	c #e9741d",
"4e	c #956e0b",
"4f	c #01adda",
"4g	c #34333b",
"4h	c #2e3236",
"4i	c #28282f",
"4j	c #3f3b3b",
"4k	c #fff293",
"4l	c #fedb83",
"4m	c #fecc68",
"4n	c #fab43c",
"4o	c #f9a22c",
"4p	c #fd951e",
"4q	c #d95509",
"4r	c #8a8312",
"4s	c #00c7db",
"4t	c #01badb",
"4u	c #333439",
"4v	c #2d2f34",
"4w	c #2a2a30",
"4x	c #191c29",
"4y	c #fff998",
"4z	c #ffdc84",
"50	c #fed67b",
"51	c #fdcb67",
"52	c #fab43b",
"53	c #ff981d",
"54	c #bd3303",
"55	c #00c1c4",
"56	c #00cfde",
"57	c #323339",
"58	c #2d2e33",
"59	c #292b31",
"5a	c #191d25",
"5b	c #877759",
"5c	c #ffec8b",
"5d	c #fdc85e",
"5e	c #fbb43d",
"5f	c #fba42d",
"5g	c #ffa126",
"5h	c #ef7416",
"5i	c #875408",
"5j	c #00d7e6",
"5k	c #00cfdc",
"5l	c #05b1e1",
"5m	c #2c2d33",
"5n	c #28292e",
"5o	c #23242a",
"5p	c #0f121e",
"5q	c #816c50",
"5r	c #ffef88",
"5s	c #ffda72",
"5t	c #ffbf3f",
"5u	c #ffb73b",
"5v	c #fca22c",
"5w	c #bf4a0b",
"5x	c #674407",
"5y	c #00d2e8",
"5z	c #00d0db",
"60	c #00cedb",
"61	c #02acdb",
"62	c #029ed2",
"63	c #00307b",
"64	c #282a2f",
"65	c #24252b",
"66	c #1e2025",
"67	c #0e131d",
"68	c #191a23",
"69	c #43302a",
"6a	c #963a0b",
"6b	c #a73f09",
"6c	c #0081ca",
"6d	c #00a6cd",
"6e	c #00d2da",
"6f	c #00cfdb",
"6g	c #02addb",
"6h	c #0290ca",
"6i	c #00327c",
"6j	c #00c1d7",
"6k	c #00d1dd",
"6l	c #0073b1",
"6m	c #00c1d9",
"6n	c #00cede",
"6o	c #00c4dc",
"6p	c #03b1de",
"6q	c #0065a5",
"6r	c #006aaa",
"6s	c #009ec6",
"6t	c #00cde1",
"6u	c #00bddd",
"6v	c #01b7db",
"6w	c #04b5e0",
"6x	c #003f88",
"6y	c #0060a3",
"6z	c #005fa2",
"70	c #0095c5",
"71	c #01a9d4",
"72	c #03bbe3",
"73	c #02a7d8",
"74	c #00367d",
"75	c #005194",
"76	c #00478c",
"77	c #003b84",
"78	c #004a90",
"79	c #003e86",
"                2p363l404g4u57                  ",
"              282q373m414h4v585m                ",
"            1q292r383n424i4w595n64              ",
"            1r2a0l0l3o434j4x5a5o65              ",
"            1s2b2s393p444k4y5b5p66              ",
"            1t2c2t3a3q454l4z5c5q67              ",
"            1u2d2u3b3r460o500o5r68              ",
"            1v2e2v3c3s474m515d5s69              ",
"            1w2f2w3d3t484n525e5t6a              ",
"            1x2g2x3e0m490p0p0m5u6b              ",
"            1y2h2y0d0d4a4o0d5f5v                ",
"            1z2i2z3f3u4b0q0q5g5w                ",
"            202j303g3v4c4p535h5x6c              ",
"          1g212k313h3w4d4q545i5y6d0r            ",
"        191h222l323i3x4e4r555j5z6e6j6l          ",
"      131a1i232m333j3y0n0n565k606f6k6m6r        ",
"    0x0f1b1j242n3408080e4s0e08080e086n6s6y      ",
"    0y141c1k252o0b0b3z09090909090b0b6o6t6z      ",
"  0s0f150g1l260a35||||||4t||||0a0a||||6u7075    ",
"  0t0z0g1d1m0jXX0aXXXXXXXXXXXXXXXX0jXX6v7176    ",
"  0u10161e////0k++////4f0k++//++++++++//7277    ",
"  0v11170h1n..............++++616g0h6p6w7378    ",
"  0w12181f1o2706063k060606065l626h0r6q6x7479    ",
"        0i1p07070707070c0c0c0c636i0i            "};