/* XPM */
static char * xpm_medium_rating[] = {
"24 24 172 2",
"  	c None",
"XX	c #ffffff",
"++	c #ffee68",
"..	c #fac611",
"||	c #fdd700",
"//	c #fddd00",
"06	c #fde400",
"07	c #a95025",
"08	c #a94f26",
"09	c #c8835a",
"0a	c #aa5225",
"0b	c #ffe073",
"0c	c #fcd006",
"0d	c #fdd106",
"0e	c #ffea74",
"0f	c #f2f2f2",
"0g	c #9e9ba3",
"0h	c #7b7781",
"0i	c #c78155",
"0j	c #c68055",
"0k	c #ddb295",
"0l	c #fcd7a7",
"0m	c #c98356",
"0n	c #dfbda7",
"0o	c #fdc367",
"0p	c #f6b764",
"0q	c #c47e57",
"0r	c #c67f51",
"0s	c #f0e0d4",
"0t	c #fec666",
"0u	c #ffcb6f",
"0v	c #ecb063",
"0w	c #c57f57",
"0x	c #c67f53",
"0y	c #f6debf",
"0z	c #ffcb69",
"10	c #ffcd70",
"11	c #ffd072",
"12	c #ebb264",
"13	c #c68059",
"14	c #a94f25",
"15	c #ac5426",
"16	c #c57d51",
"17	c #fff7da",
"18	c #ffd06a",
"19	c #ffd171",
"1a	c #ffd271",
"1b	c #ffd573",
"1c	c #eeb866",
"1d	c #a44726",
"1e	c #a74b26",
"1f	c #b75f2c",
"1g	c #bf7246",
"1h	c #d4a186",
"1i	c #dfad7d",
"1j	c #edc184",
"1k	c #ffdd94",
"1l	c #fff1c2",
"1m	c #ffd46b",
"1n	c #ffd671",
"1o	c #ffd772",
"1p	c #ffd774",
"1q	c #ffd353",
"1r	c #f2b117",
"1s	c #ffefac",
"1t	c #ffe284",
"1u	c #ffd961",
"1v	c #fdc20e",
"1w	c #fcc311",
"1x	c #ffc808",
"1y	c #ca7426",
"1z	c #ca8861",
"20	c #ffeba4",
"21	c #ffda6d",
"22	c #ffda71",
"23	c #ffdb72",
"24	c #ffdb75",
"25	c #ffd029",
"26	c #fac810",
"27	c #fbc80e",
"28	c #fccb0a",
"29	c #f9ba17",
"2a	c #ab5226",
"2b	c #c78055",
"2c	c #e5c9b2",
"2d	c #ffe684",
"2e	c #ffdf71",
"2f	c #ffe174",
"2g	c #fbcf09",
"2h	c #fcd106",
"2i	c #ffd500",
"2j	c #ca7326",
"2k	c #aa5325",
"2l	c #c78054",
"2m	c #c67e56",
"2n	c #e0b999",
"2o	c #fff0a7",
"2p	c #ffe66e",
"2q	c #ffe472",
"2r	c #ffe575",
"2s	c #ffe574",
"2t	c #ffe576",
"2u	c #ffe35b",
"2v	c #fcd601",
"2w	c #fed800",
"2x	c #ffdc00",
"2y	c #f7b817",
"2z	c #ab5125",
"30	c #c78154",
"31	c #c67e55",
"32	c #e1b99a",
"33	c #fff3a8",
"34	c #ffec6d",
"35	c #ffeb71",
"36	c #ffea73",
"37	c #ffea75",
"38	c #ffea78",
"39	c #ffe739",
"3a	c #fede00",
"3b	c #fdde00",
"3c	c #ffe400",
"3d	c #c16926",
"3e	c #ca7f4d",
"3f	c #e3bda2",
"3g	c #fff8aa",
"3h	c #fff45f",
"3i	c #ffef64",
"3j	c #ffee67",
"3k	c #ffef68",
"3l	c #ffee6c",
"3m	c #ffeb00",
"3n	c #fde500",
"3o	c #ffe800",
"3p	c #eeb51a",
"3q	c #a94726",
"3r	c #a3a5b3",
"3s	c #e5e8ee",
"3t	c #878996",
"3u	c #94909a",
"3v	c #a7a4ae",
"3w	c #e0dfe2",
"3x	c #545058",
"3y	c #8c8893",
"3z	c #a4a1aa",
"40	c #e0dee0",
"41	c #8a878d",
"42	c #9c99a2",
"43	c #e3e1e4",
"44	c #5b575e",
"45	c #b7b5bb",
"46	c #9f9ca2",
"47	c #5c575f",
"48	c #949099",
"49	c #97949b",
"4a	c #848088",
"4b	c #949097",
"4c	c #a4a1a7",
"4d	c #d4d2d5",
"4e	c #efeeee",
"4f	c #8c888f",
"4g	c #79757f",
"4h	c #9c99a0",
"4i	c #56525a",
"4j	c #504b53",
"4k	c #77747b",
"4l	c #5f5a62",
"4m	c #9f9ba3",
"4n	c #dad8db",
"4o	c #9c99a1",
"4p	c #c1bfc4",
"4q	c #918e96",
"4r	c #928e96",
"                      3e3r                      ",
"                    303f3s3u                    ",
"                    313gXX3v                    ",
"                  2l323hXX3w3y                  ",
"                  2m333iXXXX3z                  ",
"                2b2n343jXXXX40                  ",
"                092o353kXXXXXX42                ",
"      0r0x16091z2c2p36++XXXXXX43450g484g0h0h    ",
"0i0k0n0s0y171l202d2q0e++XXXXXXXXXXXXXXXX0f4n4p4q",
"0j0l0o0t0z181m212e2r0e++XXXXXXXXXXXXXXXXXXXXXX4r",
"  0m0p0u10191n220b2s37++XXXXXXXXXXXXXXXXXXXX0g  ",
"    0q0v111a1o230b2t383lXXXXXXXXXXXXXXXXXX4o    ",
"      0w121b1p242f2u393mXXXXXXXXXXXXXXXX4m      ",
"        131c1q252g2v//06XXXXXXXXXXXXXX4h        ",
"          1d1r260c2w//3nXXXXXXXXXXXX49          ",
"          1e1s..0c||3a06XXXXXXXXXXXX4a          ",
"          1f1t..0d||//06XXXXXXXXXXXX4b          ",
"          1g1u..2h||3b3oXXXXXXXXXXXX4c          ",
"        071h1v270d2x3c3pXXXXXXXXXXXX4d          ",
"        141i1w282i2y3d3q3t0fXXXXXXXX4e4i        ",
"        081j1x292j2z0a    3x41XXXXXXXX4j        ",
"        081k1y2a2k            4446XXXX4k        ",
"        15070a                    474f4l        ",
"                                                "};