/* XPM */
static char * xpm_message[] = {
"24 24 133 2",
"  	c None",
"XX	c #f5a713",
"++	c #ce5c16",
"..	c #efa810",
"||	c #ef9f11",
"//	c #df8029",
"06	c #f5c60f",
"07	c #efb10e",
"08	c #cb5207",
"09	c #b83104",
"0a	c #b82e05",
"0b	c #f4d50d",
"0c	c #f5d20e",
"0d	c #f5ce0f",
"0e	c #f5ca10",
"0f	c #d2d7da",
"0g	c #eef4f7",
"0h	c #f5be10",
"0i	c #f5b912",
"0j	c #f5b412",
"0k	c #f5b013",
"0l	c #f5ab13",
"0m	c #76ccef",
"0n	c #49b3e5",
"0o	c #269cdc",
"0p	c #f7e42d",
"0q	c #df822b",
"0r	c #f5dd14",
"0s	c #f5dc13",
"0t	c #ea9b05",
"0u	c #d3521e",
"0v	c #be4719",
"0w	c #f7e42c",
"0x	c #f6e42c",
"0y	c #f5dd15",
"0z	c #f7e52e",
"10	c #f5dc12",
"11	c #df812a",
"12	c #df812b",
"13	c #dde6eb",
"14	c #d6dde1",
"15	c #f5c110",
"16	c #ea9c05",
"17	c #f5c00f",
"18	c #dd7c28",
"19	c #db7a28",
"1a	c #db7928",
"1b	c #da7728",
"1c	c #d97628",
"1d	c #d87428",
"1e	c #d77328",
"1f	c #d67027",
"1g	c #d57028",
"1h	c #d46f29",
"1i	c #d36c27",
"1j	c #d16b27",
"1k	c #d75e21",
"1l	c #f2d954",
"1m	c #f6e439",
"1n	c #f5dc24",
"1o	c #f5d920",
"1p	c #f6d522",
"1q	c #f6d224",
"1r	c #f7d632",
"1s	c #f8d438",
"1t	c #f8d039",
"1u	c #f8cc3a",
"1v	c #f8ca3c",
"1w	c #f7c233",
"1x	c #f6ba28",
"1y	c #eea327",
"1z	c #bc4618",
"20	c #f8e945",
"21	c #f7e021",
"22	c #f6db18",
"23	c #f7d819",
"24	c #f7d41a",
"25	c #f7d01c",
"26	c #f7ce1d",
"27	c #f1bc1a",
"28	c #e79815",
"29	c #f1b41d",
"2a	c #df7f14",
"2b	c #f1ab1d",
"2c	c #df7311",
"2d	c #f5dc14",
"2e	c #f7e42e",
"2f	c #f3e237",
"2g	c #e4ca2a",
"2h	c #e1bf1e",
"2i	c #e1bd1f",
"2j	c #e2ba21",
"2k	c #e8bf1f",
"2l	c #ebda50",
"2m	c #ecf3f6",
"2n	c #eaf1f5",
"2o	c #edaa08",
"2p	c #efb00e",
"2q	c #e3880b",
"2r	c #db6f0b",
"2s	c #dc680b",
"2t	c #e9d84e",
"2u	c #e99b06",
"2v	c #e7d64c",
"2w	c #e5d549",
"2x	c #e5d348",
"2y	c #f4bf0f",
"2z	c #e4d146",
"30	c #f4c00f",
"31	c #e0ce3f",
"32	c #d4551f",
"33	c #eac825",
"34	c #d6b718",
"35	c #d0aa13",
"36	c #d0a513",
"37	c #cf9c13",
"38	c #d49c10",
"39	c #eeaa08",
"3a	c #f5c210",
"3b	c #ed9514",
"3c	c #c14c18",
"3d	c #d97217",
"3e	c #d46815",
"3f	c #d36414",
"3g	c #d05d12",
"3h	c #cd5912",
"3i	c #cc5b12",
"3j	c #d66918",
"3k	c #d56818",
"3l	c #d46518",
"3m	c #d26417",
"3n	c #d16118",
"3o	c #d06017",
"                                                ",
"                                                ",
"                                                ",
"                                                ",
"  1k////////////////////////11120q120q0q0q1132  ",
"0u1l200p0w0x0w0x0p0p0p2e0z0z2f2l2t2v2w2x2z31330u",
"181m210r0s0y2d0y0r0r0s0s10102g2m0g0g0g0g0g0g343d",
"191n220b0b0b0b0b0b0b0b0b0b0b2h2n0m0m0m0m0m0g353e",
"1a1o230c0c0c0c0c0c0c0c0c0c0c2i130n0n0n0n0n13363f",
"1b1p240d0d0d0d0d0d0d0d0d0d0d2j140o0o0o0o0o14373g",
"1c1q250e0e0e0e0e0e0e0e0e0e0e2k0f0f0f0f0f0f0f383h",
"1d1r260606060606060606060606062o2u160t0t0t16393i",
"1e1s270707070707070707070707072p1517172y30153a3j",
"1f1t280808080808080808080808082q0h0h0h0h0h0h0h3k",
"1g1u29..........................0i0i0i0i0i0i0i3l",
"1h1v2a0909090909090909090909092r0j0j0j0j0j0j0j3m",
"1i1w2b||||||||||||||||||||||||||0k0k0k0k0k0k0k3n",
"1j1x2c0a0a0a0a0a0a0a0a0a0a0a0a2s0l0l0l0l0l0l0l3o",
"0v1yXXXXXXXXXXXXXXXXXXXXXXXXXXXXXXXXXXXXXXXX3b0v",
"  1z++++++++++++++++++++++++++++++++++++++++3c  ",
"                                                ",
"                                                ",
"                                                ",
"                                                "};