/* XPM */
static char * xpm_mobile-phone[] = {
"24 24 132 2",
"  	c None",
"XX	c #c7c6c9",
"++	c #393c43",
"..	c #54575e",
"||	c #484f59",
"//	c #9f9ea5",
"06	c #5dbae4",
"07	c #80c8ea",
"08	c #95d1ee",
"09	c #a3d9f3",
"0a	c #89d4f0",
"0b	c #36353b",
"0c	c #3c3d42",
"0d	c #ffffff",
"0e	c #2f2d33",
"0f	c #66666f",
"0g	c #b2e2f5",
"0h	c #aae4fa",
"0i	c #7dcaea",
"0j	c #52535a",
"0k	c #8099ac",
"0l	c #67afd3",
"0m	c #b1e2f5",
"0n	c #4e454b",
"0o	c #373940",
"0p	c #454950",
"0q	c #98949b",
"0r	c #979399",
"0s	c #959095",
"0t	c #8f8d91",
"0u	c #8d898f",
"0v	c #89868b",
"0w	c #8a888c",
"0x	c #696870",
"0y	c #5c5b62",
"0z	c #595962",
"10	c #56565d",
"11	c #53525a",
"12	c #4f5056",
"13	c #4a4b52",
"14	c #4a4a51",
"15	c #55585f",
"16	c #57585f",
"17	c #5d5e66",
"18	c #63636d",
"19	c #c4c0c4",
"1a	c #768fa5",
"1b	c #7c95a9",
"1c	c #8197aa",
"1d	c #839aac",
"1e	c #8ba2b3",
"1f	c #67646b",
"1g	c #393c42",
"1h	c #3d3f46",
"1i	c #656771",
"1j	c #a2a1a4",
"1k	c #8ac8e4",
"1l	c #5bbfeb",
"1m	c #80cdf0",
"1n	c #97d7f4",
"1o	c #a6dffa",
"1p	c #b5e8fc",
"1q	c #4f474e",
"1r	c #e9f1f6",
"1s	c #ebf6fe",
"1t	c #7e8e9b",
"1u	c #35373d",
"1v	c #e5f2f9",
"1w	c #798997",
"1x	c #fdffff",
"1y	c #e3f1fa",
"1z	c #89d5f2",
"20	c #b4e6fa",
"21	c #7eccec",
"22	c #4f464c",
"23	c #e3eaef",
"24	c #e4eff6",
"25	c #7b8a97",
"26	c #33353b",
"27	c #fbffff",
"28	c #deeaf2",
"29	c #768693",
"2a	c #f6fcff",
"2b	c #deebf3",
"2c	c #b3e5fa",
"2d	c #7ccaea",
"2e	c #bec6ce",
"2f	c #cfdde8",
"2g	c #5e6a77",
"2h	c #35363b",
"2i	c #dfe6ed",
"2j	c #cad9e4",
"2k	c #4b5663",
"2l	c #e4edf2",
"2m	c #bcccd8",
"2n	c #676871",
"2o	c #4d444a",
"2p	c #212328",
"2q	c #212128",
"2r	c #2a292f",
"2s	c #1d1e22",
"2t	c #1a1c21",
"2u	c #29292f",
"2v	c #393a40",
"2w	c #24262c",
"2x	c #282a31",
"2y	c #44444c",
"2z	c #686972",
"30	c #302e33",
"31	c #e3ebf0",
"32	c #effbff",
"33	c #758491",
"34	c #eaf8ff",
"35	c #70818f",
"36	c #dfeff7",
"37	c #676770",
"38	c #b6b5b8",
"39	c #c0c0c3",
"3a	c #c0f1ff",
"3b	c #4e454c",
"3c	c #e1e8ed",
"3d	c #e1ecf4",
"3e	c #798996",
"3f	c #33343b",
"3g	c #faffff",
"3h	c #dbe8f0",
"3i	c #748391",
"3j	c #f3faff",
"3k	c #dce8f1",
"3l	c #c3f2ff",
"3m	c #c1c1c3",
"3n	c #b6b5b9",
"          39XXXXXXXXXXXXXXXXXXXXXX3m            ",
"        38191j//////////////////1j193n          ",
"        0q0k1k1z0a0a0a0a0a0a0a1z1k0k0q          ",
"        0r0k1l0606060606060606061l0k0r          ",
"        0s1a1m0707070707070707071m1a0s          ",
"        0t1b1n0808080808080808081n1b0t          ",
"        0u1c1o0909090909090909091o1c0u          ",
"        0v1d1p0m0m0g0g0g0g0g0m0m1p1d0v          ",
"        0w1e3a202c0h0h0h0h0h2c203l1e0w          ",
"        0x0l0l212d0i0i0i0i0i2d210l0l0x          ",
"        0y1f1q220n2o0n3b0n2o0n221q1f0y          ",
"        0z0b0e0e0b0b300e300b0b0e0e0b0z          ",
"        10++1r232e2p313c312p2e231r++10          ",
"        11++1s242f2q323d322q2f241s++11          ",
"        0j++1t252g2r333e332r2g251t++0j          ",
"        120c1u262h0o0o3f0o0o2h261u0c12          ",
"        13++0d272i2s0d3g0d2s2i270d0c13          ",
"        14++1v282j2t343h342t2j281v0c14          ",
"        0j1g1w292k2u353i352u2k291w1g0j          ",
"        151h......2v......2v......1h15          ",
"        16++1x2a2l2w0d3j0d2w2l2a1x0c16          ",
"        170p1y2b2m2x363k362x2m2b1y0c17          ",
"        180p||||||2y||||||2y||||||0p18          ",
"          1i0f0f2n2z370f372z2n0f0f1i            "};