/* XPM */
static char * xpm_modify[] = {
"24 24 152 2",
"  	c None",
"XX	c #fac500",
"++	c #f8b803",
"..	c #da780e",
"||	c #f6e701",
"//	c #f8ca00",
"06	c #dc831b",
"07	c #d88e28",
"08	c #d87509",
"09	c #f6f104",
"0a	c #fdff3c",
"0b	c #f7f205",
"0c	c #ffffff",
"0d	c #a52a09",
"0e	c #faf932",
"0f	c #e08114",
"0g	c #e08214",
"0h	c #feffff",
"0i	c #a72f08",
"0j	c #9f320e",
"0k	c #912605",
"0l	c #bf4a16",
"0m	c #992f0b",
"0n	c #711701",
"0o	c #731a03",
"0p	c #9b2f0c",
"0q	c #c76226",
"0r	c #e9c390",
"0s	c #fffff0",
"0t	c #f2ce91",
"0u	c #670500",
"0v	c #711802",
"0w	c #a32d08",
"0x	c #cb6f21",
"0y	c #f3e59e",
"0z	c #fff5db",
"10	c #ffe9bc",
"11	c #ffeaaa",
"12	c #f1bd61",
"13	c #8f2606",
"14	c #d58f26",
"15	c #fdff3b",
"16	c #f7f300",
"17	c #fdf08c",
"18	c #ffe9c9",
"19	c #ffe1a2",
"1a	c #fedc89",
"1b	c #ffe27a",
"1c	c #d0651d",
"1d	c #d48b25",
"1e	c #f6e700",
"1f	c #f9cf01",
"1g	c #fed333",
"1h	c #ffde92",
"1i	c #ffd571",
"1j	c #feca4f",
"1k	c #d58d26",
"1l	c #f8c900",
"1m	c #f8b700",
"1n	c #f9cd65",
"1o	c #ffd660",
"1p	c #dc771d",
"1q	c #d68e26",
"1r	c #dc821a",
"1s	c #d66f07",
"1t	c #f9b72b",
"1u	c #b9400e",
"1v	c #da780a",
"1w	c #cd5f0e",
"1x	c #fbfe39",
"1y	c #f6f205",
"1z	c #da7709",
"20	c #d87210",
"21	c #fafb34",
"22	c #d97509",
"23	c #e07f15",
"24	c #b4390f",
"25	c #faf933",
"26	c #b43b0e",
"27	c #b83c11",
"28	c #ba4112",
"29	c #e18214",
"2a	c #bc4213",
"2b	c #ae8861",
"2c	c #d6d71a",
"2d	c #fcf704",
"2e	c #f6e801",
"2f	c #c04413",
"2g	c #f1dec6",
"2h	c #8b8c53",
"2i	c #d5c200",
"2j	c #fecf00",
"2k	c #fbc600",
"2l	c #c24814",
"2m	c #d07825",
"2n	c #948876",
"2o	c #877a4f",
"2p	c #de9a00",
"2q	c #fdbe02",
"2r	c #dc841b",
"2s	c #e18215",
"2t	c #c34915",
"2u	c #e78b2f",
"2v	c #ffb947",
"2w	c #d85c11",
"2x	c #917762",
"2y	c #f3f7ff",
"2z	c #7f714e",
"30	c #bb5d05",
"31	c #e17d0e",
"32	c #d9770a",
"33	c #e08215",
"34	c #c54c16",
"35	c #ee9d34",
"36	c #fa8b2d",
"37	c #fc671b",
"38	c #d42300",
"39	c #91665b",
"3a	c #f9ffff",
"3b	c #e9eeff",
"3c	c #6e5c4f",
"3d	c #b25100",
"3e	c #da710b",
"3f	c #c65319",
"3g	c #e36a21",
"3h	c #f9651c",
"3i	c #f54110",
"3j	c #f62009",
"3k	c #cf0000",
"3l	c #936259",
"3m	c #f3feff",
"3n	c #e0eaff",
"3o	c #815b3d",
"3p	c #ca4b10",
"3q	c #eb4a14",
"3r	c #f21d08",
"3s	c #f21306",
"3t	c #f71506",
"3u	c #d00100",
"3v	c #93645d",
"3w	c #e8eaf0",
"3x	c #cb5615",
"3y	c #e9240c",
"3z	c #f31106",
"40	c #f21406",
"41	c #f91205",
"42	c #cc0b00",
"43	c #bd4207",
"44	c #e03511",
"45	c #ea220c",
"46	c #dd3812",
"47	c #cb5117",
"                                    2u353g      ",
"                                  2m2v363h3q    ",
"                                2g2n2w373i3r3y  ",
"                              2b0c0c2x383j3s3z44",
"                            072c2h0h0h393k3t4045",
"                          070e2d2i2o2y3a3l3u4146",
"                        070e092e2j2p2z3b3m3v4247",
"                      070e09||//2k2q303c3n3w43  ",
"                    072509||//XX++2r313d3o3x    ",
"                  072109||//XX++06..323e3p      ",
"                071x09||//XX++06..08333f        ",
"              1q0a1y||//XX++06..082s34          ",
"            1k0a0b||//XX++06..080f2t            ",
"          1d0a0b||//XX++06..080g2l              ",
"        140a0b||//XX++06..08292f                ",
"      0x150b||//XX++06..080f2a                  ",
"      0y161e1lXX++06..080f28                    ",
"    0q0c171fXX++06..220g27                      ",
"    0r0z181g1m1r..1z2326                        ",
"  0l0s10191h1n1s1v2024                          ",
"  0m0t111a1i1o1t1w                              ",
"0i0n0u121b1j1p1u0d                              ",
"0j0o0v131c  0d                                  ",
"0k0p0w0d                                        "};