/* XPM */
static char * xpm_move[] = {
"24 24 176 2",
"  	c None",
"XX	c #5ac2f2",
"++	c #1982d1",
"..	c #0f4da6",
"||	c #61c8f3",
"//	c #55c4f1",
"06	c #1c83d1",
"07	c #5ec7f2",
"08	c #53c1f0",
"09	c #1a72c3",
"0a	c #1d89d3",
"0b	c #54c2f1",
"0c	c #6acbf4",
"0d	c #55c3f1",
"0e	c #2368b7",
"0f	c #98dbf7",
"0g	c #2b70ba",
"0h	c #4cbcf0",
"0i	c #46baef",
"0j	c #3fb4ec",
"0k	c #38b1ed",
"0l	c #30abeb",
"0m	c #26a4e8",
"0n	c #1fa0e6",
"0o	c #86defa",
"0p	c #74d3f7",
"0q	c #4bbbef",
"0r	c #44b7ee",
"0s	c #3eb1eb",
"0t	c #37adeb",
"0u	c #2fa8e9",
"0v	c #26a3e7",
"0w	c #1f9ee5",
"0x	c #169be5",
"0y	c #8de1fa",
"0z	c #68c9f3",
"10	c #3296d4",
"11	c #3096d4",
"12	c #69cbf4",
"13	c #2b83c7",
"14	c #1773c6",
"15	c #abe1f5",
"16	c #9cdef7",
"17	c #2f84c9",
"18	c #1d7cc9",
"19	c #ade0f6",
"1a	c #83d6f6",
"1b	c #51bff2",
"1c	c #83d5f3",
"1d	c #1462b9",
"1e	c #2785cd",
"1f	c #b2e3f6",
"1g	c #87d7f5",
"1h	c #5dc6f3",
"1i	c #59c2f2",
"1j	c #54c2f2",
"1k	c #8cd4f2",
"1l	c #1665b9",
"1m	c #1a7aca",
"1n	c #a3e0f5",
"1o	c #9be0f9",
"1p	c #6acdf3",
"1q	c #60c7f3",
"1r	c #52c2f0",
"1s	c #4ebff1",
"1t	c #81d3f5",
"1u	c #1f6dbe",
"1v	c #1d7ecb",
"1w	c #1270c7",
"1x	c #99dcf7",
"1y	c #2474c2",
"1z	c #2f79c4",
"20	c #286dba",
"21	c #2388d1",
"22	c #2873be",
"23	c #1e63b5",
"24	c #b7ecfa",
"25	c #97dbf7",
"26	c #286cb8",
"27	c #0f4ca5",
"28	c #25a2e7",
"29	c #0c4ea9",
"2a	c #2795d8",
"2b	c #c1ebfa",
"2c	c #afe9fb",
"2d	c #96daf7",
"2e	c #2367b5",
"2f	c #296fba",
"2g	c #2e72bb",
"2h	c #27a8ea",
"2i	c #1e96e1",
"2j	c #0a47a4",
"2k	c #4bafdb",
"2l	c #c8eefb",
"2m	c #a6e6f9",
"2n	c #8dddf9",
"2o	c #ade4fa",
"2p	c #a9e4f9",
"2q	c #a5e1f8",
"2r	c #a0e1f8",
"2s	c #9addf8",
"2t	c #7cd2f5",
"2u	c #5fc6f3",
"2v	c #1697e3",
"2w	c #0953ae",
"2x	c #48afdc",
"2y	c #d7f2fc",
"2z	c #a7e7fa",
"30	c #80daf9",
"31	c #79d7f8",
"32	c #6ed0f6",
"33	c #69cdf5",
"34	c #65c8f3",
"35	c #1396e5",
"36	c #074ba8",
"37	c #31a2dc",
"38	c #bbe9fb",
"39	c #89def9",
"3a	c #87defa",
"3b	c #82dbf9",
"3c	c #7cd8f8",
"3d	c #78d4f7",
"3e	c #71d1f6",
"3f	c #6ccef5",
"3g	c #67c9f3",
"3h	c #138dde",
"3i	c #08429e",
"3j	c #2d9dd9",
"3k	c #b8e9fa",
"3l	c #8ce0f9",
"3m	c #86dffa",
"3n	c #84dcfa",
"3o	c #7fdaf9",
"3p	c #7bd6f8",
"3q	c #6ecff6",
"3r	c #1790df",
"3s	c #0844a1",
"3t	c #2c9cd8",
"3u	c #b3e9f9",
"3v	c #69caf4",
"3w	c #27a8eb",
"3x	c #1d95e1",
"3y	c #0a49a5",
"3z	c #339bd7",
"40	c #b0e8f9",
"41	c #3095d4",
"42	c #2396e0",
"43	c #0d51ac",
"44	c #2388d2",
"45	c #0f52ab",
"46	c #0e4da8",
"47	c #1e7dca",
"48	c #0f54b0",
"49	c #1258b1",
"4a	c #1d7bcb",
"4b	c #62c9f4",
"4c	c #72d3f7",
"4d	c #54c2f0",
"4e	c #4ec1f1",
"4f	c #42b4ed",
"4g	c #1155b0",
"4h	c #2280cc",
"4i	c #62c8f2",
"4j	c #61c9f3",
"4k	c #45b4ec",
"4l	c #145eb6",
"4m	c #5ec4f2",
"4n	c #63c9f3",
"4o	c #5bc3f3",
"4p	c #4ebdef",
"4q	c #1460b6",
"4r	c #59c3f1",
"4s	c #5ac6f4",
"4t	c #1c77c5",
"4u	c #1a6ec2",
"4v	c #1f78c6",
"                      2x37                      ",
"                    2k2y383j                    ",
"                  2a2l2z0y3k3t                  ",
"                0a2b2m0o393l3u3z                ",
"              0a242c2n0o3a3m0y400a              ",
"              21++++2o303b3n060644              ",
"                  ++2p313c3o06                  ",
"        1m1v      ++2q0p3d3p06      474a        ",
"      1e1n1w      ++2r323e0p06      114b4h      ",
"    181f1o++++++++++2s333f3q06411010114c4i09    ",
"  14191g1p1x0f0f252d2t343g0z3v0c0c0c120z124m09  ",
"09151a1h1q07070707072u||||||||||||||||||4j4n4r4u",
"13161b1iXXXXXXXXXXXXXXXXXXXXXXXXXXXXXXXXXX4o4s4v",
"  171c1j1r0d//////0b080808080b//////0d4d0b4p4t  ",
"    1d1k1s0e200g262e0h0q0q0h..........4e4k4q    ",
"      1l1t1y      2f0i0r0r0i..      484f4l      ",
"        1u1z      2g0j0s0s0j..      494g        ",
"                  0g0k0t0t0k..                  ",
"              22270e0l0u0u0l....45              ",
"              23282h0m0v0v0m3w4246              ",
"                292i0n0w0w0n3x43                ",
"                  2j2v0x0x3r3y                  ",
"                    2w353h3s                    ",
"                      363i                      "};