/* XPM */
static char * xpm_music[] = {
"24 24 183 2",
"  	c None",
"XX	c #4dd2f9",
"++	c #0041bb",
"..	c #177edb",
"||	c #349ce5",
"//	c #258bdf",
"06	c #0749bc",
"07	c #0046c0",
"08	c #75dcf9",
"09	c #a9f2fd",
"0a	c #58d3f7",
"0b	c #49caf6",
"0c	c #58defb",
"0d	c #1c7ad7",
"0e	c #2b9fe7",
"0f	c #a0effd",
"0g	c #13a6f0",
"0h	c #129eed",
"0i	c #1099eb",
"0j	c #0a92eb",
"0k	c #088eec",
"0l	c #012ea6",
"0m	c #89e4fb",
"0n	c #40c8f5",
"0o	c #17a3f0",
"0p	c #179fee",
"0q	c #119aeb",
"0r	c #0c93ea",
"0s	c #0891eb",
"0t	c #024ac4",
"0u	c #0047c1",
"0v	c #b9faff",
"0w	c #16a7f0",
"0x	c #19a3ef",
"0y	c #149cec",
"0z	c #0f97eb",
"10	c #0a8de9",
"11	c #078cea",
"12	c #0152c9",
"13	c #0044c0",
"14	c #a6f5ff",
"15	c #11a5ef",
"16	c #179eee",
"17	c #129aec",
"18	c #0d93ea",
"19	c #098ee8",
"1a	c #058ae9",
"1b	c #0052c6",
"1c	c #003fba",
"1d	c #8fedfe",
"1e	c #109fee",
"1f	c #159ded",
"1g	c #1097eb",
"1h	c #0b93e9",
"1i	c #0788e7",
"1j	c #038aea",
"1k	c #0039b0",
"1l	c #14a3f0",
"1m	c #3ac4f5",
"1n	c #31baf2",
"1o	c #2eb5f0",
"1p	c #2caeef",
"1q	c #28abee",
"1r	c #26a4ec",
"1s	c #249eea",
"1t	c #2199e7",
"1u	c #1f93e5",
"1v	c #1e8ce3",
"1w	c #1b86e0",
"1x	c #1984de",
"1y	c #187ddb",
"1z	c #167ad9",
"20	c #0d68d4",
"21	c #a0edfa",
"22	c #0f9ded",
"23	c #139dec",
"24	c #0e95eb",
"25	c #098de9",
"26	c #0588e7",
"27	c #027de7",
"28	c #002797",
"29	c #64daf9",
"2a	c #eafeff",
"2b	c #b8f6ff",
"2c	c #aef3ff",
"2d	c #acf1ff",
"2e	c #a4f0fe",
"2f	c #a3f0ff",
"2g	c #9cefff",
"2h	c #95ecfe",
"2i	c #8eebfe",
"2j	c #86e8fd",
"2k	c #7fe6fc",
"2l	c #76e4fb",
"2m	c #6ee1fa",
"2n	c #65ddfb",
"2o	c #5cdaf8",
"2p	c #50d1f6",
"2q	c #109ced",
"2r	c #1099ec",
"2s	c #0b95ea",
"2t	c #0791eb",
"2u	c #0482e8",
"2v	c #0036b1",
"2w	c #5dd4f8",
"2x	c #b0f3ff",
"2y	c #6ae2fd",
"2z	c #68e1fd",
"30	c #61defc",
"31	c #5bdcfc",
"32	c #42ccf8",
"33	c #38c4f5",
"34	c #32bef4",
"35	c #2db8f2",
"36	c #29b5f2",
"37	c #23aff1",
"38	c #1fa9ef",
"39	c #19a1ee",
"3a	c #179ced",
"3b	c #1393eb",
"3c	c #118ce8",
"3d	c #0e87e6",
"3e	c #0c82e4",
"3f	c #0777de",
"3g	c #0454cb",
"3h	c #002fa7",
"3i	c #14a4f0",
"3j	c #bff5fe",
"3k	c #67e2fd",
"3l	c #6be1fd",
"3m	c #60ddfb",
"3n	c #60defc",
"3o	c #1893e9",
"3p	c #0436ae",
"3q	c #2cb7f1",
"3r	c #b5f5ff",
"3s	c #61e0fc",
"3t	c #5fdcfb",
"3u	c #5bd9fc",
"3v	c #45cff8",
"3w	c #0e76de",
"3x	c #24a8ef",
"3y	c #97eefe",
"3z	c #5ddcfb",
"40	c #56d7fa",
"41	c #54d7fa",
"42	c #2cb4f1",
"43	c #0961d3",
"44	c #27a8ec",
"45	c #61dffc",
"46	c #58d9f9",
"47	c #47cff8",
"48	c #35bff5",
"49	c #1483e1",
"4a	c #0853ca",
"4b	c #0b60d1",
"4c	c #1073da",
"4d	c #1074dd",
"4e	c #0851c3",
"4f	c #0f82e3",
"4g	c #45cef8",
"4h	c #44cbf7",
"4i	c #3dc9f7",
"4j	c #38c7f7",
"4k	c #32c3f6",
"4l	c #2abdf5",
"4m	c #24b3f3",
"4n	c #1fb8f6",
"4o	c #0a58cc",
"4p	c #25a5ed",
"4q	c #47d3fa",
"4r	c #3ac8f6",
"4s	c #33c5f6",
"4t	c #2cbcf4",
"4u	c #28b8f3",
"4v	c #22b7f6",
"4w	c #1180e3",
"4x	c #063fb5",
"4y	c #1584e2",
"4z	c #198be5",
"50	c #1685e2",
"51	c #0e6ad6",
"52	c #084dc7",
"                    1l292w3i                    ",
"                    1m2a2x3j3q                  ",
"                    1n2b2y3k3r3x                ",
"                    1o2c2z3l3s3y44              ",
"                    1p2d303m3t3z454f            ",
"                    1q2e313n3u40464g            ",
"                    1r2f323o3v41XXXX4p          ",
"                    1s2g33  3w42474h4q          ",
"                    1t2h34    43484i4r4y        ",
"                    1u2i35      494j4s4z        ",
"                    1v2j36      4a4k4t50        ",
"                    1w2k37      4b4l4u51        ",
"                    1x2l38      4c4m4v52        ",
"                    1y2m39      4d4n4w          ",
"                    1z2n3a      4e4o4x          ",
"              0u131c202o3b                      ",
"        070e0m0v141d212p3c                      ",
"      ++080f0n0w151e222q3d                      ",
"      ..090g0o0x161f232r3e3p                    ",
"      ||0a0h0p0y171g242s3f                      ",
"      //0b0i0q0z181h252t3g                      ",
"      060c0j0r10191i262u3h                      ",
"        0d0k0s111a1j272v                        ",
"          0l0t121b1k28                          "};