/* XPM */
static char * xpm_mute[] = {
"24 24 289 2",
"  	c None",
"XX	c #606163",
"++	c #515154",
"..	c #ffffff",
"||	c #b6b9bc",
"//	c #848689",
"06	c #a6a8ab",
"07	c #565658",
"08	c #626365",
"09	c #e1e1e3",
"0a	c #d5d5d7",
"0b	c #c5c7c9",
"0c	c #9d9fa2",
"0d	c #6f7074",
"0e	c #5f6062",
"0f	c #b2b4b8",
"0g	c #9a9c9f",
"0h	c #404042",
"0i	c #ff231d",
"0j	c #aaadb0",
"0k	c #545456",
"0l	c #555557",
"0m	c #828386",
"0n	c #9a9b9d",
"0o	c #939495",
"0p	c #6d6f72",
"0q	c #6a6b6e",
"0r	c #646568",
"0s	c #5a5b5e",
"0t	c #565557",
"0u	c #9b9c9e",
"0v	c #d4d5d6",
"0w	c #999a9c",
"0x	c #75767a",
"0y	c #6e7073",
"0z	c #68696b",
"10	c #5b5d5f",
"11	c #575658",
"12	c #d1d2d3",
"13	c #e7e8e9",
"14	c #a5a6aa",
"15	c #9d9ea3",
"16	c #929496",
"17	c #828387",
"18	c #747577",
"19	c #66686a",
"1a	c #595a5e",
"1b	c #e0e0e2",
"1c	c #fdfdff",
"1d	c #d2d2d4",
"1e	c #c3c5c7",
"1f	c #b3b6ba",
"1g	c #9b9da0",
"1h	c #828587",
"1i	c #6e6f74",
"1j	c #5f6061",
"1k	c #7a7c80",
"1l	c #7b7c81",
"1m	c #cfd0d0",
"1n	c #e7e8e8",
"1o	c #a6a7aa",
"1p	c #9d9ea2",
"1q	c #919395",
"1r	c #818286",
"1s	c #737476",
"1t	c #656769",
"1u	c #595a5d",
"1v	c #797a7f",
"1w	c #c8c9cb",
"1x	c #d5d7d8",
"1y	c #86888b",
"1z	c #828487",
"20	c #7a7a7d",
"21	c #717375",
"22	c #6b6c6f",
"23	c #646669",
"24	c #616264",
"25	c #4e4f52",
"26	c #c2c3c5",
"27	c #f3f2f3",
"28	c #d0d1d2",
"29	c #bcbec2",
"2a	c #b5b7bb",
"2b	c #a9abae",
"2c	c #9c9ea1",
"2d	c #919396",
"2e	c #87888b",
"2f	c #7c8082",
"2g	c #65666b",
"2h	c #4a4a4c",
"2i	c #adaeb0",
"2j	c #f6f6f7",
"2k	c #d8dadc",
"2l	c #bfc0c3",
"2m	c #babcc0",
"2n	c #8f9194",
"2o	c #797f82",
"2p	c #737578",
"2q	c #58595b",
"2r	c #a4a5a9",
"2s	c #fbfdfe",
"2t	c #e2e9eb",
"2u	c #c9b2b5",
"2v	c #bec8cb",
"2w	c #babdc1",
"2x	c #8e9395",
"2y	c #858488",
"2z	c #915357",
"30	c #6e787b",
"31	c #6b6d6f",
"32	c #4f4f53",
"33	c #a5a8aa",
"34	c #f7faf9",
"35	c #edf6f7",
"36	c #d7949a",
"37	c #fb0003",
"38	c #d27f84",
"39	c #b6c6ca",
"3a	c #b2b5b9",
"3b	c #999da0",
"3c	c #8d9193",
"3d	c #c01119",
"3e	c #ca0005",
"3f	c #88484d",
"3g	c #667072",
"3h	c #636567",
"3i	c #46464a",
"3j	c #989b9e",
"3k	c #f4f4f5",
"3l	c #f3f9fa",
"3m	c #d9babf",
"3n	c #ff151a",
"3o	c #ff6b48",
"3p	c #fe1d17",
"3q	c #d8515a",
"3r	c #aec0c3",
"3s	c #a5aaad",
"3t	c #94a6a9",
"3u	c #bb2831",
"3v	c #f11412",
"3w	c #ff1a1c",
"3x	c #c40003",
"3y	c #804346",
"3z	c #616769",
"40	c #a2a3a7",
"41	c #efeef0",
"42	c #fcfcfd",
"43	c #e0dcde",
"44	c #fa000a",
"45	c #ff724e",
"46	c #ff6c49",
"47	c #ff6644",
"48	c #f91c18",
"49	c #d33f47",
"4a	c #9ebbbe",
"4b	c #bf383f",
"4c	c #f21913",
"4d	c #ff2720",
"4e	c #ff1a1a",
"4f	c #f6050e",
"4g	c #ac0000",
"4h	c #5e696b",
"4i	c #5c5c5e",
"4j	c #3e3e40",
"4k	c #dedddf",
"4l	c #ecedee",
"4m	c #dfe7e9",
"4n	c #e68d94",
"4o	c #ff1115",
"4p	c #ff6948",
"4q	c #ff6343",
"4r	c #ff5d3c",
"4s	c #f21a17",
"4t	c #d7101c",
"4u	c #e91211",
"4v	c #ff3325",
"4w	c #ff241f",
"4x	c #f81114",
"4y	c #b70008",
"4z	c #725e60",
"50	c #626668",
"51	c #535356",
"52	c #373739",
"53	c #aeb0b3",
"54	c #cfd0d2",
"55	c #c2c4c6",
"56	c #b7b9bb",
"57	c #b1bfc2",
"58	c #c67278",
"59	c #ff0c10",
"5a	c #ff6140",
"5b	c #ff5a3a",
"5c	c #ff5336",
"5d	c #f32a1e",
"5e	c #ff402a",
"5f	c #ff3023",
"5g	c #ca0308",
"5h	c #624b50",
"5i	c #565b5d",
"5j	c #575759",
"5k	c #59595b",
"5l	c #a6a8ac",
"5m	c #abafb2",
"5n	c #acafb2",
"5o	c #acb1b4",
"5p	c #a3b1b4",
"5q	c #bc6a6f",
"5r	c #fc0c10",
"5s	c #ff583a",
"5t	c #ff4d32",
"5u	c #ff472e",
"5v	c #ff3b26",
"5w	c #ff2e21",
"5x	c #d70109",
"5y	c #5f494b",
"5z	c #505658",
"60	c #3d3d41",
"61	c #a5a7aa",
"62	c #9ea0a4",
"63	c #97999c",
"64	c #919397",
"65	c #8b8e91",
"66	c #84888b",
"67	c #788a8d",
"68	c #6b8d8f",
"69	c #d3202b",
"6a	c #f92820",
"6b	c #ff5033",
"6c	c #ff462d",
"6d	c #ff3c27",
"6e	c #e81915",
"6f	c #a9161f",
"6g	c #476061",
"6h	c #485558",
"6i	c #4b4d4f",
"6j	c #47474a",
"6k	c #444446",
"6l	c #3f3f41",
"6m	c #3b3a3c",
"6n	c #39393a",
"6o	c #fc231f",
"6p	c #ff5d3d",
"6q	c #ff4f32",
"6r	c #ff482f",
"6s	c #ff3a26",
"6t	c #ff3125",
"6u	c #dd0b0f",
"6v	c #c10006",
"6w	c #fb1b1d",
"6x	c #ff6742",
"6y	c #ff5739",
"6z	c #ff4e33",
"70	c #e91917",
"71	c #ff3b24",
"72	c #ff2e22",
"73	c #ff2622",
"74	c #d4060d",
"75	c #b10007",
"76	c #ff181d",
"77	c #ff6947",
"78	c #ff613f",
"79	c #ff5c3c",
"7a	c #ec1517",
"7b	c #dd030e",
"7c	c #dc0c10",
"7d	c #ff2d20",
"7e	c #ff171b",
"7f	c #e8060e",
"7g	c #a60006",
"7h	c #fd0713",
"7i	c #ff5f43",
"7j	c #ff6b49",
"7k	c #ff6641",
"7l	c #f5231f",
"7m	c #d60a10",
"7n	c #ff1f1c",
"7o	c #ff141a",
"7p	c #f20911",
"7q	c #a60005",
"7r	c #fc0b14",
"7s	c #ff4934",
"7t	c #f82922",
"7u	c #ed0511",
"7v	c #d0060c",
"7w	c #f50f13",
"7x	c #b60005",
"7y	c #f90710",
"7z	c #f30912",
"80	c #bc0108",
"                              535l61            ",
"                          404k540j62            ",
"                        3j41..550j63            ",
"                      333k424l565m64            ",
"                    2r343l434m||5n65            ",
"                  2i2s353m444n575o66      7h    ",
"          1k1l1v262j2t363n454o585p67    767i7r  ",
"0m0u12091b091m1w272k2u373o464p595q68  6w777j7s7y",
"0n0v13..1c..1n1x282l2v383p474q5a5r696o6x787k7t7z",
"0o0w140a1d0a1o1y292m2w393q484r5b5s6a6p6y797l7u  ",
"0p0x150b1e0b1p1z2a0f0f3a3r494s5c5t6b6q6z7a      ",
"0q0y16||1f||1q202b0606063s4a4t5d5u6c6r707b      ",
"0r0z170c1g0c1r212c0g0g3b3t4b4u5e5v6d6s717c      ",
"XX0818//1h//1s222d2n2x3c3u4c4v5f5w6e6t727d7m    ",
"0s10190d1i0d1t232e//2y3d3v4d4w0i5x6f6u730i7n7v  ",
"0t111a0e1j0e1u242f2o2z3e3w4e4x5g5y6g6v747e7o7w80",
"    ++  ++++++252g2p303f3x4f4y5h5z6h  757f7p7x  ",
"                2h2q313g3y4g4z5i0k6i    7g7q    ",
"                    323h3z4h505j0k6j            ",
"                      3iXXXXXX070l6k            ",
"                        0h4i08070l6l            ",
"                          4j515k076m            ",
"                            520h606n            ",
"                                                "};