/* XPM */
static char * xpm_new_document[] = {
"24 24 239 2",
"  	c None",
"XX	c #ffffff",
"++	c #edf2f5",
"..	c #e1e9ee",
"||	c #e4eef2",
"//	c #084d7b",
"06	c #417b9e",
"07	c #edf3f5",
"08	c #fafafa",
"09	c #fbfafa",
"0a	c #eef2f5",
"0b	c #e5eff2",
"0c	c #115684",
"0d	c #084776",
"0e	c #2a6890",
"0f	c #0d4e7a",
"0g	c #fcfcfc",
"0h	c #fcfbfa",
"0i	c #ecf2f5",
"0j	c #fdfafa",
"0k	c #6794ac",
"0l	c #8caec0",
"0m	c #89abbe",
"0n	c #86a8be",
"0o	c #14537f",
"0p	c #fcfcf9",
"0q	c #eff2f6",
"0r	c #e3eff2",
"0s	c #f9fcfa",
"0t	c #f3f5f9",
"0u	c #ebf2f5",
"0v	c #3a729a",
"0w	c #417b99",
"0x	c #78a1bd",
"0y	c #95b3c5",
"0z	c #f6f7fc",
"10	c #7ca5be",
"11	c #749db8",
"12	c #c9d9e3",
"13	c #cad9e3",
"14	c #84a5bc",
"15	c #82a6bc",
"16	c #7da4bb",
"17	c #759eb8",
"18	c #6e94b1",
"19	c #658ea5",
"1a	c #5986a0",
"1b	c #4e7d9c",
"1c	c #8bacc1",
"1d	c #87a9bf",
"1e	c #084d7c",
"1f	c #e6eef1",
"1g	c #fcfafa",
"1h	c #fcfcf7",
"1i	c #fbfcfc",
"1j	c #fcfffc",
"1k	c #f4fafb",
"1l	c #ecf4f7",
"1m	c #e8f0f2",
"1n	c #86a9bf",
"1o	c #dce3ec",
"1p	c #fefffe",
"1q	c #f3faf6",
"1r	c #f5fafa",
"1s	c #f6fcfa",
"1t	c #f3f8f9",
"1u	c #88a9bf",
"1v	c #cedbe2",
"1w	c #f4f5f8",
"1x	c #e9f0f9",
"1y	c #f6fbfd",
"1z	c #fbfbfa",
"20	c #f4fcfa",
"21	c #eff8f8",
"22	c #89aac0",
"23	c #c2d3de",
"24	c #e7edf5",
"25	c #e0e8f4",
"26	c #eef3f5",
"27	c #f4f9f8",
"28	c #fafcfa",
"29	c #f9fafa",
"2a	c #f6f8fa",
"2b	c #f0f4f7",
"2c	c #ebf0f3",
"2d	c #8babc0",
"2e	c #b7ccd9",
"2f	c #d9e4ec",
"2g	c #d8e2e8",
"2h	c #e5e8eb",
"2i	c #eaf0f3",
"2j	c #f1f9f8",
"2k	c #fbf9fb",
"2l	c #ebf0f4",
"2m	c #7ba2be",
"2n	c #a5c1ce",
"2o	c #cbd7e0",
"2p	c #d0dbe3",
"2q	c #d8dfe8",
"2r	c #e0e9ef",
"2s	c #e6f1f4",
"2t	c #f0f9f8",
"2u	c #f8f9fa",
"2v	c #f3f4fa",
"2w	c #f0f0f8",
"2x	c #ecf1f5",
"2y	c #7ea4be",
"2z	c #94b4cb",
"30	c #b4ccda",
"31	c #bdd0de",
"32	c #ccd7e7",
"33	c #dae3ee",
"34	c #e2ebf1",
"35	c #ebf1f5",
"36	c #f5f9f8",
"37	c #fafcfc",
"38	c #f6fbfa",
"39	c #f3fafa",
"3a	c #f7f2fa",
"3b	c #eff5f7",
"3c	c #f2f7f9",
"3d	c #f0f5f8",
"3e	c #eff2f5",
"3f	c #6f9db5",
"3g	c #8bacc5",
"3h	c #afc4d7",
"3i	c #b8cedc",
"3j	c #c6d4e2",
"3k	c #dae3ed",
"3l	c #e4eaee",
"3m	c #e5eef0",
"3n	c #e7f2f7",
"3o	c #ebf5f7",
"3p	c #f9f7fc",
"3q	c #fcfcfb",
"3r	c #f5fdfa",
"3s	c #f1f8fa",
"3t	c #f2f5fb",
"3u	c #edf2f4",
"3v	c #ecf2f3",
"3w	c #edf4f7",
"3x	c #dce8ec",
"3y	c #5c8da7",
"3z	c #86adc3",
"40	c #8fb2ca",
"41	c #9eb8ce",
"42	c #a9c1d1",
"43	c #c3d4e0",
"44	c #dae3eb",
"45	c #e3edf1",
"46	c #f2f5f5",
"47	c #f9f8f9",
"48	c #f9fafb",
"49	c #f1fdfa",
"4a	c #f2f9fc",
"4b	c #f0f4f8",
"4c	c #eef2f6",
"4d	c #eaf4f5",
"4e	c #dae2ec",
"4f	c #e0e8ec",
"4g	c #e3eaee",
"4h	c #e7f1ee",
"4i	c #eef4f5",
"4j	c #f9fcfb",
"4k	c #f1f7fa",
"4l	c #f4f6fc",
"4m	c #f4f4f9",
"4n	c #eef3f6",
"4o	c #e7f2f4",
"4p	c #eaf2f0",
"4q	c #dbe5ed",
"4r	c #7ba1bc",
"4s	c #c1d0d8",
"4t	c #d7e0ea",
"4u	c #d9e2e9",
"4v	c #e0e5ef",
"4w	c #e4edf2",
"4x	c #edf5f7",
"4y	c #f9f8fc",
"4z	c #f1f5fa",
"50	c #f2f5fa",
"51	c #eef4f6",
"52	c #e8f2f5",
"53	c #edf0f2",
"54	c #dce8ef",
"55	c #6f99b5",
"56	c #e1e8ee",
"57	c #f0f1f3",
"58	c #88a6c4",
"59	c #cfd8e5",
"5a	c #d1dde4",
"5b	c #dbe4e7",
"5c	c #e3e9ed",
"5d	c #e9edf4",
"5e	c #eef3f7",
"5f	c #f4f6fd",
"5g	c #f1f5f9",
"5h	c #f0f4f6",
"5i	c #f1f4f6",
"5j	c #e0e9f0",
"5k	c #6a98b4",
"5l	c #bdcedc",
"5m	c #b7c8da",
"5n	c #bdcddc",
"5o	c #c7d4de",
"5p	c #cedbe3",
"5q	c #d4e0e9",
"5r	c #dae5ee",
"5s	c #e1ecf4",
"5t	c #eceef5",
"5u	c #e7f2f3",
"5v	c #e4eff2",
"5w	c #e8eef3",
"5x	c #cfdfe8",
"5y	c #074c7a",
"5z	c #c6d3da",
"60	c #c1d2de",
"61	c #ccdbe3",
"62	c #e0e6ef",
"63	c #f2f4f8",
"64	c #4880a4",
"65	c #8faec1",
"66	c #95b6c7",
"67	c #a5bfd1",
"68	c #b6cada",
"69	c #c4d3e2",
"6a	c #cfdbe5",
"6b	c #cbdae3",
"6c	c #cadae3",
"6d	c #ccdbe4",
"6e	c #27658e",
"6f	c #20628b",
"6g	c #1d5e8a",
"6h	c #1a5d88",
"6i	c #175b87",
"6j	c #155985",
"6k	c #135784",
"6l	c #125684",
"6m	c #105483",
"      0l1c1d0n1n1u222d2m2y3f3y0v                ",
"      0l....1f1o1v232e2n2z3g0k0w0v              ",
"      0m..XXXX1p1w242f2o303h3z0w4r06            ",
"      0m..XX1g1q1x252g2p313i400k4s5506          ",
"      0n..XX0g0h1y262h2q323j410k||565k06        ",
"      14..XX0p090g272i2r333k420xXX||5l1106      ",
"      15..XX1h081z282j2s343l430xXX57||5z110e    ",
"      16..XX0p08080h0s2t353m440y0y581010646e    ",
"      17..XX0g0808090h0s363n454f4t595m60656f    ",
"      18..XX1i1r09090809373o0b4g4u5a5n61666g    ",
"      19..XX1j1s20290j0j0j3p464h4v5b5o62676h    ",
"      1a..XX1k1t212a2k2u383q474i4w5c5p63686i    ",
"      1b..XX1l0q0i2b0t2v393r480z4x5d5qXX696j    ",
"      06..XX07++0i2c2l2w3a3s494j4y5e5rXX6a6k    ",
"      06..XX07++++++++0i3b3t4a4k4z0z5sXX6b6l    ",
"      06..XX07++++++++2x3c3u4b4l505f5tXX120c    ",
"      06..XX07++++++++++3d3v0q4m0t5g0uXX120c    ",
"      06..XX07++++++++++++++4c4n515h5uXX130c    ",
"      06..XX07++++++++++++++0u4o52++5vXX130c    ",
"      0e..XX070a0a0a0a0a3e3w4d4p535i5wXX6c0c    ",
"      0e..XX1m0r0r0b0b0b0b3x4e4q545j5xXX6d6m    ",
"      0o..XXXXXXXXXXXXXXXXXXXXXXXXXXXXXX||0o    ",
"      0f||||||||||||||||||||||||||||||||||0d    ",
"      0f0f1e////////////////////////5y0d0d0d    "};