/* XPM */
static char * xpm_next[] = {
"24 24 319 2",
"XX	c #ffffff",
"++	c #51be32",
"..	c #4fb931",
"||	c #257324",
"//	c #50ba31",
"05	c #4eb931",
"06	c #52ba31",
"07	c #54bb31",
"08	c #9ed681",
"09	c #c0e680",
"0a	c #53bb31",
"0b	c #58c432",
"0c	c #9ed581",
"0d	c #247224",
"0e	c #bae481",
"0f	c #bde480",
"0g	c #b8e281",
"  	c None",
"0i	c #bbe481",
"0j	c #b9e381",
"0k	c #bde580",
"0l	c #b7e280",
"0m	c #57c032",
"0n	c #b9e281",
"0o	c #0e5611",
"0p	c #bae381",
"0q	c #9dd581",
"0r	c #c0e580",
"0s	c #2a7c26",
"0t	c #c2e780",
"0u	c #53bf32",
"0v	c #b8e280",
"0w	c #277825",
"0x	c #53c133",
"0y	c #c6dcc2",
"0z	c #b6e17f",
"10	c #e8f0e8",
"11	c #0e5912",
"12	c #e8f1e8",
"13	c #e7f0e8",
"14	c #fafaf9",
"15	c #fafafa",
"16	c #b5e181",
"17	c #9dd481",
"18	c #b5e081",
"19	c #b1e083",
"1a	c #8fce7d",
"1b	c #98d181",
"1c	c #9ad07d",
"1d	c #96cf81",
"1e	c #95cd7e",
"1f	c #92cb7e",
"1g	c #90ca7e",
"1h	c #8cc77b",
"1i	c #8bc67b",
"1j	c #88c37a",
"1k	c #87c27a",
"1l	c #89c17c",
"1m	c #68af5b",
"1n	c #2c8323",
"1o	c #2d8226",
"1p	c #2c8126",
"1q	c #2a7e26",
"1r	c #297926",
"1s	c #287825",
"1t	c #247024",
"1u	c #1d5e21",
"1v	c #98d385",
"1w	c #b4df81",
"1x	c #bde680",
"1y	c #bde581",
"1z	c #b6e380",
"20	c #b2e27f",
"21	c #afe07d",
"22	c #abe07c",
"23	c #adde7d",
"24	c #aee180",
"25	c #5fc62d",
"26	c #63c831",
"27	c #61c933",
"28	c #5fc731",
"29	c #5ac232",
"2a	c #56c032",
"2b	c #54c133",
"2c	c #3b9e2c",
"2d	c #1c5f21",
"2e	c #9bd581",
"2f	c #bfe580",
"2g	c #b5e07e",
"2h	c #8ac978",
"2i	c #7fbf6a",
"2j	c #77ba66",
"2k	c #72b764",
"2l	c #76b668",
"2m	c #449738",
"2n	c #207b17",
"2o	c #237b1c",
"2p	c #257c1f",
"2q	c #59c232",
"2r	c #247023",
"2s	c #b4e07c",
"2t	c #76bb6c",
"2u	c #d2e2cf",
"2v	c #c9dfc8",
"2w	c #9fc89b",
"2x	c #a1caa0",
"2y	c #a5cda5",
"2z	c #82b982",
"30	c #165d19",
"31	c #5ac432",
"32	c #b5e280",
"33	c #b6e07d",
"34	c #74b969",
"35	c #eef4ee",
"36	c #0f5a13",
"37	c #b6e280",
"38	c #77ba6c",
"39	c #b5e080",
"3a	c #b5e17d",
"3b	c #76b96c",
"3c	c #b4e07f",
"3d	c #b2df7a",
"3e	c #6fb566",
"3f	c #b2df7d",
"3g	c #aedd76",
"3h	c #68ae5f",
"3i	c #bae37f",
"3j	c #b0df7b",
"3k	c #abdc72",
"3l	c #61a85b",
"3m	c #0e5511",
"3n	c #c1e77e",
"3o	c #bae57e",
"3p	c #b7e27b",
"3q	c #b3e078",
"3r	c #addd74",
"3s	c #a9dc6c",
"3t	c #5ea657",
"3u	c #5bc733",
"3v	c #52be31",
"3w	c #50bd31",
"3x	c #4fbc31",
"3y	c #52c032",
"3z	c #bde57d",
"40	c #94d078",
"41	c #89c86e",
"42	c #7bbe63",
"43	c #71b75b",
"44	c #6fb356",
"45	c #539d48",
"46	c #e2ede3",
"47	c #024e05",
"48	c #186d15",
"49	c #166815",
"4a	c #1c691b",
"4b	c #216b20",
"4c	c #216f22",
"4d	c #4cba31",
"4e	c #bde67c",
"4f	c #abdc74",
"4g	c #72b861",
"4h	c #b4d6ad",
"4i	c #f1f5f3",
"4j	c #ebf2ea",
"4k	c #e5ece5",
"4l	c #fcfefc",
"4m	c #e2ede2",
"4n	c #e6ede6",
"4o	c #eff3f0",
"4p	c #77ae7b",
"4q	c #104515",
"4r	c #359725",
"4s	c #4fbe30",
"4t	c #bce57d",
"4u	c #b3e074",
"4v	c #93cf66",
"4w	c #5ca74f",
"4x	c #d9e9d9",
"4y	c #edf4ee",
"4z	c #053a09",
"50	c #2c881e",
"51	c #46b42a",
"52	c #4dbb2f",
"53	c #247223",
"54	c #bee57f",
"55	c #b6e17b",
"56	c #aedd72",
"57	c #8ecd64",
"58	c #5ba651",
"59	c #dbe8da",
"5a	c #09450d",
"5b	c #28851c",
"5c	c #42b026",
"5d	c #44b12a",
"5e	c #4ebb2f",
"5f	c #bfe57f",
"5g	c #b9e37f",
"5h	c #b4e07a",
"5i	c #aedd74",
"5j	c #94cd6b",
"5k	c #5ca756",
"5l	c #dde8da",
"5m	c #0a460d",
"5n	c #247d19",
"5o	c #42b025",
"5p	c #44af29",
"5q	c #49b42d",
"5r	c #4fbd31",
"5s	c #b7e17f",
"5t	c #b2df7c",
"5u	c #aedd77",
"5v	c #92cd6c",
"5w	c #67aa64",
"5x	c #f8f8f7",
"5y	c #0d4e0f",
"5z	c #1e691a",
"60	c #46b226",
"61	c #45b129",
"62	c #4ab42d",
"63	c #4cb730",
"64	c #b4e180",
"65	c #b2df7e",
"66	c #acde7b",
"67	c #8ec86d",
"68	c #65a562",
"69	c #f8f8fa",
"6a	c #2f7834",
"6b	c #22761d",
"6c	c #4cba2a",
"6d	c #4ab32b",
"6e	c #4bb52d",
"6f	c #4db730",
"6g	c #b3e080",
"6h	c #aedf7f",
"6i	c #aadd79",
"6j	c #8ac86c",
"6k	c #60a15f",
"6l	c #337e35",
"6m	c #257c1e",
"6n	c #56c230",
"6o	c #50b82e",
"6p	c #4fb72f",
"6q	c #4db830",
"6r	c #b4e081",
"6s	c #b0e082",
"6t	c #addd7f",
"6u	c #a7dd79",
"6v	c #7dbc68",
"6w	c #62a062",
"6x	c #fdfbfd",
"6y	c #338136",
"6z	c #1c6a1d",
"70	c #5bc532",
"71	c #52ba30",
"72	c #b2e081",
"73	c #adde82",
"74	c #aadc7e",
"75	c #a5dc7a",
"76	c #7cba6b",
"77	c #74ad76",
"78	c #3e8840",
"79	c #1c6c1b",
"7a	c #58c130",
"7b	c #57be31",
"7c	c #9ad381",
"7d	c #bfe681",
"7e	c #b2e083",
"7f	c #aedf83",
"7g	c #acdd82",
"7h	c #a7db7f",
"7i	c #a9df7f",
"7j	c #85c078",
"7k	c #449243",
"7l	c #55bf2e",
"7m	c #59c030",
"7n	c #56bd31",
"7o	c #4eba31",
"7p	c #236c23",
"7q	c #97d085",
"7r	c #b0dd81",
"7s	c #bde481",
"7t	c #b8e481",
"7u	c #b7e281",
"7v	c #b4e284",
"7w	c #b2e184",
"7x	c #b0e184",
"7y	c #afe084",
"7z	c #acdf83",
"80	c #abde83",
"81	c #abdf84",
"82	c #a8de84",
"83	c #5cc22e",
"84	c #59c12f",
"85	c #57c232",
"86	c #55bf32",
"87	c #52be32",
"88	c #52c133",
"89	c #3b9f2c",
"8a	c #1b5c21",
"8b	c #93ce84",
"8c	c #96cf7d",
"8d	c #96ce81",
"8e	c #94cc7e",
"8f	c #91ca7d",
"8g	c #90c97d",
"8h	c #8ec77c",
"8i	c #8ac67c",
"8j	c #8ac47c",
"8k	c #88c27c",
"8l	c #87c17a",
"8m	c #87c27f",
"8n	c #65ac5a",
"8o	c #297e23",
"8p	c #2c7f26",
"8q	c #297b26",
"8r	c #287926",
"8s	c #267625",
"8t	c #256f23",
"8u	c #1c5c21",
"  1v2e080808080808080c0c0c0c0c0c0q0q0q17177c7q  ",
"1a1w0t090909090909093n3z4e4t545f0r0r0r0k0k7d7r8b",
"1b0t2f0k0k0f0f0f0f0f3o404f4u555g0e0e0p0p0j0j7s8c",
"1c1x0i0i0i0i0e0e0p3i3p414g4v565h5s0g0g0g0g0g7t8d",
"1d1y0j0j0n0n0n0v0l0z3q424h4w575i5t64161618187u8e",
"1e0e0v0l3237393c3f3j3r434i4x585j5u656g6r727e7v8f",
"1f1z2g2s330z3a3d3g3k3s444jXX595k5v666h6s19197w8g",
"1g0l2h2t34383b3e3h3l3t454kXXXX5l5w676i6t737f7x8h",
"1h202i2uXXXXXXXXXXXXXXXXXXXXXXXX15686j6u747g7y8i",
"1i212j0yXXXXXXXXXXXXXXXXXXXXXXXXXX696k6v757h7z8j",
"1j222k0yXXXXXXXXXXXXXXXXXXXXXXXXXXXX156w767i808k",
"1k232l2vXXXXXXXXXXXXXXXXXXXXXXXXXXXXXX6x777j818l",
"1l242m2wXXXXXXXXXXXXXXXXXXXXXXXXXXXXXXXX787k828m",
"1m252n2xXXXXXXXXXXXXXXXXXXXXXXXXXXXXXX6y797l838n",
"1n262o2yXXXXXXXXXXXXXXXXXXXXXXXXXXXX6l6z7a7m848o",
"1o272p2z35101012121313464lXXXXXX5x6a6m707b7n858p",
"1p280w303611110o0o3m0o474mXXXX145y6b6n0707070m0s",
"1q292q310b0b0b0b0b0b3u484nXX145m5z6c6o710a06868q",
"0s0m070707070a0a0a0a0m494o4y5a5n606d6p//////0u8r",
"1r2a0a060606060606063v4a4p4z5b5o616e6q......870w",
"1s0u//////////////..3w4b4q505c5p626f05050505++8s",
"1t2b..............053x4c4r515d5q63050505057o888t",
"1u2c0x++++++++++++++3y4d4s525e5r++++++++++0x898u",
"  2d2r||||||||||||||||||0d53||||0d0d0d0d0d7p8a  "};