/* XPM */
static char * xpm_no-entry[] = {
"24 24 212 2",
"  	c None",
"XX	c #ffffff",
"++	c #f1251b",
"..	c #f12019",
"||	c #f78266",
"//	c #f11c19",
"06	c #cd3131",
"07	c #f5281a",
"08	c #f11717",
"09	c #f7866a",
"0a	c #f01315",
"0b	c #f7896d",
"0c	c #f77f63",
"0d	c #f77f62",
"0e	c #f78165",
"0f	c #fbaf99",
"0g	c #f88a6d",
"0h	c #f01014",
"0i	c #f5583a",
"0j	c #f99895",
"0k	c #ec3b43",
"0l	c #ee3740",
"0m	c #e51d16",
"0n	c #cd0c0f",
"0o	c #b6030a",
"0p	c #f52e20",
"0q	c #f42c1e",
"0r	c #f5281c",
"0s	c #eb1a16",
"0t	c #bb060a",
"0u	c #ae0307",
"0v	c #d40804",
"0w	c #d5160f",
"0x	c #f42b1e",
"0y	c #f3211a",
"0z	c #f41c18",
"10	c #c40a0c",
"11	c #a50206",
"12	c #f4d8db",
"13	c #f3e5e7",
"14	c #c72526",
"15	c #f52a1c",
"16	c #f21c19",
"17	c #f81918",
"18	c #c2070a",
"19	c #a20105",
"1a	c #f78366",
"1b	c #f7755a",
"1c	c #ce3232",
"1d	c #f5291a",
"1e	c #f21717",
"1f	c #f51315",
"1g	c #ab0206",
"1h	c #f78b6e",
"1i	c #f78569",
"1j	c #f21316",
"1k	c #e60e11",
"1l	c #980003",
"1m	c #f61115",
"1n	c #b50207",
"1o	c #f89275",
"1p	c #f7886c",
"1q	c #f31115",
"1r	c #db080d",
"1s	c #980002",
"1t	c #f88a6c",
"1u	c #f11014",
"1v	c #ef0d12",
"1w	c #970002",
"1x	c #f78064",
"1y	c #f5694c",
"1z	c #f99694",
"20	c #f80e14",
"21	c #950002",
"22	c #f39d8b",
"23	c #f55f41",
"24	c #f99894",
"25	c #f70e14",
"26	c #a40005",
"27	c #e73b43",
"28	c #e73942",
"29	c #e63943",
"2a	c #e53842",
"2b	c #df3c44",
"2c	c #d83841",
"2d	c #cb0d14",
"2e	c #c3050c",
"2f	c #f45659",
"2g	c #f77264",
"2h	c #f7705e",
"2i	c #f7775e",
"2j	c #f8725c",
"2k	c #f63c25",
"2l	c #f02a1b",
"2m	c #ef3e45",
"2n	c #ef3740",
"2o	c #f45257",
"2p	c #f99e88",
"2q	c #f88468",
"2r	c #f77c61",
"2s	c #f6785e",
"2t	c #f77a63",
"2u	c #f43d26",
"2v	c #f4351f",
"2w	c #f33e45",
"2x	c #f0343e",
"2y	c #f8897e",
"2z	c #faa78c",
"30	c #f77d5f",
"31	c #f77b61",
"32	c #f5584f",
"33	c #f24b45",
"34	c #e9241d",
"35	c #df0802",
"36	c #f23f46",
"37	c #ef343e",
"38	c #f6897f",
"39	c #faa78e",
"3a	c #f7785c",
"3b	c #fba1a2",
"3c	c #fce9ed",
"3d	c #f8d6d9",
"3e	c #f78a7f",
"3f	c #faaf97",
"3g	c #fabdba",
"3h	c #f33c43",
"3i	c #ee5254",
"3j	c #fcc0a8",
"3k	c #f7745a",
"3l	c #fabab8",
"3m	c #ec353e",
"3n	c #f9b29d",
"3o	c #faa68b",
"3p	c #fabcba",
"3q	c #f43e46",
"3r	c #e8484e",
"3s	c #fbbfa9",
"3t	c #f7765c",
"3u	c #faa0a0",
"3v	c #ef3942",
"3w	c #f18278",
"3x	c #fbbaa3",
"3y	c #f7785e",
"3z	c #f89591",
"40	c #eb3740",
"41	c #f39e8d",
"42	c #ea363f",
"43	c #e9363f",
"44	c #e8363f",
"45	c #f39d8c",
"46	c #ea3841",
"47	c #eb8076",
"48	c #fbbaa4",
"49	c #f53e45",
"4a	c #d74648",
"4b	c #fdbfaa",
"4c	c #db3138",
"4d	c #f9b29e",
"4e	c #faa68c",
"4f	c #d54c4d",
"4g	c #fec1a9",
"4h	c #d93238",
"4i	c #eb887b",
"4j	c #fcb098",
"4k	c #f78063",
"4l	c #f77559",
"4m	c #f99995",
"4n	c #f23f47",
"4o	c #cb2c33",
"4p	c #ea857a",
"4q	c #fca88f",
"4r	c #f77a60",
"4s	c #f77d7e",
"4t	c #fbdfe3",
"4u	c #f8d9dc",
"4v	c #f23e46",
"4w	c #c62b32",
"4x	c #e4796e",
"4y	c #fea88e",
"4z	c #f87d60",
"50	c #f77e63",
"51	c #f33c32",
"52	c #ee0d08",
"53	c #e70d07",
"54	c #df0a05",
"55	c #f33f47",
"56	c #d73239",
"57	c #ca4748",
"58	c #f89d87",
"59	c #fa866a",
"5a	c #f8795e",
"5b	c #f43e24",
"5c	c #f43f26",
"5d	c #f33b23",
"5e	c #f53721",
"5f	c #e73b41",
"5g	c #cd2e35",
"5h	c #cf4c4d",
"5i	c #e46e63",
"5j	c #eb3f2a",
"5k	c #f84026",
"5l	c #f53d24",
"5m	c #f63922",
"5n	c #f02c1d",
"5o	c #ea3d44",
"5p	c #df3a41",
"5q	c #d62e38",
"5r	c #c30007",
"5s	c #cc030c",
"5t	c #cb040c",
"5u	c #c7050c",
"5v	c #c3060c",
"                3q3v404243444649                ",
"            3h3m3r3w41222245474a4c0k            ",
"        360l3i3n3s3x0f0f0f0f484b4d4f4h4n        ",
"      2w373e3j3o1o1t0g0g0g0g1t1o4e4g4i4o4v      ",
"    2m2x383f1h091p0b0b0b0b0b0b1p091h4j4p4w55    ",
"    2n2y391a1i090909090909090909091i1a4q4x56    ",
"  0k2o2z0d0e||||||||||||||||||||||||0e0d4y575f  ",
"  0l2p300d0c0c0c0c0c1x0e||||||||0e1x4k0d4z585g  ",
"272f2q313a1b3k1b3t3y1y230i0i0i0i231y4l4r50595h5o",
"282g2r323b3g3l3p3u3z1z240j0j0j0j241z4m4s515a5i5p",
"292h2s333cXXXXXXXXXXXXXXXXXXXXXXXXXXXX4t525b5j5q",
"2a2i2t343dXXXXXXXXXXXXXXXXXXXXXXXXXXXX4u535c5k5r",
"2b2j2u3512XXXXXXXXXXXXXXXXXXXXXXXXXXXX12545d5l5s",
"2c2k2v0v13XXXXXXXXXXXXXXXXXXXXXXXXXXXX130v5e5m5t",
"2d2l0p0w141c0606060606060606060606061c140w0p5n5u",
"2e0m0q0x151d0707070707070707070707071d150x0q0m5v",
"  0n0r++++++++++++++++++++++++++++++++++++0r0n  ",
"  0o0s0y................................0y0s0o  ",
"    0t0z16////////////////////////////160z0t    ",
"    0u10171e0808080808080808080808081e17100u    ",
"      11181f1j0a0a0a0a0a0a0a0a0a0a1j1f1811      ",
"        191g1k1m1q1u0h0h0h0h1u1q1m1k1g19        ",
"            1l1n1r1v202525201v1r1n1l            ",
"                1s1w212626211w1s                "};