/* XPM */
static char * xpm_no[] = {
"24 24 284 2",
"  	c None",
"XX	c #ff9d83",
"++	c #f42017",
"..	c #f51313",
"||	c #f51113",
"//	c #900002",
"06	c #ffa58e",
"07	c #f30d11",
"08	c #f41b15",
"09	c #f7251a",
"0a	c #f7281b",
"0b	c #f61c15",
"0c	c #f51915",
"0d	c #f63822",
"0e	c #f5311d",
"0f	c #f5271a",
"0g	c #c50006",
"0h	c #bf0309",
"0i	c #be0609",
"0j	c #fe6c56",
"0k	c #ff6d59",
"0l	c #f53225",
"0m	c #e41812",
"0n	c #c8090c",
"0o	c #af0508",
"0p	c #fb6853",
"0q	c #fa6854",
"0r	c #f83d28",
"0s	c #f62518",
"0t	c #f82218",
"0u	c #ea1613",
"0v	c #b40508",
"0w	c #a60206",
"0x	c #fc7359",
"0y	c #fd755a",
"0z	c #fd7158",
"10	c #fe6f59",
"11	c #fb472f",
"12	c #f72d19",
"13	c #f62419",
"14	c #f71914",
"15	c #be0709",
"16	c #9d0105",
"17	c #ee3630",
"18	c #db1316",
"19	c #d61215",
"1a	c #d1090b",
"1b	c #d20e0f",
"1c	c #f62118",
"1d	c #fb1414",
"1e	c #bc0608",
"1f	c #990104",
"1g	c #fd7b5d",
"1h	c #f71112",
"1i	c #a10205",
"1j	c #ffb79e",
"1k	c #e40b0f",
"1l	c #fc7a5d",
"1m	c #f83e24",
"1n	c #f31012",
"1o	c #fa0e12",
"1p	c #ac0206",
"1q	c #fd896c",
"1r	c #f84026",
"1s	c #f41012",
"1t	c #f60d12",
"1u	c #d7070b",
"1v	c #ffb199",
"1w	c #fe8565",
"1x	c #f83820",
"1y	c #f40d11",
"1z	c #f00b0f",
"20	c #8e0002",
"21	c #fe8868",
"22	c #f6361f",
"23	c #f7341e",
"24	c #f71113",
"25	c #fb0c11",
"26	c #8c0002",
"27	c #e2040b",
"28	c #fe8a69",
"29	c #b10507",
"2a	c #f81113",
"2b	c #fa0c11",
"2c	c #9b0004",
"2d	c #f52e1b",
"2e	c #f52419",
"2f	c #d50f0f",
"2g	c #f41815",
"2h	c #db050a",
"2i	c #db0209",
"2j	c #da0108",
"2k	c #d9070d",
"2l	c #ce070d",
"2m	c #e5050a",
"2n	c #ec0912",
"2o	c #f63539",
"2p	c #fe5f56",
"2q	c #fd6c59",
"2r	c #fd6f57",
"2s	c #ec080e",
"2t	c #ed050c",
"2u	c #f93d40",
"2v	c #ff9680",
"2w	c #fd7c62",
"2x	c #fc7258",
"2y	c #fb6c54",
"2z	c #ef070e",
"30	c #ef0c11",
"31	c #fc7d74",
"32	c #fc7557",
"33	c #f1090e",
"34	c #ed0c11",
"35	c #fc837a",
"36	c #fc745a",
"37	c #fd775b",
"38	c #fc6e57",
"39	c #e21813",
"3a	c #f62619",
"3b	c #f51b15",
"3c	c #eb050b",
"3d	c #fb8073",
"3e	c #ffa68d",
"3f	c #fc785d",
"3g	c #fc775e",
"3h	c #e92222",
"3i	c #d60109",
"3j	c #be050a",
"3k	c #dd1311",
"3l	c #f81d16",
"3m	c #ef050b",
"3n	c #ee3a3f",
"3o	c #fc8264",
"3p	c #fc7b60",
"3q	c #fc795f",
"3r	c #fd775c",
"3s	c #fc5639",
"3t	c #e41513",
"3u	c #d2050d",
"3v	c #cc0c0e",
"3w	c #f91a16",
"3x	c #e80810",
"3y	c #ffab95",
"3z	c #fc8062",
"40	c #fc7e63",
"41	c #f9492c",
"42	c #fb4126",
"43	c #e61c17",
"44	c #ce040b",
"45	c #d80e0f",
"46	c #f71414",
"47	c #f2070c",
"48	c #e62b2f",
"49	c #ffb7a1",
"4a	c #fb6f57",
"4b	c #fb5e40",
"4c	c #f84225",
"4d	c #f93e24",
"4e	c #f83c24",
"4f	c #eb2219",
"4g	c #c9040a",
"4h	c #ad0507",
"4i	c #f61413",
"4j	c #ea0209",
"4k	c #f16f69",
"4l	c #f43d36",
"4m	c #e9020b",
"4n	c #f63a24",
"4o	c #f94628",
"4p	c #f83d24",
"4q	c #e72018",
"4r	c #c60409",
"4s	c #d50b0e",
"4t	c #e20005",
"4u	c #f99787",
"4v	c #ef1619",
"4w	c #e4080f",
"4x	c #f43925",
"4y	c #f94227",
"4z	c #e71e16",
"50	c #c1040a",
"51	c #b90609",
"52	c #f99584",
"53	c #ee0f14",
"54	c #e1080e",
"55	c #f53623",
"56	c #f94025",
"57	c #f6351f",
"58	c #f72f1c",
"59	c #e91d16",
"5a	c #bf050a",
"5b	c #f79584",
"5c	c #ee0d13",
"5d	c #dd080e",
"5e	c #ef2a1d",
"5f	c #f83b23",
"5g	c #f02016",
"5h	c #ba060a",
"5i	c #dc0004",
"5j	c #f69686",
"5k	c #ef1418",
"5l	c #d7040c",
"5m	c #ec241a",
"5n	c #f52d1b",
"5o	c #ef1d15",
"5p	c #b50509",
"5q	c #ba0609",
"5r	c #e20207",
"5s	c #ec6f65",
"5t	c #f43f36",
"5u	c #d1040d",
"5v	c #ec2219",
"5w	c #f62117",
"5x	c #ee1814",
"5y	c #a80406",
"5z	c #d40b0e",
"60	c #f1060d",
"61	c #cd282a",
"62	c #ffb8a1",
"63	c #fd8062",
"64	c #e9050d",
"65	c #ce040c",
"66	c #e91f18",
"67	c #f7301c",
"68	c #ee1614",
"69	c #f21312",
"6a	c #cd060b",
"6b	c #ffaa96",
"6c	c #fd8566",
"6d	c #f33d35",
"6e	c #c9050b",
"6f	c #df1713",
"6g	c #f92a1b",
"6h	c #f62519",
"6i	c #f51815",
"6j	c #e40409",
"6k	c #cd3537",
"6l	c #fc8364",
"6m	c #fe8667",
"6n	c #ed2121",
"6o	c #c7050a",
"6p	c #f9271a",
"6q	c #f42117",
"6r	c #f41313",
"6s	c #c60006",
"6t	c #ec7b6f",
"6u	c #ffa68e",
"6v	c #fc7a5e",
"6w	c #fe8165",
"6x	c #f03a32",
"6y	c #df060d",
"6z	c #bd0409",
"70	c #ee080e",
"71	c #b60409",
"72	c #ed8073",
"73	c #ff9f84",
"74	c #fd765b",
"75	c #fc7059",
"76	c #e11713",
"77	c #f42519",
"78	c #f52117",
"79	c #ee080d",
"7a	c #b10308",
"7b	c #e46e65",
"7c	c #ff9e84",
"7d	c #fd7557",
"7e	c #f1080f",
"7f	c #c30107",
"7g	c #bd3132",
"7h	c #fc9580",
"7i	c #ff7d63",
"7j	c #fe7258",
"7k	c #fc6c55",
"7l	c #dc030a",
"7m	c #b8040a",
"7n	c #c22a2d",
"7o	c #e0584d",
"7p	c #f16755",
"7q	c #ff6f58",
"7r	c #df060b",
"7s	c #d00207",
"7t	c #c20005",
"7u	c #c1040b",
"7v	c #c70209",
"                474j4t27275i5r60                ",
"            3m3x484k4u525b5j5s616a6j            ",
"        333c3n3y491v060606061v626b6k6s70        ",
"      2z343d1jXX1q1w212828211w1qXX1j6t7179      ",
"    2s30353e3o3z1l4l4v535c5k5t636c6l6u727a7e    ",
"    2t31XX3f3p404a4m          646d6m6v737b7f    ",
"  2m2uXX363g3q1l4b4n4w            6n6w747c7g7l  ",
"  2n2v32371g3r414c4o4x54            6x1g7d7h7m  ",
"2h2o2w0x383h3s1m1r1r4y555d          6y750x7i7n7r",
"2i2p2x0y173i3t424d4p1m565e5l          170y7j7o7s",
"2j2q2y0z18  3u434e0d0d0d5f5m5u        180z7k7p7t",
"2k2r0p1019    444f1x2257221x5v65      19100p7q7u",
"2l0j0q111a      4g4q230e0e0e23666e    1a110q0j7v",
"0g0k0r121b        4r4z582d5n2d676f6o  1b120r0k0g",
"0h0l0s0a39          50590a0f0f0f6g2f6z760a0s0l0h",
"0i0m09133a3j          5a5g092e2e6h6p2f7713090m0i",
"  0n0t++1c3k            5h5o5w++++6q1c78++0t0n  ",
"  0o0u0b3b3l3v            5p5x0b080808080b0u0o  ",
"    0v140c0c3w454h          5y686i2g2g0c140v    ",
"    0w151d....464i4s5129295q5z69..6r..1d150w    ",
"      161e1h||1n1s||242a2a24||1s1n||1h1e16      ",
"        1f1i1k1o1t1y070707071y1t1o1k1i1f        ",
"            //1p1u1z252b2b251z1u1p//            ",
"                //20262c2c2620//                "};