/* XPM */
static char * xpm_ok[] = {
"24 24 292 2",
"  	c None",
"XX	c #ffffff",
"++	c #a5e15e",
"..	c #4bce1e",
"||	c #4ace1e",
"//	c #0a9100",
"06	c #fffdff",
"07	c #a4e15c",
"08	c #4bcc1e",
"09	c #a6e15e",
"0a	c #4fcd1e",
"0b	c #fff7ff",
"0c	c #a7e25f",
"0d	c #4dd020",
"0e	c #b1e36d",
"0f	c #008b00",
"0g	c #008900",
"0h	c #b8e2ab",
"0i	c #027105",
"0j	c #006d00",
"0k	c #006800",
"0l	c #097903",
"0m	c #087c02",
"0n	c #0d8108",
"0o	c #17880a",
"0p	c #006700",
"0q	c #117808",
"0r	c #61b344",
"0s	c #9edc71",
"0t	c #a6e868",
"0u	c #a9e86c",
"0v	c #a6e86c",
"0w	c #aaea77",
"0x	c #6ad431",
"0y	c #3ebb15",
"0z	c #259f0f",
"10	c #198d0b",
"11	c #016e05",
"12	c #006600",
"13	c #78c252",
"14	c #d1f0a2",
"15	c #9edf61",
"16	c #9bde63",
"17	c #9fe06b",
"18	c #48c719",
"19	c #22990d",
"1a	c #22980c",
"1b	c #006500",
"1c	c #187d10",
"1d	c #aee279",
"1e	c #59d11c",
"1f	c #50d11f",
"1g	c #30aa11",
"1h	c #259c0b",
"1i	c #006a06",
"1j	c #17780f",
"1k	c #bae97f",
"1l	c #008c00",
"1m	c #50ce1e",
"1n	c #31ae10",
"1o	c #27a00e",
"1p	c #006000",
"1q	c #a7dd6d",
"1r	c #4fce1e",
"1s	c #2aa30e",
"1t	c #005c00",
"1u	c #74bc46",
"1v	c #d3ee98",
"1w	c #a8e260",
"1x	c #008d00",
"1y	c #018f00",
"1z	c #45c91d",
"20	c #2aa10d",
"21	c #0f730b",
"22	c #c1e781",
"23	c #33b111",
"24	c #006702",
"25	c #54a531",
"26	c #d4ef97",
"27	c #c2ea7d",
"28	c #a3e05b",
"29	c #98d856",
"2a	c #60d81c",
"2b	c #4ccf1f",
"2c	c #44c318",
"2d	c #2fa90f",
"2e	c #005900",
"2f	c #90ce5b",
"2g	c #d5ee9a",
"2h	c #a4e05c",
"2i	c #4ed21f",
"2j	c #4ace1f",
"2k	c #2fa80e",
"2l	c #005000",
"2m	c #b4e175",
"2n	c #d1ec97",
"2o	c #a6e25f",
"2p	c #4ed120",
"2q	c #2ea60e",
"2r	c #006400",
"2s	c #c4ea86",
"2t	c #cfec96",
"2u	c #4cc02b",
"2v	c #31ae0f",
"2w	c #b2e36d",
"2x	c #fefcfe",
"2y	c #fefefe",
"2z	c #3cbb14",
"30	c #58cf1c",
"31	c #51cd1d",
"32	c #51d21f",
"33	c #5ad116",
"34	c #12870a",
"35	c #c2ed8d",
"36	c #9de15c",
"37	c #6fd532",
"38	c #53cd17",
"39	c #58d01c",
"3a	c #59d41f",
"3b	c #d6f1a9",
"3c	c #b1e574",
"3d	c #9de158",
"3e	c #a2e162",
"3f	c #a8e567",
"3g	c #a2e166",
"3h	c #069401",
"3i	c #139903",
"3j	c #42bb15",
"3k	c #53ce1d",
"3l	c #52cf1e",
"3m	c #d1efa2",
"3n	c #bce885",
"3o	c #9cdf55",
"3p	c #a5e462",
"3q	c #99db54",
"3r	c #b2e864",
"3s	c #ffedff",
"3t	c #fff1ff",
"3u	c #029100",
"3v	c #32ad0f",
"3w	c #58d31e",
"3x	c #50cd1d",
"3y	c #53d320",
"3z	c #d2ef9d",
"40	c #c9eb96",
"41	c #9de054",
"42	c #a0e15e",
"43	c #aae461",
"44	c #59bc29",
"45	c #e2dfe8",
"46	c #f1e6f1",
"47	c #e1e3e2",
"48	c #fff2ff",
"49	c #039100",
"4a	c #2ca70f",
"4b	c #53d11e",
"4c	c #cbec9b",
"4d	c #b2e36e",
"4e	c #a2e05a",
"4f	c #a1e160",
"4g	c #91d750",
"4h	c #fff5ff",
"4i	c #eae8ea",
"4j	c #e9e9ea",
"4k	c #42bf16",
"4l	c #52d01f",
"4m	c #4ecd1e",
"4n	c #50cf1f",
"4o	c #cfec99",
"4p	c #caeb97",
"4q	c #9be04a",
"4r	c #a6e15f",
"4s	c #a1e15f",
"4t	c #9ad957",
"4u	c #4dcb13",
"4v	c #efecef",
"4w	c #eeedee",
"4x	c #fffbff",
"4y	c #018e00",
"4z	c #3dba14",
"50	c #52d01c",
"51	c #cdeb98",
"52	c #a0de5e",
"53	c #56d218",
"54	c #fff8ff",
"55	c #f1f1f1",
"56	c #f1f1ef",
"57	c #4bc02b",
"58	c #51cf1d",
"59	c #d2ec9e",
"5a	c #b0e36d",
"5b	c #a5e15d",
"5c	c #a3de68",
"5d	c #98d855",
"5e	c #54d018",
"5f	c #5dd41e",
"5g	c #2bb500",
"5h	c #f5f4f5",
"5i	c #f2f4f2",
"5j	c #f9f7fb",
"5k	c #0f9300",
"5l	c #d6eea2",
"5m	c #55d118",
"5n	c #f8f7f8",
"5o	c #faf8fa",
"5p	c #cbebbf",
"5q	c #119300",
"5r	c #d8eea4",
"5s	c #99d956",
"5t	c #59d717",
"5u	c #fdfbfd",
"5v	c #fcfafc",
"5w	c #c8e9bb",
"5x	c #089000",
"5y	c #4cd01d",
"5z	c #cced9e",
"60	c #a1df58",
"61	c #008a00",
"62	c #c0e6b5",
"63	c #089100",
"64	c #4cd11d",
"65	c #d8eea3",
"66	c #b6ea67",
"67	c #fefcff",
"68	c #bae2ae",
"69	c #3ebb12",
"6a	c #4cd11f",
"6b	c #cded9d",
"6c	c #a8e25f",
"6d	c #abe561",
"6e	c #008700",
"6f	c #fffeff",
"6g	c #3ebb13",
"6h	c #4ed11f",
"6i	c #cdeb99",
"6j	c #afe663",
"6k	c #fbfafb",
"6l	c #3dbb13",
"6m	c #4dd11f",
"6n	c #d0ec9a",
"6o	c #cbeb99",
"6p	c #9de14c",
"6q	c #b6ea68",
"6r	c #f9f8f9",
"6s	c #fafbfb",
"6t	c #5dd21d",
"6u	c #50cd1e",
"6v	c #4dd120",
"6w	c #cced9d",
"6x	c #bbe873",
"6y	c #f6f4f6",
"6z	c #f8f7f7",
"70	c #b9e2ab",
"71	c #5fd517",
"72	c #51d020",
"73	c #d3ef9e",
"74	c #d0ee9d",
"75	c #5dbf23",
"76	c #fff6ff",
"77	c #f2f3f2",
"78	c #b9e3ab",
"79	c #099100",
"7a	c #3cbb13",
"7b	c #5fd417",
"7c	c #5bd216",
"7d	c #d5f1a6",
"7e	c #3baa2a",
"7f	c #bae4ad",
"7g	c #058f00",
"7h	c #48bf2a",
"7i	c #5bd41c",
"7j	c #5ad21c",
"7k	c #49ce1e",
"7l	c #54d421",
"7m	c #dbf3ad",
"7n	c #56b937",
"7o	c #129708",
"7p	c #069000",
"7q	c #a5e467",
"7r	c #a6e46c",
"7s	c #74db30",
"7t	c #56d011",
"7u	c #5bd21e",
"7v	c #57cf1c",
"7w	c #53cd1d",
"7x	c #53d01f",
"7y	c #c8f092",
"7z	c #a1e45d",
"80	c #6bd42d",
"81	c #4fcc13",
"82	c #5ad520",
"83	c #0f800a",
"                242e2l2r2r2l2e24                ",
"            1t21252f2m2s2s2m2f25211t            ",
"        1i1p1u22262g2n2t2t2n2g26221u1p1i        ",
"      1b1j1q1v4o51595l5r5z656b6i6n1v1q1j1b      ",
"    111c1k3z4c4p275a0e0e2w2w0e276o6w731k1c11    ",
"    121d3m404d4q282h070707072h286p6x747d1d12    ",
"  0p133b3n414e4r++++++++++++++0c6q0f757e7m130p  ",
"  0q143c3o424f4s++++++++++++6c6j0gXX76067n140q  ",
"0i0r353d3p09++09095b++++++0c6d0gXX6y77XX7o7y0r0i",
"0j0s363e3q431w0c525c2o2o1w666eXX6r6z067f7p7z0s0j",
"0k0t153f3r444g4t295d295s600gXX6k6sXX787g7q150t0k",
"0l0u163g1l451x4u535e5m5t61XX2x2yXX70797h7r160u0l",
"340v173h3s464h1l2a5f2a0fXX676fXX0h//7a7i7s170v83",
"0m0w373i3t474i0b1x5g0fXX2xXXXX0h//2z7b337t800w0m",
"0n0x383j3u484j4v540b065u2yXX0h//2z717c337u810x0n",
"0o0y391e3v490b4w555h5n5vXX68//6l6t30307j7v1e0y0o",
"  0z3a3k3w4a1y4x565i5oXX62//6g6m||||||7k7w820z  ",
"  10183l3x4b4k4y065jXX5w63696h....||31317x1810  ",
"    191f1m0a4l4z1yXX5p5x2u6a......||0a1m3219    ",
"    1a1g3y1r4m50575k5q2u64......||||1r7l1g1a    ",
"      1h1n1f4n0a582i2i5y......||6u72321n1h      ",
"        1o1s1z0d2b..08080808..2b6v1z1s1o        ",
"            20232c2j2p0d0d2p2j2c2320            ",
"                2d2k2q2v2v2q2k2d                "};