/* XPM */
static char * xpm_paste[] = {
"24 24 345 2",
"  	c None",
"XX	c #ffffff",
"++	c #ecf2f4",
"..	c #ffaf49",
"||	c #ffb44e",
"//	c #b17131",
"06	c #aab0ba",
"07	c #ffd96f",
"08	c #ffbf59",
"09	c #ffb852",
"0a	c #fdfafa",
"0b	c #eaf1f3",
"0c	c #f3f4fb",
"0d	c #fead53",
"0e	c #feaf56",
"0f	c #ffb24c",
"0g	c #ffad47",
"0h	c #ffa43e",
"0i	c #ffb650",
"0j	c #fffffd",
"0k	c #f9fafa",
"0l	c #f0f2f4",
"0m	c #fafafa",
"0n	c #f8fbfa",
"0o	c #ebf2f3",
"0p	c #feac50",
"0q	c #fead52",
"0r	c #feae55",
"0s	c #feb056",
"0t	c #ffc256",
"0u	c #ffd86f",
"0v	c #ffbb56",
"0w	c #ffb54f",
"0x	c #ffc15b",
"0y	c #ffbd57",
"0z	c #ffb14b",
"10	c #ffbb5a",
"11	c #ffc25b",
"12	c #f9f9f9",
"13	c #ffde6f",
"14	c #e0dfdf",
"15	c #fffffe",
"16	c #fbfbfa",
"17	c #ebf1f3",
"18	c #326c92",
"19	c #fbfafa",
"1a	c #f4fbfa",
"1b	c #d8e1ea",
"1c	c #eff2f7",
"1d	c #3a7398",
"1e	c #feac51",
"1f	c #feae54",
"1g	c #feaf55",
"1h	c #ffae55",
"1i	c #feab4e",
"1j	c #feedb9",
"1k	c #ffdf8e",
"1l	c #ffde8e",
"1m	c #ffdc8b",
"1n	c #ffda86",
"1o	c #ffd781",
"1p	c #ffd57b",
"1q	c #ffcf76",
"1r	c #ffcb6f",
"1s	c #ffc86b",
"1t	c #ffc665",
"1u	c #ffc05f",
"1v	c #ffbe5a",
"1w	c #ffbb57",
"1x	c #feaf57",
"1y	c #feb057",
"1z	c #feae56",
"20	c #ffdf75",
"21	c #b28632",
"22	c #ffbb6b",
"23	c #ffda7e",
"24	c #ffbd3f",
"25	c #ffc557",
"26	c #ffc054",
"27	c #ffbe53",
"28	c #ffbf52",
"29	c #ffbd51",
"2a	c #ffbb4f",
"2b	c #ffb84d",
"2c	c #ffb64c",
"2d	c #ffb54d",
"2e	c #ffaf47",
"2f	c #ffad46",
"2g	c #ffa33c",
"2h	c #b06f31",
"2i	c #ffb350",
"2j	c #ffd974",
"2k	c #ffcc53",
"2l	c #ffd56a",
"2m	c #ffca65",
"2n	c #ffc561",
"2o	c #ffc35e",
"2p	c #ffc15c",
"2q	c #ffbf5a",
"2r	c #ffbd58",
"2s	c #ffb853",
"2t	c #ddad76",
"2u	c #d5ba80",
"2v	c #c7a366",
"2w	c #ddb868",
"2x	c #ffd563",
"2y	c #ffc55f",
"2z	c #ffc35d",
"30	c #ffbb55",
"31	c #d3e4ff",
"32	c #bfcee8",
"33	c #788db7",
"34	c #51545b",
"35	c #e5b044",
"36	c #ffda67",
"37	c #ffbf5c",
"38	c #ffba54",
"39	c #dddcd9",
"3a	c #f5f3f0",
"3b	c #bbbbc1",
"3c	c #474947",
"3d	c #ac832d",
"3e	c #ffe76f",
"3f	c #ffb954",
"3g	c #ffac46",
"3h	c #ffa33d",
"3i	c #e4e4e4",
"3j	c #dededc",
"3k	c #aab0b8",
"3l	c #54504e",
"3m	c #c08b32",
"3n	c #ffe671",
"3o	c #ffba56",
"3p	c #ffb854",
"3q	c #ffb04b",
"3r	c #ffab46",
"3s	c #ffa23d",
"3t	c #c0c0c0",
"3u	c #fefefe",
"3v	c #e0e0df",
"3w	c #56504d",
"3x	c #c08e33",
"3y	c #ffe46b",
"3z	c #ffbf58",
"40	c #ffc559",
"41	c #ffc055",
"42	c #ffbd53",
"43	c #ffbb50",
"44	c #ffb94f",
"45	c #ffb74c",
"46	c #ffb64b",
"47	c #ffb348",
"48	c #ffb146",
"49	c #ffa83d",
"4a	c #b07132",
"4b	c #979797",
"4c	c #ececec",
"4d	c #8d8d8d",
"4e	c #878787",
"4f	c #56534d",
"4g	c #c68c2f",
"4h	c #ffe262",
"4i	c #ffc35a",
"4j	c #ffc55b",
"4k	c #ffc65b",
"4l	c #ffc056",
"4m	c #ffc157",
"4n	c #ffc258",
"4o	c #ffbc53",
"4p	c #ffbe54",
"4q	c #ffb64d",
"4r	c #ffb147",
"4s	c #ffb249",
"4t	c #ffa83e",
"4u	c #bd7429",
"4v	c #989898",
"4w	c #dfdfdf",
"4x	c #c4c4c4",
"4y	c #bcbcbc",
"4z	c #5c584b",
"50	c #d88305",
"51	c #ffd074",
"52	c #ffb638",
"53	c #ffb83a",
"54	c #ffb337",
"55	c #ffb438",
"56	c #ffaf32",
"57	c #ffad30",
"58	c #ffa92a",
"59	c #ffaa2b",
"5a	c #ffab2c",
"5b	c #ffa21f",
"5c	c #ffa320",
"5d	c #ffa11c",
"5e	c #ffd776",
"5f	c #af7f53",
"5g	c #bfbfbf",
"5h	c #fafaf8",
"5i	c #e1e0df",
"5j	c #6c5533",
"5k	c #4384be",
"5l	c #5890be",
"5m	c #578fbb",
"5n	c #5488b9",
"5o	c #4b89b6",
"5p	c #4881b3",
"5q	c #407eaf",
"5r	c #3b79aa",
"5s	c #2d73a8",
"5t	c #2a6fa6",
"5u	c #2a6da6",
"5v	c #276ca6",
"5w	c #296ca7",
"5x	c #1f66a0",
"5y	c #0a5891",
"5z	c #003276",
"60	c #e5e5e5",
"61	c #f3f2ee",
"62	c #e3e1dc",
"63	c #6a4f29",
"64	c #9dc0d3",
"65	c #f8f9f9",
"66	c #f5f9fa",
"67	c #39769b",
"68	c #dfe0e1",
"69	c #f3f7ff",
"6a	c #b2bcd1",
"6b	c #644e32",
"6c	c #94bad1",
"6d	c #fdfdfa",
"6e	c #f8fbfb",
"6f	c #eff1f3",
"6g	c #f0f5f4",
"6h	c #eef1f3",
"6i	c #2f6c92",
"6j	c #c2c3c0",
"6k	c #b3b5b5",
"6l	c #758295",
"6m	c #534026",
"6n	c #86b2cc",
"6o	c #fcfafc",
"6p	c #f4f8f7",
"6q	c #f6fafa",
"6r	c #f4fbfb",
"6s	c #ba6d1a",
"6t	c #9c6f2b",
"6u	c #956427",
"6v	c #ec921f",
"6w	c #76a6c8",
"6x	c #eaedf3",
"6y	c #e3ebf2",
"6z	c #f3f8f7",
"70	c #eff3f7",
"71	c #ed8f27",
"72	c #f8ac47",
"73	c #ffae42",
"74	c #ffc332",
"75	c #6799c1",
"76	c #d4dee7",
"77	c #e4ecf2",
"78	c #f7fbfa",
"79	c #f2f3fb",
"7a	c #326b92",
"7b	c #ffa13a",
"7c	c #ffc059",
"7d	c #ffb04d",
"7e	c #ffbb30",
"7f	c #558eb9",
"7g	c #b6cdda",
"7h	c #c5d5df",
"7i	c #e4ecf3",
"7j	c #eff8f8",
"7k	c #fcfbfb",
"7l	c #f2f7fa",
"7m	c #eff1f7",
"7n	c #316c95",
"7o	c #f39221",
"7p	c #ffb252",
"7q	c #ffaf4b",
"7r	c #ffb833",
"7s	c #4585b1",
"7t	c #9cb8cc",
"7u	c #aac1d5",
"7v	c #c7d5e2",
"7w	c #dae6eb",
"7x	c #e5e9ef",
"7y	c #f0f5f8",
"7z	c #f2f3fa",
"80	c #eff4f7",
"81	c #e8edf1",
"82	c #377098",
"83	c #f39323",
"84	c #f39223",
"85	c #ff9418",
"86	c #3577a5",
"87	c #5789a9",
"88	c #779fba",
"89	c #89afc3",
"8a	c #b5cbd8",
"8b	c #d9e2eb",
"8c	c #e4edf3",
"8d	c #f0f2f8",
"8e	c #f5fbfb",
"8f	c #f5f8fa",
"8g	c #eaeff2",
"8h	c #e1eef1",
"8i	c #4c80a3",
"8j	c #eaf1f2",
"8k	c #89aec2",
"8l	c #c7dae2",
"8m	c #d8e1eb",
"8n	c #e5edef",
"8o	c #edf3f8",
"8p	c #eaeff1",
"8q	c #e4eef1",
"8r	c #6a93b2",
"8s	c #e8f0f1",
"8t	c #7a9eb9",
"8u	c #b4c8d8",
"8v	c #c8d8e1",
"8w	c #d3e1e6",
"8x	c #e0e6ee",
"8y	c #f1f3fa",
"8z	c #eef1f6",
"90	c #e6ecef",
"91	c #397297",
"92	c #6d95b5",
"93	c #5f8cae",
"94	c #a7c4d5",
"95	c #c3d7de",
"96	c #dee8ee",
"97	c #f3f6f6",
"98	c #427b9e",
"99	c #4d7ca1",
"9a	c #396f95",
"9b	c #417999",
"9c	c #43799d",
"9d	c #437a9e",
"9e	c #467ca0",
"9f	c #497b9c",
"9g	c #467b9c",
"9h	c #43789d",
"9i	c #3d7296",
"9j	c #4e80a0",
"9k	c #00396e",
"                  4b4v                          ",
"                3t4c4w5g                        ",
"              3i3u4d4xXX60                      ",
"            39XXXX4e4yXX6168                    ",
"  1i222i2t31XX12XXXXXX5hXXXX6j6s717b7o          ",
"0p1j232j2u323a3j3v14145i62696k6t727c7p83        ",
"0p1k242k2v333b3k06060606066a6l6u737d7q84        ",
"1e1l252l2w343c3l3w4f4z5j636b6m6v747e7r85        ",
"0q1m0t2m2x353d3m3x4g505k646c6n6w757f7s86        ",
"0q1n262n2y363e3n3y4h515lXXXX6o6x767g7t878i      ",
"0d1o272o2z3710103z4i525m0j6d6p6y1b7h7u888j8r    ",
"0d1p282p0x0x1111404j535n0j0a166z771b7v89XX8s92  ",
"0d1q292q080808080t4k545o0j0a0m160c7i7w8a8k8t9399",
"1f1r2a2r0y0y0v3o414l555p150a0m0m0n7j7x8b8l8u949a",
"0r1s2b0v30383f3p424m565q150a6q19197k7y8c8m8v959b",
"0r1t2c2s09090909434n575rXX6e6r1a780n0n8d8n8w969c",
"1g1u2d0w0w0i0i0i444o585s656f1770797l1a8e8o8x979d",
"0e1v0f||||||||||454p595t666g++++0o7m7z8f0c0oXX9e",
"0e1w..0f0f0z0z3q464q5a5u0k0l++++++1c800c0c8yXX9f",
"0s1x2e..........474r5b5v0k0l++++++++++0o1c8zXX9g",
"0s1y2f0g0g0g3g3r484s5c5w0k0l++++++++++8g8p17XX9h",
"0e1z2g0h0h0h3h3s494t5d5x126h0b0b0b0b818h8q90XX9i",
"1h200u070707070u13135e5yXXXXXXXXXXXXXXXXXXXXXX9j",
"  212h//////////4a4u5f5z676i18187a7n821d1d91989k"};