/* XPM */
static char * xpm_pause[] = {
"24 24 245 2",
"  	c None",
"XX	c #ffffff",
"++	c #5cc8f1",
"..	c #72cded",
"||	c #7edff7",
"//	c #7adbf6",
"06	c #7cdbf7",
"07	c #0d51b3",
"08	c #0a51b4",
"09	c #0850b4",
"0a	c #0e69c6",
"0b	c #166dc9",
"0c	c #1a77ce",
"0d	c #0745a9",
"0e	c #115fb7",
"0f	c #449bd7",
"0g	c #76c8ea",
"0h	c #7ad1f0",
"0i	c #83d8f3",
"0j	c #97e0f6",
"0k	c #62c6ee",
"0l	c #3fb0e7",
"0m	c #2891db",
"0n	c #1e80d5",
"0o	c #0642a4",
"0p	c #0748a8",
"0q	c #4ea3dc",
"0r	c #99dbf2",
"0s	c #8dd6f2",
"0t	c #6ac7ee",
"0u	c #74cbef",
"0v	c #7cd0ef",
"0w	c #86d3f2",
"0x	c #5fc5ef",
"0y	c #53bfef",
"0z	c #66d1f3",
"10	c #57c4ee",
"11	c #238fdc",
"12	c #248ddb",
"13	c #023b9e",
"14	c #125ab5",
"15	c #6ac2e8",
"16	c #96ddf2",
"17	c #70c8ed",
"18	c #60c3ec",
"19	c #6bc7ed",
"1a	c #75cbef",
"1b	c #7fd1ef",
"1c	c #56c0ee",
"1d	c #4ab9ed",
"1e	c #55c0ef",
"1f	c #5ac6f0",
"1g	c #61cbf1",
"1h	c #6ad1f4",
"1i	c #6fd6f5",
"1j	c #34a7e5",
"1k	c #2592de",
"1l	c #023a98",
"1m	c #1059b3",
"1n	c #70c5e9",
"1o	c #57c2f0",
"1p	c #63cdf2",
"1q	c #6bd1f4",
"1r	c #72d5f5",
"1s	c #7cddf7",
"1t	c #38ace7",
"1u	c #2899e2",
"1v	c #023d9f",
"1w	c #5bb6e4",
"1x	c #81d4ef",
"1y	c #3fade5",
"1z	c #42afe7",
"20	c #44b2e8",
"21	c #48b2e8",
"22	c #7bddf8",
"23	c #7cdcf7",
"24	c #2ca1e5",
"25	c #003294",
"26	c #3a96d5",
"27	c #76d0ec",
"28	c #337dc8",
"29	c #2d77c3",
"2a	c #2a73c0",
"2b	c #0443a2",
"2c	c #4cb8e8",
"2d	c #7eddf7",
"2e	c #69d4f3",
"2f	c #289ee5",
"2g	c #094caa",
"2h	c #65c1e8",
"2i	c #76d0ed",
"2j	c #8ebcde",
"2k	c #2084d5",
"2l	c #83dff9",
"2m	c #39b0e9",
"2n	c #003394",
"2o	c #277ec9",
"2p	c #6eceec",
"2q	c #76cfed",
"2r	c #63c5eb",
"2s	c #d0eaf7",
"2t	c #85b6db",
"2u	c #2085d5",
"2v	c #7fddf8",
"2w	c #60cdf1",
"2x	c #2ca3e7",
"2y	c #003193",
"2z	c #48a9dd",
"30	c #77d0ec",
"31	c #4cbce9",
"32	c #8fbfdf",
"33	c #1f84d4",
"34	c #7ddef7",
"35	c #7ddcf8",
"36	c #2ba4e7",
"37	c #002e91",
"38	c #5dbae6",
"39	c #70ccec",
"3a	c #78d0ed",
"3b	c #43b6e7",
"3c	c #0055bb",
"3d	c #004bb1",
"3e	c #0040ab",
"3f	c #0038a4",
"3g	c #00319f",
"3h	c #002b97",
"3i	c #001f8c",
"3j	c #58c5ee",
"3k	c #87e1f8",
"3l	c #29a3e7",
"3m	c #003c9d",
"3n	c #67c4e9",
"3o	c #6fcbec",
"3p	c #79d0ed",
"3q	c #49bff0",
"3r	c #52c3f1",
"3s	c #5bc9f4",
"3t	c #61d0f5",
"3u	c #68d6f7",
"3v	c #70dafa",
"3w	c #76ddfa",
"3x	c #77d9f7",
"3y	c #79daf5",
"3z	c #86e0f8",
"40	c #32ade9",
"41	c #1364bf",
"42	c #176ec9",
"43	c #8ad9f4",
"44	c #8cd6f1",
"45	c #76cded",
"46	c #59beeb",
"47	c #64c5ec",
"48	c #6dc8ed",
"49	c #77cdf0",
"4a	c #6bcaef",
"4b	c #41b7ed",
"4c	c #4ebcee",
"4d	c #7ccfef",
"4e	c #51bbe9",
"4f	c #59bde9",
"4g	c #5ebfea",
"4h	c #65c0eb",
"4i	c #68c2eb",
"4j	c #2da1e2",
"4k	c #32a4e4",
"4l	c #38a6e4",
"4m	c #3ca8e5",
"4n	c #76ceee",
"4o	c #7ecdef",
"4p	c #94d3ef",
"4q	c #8dceed",
"4r	c #8bcae8",
"4s	c #88c6e9",
"4t	c #65afdf",
"4u	c #3b91d3",
"4v	c #3a8bcf",
"4w	c #3484cd",
"4x	c #3886cc",
"4y	c #d3eaf8",
"4z	c #daeef9",
"50	c #5fc0ec",
"51	c #54b5e7",
"52	c #4cade3",
"53	c #4da9e2",
"54	c #147bd0",
"55	c #025fc4",
"56	c #015bbf",
"57	c #39aee5",
"58	c #44b5e6",
"59	c #4eb7e8",
"5a	c #58bdeb",
"5b	c #63c4eb",
"5c	c #37ace7",
"5d	c #32abe8",
"5e	c #42b8ec",
"5f	c #38aee5",
"5g	c #46b7e7",
"5h	c #52bbe9",
"5i	c #5dc1ec",
"5j	c #69c8ed",
"5k	c #3cb2e9",
"5l	c #37b1ea",
"5m	c #41b8ec",
"5n	c #69c5ef",
"5o	c #5cbbe9",
"5p	c #54b3e6",
"5q	c #53b0e4",
"5r	c #1882d3",
"5s	c #0567c9",
"5t	c #015cc1",
"5u	c #d9eef8",
"5v	c #d5ecf8",
"5w	c #76cfee",
"5x	c #79c9ee",
"5y	c #94d2ef",
"5z	c #8ecdec",
"60	c #8acae8",
"61	c #7ebfe5",
"62	c #5da9db",
"63	c #368acf",
"64	c #3483cb",
"65	c #2a77c5",
"66	c #3683ca",
"67	c #78cded",
"68	c #4bb7e8",
"69	c #54b9e7",
"6a	c #57bae7",
"6b	c #5bb8e7",
"6c	c #5db9e8",
"6d	c #2597de",
"6e	c #2c9adf",
"6f	c #329ee0",
"6g	c #3ba8e5",
"6h	c #8dd6f1",
"6i	c #77cded",
"6j	c #59bfeb",
"6k	c #65c5ed",
"6l	c #6dc8ee",
"6m	c #78cdf0",
"6n	c #6bcbef",
"6o	c #42b9ed",
"6p	c #4fbdee",
"6q	c #8ad9f5",
"6r	c #1365c0",
"6s	c #156bc4",
"                2n2y373m3m372y2n                ",
"            252g2o2z383n3n382z2o2g25            ",
"        1l1v262h2p..393o3o39..2p2h261v1l        ",
"      131m1w272i2q303a3p3p3a302q2i271w1m13      ",
"    0o141n1x4n..2r313b575f3b312r..5w1x1n140o    ",
"    0p15444d4o4y2s4z50585g5n5u2s5v5x676h150p    ",
"  0d0q16454e4pXXXXXX51595h5oXXXXXX5y686i160q0d  ",
"  0e0r17464f4qXXXXXX525a5i5pXXXXXX5z696j170r0e  ",
"070f0s18474g4rXXXXXX535b5j5qXXXXXX606a6k180s0f07",
"080g0t19484h4sXXXXXX545c5k5rXXXXXX616b6l190t0g08",
"090h0u1a494i4tXXXXXX555d5l5sXXXXXX626c6m1a0u0h09",
"410i0v1b4a4j4uXXXXXX565e5m5tXXXXXX636d6n1b0v0i6r",
"42430w1c4b4k4vXXXXXX3c3q3q3cXXXXXX646e6o1c0w6q6s",
"0a0j0x1d4c4l4wXXXXXX3d3r3r3dXXXXXX656f6p1d0x0j0a",
"0b0k0y1e1o4m4xXXXXXX3e3s3s3eXXXXXX666g1o1e0y0k0b",
"0c0l++1f++1y28XXXXXX3f3t3t3fXXXXXX281y++1f++0l0c",
"  0m0z1g1p1z29XXXXXX3g3u3u3gXXXXXX291z1p1g0z0m  ",
"  0n101h1q202aXXXXXX3h3v3v3hXXXXXX2a201q1h100n  ",
"    111i1r212b2j2t323i3w3w3i322t2j2b211r1i11    ",
"    121j1s222c2k2u333j3x3x3j332u2k2c221s1j12    ",
"      1k1t232d||||34//3y3y//34||||2d231t1k      ",
"        1u242e2l2v3506060606352v2l2e241u        ",
"            2f2m2w//3k3z3z3k//2w2m2f            ",
"                2x363l40403l362x                "};