/* XPM */
static char * xpm_people[] = {
"24 24 342 2",
"  	c None",
"XX	c #37a0e3",
"++	c #59b4f0",
"..	c #4babeb",
"||	c #66bdf6",
"//	c #71c5fb",
"06	c #229be1",
"07	c #145aa3",
"08	c #ffbc47",
"09	c #5d4a40",
"0a	c #624e44",
"0b	c #ff1c16",
"0c	c #4c4d55",
"0d	c #229ce2",
"0e	c #74d4ff",
"0f	c #ffb23c",
"0g	c #ffc651",
"0h	c #5e4b41",
"0i	c #5c4a40",
"0j	c #503e35",
"0k	c #56443b",
"0l	c #3d2b1f",
"0m	c #ff4023",
"0n	c #ff2e1b",
"0o	c #3c83c4",
"0p	c #5a97cf",
"0q	c #5998cd",
"0r	c #2f72b3",
"0s	c #4c98d7",
"0t	c #9cccf3",
"0u	c #aee1ff",
"0v	c #86cefc",
"0w	c #65bcf3",
"0x	c #2a7fc1",
"0y	c #61aae4",
"0z	c #c0ecff",
"10	c #8cd3ff",
"11	c #59b3f0",
"12	c #46a9ea",
"13	c #349fe3",
"14	c #218dd6",
"15	c #1158a2",
"16	c #65b1ec",
"17	c #c5f0ff",
"18	c #89d1ff",
"19	c #62bbf5",
"1a	c #58b4f0",
"1b	c #4aabeb",
"1c	c #239de3",
"1d	c #1157a1",
"1e	c #4b4c54",
"1f	c #46474c",
"1g	c #3f4347",
"1h	c #343940",
"1i	c #585655",
"1j	c #d9ba97",
"1k	c #ffd99b",
"1l	c #ffb56d",
"1m	c #ff7d19",
"1n	c #49a8ea",
"1o	c #bceeff",
"1p	c #93d9ff",
"1q	c #6dc3fa",
"1r	c #239ce2",
"1s	c #1156a0",
"1t	c #4b4b52",
"1u	c #44464c",
"1v	c #3e4046",
"1w	c #2e353c",
"1x	c #a99269",
"1y	c #ffee92",
"1z	c #ffdc81",
"20	c #ffc961",
"21	c #ffdc8d",
"22	c #ff9445",
"23	c #b9edff",
"24	c #77ccff",
"25	c #494a53",
"26	c #43454b",
"27	c #3c3e45",
"28	c #262b38",
"29	c #eac784",
"2a	c #ffe892",
"2b	c #ffd068",
"2c	c #ffba42",
"2d	c #ffae33",
"2e	c #ffc86f",
"2f	c #c0794e",
"2g	c #77d2ff",
"2h	c #1266ae",
"2i	c #4d4e56",
"2j	c #474951",
"2k	c #404349",
"2l	c #2f323e",
"2m	c #4d4948",
"2n	c #fffa9e",
"2o	c #ffe593",
"2p	c #ffc653",
"2q	c #ffbc46",
"2r	c #ffb13b",
"2s	c #ffaf3b",
"2t	c #f37620",
"2u	c #1366ae",
"2v	c #4c4e55",
"2w	c #46494e",
"2x	c #353a44",
"2y	c #d2be87",
"2z	c #ffffa7",
"30	c #ffee99",
"31	c #ffdd81",
"32	c #ffc64f",
"33	c #ffa92d",
"34	c #f5863b",
"35	c #1366af",
"36	c #494d55",
"37	c #45474d",
"38	c #303540",
"39	c #fff5a6",
"3a	c #fff7a1",
"3b	c #ffed99",
"3c	c #ffdb76",
"3d	c #ffab30",
"3e	c #e15700",
"3f	c #75d5ff",
"3g	c #1368af",
"3h	c #504a4c",
"3i	c #43464d",
"3j	c #333641",
"3k	c #cebb85",
"3l	c #fffda4",
"3m	c #ffed9a",
"3n	c #ffd86f",
"3o	c #ffb33d",
"3p	c #ffad2b",
"3q	c #aa6b4f",
"3r	c #78d4ff",
"3s	c #229be2",
"3t	c #624f44",
"3u	c #59463c",
"3v	c #52453f",
"3w	c #3c4148",
"3x	c #393c43",
"3y	c #32353e",
"3z	c #ffe094",
"40	c #fff79f",
"41	c #ffdc71",
"42	c #ffca53",
"43	c #ffc249",
"44	c #ffb136",
"45	c #d15c0f",
"46	c #86bee4",
"47	c #7bd0ff",
"48	c #645046",
"49	c #604d43",
"4a	c #58463c",
"4b	c #4d3b33",
"4c	c #453730",
"4d	c #30343c",
"4e	c #292c36",
"4f	c #242a35",
"4g	c #222935",
"4h	c #9a8968",
"4i	c #ddb26d",
"4j	c #f89d3b",
"4k	c #e07329",
"4l	c #d34111",
"4m	c #44a8f2",
"4n	c #7ad4ff",
"4o	c #7eceff",
"4p	c #229de3",
"4q	c #155ba6",
"4r	c #634f45",
"4s	c #544239",
"4t	c #59493f",
"4u	c #efe293",
"4v	c #eee38e",
"4w	c #a98c63",
"4x	c #856e50",
"4y	c #81603e",
"4z	c #a0703d",
"50	c #8f461f",
"51	c #e27e3c",
"52	c #e69758",
"53	c #e56b4e",
"54	c #d4615c",
"55	c #3fafff",
"56	c #77cdff",
"57	c #73c7fc",
"58	c #67bdf6",
"59	c #37a1e4",
"5a	c #228ed5",
"5b	c #165da7",
"5c	c #e7c489",
"5d	c #f1f1a1",
"5e	c #eee18e",
"5f	c #edda88",
"5g	c #e7bd61",
"5h	c #e4a64a",
"5i	c #e39743",
"5j	c #e28b3a",
"5k	c #a6421d",
"5l	c #e4ab4d",
"5m	c #e9ce6b",
"5n	c #ff5027",
"5o	c #be585d",
"5p	c #30a3f4",
"5q	c #63bcf9",
"5r	c #69c1fa",
"5s	c #5bb6f2",
"5t	c #4baced",
"5u	c #38a2e6",
"5v	c #2182c8",
"5w	c #f0d99a",
"5x	c #f2f2aa",
"5y	c #efe295",
"5z	c #eed98e",
"60	c #e6af56",
"61	c #e4a44d",
"62	c #e39744",
"63	c #e28d3c",
"64	c #c35526",
"65	c #e38741",
"66	c #e8cb62",
"67	c #eded88",
"68	c #ff2c14",
"69	c #de4940",
"6a	c #5f7aaf",
"6b	c #2e9ce5",
"6c	c #3ca3e6",
"6d	c #40a1e4",
"6e	c #349bdd",
"6f	c #206cb3",
"6g	c #4f3e35",
"6h	c #d7ad78",
"6i	c #f1eba2",
"6j	c #edd387",
"6k	c #e6b259",
"6l	c #e5a951",
"6m	c #e49e49",
"6n	c #e2943f",
"6o	c #c8622a",
"6p	c #e38b46",
"6q	c #e8cb66",
"6r	c #ece981",
"6s	c #ff2e1a",
"6t	c #ff3319",
"6u	c #ff240d",
"6v	c #fb211e",
"6w	c #b0304d",
"6x	c #4d4a7d",
"6y	c #614e43",
"6z	c #58463d",
"70	c #524037",
"71	c #423129",
"72	c #f0de9d",
"73	c #ecd183",
"74	c #e7b760",
"75	c #e6af58",
"76	c #e4a34d",
"77	c #e39f45",
"78	c #96411e",
"79	c #e6b057",
"7a	c #ebdc76",
"7b	c #e7865b",
"7c	c #ff381f",
"7d	c #ff381e",
"7e	c #ff2b18",
"7f	c #ff1914",
"7g	c #eb0000",
"7h	c #5f4c41",
"7i	c #5b493f",
"7j	c #57463c",
"7k	c #534238",
"7l	c #4a3a31",
"7m	c #b7875c",
"7n	c #efe093",
"7o	c #e9c26a",
"7p	c #e7bb60",
"7q	c #e6b557",
"7r	c #ab5b2a",
"7s	c #d5833a",
"7t	c #e7b361",
"7u	c #e7875e",
"7v	c #ff492d",
"7w	c #ff4126",
"7x	c #ff3b20",
"7y	c #ff2c1a",
"7z	c #db0003",
"80	c #a30000",
"81	c #5a483e",
"82	c #514137",
"83	c #4d3d33",
"84	c #513c2f",
"85	c #d3924a",
"86	c #cb812f",
"87	c #b1631f",
"88	c #3a281d",
"89	c #352219",
"8a	c #ff4332",
"8b	c #ff6848",
"8c	c #ff5f3e",
"8d	c #ff5634",
"8e	c #ff482a",
"8f	c #ff3e22",
"8g	c #ff2d1b",
"8h	c #dc0003",
"8i	c #59473d",
"8j	c #55433a",
"8k	c #514036",
"8l	c #4c3c33",
"8m	c #463124",
"8n	c #422d21",
"8o	c #3f2c21",
"8p	c #322318",
"8q	c #be1909",
"8r	c #ff6d4a",
"8s	c #ff6541",
"8t	c #ff5a36",
"8u	c #ff4a2c",
"8v	c #c30000",
"8w	c #402d21",
"8x	c #3c2a1e",
"8y	c #332418",
"8z	c #b61205",
"90	c #ff0d12",
"91	c #ff6943",
"92	c #ff5d38",
"93	c #ff4c2d",
"94	c #ff1c17",
"95	c #b20000",
"96	c #f60009",
"97	c #fc2c1f",
"98	c #ff492c",
"99	c #ff4525",
"9a	c #ff321d",
"9b	c #fa1511",
"9c	c #af0000",
"9d	c #eb0006",
"9e	c #de0003",
"9f	c #da0006",
"9g	c #da0307",
"9h	c #c60000",
"                        484r0a0a0a6y7h0h        ",
"                      3t490h0i09090i7i818i      ",
"                      094a4s0j0j0k6z7j0k8j      ",
"                      3u4b4t5c5w6g707k828k      ",
"          0c0c2i2v363h3v4c4u5d5x6h717l838l      ",
"        1e1t252j2w373i3w4d4v5e5y6i727m848m      ",
"        1f1u262k2x383j3x4e4w5f5z6j737n858n      ",
"        1g1v272l2y393k3y4f4x5g606k747o868o      ",
"        1h1w282m2z3a3l3z4g4y5h616l757p870l8w    ",
"        1i1x292n303b3m404h4z5i626m767q880l8x    ",
"        1j1y2a2o313c3n414i505j636n777r898p8y    ",
"        1k1z2b2p320g0g424j515k646o787s8a8q8z    ",
"        1l202c2q080808434k525l656p797t8b8r90    ",
"        1m212d2r0f0f3o444l535m666q7a7u8c8s9196  ",
"        1n222e2s333d3p454m545n676r7b7v8d8t92979d",
"      161o232f2t343e3q464n555o686s7c7w8e8u93989e",
"    0y171p242g0e0e3f3r474o565p696t7d7x8f0m0m999f",
"  0s0z181q////////////////575q6a6u7e7y8g0n0n9a9g",
"  0t1019||||||||||||||||||585r6b6v7f0b0b0b949b9h",
"0o0u111a++++++++++++++++++++5s6c6w7g7z8h8v959c  ",
"0p0v121b....................5t6d6x  80          ",
"0q0w13XXXXXXXXXXXXXXXXXXXX595u6e                ",
"0r0x141c1r0d060606063s0d4p5a5v6f                ",
"    151d1s072h2u353g07074q5b                    "};