/* XPM */
static char * xpm_person[] = {
"24 24 255 2",
"  	c None",
"XX	c #1953a1",
"++	c #4caee2",
"..	c #3ea5de",
"||	c #2e9cda",
"//	c #6dc1ea",
"06	c #b2e2f7",
"07	c #53b3e4",
"08	c #4dafe2",
"09	c #b3e3f8",
"0a	c #2697d8",
"0b	c #2098d9",
"0c	c #3da4dd",
"0d	c #35a0db",
"0e	c #2583c7",
"0f	c #36a0db",
"0g	c #2797d8",
"0h	c #afe0f5",
"0i	c #addff5",
"0j	c #72c5ed",
"0k	c #37a1db",
"0l	c #2897d8",
"0m	c #afe1f6",
"0n	c #77c9ee",
"0o	c #46aae0",
"0p	c #2f9dda",
"0q	c #47aae0",
"0r	c #2d9bd9",
"0s	c #45a9e0",
"0t	c #2d9cda",
"0u	c #abdef5",
"0v	c #51b3e4",
"0w	c #46a9e0",
"0x	c #72c5ec",
"0y	c #66bee9",
"0z	c #60bbe7",
"10	c #59b6e6",
"11	c #45aae0",
"12	c #2197d8",
"13	c #b2e2f8",
"14	c #60bbe8",
"15	c #5bb6e6",
"16	c #2198d9",
"17	c #1953a0",
"18	c #aedff5",
"19	c #7acbef",
"1a	c #40a5de",
"1b	c #64bee8",
"1c	c #37a1dc",
"1d	c #3fa6de",
"1e	c #38a1dc",
"1f	c #309dda",
"1g	c #1b5caa",
"1h	c #1759a9",
"1i	c #1555a5",
"1j	c #1d5eaa",
"1k	c #1b59a7",
"1l	c #1b60ac",
"1m	c #226bb4",
"1n	c #6ab1dc",
"1o	c #8fceea",
"1p	c #84d0ed",
"1q	c #6ec8ea",
"1r	c #1856a6",
"1s	c #185ead",
"1t	c #65acda",
"1u	c #aaddf3",
"1v	c #6bbfe7",
"1w	c #38a3dc",
"1x	c #1c6cb9",
"1y	c #1f68b4",
"1z	c #98d0ec",
"20	c #9dd5f0",
"21	c #47abe0",
"22	c #38a2dc",
"23	c #349fdb",
"24	c #2699d8",
"25	c #1f7dc7",
"26	c #1955a3",
"27	c #2278c2",
"28	c #2178c1",
"29	c #2d80c4",
"2a	c #2c7fc2",
"2b	c #2d7fc1",
"2c	c #1b6bb7",
"2d	c #226db8",
"2e	c #1b61b0",
"2f	c #83c1e4",
"2g	c #a0d7f0",
"2h	c #4aace1",
"2i	c #44a8e0",
"2j	c #2698d8",
"2k	c #2086cc",
"2l	c #1954a2",
"2m	c #227dc5",
"2n	c #4a9dd2",
"2o	c #a9d7ed",
"2p	c #c9e7f4",
"2q	c #e5f7fe",
"2r	c #e3f5fd",
"2s	c #dbf0fa",
"2t	c #c8e5f3",
"2u	c #69b1db",
"2v	c #2571b9",
"2w	c #2067b5",
"2x	c #4a99ce",
"2y	c #b0def3",
"2z	c #4fb0e3",
"30	c #4bade2",
"31	c #2098da",
"32	c #86c6e4",
"33	c #e1f4fc",
"34	c #ceedfa",
"35	c #b3e1f7",
"36	c #a7ddf4",
"37	c #a4dbf3",
"38	c #a4d9f3",
"39	c #8fd3f1",
"3a	c #73c8ef",
"3b	c #7dc9ec",
"3c	c #2976bd",
"3d	c #abdaee",
"3e	c #6bc0e8",
"3f	c #50b2e4",
"3g	c #56abd9",
"3h	c #e9f7ff",
"3i	c #bbe6f8",
"3j	c #b0e0f7",
"3k	c #aee0f5",
"3l	c #a8dcf4",
"3m	c #a9dbf4",
"3n	c #78caee",
"3o	c #70c5ec",
"3p	c #6bc2ea",
"3q	c #6bc3ec",
"3r	c #94d2ef",
"3s	c #54b4e5",
"3t	c #ceeaf7",
"3u	c #caebfa",
"3v	c #b1e2f8",
"3w	c #b2e1f7",
"3x	c #a9dcf4",
"3y	c #9dd8f2",
"3z	c #74c8ee",
"40	c #65bee9",
"41	c #5ebae6",
"42	c #58b5e6",
"43	c #52b3e4",
"44	c #2197d9",
"45	c #1952a0",
"46	c #2a8ac9",
"47	c #e6f8ff",
"48	c #b0e2f8",
"49	c #abddf6",
"4a	c #8ad1f1",
"4b	c #76c8ee",
"4c	c #1a63b1",
"4d	c #449cd2",
"4e	c #dcf4fe",
"4f	c #acddf6",
"4g	c #80cdf0",
"4h	c #76c9ee",
"4i	c #195aa7",
"4j	c #2b8ac9",
"4k	c #e0f6ff",
"4l	c #adddf6",
"4m	c #78cbee",
"4n	c #67bee9",
"4o	c #4daee2",
"4p	c #b4def1",
"4q	c #b6e4f9",
"4r	c #a0dbf3",
"4s	c #68bfe9",
"4t	c #2f9cda",
"4u	c #4ba2d4",
"4v	c #c4eafa",
"4w	c #b4e4f9",
"4x	c #a1dbf3",
"4y	c #72c7ed",
"4z	c #6fc4eb",
"50	c #61bde9",
"51	c #5cb6e6",
"52	c #2898d8",
"53	c #2199da",
"54	c #2581c7",
"55	c #58aad7",
"56	c #b6e6f8",
"57	c #b9e6f9",
"58	c #b3e3f7",
"59	c #b0e1f6",
"5a	c #a2dcf4",
"5b	c #7ccdf0",
"5c	c #7bcdf0",
"5d	c #78cdf1",
"5e	c #5cb5e4",
"5f	c #1f66b2",
"5g	c #5cb8e6",
"5h	c #5cb9e7",
"5i	c #54b4e4",
"5j	c #3fa5de",
"5k	c #2899d9",
"5l	c #2190d4",
"5m	c #2680c5",
"5n	c #2c83c6",
"5o	c #6cb7df",
"5p	c #88cae8",
"5q	c #a4daf2",
"5r	c #9fd7f0",
"5s	c #4aa2d8",
"5t	c #3285c6",
"5u	c #2168b5",
"5v	c #236ab4",
"5w	c #3180c6",
"5x	c #60beea",
"5y	c #54b5e4",
"5z	c #2999d9",
"60	c #2188cd",
"61	c #2376bf",
"62	c #2173bd",
"63	c #2171ba",
"64	c #2370b9",
"65	c #2470b9",
"66	c #2166b1",
"67	c #459ed7",
"68	c #57b8e6",
"69	c #299ad9",
"6a	c #207fc8",
"6b	c #1954a1",
"6c	c #2268b4",
"6d	c #4aa6de",
"6e	c #48ace2",
"6f	c #40a6de",
"6g	c #39a1dc",
"6h	c #2a9bda",
"6i	c #1d72bd",
"6j	c #1e5fad",
"6k	c #348bcc",
"6l	c #4bb2e6",
"6m	c #41a8e0",
"6n	c #3aa2dd",
"6o	c #319dda",
"6p	c #2b9cdc",
"6q	c #1c5fae",
"6r	c #1f61ac",
"6s	c #2168b1",
"6t	c #3189cd",
"6u	c #379fdb",
"6v	c #33a4df",
"6w	c #2997d9",
"6x	c #1a54a2",
"6y	c #1e5eab",
"6z	c #1c59a6",
"70	c #1b58a5",
"71	c #1c5ba9",
"72	c #1a58a5",
"                  0e464d4j0e                    ",
"              0e3g3t474e4k4p4u54                ",
"            2m323h3u4813134q4v555m              ",
"            2n333i3v090909094w565n              ",
"          272o343j3w0606060606575o              ",
"          282p353k0h0h0h0m0m0m585p61            ",
"          292q360u0u0i0i0i1818595q62            ",
"          2a2r373l3x494f4l4r4x5a5r63            ",
"          2b2s383m3y4a4g4m19195b1b64            ",
"          2c2t393n3z4b4h0n0n0n5c5s65            ",
"          2d2u3a3o0x0x0j0j0j4y5d5t              ",
"            2v3b3p//////////4z5e5u              ",
"            2w3c3q400y0y4n4s1b5f5v              ",
"          2e2x3d3r410z0z1414505g5w66            ",
"        1y2f2y3e3s4210101515515h5x676c          ",
"      1s1z2g2z3f0v4307070707075i5y686d6j        ",
"    1l1t202h30++++++++++4o08080808080v6k6r      ",
"    1m1u212i0s0s0w0w11110o0o0o0q0q0q6e6l6s      ",
"  1g1n1v220c0c0c..........1a1a5j1d1d6f6m6t6y    ",
"  1h1o1w230d0d0d0f0f0f0k0k0k1c1c1e1e6g6n6u6z    ",
"  1i1p0a0r0r0t0t||||||||||4t0p0p0p1f1f6o6v70    ",
"  1j1q0b242j0a0a0g0g0g0l0l0l525k5z696h6p6w71    ",
"  1k1r1x252k310b0b4412121616535l606a6i6q6x72    ",
"        262lXXXXXX454c4i17XXXX17XX6b            "};