/* XPM */
static char * xpm_picture[] = {
"24 24 272 2",
"XX	c #ffffff",
"  	c None",
"++	c #53b1e4",
"..	c #2057a0",
"||	c #d9f1fc",
"//	c #2297d9",
"06	c #1269b6",
"07	c #cde6f5",
"08	c #a4c8e0",
"09	c #a0daf3",
"0a	c #a0d9f3",
"0b	c #186cb7",
"0c	c #99bcd8",
"0d	c #d8f0fb",
"0e	c #77a7d0",
"0f	c #4fafe5",
"0g	c #51b0e3",
"0h	c #54b2e5",
"0i	c #acdff5",
"0j	c #4caee3",
"0k	c #97d4f0",
"0l	c #429bd5",
"0m	c #3e95d3",
"0n	c #3b91cf",
"0o	c #368ccc",
"0p	c #3287c9",
"0q	c #2f83c6",
"0r	c #2a7ec4",
"0s	c #2579c1",
"0t	c #2175bc",
"0u	c #1f70b9",
"0v	c #2295d8",
"0w	c #a1d9f4",
"0x	c #cde3f3",
"0y	c #a6cae3",
"0z	c #a4c7e1",
"10	c #a3c6e0",
"11	c #a1c4de",
"12	c #9fc2dc",
"13	c #9ebfdb",
"14	c #9cbdd8",
"15	c #9abcd9",
"16	c #2296d9",
"17	c #cde5f5",
"18	c #136ab6",
"19	c #5d9bcc",
"1a	c #60a0d0",
"1b	c #63a5d4",
"1c	c #68aad8",
"1d	c #cce5f4",
"1e	c #2270ba",
"1f	c #2c81c7",
"1g	c #6fa2cc",
"1h	c #e2ecf3",
"1i	c #70a3cd",
"1j	c #95bad8",
"1k	c #71a3cd",
"1l	c #96bbd8",
"1m	c #2e83c8",
"1n	c #cee4f3",
"1o	c #98d4f0",
"1p	c #4dabe0",
"1q	c #4ba6dd",
"1r	c #48a1da",
"1s	c #469ed8",
"1t	c #449bd6",
"1u	c #4297d2",
"1v	c #4092d0",
"1w	c #3f90cd",
"1x	c #3687c8",
"1y	c #2e7ec4",
"1z	c #2d7ac1",
"20	c #2b76bd",
"21	c #2a73b9",
"22	c #286fb6",
"23	c #276cb3",
"24	c #2667b0",
"25	c #2464ad",
"26	c #2260ab",
"27	c #225ea7",
"28	c #205aa5",
"29	c #1e59a2",
"2a	c #1f5aa3",
"2b	c #e5f4fd",
"2c	c #d7f0fc",
"2d	c #d6effb",
"2e	c #d5eefb",
"2f	c #d4edfa",
"2g	c #d2edf9",
"2h	c #d0ebf9",
"2i	c #cfeaf8",
"2j	c #cce9f8",
"2k	c #b3dff4",
"2l	c #a8dbf3",
"2m	c #a5d9f2",
"2n	c #a1d7f0",
"2o	c #9cd6f0",
"2p	c #98d3ef",
"2q	c #92d1ee",
"2r	c #8ccfec",
"2s	c #86cceb",
"2t	c #7fcaea",
"2u	c #78c8ea",
"2v	c #72c5e8",
"2w	c #6ec8ea",
"2x	c #1c55a0",
"2y	c #d7f0fb",
"2z	c #ace1f7",
"30	c #aee1f6",
"31	c #a9ddf5",
"32	c #a5dbf3",
"33	c #a3daf3",
"34	c #9fd8f2",
"35	c #9ed6f1",
"36	c #6abfea",
"37	c #65bde8",
"38	c #5fbae7",
"39	c #58b6e7",
"3a	c #52b3e5",
"3b	c #47aae1",
"3c	c #41a6df",
"3d	c #38a1dd",
"3e	c #319edb",
"3f	c #2a9ad9",
"3g	c #2193d5",
"3h	c #1e92d6",
"3i	c #1f57a0",
"3j	c #91ceed",
"3k	c #8dcbec",
"3l	c #89caea",
"3m	c #88c7e8",
"3n	c #86c3e5",
"3o	c #7bbde3",
"3p	c #459dd7",
"3q	c #cae2f1",
"3r	c #c9e1f1",
"3s	c #c8dff0",
"3t	c #c6deee",
"3u	c #bedaeb",
"3v	c #a6cbe4",
"3w	c #9fd9f3",
"3x	c #cbe5f4",
"3y	c #adc8de",
"3z	c #8db6d6",
"40	c #93b9d8",
"41	c #93b9d9",
"42	c #72a5cf",
"43	c #5997c8",
"44	c #67aeda",
"45	c #81bfe2",
"46	c #eff6fa",
"47	c #8eb4d5",
"48	c #679dc9",
"49	c #6da0cb",
"4a	c #6da0cd",
"4b	c #3677b8",
"4c	c #2167b1",
"4d	c #1f6ab5",
"4e	c #2678c0",
"4f	c #57a2d7",
"4g	c #93b9d7",
"4h	c #75a6cf",
"4i	c #73a5cf",
"4j	c #abcde3",
"4k	c #e5eef3",
"4l	c #e4edf3",
"4m	c #94bad8",
"4n	c #76a7d0",
"4o	c #90bada",
"4p	c #e6ecf4",
"4q	c #71a4cd",
"4r	c #e7edf4",
"4s	c #7cacd3",
"4t	c #76a7cf",
"4u	c #74a5cf",
"4v	c #74aad2",
"4w	c #e7eef4",
"4x	c #e6eef4",
"4y	c #91b6d6",
"4z	c #6a9fca",
"50	c #6fa1cd",
"51	c #2a69b0",
"52	c #256ab2",
"53	c #1f69b5",
"54	c #2779c1",
"55	c #469ad3",
"56	c #b1cbdf",
"57	c #93bad8",
"58	c #96bbd9",
"59	c #96bcda",
"5a	c #6098c9",
"5b	c #5a98c9",
"5c	c #69afda",
"5d	c #71b5de",
"5e	c #f0f7fa",
"5f	c #cce3f2",
"5g	c #cce3f1",
"5h	c #cbe1f0",
"5i	c #c9e0f0",
"5j	c #b0d1e9",
"5k	c #a7cce5",
"5l	c #93cfed",
"5m	c #8fcded",
"5n	c #8ccbeb",
"5o	c #8bc8e9",
"5p	c #88c5e7",
"5q	c #67b3e0",
"5r	c #469ed7",
"5s	c #aee1f7",
"5t	c #b0e2f6",
"5u	c #aee0f5",
"5v	c #acdef5",
"5w	c #a8dcf3",
"5x	c #a6dbf3",
"5y	c #a4daf3",
"5z	c #8bd0f0",
"60	c #6cc0eb",
"61	c #69bfe9",
"62	c #63bce8",
"63	c #5cb8e7",
"64	c #56b5e5",
"65	c #50b0e3",
"66	c #4bace1",
"67	c #45a8df",
"68	c #3da3dd",
"69	c #36a0dc",
"6a	c #2e9cda",
"6b	c #2695d6",
"6c	c #2294d7",
"6d	c #dff4fd",
"6e	c #b4e5f8",
"6f	c #b5e5f7",
"6g	c #b3e3f7",
"6h	c #b0e1f7",
"6i	c #aadef5",
"6j	c #a7ddf4",
"6k	c #99d6f2",
"6l	c #6dc2ec",
"6m	c #6ac1ea",
"6n	c #64bee9",
"6o	c #5ebae8",
"6p	c #57b7e6",
"6q	c #51b2e5",
"6r	c #45aae1",
"6s	c #3da5df",
"6t	c #36a2dd",
"6u	c #2e9ddb",
"6v	c #2698d9",
"6w	c #2297da",
"6x	c #2057a1",
"6y	c #4fabe0",
"6z	c #4da7dd",
"70	c #4aa2da",
"71	c #489fd8",
"72	c #469cd6",
"73	c #4497d3",
"74	c #4393d1",
"75	c #3f8fcc",
"76	c #3383c6",
"77	c #3280c4",
"78	c #317cc1",
"79	c #2f78bd",
"7a	c #2e75ba",
"7b	c #2c71b7",
"7c	c #2c6eb4",
"7d	c #2a6ab1",
"7e	c #2867ae",
"7f	c #2763ac",
"7g	c #2661a8",
"7h	c #255da6",
"7i	c #225ca3",
"7j	c #205aa3",
"  0f0h++++++++++++++++++++++++++++++++++++0h0f  ",
"  0g2b2y0d||||||||||||||||||||||||||||0d0d6d0g  ",
"  1p2c2z0k0w0a3w0a09090a090909090a0a0w1o5s6e6y  ",
"  1q2d300k0x173x1d170707070707071d071n1o5t6f6z  ",
"  1r2e0i3j0xXXXXXXXXXXXXXXXXXXXXXXXX1n5l5u6g70  ",
"  1s2f313k3qXX3y474g4m1j1l1l1j4y56XX5f5m5v6h71  ",
"  1t2g323l3rXX3z481g1i1k4q1k1i4z57XX5g5n5w0i72  ",
"  1u2h333m3sXX40494h4n0e0e0e4t1g58XX5h5o5x6i73  ",
"  1v2i343n3tXX414a4i4o4p4r4s4u5059XX5i5p5y6j74  ",
"  1w2j353o3uXX424b4jXXXXXXXX4v515aXX5j5q5z6k75  ",
"  1x2k363p3vXX434c4kXXXXXXXX4w525bXX5k5r606l76  ",
"  1y2l370l0yXX194d4lXXXXXXXX4x5319XX0y0l616m77  ",
"  1z2m380m0zXX1a1e1hXXXXXXXX1h1e1aXX0z0m626n78  ",
"  202n390n10XX1b4e08XXXXXXXX08541bXX100n636o79  ",
"  212o3a0o11XX1c1f1fXXXXXXXX1m1m1cXX110o646p7a  ",
"  222p0j0p12XX444f08XXXXXXXX08555cXX120p656q7b  ",
"  232q3b0q13XX4508XXXXXXXXXXXX085dXX130q660j7c  ",
"  242r3c0r14XX46XXXXXXXXXXXXXXXX5eXX140r676r7d  ",
"  252s3d0s15XXXXXXXXXXXXXXXXXXXXXXXX150s686s7e  ",
"  262t3e0t0cXXXXXXXXXXXXXXXXXXXXXXXX0c0t696t7f  ",
"  272u3f0u0cXXXXXXXXXXXXXXXXXXXXXXXX0c0u6a6u7g  ",
"  282v3g0b0b1806060606060606060606180b0b6b6v7h  ",
"  292w3h0v16////////////////////////160v6c6w7i  ",
"  2a2x3i..................................6x7j  "};