/* XPM */
static char * xpm_pie_chart[] = {
"24 24 318 2",
"  	c None",
"XX	c #f63d24",
"++	c #56b632",
"..	c #5ab931",
"||	c #5fbb31",
"//	c #65bf31",
"06	c #f7482a",
"07	c #ddf1fb",
"08	c #52b432",
"09	c #f6341e",
"0a	c #6bc12f",
"0b	c #61b9ea",
"0c	c #72c52e",
"0d	c #bb070a",
"0e	c #f62818",
"0f	c #75caf2",
"0g	c #fa5833",
"0h	c #7dcef2",
"0i	c #79cbf2",
"0j	c #74c9f1",
"0k	c #68c0ed",
"0l	c #73c8f1",
"0m	c #6dc3ef",
"0n	c #78caf2",
"0o	c #71c7f0",
"0p	c #5fb8e9",
"0q	c #50aee4",
"0r	c #42a4e0",
"0s	c #70c5f0",
"0t	c #64beec",
"0u	c #5eb8e9",
"0v	c #6bc4ee",
"0w	c #53b1e6",
"0x	c #cce6b7",
"0y	c #cee7bd",
"0z	c #d1e9c0",
"10	c #d0e9c4",
"11	c #d3e9c6",
"12	c #add3a6",
"13	c #4e9050",
"14	c #125317",
"15	c #d0e9b9",
"16	c #cfe7b9",
"17	c #94d170",
"18	c #5ebb32",
"19	c #49b025",
"1a	c #46af25",
"1b	c #57b837",
"1c	c #82ce63",
"1d	c #b0dea0",
"1e	c #176825",
"1f	c #166725",
"1g	c #d2eab9",
"1h	c #cce7b3",
"1i	c #70c439",
"1j	c #58b829",
"1k	c #58b82f",
"1l	c #4eb231",
"1m	c #4ab22c",
"1n	c #1da547",
"1o	c #b62927",
"1p	c #7d0a09",
"1q	c #970407",
"1r	c #d2ebb7",
"1s	c #d5ebbc",
"1t	c #6ec32d",
"1u	c #62be2c",
"1v	c #5ebb31",
"1w	c #4fb432",
"1x	c #4db92e",
"1y	c #405c5f",
"1z	c #ff4228",
"20	c #b50509",
"21	c #a60206",
"22	c #a60407",
"23	c #daedc2",
"24	c #86cc41",
"25	c #67bf2a",
"26	c #50b630",
"27	c #24a34a",
"28	c #c33135",
"29	c #ff3e23",
"2a	c #ec3521",
"2b	c #a40005",
"2c	c #ab0407",
"2d	c #d7ecba",
"2e	c #bfe48f",
"2f	c #6ac224",
"2g	c #6ac12e",
"2h	c #50bd2f",
"2i	c #2e5860",
"2j	c #ff321d",
"2k	c #f73d24",
"2l	c #fd512e",
"2m	c #c10d0e",
"2n	c #af0407",
"2o	c #b10508",
"2p	c #dceec2",
"2q	c #7eca2c",
"2r	c #70c42c",
"2s	c #55b731",
"2t	c #26a248",
"2u	c #c5252c",
"2v	c #fc331c",
"2w	c #f94b2b",
"2x	c #e42e20",
"2y	c #b20107",
"2z	c #b60509",
"30	c #d5ecb8",
"31	c #cde8a3",
"32	c #72c622",
"33	c #53be2f",
"34	c #325056",
"35	c #ff2718",
"36	c #f7341d",
"37	c #f8492b",
"38	c #fa5433",
"39	c #b40007",
"3a	c #daeebb",
"3b	c #a8dd5d",
"3c	c #77c827",
"3d	c #57b931",
"3e	c #2ba145",
"3f	c #c71826",
"3g	c #fb2817",
"3h	c #fd5b34",
"3i	c #cd1011",
"3j	c #bf060a",
"3k	c #c0070b",
"3l	c #cadcce",
"3m	c #6cab3f",
"3n	c #80d01d",
"3o	c #77cb28",
"3p	c #6ec62d",
"3q	c #65c12f",
"3r	c #5aba31",
"3s	c #56c12f",
"3t	c #38474f",
"3u	c #ff1b16",
"3v	c #fb5934",
"3w	c #dc211b",
"3x	c #c2050a",
"3y	c #c4080b",
"3z	c #e0f4ff",
"40	c #75c4f4",
"41	c #3c87bf",
"42	c #32766f",
"43	c #357d2c",
"44	c #58b128",
"45	c #64c228",
"46	c #5fc32c",
"47	c #32a240",
"48	c #b31128",
"49	c #fc1a14",
"4a	c #f52819",
"4b	c #fa5a34",
"4c	c #e3261d",
"4d	c #c50409",
"4e	c #c8070c",
"4f	c #7bd0f5",
"4g	c #83d5f9",
"4h	c #82d5ff",
"4i	c #73c7fb",
"4j	c #3982cb",
"4k	c #276985",
"4l	c #1e5f3a",
"4m	c #114a50",
"4n	c #ff0b08",
"4o	c #fd1b14",
"4p	c #fa5834",
"4q	c #e3261e",
"4r	c #ca0409",
"4s	c #cc070b",
"4t	c #79cef3",
"4u	c #7dcef3",
"4v	c #7bcbf2",
"4w	c #73c9f3",
"4x	c #6ec7f7",
"4y	c #69c5fc",
"4z	c #2e86c7",
"50	c #18345e",
"51	c #cb1916",
"52	c #ff2a16",
"53	c #f9341d",
"54	c #e82c22",
"55	c #ce050a",
"56	c #d0080c",
"57	c #79cdf3",
"58	c #6fc4ef",
"59	c #63bceb",
"5a	c #5fbced",
"5b	c #56bff5",
"5c	c #1b86c9",
"5d	c #3b3652",
"5e	c #f32d16",
"5f	c #ff4023",
"5g	c #fa4829",
"5h	c #e7281f",
"5i	c #d2050b",
"5j	c #d4080e",
"5k	c #78cef4",
"5l	c #67c0ec",
"5m	c #5ab4e8",
"5n	c #53b2e6",
"5o	c #4db0e8",
"5p	c #43b2f1",
"5q	c #0f7bc5",
"5r	c #693f4d",
"5s	c #ff4725",
"5t	c #ff5c34",
"5u	c #eb291f",
"5v	c #d8050c",
"5w	c #d9080d",
"5x	c #7dcff3",
"5y	c #7ccdf2",
"5z	c #67bfec",
"60	c #5ab4e7",
"61	c #52b0e5",
"62	c #4babe2",
"63	c #43a7e2",
"64	c #3ca5e3",
"65	c #2ea5eb",
"66	c #0965aa",
"67	c #955350",
"68	c #fc0d05",
"69	c #ee0203",
"6a	c #ee0606",
"6b	c #dbf0fb",
"6c	c #99daf6",
"6d	c #79ccf1",
"6e	c #6cc3ee",
"6f	c #66beec",
"6g	c #59b5e7",
"6h	c #51b0e5",
"6i	c #4aabe2",
"6j	c #42a6e0",
"6k	c #3b9fdd",
"6l	c #339bdd",
"6m	c #2999df",
"6n	c #149be6",
"6o	c #23498e",
"6p	c #2b3874",
"6q	c #423163",
"6r	c #b9e3f9",
"6s	c #77cbf1",
"6t	c #78caf1",
"6u	c #6cc2ee",
"6v	c #66bdec",
"6w	c #59b3e7",
"6x	c #48a9e2",
"6y	c #3a9fdd",
"6z	c #329adb",
"70	c #2996d9",
"71	c #208fd8",
"72	c #0d4598",
"73	c #0e4c9e",
"74	c #d6eefb",
"75	c #72caf2",
"76	c #6bc1ee",
"77	c #58b4e7",
"78	c #47a9e2",
"79	c #41a4e0",
"7a	c #399edd",
"7b	c #3199db",
"7c	c #2898da",
"7d	c #1b78c5",
"7e	c #154c9a",
"7f	c #154d9c",
"7g	c #9ed9f5",
"7h	c #71c9f2",
"7i	c #69c1ee",
"7j	c #57b3e6",
"7k	c #4eaee4",
"7l	c #47a8e2",
"7m	c #3fa3e0",
"7n	c #389edc",
"7o	c #3099dc",
"7p	c #2692d8",
"7q	c #1a59a8",
"7r	c #1a55a4",
"7s	c #cde9f9",
"7t	c #6fc6f0",
"7u	c #69c1ed",
"7v	c #63bdeb",
"7w	c #5db8e9",
"7x	c #54b2e6",
"7y	c #4dade4",
"7z	c #46a8e2",
"80	c #3ea3df",
"81	c #399ddc",
"82	c #2e9bdc",
"83	c #2379c3",
"84	c #215dab",
"85	c #1f5eac",
"86	c #abddf4",
"87	c #68c1ed",
"88	c #63bbeb",
"89	c #5db7e8",
"8a	c #4dade3",
"8b	c #45a8e2",
"8c	c #3ea2df",
"8d	c #369cdd",
"8e	c #2b8dd1",
"8f	c #2468b7",
"8g	c #246bb6",
"8h	c #62bbea",
"8i	c #5cb7e8",
"8j	c #4cace3",
"8k	c #45a7e1",
"8l	c #3da3e0",
"8m	c #3396d8",
"8n	c #2c7dc6",
"8o	c #2c7bc5",
"8p	c #5ab7e8",
"8q	c #52b1e6",
"8r	c #4bace3",
"8s	c #3999d9",
"8t	c #368ed2",
"                                                ",
"                                                ",
"              303a3l3z07070707076b              ",
"          2d2p313b3m404f4t575k5x6c6r74          ",
"      1r232e2q323c3n414g4u0h0h5y6d6s757g7s      ",
"    1g1s242f2r0c0c3o424h4v0i0i0n0n6t0f7h0j86    ",
"  151h1t252g0a0a0a3p434i0f0j0l0l0o0o0s0s7t0v0v  ",
"0x161i1u//////////3q444j4w580m0m6e6u767i7u870k  ",
"0y171j1v||||||||||||454k4x0k5l5z6f6v0t0t7v888h0b",
"0z181k............3r464l4y590b0b0p0p0u0u7w898i8p",
"1019++++++++++++3d3s474m4z5a5m606g6w777j7x0w0w8q",
"111a080808082s333e3t484n505b5n616h0q0q7k7y8a8j8r",
"121b1l1w262h2t343f3u494o515c5o626i6x787l7z8b8k0r",
"131c1m1x272i2u353g0e4a0e525d5p636j0r797m808c8l8s",
"141d1n1y282j2v3609090909535e5q646k6y7a7n818d8m8t",
"  1e1o1z292kXXXXXXXXXXXXXX5f5r656l6z7b7o828e8n  ",
"  1f1p202a2l2w3706060606065g5s666m707c7p838f8o  ",
"    1q212b2m2x383h3v4b4p0g0g5t676n717d7q848g    ",
"      222c2n2y393i3w4c4q545h5u686o727e7r85      ",
"          2o2z0d3j3x4d4r555i5v696p737f          ",
"              0d3k3y4e4s565j5w6a6q              ",
"                                                ",
"                                                ",
"                                                "};