/* XPM */
static char * xpm_pinion[] = {
"24 24 298 2",
"  	c None",
"XX	c #c2eaf9",
"++	c #c2eaf8",
"..	c #35ace6",
"||	c #4dbaea",
"//	c #b6e5f7",
"06	c #c2e9f9",
"07	c #bfe9f8",
"08	c #3cafe8",
"09	c #abe0f4",
"0a	c #a9e0f4",
"0b	c #ace1f5",
"0c	c #3eb0e8",
"0d	c #bde7f8",
"0e	c #bae6f7",
"0f	c #c1e9f9",
"0g	c #5fc4ee",
"0h	c #60c3ee",
"0i	c #5bc2ee",
"0j	c #4bb9e9",
"0k	c #c4ebfa",
"0l	c #bae5f7",
"0m	c #229ade",
"0n	c #36ade7",
"0o	c #39b1e9",
"0p	c #b0e0f6",
"0q	c #45b6ea",
"0r	c #2c87d2",
"0s	c #bce8f8",
"0t	c #bee8f8",
"0u	c #b8e4f7",
"0v	c #88d5f2",
"0w	c #55beec",
"0x	c #c3ebf9",
"0y	c #bfe7f9",
"0z	c #ade1f6",
"10	c #b4e3f6",
"11	c #3eb1e9",
"12	c #a2ddf3",
"13	c #c6ebfa",
"14	c #43b6eb",
"15	c #b4e4f6",
"16	c #40b0e8",
"17	c #b1e1f5",
"18	c #5fc7ef",
"19	c #48baeb",
"1a	c #8fceed",
"1b	c #97d2ed",
"1c	c #94cfec",
"1d	c #95cfec",
"1e	c #6abce6",
"1f	c #98d3ed",
"1g	c #c3e9fa",
"1h	c #c0e7f7",
"1i	c #87d8f5",
"1j	c #3696da",
"1k	c #93d3ef",
"1l	c #acdff5",
"1m	c #92d3ee",
"1n	c #96d0ed",
"1o	c #b9e5f7",
"1p	c #68cdf1",
"1q	c #3391d8",
"1r	c #2879ca",
"1s	c #3998db",
"1t	c #2269be",
"1u	c #92d4f0",
"1v	c #b6e5f6",
"1w	c #c8eefa",
"1x	c #bee9f8",
"1y	c #8bcded",
"1z	c #9fd7ef",
"20	c #b1e1f6",
"21	c #bae7f8",
"22	c #bae5f6",
"23	c #9bdcf4",
"24	c #67c9f1",
"25	c #57bbe9",
"26	c #3a98da",
"27	c #2477c7",
"28	c #4fb7e9",
"29	c #55c3ed",
"2a	c #3aa0e0",
"2b	c #2063b8",
"2c	c #95d5f1",
"2d	c #b7e6f7",
"2e	c #c8ecf9",
"2f	c #c4ebf9",
"2g	c #bfe8f9",
"2h	c #bbe5f6",
"2i	c #67c7ef",
"2j	c #65c9ef",
"2k	c #60c6ef",
"2l	c #5ac6ee",
"2m	c #4eb9e9",
"2n	c #49b8eb",
"2o	c #369add",
"2p	c #1e60b7",
"2q	c #b0e2f7",
"2r	c #caeffb",
"2s	c #57bdec",
"2t	c #50bbea",
"2u	c #4bb7e9",
"2v	c #47b4e9",
"2w	c #42b5ea",
"2x	c #99d6f1",
"2y	c #c0e9f9",
"2z	c #a3dcf3",
"30	c #58c1ec",
"31	c #4db9e9",
"32	c #48b5e8",
"33	c #43b3e8",
"34	c #39a6e3",
"35	c #1f62b9",
"36	c #91d1ee",
"37	c #c5eafa",
"38	c #c3eafa",
"39	c #bbe6f7",
"3a	c #94d9f3",
"3b	c #51bcec",
"3c	c #46b3e8",
"3d	c #43b6e9",
"3e	c #1d5eb6",
"3f	c #a6ddf3",
"3g	c #c4eafa",
"3h	c #b9e5f6",
"3i	c #b0e2f6",
"3j	c #8fd1ef",
"3k	c #92d2ef",
"3l	c #73c6ec",
"3m	c #39a8e5",
"3n	c #3eabe6",
"3o	c #48b4e7",
"3p	c #58c2ed",
"3q	c #44b2e8",
"3r	c #277dcb",
"3s	c #9fdbf3",
"3t	c #9edaf1",
"3u	c #b9e6f6",
"3v	c #bce7f8",
"3w	c #88cbeb",
"3x	c #a4d7ee",
"3y	c #379dde",
"3z	c #42abe5",
"40	c #3caee6",
"41	c #3099dc",
"42	c #206abe",
"43	c #1d6bbf",
"44	c #195ab2",
"45	c #cbeefa",
"46	c #c3eaf9",
"47	c #c4ecf9",
"48	c #99d3ed",
"49	c #8cc8e9",
"4a	c #3290d8",
"4b	c #4bb9ea",
"4c	c #39abe5",
"4d	c #33a7e4",
"4e	c #2da6e4",
"4f	c #26a6e6",
"4g	c #1a64b9",
"4h	c #a1dcf2",
"4i	c #c8ecfa",
"4j	c #8ac9e9",
"4k	c #aed5eb",
"4l	c #2c82cf",
"4m	c #41aee6",
"4n	c #36a8e4",
"4o	c #2fa4e3",
"4p	c #29a0e0",
"4q	c #23a1e2",
"4r	c #195fb8",
"4s	c #a0dbf2",
"4t	c #c0e9f8",
"4u	c #c3ebfa",
"4v	c #86c3e5",
"4w	c #aad2e9",
"4x	c #2676c6",
"4y	c #3ea9e4",
"4z	c #33a8e4",
"50	c #2ca2e1",
"51	c #259de0",
"52	c #229fe1",
"53	c #175eb6",
"54	c #a1dbf2",
"55	c #c8edfa",
"56	c #c1eafa",
"57	c #8dc6e7",
"58	c #73b0db",
"59	c #2166bc",
"5a	c #31a5e4",
"5b	c #29a1e1",
"5c	c #25a0e2",
"5d	c #20a2e5",
"5e	c #1660b7",
"5f	c #98d5f1",
"5g	c #9fd9f0",
"5h	c #99d5ef",
"5i	c #b4e3f5",
"5j	c #bfe9f9",
"5k	c #b5e6f7",
"5l	c #6ba8d8",
"5m	c #8cbbdf",
"5n	c #1d5db4",
"5o	c #2ea5e3",
"5p	c #248fd8",
"5q	c #1a62b9",
"5r	c #1763ba",
"5s	c #1653aa",
"5t	c #9fd7f1",
"5u	c #bae8f7",
"5v	c #afe1f4",
"5w	c #a1d7f0",
"5x	c #63a2d3",
"5y	c #68a7d4",
"5z	c #003fa1",
"60	c #1350a8",
"61	c #1450aa",
"62	c #31a7e5",
"63	c #2aa4e4",
"64	c #1d70c5",
"65	c #8acbea",
"66	c #2a87d0",
"67	c #2c87d0",
"68	c #43b0e8",
"69	c #2da4e3",
"6a	c #27a4e3",
"6b	c #1954ac",
"6c	c #90ceec",
"6d	c #b7e4f6",
"6e	c #b9e6f8",
"6f	c #b5e3f6",
"6g	c #54b6e7",
"6h	c #3ea8e3",
"6i	c #32a5e4",
"6j	c #2aa3e1",
"6k	c #249de0",
"6l	c #1f93dc",
"6m	c #1855ac",
"6n	c #a6dbf2",
"6o	c #bde9f8",
"6p	c #b8e4f6",
"6q	c #33a7e3",
"6r	c #2ea3e2",
"6s	c #279fe0",
"6t	c #1d9ee3",
"6u	c #1871c5",
"6v	c #8acbeb",
"6w	c #a8ddf3",
"6x	c #b0e1f6",
"6y	c #38ade6",
"6z	c #32a8e6",
"70	c #2aa4e2",
"71	c #259edf",
"72	c #209de1",
"73	c #1a81d0",
"74	c #154da4",
"75	c #87c6e8",
"76	c #a6dcf2",
"77	c #b5e4f6",
"78	c #aadef3",
"79	c #81bee3",
"7a	c #8fccea",
"7b	c #9dd6f0",
"7c	c #a6def3",
"7d	c #72caed",
"7e	c #43b2e8",
"7f	c #40afe7",
"7g	c #359bde",
"7h	c #267dcb",
"7i	c #1e5db4",
"7j	c #2699de",
"7k	c #22a0e2",
"7l	c #1c81d2",
"7m	c #164fa6",
"7n	c #84c4e7",
"7o	c #9cd4ef",
"7p	c #85c3e6",
"7q	c #85c2e5",
"7r	c #a5ddf2",
"7s	c #73c9ef",
"7t	c #3fafe6",
"7u	c #2473c5",
"7v	c #1c5eb5",
"7w	c #1d79ca",
"7x	c #1751a9",
"7y	c #86c2e6",
"7z	c #a2def4",
"80	c #88d4f1",
"81	c #3bb2e8",
"82	c #3eb5eb",
"83	c #2374c5",
"84	c #7ebbe1",
"85	c #83bfe3",
"86	c #82bfe4",
"87	c #1f74c6",
"88	c #2676c7",
"89	c #2167bb",
"                  3s124h4s545f                  ",
"                  12454i13555g                  ",
"        2c2q2x    3t1306060k5h    6c6n6v        ",
"      1u2d2r2y363f3u460f4t075i5t656d6o6w75      ",
"    1k1v2e0x0x373g0k470k4u565j0t0s6e6p0u767n    ",
"    1l1wXX060f38XXXXXXXXXX0l0l5u0l6f1015777o    ",
"    1m1x060f++++++++++++//15////////1717787p    ",
"      1y2f0707073h3v484j4v575k5v0p0p0p6x79      ",
"      1z2g0y0y103i3w494k4w585l5w090909097a      ",
"1a1f1n200d0d0d393j3x        5m5x0a0a0a0a7b7q7y84",
"1b1g0t210e0e0e0z3k            5y0b0b0b0b7c7r7z85",
"1c0s1o222h0z2z3a3l            5z666g18187d7s8086",
"1d1h0u230v0v303b3m            60676h19197e7t8187",
"1e1i1p242i0g0g0g3n            61680q0q0q7f118288",
"0r1j1q252j0h0h0h3o3y        5n0m0c0c0c0c7g7u8389",
"      262k0i0i0i3p3z4a4l4x590m080808086y7h      ",
"      272l2s0w0j0j0j4b4m4y14160o0o0o6q6z7i      ",
"    1r280w2t31||||||||||14160n0n0n6i6r707j7v    ",
"    1s292m2u323c3q............62696j6s717k7w    ",
"    1t2a2n2v333d11404c4n4z5a5o636a6k0m727l7x    ",
"      2b2o2w343e3r414d4o505b5p646b6l6t737m      ",
"        2p0r35    424e4p515c5q    6m6u74        ",
"                  434f4q525d5r                  ",
"                  444g4r535e5s                  "};