/* XPM */
static char * xpm_playback[] = {
"24 24 249 2",
"  	c None",
"XX	c #ffffff",
"++	c #6dc8f3",
"..	c #73cbf4",
"||	c #7cd1f7",
"//	c #80d3f7",
"06	c #79cef6",
"07	c #68c4f1",
"08	c #62bbe9",
"09	c #7cc7ee",
"0a	c #77c4ed",
"0b	c #83d6f9",
"0c	c #0d4ca2",
"0d	c #7ac7eb",
"0e	c #80cbed",
"0f	c #83d5f8",
"0g	c #6ac6f2",
"0h	c #6fc2ec",
"0i	c #63bdef",
"0j	c #75cdf5",
"0k	c #71c3ec",
"0l	c #88cdee",
"0m	c #6abfeb",
"0n	c #1c66b9",
"0o	c #1b67b9",
"0p	c #1a66ba",
"0q	c #2279ca",
"0r	c #287bcc",
"0s	c #2c86d0",
"0t	c #185cb1",
"0u	c #2670be",
"0v	c #58a2d5",
"0w	c #81c3e8",
"0x	c #82ccf0",
"0y	c #9ad8f7",
"0z	c #6ec3ef",
"10	c #52b1e8",
"11	c #3b99da",
"12	c #308dd6",
"13	c #175aae",
"14	c #1961b1",
"15	c #60a9da",
"16	c #9bd2f1",
"17	c #90d0f0",
"18	c #76c4ee",
"19	c #84caef",
"1a	c #8dcef3",
"1b	c #6cc4ee",
"1c	c #61bdef",
"1d	c #72ccf5",
"1e	c #66c1ef",
"1f	c #3899dc",
"1g	c #3696dc",
"1h	c #1354a9",
"1i	c #256eba",
"1j	c #78bee5",
"1k	c #99d6f1",
"1l	c #79c5ed",
"1m	c #5bbbef",
"1n	c #79d0f6",
"1o	c #46aae5",
"1p	c #379bdf",
"1q	c #1352a5",
"1r	c #226dba",
"1s	c #7bc3e7",
"1t	c #91d0ef",
"1u	c #7fc9ee",
"1v	c #67beeb",
"1w	c #63beef",
"1x	c #7acff6",
"1y	c #4aaee7",
"1z	c #3b9fe3",
"20	c #1457aa",
"21	c #6ab7e1",
"22	c #88cfef",
"23	c #60bae8",
"24	c #3fa6e4",
"25	c #4d9ed3",
"26	c #7fcbeb",
"27	c #74cff5",
"28	c #3aa3e6",
"29	c #1c64b2",
"2a	c #72bee6",
"2b	c #72c4ed",
"2c	c #89d8fa",
"2d	c #4bb2ea",
"2e	c #3c8bca",
"2f	c #7acaeb",
"2g	c #7ecaed",
"2h	c #57b7e8",
"2i	c #6ec9f4",
"2j	c #85d6f9",
"2k	c #6dcaf2",
"2l	c #3fa8e8",
"2m	c #0b4aa1",
"2n	c #5babdb",
"2o	c #7cc8eb",
"2p	c #7fcaed",
"2q	c #6bc0ec",
"2r	c #84d6f8",
"2s	c #81d6f9",
"2t	c #3da9e8",
"2u	c #0947a0",
"2v	c #6cbce4",
"2w	c #50b5e6",
"2x	c #58b8e8",
"2y	c #8ddbf9",
"2z	c #3ca8e8",
"30	c #1155a8",
"31	c #74c3e7",
"32	c #4db3e6",
"33	c #8bdbf9",
"34	c #44b0eb",
"35	c #62bded",
"36	c #7bd0f7",
"37	c #7dd2f8",
"38	c #62bcec",
"39	c #5dbcef",
"3a	c #2577c2",
"3b	c #2a7fcb",
"3c	c #8ad1f3",
"3d	c #90d2f6",
"3e	c #88ccf0",
"3f	c #66c0ef",
"3g	c #7fc9ef",
"3h	c #66b7e7",
"3i	c #41a4e1",
"3j	c #5fbef1",
"3k	c #69bfeb",
"3l	c #78c5ee",
"3m	c #77c4ec",
"3n	c #2c83cc",
"3o	c #2978c6",
"3p	c #57b8ed",
"3q	c #64bff0",
"3r	c #7dd2f7",
"3s	c #6abfea",
"3t	c #60bae9",
"3u	c #71c4ec",
"3v	c #7bc7ef",
"3w	c #4198d7",
"3x	c #bad7ed",
"3y	c #a5cbe5",
"3z	c #2278c8",
"40	c #67c3f2",
"41	c #68c5f1",
"42	c #82d4f8",
"43	c #7ecbed",
"44	c #7fc9ed",
"45	c #54b6e7",
"46	c #75c0ea",
"47	c #348dd3",
"48	c #2677c3",
"49	c #50aee7",
"4a	c #81d3f7",
"4b	c #6fc4ea",
"4c	c #73c5ed",
"4d	c #4ca1dc",
"4e	c #e2eef5",
"4f	c #d4e4f1",
"4g	c #1164ba",
"4h	c #6eccf6",
"4i	c #5cbae6",
"4j	c #58b7e8",
"4k	c #6cb9e8",
"4l	c #7cbbe3",
"4m	c #488eca",
"4n	c #3993d6",
"4o	c #71ccf5",
"4p	c #69bdeb",
"4q	c #5fafe2",
"4r	c #fffefd",
"4s	c #f0f5f9",
"4t	c #0957b0",
"4u	c #6ccaf4",
"4v	c #74ccf5",
"4w	c #59b8e8",
"4x	c #61bbe9",
"4y	c #67b8e8",
"4z	c #b9d9ef",
"50	c #84b3d9",
"51	c #287fca",
"52	c #78d1f8",
"53	c #7acef6",
"54	c #6fbae8",
"55	c #0a57ad",
"56	c #65bbea",
"57	c #d1e5f5",
"58	c #aac9e3",
"59	c #1568bb",
"5a	c #81d7fb",
"5b	c #5ab9e6",
"5c	c #5ebbe8",
"5d	c #8bcaee",
"5e	c #135db0",
"5f	c #4ca6df",
"5g	c #80d5fa",
"5h	c #6ec2eb",
"5i	c #6bc1ee",
"5j	c #f6f9fc",
"5k	c #eef5f8",
"5l	c #0b53aa",
"5m	c #7cd3f8",
"5n	c #81d4f8",
"5o	c #7dcbed",
"5p	c #82cbed",
"5q	c #72c4ee",
"5r	c #9bd1f1",
"5s	c #8ec8eb",
"5t	c #8bc4e9",
"5u	c #8bc2e6",
"5v	c #549fd8",
"5w	c #4a96d1",
"5x	c #478ecc",
"5y	c #4186c5",
"5z	c #3e82c1",
"60	c #3c7cbe",
"61	c #3678bb",
"62	c #3978bb",
"63	c #033e9b",
"64	c #5cb6e7",
"65	c #82d5f8",
"66	c #87ccee",
"67	c #58b4e6",
"68	c #59b0e5",
"69	c #5bafe4",
"6a	c #62b2e5",
"6b	c #50aae3",
"6c	c #55bbf0",
"6d	c #55baef",
"6e	c #5ec0f2",
"6f	c #65c3f3",
"6g	c #63bded",
"6h	c #80d6f9",
"6i	c #83d4f8",
"6j	c #79c5ee",
"6k	c #7ec9ee",
"6l	c #4db2ea",
"6m	c #55b7ed",
"6n	c #69c5f2",
"6o	c #7dc8ee",
"6p	c #74c7ee",
"6q	c #52b6ed",
"6r	c #87ccef",
"6s	c #65beee",
"6t	c #8bd1f3",
"6u	c #90d3f6",
"6v	c #2577c3",
"6w	c #287bc8",
"                0c2m2u30302u2m0c                ",
"            0c292e2n2v31312v2n2e290c            ",
"        1q20252a2f2o0d0d0d0d2o2f2a25201q        ",
"      1h1r2126432g2p0e0e0e0e2p2g5o26211r1h      ",
"    131i1s220l444b4i2w32322w5b5h5p66221s1i13    ",
"    141j1t0l3s452h4j2x4w2x2h5c5i5q0h0l1t1j14    ",
"  0t151k1u233t080808084x08565d5j5r67231u1k150t  ",
"  0u161l1v3k0m0m0m2q4p4y5457XXXX5s682q1v1l160u  ",
"0n0v170h0k0k3u2b4c4k4q4zXXXXXXXX5t692b0k0h170v0n",
"0o0w180a0a3l3v464d4l4rXXXXXXXXXX5u6a6j0a0a180w0o",
"0p0x09093g3m3w474eXXXXXXXXXXXXXX5v6b6k6o09090x0p",
"3a3c193e3h3n3xXXXXXXXXXXXXXXXXXX5w6c6l6p6r196t6v",
"3b3d1a3f3i3o3yXXXXXXXXXXXXXXXXXX5x6d6m6q6s1a6u6w",
"0q0y1b1m3j3p3z484fXXXXXXXXXXXXXX5y6e39391m1b0y0q",
"0r0z1c0i1w3q40494g4m4sXXXXXXXXXX5z6f1w0i0i1c0z0r",
"0s100g070707410g4h4n4t50XXXXXXXX60386n07070g100s",
"  111d++++++++++2i4o4u515558XXXX61382i++++1d11  ",
"  121e0j............4v5235595e5k626g0j..0j1e12  ",
"    1f1n1x06060606060653365a5f5l6335361x1n1f    ",
"    1g1o0b3r||||||||||||||375g5m646h370b1o1g    ",
"      1p1y0b424a//////////////5n656i0b1y1p      ",
"        1z24272c2j2r0f0f0f0f2r2j2c27241z        ",
"            282d2k2s2y33332y2s2k2d28            ",
"                2l2t2z34342z2t2l                "};