/* XPM */
static char * xpm_play-music[] = {
"24 24 317 2",
"  	c None",
"XX	c #ffffff",
"++	c #74bbe7",
"..	c #72bae2",
"||	c #78c8f2",
"//	c #6fb6e5",
"06	c #5db0e7",
"07	c #6ab5e3",
"08	c #77bfe4",
"09	c #1b6ab9",
"0a	c #7bcbf4",
"0b	c #7acbf4",
"0c	c #2e6aa7",
"0d	c #064a9a",
"0e	c #1e5da8",
"0f	c #1d5fa9",
"0g	c #1c5ea8",
"0h	c #246eb9",
"0i	c #2972bd",
"0j	c #2d7ac0",
"0k	c #1955a0",
"0l	c #2667ac",
"0m	c #5493c8",
"0n	c #77b6de",
"0o	c #7bbfe8",
"0p	c #81c5ec",
"0q	c #86c6ef",
"0r	c #90cef1",
"0s	c #69b6e7",
"0t	c #4fa2dc",
"0u	c #3a8cce",
"0v	c #3280c7",
"0w	c #19549e",
"0x	c #1a57a0",
"0y	c #5c9acb",
"0z	c #92c7ea",
"10	c #87c5e9",
"11	c #6eb7e6",
"12	c #7abde7",
"13	c #83c1eb",
"14	c #64b4e7",
"15	c #5bafe7",
"16	c #64b7ea",
"17	c #6bc0ee",
"18	c #5fb3e6",
"19	c #368bcf",
"1a	c #3689cf",
"1b	c #154e99",
"1c	c #2565a9",
"1d	c #71b0db",
"1e	c #8fcceb",
"1f	c #71b8e5",
"1g	c #67b4e2",
"1h	c #7cbfe7",
"1i	c #5fb0e6",
"1j	c #55ace5",
"1k	c #62b5e9",
"1l	c #378dd2",
"1m	c #144e96",
"1n	c #75bbe6",
"1o	c #58ade5",
"1p	c #3a92d7",
"1q	c #7dbfe5",
"1r	c #0e4691",
"1s	c #3894d9",
"1t	c #1c5aa2",
"1u	c #6bb1dc",
"1v	c #4faae2",
"1w	c #4aa4e1",
"1x	c #0f4792",
"1y	c #3b7fbb",
"1z	c #72bde1",
"20	c #2176c0",
"21	c #66bdea",
"22	c #3e99dd",
"23	c #0d4590",
"24	c #569ece",
"25	c #74bce3",
"26	c #7ccdf5",
"27	c #79caf3",
"28	c #3b9adc",
"29	c #0b438e",
"2a	c #66aed9",
"2b	c #1968b8",
"2c	c #82d1f6",
"2d	c #3a98db",
"2e	c #134e96",
"2f	c #6db5de",
"2g	c #77c8f4",
"2h	c #82d0f6",
"2i	c #43a1e1",
"2j	c #53abe5",
"2k	c #75c6f2",
"2l	c #77bfe5",
"2m	c #4da7e0",
"2n	c #266cb2",
"2o	c #2b72bb",
"2p	c #67bbec",
"2q	c #73c5f3",
"2r	c #77c9f6",
"2s	c #469eda",
"2t	c #2463a9",
"2u	c #74b5dd",
"2v	c #87c3e9",
"2w	c #76bce5",
"2x	c #61aee1",
"2y	c #6db8e6",
"2z	c #4fa7e3",
"30	c #65b7ea",
"31	c #5fb9ec",
"32	c #2575bf",
"33	c #2675bf",
"34	c #80d2f9",
"35	c #4ba2dd",
"36	c #155099",
"37	c #65a8d5",
"38	c #7ec1e7",
"39	c #5aabde",
"3a	c #63afe2",
"3b	c #70b6e5",
"3c	c #49a4e1",
"3d	c #51a9e4",
"3e	c #5fb1e8",
"3f	c #51abe6",
"3g	c #196ebc",
"3h	c #abd8f3",
"3i	c #77beea",
"3j	c #1d70bb",
"3k	c #7dd0f7",
"3l	c #3f99d9",
"3m	c #4b8fc6",
"3n	c #76c0e3",
"3o	c #64b1e1",
"3p	c #5bacde",
"3q	c #64b1e2",
"3r	c #71b7e6",
"3s	c #5caee3",
"3t	c #4ba6df",
"3u	c #52aae4",
"3v	c #59aee5",
"3w	c #5db1e8",
"3x	c #1c70be",
"3y	c #f2fafd",
"3z	c #a3d4f1",
"40	c #2273be",
"41	c #74c8f1",
"42	c #76bee4",
"43	c #77bde4",
"44	c #4fa6dc",
"45	c #5caee0",
"46	c #64b1e3",
"47	c #6bb6e4",
"48	c #75b9e6",
"49	c #45a3e0",
"4a	c #55ade7",
"4b	c #5db3e8",
"4c	c #4ba3df",
"4d	c #6baedc",
"4e	c #1d73be",
"4f	c #86d6fb",
"4g	c #76bde4",
"4h	c #67b6e1",
"4i	c #52a7dc",
"4j	c #5faadb",
"4k	c #5aa4d9",
"4l	c #5aa5da",
"4m	c #50a1d8",
"4n	c #1e74bf",
"4o	c #2175c0",
"4p	c #1971be",
"4q	c #93c2e4",
"4r	c #a2d3f1",
"4s	c #1f72bd",
"4t	c #82d3f9",
"4u	c #56abdd",
"4v	c #5aa3d9",
"4w	c #498bc6",
"4x	c #fcfdfe",
"4y	c #f5f8fc",
"4z	c #feffff",
"50	c #eff6f9",
"51	c #176dbc",
"52	c #7bccf6",
"53	c #4ba7db",
"54	c #569dd0",
"55	c #abc5de",
"56	c #eef4f7",
"57	c #4d98cf",
"58	c #1a69b9",
"59	c #1867b7",
"5a	c #1666b7",
"5b	c #1865b6",
"5c	c #57a9df",
"5d	c #7accf4",
"5e	c #78bfe4",
"5f	c #49a6dc",
"5g	c #4d8cc8",
"5h	c #b3cae1",
"5i	c #1d6ab9",
"5j	c #409ada",
"5k	c #449cd9",
"5l	c #489fdb",
"5m	c #4da3dc",
"5n	c #52a5df",
"5o	c #57aee4",
"5p	c #5bb0e5",
"5q	c #5cb2e5",
"5r	c #6abbec",
"5s	c #79c9f2",
"5t	c #49a0d9",
"5u	c #6198ca",
"5v	c #edf4f8",
"5w	c #196bb7",
"5x	c #46a3df",
"5y	c #4ea8e1",
"5z	c #5bb0e7",
"60	c #5fb6eb",
"61	c #316fb1",
"62	c #316eb1",
"63	c #59ade3",
"64	c #77c9f5",
"65	c #4999d1",
"66	c #85aed4",
"67	c #d7e4f0",
"68	c #206fb8",
"69	c #51a7e1",
"6a	c #45a0de",
"6b	c #58aee8",
"6c	c #1053a4",
"6d	c #95badb",
"6e	c #92bada",
"6f	c #2568ae",
"6g	c #418ecd",
"6h	c #77c9f4",
"6i	c #5195cd",
"6j	c #aac6e0",
"6k	c #acc5df",
"6l	c #5a9dd1",
"6m	c #57abe3",
"6n	c #44a1dd",
"6o	c #55afe8",
"6p	c #2774bb",
"6q	c #8fb7d9",
"6r	c #dce6f1",
"6s	c #1a63ae",
"6t	c #7accf7",
"6u	c #7bccf5",
"6v	c #77c2e6",
"6w	c #4d8bc2",
"6x	c #dee7f1",
"6y	c #729ec9",
"6z	c #64abdd",
"70	c #6ab7e7",
"71	c #45a5e1",
"72	c #51ade4",
"73	c #54afe7",
"74	c #004094",
"75	c #f7f9fa",
"76	c #0e52a2",
"77	c #7bcdf7",
"78	c #7ac5e9",
"79	c #336fae",
"7a	c #3673b2",
"7b	c #3d7eb9",
"7c	c #4485bf",
"7d	c #0c55a6",
"7e	c #0e55a5",
"7f	c #044c9e",
"7g	c #8cb6d9",
"7h	c #d5e3ed",
"7i	c #1e68b0",
"7j	c #7accf6",
"7k	c #79c8f2",
"7l	c #80d0f7",
"7m	c #4c90c6",
"7n	c #6cb3dc",
"7o	c #6490c1",
"7p	c #d5e3ee",
"7q	c #024090",
"7r	c #56a9df",
"7s	c #77c8f3",
"7t	c #7bc9f3",
"7u	c #6ec2ed",
"7v	c #165099",
"7w	c #61a4d4",
"7x	c #427bb3",
"7y	c #2e6aa8",
"7z	c #2d69a7",
"80	c #2a66a5",
"81	c #024899",
"82	c #064b9a",
"83	c #094a98",
"84	c #4b9cd5",
"85	c #3d97d8",
"86	c #2464a9",
"87	c #79bae1",
"88	c #8ccbee",
"89	c #7ac1e9",
"8a	c #63b3e6",
"8b	c #6dbbe8",
"8c	c #73bdea",
"8d	c #7ac2ed",
"8e	c #72bfec",
"8f	c #53afe9",
"8g	c #5eb5eb",
"8h	c #63b8ed",
"8i	c #68bdef",
"8j	c #6cc3f1",
"8k	c #6ec0f1",
"8l	c #72c3f1",
"8m	c #49a0dd",
"8n	c #66bceb",
"8o	c #6dbfef",
"8p	c #72c4f2",
"8q	c #459cd9",
"8r	c #266cb3",
"8s	c #2970b6",
"                1x23292e2e29231x                ",
"            1r1t1y242a2f2f2a241y1t1r            ",
"        1m363m1u1z25........251z1u7m7v1m        ",
"      1b2t373n424g08085e082l2l6v787n7w861b      ",
"    0w1c2u381q434h4u535f5t656i6w797o7x871c0w    ",
"    0x1d2v1q3o444i4v545g5u666j6xXXXX7y881d0x    ",
"  0k0y1e2w393p454j4w55XXXXXXXXXXXXXX7z891e0y0k  ",
"  0l0z1f2x3a3q464k4xXXXX5v676k6y7aXX0c8a1f0z0l  ",
"0e0m101g070707474l4y565h5w686l6z7bXX0c8b1g100m0e",
"0f0n11////3b3r484mXX575i1v696m707cXX0c8c//110n0f",
"0g0o++++1n1n3s494nXX2b5j5x6a6n717dXX808d++++0o0g",
"2n0p121h2y3c3t1v20XX095k5y2m2m727eXX818e1h120p8r",
"2o0q131i2z3d3u4a20XX095l2j2j6o737fXX828f1i130q8s",
"0h0r141j1o1o3v4b4oXX095m5z6b6p747gXX0d8g1j140r0h",
"0i0s1506063e3w4c4pXX585n606c6qXXXXXX0d8h06150s0i",
"0j0t161k303f3x4d4q4z2b5o616dXXXXXXXX0d8i1k160t0j",
"  0u172p313g3yXXXXXX595p626eXXXXXX7p838j8n170u  ",
"  0v182q323hXXXXXXXX5a5q636f6r757h7q848k8o180v  ",
"    192r333iXXXXXX505b5r646g6s767i7r2g8l8p19    ",
"    1a2s343j3zXX4r515c2g2k6h6t777j7s2k0a8q1a    ",
"      1l353k404e4s520a5s||||||||7k7t0a8m1l      ",
"        1p3l414f4t265d0b0b0b6u267l7u851p        ",
"            1s1w21272c2h2h2c27211w1s            ",
"                22282d2i2i2d2822                "};