/* XPM */
static char * xpm_play[] = {
"24 24 261 2",
"  	c None",
"XX	c #ffffff",
"++	c #6dc6f0",
"..	c #72caf1",
"||	c #78ccf2",
"//	c #7ccff3",
"06	c #68c2ee",
"07	c #80d2f4",
"08	c #62bdec",
"09	c #70c0e8",
"0a	c #84d5f6",
"0b	c #79c5e8",
"0c	c #83d4f5",
"0d	c #61bae6",
"0e	c #7cc5eb",
"0f	c #77c2e9",
"0g	c #79cdf3",
"0h	c #88cbea",
"0i	c #1c61b2",
"0j	c #1a60b4",
"0k	c #1960b3",
"0l	c #2372bd",
"0m	c #1f74c3",
"0n	c #2678c6",
"0o	c #2b7fcb",
"0p	c #1656aa",
"0q	c #226bb8",
"0r	c #579ed3",
"0s	c #82c2e5",
"0t	c #83cbee",
"0u	c #89d1f0",
"0v	c #91d4f3",
"0w	c #9cd8f6",
"0x	c #6fc3ed",
"0y	c #51aee3",
"0z	c #3a96d7",
"10	c #2e87d0",
"11	c #1655a8",
"12	c #1759aa",
"13	c #5fa6d7",
"14	c #9ed4ef",
"15	c #91d1ee",
"16	c #76c2ea",
"17	c #82caec",
"18	c #8ecdf0",
"19	c #6bc1ec",
"1a	c #60bbec",
"1b	c #6ac4ef",
"1c	c #73cbf3",
"1d	c #65c0ec",
"1e	c #3695d7",
"1f	c #3593d7",
"1g	c #134ea3",
"1h	c #2269b4",
"1i	c #78bde3",
"1j	c #9ad6f0",
"1k	c #78c3e9",
"1l	c #6dc0e9",
"1m	c #74ccf2",
"1n	c #79cff3",
"1o	c #45a8e0",
"1p	c #3697da",
"1q	c #134e9f",
"1r	c #2068b4",
"1s	c #7ac2e5",
"1t	c #92d1ee",
"1u	c #7ec7e9",
"1v	c #66bbe8",
"1w	c #5cbaea",
"1x	c #49aae3",
"1y	c #399cde",
"1z	c #1450a3",
"20	c #6ab4df",
"21	c #89ceeb",
"22	c #5fb7e5",
"23	c #68bbe8",
"24	c #78c2e9",
"25	c #7dd0f3",
"26	c #3ca2de",
"27	c #0d469b",
"28	c #4c9ad1",
"29	c #7fcae9",
"2a	c #83d3f5",
"2b	c #75cef3",
"2c	c #389fdf",
"2d	c #195dac",
"2e	c #71bee4",
"2f	c #7ec9ea",
"2g	c #8ad8f7",
"2h	c #49aee6",
"2i	c #0e469b",
"2j	c #3a88c6",
"2k	c #7ac8e8",
"2l	c #7ec8ea",
"2m	c #86d6f6",
"2n	c #6cc8f0",
"2o	c #3ea4e3",
"2p	c #0c4498",
"2q	c #5aa9d9",
"2r	c #7bc7e9",
"2s	c #7fc9ea",
"2t	c #84d5f5",
"2u	c #82d4f4",
"2v	c #3ba6e4",
"2w	c #0a4197",
"2x	c #6cb9e2",
"2y	c #80c9ea",
"2z	c #8cdbf7",
"30	c #3aa4e3",
"31	c #1151a1",
"32	c #74c2e6",
"33	c #81caea",
"34	c #4baee1",
"35	c #57b6e4",
"36	c #8bdaf6",
"37	c #42ace6",
"38	c #69bde8",
"39	c #2878c5",
"3a	c #85cbec",
"3b	c #63bdeb",
"3c	c #58b8ea",
"3d	c #7ec6eb",
"3e	c #74c3ea",
"3f	c #51b3e9",
"3g	c #7dc6eb",
"3h	c #4bafe6",
"3i	c #54b5e9",
"3j	c #87cbea",
"3k	c #67bce6",
"3l	c #5eb9e5",
"3m	c #68bce8",
"3n	c #71c1e9",
"3o	c #7bc5ea",
"3p	c #62beeb",
"3q	c #4eb3e7",
"3r	c #58baec",
"3s	c #60c0ed",
"3t	c #67c3ef",
"3u	c #6ec9f2",
"3v	c #73cef5",
"3w	c #79d2f6",
"3x	c #7fd3f6",
"3y	c #7dd0f4",
"3z	c #81c8e9",
"40	c #67bcea",
"41	c #64b8e7",
"42	c #62b4e4",
"43	c #60b2e1",
"44	c #64b0dd",
"45	c #2082cf",
"46	c #1e7dcb",
"47	c #1d78c8",
"48	c #1c74c1",
"49	c #196dbe",
"4a	c #1869bc",
"4b	c #1566b6",
"4c	c #1362b6",
"4d	c #1e6bb8",
"4e	c #7acff3",
"4f	c #81d3f5",
"4g	c #73c2e8",
"4h	c #7dc6ed",
"4i	c #f2f5fb",
"4j	c #edf4f9",
"4k	c #eaf3f9",
"4l	c #e8f1f7",
"4m	c #e1edf5",
"4n	c #e2ebf4",
"4o	c #e1ecf4",
"4p	c #e0ebf3",
"4q	c #dfe8f2",
"4r	c #dfe7f1",
"4s	c #dfe7f2",
"4t	c #dfebf0",
"4u	c #08459b",
"4v	c #65beea",
"4w	c #82d3f5",
"4x	c #57b5e3",
"4y	c #65bbe9",
"4z	c #cce5f5",
"50	c #93bbda",
"51	c #186ab8",
"52	c #84d8f9",
"53	c #81d3f4",
"54	c #4cb2e1",
"55	c #58b5e3",
"56	c #71bee7",
"57	c #fffeff",
"58	c #fffffe",
"59	c #00449e",
"5a	c #6fcbf1",
"5b	c #7ed1f4",
"5c	c #62b8e6",
"5d	c #afd7ee",
"5e	c #4e8cc5",
"5f	c #348ccf",
"5g	c #7ed2f5",
"5h	c #58b6e4",
"5i	c #5fbae6",
"5j	c #60b1e3",
"5k	c #f0f5fa",
"5l	c #e3edf3",
"5m	c #0650aa",
"5n	c #73ccf3",
"5o	c #4db2e1",
"5p	c #67bae5",
"5q	c #83bfe5",
"5r	c #2872bb",
"5s	c #44a0dc",
"5t	c #75cef4",
"5u	c #5ab6e3",
"5v	c #57b5e4",
"5w	c #69bde9",
"5x	c #61b0e0",
"5y	c #dbeaf4",
"5z	c #c4d9eb",
"60	c #1869ba",
"61	c #74cef6",
"62	c #73cbf1",
"63	c #6ec1e6",
"64	c #55b5e3",
"65	c #6abde8",
"66	c #6cbde6",
"67	c #53a2d9",
"68	c #0c5aaf",
"69	c #53afe3",
"6a	c #6fc9f1",
"6b	c #7fc7ea",
"6c	c #51b3e3",
"6d	c #71c2e9",
"6e	c #66b1df",
"6f	c #a4cce7",
"6g	c #88b9db",
"6h	c #277ec9",
"6i	c #6ec8f2",
"6j	c #81d2f4",
"6k	c #68bde7",
"6l	c #5fb9e6",
"6m	c #71c1e8",
"6n	c #77c3ea",
"6o	c #2d88cd",
"6p	c #fffffd",
"6q	c #0a5ab4",
"6r	c #62bfed",
"6s	c #69c3ef",
"6t	c #79c3ea",
"6u	c #6bb4e1",
"6v	c #70aedc",
"6w	c #569ad0",
"6x	c #3691d4",
"6y	c #65bfee",
"6z	c #7cc7ec",
"70	c #4b98d3",
"71	c #1c6fc0",
"72	c #61c0ee",
"73	c #63bcec",
"74	c #7dc6ec",
"75	c #85caed",
"76	c #64bfeb",
"77	c #5ab8ea",
"78	c #2676c3",
"                2i2p2w31312w2p2i                ",
"            272d2j2q2x32322x2q2j2d27            ",
"        1q1z282e2k2r0b0b0b0b2r2k2e281z1q        ",
"      1g1r20292f2l2s2y33332y2s2l2f29201r1g      ",
"    111h1s213j3z4g4x5434345o5u636b0h211s1h11    ",
"    121i1t0h3k404h4y55355h355v646c6k0h1t1i12    ",
"  0p131j1u223l414i4z565c5i0d0d0d0d6l221u1j130p  ",
"  0q141k1v233m424jXX575d5j5p5w653838231v1k140q  ",
"0i0r151l09093n434kXXXXXX5k5q5x666d6m09091l150r0i",
"0j0s160f0f243o444lXXXXXXXXXX5y676e6n6t240f160s0j",
"0k0t0e0e3d3g3p454mXXXXXXXXXXXXXX6f6o6u6z740e0t0k",
"0l0u173a3e3h3q464nXXXXXXXXXXXXXXXX6p6v7075170u0l",
"390v183b3f3i3r474oXXXXXXXXXXXXXXXXXX6w7176180v78",
"0m0w193c1w1w3s484pXXXXXXXXXXXXXX6g6q6x7277190w0m",
"0n0x1a0808083t494qXXXXXXXXXX5z686h6r6y73081a0x0n",
"0o0y1b0606063u4a4rXXXXXX5l5r60696i6s0606061b0y0o",
"  0z1c++++++3v4b4sXX585e5m5s616a++++++++++1c0z  ",
"  101d1m....3w4c4t50595f5n5t62..........1m1d10  ",
"    1e1n0g||3x4d4u515a5g0g||||||||||||0g1n1e    ",
"    1f1o0a253y4e4v525b//////////////250a1o1f    ",
"      1p1x0a2a4f4w530707070707076j2a0a1x1p      ",
"        1y262b2g2m2t0c0c0c0c2t2m2g2b261y        ",
"            2c2h2n2u2z36362z2u2n2h2c            ",
"                2o2v303737302v2o                "};