/* XPM */
static char * xpm_radiation[] = {
"24 24 413 2",
"  	c None",
"XX	c #211f20",
"++	c #6c6c6f",
"..	c #6b6b6e",
"||	c #6b6b6c",
"//	c #1f1e20",
"06	c #302f31",
"07	c #ebe54a",
"08	c #6e6e6f",
"09	c #aaa439",
"0a	c #6a6a6b",
"0b	c #eae642",
"0c	c #f3df11",
"0d	c #2a2a35",
"0e	c #faf799",
"0f	c #333335",
"0g	c #323234",
"0h	c #faf79d",
"0i	c #f9f78f",
"0j	c #313133",
"0k	c #2e2e30",
"0l	c #2d2d2e",
"0m	c #25242b",
"0n	c #c6c472",
"0o	c #f8d80e",
"0p	c #fac20f",
"0q	c #292320",
"0r	c #69696d",
"0s	c #ffbd10",
"0t	c #49321d",
"0u	c #69696b",
"0v	c #262526",
"0w	c #232223",
"0x	c #f9f56c",
"0y	c #f9f558",
"0z	c #222122",
"10	c #111621",
"11	c #28292f",
"12	c #23242f",
"13	c #3e3c36",
"14	c #5d5b39",
"15	c #5d5a37",
"16	c #4b4a32",
"17	c #1f202c",
"18	c #23222d",
"19	c #2e2f37",
"1a	c #7b7a61",
"1b	c #d5d290",
"1c	c #fdf96d",
"1d	c #ffff64",
"1e	c #d4d04e",
"1f	c #a9a444",
"1g	c #dbd540",
"1h	c #e8e238",
"1i	c #c9c32c",
"1j	c #59562a",
"1k	c #1d1c2b",
"1l	c #2c2d32",
"1m	c #6b695e",
"1n	c #edeaa3",
"1o	c #ffffa7",
"1p	c #fdfa9f",
"1q	c #faf785",
"1r	c #fffd5c",
"1s	c #4a493a",
"1t	c #282835",
"1u	c #323134",
"1v	c #aaa628",
"1w	c #ddd61a",
"1x	c #433f23",
"1y	c #1e1e26",
"1z	c #303037",
"20	c #a3a27e",
"21	c #fffcb0",
"22	c #fdfba7",
"23	c #faf7a0",
"24	c #f9f790",
"25	c #fffd58",
"26	c #62603b",
"27	c #313236",
"28	c #2f2f33",
"29	c #282731",
"2a	c #2c2b2e",
"2b	c #cdc317",
"2c	c #796e1c",
"2d	c #1b1c26",
"2e	c #2d2d33",
"2f	c #a4a280",
"2g	c #ffffb6",
"2h	c #fcf9ab",
"2i	c #faf7a4",
"2j	c #faf795",
"2k	c #fffd66",
"2l	c #5f5d39",
"2m	c #303035",
"2n	c #2b2b2e",
"2o	c #1d1d2f",
"2p	c #ccb616",
"2q	c #76661b",
"2r	c #1c1c25",
"2s	c #6e6d5f",
"2t	c #fffdb3",
"2u	c #fcf9ad",
"2v	c #fbf8a7",
"2w	c #faf7a1",
"2x	c #faf791",
"2y	c #f9f68a",
"2z	c #fffd74",
"30	c #807d38",
"31	c #2d2d34",
"32	c #303032",
"33	c #2f2e30",
"34	c #2c2b2d",
"35	c #29292c",
"36	c #17192b",
"37	c #e9c610",
"38	c #3c3320",
"39	c #31323a",
"3a	c #e9e5a6",
"3b	c #fef9b0",
"3c	c #fffcac",
"3d	c #faf7a5",
"3e	c #faf797",
"3f	c #f9f685",
"3g	c #fffb83",
"3h	c #a09d36",
"3i	c #2b2b33",
"3j	c #2d2d2f",
"3k	c #2d2c2d",
"3l	c #2b2a2c",
"3m	c #28282a",
"3n	c #191a29",
"3o	c #7f661c",
"3p	c #e1b311",
"3q	c #141623",
"3r	c #83836c",
"3s	c #cbc795",
"3t	c #757772",
"3u	c #d5d394",
"3v	c #ffffa4",
"3w	c #fcf99c",
"3x	c #faf793",
"3y	c #f9f68b",
"3z	c #f9f683",
"40	c #fffb7e",
"41	c #9e9c42",
"42	c #292932",
"43	c #2d2d2d",
"44	c #2b2a2d",
"45	c #232227",
"46	c #aa8d17",
"47	c #ffde0c",
"48	c #ffd80d",
"49	c #4a391c",
"4a	c #2d2e34",
"4b	c #e1df9f",
"4c	c #707271",
"4d	c #6a6b6e",
"4e	c #65676d",
"4f	c #939279",
"4g	c #e8e48d",
"4h	c #fffe91",
"4i	c #faf787",
"4j	c #f9f57f",
"4k	c #fefa78",
"4l	c #adaa4b",
"4m	c #242530",
"4n	c #2e2d30",
"4o	c #2a292d",
"4p	c #20202d",
"4q	c #4e4823",
"4r	c #f4d80f",
"4s	c #ffdd0d",
"4t	c #fad10f",
"4u	c #fecc0e",
"4v	c #bb8414",
"4w	c #181922",
"4x	c #3b3d44",
"4y	c #e2e0a2",
"4z	c #67676d",
"50	c #6e6f70",
"51	c #6d6d6f",
"52	c #68686e",
"53	c #60606b",
"54	c #a9a877",
"55	c #f5f281",
"56	c #fdf97c",
"57	c #fefa74",
"58	c #232330",
"59	c #27262e",
"5a	c #26252c",
"5b	c #aa9b1a",
"5c	c #ffef0e",
"5d	c #fbdd0d",
"5e	c #f8d40e",
"5f	c #f9cc0f",
"5g	c #fbc60f",
"5h	c #ffbe10",
"5i	c #121422",
"5j	c #606059",
"5k	c #cdca97",
"5l	c #68696d",
"5m	c #6a6a6e",
"5n	c #66666b",
"5o	c #68676a",
"5p	c #f1ed6f",
"5q	c #6f6c55",
"5r	c #4d4b2b",
"5s	c #f2e811",
"5t	c #fded10",
"5u	c #f8e00f",
"5v	c #f9d00f",
"5w	c #f9c90f",
"5x	c #ffc20f",
"5y	c #787861",
"5z	c #b3b38c",
"60	c #61626b",
"61	c #828068",
"62	c #515059",
"63	c #25252b",
"64	c #424029",
"65	c #ffff0e",
"66	c #f8eb11",
"67	c #f6e210",
"68	c #f8db0e",
"69	c #f8d50e",
"6a	c #f9cd0f",
"6b	c #fac60f",
"6c	c #fabd0f",
"6d	c #797961",
"6e	c #b3b28b",
"6f	c #68686b",
"6g	c #62626a",
"6h	c #808068",
"6i	c #505056",
"6j	c #413f27",
"6k	c #ffff0f",
"6l	c #f8e911",
"6m	c #f7e00f",
"6n	c #f9d10f",
"6o	c #f9ca0f",
"6p	c #faba10",
"6q	c #ffb710",
"6r	c #5b5b54",
"6s	c #ceca93",
"6t	c #68686d",
"6u	c #65656a",
"6v	c #5e5f67",
"6w	c #f4ef62",
"6x	c #6b6a54",
"6y	c #494624",
"6z	c #fee20d",
"70	c #f9d60e",
"71	c #f9ce0f",
"72	c #f9c70f",
"73	c #fabe0f",
"74	c #fab511",
"75	c #ffb410",
"76	c #3b3d45",
"77	c #e2df9b",
"78	c #64646c",
"79	c #63636a",
"7a	c #676869",
"7b	c #bebb6b",
"7c	c #ffff65",
"7d	c #fffb5a",
"7e	c #1f1f2a",
"7f	c #212027",
"7g	c #201f25",
"7h	c #a88a16",
"7i	c #ffdf0c",
"7j	c #fbcd0f",
"7k	c #fac30f",
"7l	c #fabb10",
"7m	c #fbb211",
"7n	c #ffa910",
"7o	c #121522",
"7p	c #2e2f35",
"7q	c #d6d491",
"7r	c #706f70",
"7s	c #68686a",
"7t	c #5d5e6a",
"7u	c #99986e",
"7v	c #f6f274",
"7w	c #fefa6b",
"7x	c #f9f561",
"7y	c #fefa58",
"7z	c #1d1c29",
"80	c #272528",
"81	c #232125",
"82	c #181924",
"83	c #46381c",
"84	c #f7bf0f",
"85	c #ffc50e",
"86	c #fbb610",
"87	c #ffb210",
"88	c #bb6f16",
"89	c #181a21",
"8a	c #848468",
"8b	c #bebc85",
"8c	c #5f5f69",
"8d	c #74746d",
"8e	c #e7e47d",
"8f	c #fffc7b",
"8g	c #faf670",
"8h	c #f9f566",
"8i	c #f9f55c",
"8j	c #fffb53",
"8k	c #999434",
"8l	c #201f27",
"8m	c #262626",
"8n	c #252425",
"8o	c #211f22",
"8p	c #1c1b20",
"8q	c #1a1a20",
"8r	c #a87017",
"8s	c #ffb20f",
"8t	c #4a331d",
"8u	c #31323c",
"8v	c #ebe791",
"8w	c #c6c47f",
"8x	c #ffff89",
"8y	c #fbf77f",
"8z	c #f9f576",
"90	c #f9f562",
"91	c #fffc4f",
"92	c #999326",
"93	c #1f1f27",
"94	c #242224",
"95	c #7a4b19",
"96	c #e38c13",
"97	c #141923",
"98	c #686857",
"99	c #ffff8f",
"9a	c #faf783",
"9b	c #f9f57b",
"9c	c #f9f572",
"9d	c #f9f567",
"9e	c #f9f55d",
"9f	c #f9f553",
"9g	c #fffe4a",
"9h	c #736e1b",
"9i	c #201f26",
"9j	c #242324",
"9k	c #232222",
"9l	c #222021",
"9m	c #0f1421",
"9n	c #e99313",
"9o	c #3c2e21",
"9p	c #2e2e35",
"9q	c #9e9e6c",
"9r	c #ffff83",
"9s	c #faf677",
"9t	c #f9f563",
"9u	c #f9f54f",
"9v	c #fffe34",
"9w	c #4f491f",
"9x	c #212025",
"9y	c #222022",
"9z	c #ca7f15",
"a0	c #794f1d",
"a1	c #1c1d24",
"a2	c #303139",
"a3	c #9e9c67",
"a4	c #fffb75",
"a5	c #fcf868",
"a6	c #f9f55e",
"a7	c #f9f554",
"a8	c #f9f54c",
"a9	c #fffc1f",
"aa	c #4e4a1e",
"ab	c #211f24",
"ac	c #191a20",
"ad	c #1c1c1f",
"ae	c #cd8515",
"af	c #7b531e",
"ag	c #1b1f26",
"ah	c #2d2d35",
"ai	c #666452",
"aj	c #ebe66a",
"ak	c #fffe59",
"al	c #fcf84e",
"am	c #f9f548",
"an	c #fff711",
"ao	c #353121",
"ap	c #181823",
"aq	c #161722",
"ar	c #141521",
"as	c #1d1d20",
"at	c #a16f15",
"au	c #e09b14",
"av	c #453722",
"aw	c #1e2126",
"ax	c #2e2f3b",
"ay	c #7b7853",
"az	c #d6d35b",
"b0	c #fffa34",
"b1	c #fffa0c",
"b2	c #ccb613",
"b3	c #997f15",
"b4	c #e4bc0e",
"b5	c #e6b611",
"b6	c #cf9a17",
"b7	c #5b4923",
"b8	c #1d202b",
"b9	c #2e2e38",
"ba	c #2b2c3c",
"bb	c #3c3a2f",
"bc	c #5e5529",
"bd	c #5f5526",
"be	c #3b372d",
"bf	c #20232f",
"bg	c #22242e",
"                4a4x5j5y6d6r767p                ",
"            393r4b4y5k5z6e6s777q8a8u            ",
"        2e2s3a3s4c4z5l0r0r6t787r8b8v989p        ",
"      1z2f2t3b3t4d500808++++..0u8c8w999qa2      ",
"    1l202g2u3c3u4e5108++....||7s8d8x9a9ra3ah    ",
"    1m212h2v3d3v4f52++..||||0u7t8e8y9b9sa4ai    ",
"  191n222i2w0h3w4g535m||0a0a797u8f8z9c0xa5ajax  ",
"  1a1o230h0e3e3x4h545n0a6f6u7a7v8g0x9d9ta6akay  ",
"111b1p0e2j2x0i3y4i555o606g6v7b7w8h909e0ya7alazb9",
"121c1q240i2y3f3z4j560n0b0b0n7c7x8i0y9f9ua8amb0ba",
"131d1r252k2z3g404k575p616h6w7d7y8j919g9va9anb1bb",
"141e1s262l303h414l075q626i6x0b098k929h9waaaob2bc",
"151f0d272m313i424m075r630m6y0c7z8l939i9xabapb3bd",
"161g0d0f0f0g0j064n5807646j0c7e808m0v9j0w0zaqb4be",
"171h1t0g0j32060k0l5909656k097f0v8n949k9yXXarb5bf",
"181i1u2806333j434o5a5s666l0c7g810w0z9lXX//asb6bg",
"  1j1v290k0l3k444p5b5t676m6z7h828oXXXXXXacatb7  ",
"  1k1w2a2n343l0m4q5c5u680o707i838pXXXX//adaub8  ",
"    1x2b2o353m454r5d0o696n717j848q////10aeav    ",
"    1y2c2p363n464s5e5v6a6o727k858r109m9zafaw    ",
"      2d2q373o474t5f5w6b0p737l860s959na0ag      ",
"        2r383p484u5g0p6c6p747m878s969oa1        ",
"            3q494v5h5x0s6q757n888t97            ",
"                4w5i0q0t0t0q7o89                "};