/* XPM */
static char * xpm_raise[] = {
"24 24 188 2",
"  	c None",
"XX	c #14780c",
"++	c #096f04",
"..	c #53b14c",
"||	c #289321",
"//	c #49c517",
"06	c #177f0d",
"07	c #edffc5",
"08	c #efffc6",
"09	c #a3e954",
"0a	c #a5e954",
"0b	c #4cc617",
"0c	c #3ebf18",
"0d	c #3cbc18",
"0e	c #5ace15",
"0f	c #46c318",
"0g	c #45c217",
"0h	c #41c018",
"0i	c #3fbf18",
"0j	c #3bbc18",
"0k	c #3cc019",
"0l	c #60bb4f",
"0m	c #86d36a",
"0n	c #5db84d",
"0o	c #95dc75",
"0p	c #f9ffcf",
"0q	c #9ade76",
"0r	c #c1f478",
"0s	c #9cdf77",
"0t	c #eeffc7",
"0u	c #aded5e",
"0v	c #a4ea4d",
"0w	c #9de277",
"0x	c #b2ee5e",
"0y	c #a2e84e",
"0z	c #afed65",
"10	c #cff5b3",
"11	c #a0e472",
"12	c #9ae16d",
"13	c #98df6e",
"14	c #94df71",
"15	c #91dd6e",
"16	c #8edc6e",
"17	c #8cdb6e",
"18	c #8bd96e",
"19	c #89d86e",
"1a	c #88d66c",
"1b	c #85d66c",
"1c	c #85d56c",
"1d	c #86d870",
"1e	c #2f8e2d",
"1f	c #a1e377",
"1g	c #f0ffc7",
"1h	c #b3ef5e",
"1i	c #a4e950",
"1j	c #a4e953",
"1k	c #abea62",
"1l	c #b3ef72",
"1m	c #8ee146",
"1n	c #91e24a",
"1o	c #8de14b",
"1p	c #89e04b",
"1q	c #84df4b",
"1r	c #81dd4b",
"1s	c #7fdc4b",
"1t	c #7ddc4b",
"1u	c #7dda4b",
"1v	c #78d94e",
"1w	c #79d94e",
"1x	c #75d84e",
"1y	c #7adf51",
"1z	c #289021",
"20	c #66cd4b",
"21	c #aae880",
"22	c #b5ef5d",
"23	c #a7eb50",
"24	c #a7e854",
"25	c #a2e858",
"26	c #6ad41b",
"27	c #55cb0f",
"28	c #53ca10",
"29	c #4fc912",
"2a	c #4cc712",
"2b	c #48c412",
"2c	c #46c312",
"2d	c #43c112",
"2e	c #40c013",
"2f	c #3cbe12",
"2g	c #39be13",
"2h	c #3abd13",
"2i	c #37b913",
"2j	c #3abf15",
"2k	c #147e0b",
"2l	c #6ace4e",
"2m	c #c9f49c",
"2n	c #b6ef5d",
"2o	c #aaeb4f",
"2p	c #a9ec54",
"2q	c #a3e955",
"2r	c #99e54d",
"2s	c #59cd0f",
"2t	c #5bce15",
"2u	c #58cc15",
"2v	c #53cb17",
"2w	c #50c817",
"2x	c #48c317",
"2y	c #45c218",
"2z	c #42c017",
"30	c #3fc018",
"31	c #3ec219",
"32	c #69ce4e",
"33	c #dcfda8",
"34	c #b9f05f",
"35	c #afeb4f",
"36	c #acec52",
"37	c #a9ea54",
"38	c #a5e957",
"39	c #7cd92a",
"3a	c #5cce12",
"3b	c #57cc15",
"3c	c #53c917",
"3d	c #4cc817",
"3e	c #70d14f",
"3f	c #9ee550",
"3g	c #b2ed53",
"3h	c #aaec53",
"3i	c #a7ea54",
"3j	c #a8e85a",
"3k	c #68d41a",
"3l	c #5dce14",
"3m	c #54cb17",
"3n	c #51c917",
"3o	c #4dc817",
"3p	c #4bc517",
"3q	c #6bcc54",
"3r	c #9ae453",
"3s	c #aeef54",
"3t	c #a8e954",
"3u	c #a4ea55",
"3v	c #9ce550",
"3w	c #5cd00f",
"3x	c #5ccf15",
"3y	c #59cd15",
"3z	c #56cd17",
"40	c #52ca18",
"41	c #4fc818",
"42	c #4ac718",
"43	c #4ac518",
"44	c #47c419",
"45	c #43c218",
"46	c #40c319",
"47	c #3fc219",
"48	c #3dbf19",
"49	c #3cbf19",
"4a	c #3dc319",
"4b	c #18820d",
"4c	c #68c855",
"4d	c #93e053",
"4e	c #a9eb54",
"4f	c #a4e956",
"4g	c #8ee040",
"4h	c #5dd012",
"4i	c #49be13",
"4j	c #48bd14",
"4k	c #42bb16",
"4l	c #3fb714",
"4m	c #3cb614",
"4n	c #3bb314",
"4o	c #38b214",
"4p	c #34b014",
"4q	c #33af14",
"4r	c #2fad14",
"4s	c #30ab14",
"4t	c #2ea914",
"4u	c #2da814",
"4v	c #2cab15",
"4w	c #12770b",
"4x	c #64c251",
"4y	c #8ada53",
"4z	c #abed57",
"50	c #80dd31",
"51	c #61d513",
"52	c #7ace55",
"53	c #7edd28",
"54	c #63d714",
"55	c #3dad1d",
"56	c #67dd16",
"57	c #2b9d11",
"                      2l32                      ",
"                    202m333e                    ",
"                    2107343f3q                  ",
"                  1f082n353g3r4c                ",
"                0w1g222o363h3s4d4x              ",
"              0s081h232p373i3t4e4y              ",
"            0q0t0x1i240a0a093u4f4z52            ",
"          0o070u0y1j092q383j3v4g505355          ",
"        0m0p0r0v0z1k252r393k3w4h51545657        ",
"      0l0n......101l262s3a3l3x4iXXXXXXXXXX      ",
"              ||111m272t0e0e3y4jXX              ",
"              ||121n282u3b3m3z4kXX              ",
"              ||131o292v3c3n404lXX              ",
"              XX141p2a2w3d3o414mXX              ",
"              XX151q2b0b0b3p424nXX              ",
"              XX161r2c//////434oXX              ",
"              XX171s2d2x0f0f444pXX              ",
"              ++181t2e2y0g0g454qXX              ",
"              ++191u2f2z0h0h464rXX              ",
"              ++1a1v2g300i0i474sXX              ",
"              ++1b1w2h0c0c0d484tXX              ",
"              ++1c1x2i0d0j0j494uXX              ",
"              ++1d1y2j310k0k4a4vXX              ",
"              ++1e1z2k0606064b4wXX              "};