/* XPM */
static char * xpm_red_bookmark[] = {
"24 24 185 2",
"  	c None",
"XX	c #f90000",
"++	c #e40000",
"..	c #ff3618",
"||	c #ff8662",
"//	c #ff9c94",
"06	c #df0000",
"07	c #ff6d66",
"08	c #f60000",
"09	c #ff6c66",
"0a	c #434c51",
"0b	c #ff4525",
"0c	c #ff4323",
"0d	c #ff4121",
"0e	c #ff3e1f",
"0f	c #ff4524",
"0g	c #ff391b",
"0h	c #d00000",
"0i	c #ff3b1c",
"0j	c #fd3015",
"0k	c #fd2b11",
"0l	c #fd2710",
"0m	c #de0000",
"0n	c #fd200d",
"0o	c #fc1c0c",
"0p	c #fc180a",
"0q	c #c80000",
"0r	c #940000",
"0s	c #9c0000",
"0t	c #ff1e24",
"0u	c #f80000",
"0v	c #ff331e",
"0w	c #ff562d",
"0x	c #ff5c34",
"0y	c #fe301d",
"0z	c #f10000",
"10	c #d4583f",
"11	c #aa5b4d",
"12	c #f65532",
"13	c #ff562f",
"14	c #fb2f1a",
"15	c #ed0000",
"16	c #d3583f",
"17	c #ff4f29",
"18	c #ff512a",
"19	c #f92918",
"1a	c #e70000",
"1b	c #ff1d20",
"1c	c #ff522a",
"1d	c #aa5c4c",
"1e	c #293f45",
"1f	c #ff4d26",
"1g	c #ff4b26",
"1h	c #ff4a27",
"1i	c #f82616",
"1j	c #e10000",
"1k	c #ff5b33",
"1l	c #f6512f",
"1m	c #293d44",
"1n	c #7a3d35",
"1o	c #ff4b25",
"1p	c #ff4625",
"1q	c #ff4723",
"1r	c #f62213",
"1s	c #dc0000",
"1t	c #ff9c93",
"1u	c #ff5531",
"1v	c #ff4d27",
"1w	c #ff4c25",
"1x	c #ff4a25",
"1y	c #ff401f",
"1z	c #f31d0e",
"20	c #d50000",
"21	c #ff9c92",
"22	c #ff522d",
"23	c #ff4925",
"24	c #ff3c1d",
"25	c #ff3b1b",
"26	c #f01c0c",
"27	c #f20000",
"28	c #fe998f",
"29	c #ff4b29",
"2a	c #ff4222",
"2b	c #ff4120",
"2c	c #ff3d1f",
"2d	c #ff3619",
"2e	c #ff3517",
"2f	c #ee1709",
"2g	c #ca0000",
"2h	c #ee0000",
"2i	c #fe948b",
"2j	c #ff3c1c",
"2k	c #ff371b",
"2l	c #ff3417",
"2m	c #fd3216",
"2n	c #fd2f14",
"2o	c #ff3114",
"2p	c #eb1107",
"2q	c #c40000",
"2r	c #e80000",
"2s	c #fc8c85",
"2t	c #ff4022",
"2u	c #ff3317",
"2v	c #fd2e14",
"2w	c #fd2810",
"2x	c #ff280f",
"2y	c #ea0c05",
"2z	c #bc0000",
"30	c #fb857e",
"31	c #ff3c1e",
"32	c #ff3215",
"33	c #fd2e12",
"34	c #fd250e",
"35	c #fd210d",
"36	c #ff1f0d",
"37	c #e80701",
"38	c #b60000",
"39	c #fa8077",
"3a	c #fe3519",
"3b	c #fd2d11",
"3c	c #fd2a11",
"3d	c #fd240e",
"3e	c #ff180a",
"3f	c #e50100",
"3g	c #ae0000",
"3h	c #d70000",
"3i	c #f87972",
"3j	c #ff2e15",
"3k	c #fd250f",
"3l	c #fd230e",
"3m	c #fc1509",
"3n	c #fd1108",
"3o	c #ff1008",
"3p	c #e20000",
"3q	c #a70000",
"3r	c #d20000",
"3s	c #f6736c",
"3t	c #ff2713",
"3u	c #fd1e0c",
"3v	c #fc1b0c",
"3w	c #fc170a",
"3x	c #fc1409",
"3y	c #fc1108",
"3z	c #fc0d07",
"40	c #fd0906",
"41	c #ff0706",
"42	c #9e0000",
"43	c #cb0000",
"44	c #f56966",
"45	c #ff1f10",
"46	c #fc1608",
"47	c #fc1408",
"48	c #fc1008",
"49	c #fd0c07",
"4a	c #ff0a07",
"4b	c #ff0606",
"4c	c #fd0203",
"4d	c #ff0003",
"4e	c #980000",
"4f	c #c50000",
"4g	c #f26260",
"4h	c #ff160b",
"4i	c #fc0f07",
"4j	c #fc0c07",
"4k	c #ff0807",
"4l	c #cc0000",
"4m	c #be0000",
"4n	c #f15a5a",
"4o	c #ff0f0a",
"4p	c #fc0704",
"4q	c #ff0503",
"4r	c #960000",
"4s	c #b80000",
"4t	c #ef4f54",
"4u	c #ff0605",
"4v	c #fe0001",
"4w	c #d10000",
"4x	c #af0000",
"4y	c #eb454a",
"4z	c #ff0004",
"50	c #a10000",
"51	c #a80000",
"52	c #e83942",
"53	c #a00000",
"54	c #9b0000",
"        XX1bXX                                  ",
"      XX09////XX                                ",
"    XX09//1c1k1t08                              ",
"  XX07||161d1l1u2127                            ",
"XX07||10    0a1v22282h                          ",
"0t||0w11    1m1w23292i2r                        ",
"0u0v0x120a1e1n1x0f2a0f2s++                      ",
"  080y13171f1o0b0c2b2j2t300m                    ",
"    0z14181g1p0c0d2c0i..31393h                  ",
"      15191h0b0d0e0i2k..323a3i3r                ",
"        1a1i1q0e240g..2u0j3b3j3s43              ",
"          1j1r1y0g2d2l0j333c3k3t444f            ",
"            1s1z252e2m2v0k0l3l3u454g4m          ",
"              2026..2n0k0l3d0n3v464h4n4s        ",
"                0h2f2o2w340n0o3w474i4o4t4x      ",
"                  2g2p2x350o0p3x484j4p4u4y51    ",
"                    2q2y360p3m3y494k4q4v4z5253  ",
"                      2z373e3n3z4a4l0q4w++++++0s",
"                        383f3o404b0q    50  540s",
"                          3g3p414c0h            ",
"                            3q0m4d++            ",
"                              420606            ",
"                                4e060r          ",
"                                  0r4r          "};