/* XPM */
static char * xpm_red_tag[] = {
"24 24 237 2",
"  	c None",
"XX	c #fa2419",
"++	c #fa281a",
"..	c #fa2c1c",
"||	c #fa311c",
"//	c #fa1f18",
"06	c #fa341e",
"07	c #fa1c17",
"08	c #fa1915",
"09	c #fb1414",
"0a	c #fb3b21",
"0b	c #fb1f18",
"0c	c #fb1c17",
"0d	c #fc1414",
"0e	c #fa321d",
"0f	c #fb1113",
"0g	c #fb3920",
"0h	c #fb361c",
"0i	c #fb3a21",
"0j	c #f20006",
"0k	c #fb381e",
"0l	c #fc7e63",
"0m	c #fc8b69",
"0n	c #fc886a",
"0o	c #d70509",
"0p	c #d30108",
"0q	c #d1060a",
"0r	c #d90208",
"0s	c #e72427",
"0t	c #ff7667",
"0u	c #d80407",
"0v	c #ce060b",
"0w	c #dd0206",
"0x	c #e82326",
"0y	c #ff826e",
"0z	c #fb2014",
"10	c #fd1e17",
"11	c #d5090c",
"12	c #c9050b",
"13	c #df0208",
"14	c #ea2527",
"15	c #ff8570",
"16	c #fa2416",
"17	c #fa2318",
"18	c #fd1c17",
"19	c #d2070b",
"1a	c #c20409",
"1b	c #e30209",
"1c	c #eb2528",
"1d	c #ff8a71",
"1e	c #fa2817",
"1f	c #fa2719",
"1g	c #fc1a15",
"1h	c #cf070a",
"1i	c #bd0308",
"1j	c #e50108",
"1k	c #ed2629",
"1l	c #ff8d72",
"1m	c #fa2d19",
"1n	c #fa2a1b",
"1o	c #fb1a15",
"1p	c #fd1414",
"1q	c #ca0609",
"1r	c #b90207",
"1s	c #e80309",
"1t	c #ee2c2d",
"1u	c #fe9076",
"1v	c #fa321a",
"1w	c #fa301a",
"1x	c #fc1213",
"1y	c #c70408",
"1z	c #b40307",
"20	c #eb0005",
"21	c #f35f61",
"22	c #fe9375",
"23	c #fb341c",
"24	c #fe0e13",
"25	c #c10308",
"26	c #b10305",
"27	c #ed0005",
"28	c #f45c5e",
"29	c #ffc6b4",
"2a	c #fb351a",
"2b	c #fa1113",
"2c	c #fb0e11",
"2d	c #ff0b12",
"2e	c #ac0205",
"2f	c #ef0006",
"2g	c #f65c5d",
"2h	c #fec3ae",
"2i	c #fc6a4e",
"2j	c #ff0f12",
"2k	c #d5050a",
"2l	c #af0305",
"2m	c #f75c5e",
"2n	c #fec6b1",
"2o	c #fc7b61",
"2p	c #fc6a50",
"2q	c #ff1214",
"2r	c #d6060b",
"2s	c #b20207",
"2t	c #f40007",
"2u	c #f85f5e",
"2v	c #fec6b2",
"2w	c #fc7e61",
"2x	c #fc7a61",
"2y	c #fc7056",
"2z	c #fb371d",
"30	c #ff1515",
"31	c #d9080c",
"32	c #b70206",
"33	c #f50007",
"34	c #f95f60",
"35	c #fdc8b2",
"36	c #fc8363",
"37	c #fc7b62",
"38	c #fc7e66",
"39	c #ff1b16",
"3a	c #dc0a0d",
"3b	c #bb0307",
"3c	c #f8050b",
"3d	c #fa6060",
"3e	c #fccab4",
"3f	c #fc8867",
"3g	c #fc8567",
"3h	c #fd8367",
"3i	c #fc7e65",
"3j	c #fb381f",
"3k	c #ff1e18",
"3l	c #de0c0d",
"3m	c #c10408",
"3n	c #f9131b",
"3o	c #fed6bf",
"3p	c #fc8a69",
"3q	c #fd8e6b",
"3r	c #fa6758",
"3s	c #f84841",
"3t	c #fa6357",
"3u	c #fc8068",
"3v	c #fd472c",
"3w	c #fe2119",
"3x	c #e00d10",
"3y	c #c8050a",
"3z	c #f9383c",
"40	c #feb599",
"41	c #fc8b6a",
"42	c #f84945",
"43	c #ef0008",
"44	c #e90006",
"45	c #ee2b31",
"46	c #fc583d",
"47	c #fd271a",
"48	c #e20f0f",
"49	c #cc060a",
"4a	c #fb726e",
"4b	c #fca382",
"4c	c #fc8066",
"4d	c #f2010b",
"4e	c #e70006",
"4f	c #f77265",
"4g	c #fc361b",
"4h	c #fa331e",
"4i	c #fd2b1b",
"4j	c #e41110",
"4k	c #cf060a",
"4l	c #f90007",
"4m	c #fb9b90",
"4n	c #fe9777",
"4o	c #fc7c68",
"4p	c #f46c6a",
"4q	c #fd4728",
"4r	c #fa321c",
"4s	c #fd2f1e",
"4t	c #e51211",
"4u	c #d4050c",
"4v	c #f80007",
"4w	c #feb5a7",
"4x	c #fc8d6a",
"4y	c #fd876c",
"4z	c #f2040e",
"50	c #e70002",
"51	c #f88e89",
"52	c #fd6246",
"53	c #fa311b",
"54	c #fd351d",
"55	c #e71110",
"56	c #d7060c",
"57	c #f70610",
"58	c #fdccb5",
"59	c #fc8e6d",
"5a	c #f9544b",
"5b	c #f0050f",
"5c	c #ed0002",
"5d	c #ea0003",
"5e	c #f2595b",
"5f	c #febda9",
"5g	c #fd6c53",
"5h	c #fc331a",
"5i	c #e81211",
"5j	c #da050c",
"5k	c #f70711",
"5l	c #fec6ad",
"5m	c #fc8c6a",
"5n	c #fd9e86",
"5o	c #fba89e",
"5p	c #fcb3a8",
"5q	c #feb8a4",
"5r	c #fc7d62",
"5s	c #ff7e62",
"5t	c #ed2423",
"5u	c #de0509",
"5v	c #f9040c",
"5w	c #fb7d71",
"5x	c #fc9570",
"5y	c #fc8868",
"5z	c #fc8465",
"60	c #fd8062",
"61	c #fd7c60",
"62	c #fd7b5f",
"63	c #fd7a61",
"64	c #f24542",
"65	c #e0030c",
"66	c #f8060e",
"67	c #fc6c5f",
"68	c #fd9673",
"69	c #fd9470",
"6a	c #fb7765",
"6b	c #fa6759",
"6c	c #f74a42",
"6d	c #ef2a2e",
"6e	c #e9151e",
"6f	c #e30108",
"6g	c #f5050c",
"6h	c #f40a14",
"6i	c #f20a13",
"6j	c #ef020a",
"6k	c #ed0208",
"                                  4l4v575k5v    ",
"                          3c3n3z4a4m4w585l5w66  ",
"                        333d3o404b4n4x0m5m5x676g",
"                      2t343e3p414c4o4y590n0n686h",
"                    0j2u353f3q424d0j4z5a0m5y696i",
"                  2f2m2v363g3r43      5b5n5z6a6j",
"                272g2n2w0l3h3s        5c5o606b6k",
"              20282h2o2x370l3t44      5d5p616c  ",
"            1s21292i2p2y383i3u454e  505e5q626d  ",
"          1j1t222a0h0k2z0h3j3v464f4p515f5r636e  ",
"        1b1k1u230g0i0a0a0a0i0g0k4g4q525g5s646f  ",
"      131c1l1v0e06060606060606064h0e535h5t65    ",
"    0w141d1m1w||||||||||||||||||||4r545i5u      ",
"  0r0x151e1n......................4s555j        ",
"0o0s0y161f++++++++++++++++++++++4i4t56          ",
"0p0t0z17XXXXXXXXXXXXXXXXXXXXXX474j4u            ",
"0q0u100b//////////////////0b3w484k              ",
"  0v11180c070707070707070c3k3x49                ",
"    12191g1o080808080808393l3y                  ",
"      1a1h1p0d0909090d303a3m                    ",
"        1i1q1x0f2b0f2q313b                      ",
"          1r1y242c2j2r32                        ",
"            1z252d2k2s                          ",
"              262e2l                            "};