/* XPM */
static char * xpm_red_pin[] = {
"24 24 185 2",
"  	c None",
"XX	c #f60c12",
"++	c #f73f25",
"..	c #c9cbcd",
"||	c #6a6b6f",
"//	c #f84229",
"06	c #fd9f75",
"07	c #f7301d",
"08	c #f84227",
"09	c #f61d17",
"0a	c #f61615",
"0b	c #f61213",
"0c	c #fa734c",
"0d	c #fa774e",
"0e	c #e40f12",
"0f	c #f70b11",
"0g	c #b3b4b9",
"0h	c #c2c3c7",
"0i	c #b9bbbf",
"0j	c #bfc0c4",
"0k	c #c0c1c3",
"0l	c #b6b7bb",
"0m	c #68696d",
"0n	c #c2c4c7",
"0o	c #aeaeb2",
"0p	c #65676a",
"0q	c #f95834",
"0r	c #f96441",
"0s	c #f96742",
"0t	c #f9603b",
"0u	c #a2a3a6",
"0v	c #66696a",
"0w	c #f9502f",
"0x	c #f9633e",
"0y	c #fa7954",
"0z	c #fa8560",
"10	c #f96d48",
"11	c #f95532",
"12	c #ff4021",
"13	c #cdd0d2",
"14	c #979a9f",
"15	c #f94f2d",
"16	c #f9633f",
"17	c #f9835d",
"18	c #fa9e7e",
"19	c #f97553",
"1a	c #f95837",
"1b	c #fb4226",
"1c	c #fa4d31",
"1d	c #8b9599",
"1e	c #5e6f73",
"1f	c #f84a2b",
"1g	c #f95836",
"1h	c #f96847",
"1i	c #fa744f",
"1j	c #f96442",
"1k	c #f95230",
"1l	c #f9311b",
"1m	c #ee2b1c",
"1n	c #f83620",
"1o	c #f84629",
"1p	c #f7502f",
"1q	c #f85f3d",
"1r	c #f73e23",
"1s	c #f83921",
"1t	c #f72e1d",
"1u	c #f72118",
"1v	c #f83e25",
"1w	c #f95b35",
"1x	c #fb996e",
"1y	c #f95f3c",
"1z	c #f9331e",
"20	c #f72519",
"21	c #f61c17",
"22	c #f61314",
"23	c #f95733",
"24	c #fb9468",
"25	c #fd9e73",
"26	c #fa7048",
"27	c #f54d2d",
"28	c #ef301c",
"29	c #f82217",
"2a	c #f61715",
"2b	c #f61113",
"2c	c #f95632",
"2d	c #fb9165",
"2e	c #fa7147",
"2f	c #f64e2e",
"2g	c #f03a22",
"2h	c #ea2719",
"2i	c #f51a17",
"2j	c #f95330",
"2k	c #fb8f63",
"2l	c #fda276",
"2m	c #fa734b",
"2n	c #f6512f",
"2o	c #f03d23",
"2p	c #eb2819",
"2q	c #e61814",
"2r	c #ed1113",
"2s	c #f71013",
"2t	c #f84428",
"2u	c #f9522e",
"2v	c #fa7a4f",
"2w	c #fa6d47",
"2x	c #fa8c60",
"2y	c #fda378",
"2z	c #f65330",
"30	c #f03c23",
"31	c #eb291a",
"32	c #e71915",
"33	c #e40e12",
"34	c #ec0b11",
"35	c #f70d12",
"36	c #f71a1e",
"37	c #f71e21",
"38	c #f8403b",
"39	c #fca586",
"3a	c #fcad85",
"3b	c #fb9064",
"3c	c #f75431",
"3d	c #f13d24",
"3e	c #eb2a1a",
"3f	c #e71b14",
"3g	c #e40a0f",
"3h	c #f30c11",
"3i	c #f60c13",
"3j	c #f6090f",
"3k	c #f60a10",
"3l	c #f6080e",
"3m	c #f50b0e",
"3n	c #fa7660",
"3o	c #f9532f",
"3p	c #f03e24",
"3q	c #ec2a1a",
"3r	c #e81b16",
"3s	c #e40b0f",
"3t	c #f60a11",
"3u	c #f61013",
"3v	c #f61414",
"3w	c #f61716",
"3x	c #f51510",
"3y	c #fa7c60",
"3z	c #f9482a",
"40	c #ef311d",
"41	c #e71c15",
"42	c #e31112",
"43	c #f60d12",
"44	c #f61214",
"45	c #f61b17",
"46	c #f62219",
"47	c #f7291a",
"48	c #f8321c",
"49	c #fa654b",
"4a	c #f72c1a",
"4b	c #e31011",
"4c	c #f61816",
"4d	c #f72419",
"4e	c #f72d1c",
"4f	c #f73520",
"4g	c #f83b22",
"4h	c #fa5b45",
"4i	c #f61c15",
"4j	c #f62017",
"4k	c #f7281a",
"4l	c #f83721",
"4m	c #f84729",
"4n	c #fa593a",
"4o	c #f72122",
"4p	c #f72e21",
"4q	c #f7311d",
"4r	c #f83922",
"4s	c #f84a2c",
"4t	c #f95631",
"4u	c #fa6044",
"4v	c #f5191e",
"4w	c #f84327",
"4x	c #f94e2d",
"4y	c #f95734",
"4z	c #f9623d",
"50	c #fa6b4c",
"51	c #f50710",
"52	c #f9603d",
"53	c #f9663f",
"54	c #f83433",
"                                3i3t430b        ",
"                              363jXX444c4j4p    ",
"                            2t373k3u0a094k4q//  ",
"                            2u383l3v454d074r4w  ",
"                            2v393m3w464e4l084x52",
"                            2w3a3n3x474f++4s4y53",
"                          2j2x3b0c3y484g4m4t4z0d",
"                  1n  082c2k2y0d3o3z494h4n4u5054",
"            0w151f++1v232d2l0c3c3p404a4i4o4v51  ",
"          0q0x161g1o1w24062m2z3d3q414b          ",
"          0r0y171h1p1x252e2n303e3r42            ",
"          0s0z181i1q06262f2o313f0e              ",
"          0t10191j1r1y272g2p320e3s              ",
"            111a1k//1z282h2q333gXX              ",
"            121b++1s07292i2r343h0f              ",
"              1c1l1t20090a2s350fXX              ",
"            131d1m1u212a0bXXXXXXXX              ",
"          ..141e    222bXXXXXXXX                ",
"        0n0u||          XXXXXX                  ",
"      0k0o0v                                    ",
"    0i0l0p                                      ",
"  0g0j0m                                        ",
"  0h||                                          ",
"..                                              "};