/* XPM */
static char * xpm_redo[] = {
"24 24 234 2",
"  	c None",
"XX	c #1660c4",
"++	c #0d5ec4",
"..	c #1d9be6",
"||	c #89e6fe",
"//	c #6bd8fa",
"06	c #64d3f8",
"07	c #75ddfb",
"08	c #6cd8fa",
"09	c #7ce2fc",
"0a	c #83e3fc",
"0b	c #2483d6",
"0c	c #88e6fd",
"0d	c #85e5fd",
"0e	c #1d8adf",
"0f	c #8ae7fd",
"0g	c #9fe3f9",
"0h	c #0486df",
"0i	c #003aa3",
"0j	c #003da8",
"0k	c #32b4f1",
"0l	c #31b4f1",
"0m	c #37b9f2",
"0n	c #3fbef3",
"0o	c #35b7f2",
"0p	c #2dacee",
"0q	c #33b2ef",
"0r	c #6dd2f6",
"0s	c #79dcfa",
"0t	c #67d5f9",
"0u	c #62d1f7",
"0v	c #2fafee",
"0w	c #26a1ea",
"0x	c #67ccf3",
"0y	c #a1e9fe",
"0z	c #76defc",
"10	c #60d0f7",
"11	c #2ba6eb",
"12	c #2199e7",
"13	c #80d7f5",
"14	c #9beafe",
"15	c #7ae1fc",
"16	c #65d4f8",
"17	c #62d3f7",
"18	c #279de8",
"19	c #187fde",
"1a	c #2195e4",
"1b	c #64c6f2",
"1c	c #adefff",
"1d	c #81e3fc",
"1e	c #77dffc",
"1f	c #71ddfc",
"1g	c #5acdf6",
"1h	c #43b9f0",
"1i	c #2496e4",
"1j	c #0c5fcc",
"1k	c #52b6eb",
"1l	c #197dd9",
"1m	c #1f93e3",
"1n	c #cbf5ff",
"1o	c #85e6fd",
"1p	c #7fe3fd",
"1q	c #69d7f8",
"1r	c #2495e4",
"1s	c #208ee0",
"1t	c #248ee2",
"1u	c #228de1",
"1v	c #0b51bf",
"1w	c #46baec",
"1x	c #0974d7",
"1y	c #2187db",
"1z	c #1a86dc",
"20	c #7ad0f3",
"21	c #a0ecff",
"22	c #6ddbf9",
"23	c #72d2f3",
"24	c #037edd",
"25	c #1382dd",
"26	c #1179d6",
"27	c #cbf3ff",
"28	c #88e7ff",
"29	c #8beafe",
"2a	c #1568ca",
"2b	c #a7e9ff",
"2c	c #0a80dd",
"2d	c #0686e0",
"2e	c #0086df",
"2f	c #1a82dc",
"2g	c #2088da",
"2h	c #cff8ff",
"2i	c #88e6fe",
"2j	c #8be8fe",
"2k	c #67d5f7",
"2l	c #1574d3",
"2m	c #0b5cc3",
"2n	c #b3ebfe",
"2o	c #0f89e0",
"2p	c #0d8ce3",
"2q	c #088ce2",
"2r	c #0089e1",
"2s	c #028ae2",
"2t	c #1b7dd4",
"2u	c #359adf",
"2v	c #c2f4ff",
"2w	c #8de9fe",
"2x	c #4cbeef",
"2y	c #0b5cc1",
"2z	c #51c0f2",
"30	c #1594e6",
"31	c #1496e6",
"32	c #0f95e5",
"33	c #0890e4",
"34	c #008ae3",
"35	c #008ce2",
"36	c #1b73ce",
"37	c #3294dd",
"38	c #c3f5ff",
"39	c #8eeafe",
"3a	c #49baee",
"3b	c #1163c8",
"3c	c #8cd9f5",
"3d	c #37aaea",
"3e	c #5cc7f3",
"3f	c #149be8",
"3g	c #1098e7",
"3h	c #0793e5",
"3i	c #0386df",
"3j	c #0585de",
"3k	c #0f77d5",
"3l	c #176bcb",
"3m	c #1772cf",
"3n	c #c5f7ff",
"3o	c #8ce8fe",
"3p	c #65d2f5",
"3q	c #0d5cc4",
"3r	c #8edbf6",
"3s	c #119de8",
"3t	c #1099e7",
"3u	c #0795e6",
"3v	c #0356bf",
"3w	c #bef3ff",
"3x	c #8ae8ff",
"3y	c #8dedff",
"3z	c #0e66cb",
"40	c #2b84d7",
"41	c #56caf5",
"42	c #149ee8",
"43	c #109ae8",
"44	c #098ce1",
"45	c #125fc2",
"46	c #0954ba",
"47	c #6abdec",
"48	c #96eeff",
"49	c #0a57be",
"4a	c #0f5abf",
"4b	c #6acbf4",
"4c	c #1ea5ec",
"4d	c #17a0e9",
"4e	c #0f9ce9",
"4f	c #0d71d1",
"4g	c #0451bb",
"4h	c #bbf7ff",
"4i	c #88e7fe",
"4j	c #80e5fe",
"4k	c #60d2f8",
"4l	c #0959bf",
"4m	c #044ab4",
"4n	c #064bb4",
"4o	c #1364c5",
"4p	c #5bc4f2",
"4q	c #28afef",
"4r	c #22a7ec",
"4s	c #18a1ea",
"4t	c #1099e9",
"4u	c #0b53b8",
"4v	c #0348b1",
"4w	c #3e99df",
"4x	c #a7f4ff",
"4y	c #82e4fc",
"4z	c #78e0fc",
"50	c #74e2fe",
"51	c #52c6f4",
"52	c #2d98e3",
"53	c #2994e2",
"54	c #39b6f0",
"55	c #44c3f6",
"56	c #34b7f1",
"57	c #2bafee",
"58	c #24a8ed",
"59	c #19a8ed",
"5a	c #0a61c7",
"5b	c #094db3",
"5c	c #003ba8",
"5d	c #52b0e7",
"5e	c #94efff",
"5f	c #7ce3fd",
"5g	c #66d5f9",
"5h	c #61d2f8",
"5i	c #55ccf7",
"5j	c #49c4f4",
"5k	c #41bcf2",
"5l	c #35b6f0",
"5m	c #2db0ef",
"5n	c #25b0f1",
"5o	c #0c64c8",
"5p	c #0543ab",
"5q	c #0036a3",
"5r	c #318ed7",
"5s	c #92edff",
"5t	c #7ae4fe",
"5u	c #6edafb",
"5v	c #5ecef6",
"5w	c #52c8f5",
"5x	c #48c2f3",
"5y	c #41bef3",
"5z	c #37bbf3",
"60	c #2cb4f2",
"61	c #0959c2",
"62	c #023ea6",
"63	c #339ce2",
"64	c #5fd6fa",
"65	c #6ddffe",
"66	c #64d7fa",
"67	c #58d0f9",
"68	c #4eccf8",
"69	c #38b8f2",
"6a	c #157bd6",
"6b	c #0035a0",
"6c	c #0047b1",
"6d	c #0c5dbe",
"6e	c #095bbf",
"6f	c #0246b0",
"6g	c #0037a0",
"6h	c #003ca3",
"                1z262g2u373m3v46                ",
"            1a1m20272h2v383n3w474g4v            ",
"          121b1n21282i||||||3x484h4w5c          ",
"        0w131c1o0c0f2j2w393o0f0c4i4x5d5q        ",
"      0p0x141d0a0d292k2x3a3p3y0d0a4y5e5r0i      ",
"      0q0y15091p220e2l    3q3z//4j095f5s0j      ",
"    0k0r0z071e1q0e            494k4z075t630i    ",
"    0l0s//081f1r                4l50085u646b    ",
"    0m0t06161g1s                4m515g06656c    ",
"    0n0u10171h1t                  525h5v666d    ",
"    0o0v11181i1u                  535i5w676e    ",
"                        3b++    4n545j5x686f    ",
"                      2y0g++    4o555k5y696g    ",
"                    2m0g3c++  4a4p565l5z6a6h    ",
"                  2a2n2z3d++404b4q575m600j      ",
"              1v0b2b..303e3r414c4r585n61        ",
"            1j0b23..2o313f3s424d4s595o62        ",
"          191k1w..2c2p323g3t434e4t5a5p          ",
"            1l1x242d2q333h3u444f4u5b            ",
"              1y252e2r343iXX45                  ",
"                  2f2s353jXX                    ",
"                    2t0h0hXX                    ",
"                      363kXX                    ",
"                        3lXX                    "};