/* XPM */
static char * xpm_refresh[] = {
"24 24 368 2",
"  	c None",
"XX	c #004ea9",
"++	c #0093df",
"..	c #004aa6",
"||	c #0198e3",
"//	c #41b8ef",
"06	c #60b0e3",
"07	c #149ee3",
"08	c #0695e0",
"09	c #0097e2",
"0a	c #004ba7",
"0b	c #199fe4",
"0c	c #3288cf",
"0d	c #0a99e2",
"0e	c #0192df",
"0f	c #0194e0",
"0g	c #017cd1",
"0h	c #0194df",
"0i	c #36afea",
"0j	c #0493e0",
"0k	c #40b5ed",
"0l	c #0193df",
"0m	c #77d4f8",
"0n	c #80dafa",
"0o	c #88dffc",
"0p	c #6ecef4",
"0q	c #6dcff6",
"0r	c #3bb6ef",
"0s	c #38b5ef",
"0t	c #1869bf",
"0u	c #1371c7",
"0v	c #126fc5",
"0w	c #0f6bc3",
"0x	c #0d69c2",
"0y	c #0a66c1",
"0z	c #0965bd",
"10	c #0661bc",
"11	c #035fbb",
"12	c #005bb5",
"13	c #2276c4",
"14	c #004ba8",
"15	c #0755af",
"16	c #0450ac",
"17	c #1872c8",
"18	c #12a4e8",
"19	c #0e9de5",
"1a	c #0c9ce5",
"1b	c #099ce3",
"1c	c #099ce2",
"1d	c #0699e2",
"1e	c #0195e2",
"1f	c #2bb3eb",
"1g	c #096dc5",
"1h	c #0185d6",
"1i	c #0168c2",
"1j	c #1a6dc2",
"1k	c #1b88d7",
"1l	c #1ba4e7",
"1m	c #189fe4",
"1n	c #129ce3",
"1o	c #0f9ae3",
"1p	c #63caf0",
"1q	c #0b86d4",
"1r	c #0397e2",
"1s	c #0191df",
"1t	c #0061bc",
"1u	c #1a6bc1",
"1v	c #1f9ae1",
"1w	c #23a5e7",
"1x	c #1ea2e6",
"1y	c #1ba1e5",
"1z	c #0d9ae3",
"20	c #9fe1f8",
"21	c #1460b9",
"22	c #1599e3",
"23	c #2478cb",
"24	c #35a7e7",
"25	c #2cabe9",
"26	c #29a8e7",
"27	c #27a7e7",
"28	c #23a4e7",
"29	c #1ca3e5",
"2a	c #caf0ff",
"2b	c #196ec3",
"2c	c #1fa8e9",
"2d	c #129de3",
"2e	c #0694e0",
"2f	c #0197e1",
"2g	c #1e78cb",
"2h	c #43a9e5",
"2i	c #39b3ec",
"2j	c #35aeea",
"2k	c #31ade9",
"2l	c #2aa9e7",
"2m	c #5dc5ef",
"2n	c #96d4f2",
"2o	c #085ab7",
"2p	c #1e77ca",
"2q	c #24a0e4",
"2r	c #1ba6e8",
"2s	c #0f9be4",
"2t	c #0061bd",
"2u	c #2383d2",
"2v	c #43a0df",
"2w	c #43baef",
"2x	c #3eb3ed",
"2y	c #36b0ea",
"2z	c #36afeb",
"30	c #31abea",
"31	c #90d8f6",
"32	c #67b1e5",
"33	c #186bc3",
"34	c #1765bd",
"35	c #176ec5",
"36	c #1697e1",
"37	c #0b9be2",
"38	c #0394e0",
"39	c #0190df",
"3a	c #0049a6",
"3b	c #2183d4",
"3c	c #6dcbf3",
"3d	c #4abcee",
"3e	c #48baee",
"3f	c #40b6ed",
"3g	c #a1dff9",
"3h	c #7ccff2",
"3i	c #32b0ec",
"3j	c #beebfd",
"3k	c #368fd5",
"3l	c #1464bb",
"3m	c #1496e0",
"3n	c #0197e2",
"3o	c #0068c2",
"3p	c #6abbe9",
"3q	c #5cc6f2",
"3r	c #52c0f0",
"3s	c #4ebef0",
"3t	c #6dccf4",
"3u	c #77bee9",
"3v	c #1a78cc",
"3w	c #7fd5f5",
"3x	c #c7edfe",
"3y	c #0d67c2",
"3z	c #1366be",
"40	c #13a1e7",
"41	c #0195e0",
"42	c #0181d4",
"43	c #004ca8",
"44	c #2891dc",
"45	c #85d0f3",
"46	c #59c7f2",
"47	c #5ac5f2",
"48	c #52c2f0",
"49	c #a9e4f9",
"4a	c #2283d2",
"4b	c #4fa5df",
"4c	c #9edaf5",
"4d	c #1771c7",
"4e	c #1462bb",
"4f	c #178edb",
"4g	c #0e9be4",
"4h	c #019ae4",
"4i	c #2c95de",
"4j	c #99dff8",
"4k	c #60c9f4",
"4l	c #63c9f4",
"4m	c #5dc7f3",
"4n	c #8fcff2",
"4o	c #2083d4",
"4p	c #1f7dd0",
"4q	c #328fd7",
"4r	c #2d90d9",
"4s	c #16a1e5",
"4t	c #0a99e1",
"4u	c #0193e0",
"4v	c #004daa",
"4w	c #2b98e1",
"4x	c #a9e5fb",
"4y	c #67ccf4",
"4z	c #6acdf5",
"50	c #68ccf5",
"51	c #76c3ec",
"52	c #2483d2",
"53	c #3286ce",
"54	c #1ea6e8",
"55	c #0a98e0",
"56	c #0261bb",
"57	c #5bb9ed",
"58	c #abe5fc",
"59	c #6ed1f7",
"5a	c #71d2f6",
"5b	c #71d1f7",
"5c	c #4daae5",
"5d	c #227ecf",
"5e	c #63ade2",
"5f	c #25a9e8",
"5g	c #1da2e5",
"5h	c #0f9ce3",
"5i	c #069ae4",
"5j	c #074fac",
"5k	c #38a9e7",
"5l	c #bcebfe",
"5m	c #73d5f7",
"5n	c #76d5f8",
"5o	c #5ebeee",
"5p	c #3492d9",
"5q	c #1e7dcd",
"5r	c #156cc5",
"5s	c #80c6ec",
"5t	c #2cace9",
"5u	c #25a7e7",
"5v	c #0d9ae4",
"5w	c #0954b0",
"5x	c #34a9e8",
"5y	c #d8f3ff",
"5z	c #78d7f8",
"60	c #7dd8f9",
"61	c #7dd8fa",
"62	c #64c9f1",
"63	c #2f98de",
"64	c #2186d6",
"65	c #a6def6",
"66	c #52a8e1",
"67	c #1c77ca",
"68	c #9edef9",
"69	c #34afea",
"6a	c #2eabe8",
"6b	c #22a7e7",
"6c	c #158ddb",
"6d	c #0c5ab4",
"6e	c #38aeec",
"6f	c #afe3fa",
"6g	c #98e0fb",
"6h	c #7fdafa",
"6i	c #85defc",
"6j	c #38a3e4",
"6k	c #1e87d6",
"6l	c #d3f1ff",
"6m	c #96dffa",
"6n	c #1c7cce",
"6o	c #76bee9",
"6p	c #68cbf2",
"6q	c #3eb4ed",
"6r	c #2baeea",
"6s	c #177cce",
"6t	c #79cff4",
"6u	c #cdefff",
"6v	c #83ddfb",
"6w	c #85ddfb",
"6x	c #87defb",
"6y	c #79d7f7",
"6z	c #329fe3",
"70	c #4dade6",
"71	c #d1effe",
"72	c #5fcbf5",
"73	c #91d8f5",
"74	c #ace5fc",
"75	c #4abdef",
"76	c #47b9ee",
"77	c #3eb5ec",
"78	c #33aaea",
"79	c #155fbb",
"7a	c #38b4ef",
"7b	c #d4f0fe",
"7c	c #a3e7fd",
"7d	c #8be0fc",
"7e	c #8de1fd",
"7f	c #7ddafa",
"7g	c #3eabe7",
"7h	c #2f9ce1",
"7i	c #339ce0",
"7j	c #82ccf1",
"7k	c #b7e8fe",
"7l	c #6dcff5",
"7m	c #66caf4",
"7n	c #5ac7f2",
"7o	c #56c3f1",
"7p	c #50bff0",
"7q	c #46bdf1",
"7r	c #2282d1",
"7s	c #1769c1",
"7t	c #def5ff",
"7u	c #9be4fd",
"7v	c #8ce0fc",
"7w	c #8ee0fc",
"7x	c #8fe1fc",
"7y	c #91e4fe",
"7z	c #81ddfa",
"80	c #42ade7",
"81	c #2c99e1",
"82	c #b6e4fa",
"83	c #9ee1fc",
"84	c #71d2f7",
"85	c #66cbf4",
"86	c #5ec7f3",
"87	c #56c5f3",
"88	c #3ba6e4",
"89	c #1b6ec5",
"8a	c #aae4fb",
"8b	c #d3f2ff",
"8c	c #9be5fe",
"8d	c #8fe2fd",
"8e	c #92e3fd",
"8f	c #91e4fc",
"8g	c #96e6fe",
"8h	c #3eaae8",
"8i	c #34a5e5",
"8j	c #e3f6ff",
"8k	c #80dbfa",
"8l	c #7ad7f9",
"8m	c #73d2f7",
"8n	c #6bcef5",
"8o	c #65cbf5",
"8p	c #51bbee",
"8q	c #1f7acc",
"8r	c #aae3fb",
"8s	c #dff5ff",
"8t	c #aae8fe",
"8u	c #8fe3fe",
"8v	c #92e5fe",
"8w	c #8ee3fc",
"8x	c #34a6e6",
"8y	c #66c3ef",
"8z	c #d2f2ff",
"90	c #81dcfb",
"91	c #78d6f9",
"92	c #72d2f6",
"93	c #6bcef6",
"94	c #54baee",
"95	c #1d79cc",
"96	c #d5f0ff",
"97	c #d1f2ff",
"98	c #b0eaff",
"99	c #73d5f9",
"9a	c #99dbf6",
"9b	c #beecff",
"9c	c #85dcfa",
"9d	c #7fd9f9",
"9e	c #72d0f6",
"9f	c #40a9e5",
"9g	c #207ccd",
"9h	c #7cd4f6",
"9i	c #bae8fc",
"9j	c #75d0f4",
"9k	c #ceeefe",
"9l	c #afebff",
"9m	c #92e4fd",
"9n	c #90e3fe",
"9o	c #89dffc",
"9p	c #82dcfb",
"9q	c #79d7f9",
"9r	c #72d4f8",
"9s	c #6fd6f9",
"9t	c #2c8ed8",
"9u	c #40b8ef",
"9v	c #3eb7ef",
"9w	c #41b7f0",
"9x	c #64c6f2",
"9y	c #4bbbef",
"9z	c #4ab7ed",
"a0	c #46b1ea",
"a1	c #44ade8",
"a2	c #3fa9e5",
"a3	c #3ca4e3",
"a4	c #379ee1",
"a5	c #3699df",
"a6	c #2e93db",
"a7	c #237ecf",
"                  444i4w575k5x6e0k              ",
"0t          2u3b3p454j4x585l5y6f6t7a//          ",
"0u171j    2g2v3c3q464k4y595m5z6g6u7b0p0r        ",
"0v181k1u232h2w3d3r474l4z5a0m606h6v7c7t8a0s      ",
"0w191l1v242i0k3e3s484m505b5n610n6w0o7u8b8r0r    ",
"0x1a1m1w250i2x3f3t494n515c5o626i6x7d7v8c8s0p//  ",
"0y1b071x262j2y3g3u4a4o      636j6y7e7w8d8t960s  ",
"0z1c1n1y272k2z3h3v              6z7f7x8e8u979h9u",
"101d1o0b282l303i3w4b4p            7g7y8f8v989i9v",
"111e081z292m313j3x4c4q52          7h7z8g8w999j//",
"121f1p202a2n323k3y4d              7i808h8x      ",
"1306060c0c2o                                  9w",
"14                                  818i8y9a9k9x",
"      212b2p33              646k707j828j8z9b9l9y",
"151g1q222c2q34          5d5p656l717k838k900o9m9z",
"161h1r0d2d2r35            5q666m727l848l0n9c9na0",
"XX1i090e2e2s363l              6n737m0q8m919d9oa1",
"  ..1s0f++0j373m3z4e      5r676o747n858n920m9pa2",
"  XX1t||0h++380d404f4r535e5s686p757o868o939e9qa3",
"    0a0g2f0h0l0e084g4s545f5t696q767p878p940q9ra4",
"      ..0g||0f0l++0j4t075g5u6a0i777q888q959f9sa5",
"        0a2t393n41++4u555h0b6b6r787r89    9g9ta6",
"          XX3a3o424h||095i5v6c6s797s          a7",
"              XX43..4v565j5w6d                  "};