/* XPM */
static char * xpm_repair[] = {
"24 24 189 2",
"  	c None",
"XX	c #f72a1b",
"++	c #f73620",
"..	c #f72f1c",
"||	c #f72e1c",
"//	c #f7291b",
"06	c #ed1e16",
"07	c #f7311d",
"08	c #f62218",
"09	c #d81d1f",
"0a	c #e44441",
"0b	c #ee6a5f",
"0c	c #ee6156",
"0d	c #b10004",
"0e	c #e94944",
"0f	c #ff947c",
"0g	c #f94e36",
"0h	c #fd3019",
"0i	c #db120d",
"0j	c #de2325",
"0k	c #ff957c",
"0l	c #f63119",
"0m	c #fa331d",
"0n	c #da1611",
"0o	c #f78173",
"0p	c #f8311d",
"0q	c #e31a13",
"0r	c #ba1315",
"0s	c #ce0007",
"0t	c #fe8970",
"0u	c #f72d18",
"0v	c #fa412d",
"0w	c #dd3030",
"0x	c #e64a49",
"0y	c #e43331",
"0z	c #cc0008",
"10	c #fc775c",
"11	c #f72b18",
"12	c #f82819",
"13	c #fb3929",
"14	c #da2e2e",
"15	c #e44946",
"16	c #ff5c53",
"17	c #e30d0a",
"18	c #c60008",
"19	c #fb7762",
"1a	c #f82917",
"1b	c #f82217",
"1c	c #fa3024",
"1d	c #ea5956",
"1e	c #fc5c53",
"1f	c #f9120f",
"1g	c #d90e0e",
"1h	c #f15950",
"1i	c #e7584c",
"1j	c #e01710",
"1k	c #fc2c1c",
"1l	c #f8251a",
"1m	c #f62217",
"1n	c #f61e17",
"1o	c #f71813",
"1p	c #f71612",
"1q	c #fc1816",
"1r	c #c10809",
"1s	c #f15a52",
"1t	c #ea574e",
"1u	c #a70004",
"1v	c #a00005",
"1w	c #dd1711",
"1x	c #f82319",
"1y	c #f62118",
"1z	c #f61d17",
"20	c #f71a16",
"21	c #fb1916",
"22	c #e51010",
"23	c #f25a52",
"24	c #ed574e",
"25	c #b80005",
"26	c #b80509",
"27	c #ac0308",
"28	c #cf0e0d",
"29	c #fa2119",
"2a	c #fc1f18",
"2b	c #fc1c17",
"2c	c #fa1917",
"2d	c #d80d0d",
"2e	c #f15b52",
"2f	c #ef5a4f",
"2g	c #c70005",
"2h	c #c6070a",
"2i	c #bc060a",
"2j	c #d61010",
"2k	c #df1311",
"2l	c #b40408",
"2m	c #bf070b",
"2n	c #bb080a",
"2o	c #f25b53",
"2p	c #f25b52",
"2q	c #d30007",
"2r	c #d2070d",
"2s	c #ca070b",
"2t	c #dc1210",
"2u	c #ed1a15",
"2v	c #f15c53",
"2w	c #f55b53",
"2x	c #de0006",
"2y	c #db080f",
"2z	c #d5080e",
"30	c #e21211",
"31	c #ec1a15",
"32	c #ed1e22",
"33	c #eb2023",
"34	c #dd0009",
"35	c #ef4541",
"36	c #f85e54",
"37	c #e90107",
"38	c #e6090e",
"39	c #e0090e",
"3a	c #e91414",
"3b	c #ef1e16",
"3c	c #f74b45",
"3d	c #fb9985",
"3e	c #fa7b5f",
"3f	c #fa6a51",
"3g	c #f96d56",
"3h	c #f95a4d",
"3i	c #f00008",
"3j	c #ee0a10",
"3k	c #e90a0f",
"3l	c #ee1413",
"3m	c #ee1c16",
"3n	c #f8675b",
"3o	c #fa7e63",
"3p	c #f6371f",
"3q	c #f6321b",
"3r	c #f7311b",
"3s	c #f7301a",
"3t	c #f62718",
"3u	c #f30910",
"3v	c #f10810",
"3w	c #f31514",
"3x	c #f5292b",
"3y	c #fb9175",
"3z	c #f63218",
"40	c #f73820",
"41	c #f7331e",
"42	c #f6241a",
"43	c #f61a16",
"44	c #f75751",
"45	c #f84e33",
"46	c #f73a21",
"47	c #f4291c",
"48	c #f83720",
"49	c #f82419",
"4a	c #f87063",
"4b	c #f7371c",
"4c	c #f5261b",
"4d	c #ef1916",
"4e	c #f9321d",
"4f	c #f72b1b",
"4g	c #f7251a",
"4h	c #f92419",
"4i	c #d0050c",
"4j	c #f8655d",
"4k	c #f42517",
"4l	c #eb1714",
"4m	c #f82a1a",
"4n	c #f72519",
"4o	c #f92319",
"4p	c #d0060c",
"4q	c #f21f20",
"4r	c #ef3c3a",
"4s	c #f82b21",
"4t	c #f72117",
"4u	c #f31a16",
"4v	c #ee3435",
"4w	c #fc8372",
"4x	c #f91f18",
"4y	c #de0e11",
"4z	c #f03738",
"50	c #fc8373",
"51	c #f71e14",
"52	c #f91e18",
"53	c #e81212",
"54	c #e6050c",
"55	c #f34d49",
"56	c #f11712",
"57	c #ea1211",
"58	c #dd0c0f",
"                                3x444a4j4q      ",
"                              3n3y454b4k        ",
"                            3c3o3z464c          ",
"                            3d3p4047          54",
"                          323e3q++484d      4z55",
"                          333f3r41074e4l  4v5056",
"                          343g3s07||4f4m4r4w5157",
"                          353h3t..XX//4n4s085258",
"                        2v363i3u42XX4g084t4x53  ",
"                      2o2w373j3v43494h4o4u4y    ",
"                    2e2p2x383k3w06  4i4p        ",
"                  232f2q2y393l06                ",
"                1s242g2r2z3a3m                  ",
"        0s0z181h1t252h2s303b                    ",
"    0j0o0t10191i1u262i2t31                      ",
"  0e0k++0u111a1j1v272j2u                        ",
"090f0l0p..||XX1k1w282k                          ",
"0a0g0m0q0v12//1l1x292l                          ",
"0b0h0n  0w131b1m1y2a2m                          ",
"0c0i      141c1n1z2b2n                          ",
"0d          1d1o202c                            ",
"          151e1p212d                            ",
"        0x161f1q22                              ",
"      0r0y171g1r                                "};