/* XPM */
static char * xpm_report[] = {
"24 24 243 2",
"  	c None",
"XX	c #ffffff",
"++	c #e1e9ee",
"..	c #e4eef2",
"||	c #edf2f5",
"//	c #084d7b",
"06	c #417b9e",
"07	c #ed9b00",
"08	c #0a86da",
"09	c #16da03",
"0a	c #115684",
"0b	c #084776",
"0c	c #2a6890",
"0d	c #0d4e7a",
"0e	c #0a87db",
"0f	c #fafafa",
"0g	c #ecf2f5",
"0h	c #fdfafa",
"0i	c #6794ac",
"0j	c #0a89de",
"0k	c #8caec0",
"0l	c #89abbe",
"0m	c #86a8be",
"0n	c #14537f",
"0o	c #fcfcfc",
"0p	c #fcfcf9",
"0q	c #edf3f5",
"0r	c #ffa300",
"0s	c #fcfbfa",
"0t	c #eff2f6",
"0u	c #eef2f5",
"0v	c #ee0000",
"0w	c #e50000",
"0x	c #ff0000",
"0y	c #0a87da",
"0z	c #f3f5f9",
"10	c #17dd03",
"11	c #18e603",
"12	c #0984d7",
"13	c #0980d3",
"14	c #ebf2f5",
"15	c #3a729a",
"16	c #417b99",
"17	c #78a1bd",
"18	c #95b3c5",
"19	c #0984da",
"1a	c #0983d6",
"1b	c #0982d5",
"1c	c #097fd4",
"1d	c #7ca5be",
"1e	c #749db8",
"1f	c #c9d9e3",
"1g	c #cad9e3",
"1h	c #84a5bc",
"1i	c #82a6bc",
"1j	c #7da4bb",
"1k	c #759eb8",
"1l	c #6e94b1",
"1m	c #658ea5",
"1n	c #5986a0",
"1o	c #4e7d9c",
"1p	c #8bacc1",
"1q	c #87a9bf",
"1r	c #084d7c",
"1s	c #e6eef1",
"1t	c #fcfafa",
"1u	c #fcfcf7",
"1v	c #fcfffc",
"1w	c #f4fafb",
"1x	c #ecf4f7",
"1y	c #e89900",
"1z	c #86a9bf",
"20	c #dce3ec",
"21	c #fefffe",
"22	c #f3faf6",
"23	c #fbfafa",
"24	c #f6fcfa",
"25	c #f3f8f9",
"26	c #ee9b00",
"27	c #e39900",
"28	c #88a9bf",
"29	c #cedbe2",
"2a	c #f4f5f8",
"2b	c #e9f0f9",
"2c	c #f6fbfd",
"2d	c #fbfbfa",
"2e	c #f4fcfa",
"2f	c #eff8f8",
"2g	c #e3eff2",
"2h	c #89aac0",
"2i	c #c2d3de",
"2j	c #e7edf5",
"2k	c #e0e8f4",
"2l	c #eef3f5",
"2m	c #f4f9f8",
"2n	c #fafcfa",
"2o	c #f9fafa",
"2p	c #f6f8fa",
"2q	c #f0f4f7",
"2r	c #ebf0f3",
"2s	c #8babc0",
"2t	c #b7ccd9",
"2u	c #d9e4ec",
"2v	c #d8e2e8",
"2w	c #e5e8eb",
"2x	c #eaf0f3",
"2y	c #f1f9f8",
"2z	c #f9fcfa",
"30	c #fbf9fb",
"31	c #ebf0f4",
"32	c #7ba2be",
"33	c #a5c1ce",
"34	c #cbd7e0",
"35	c #d0dbe3",
"36	c #d8dfe8",
"37	c #e0e9ef",
"38	c #e6f1f4",
"39	c #f0f9f8",
"3a	c #f8f9fa",
"3b	c #f3f4fa",
"3c	c #f0f0f8",
"3d	c #ecf1f5",
"3e	c #e5eff2",
"3f	c #7ea4be",
"3g	c #94b4cb",
"3h	c #b4ccda",
"3i	c #bdd0de",
"3j	c #ccd7e7",
"3k	c #dae3ee",
"3l	c #e2ebf1",
"3m	c #ebf1f5",
"3n	c #0a86d8",
"3o	c #f6fbfa",
"3p	c #17e103",
"3q	c #17da03",
"3r	c #16dd03",
"3s	c #17df03",
"3t	c #16d803",
"3u	c #6f9db5",
"3v	c #8bacc5",
"3w	c #afc4d7",
"3x	c #b8cedc",
"3y	c #c6d4e2",
"3z	c #dae3ed",
"40	c #e4eaee",
"41	c #e5eef0",
"42	c #0982d7",
"43	c #f9f7fc",
"44	c #fcfcfb",
"45	c #17e403",
"46	c #17e003",
"47	c #16dc03",
"48	c #15d103",
"49	c #5c8da7",
"4a	c #86adc3",
"4b	c #8fb2ca",
"4c	c #9eb8ce",
"4d	c #a9c1d1",
"4e	c #c3d4e0",
"4f	c #dae3eb",
"4g	c #097fd2",
"4h	c #f2f5f5",
"4i	c #f9f8f9",
"4j	c #f9fafb",
"4k	c #f1fdfa",
"4l	c #f2f9fc",
"4m	c #f0f4f8",
"4n	c #eef2f6",
"4o	c #eaf4f5",
"4p	c #dae2ec",
"4q	c #097dcd",
"4r	c #097ecf",
"4s	c #e7f1ee",
"4t	c #eef4f5",
"4u	c #f6f7fc",
"4v	c #f9fcfb",
"4w	c #f1f7fa",
"4x	c #f4f6fc",
"4y	c #f4f4f9",
"4z	c #eef3f6",
"50	c #e7f2f4",
"51	c #eaf2f0",
"52	c #dbe5ed",
"53	c #7ba1bc",
"54	c #c1d0d8",
"55	c #0878cc",
"56	c #0979cb",
"57	c #e0e5ef",
"58	c #097fd3",
"59	c #f9f8fc",
"5a	c #edf0f2",
"5b	c #097dd0",
"5c	c #6f99b5",
"5d	c #e1e8ee",
"5e	c #f0f1f3",
"5f	c #88a6c4",
"5g	c #0874c7",
"5h	c #0877c6",
"5i	c #dbe4e7",
"5j	c #097dce",
"5k	c #eef3f7",
"5l	c #0a85db",
"5m	c #0a84dc",
"5n	c #f1f5f9",
"5o	c #f1f4f6",
"5p	c #097dd1",
"5q	c #6a98b4",
"5r	c #bdcedc",
"5s	c #076bbe",
"5t	c #076ec0",
"5u	c #c7d4de",
"5v	c #0876c6",
"5w	c #0878cb",
"5x	c #dae5ee",
"5y	c #0980d5",
"5z	c #0982d4",
"60	c #e8eef3",
"61	c #0878ca",
"62	c #074c7a",
"63	c #c6d3da",
"64	c #c1d2de",
"65	c #ccdbe3",
"66	c #e0e6ef",
"67	c #f2f4f8",
"68	c #4880a4",
"69	c #8faec1",
"6a	c #95b6c7",
"6b	c #a5bfd1",
"6c	c #b6cada",
"6d	c #c4d3e2",
"6e	c #cfdbe5",
"6f	c #cbdae3",
"6g	c #cadae3",
"6h	c #ccdbe4",
"6i	c #27658e",
"6j	c #20628b",
"6k	c #1d5e8a",
"6l	c #1a5d88",
"6m	c #175b87",
"6n	c #155985",
"6o	c #135784",
"6p	c #125684",
"6q	c #105483",
"      0k1p1q0m1z282h2s323f3u4915                ",
"      0k++++1s20292i2t333g3v0i1615              ",
"      0l++XXXX212a2j2u343h3w4a165306            ",
"      0l++XX1t222b2k2v353i3x4b0i545c06          ",
"      0m++XX0o0s2c2l2w363j3y4c0i..5d5q06        ",
"      1h++XX0p230o2m2x373k3z4d17XX..5r1e06      ",
"      1i++XX1u0f2d2n2y383l404e17XX5e..631e0c    ",
"      1j++XX0p0f0f0s2z393m414f18185f1d1d686i    ",
"      1k++XX0e0808080y0y3n424g4q555g5s64696j    ",
"      1l++XX0e08080808080e12134r565h5t656a6k    ",
"      1m++XX1v242e2o0h0h0h434h4s575i5u666b6l    ",
"      1n++XX1w252f2p303a3o444i4t585j5v676c6m    ",
"      1o++XX1x0t0g2q0z3b3p454j4u121c5wXX6d6n    ",
"      06++XX0q||0g2r313c3q464k4v595k5xXX6e6o    ",
"      06++XX0q||||||||0g3r104l4w195l1cXX6f6p    ",
"      06++XX0707||||||3d3s094m4x195m5yXX1f0a    ",
"      06++XX0707||||||||10090t4y0z5n14XX1f0a    ",
"      06++XX0707||||||||09094n4z1a1a5zXX1g0a    ",
"      06++XX0707||||||||090914501b1b13XX1g0a    ",
"      0c++XX07260u0v0v0u09474o515a5o60XX6g0a    ",
"      0c++XX1y272g0w0w3e3t484p525b5p61XX6h6q    ",
"      0n++XX0r0rXX0x0xXX1111XXXX0j0j0jXX..0n    ",
"      0d..................................0b    ",
"      0d0d1r////////////////////////620b0b0b    "};