/* XPM */
static char * xpm_retort[] = {
"24 24 186 2",
"  	c None",
"XX	c #6fc9f2",
"++	c #4eb2e7",
"..	c #3da8e6",
"||	c #3f90cf",
"//	c #2897dc",
"06	c #3ba3e2",
"07	c #188dd7",
"08	c #1f93d9",
"09	c #1289d4",
"0a	c #148ad5",
"0b	c #aad7f4",
"0c	c #80c9ed",
"0d	c #0982d2",
"0e	c #279bdf",
"0f	c #2597db",
"0g	c #3aa3e2",
"0h	c #0c85d4",
"0i	c #3fa5e4",
"0j	c #ddedfa",
"0k	c #d6eafb",
"0l	c #b8ddf6",
"0m	c #c9e4f8",
"0n	c #81c0e9",
"0o	c #1b95d9",
"0p	c #81cef4",
"0q	c #1153a7",
"0r	c #2d74bc",
"0s	c #256bb5",
"0t	c #256cb9",
"0u	c #7fc1e6",
"0v	c #9dd9f5",
"0w	c #8ddbfb",
"0x	c #1458a8",
"0y	c #1f63b4",
"0z	c #4b9ad1",
"10	c #8dd4f0",
"11	c #54b3e7",
"12	c #47afe6",
"13	c #6fcaf4",
"14	c #2e7ec4",
"15	c #1e64b6",
"16	c #3584c8",
"17	c #7ac8e8",
"18	c #53b7e6",
"19	c #38a2e1",
"1a	c #3e91d1",
"1b	c #246fbd",
"1c	c #2875c0",
"1d	c #5fb1dd",
"1e	c #60bfe8",
"1f	c #1c94d8",
"1g	c #1990d8",
"1h	c #2797db",
"1i	c #1a6ec0",
"1j	c #6bb0dd",
"1k	c #70c6e9",
"1l	c #32a8de",
"1m	c #168cd7",
"1n	c #1e92d9",
"1o	c #4696d3",
"1p	c #d5ecf8",
"1q	c #b1dff7",
"1r	c #0582d3",
"1s	c #0e87d4",
"1t	c #1389d5",
"1u	c #57b4e7",
"1v	c #2f9cdf",
"1w	c #2f96dc",
"1x	c #2b92d9",
"1y	c #2a8fd6",
"1z	c #2587d0",
"20	c #2481cd",
"21	c #2683cb",
"22	c #a2d0ec",
"23	c #e2f2fe",
"24	c #b6ddf8",
"25	c #78c8ed",
"26	c #0980d2",
"27	c #eef4fc",
"28	c #e5f1fb",
"29	c #e4f0fb",
"2a	c #e2f1fb",
"2b	c #e3effb",
"2c	c #deeffc",
"2d	c #daeffc",
"2e	c #d7ebfa",
"2f	c #c9e6f7",
"2g	c #abd7f5",
"2h	c #c8e4f8",
"2i	c #c8e3f8",
"2j	c #c6e2f7",
"2k	c #c4e0f7",
"2l	c #bedff6",
"2m	c #baddf5",
"2n	c #b6dcf6",
"2o	c #b2daf6",
"2p	c #aed9f5",
"2q	c #abd8f5",
"2r	c #deedfa",
"2s	c #c7e3f7",
"2t	c #c5e2f7",
"2u	c #bfe0f6",
"2v	c #bbdef5",
"2w	c #b2dbf6",
"2x	c #add8f5",
"2y	c #acd8f5",
"2z	c #e8f1fb",
"30	c #d6ebfb",
"31	c #d5eafa",
"32	c #d2eafa",
"33	c #cbe8f9",
"34	c #c7e6f9",
"35	c #c1e3f8",
"36	c #bde0f6",
"37	c #bddff5",
"38	c #acd9f4",
"39	c #7ac6ed",
"3a	c #0680d2",
"3b	c #1188d3",
"3c	c #138ad5",
"3d	c #96d0f0",
"3e	c #58b4e7",
"3f	c #319cdf",
"3g	c #3197dc",
"3h	c #2d94d9",
"3i	c #2c8ed6",
"3j	c #2786d1",
"3k	c #2682ce",
"3l	c #2781cc",
"3m	c #c4e5f9",
"3n	c #d4e9fa",
"3o	c #b8e0f5",
"3p	c #2a9fdb",
"3q	c #1891d7",
"3r	c #138bd6",
"3s	c #1c91d8",
"3t	c #2998db",
"3u	c #a1d5f5",
"3v	c #96d3f1",
"3w	c #55b8e4",
"3x	c #80cce9",
"3y	c #6dc1e7",
"3z	c #4cb3e3",
"40	c #32a2de",
"41	c #33a0e1",
"42	c #4bb1e6",
"43	c #3d90cf",
"44	c #1f70c0",
"45	c #439ad9",
"46	c #0781d3",
"47	c #5bb9e5",
"48	c #82caea",
"49	c #85caea",
"4a	c #8fceec",
"4b	c #89cbed",
"4c	c #78c4ec",
"4d	c #71caf2",
"4e	c #3d8fcf",
"4f	c #2471be",
"4g	c #1481cd",
"4h	c #64bde7",
"4i	c #8eceed",
"4j	c #99d1ee",
"4k	c #aad7f2",
"4l	c #3b8fcf",
"4m	c #2073c0",
"4n	c #168bd6",
"4o	c #34a3e0",
"4p	c #81c8eb",
"4q	c #aed8f2",
"4r	c #3d90d0",
"4s	c #2265b5",
"4t	c #1f79c6",
"4u	c #34a2e2",
"4v	c #68bdeb",
"4w	c #79cff4",
"4x	c #2d7dc4",
"4y	c #1f66b6",
"4z	c #3396da",
"50	c #52b9ec",
"51	c #78d4fa",
"52	c #1559a8",
"53	c #1957a7",
"54	c #206bb8",
"55	c #1e63b3",
"                ................                ",
"                ..0j0k0l0b0b3d..                ",
"                0i1u270j2r2z3e0i                ",
"                  1v282h0m0k3f                  ",
"                  1w292i0m303g                  ",
"                  1x2a2j2s313h                  ",
"                  1y2b2k2t323i                  ",
"                  1z2c2l2u333j                  ",
"                  202d2m2v343k                  ",
"                  212e2n0l353l                  ",
"                  222f2o2w360n                  ",
"                1o230b2p2x373m0n                ",
"              1i1p242g2q2y383n3u44              ",
"            1b1j1q250c0c0c393o3v45              ",
"            1c1k1r260d0d0d3a3p3w464f            ",
"          151d1l1s090909093b3q3x0o4g            ",
"          161e0h1t0a0a0a0a3c0h3y470o4m          ",
"        0y171f1m0707070707073r3z480e4n4s        ",
"        0z181g1n0808080808083s40494h0e4t        ",
"      0t100f1h//////////////3t0f4a4i4o0e4y      ",
"    0q0u11190g060606060606060g414b4j4p4u4z53    ",
"    0r0v12++++++++++++++++++++424c4k4q4v5054    ",
"    0s0w13XXXXXXXXXXXXXXXXXXXXXX4d0p0p4w5155    ",
"      0x141a||||||||||||||||||434e4l4r4x52      "};