/* XPM */
static char * xpm_sad[] = {
"24 24 405 2",
"  	c None",
"XX	c #a4dbfa",
"++	c #a9dffb",
"..	c #a7ddfb",
"||	c #a1d9f9",
"//	c #4ba9e3",
"06	c #a0d9f8",
"07	c #42a3e1",
"08	c #a6dcfa",
"09	c #a3dbf9",
"0a	c #a7dffd",
"0b	c #003987",
"0c	c #2c8fd6",
"0d	c #a9e0fd",
"0e	c #8ccaf1",
"0f	c #a4dcfa",
"0g	c #48a7e4",
"0h	c #d4f4ff",
"0i	c #9dd6f7",
"0j	c #48a7e3",
"0k	c #47a6e2",
"0l	c #278cd5",
"0m	c #a7e0fd",
"0n	c #50ace8",
"0o	c #002977",
"0p	c #013785",
"0q	c #0b4e9c",
"0r	c #3093d8",
"0s	c #2a8ed5",
"0t	c #003582",
"0u	c #a8e0fd",
"0v	c #a7dffb",
"0w	c #2288d1",
"0x	c #3295d9",
"0y	c #278bd4",
"0z	c #c3ecff",
"10	c #2b8ed5",
"11	c #1881cd",
"12	c #a6ddfb",
"13	c #1d86cf",
"14	c #a5dcfb",
"15	c #49a8e4",
"16	c #1f87cf",
"17	c #40a0e0",
"18	c #9fd9f8",
"19	c #65a5d8",
"1a	c #69a8d8",
"1b	c #7db4de",
"1c	c #7db3db",
"1d	c #5d9dd2",
"1e	c #2973bc",
"1f	c #1359a7",
"1g	c #0d4ea0",
"1h	c #71b1df",
"1i	c #98caed",
"1j	c #c1e6fb",
"1k	c #d1f0ff",
"1l	c #c5e9fe",
"1m	c #b9e2fd",
"1n	c #86cef3",
"1o	c #7ac5f2",
"1p	c #90d1f6",
"1q	c #7bbfe7",
"1r	c #3a82c4",
"1s	c #104d9b",
"1t	c #6eb3e3",
"1u	c #8bc5eb",
"1v	c #d2f1ff",
"1w	c #c9edff",
"1x	c #aee0fa",
"1y	c #9bd5f7",
"1z	c #9bd5f6",
"20	c #93d1f5",
"21	c #4bade8",
"22	c #4ea8e6",
"23	c #41a2e2",
"24	c #54b0e6",
"25	c #73c0ec",
"26	c #2a69b1",
"27	c #043e8f",
"28	c #70b6e7",
"29	c #aad8f6",
"2a	c #b7e3fd",
"2b	c #9fd7f8",
"2c	c #9fd6f8",
"2d	c #72c0ef",
"2e	c #51aee8",
"2f	c #4fabe7",
"2g	c #43a4e1",
"2h	c #3f9fde",
"2i	c #369bdb",
"2j	c #49aae6",
"2k	c #448ec8",
"2l	c #023b8a",
"2m	c #74bae9",
"2n	c #acdaf5",
"2o	c #d3f4ff",
"2p	c #abe0fd",
"2q	c #a1d8f8",
"2r	c #59b4eb",
"2s	c #52ade8",
"2t	c #4eaae5",
"2u	c #409fdf",
"2v	c #3a9cdd",
"2w	c #3197dc",
"2x	c #339bde",
"2y	c #2373bd",
"2z	c #023a88",
"30	c #92ccf1",
"31	c #ace1fd",
"32	c #a6dffb",
"33	c #9ed7f7",
"34	c #98d1f5",
"35	c #51afe9",
"36	c #52aee8",
"37	c #4daae5",
"38	c #41a4e2",
"39	c #40a1e0",
"3a	c #3394d8",
"3b	c #1b6cb8",
"3c	c #2d93d9",
"3d	c #2994da",
"3e	c #0b4ea0",
"3f	c #79bfec",
"3g	c #d4f3ff",
"3h	c #bbe9fe",
"3i	c #a5ddfb",
"3j	c #a8defc",
"3k	c #a5e0fd",
"3l	c #a6defd",
"3m	c #83cef4",
"3n	c #54b1ea",
"3o	c #51ade7",
"3p	c #4caae5",
"3q	c #46a4e2",
"3r	c #43a8e4",
"3s	c #2378bf",
"3t	c #002f7f",
"3u	c #094898",
"3v	c #2f94da",
"3w	c #2089d2",
"3x	c #a0d6f5",
"3y	c #ccefff",
"3z	c #a7defc",
"40	c #abe3ff",
"41	c #6da7d2",
"42	c #538bc0",
"43	c #5389bd",
"44	c #2e73b7",
"45	c #52b1e9",
"46	c #46a6e4",
"47	c #3594d8",
"48	c #1d6db8",
"49	c #359de1",
"4a	c #2389d2",
"4b	c #1f8bd3",
"4c	c #0a57a6",
"4d	c #74bdec",
"4e	c #c6ebff",
"4f	c #b6e6fe",
"4g	c #a9dffd",
"4h	c #a9dffc",
"4i	c #7ab2da",
"4j	c #4578b1",
"4k	c #4c7fb6",
"4l	c #5285ba",
"4m	c #1f6ab5",
"4n	c #51b0eb",
"4o	c #4aade8",
"4p	c #084796",
"4q	c #3a9fe2",
"4r	c #2288d2",
"4s	c #1d85cf",
"4t	c #1276c5",
"4u	c #79c1ed",
"4v	c #d5f4ff",
"4w	c #a8defb",
"4x	c #91caed",
"4y	c #4274ad",
"4z	c #4a7db4",
"50	c #5183b8",
"51	c #002577",
"52	c #358acb",
"53	c #51ade8",
"54	c #48a8e3",
"55	c #3795d8",
"56	c #002877",
"57	c #3ba0e1",
"58	c #3396db",
"59	c #2d90d6",
"5a	c #278dd4",
"5b	c #1a84ce",
"5c	c #1685d2",
"5d	c #003a87",
"5e	c #cdf0ff",
"5f	c #a7dcfa",
"5g	c #a7dffc",
"5h	c #94cff1",
"5i	c #72acd8",
"5j	c #6ea9d7",
"5k	c #3992d3",
"5l	c #56b3ed",
"5m	c #4eabe6",
"5n	c #49abe5",
"5o	c #1c67b3",
"5p	c #074797",
"5q	c #3aa2e1",
"5r	c #2087d1",
"5s	c #1882cd",
"5t	c #1382cf",
"5u	c #034897",
"5v	c #a2daf9",
"5w	c #a0d8f9",
"5x	c #a2dbfa",
"5y	c #8ed0f6",
"5z	c #52b2ea",
"60	c #52abe7",
"61	c #4ca9e5",
"62	c #48aae7",
"63	c #1057a5",
"64	c #1a65b3",
"65	c #389edf",
"66	c #3194d9",
"67	c #2589d2",
"68	c #1e86cf",
"69	c #1282ce",
"6a	c #034395",
"6b	c #a8dffd",
"6c	c #a2d9fa",
"6d	c #8fd0f5",
"6e	c #52b0eb",
"6f	c #47aae6",
"6g	c #1057a3",
"6h	c #1a66b2",
"6i	c #379bde",
"6j	c #2f92d7",
"6k	c #2289d2",
"6l	c #1580cd",
"6m	c #117fce",
"6n	c #024395",
"6o	c #8dcbf1",
"6p	c #c2ecff",
"6q	c #a4defb",
"6r	c #8cc6eb",
"6s	c #74aed7",
"6t	c #60a0d0",
"6u	c #297dc4",
"6v	c #54b2eb",
"6w	c #45a8e5",
"6x	c #1c67b2",
"6y	c #359ee0",
"6z	c #2d90d7",
"70	c #288dd5",
"71	c #1b84ce",
"72	c #147fcb",
"73	c #0d80ce",
"74	c #024494",
"75	c #7ac0ed",
"76	c #cef2ff",
"77	c #a5defa",
"78	c #87bfe6",
"79	c #4376af",
"7a	c #4c7fb5",
"7b	c #2860a3",
"7c	c #002a7a",
"7d	c #2475bd",
"7e	c #4aaae5",
"7f	c #43a6e4",
"7g	c #297ec7",
"7h	c #003180",
"7i	c #3599dd",
"7j	c #2d91d7",
"7k	c #2187d1",
"7l	c #1982ce",
"7m	c #1380cb",
"7n	c #0e80cf",
"7o	c #74beec",
"7p	c #c6eaff",
"7q	c #7fb9df",
"7r	c #4578b0",
"7s	c #4d80b6",
"7t	c #3770ae",
"7u	c #002b7b",
"7v	c #2575bd",
"7w	c #49a8e5",
"7x	c #40a3e1",
"7y	c #42a7e5",
"7z	c #003687",
"80	c #1763b0",
"81	c #3096dc",
"82	c #117ecb",
"83	c #096fc2",
"84	c #9dd2f4",
"85	c #b4e4fe",
"86	c #a5ddfd",
"87	c #71acd5",
"88	c #5c93c5",
"89	c #4583bb",
"8a	c #1b69b7",
"8b	c #4ba9e5",
"8c	c #46a5e3",
"8d	c #3d9fe0",
"8e	c #247cc6",
"8f	c #002a77",
"8g	c #1a6ebd",
"8h	c #258ed6",
"8i	c #1681cd",
"8j	c #117ece",
"8k	c #0453a3",
"8l	c #7abce8",
"8m	c #c7eeff",
"8n	c #a0daf9",
"8o	c #9ed8f9",
"8p	c #9fd9fa",
"8q	c #8ad0f6",
"8r	c #4daeea",
"8s	c #3f9fdf",
"8t	c #3b9cdc",
"8u	c #379cdf",
"8v	c #1d70bd",
"8w	c #186ebc",
"8x	c #1581cc",
"8y	c #0e7fcc",
"8z	c #91c9ed",
"90	c #b4e3fd",
"91	c #a2dbf9",
"92	c #9bd5f5",
"93	c #97d1f4",
"94	c #90cdf3",
"95	c #3d9cdd",
"96	c #379cdc",
"97	c #3296db",
"98	c #3096da",
"99	c #1a71bc",
"9a	c #1977c3",
"9b	c #1b83cf",
"9c	c #1585d1",
"9d	c #044a9a",
"9e	c #71b7e3",
"9f	c #a9d7f4",
"9g	c #a9ddfa",
"9h	c #9cd6f7",
"9i	c #9ad4f5",
"9j	c #96d1f4",
"9k	c #9cd1f3",
"9l	c #46a7e4",
"9m	c #45a6e2",
"9n	c #41a2e0",
"9o	c #3c9ddd",
"9p	c #369adb",
"9q	c #288dd6",
"9r	c #2189d3",
"9s	c #1987d2",
"9t	c #0c61b0",
"9u	c #003682",
"9v	c #6db1e0",
"9w	c #95ccf0",
"9x	c #a3dafb",
"9y	c #9dd7f8",
"9z	c #98d4f5",
"a0	c #95d1f4",
"a1	c #97cff3",
"a2	c #57b0e7",
"a3	c #44a3e1",
"a4	c #3b9cdd",
"a5	c #3598db",
"a6	c #3094d9",
"a7	c #258ad3",
"a8	c #1f8cd4",
"a9	c #1065b3",
"aa	c #6fafdf",
"ab	c #7dbae4",
"ac	c #9dd6f8",
"ad	c #9bd4f5",
"ae	c #96d0f5",
"af	c #93cff3",
"ag	c #64b7e9",
"ah	c #41a3e0",
"ai	c #40a0df",
"aj	c #3a9cdc",
"ak	c #3496da",
"al	c #2b92d8",
"am	c #258bd5",
"an	c #0e53a3",
"ao	c #033a88",
"ap	c #6dabd9",
"aq	c #7ebbe5",
"ar	c #8ecbf0",
"as	c #97d0f5",
"at	c #77c1ef",
"au	c #41a5e4",
"av	c #42a4e3",
"aw	c #3ca0e0",
"ax	c #359de0",
"ay	c #2889d1",
"az	c #1866b3",
"b0	c #094694",
"b1	c #65a1d2",
"b2	c #68a1d2",
"b3	c #68a6d5",
"b4	c #1966b4",
"b5	c #1c65b1",
"b6	c #1960af",
"b7	c #124f9e",
"b8	c #0e4896",
"                4d4u0e0e0e6o757o                ",
"            3f3x4e4v5e0z0z6p767p848l            ",
"        2m303g3y4f0u0d0u6b0a0a0m858m8z9e        ",
"      282n0h3h0m4g0d0d++++++0v..14XX909f9v      ",
"    1t292o310a++++0v....1208080f0fXX919g9waa    ",
"    1u0h2p32..3z4h4w5f0fXX147712098n06189xab    ",
"  1h1v2aXX083i404i4x5g5v096q787q868o0i9h9yacap  ",
"  1i1w||XX093j414j4y5h5w||6r797r878p929i9zadaq  ",
"191j1x||06063k424k4z5i5x6c6s7a7s8818939ja0aearb1",
"1a1k1y2b0i333l434l505j5y6d6t7b7t898q949ka1afasb2",
"1b1l1z2c2q343m440p515k5z6e6u7c7u8a8r0g9la2agatb3",
"1c1m202d2r353n454m525l600n6v7d7v8b150k9ma3ahaub4",
"1d1n212e2s363o0n4n535m61//157e7w8c07079n17aiavb5",
"1e1o222f2t373p//0j545n626f6w7f7x178s959oa4ajawb6",
"1f1p0g//0j0k3q464o555o636g6x7g7y8d8t969pa5akaxb7",
"1g1q232g07383r474p565p646h0q7h7z8e8u970xa60rayb8",
"  1r242h2u393s0o0q575q656i6y7i808f8v980c10alaz  ",
"  1s252i2v3a3t484q580x666j6z7j818g0o999qa7amb0  ",
"    262j2w3b3u490r590c100s700y0l8h8w9a9ra8an    ",
"    272k2x3c3v0c0s5a0y676k0w7k1616139b9sa9ao    ",
"      2l2y3d0l4a4r0w5r6813717l118i8x9c9t0p      ",
"        2z3e3w4b4s5b5s116l727m828j8y9d9u        ",
"            0b4c4t5c5t696m737n838k0b            ",
"                0t5d5u6a6n740b0t                "};