/* XPM */
static char * xpm_save[] = {
"24 24 366 2",
"XX	c #f7f7f8",
"++	c #e6e8e7",
"..	c #fffffe",
"||	c #ded9d6",
"//	c #2a6bb0",
"05	c #657b97",
"06	c #88a0b6",
"07	c #6bbeea",
"08	c #e8e9e9",
"09	c #dfe0e1",
"0a	c #ffffff",
"0b	c #fffdf9",
"0c	c #f0f1f1",
"0d	c #eceded",
"0e	c #e3e4e5",
"0f	c #dbdcdd",
"0g	c #d5d6d8",
"0h	c #d5d3d4",
"  	c None",
"0j	c #1c61af",
"0k	c #7dcef4",
"0l	c #79cdf2",
"0m	c #75c9f1",
"0n	c #71c7f0",
"0o	c #6cc5f0",
"0p	c #69bbe7",
"0q	c #185bac",
"0r	c #1659ab",
"0s	c #259ee5",
"0t	c #81d2f5",
"0u	c #67c3f2",
"0v	c #6992b8",
"0w	c #b5a6a6",
"0x	c #c2b7b6",
"0y	c #bdafb2",
"0z	c #b8aaac",
"10	c #b4a7a8",
"11	c #afa2a4",
"12	c #aa9d9f",
"13	c #a59999",
"14	c #a19495",
"15	c #9d8f90",
"16	c #95847f",
"17	c #7dd4f8",
"18	c #7bd3f9",
"19	c #77d0f9",
"1a	c #73cef7",
"1b	c #6fccf7",
"1c	c #6bcaf7",
"1d	c #67c8f6",
"1e	c #64c8fa",
"1f	c #6b7991",
"1g	c #f9f9fa",
"1h	c #f0f1f0",
"1i	c #e4e0dc",
"1j	c #2d6eb2",
"1k	c #7389a5",
"1l	c #677b97",
"1m	c #8aa2b8",
"1n	c #f3f5f4",
"1o	c #6bbfea",
"1p	c #fafafa",
"1q	c #fbfbfb",
"1r	c #fbfbfc",
"1s	c #f8f9f8",
"1t	c #fdfdfe",
"1u	c #fdfefe",
"1v	c #fdfffe",
"1w	c #e2e3e5",
"1x	c #42a9e5",
"1y	c #49ace6",
"1z	c #59b3e6",
"20	c #54afe4",
"21	c #52abe2",
"22	c #51a9e0",
"23	c #4ea6de",
"24	c #4ca0db",
"25	c #499dd9",
"26	c #479ad6",
"27	c #4496d4",
"28	c #4294d2",
"29	c #4090d0",
"2a	c #3d8dcd",
"2b	c #3989cb",
"2c	c #3985c9",
"2d	c #3583c7",
"2e	c #357fc5",
"2f	c #317ac3",
"2g	c #3077bf",
"2h	c #2d76bd",
"2i	c #2872bc",
"2j	c #4cb1e7",
"2k	c #ccedfb",
"2l	c #d1eefb",
"2m	c #bee8f9",
"2n	c #bce7fb",
"2o	c #bae4fa",
"2p	c #b8e5f9",
"2q	c #b5e4f8",
"2r	c #b3e1f7",
"2s	c #afe0f7",
"2t	c #acddf6",
"2u	c #aadcf5",
"2v	c #a5daf3",
"2w	c #a0d8f4",
"2x	c #9dd7f3",
"2y	c #98d5f2",
"2z	c #94d3f0",
"30	c #90d3f1",
"31	c #8cd1f0",
"32	c #85cfef",
"33	c #80cdee",
"34	c #79c9ec",
"35	c #6dc8ee",
"36	c #5cbbeb",
"37	c #d2eefc",
"38	c #8dd9f6",
"39	c #7dd3f4",
"3a	c #7dd1f4",
"3b	c #79cdf3",
"3c	c #74cbf1",
"3d	c #70c8f1",
"3e	c #6cc6f0",
"3f	c #67c3ef",
"3g	c #63beee",
"3h	c #5cbff0",
"3i	c #50baee",
"3j	c #49b5ee",
"3k	c #44b2ec",
"3l	c #3eaeeb",
"3m	c #38abe9",
"3n	c #32a7e7",
"3o	c #2ba3e6",
"3p	c #1e9be4",
"3q	c #1699e3",
"3r	c #149ae5",
"3s	c #5cbaeb",
"3t	c #c0e9fb",
"3u	c #80d4f5",
"3v	c #83d4f5",
"3w	c #5bbbeb",
"3x	c #bdebff",
"3y	c #7cd5f9",
"3z	c #f8faf9",
"40	c #f5f5f6",
"41	c #eef0f0",
"42	c #e9eaec",
"43	c #e4e6e5",
"44	c #e3e5e4",
"45	c #dcddde",
"46	c #ebdddb",
"47	c #d0c8cb",
"48	c #cdc5c8",
"49	c #c9bec2",
"4a	c #c4b9bc",
"4b	c #bfb4b8",
"4c	c #baaeb3",
"4d	c #b4a9ac",
"4e	c #aa9ea2",
"4f	c #f6f6f7",
"4g	c #c2c0c7",
"4h	c #aaa8b2",
"4i	c #dadadc",
"4j	c #a6a4af",
"4k	c #d8dadb",
"4l	c #fffffb",
"4m	c #f3f4f4",
"4n	c #eff0f0",
"4o	c #ebecec",
"4p	c #e6e7e8",
"4q	c #e2e3e4",
"4r	c #dedfe0",
"4s	c #d8d9db",
"4t	c #d9d8d8",
"4u	c #f9f9f9",
"4v	c #aba9b3",
"4w	c #8b8797",
"4x	c #d7d8d9",
"4y	c #8e899a",
"4z	c #dbdcde",
"50	c #a6a3ae",
"51	c #f5f7f5",
"52	c #847f8f",
"53	c #d7d6da",
"54	c #878191",
"55	c #dcdede",
"56	c #9f9da7",
"57	c #f6f8f6",
"58	c #7d7585",
"59	c #d6d7d8",
"5a	c #7f7787",
"5b	c #dddedf",
"5c	c #9b99a0",
"5d	c #f7f9f7",
"5e	c #736f7d",
"5f	c #d6d5d8",
"5g	c #75717f",
"5h	c #dddfe0",
"5i	c #94919b",
"5j	c #6b6474",
"5k	c #d4d4d7",
"5l	c #6d6776",
"5m	c #dee0e0",
"5n	c #908b96",
"5o	c #f8fbf9",
"5p	c #635d6c",
"5q	c #d3d4d6",
"5r	c #665f6d",
"5s	c #fcfcfc",
"5t	c #8b858f",
"5u	c #fafbfa",
"5v	c #5d5562",
"5w	c #d3d2d6",
"5x	c #5f5764",
"5y	c #dfe1e2",
"5z	c #fffefa",
"60	c #f6f8f7",
"61	c #f9f7f5",
"62	c #f5f2ef",
"63	c #f0eceb",
"64	c #ebe9e7",
"65	c #e7e6e5",
"66	c #d9d9db",
"67	c #d5d4d5",
"68	c #fcfdfd",
"69	c #858189",
"6a	c #fafdfb",
"6b	c #544d5b",
"6c	c #d1d2d4",
"6d	c #564f5d",
"6e	c #e0e2e2",
"6f	c #a09a9d",
"6g	c #4a6983",
"6h	c #5681a2",
"6i	c #547e9f",
"6j	c #5280a3",
"6k	c #3d4f65",
"6l	c #b9b7ba",
"6m	c #d7d6d7",
"6n	c #807a84",
"6o	c #fcfefc",
"6p	c #4c4653",
"6q	c #d1d1d4",
"6r	c #4e4855",
"6s	c #e1e2e3",
"6t	c #a59ea0",
"6u	c #71b8dc",
"6v	c #86dbff",
"6w	c #80d5fb",
"6x	c #7fd9ff",
"6y	c #5782a6",
"6z	c #bcb8ba",
"70	c #d8d7d7",
"71	c #7b7380",
"72	c #fdfefd",
"73	c #473f4c",
"74	c #d0d1d3",
"75	c #49424e",
"76	c #e1e3e4",
"77	c #a19a9c",
"78	c #6ab3da",
"79	c #81daff",
"7a	c #7ad4fd",
"7b	c #7ad6ff",
"7c	c #517fa5",
"7d	c #bbb6b9",
"7e	c #d7d7d7",
"7f	c #767078",
"7g	c #413845",
"7h	c #cfd0d2",
"7i	c #433a47",
"7j	c #d4d3d5",
"7k	c #a19b9e",
"7l	c #a09699",
"7m	c #9c9496",
"7n	c #9b8f91",
"7o	c #958f93",
"7p	c #d0d0d1",
"7q	c #dad9d8",
"7r	c #6d6870",
"7s	c #362f39",
"7t	c #cecdd0",
"7u	c #39323c",
"7v	c #5dafe0",
"7w	c #ecdedb",
"7x	c #d3cbce",
"7y	c #d4cacc",
"7z	c #d0c5c9",
"80	c #cbc0c3",
"81	c #c5bdc0",
"82	c #bfb5b8",
"83	c #b5adaf",
"84	c #ab9ea2",
"85	c #8e8b92",
"86	c #5d5662",
"87	c #d1d2d3",
"88	c #5b555f",
"89	c #dee0e1",
"8a	c #53b8ea",
"8b	c #c5edff",
"8c	c #7cd6f9",
"8d	c #fcfefd",
"8e	c #f1f2f2",
"8f	c #eaeced",
"8g	c #dddee0",
"8h	c #3fa8e6",
"8i	c #66beec",
"8j	c #8ddaf8",
"8k	c #84d5f5",
"8l	c #3ea4e3",
"8m	c #56b6e8",
"8n	c #8bd9f7",
"8o	c #82d2f5",
"8p	c #68c0ef",
"8q	c #63c1f0",
"8r	c #56bcef",
"8s	c #4fb7ee",
"8t	c #49b5ed",
"8u	c #43b1ec",
"8v	c #3eaeea",
"8w	c #39aae9",
"8x	c #31a6e7",
"8y	c #2ba1e7",
"8z	c #1d9ce4",
"90	c #199de6",
"91	c #3da1e1",
"92	c #53b4e7",
"93	c #8bd9f8",
"94	c #82d3f6",
"95	c #7ed1f4",
"96	c #7acef3",
"97	c #76ccf2",
"98	c #70c9f3",
"99	c #6cc4f1",
"9a	c #68c2f0",
"9b	c #61bfee",
"9c	c #5bbbed",
"9d	c #56baeb",
"9e	c #50b6ea",
"9f	c #4bb3e8",
"9g	c #46aee6",
"9h	c #3eabe5",
"9i	c #38a7e4",
"9j	c #31a2e2",
"9k	c #28a0e0",
"9l	c #229ade",
"9m	c #1559ab",
"9n	c #3b9bde",
"9o	c #43a2e0",
"9p	c #44a1df",
"9q	c #429fdc",
"9r	c #3f9bda",
"9s	c #3c97d8",
"9t	c #3a93d4",
"9u	c #378fd2",
"9v	c #358acf",
"9w	c #3388cd",
"9x	c #3185ca",
"9y	c #2e7dc8",
"9z	c #2c7bc6",
"a0	c #2977c3",
"a1	c #2773c0",
"a2	c #2670be",
"a3	c #226cbc",
"a4	c #206bba",
"a5	c #1c68b6",
"1x2j363s3w0p0p1o07070707070707071o0p7v8a8h      ",
"1y2k373t3x464l0b0b0b0b0b0b5z0a0a0a0a7w8b8i8l    ",
"1z2l383u3y474m0c0c0c0c0c0c606f6t777j7x8c8j8m91  ",
"202m393v17484n0d0d0d0d0d0d616g6u787k7y178k8n929n",
"212n3a0t18494o080808080808626h6v797l7z180t8o939o",
"222o3b0k194a4p0e0e0e0e0e0e636i6w7a7m80190k0k949p",
"232p3c0l1a4b4q090909090909646j6x7b7n811a0l0l959q",
"242q3d0m1b4c4r0f0f0f0f0f0f656k6y7c7o821b0m0m969r",
"252r3e0n1c4d4s0g0g0g0g0g0g666l6z7d7p831c0n0n979s",
"262s3f0o1d4e4t0h0h0h0h0h0h676m707e7q841d0o0o989t",
"272t3g0u1e1k1m060606060606060606061m1k1e0u8p999u",
"282u3h0v1f1l0505050505050505050505051l1f0v8q9a9v",
"292v3i0w0a............................0a0w8r9b9w",
"2a2w3j0x1g4f4u1g1p1q1r1r5s681t1t1u1u1q1p0x8s9c9x",
"2b2x3k0y3z4g4v50565c5i5n5t696n717f7r858d0y8t9d9y",
"2c2y3l0z40XXXXXXXXXXXXXXXXXXXXXXXXXXXXXX0z8u9e9z",
"2d2z3m101h1h1n51575d1s5o5u6a6o721v1v1s8e108v9fa0",
"2e303n11414h4w52585e5j5p5v6b6p737g7s861n118w9ga1",
"2f313o12424i4x53595f5k5q5w6c6q747h7t878f128x9ha2",
"2g320s1343++++++++++++++++++++++++++++++138y9ia3",
"2h333p14444j4y545a5g5l5r5x6d6r757i7u8808140s9ja4",
"2i343q15454k4z555b5h5m095y6e6s761w1w898g158z9ka5",
"0j353r161i||||||||||||||||||||||||||||1i16909l0q",
"0j0r0r0j1j////////////////////////////1j0j0q9m0q"};