/* XPM */
static char * xpm_schedule[] = {
"24 24 301 2",
"  	c None",
"XX	c #ffffff",
"++	c #e9e9ea",
"..	c #f6f6f7",
"||	c #1e1b1c",
"//	c #f4f5f5",
"06	c #f7f8f8",
"07	c #2d292a",
"08	c #f3f4f4",
"09	c #f2f3f3",
"0a	c #e8e9ea",
"0b	c #7fcf58",
"0c	c #e5e5e6",
"0d	c #fffefc",
"0e	c #ebeced",
"0f	c #d4d4d5",
"0g	c #635f62",
"0h	c #a9e687",
"0i	c #e7e7e8",
"0j	c #7acc4d",
"0k	c #5b535b",
"0l	c #f6f7f7",
"0m	c #f0f1f2",
"0n	c #f3f3f3",
"0o	c #ecedee",
"0p	c #d9d9da",
"0q	c #e6e7e7",
"0r	c #e4e4e5",
"0s	c #58bd35",
"0t	c #57bc36",
"0u	c #90d651",
"0v	c #fffffe",
"0w	c #c9ddec",
"0x	c #fdfdfe",
"0y	c #fbfbfb",
"0z	c #f9f9fa",
"10	c #f8f8f9",
"11	c #f5f5f5",
"12	c #f8f9fa",
"13	c #eeeeef",
"14	c #f1ece9",
"15	c #c3d1c5",
"16	c #e1e2e3",
"17	c #dfe0e1",
"18	c #b2d8fa",
"19	c #edebed",
"1a	c #55bb36",
"1b	c #54b936",
"1c	c #dddddf",
"1d	c #d9d6db",
"1e	c #3f9ad8",
"1f	c #4face1",
"1g	c #4da9e0",
"1h	c #55b3e4",
"1i	c #50afe3",
"1j	c #3f9cd9",
"1k	c #3b95d5",
"1l	c #2a79c3",
"1m	c #55b1e3",
"1n	c #90d5f0",
"1o	c #a6def4",
"1p	c #4bade2",
"1q	c #6cb9e4",
"1r	c #71bae3",
"1s	c #6eb5e0",
"1t	c #60afde",
"1u	c #2f8fd4",
"1v	c #41ace3",
"1w	c #3aa0de",
"1x	c #2a7ac4",
"1y	c #78c8ec",
"1z	c #abe1f6",
"20	c #94ceec",
"21	c #dce8f2",
"22	c #398fcf",
"23	c #36a6e1",
"24	c #2a85cd",
"25	c #90d5f1",
"26	c #9bd8f2",
"27	c #cae3f2",
"28	c #fdfdfc",
"29	c #fefeff",
"2a	c #85b4d7",
"2b	c #2291d7",
"2c	c #268bd2",
"2d	c #7fceef",
"2e	c #9edbf3",
"2f	c #dae8f2",
"2g	c #827e7e",
"2h	c #fcfcfc",
"2i	c #fffffc",
"2j	c #bbd0e2",
"2k	c #1b8bd4",
"2l	c #1f7ac7",
"2m	c #5fbce9",
"2n	c #b1e4f9",
"2o	c #c8e1f1",
"2p	c #fdfafa",
"2q	c #fbfafb",
"2r	c #fffdfa",
"2s	c #7aaad1",
"2t	c #1c94db",
"2u	c #1a66b6",
"2v	c #94d9f4",
"2w	c #9ed7f1",
"2x	c #fbfcfc",
"2y	c #fbfdfc",
"2z	c #f8f9f8",
"30	c #fbf8f4",
"31	c #217ac1",
"32	c #197fcc",
"33	c #57b9e9",
"34	c #b3e5f8",
"35	c #d8e8f3",
"36	c #6d696c",
"37	c #282526",
"38	c #f9f8f6",
"39	c #98b9d4",
"3a	c #138fd8",
"3b	c #165bad",
"3c	c #77caef",
"3d	c #97d9f3",
"3e	c #f6f3f4",
"3f	c #efeff0",
"3g	c #f2f2f3",
"3h	c #f0eff0",
"3i	c #e8e8e9",
"3j	c #0a6fc2",
"3k	c #156abb",
"3l	c #80d0f0",
"3m	c #b2ddf1",
"3n	c #f8f6f4",
"3o	c #feffff",
"3p	c #f3f5f6",
"3q	c #fbf5f2",
"3r	c #1c7bc2",
"3s	c #146ec0",
"3t	c #99dbf4",
"3u	c #aedcf2",
"3v	c #dedfdf",
"3w	c #2f2c2d",
"3x	c #f4f5f6",
"3y	c #3786c3",
"3z	c #137ccb",
"40	c #98dbf4",
"41	c #acdcf3",
"42	c #b0acab",
"43	c #2c2728",
"44	c #666266",
"45	c #686568",
"46	c #181314",
"47	c #000000",
"48	c #0e1e0e",
"49	c #bfc6b6",
"4a	c #3785c5",
"4b	c #137bcb",
"4c	c #91d7f3",
"4d	c #a9d9ef",
"4e	c #f4f1f0",
"4f	c #f5f5f6",
"4g	c #f4f4f5",
"4h	c #e6e6e8",
"4i	c #e3e3e5",
"4j	c #e5e4e7",
"4k	c #ece7ef",
"4l	c #4a904b",
"4m	c #5eb150",
"4n	c #6ea168",
"4o	c #3d8dcb",
"4p	c #1372c3",
"4q	c #7ecef0",
"4r	c #9cdaf2",
"4s	c #eeeae9",
"4t	c #e5e6e7",
"4u	c #e8e5ea",
"4v	c #dadbdc",
"4w	c #5a9959",
"4x	c #4fa243",
"4y	c #428f33",
"4z	c #1067c5",
"50	c #156fbe",
"51	c #5ebdf3",
"52	c #a6e0fe",
"53	c #dce2e8",
"54	c #eae9ea",
"55	c #2a2627",
"56	c #e3dfe5",
"57	c #e0dee3",
"58	c #609d61",
"59	c #419635",
"5a	c #54bb35",
"5b	c #388f22",
"5c	c #1582c8",
"5d	c #165eb1",
"5e	c #55b647",
"5f	c #f2eeee",
"5g	c #e2dfe3",
"5h	c #80af7c",
"5i	c #429636",
"5j	c #90d471",
"5k	c #55bb34",
"5l	c #54bb36",
"5m	c #55ba36",
"5n	c #47a92b",
"5o	c #187694",
"5p	c #5db735",
"5q	c #4eaf75",
"5r	c #e3e3e4",
"5s	c #dcdadf",
"5t	c #6ba269",
"5u	c #429b33",
"5v	c #4daf2f",
"5w	c #59be32",
"5x	c #56bf35",
"5y	c #1c5941",
"5z	c #54b138",
"60	c #7bc833",
"61	c #53a871",
"62	c #d9e1f3",
"63	c #e4e2e8",
"64	c #d3d3d6",
"65	c #dad7dd",
"66	c #dcd7e0",
"67	c #549058",
"68	c #59b042",
"69	c #54bd36",
"6a	c #2d7a27",
"6b	c #7fca41",
"6c	c #78ca32",
"6d	c #4ba239",
"6e	c #a7c7a7",
"6f	c #efe9f3",
"6g	c #dfdce2",
"6h	c #d5d3d9",
"6i	c #dbd6de",
"6j	c #a2b9a5",
"6k	c #3e8e38",
"6l	c #56bc36",
"6m	c #56bc37",
"6n	c #54bd37",
"6o	c #37912d",
"6p	c #44a033",
"6q	c #87d238",
"6r	c #8ad537",
"6s	c #70bf43",
"6t	c #5caa4a",
"6u	c #70ab6d",
"6v	c #88b588",
"6w	c #7aa77a",
"6x	c #77a37a",
"6y	c #3d873a",
"6z	c #56a846",
"70	c #58be36",
"71	c #48a932",
"72	c #2d7d28",
"73	c #47ab33",
"74	c #49ae33",
"75	c #48a333",
"76	c #7fd031",
"77	c #7ecf31",
"78	c #7ecf38",
"79	c #87ce5c",
"7a	c #98d870",
"7b	c #5abd34",
"7c	c #5abf36",
"7d	c #50b334",
"7e	c #246a27",
"7f	c #216025",
"7g	c #2a7629",
"7h	c #226324",
"7i	c #429d2f",
"7j	c #6fc632",
"7k	c #79cd32",
"7l	c #72c932",
"7m	c #6ec832",
"7n	c #6ac533",
"7o	c #64c332",
"7p	c #62c132",
"7q	c #5fc033",
"7r	c #5ebf36",
"7s	c #5dc135",
"7t	c #51b434",
"7u	c #256c27",
"7v	c #31862c",
"7w	c #52ac30",
"7x	c #72ca33",
"7y	c #73cc34",
"7z	c #6dc735",
"80	c #68c635",
"81	c #66c435",
"82	c #64c535",
"83	c #5ec136",
"84	c #39912d",
"85	c #226526",
"86	c #2c7b2a",
"87	c #388e2c",
"88	c #46a02e",
"89	c #439c2e",
"8a	c #419a2f",
"8b	c #32832a",
"8c	c #246827",
"                                                ",
"              333c3l3t404c4q51                  ",
"          2m2v343d3m3u414d4r525e5p5z            ",
"        2d2n2w353e3n0p424e4s53185q606b6p        ",
"      252e2o0d0d0d060p434f++545f18616c6q75      ",
"    1y262f2p0d36////0p444g++551919626d6r767i    ",
"  1m1z27XX2q061111090f0g08++0o0o0r636e6s777j7v  ",
"  1n20XX2g0606//0n090f0g08++0i0c5r0k6f6t787k7w  ",
"1e1o21XXXX0l0l//0n090f0gXX++0i0c0c1c1d6u0u7l7x86",
"1f1p0v280y100l//0n090f0g08++0i0c0r1c1d6v0u7m7y87",
"1g1qXX0x2hXXXXXXXX3o3v45..++0i0c0r176g6w0u7n7z88",
"1h1rXXXXXX07070707073w46..4t175g5s646h6x797o8089",
"1i1s0kXXXX||||||||||||47..16565h5t656i6y7a7p818a",
"1j1tXX290y0x2x12..3p3x094h16575i5u666j6z0j7q828b",
"1k1u0v060z0z080m130e0a0q4i4u585j5v676k0h0j7r838c",
"1l1v0wXXXXXX080m130e0a0q4j4v590b5w680h0j7b7s84  ",
"  1w220w0k10//123f0e0a0q4k4w0h0b0s0s0j0s7c7t85  ",
"  1x232a2i..2y....0e0a++154x0b5k0t0t0t707d7u    ",
"    242b2j2r2z373g0o0a154l0h0b5l1a1a6l717e      ",
"      2c2k2s30383h0m14484m0b5a5m1b1b6m72        ",
"        2l2t31393i3q14494n4y5b5n5x696n737f      ",
"          2u323a3j3r3y4a4o4z5c5o5y6a6o747g      ",
"              3b3k3s3z4b4p505d          7h      ",
"                                                "};