/* XPM */
static char * xpm_search[] = {
"24 24 394 2",
"  	c None",
"XX	c #1a1a1a",
"++	c #5e6368",
"..	c #68696f",
"||	c #56585e",
"//	c #59595e",
"06	c #2a2a2e",
"07	c #626368",
"08	c #74777c",
"09	c #4e4f54",
"0a	c #595b5f",
"0b	c #38383a",
"0c	c #46494d",
"0d	c #55575c",
"0e	c #787e82",
"0f	c #7c7f85",
"0g	c #313236",
"0h	c #636469",
"0i	c #bebec0",
"0j	c #c5c5cc",
"0k	c #dadcdc",
"0l	c #dee0e2",
"0m	c #ffffff",
"0n	c #25262a",
"0o	c #afb2b5",
"0p	c #333438",
"0q	c #6c7077",
"0r	c #cacccf",
"0s	c #787c80",
"0t	c #1d1e20",
"0u	c #2a2a2d",
"0v	c #e2e4e6",
"0w	c #c7c8ca",
"0x	c #181819",
"0y	c #1a1a1c",
"0z	c #27282a",
"10	c #e0e2e6",
"11	c #63676c",
"12	c #4f5257",
"13	c #5c5c62",
"14	c #232426",
"15	c #b0b4b9",
"16	c #4a4c50",
"17	c #4e4e52",
"18	c #3b3c3f",
"19	c #2e2f31",
"1a	c #424246",
"1b	c #4b4d51",
"1c	c #c8cace",
"1d	c #5c5e63",
"1e	c #c7c8cc",
"1f	c #757c7f",
"1g	c #222325",
"1h	c #e4e8e8",
"1i	c #0a0a0b",
"1j	c #71747b",
"1k	c #0b0a0b",
"1l	c #696d73",
"1m	c #1e1e1f",
"1n	c #222223",
"1o	c #6d6e72",
"1p	c #6c6d71",
"1q	c #68696d",
"1r	c #616267",
"1s	c #67686c",
"1t	c #505458",
"1u	c #3d3e42",
"1v	c #27272b",
"1w	c #353639",
"1x	c #5c5c60",
"1y	c #56585c",
"1z	c #57595d",
"20	c #6c6c71",
"21	c #38393d",
"22	c #494a4e",
"23	c #54565b",
"24	c #63686d",
"25	c #7e8288",
"26	c #83888e",
"27	c #8f9498",
"28	c #6c6d73",
"29	c #44454b",
"2a	c #4a4b50",
"2b	c #404246",
"2c	c #707176",
"2d	c #9d9ea2",
"2e	c #73797e",
"2f	c #7c8285",
"2g	c #7c8085",
"2h	c #8f9298",
"2i	c #9ea2a6",
"2j	c #a0a2a6",
"2k	c #a8abaf",
"2l	c #b0b4b7",
"2m	c #c8cacc",
"2n	c #b5b9bc",
"2o	c #c3c7ca",
"2p	c #6f7177",
"2q	c #737479",
"2r	c #caccd1",
"2s	c #afafb5",
"2t	c #b2b4ba",
"2u	c #b9babe",
"2v	c #dcdae2",
"2w	c #2b2b2f",
"2x	c #83868b",
"2y	c #d3d5d7",
"2z	c #e6e8e4",
"30	c #afb0b4",
"31	c #73787c",
"32	c #7f8589",
"33	c #515156",
"34	c #5e5f63",
"35	c #b9bec1",
"36	c #e0e2e0",
"37	c #dcdcde",
"38	c #dcdce0",
"39	c #dcdee0",
"3a	c #8f9198",
"3b	c #e6e6e6",
"3c	c #cccccf",
"3d	c #bec1c3",
"3e	c #a0a3a8",
"3f	c #9da0a5",
"3g	c #5c5d5f",
"3h	c #2d2d31",
"3i	c #343537",
"3j	c #45474c",
"3k	c #3d3f44",
"3l	c #45494d",
"3m	c #57575d",
"3n	c #979ba0",
"3o	c #d9dada",
"3p	c #cccecf",
"3q	c #cac8ce",
"3r	c #e8e9e9",
"3s	c #26262a",
"3t	c #91949b",
"3u	c #7e8086",
"3v	c #707478",
"3w	c #797e82",
"3x	c #3f4046",
"3y	c #191a1c",
"3z	c #77787c",
"40	c #e4e6e8",
"41	c #6b6b70",
"42	c #c0c5c7",
"43	c #808388",
"44	c #66676d",
"45	c #b7b9bc",
"46	c #b5b7ba",
"47	c #b4b7ba",
"48	c #ccd1d5",
"49	c #525458",
"4a	c #77797f",
"4b	c #707378",
"4c	c #6d7178",
"4d	c #6d7175",
"4e	c #6f7377",
"4f	c #75787e",
"4g	c #3a3d41",
"4h	c #737475",
"4i	c #dee0e4",
"4j	c #5f6263",
"4k	c #d3d3d9",
"4l	c #808086",
"4m	c #55575d",
"4n	c #bcbec3",
"4o	c #adb0b5",
"4p	c #adb0b4",
"4q	c #232526",
"4r	c #4c4d51",
"4s	c #6d7177",
"4t	c #67696f",
"4u	c #68686d",
"4v	c #626469",
"4w	c #686b70",
"4x	c #393a3f",
"4y	c #1b1c1c",
"4z	c #1d1e1f",
"50	c #5c5d63",
"51	c #b5b9c0",
"52	c #bcc0c5",
"53	c #3d3d42",
"54	c #5d6267",
"55	c #474c50",
"56	c #5e5f64",
"57	c #5b5c62",
"58	c #44454a",
"59	c #565b5f",
"5a	c #5f5f64",
"5b	c #5d5f64",
"5c	c #595c61",
"5d	c #57595e",
"5e	c #595e63",
"5f	c #3a3b3e",
"5g	c #202223",
"5h	c #55595d",
"5i	c #a8abb0",
"5j	c #303337",
"5k	c #494b4f",
"5l	c #5d5e63",
"5m	c #5b5c61",
"5n	c #5f6166",
"5o	c #46464c",
"5p	c #4e4f55",
"5q	c #545559",
"5r	c #525257",
"5s	c #4d5156",
"5t	c #2c2f31",
"5u	c #2f3033",
"5v	c #323337",
"5w	c #454a4d",
"5x	c #494d50",
"5y	c #2d2e2f",
"5z	c #4b4d4e",
"60	c #6d6d74",
"61	c #6d6d73",
"62	c #424649",
"63	c #565759",
"64	c #4d4e50",
"65	c #414245",
"66	c #3f4044",
"67	c #3c3e42",
"68	c #3d4044",
"69	c #323536",
"6a	c #5b5d64",
"6b	c #595c62",
"6c	c #3b3d40",
"6d	c #1c1b1c",
"6e	c #1f1f22",
"6f	c #36373a",
"6g	c #333437",
"6h	c #3f3f40",
"6i	c #414043",
"6j	c #989aa2",
"6k	c #585d62",
"6l	c #62676c",
"6m	c #3c3d3f",
"6n	c #494c4e",
"6o	c #414041",
"6p	c #49484c",
"6q	c #3b3c40",
"6r	c #3b3e40",
"6s	c #1a191a",
"6t	c #1c1c1d",
"6u	c #1f2022",
"6v	c #5b5d5f",
"6w	c #626367",
"6x	c #9b9ea5",
"6y	c #b5b7bc",
"6z	c #b7babe",
"70	c #505055",
"71	c #5b5b5f",
"72	c #696c71",
"73	c #858b8f",
"74	c #7e8388",
"75	c #7b8083",
"76	c #7b7f83",
"77	c #666970",
"78	c #37373b",
"79	c #6d6f73",
"7a	c #efeff1",
"7b	c #efefef",
"7c	c #6b6d70",
"7d	c #e0e2e4",
"7e	c #bec3c5",
"7f	c #91959a",
"7g	c #3f4246",
"7h	c #4e5055",
"7i	c #666b70",
"7j	c #7f8388",
"7k	c #7c7f86",
"7l	c #808589",
"7m	c #86888f",
"7n	c #a5a8aa",
"7o	c #c0c0c5",
"7p	c #cfcfd5",
"7q	c #5b5f63",
"7r	c #545557",
"7s	c #45464b",
"7t	c #777980",
"7u	c #83868c",
"7v	c #959a9b",
"7w	c #91929a",
"7x	c #919297",
"7y	c #8f9197",
"7z	c #a2a3a8",
"80	c #77787e",
"81	c #d1d1d5",
"82	c #caccce",
"83	c #cfd1d5",
"84	c #d5d7d5",
"85	c #aaaaab",
"86	c #64676c",
"87	c #3a3a3d",
"88	c #4d4e51",
"89	c #b4b9be",
"8a	c #363739",
"8b	c #4f5055",
"8c	c #77787f",
"8d	c #f3f5f7",
"8e	c #e6e8e8",
"8f	c #757777",
"8g	c #e9ebeb",
"8h	c #d1d3d7",
"8i	c #ccced1",
"8j	c #c3c3c5",
"8k	c #c7cace",
"8l	c #6d6f74",
"8m	c #28292b",
"8n	c #313235",
"8o	c #232626",
"8p	c #35373b",
"8q	c #6f7178",
"8r	c #242626",
"8s	c #2c2b30",
"8t	c #38373a",
"8u	c #646769",
"8v	c #d9dadc",
"8w	c #cac8ca",
"8x	c #cac8cc",
"8y	c #c8c8cc",
"8z	c #f5f7fd",
"90	c #434449",
"91	c #86898f",
"92	c #75797e",
"93	c #73757b",
"94	c #3f4245",
"95	c #18191b",
"96	c #1e1e20",
"97	c #1c1d1e",
"98	c #292b2d",
"99	c #616268",
"9a	c #c8caca",
"9b	c #b7b9ba",
"9c	c #b7babc",
"9d	c #b9babc",
"9e	c #3b3e42",
"9f	c #6b6d74",
"9g	c #6c6f74",
"9h	c #71777c",
"9i	c #3b3d41",
"9j	c #1c1c1e",
"9k	c #1c1c1c",
"9l	c #5e5e64",
"9m	c #b5b9ba",
"9n	c #a5a8ab",
"9o	c #a8a8af",
"9p	c #a6a8af",
"9q	c #ced1d5",
"9r	c #696c73",
"9s	c #5d6264",
"9t	c #5e6266",
"9u	c #383a3e",
"9v	c #1b1c1d",
"9w	c #1f2021",
"9x	c #1b1b1c",
"9y	c #212124",
"9z	c #57585c",
"a0	c #caced3",
"a1	c #b4b7bc",
"a2	c #afb2b7",
"a3	c #aaabb0",
"a4	c #c8ccd3",
"a5	c #0a090a",
"a6	c #303336",
"a7	c #5b6166",
"a8	c #525559",
"a9	c #4f5458",
"aa	c #4f4f54",
"ab	c #4d4e52",
"ac	c #36383a",
"ad	c #232326",
"ae	c #26272a",
"af	c #3f4244",
"ag	c #3a3d3f",
"ah	c #5e6268",
"ai	c #a0a5aa",
"aj	c #0c0c0d",
"ak	c #393b3f",
"al	c #4b4b4f",
"am	c #4c4f54",
"an	c #4a4d51",
"ao	c #3e3f43",
"ap	c #37383b",
"aq	c #353536",
"ar	c #343435",
"as	c #373738",
"at	c #323233",
"au	c #38383b",
"av	c #242427",
"aw	c #242426",
"ax	c #262629",
"          3j3z4h505h5v    6f6v797r888p          ",
"          0q0v4i515i5w    1a0r7a1e158q          ",
"          0q401052155x    1a1c7b1c891j          ",
"          3k414j535j14    6g6w7c7s8a8r          ",
"          3l424k540918    6h6x7d1f8b8s          ",
"    2c2q343m434l125k5y    6i6y7e7t098t980u9y    ",
"    2d2r353n444m55165z190t6j6z7f7u8c8u999l9z0b  ",
"  1x2e2s363o0w4n565l606aXX6k707g7v8d8v9a9ma01n  ",
"  1y0f2t373p450o570a..||XX++//0c7w1h8w9b9na1af  ",
"  1z2f2u380r464o130a..||XX++//0c7x1h8x9c9oa2ag  ",
"  0d2g0i393q474p130a..||XX++//0c7y8e8y9d9pa3ah  ",
"  202h2v0m3r480j075m..||XX++//167z0m8z0v9qa4ai  ",
"1o210g2w0n3s0n4q585n616b6d6l717h1g1i1k1i1ka5ajaq",
"1p220h2x3a07494r5909626c6e6m177i808f909e0ba61mar",
"  232i0k3b3t4a4s115o        1d7j818g911f9ra706  ",
"  242j2y3c3u4b4t5a5p63    6n720e0w8h929f07a8ak  ",
"1q0e2k0k3d0s4c4u5b5q64    6o730f828i089g++a9alas",
"1r252l0l0o084d115c5r65    6p747k831e931l9saaamat",
"1s260i0l3e3v4e4v5d5s0g    6q757l848j1j1l9tabanau",
"1t272m2z3f3w4f4w5e170b    1b767m108k0s9h0h121b1g",
"1u280j303g3x4g4x5f1866    6r777n858l949i9uacaoav",
"1v292n313h3y0x4y5g5t67    6s0d7o868m950x9vad0paw",
"062a2o320p0t0y4z145u68    6t1d7p088n969j9waeapax",
"1w2b2p333i0u0z0z061969    6u787q878o979k9x1m1n0y"};