/* XPM */
static char * xpm_shield[] = {
"24 24 354 2",
"  	c None",
"XX	c #ffffff",
"++	c #756b6f",
"..	c #80767c",
"||	c #4a4850",
"//	c #4d8cc4",
"06	c #e1e6f0",
"07	c #eff7fb",
"08	c #607889",
"09	c #52525e",
"0a	c #5c7284",
"0b	c #dbd6d9",
"0c	c #7d7378",
"0d	c #aeddf5",
"0e	c #b4e0f7",
"0f	c #a7c8e6",
"0g	c #9fc1de",
"0h	c #b5e2f9",
"0i	c #8fc7eb",
"0j	c #58afe4",
"0k	c #b0d8f1",
"0l	c #a6d7f3",
"0m	c #e0eff8",
"0n	c #f4fafc",
"0o	c #b7d8ed",
"0p	c #c8e3f3",
"0q	c #c6e2f2",
"0r	c #c9e4f3",
"0s	c #b5dbef",
"0t	c #90c9ec",
"0u	c #84c0e7",
"0v	c #bbdef1",
"0w	c #bfe1f2",
"0x	c #2172c1",
"0y	c #8dc5ea",
"0z	c #2b81cb",
"10	c #89c3e8",
"11	c #5ea3d8",
"12	c #5e99cd",
"13	c #2c85ce",
"14	c #8fc7ec",
"15	c #8bc4ea",
"16	c #8ac3e9",
"17	c #89c2e8",
"18	c #8ea3b4",
"19	c #dad4d6",
"1a	c #d9d3d5",
"1b	c #d7d2d4",
"1c	c #d6d0d2",
"1d	c #d4cfd1",
"1e	c #d3cfcf",
"1f	c #d3cdce",
"1g	c #d2ccce",
"1h	c #d2caca",
"1i	c #c8bebf",
"1j	c #c8bfc2",
"1k	c #9f979a",
"1l	c #dbd7da",
"1m	c #aedaf5",
"1n	c #9bd3f2",
"1o	c #9ad2f1",
"1p	c #98ceef",
"1q	c #97ccef",
"1r	c #95cbed",
"1s	c #92c8ec",
"1t	c #90c6ea",
"1u	c #92c7ea",
"1v	c #4fa2da",
"1w	c #3e95d5",
"1x	c #3387cb",
"1y	c #66a4d6",
"1z	c #b3d1e9",
"20	c #c0c2c9",
"21	c #d8d4d7",
"22	c #b4dbf4",
"23	c #b8e4f9",
"24	c #b6e2f9",
"25	c #b5e1f8",
"26	c #b4dff7",
"27	c #b1def6",
"28	c #acdbf4",
"29	c #a5d9f4",
"2a	c #6abcec",
"2b	c #69baeb",
"2c	c #65bae9",
"2d	c #5cb5e7",
"2e	c #4ba5de",
"2f	c #2a7cc5",
"2g	c #7eacd7",
"2h	c #c3bdc0",
"2i	c #d6d2d5",
"2j	c #b3dbf3",
"2k	c #b6e3f9",
"2l	c #b4e1f8",
"2m	c #b3dff7",
"2n	c #b0def6",
"2o	c #aedcf5",
"2p	c #addbf5",
"2q	c #aad9f4",
"2r	c #8cccef",
"2s	c #65b9eb",
"2t	c #65b9e9",
"2u	c #60b7e8",
"2v	c #5bb1e5",
"2w	c #57aee3",
"2x	c #50abe2",
"2y	c #419fdb",
"2z	c #2772b9",
"30	c #a9bbcf",
"31	c #d5d1d4",
"32	c #b2daf3",
"33	c #b5e3f9",
"34	c #b2dff7",
"35	c #b0ddf6",
"36	c #aeddf6",
"37	c #96caec",
"38	c #a0c6e1",
"39	c #5eb6e7",
"3a	c #5ab0e4",
"3b	c #54ace2",
"3c	c #4ea8e0",
"3d	c #49a6df",
"3e	c #43a4df",
"3f	c #1c70bb",
"3g	c #abc4da",
"3h	c #d3cfd2",
"3i	c #b1d9f2",
"3j	c #b2def6",
"3k	c #afddf5",
"3l	c #afdcf5",
"3m	c #5ab2e7",
"3n	c #53ace1",
"3o	c #4ca7df",
"3p	c #46a4dd",
"3q	c #429fdc",
"3r	c #3a9edb",
"3s	c #1b74be",
"3t	c #a6c0d6",
"3u	c #d2ced1",
"3v	c #b4e2f9",
"3w	c #b3e0f7",
"3x	c #b3dff6",
"3y	c #b0def5",
"3z	c #9bbfdd",
"40	c #59b2e6",
"41	c #53ace2",
"42	c #4ca7e0",
"43	c #45a2dc",
"44	c #3f9eda",
"45	c #389ad9",
"46	c #2e9ad9",
"47	c #1061b0",
"48	c #c0c6d2",
"49	c #d0ccd0",
"4a	c #a5d7f2",
"4b	c #a0d4f2",
"4c	c #9fd3f1",
"4d	c #85c1e7",
"4e	c #95bddc",
"4f	c #3e9cd8",
"4g	c #3e97d5",
"4h	c #3a92d2",
"4i	c #45a2dd",
"4j	c #3d9dd9",
"4k	c #3699d7",
"4l	c #2d98d7",
"4m	c #248fd5",
"4n	c #226cb0",
"4o	c #afa7a6",
"4p	c #d1cbce",
"4q	c #aed8f0",
"4r	c #b6e2f8",
"4s	c #eaf4fa",
"4t	c #e9f2fa",
"4u	c #e6f0fa",
"4v	c #f0f5fa",
"4w	c #42a2dd",
"4x	c #3c9cda",
"4y	c #3599d7",
"4z	c #2d95d6",
"50	c #2693d5",
"51	c #167cc7",
"52	c #85a4c4",
"53	c #c4c5ca",
"54	c #a6d2ed",
"55	c #aedcf6",
"56	c #9ed3f0",
"57	c #f8fdfe",
"58	c #f6fbfd",
"59	c #f7fbfd",
"5a	c #f2f8fb",
"5b	c #3999d8",
"5c	c #3495d5",
"5d	c #2d90d2",
"5e	c #278dd1",
"5f	c #2188cf",
"5g	c #1887d0",
"5h	c #377ab5",
"5i	c #88888d",
"5j	c #95adc0",
"5k	c #8abfe3",
"5l	c #8dc7ec",
"5m	c #83bfe7",
"5n	c #b2d9ee",
"5o	c #b4dbf0",
"5p	c #b5dbf0",
"5q	c #b6dcf0",
"5r	c #bae1f3",
"5s	c #2f73b8",
"5t	c #227ac8",
"5u	c #2076c5",
"5v	c #1c74c2",
"5w	c #186fbf",
"5x	c #136ebe",
"5y	c #0e6cbe",
"5z	c #2060a5",
"60	c #97adc0",
"61	c #8ac0e3",
"62	c #b8ddf0",
"63	c #badef1",
"64	c #b7dbf0",
"65	c #b7dcf0",
"66	c #b5dcf0",
"67	c #bbe1f3",
"68	c #2c6eb3",
"69	c #237dc8",
"6a	c #2078c5",
"6b	c #1b75c4",
"6c	c #1871c1",
"6d	c #1270bf",
"6e	c #0b5db2",
"6f	c #5283b0",
"6g	c #96acbf",
"6h	c #8abee3",
"6i	c #84bee6",
"6j	c #81bde5",
"6k	c #80bce4",
"6l	c #63a6d7",
"6m	c #bddff1",
"6n	c #5695ca",
"6o	c #2174c2",
"6p	c #1f70bd",
"6q	c #2272bf",
"6r	c #237bc8",
"6s	c #1f77c4",
"6t	c #1b74c2",
"6u	c #1672c1",
"6v	c #126dbe",
"6w	c #14519b",
"6x	c #94abbe",
"6y	c #89bee2",
"6z	c #90c8ec",
"70	c #8cc5e9",
"71	c #8ac4e8",
"72	c #8bc3e8",
"73	c #5fa2d7",
"74	c #bde0f1",
"75	c #c0e2f2",
"76	c #5b97cc",
"77	c #2d86d0",
"78	c #2c85cd",
"79	c #267dca",
"7a	c #227ac6",
"7b	c #1e76c4",
"7c	c #1a74c4",
"7d	c #1572c1",
"7e	c #0a4c9f",
"7f	c #6087a8",
"7g	c #93aabb",
"7h	c #89bde1",
"7i	c #8fc8ec",
"7j	c #8bc4e9",
"7k	c #c0e3f2",
"7l	c #c2e4f4",
"7m	c #c3e4f4",
"7n	c #2c82cc",
"7o	c #297fca",
"7p	c #257cc8",
"7q	c #2179c6",
"7r	c #1d76c3",
"7s	c #1874c3",
"7t	c #0d59ab",
"7u	c #4f7eaa",
"7v	c #92a7ba",
"7w	c #88bde1",
"7x	c #89c1e7",
"7y	c #5fa3d4",
"7z	c #5ea0d1",
"80	c #609ed0",
"81	c #2d86ce",
"82	c #2c82cb",
"83	c #287fca",
"84	c #257cc7",
"85	c #2078c6",
"86	c #1a78c8",
"87	c #0f52a7",
"88	c #4d7da9",
"89	c #91a6b8",
"8a	c #88bce0",
"8b	c #88c2e8",
"8c	c #88c0e6",
"8d	c #8bc1e7",
"8e	c #338cd3",
"8f	c #338ed2",
"8g	c #318ad1",
"8h	c #3089d0",
"8i	c #2d84cd",
"8j	c #277ec9",
"8k	c #237cc9",
"8l	c #1d72c2",
"8m	c #1557a7",
"8n	c #4a759c",
"8o	c #91a5b7",
"8p	c #87bbe0",
"8q	c #8fc7ed",
"8r	c #8cc5ea",
"8s	c #8ac4e9",
"8t	c #86c0e7",
"8u	c #8ac0e6",
"8v	c #358ed4",
"8w	c #388dd3",
"8x	c #348dd2",
"8y	c #3187d0",
"8z	c #2980cc",
"90	c #2379c9",
"91	c #1860b3",
"92	c #336ba7",
"93	c #5a7388",
"94	c #91a6b7",
"95	c #82b9e1",
"96	c #7ebde8",
"97	c #7db9e7",
"98	c #7ab9e4",
"99	c #79b7e2",
"9a	c #78b5e1",
"9b	c #7eb5e1",
"9c	c #2e80cb",
"9d	c #2778c7",
"9e	c #2575c5",
"9f	c #1e67bb",
"9g	c #2c6cb0",
"9h	c #4678a7",
"9i	c #51718c",
"9j	c #4e5766",
"9k	c #8ca0b1",
"9l	c #8b9faf",
"9m	c #8a9eae",
"9n	c #8a9cab",
"9o	c #899baa",
"9p	c #8a9bab",
"9q	c #657c8f",
"9r	c #597386",
"9s	c #5a7185",
"9t	c #596f84",
"    0b1l212i313h3u494p535j606g6x7g7v898o9418    ",
"    0b1m222j323i0k0k4q545k616h6y7h7w8a8p9518    ",
"    191n232k330h3v0h4r555l0t0t6z7i14148q969k    ",
"    1a1o242l0e0e3w0l0l565m0u0u0y0y15158r979l    ",
"    1b1p252m343j3x4a0m0m0o0o6i707j16168s989m    ",
"    1c1q262n353k3y4b4s570p0p6j7110178b17999n    ",
"    1d1r272o363l0d4c4t580q0q6k72107x8c8t9a9o    ",
"    1e1s0d2p370i0i4d4u590r0r6l7311118d8u9b9p    ",
"    1f1t282q0fXXXXXXXX075n626m747k7y8e8v9c9q    ",
"    1g1u292r0fXXXXXXXX075o630v0w7l7z8f8w9d9r    ",
"    1h1v2a2s38XXXXXXXX075p0v0w757m808g8x9e9s    ",
"    1i1w2b2t0g0g3z4e4v5a0s646n7612128h8y0x9t    ",
"    1j1x2c2u393m404f060n5q656o7713818i139f0a    ",
"    1k1y2d2v3a0j0j4g060n0s660x787n820z8z9g0a    ",
"    0c1z2e2w3b3n414h06XX5r676p0z7o838j909h0a    ",
"    ++202f2x3c3o42//////5s686q797p848k919i09    ",
"      0c2g2y3d3p434i4w5b5t696r7a7q858l929j      ",
"      ++2h2z3e3q444j4x5c5u6a6s7b7r868m9309      ",
"        ++303f3r454k4y5d5v6b6t7c7s878n09        ",
"          ++3g3s464l4z5e5w6c6u7d7t88||          ",
"            ..3t474m505f5x6d6v7e7u||            ",
"              ..484n515g5y6e6w7f||              ",
"                ..4o525h5z6f08||                ",
"                    ..5i0808                    "};