/* XPM */
static char * xpm_shopping_cart[] = {
"24 24 131 2",
"  	c None",
"XX	c #0859a8",
"++	c #287fc8",
"..	c #77c0f6",
"||	c #1363af",
"//	c #2175c0",
"06	c #1b6bb7",
"07	c #0064b3",
"08	c #96d7ff",
"09	c #1361af",
"0a	c #308ad3",
"0b	c #1b6cb8",
"0c	c #84ceff",
"0d	c #7cc8fc",
"0e	c #0370bf",
"0f	c #95d6ff",
"0g	c #97d7ff",
"0h	c #7cc8fe",
"0i	c #0471bf",
"0j	c #1570bb",
"0k	c #0d5cab",
"0l	c #71b8ee",
"0m	c #006db8",
"0n	c #0773c0",
"0o	c #0571c0",
"0p	c #73bef3",
"0q	c #5da6e2",
"0r	c #5ebcf8",
"0s	c #59b5f2",
"0t	c #5bb9f5",
"0u	c #95ddff",
"0v	c #71c3f5",
"0w	c #8cc3f1",
"0x	c #559bd7",
"0y	c #60b8f1",
"0z	c #95d9ff",
"10	c #88d0fb",
"11	c #6ec0f5",
"12	c #5fb6f1",
"13	c #59afed",
"14	c #51aae8",
"15	c #49a2e4",
"16	c #449ee0",
"17	c #3f98de",
"18	c #3893d8",
"19	c #338ed6",
"1a	c #2d88d2",
"1b	c #2784ce",
"1c	c #1d7fca",
"1d	c #1479c6",
"1e	c #0b74c2",
"1f	c #96d0fa",
"1g	c #4499dc",
"1h	c #2a7fc8",
"1i	c #0f5fac",
"1j	c #5db3ed",
"1k	c #7ec7f6",
"1l	c #78c2f5",
"1m	c #6bbbf0",
"1n	c #63b4ed",
"1o	c #58abe7",
"1p	c #4ca0e0",
"1q	c #479adc",
"1r	c #338bd2",
"1s	c #2c84cc",
"1t	c #277dc7",
"1u	c #2177c2",
"1v	c #1b71bc",
"1w	c #0c7bc8",
"1x	c #3189cb",
"1y	c #70bbf1",
"1z	c #95d5ff",
"20	c #89d0ff",
"21	c #85ccfe",
"22	c #7cc3f6",
"23	c #72b9ee",
"24	c #55a2df",
"25	c #2980ca",
"26	c #0975c2",
"27	c #338acb",
"28	c #6bb9f0",
"29	c #85ceff",
"2a	c #7ec8fc",
"2b	c #78c1f6",
"2c	c #4d9cdc",
"2d	c #0974c3",
"2e	c #94cff9",
"2f	c #3e95da",
"2g	c #277cc7",
"2h	c #0f5dac",
"2i	c #0a74c3",
"2j	c #85bfef",
"2k	c #408cd0",
"2l	c #0874c3",
"2m	c #006ab7",
"2n	c #7dc8fe",
"2o	c #54a6e6",
"2p	c #0873c0",
"2q	c #0065b4",
"2r	c #57a8e6",
"2s	c #83ceff",
"2t	c #459ee0",
"2u	c #489fe2",
"2v	c #0471c0",
"2w	c #5cabe8",
"2x	c #96d6ff",
"2y	c #63afea",
"2z	c #9ad4fe",
"30	c #61ade7",
"31	c #2a83cc",
"32	c #1f71bc",
"33	c #2a83c8",
"34	c #1d70bb",
"35	c #90d4ff",
"36	c #2a84c8",
"37	c #1d6dba",
"38	c #1160ae",
"39	c #8acffc",
"3a	c #7fc9fc",
"3b	c #237fc5",
"3c	c #80c4f4",
"3d	c #4098db",
"3e	c #2b80c9",
"3f	c #1c6dba",
"3g	c #1060ae",
"3h	c #7ecbff",
"3i	c #6cb0e6",
"3j	c #3084cc",
"3k	c #0464b2",
"3l	c #70b2e6",
"3m	c #3a8acd",
"  0r0t                                          ",
"  0s0u0y                                        ",
"    0v0z1j                                      ",
"      101k                                      ",
"      111l1z0f080g0g08080808080f0g082x0f3539    ",
"      121m2029    0c0c    2s0c    0c0c    3a3h  ",
"      131n212a    2n0d    0h0d    0d0h    0d0h  ",
"      141o222b................................  ",
"      151p230l    2o2r    2t2u    2w2y    0q0l  ",
"      161q242c    0a0a    0a0a    0a0a    0q3i  ",
"      171r25++++++++++++++++++++++++++++++++3j  ",
"      181s////    ////    ////    ////    ////  ",
"      191t0606    0606    0606    0606    0906  ",
"      1a1u||||||||||||||||||09090909||||||09||  ",
"      1b1vXXXXXXXXXXXXXXXXXXXXXXXXXXXXXXXXXXXX  ",
"      1c0j                                      ",
"      1d0j                                      ",
"      1e1w262d2i2l2p0n0n0o0o2v0i0i0i0e0e0e0e3k  ",
"        1x270m0m2m2q07070707070707070733363b    ",
"      1f1y282e                      2z0p0p3c    ",
"    0w1g    2f2j                    30    3d3l  ",
"    0x1h    2g2k                    31    3e3m  ",
"      0b0b060b0b                    3234373f0b  ",
"      1i0k0k2h                        09383g    "};