/* XPM */
static char * xpm_silence[] = {
"24 24 403 2",
"  	c None",
"XX	c #ffffff",
"++	c #5bb93c",
"..	c #5ab93c",
"||	c #5ab83c",
"//	c #5cba3c",
"06	c #f84e30",
"07	c #f85435",
"08	c #59b83a",
"09	c #5bba3c",
"0a	c #5abc3d",
"0b	c #f73c25",
"0c	c #59b936",
"0d	c #f83321",
"0e	c #e96a6f",
"0f	c #f7261d",
"0g	c #70c53c",
"0h	c #f6201c",
"0i	c #e10811",
"0j	c #e21317",
"0k	c #e31717",
"0l	c #e8221c",
"0m	c #e6211b",
"0n	c #dd1414",
"0o	c #d61113",
"0p	c #c8060e",
"0q	c #ea0d14",
"0r	c #ef2922",
"0s	c #f6472d",
"0t	c #f94d2f",
"0u	c #f7492b",
"0v	c #f7432a",
"0w	c #f74028",
"0x	c #f83e26",
"0y	c #fa3c24",
"0z	c #f33020",
"10	c #e11b17",
"11	c #c40a0f",
"12	c #ed0a14",
"13	c #f0211e",
"14	c #f95234",
"15	c #f85333",
"16	c #f84c2d",
"17	c #f8492c",
"18	c #f8442b",
"19	c #f84229",
"1a	c #fa3f25",
"1b	c #f93924",
"1c	c #f93422",
"1d	c #f93121",
"1e	c #f82c1f",
"1f	c #d71111",
"1g	c #bc040b",
"1h	c #f00912",
"1i	c #f43b2b",
"1j	c #f95d37",
"1k	c #f85434",
"1l	c #f85433",
"1m	c #f13123",
"1n	c #e61a19",
"1o	c #e22e34",
"1p	c #df3c43",
"1q	c #dc3c42",
"1r	c #d92e34",
"1s	c #db1514",
"1t	c #e8221b",
"1u	c #fe3121",
"1v	c #ff2921",
"1w	c #d2301d",
"1x	c #992a17",
"1y	c #7a1a10",
"1z	c #f10a13",
"20	c #f53b2b",
"21	c #f95e39",
"22	c #f95534",
"23	c #f01719",
"24	c #f18f93",
"25	c #ea8187",
"26	c #bb1919",
"27	c #4b7231",
"28	c #62ba67",
"29	c #87ce81",
"2a	c #80c77b",
"2b	c #4b924b",
"2c	c #f42522",
"2d	c #f9653e",
"2e	c #f85a37",
"2f	c #f85232",
"2g	c #f97172",
"2h	c #348641",
"2i	c #ade19b",
"2j	c #9dd783",
"2k	c #71c452",
"2l	c #6bc24e",
"2m	c #7dcc5f",
"2n	c #59a34f",
"2o	c #f30d14",
"2p	c #f9613e",
"2q	c #f85d3b",
"2r	c #f95c39",
"2s	c #f85634",
"2t	c #f85132",
"2u	c #f74f31",
"2v	c #f84b2e",
"2w	c #f66869",
"2x	c #afcbb0",
"2y	c #7dbc6f",
"2z	c #9fd683",
"30	c #55b733",
"31	c #57b73a",
"32	c #5cbf3c",
"33	c #2b712d",
"34	c #f63228",
"35	c #f8653e",
"36	c #f9623d",
"37	c #ef171a",
"38	c #f85635",
"39	c #f75233",
"3a	c #f74e30",
"3b	c #f74b2f",
"3c	c #f7462c",
"3d	c #f56768",
"3e	c #84ad85",
"3f	c #a6d690",
"3g	c #6dc14c",
"3h	c #5ab93a",
"3i	c #5bbc3d",
"3j	c #338030",
"3k	c #f40710",
"3l	c #f95b3c",
"3m	c #f8643e",
"3n	c #f63a2a",
"3o	c #f79095",
"3p	c #f37172",
"3q	c #f75032",
"3r	c #f75031",
"3s	c #f7492d",
"3t	c #f7472b",
"3u	c #f7422a",
"3v	c #f26667",
"3w	c #508a51",
"3x	c #bce4a2",
"3y	c #58b834",
"3z	c #3e9234",
"40	c #f6181b",
"41	c #fb6643",
"42	c #fc613d",
"43	c #f71a1c",
"44	c #f9676c",
"45	c #fb4a2f",
"46	c #f84a2e",
"47	c #f7462b",
"48	c #f6422b",
"49	c #f74027",
"4a	c #f26467",
"4b	c #548d56",
"4c	c #a3db85",
"4d	c #5ab937",
"4e	c #358831",
"4f	c #ff1920",
"4g	c #e46d3d",
"4h	c #da6f39",
"4i	c #d83830",
"4j	c #d74a44",
"4k	c #fd422a",
"4l	c #f8462b",
"4m	c #f64129",
"4n	c #f64027",
"4o	c #f66468",
"4p	c #ddede0",
"4q	c #59915c",
"4r	c #a8dc8d",
"4s	c #5ac23e",
"4t	c #3e5625",
"4u	c #6c9032",
"4v	c #7ed364",
"4w	c #7dce64",
"4x	c #7dce67",
"4y	c #83c665",
"4z	c #82c165",
"50	c #7ec265",
"51	c #6dc968",
"52	c #d24f39",
"53	c #fd3c28",
"54	c #f74229",
"55	c #f63f27",
"56	c #fc3522",
"57	c #ae3221",
"58	c #5dba63",
"59	c #b9e2a2",
"5a	c #5bbd3d",
"5b	c #38a537",
"5c	c #811a13",
"5d	c #88cf64",
"5e	c #c1e586",
"5f	c #99d64e",
"5g	c #94d44a",
"5h	c #8fd34c",
"5i	c #90d24c",
"5j	c #8ed24c",
"5k	c #8ad24e",
"5l	c #7ede53",
"5m	c #be4620",
"5n	c #ff3b29",
"5o	c #f73e27",
"5p	c #f63b25",
"5q	c #f83923",
"5r	c #fd2c1e",
"5s	c #c6492a",
"5t	c #66d452",
"5u	c #5dbe3b",
"5v	c #5ebd3d",
"5w	c #5dbd3d",
"5x	c #5cc33e",
"5y	c #329e36",
"5z	c #734826",
"60	c #de030c",
"61	c #77b94e",
"62	c #a9df62",
"63	c #81cc30",
"64	c #81cb35",
"65	c #7ecc36",
"66	c #66b936",
"67	c #58ac35",
"68	c #57ab35",
"69	c #54ab35",
"6a	c #49b638",
"6b	c #a7341f",
"6c	c #fd3b26",
"6d	c #f73c24",
"6e	c #f63723",
"6f	c #fd261c",
"6g	c #af3b1d",
"6h	c #31a236",
"6i	c #3e9836",
"6j	c #319935",
"6k	c #3a6229",
"6l	c #b32b1e",
"6m	c #ff131b",
"6n	c #bd060b",
"6o	c #9b5723",
"6p	c #a8e67f",
"6q	c #86ce36",
"6r	c #81cc36",
"6s	c #7fcc38",
"6t	c #65b837",
"6u	c #9fc99b",
"6v	c #ec6268",
"6w	c #f73b25",
"6x	c #f73824",
"6y	c #f73321",
"6z	c #f82e20",
"70	c #fe261c",
"71	c #c74442",
"72	c #e0efe4",
"73	c #d3050d",
"74	c #fe1419",
"75	c #fc1419",
"76	c #b60609",
"77	c #f40c15",
"78	c #71a33b",
"79	c #aae270",
"7a	c #7fcb32",
"7b	c #7ecb38",
"7c	c #7fcd39",
"7d	c #4ca135",
"7e	c #fc3422",
"7f	c #f72d20",
"7g	c #f72a1e",
"7h	c #fa231c",
"7i	c #de8f91",
"7j	c #e11313",
"7k	c #f71719",
"7l	c #f31216",
"7m	c #9f0205",
"7n	c #e63524",
"7o	c #59b848",
"7p	c #9dda5b",
"7q	c #7dcb36",
"7r	c #7cca38",
"7s	c #79c93a",
"7t	c #459735",
"7u	c #bfd9bd",
"7v	c #d7e7d5",
"7w	c #89b988",
"7x	c #56a45d",
"7y	c #6cb579",
"7z	c #c04540",
"80	c #fb2f20",
"81	c #f82e1f",
"82	c #f62a1e",
"83	c #f6211c",
"84	c #c80d0f",
"85	c #fa1b1a",
"86	c #f91719",
"87	c #d30c0f",
"88	c #f80a14",
"89	c #ea6439",
"8a	c #56b248",
"8b	c #7fd03d",
"8c	c #7ccb38",
"8d	c #79c839",
"8e	c #7bca3b",
"8f	c #66bb38",
"8g	c #64b839",
"8h	c #69bf3b",
"8i	c #6cc73c",
"8j	c #99caa4",
"8k	c #e26569",
"8l	c #f82d1f",
"8m	c #f72b1f",
"8n	c #f6251d",
"8o	c #f7211c",
"8p	c #f81e1b",
"8q	c #f7191a",
"8r	c #f71617",
"8s	c #aa0409",
"8t	c #f82221",
"8u	c #ff5c3a",
"8v	c #5a9536",
"8w	c #66c538",
"8x	c #7acb39",
"8y	c #79c83a",
"8z	c #76c73b",
"90	c #71c63b",
"91	c #6fc63c",
"92	c #4fa837",
"93	c #abd5b4",
"94	c #d7696a",
"95	c #f5271d",
"96	c #f61d1a",
"97	c #fb1a1a",
"98	c #cb0b0f",
"99	c #f20a13",
"9a	c #f7382a",
"9b	c #ff553b",
"9c	c #a57133",
"9d	c #47a235",
"9e	c #50b638",
"9f	c #5cc039",
"9g	c #59bf39",
"9h	c #4ab239",
"9i	c #389e3b",
"9j	c #abd4b5",
"9k	c #c60d0e",
"9l	c #f8241e",
"9m	c #fa1d1b",
"9n	c #e21313",
"9o	c #a90509",
"9p	c #ef0912",
"9q	c #f53628",
"9r	c #fe5434",
"9s	c #ff4934",
"9t	c #d8562e",
"9u	c #bc5d2f",
"9v	c #bc3322",
"9w	c #ba1b17",
"9x	c #ea4c59",
"9y	c #e6404a",
"9z	c #da2b31",
"a0	c #db1414",
"a1	c #e81f1a",
"a2	c #fa2c1e",
"a3	c #f7241e",
"a4	c #fa211c",
"a5	c #e41514",
"a6	c #ae0509",
"a7	c #ed0b13",
"a8	c #f0211d",
"a9	c #f84e2f",
"aa	c #fb4b2e",
"ab	c #fc442b",
"ac	c #fb422a",
"ad	c #fa4128",
"ae	c #f94027",
"af	c #fa3c25",
"ag	c #fa3723",
"ah	c #f93221",
"ai	c #f92d20",
"aj	c #f8281e",
"ak	c #f8241c",
"al	c #d31011",
"am	c #b5060c",
"an	c #e90d13",
"ao	c #ef2620",
"ap	c #f7402a",
"aq	c #f8452b",
"ar	c #f84228",
"as	c #f73d26",
"at	c #f73a24",
"au	c #f93623",
"av	c #fa3321",
"aw	c #f42a1e",
"ax	c #e11815",
"ay	c #c30a0f",
"az	c #e10911",
"b0	c #e21315",
"b1	c #e21718",
"b2	c #e7201a",
"b3	c #e51e18",
"b4	c #dc1314",
"b5	c #d61012",
"b6	c #c7070e",
"                3k404f4u5d616o77                ",
"            2o343l414g4v5e626p787n88            ",
"        1z2c2p353m424h4w5f636q797o898t99        ",
"      1h202d2q363n434i4x5g646r7a7p8a8u9a9p      ",
"    121i212e2r373oXXXX4y5h656s7b7q8b8v9b9qa7    ",
"    131j07072s383pXXXX4z5i666t7c7r8c8w9c9ra8    ",
"  0q141k222f2t393q44XX505j676u7d7s8d8x9d9sa9an  ",
"  0r151l23062u3a3r454j515k68XXXX7t8e8y9e9taaao  ",
"0i0s061m242g2v3b3s464k525l69XXXX7u8f8z9f9uabapaz",
"0j0t161nXXXX2w3c3t474l535m6aXXXX7v8g909g9vacaqb0",
"0k0u171oXXXXXX3d3u484m545n6bXXXX7w8h919h9wadarb1",
"0l0v181pXXXXXXXX3v494n555o6c6vXX7x0g0g9i9xaeasb2",
"0m0w191qXXXXXXXXXX4a0b0b5p6d6w0e7y8i929j9yafatb3",
"0n0x1a1rXXXXXXXXXXXX4o565q6e6x7e7z8j93XX9zagaub4",
"0o0y1b1sXXXXXXXXXXXX4p575r0d6y0d808kXXXXa0ahavb5",
"0p0z1c1t25XX2x3e3w4b4q585s6f6z7f818l94XXa1aiawb6",
"  101d1u262h2y3f3x4c4r595t6g707g828m959ka2ajax  ",
"  111e1v272i2z3g3y4d0c0c5u6h717h0f8n0f9la3akay  ",
"    1f1w282j303h09//////5v6i720e838o0h0ha4al    ",
"    1g1x292k08++++++++++5w6jXX7i848p969ma5am    ",
"      1y2a2l08........095x6k737j858q979na6      ",
"        2b2m31||||||||5a5y6l747k868r989o        ",
"          2n323i0a0a4s5b5z6m757l878s            ",
"            333j3z4e4t5c606n767m                "};