/* XPM */
static char * xpm_smile[] = {
"24 24 396 2",
"  	c None",
"XX	c #f5e150",
"++	c #f6a111",
"..	c #f2ba0d",
"||	c #f9a70f",
"//	c #f5af10",
"06	c #f5e250",
"07	c #f6c70e",
"08	c #f5e350",
"09	c #f1bb0d",
"0a	c #f1b50e",
"0b	c #f1b10f",
"0c	c #ab4716",
"0d	c #f1b010",
"0e	c #f1ad10",
"0f	c #f69e11",
"0g	c #f29911",
"0h	c #fcf59b",
"0i	c #f5cd0b",
"0j	c #edd481",
"0k	c #f5e44b",
"0l	c #f5e450",
"0m	c #f5e24f",
"0n	c #f6c10d",
"0o	c #f5e64d",
"0p	c #f5e44f",
"0q	c #f3c70d",
"0r	c #f6e450",
"0s	c #f5e54e",
"0t	c #f1a910",
"0u	c #f1b80e",
"0v	c #f2bc0d",
"0w	c #f1b40e",
"0x	c #f1af10",
"0y	c #faee73",
"0z	c #f6df51",
"10	c #bb5614",
"11	c #f6e050",
"12	c #f6de53",
"13	c #f1ab10",
"14	c #f5e14c",
"15	c #f1aa10",
"16	c #f6dd53",
"17	c #f2b10f",
"18	c #f6d754",
"19	c #f6d455",
"1a	c #d5915f",
"1b	c #d79862",
"1c	c #deae6e",
"1d	c #dead70",
"1e	c #d59a50",
"1f	c #c86c1e",
"1g	c #b84c17",
"1h	c #b14313",
"1i	c #da9b63",
"1j	c #e6c679",
"1k	c #f4e893",
"1l	c #faf18b",
"1m	c #faee7b",
"1n	c #f6e133",
"1o	c #f7df29",
"1p	c #fee943",
"1q	c #f1d149",
"1r	c #d38c2a",
"1s	c #b24b18",
"1t	c #d79360",
"1u	c #e1b672",
"1v	c #faf18a",
"1w	c #f7e862",
"1x	c #f5e249",
"1y	c #f5e14d",
"1z	c #f6df46",
"20	c #f1c904",
"21	c #f6c709",
"22	c #f4cd19",
"23	c #f9d73b",
"24	c #c87426",
"25	c #aa4214",
"26	c #da9360",
"27	c #fbf59b",
"28	c #f6eb6e",
"29	c #f5e449",
"2a	c #f5e34e",
"2b	c #f5e154",
"2c	c #f3d520",
"2d	c #f2ca0b",
"2e	c #f9cd0e",
"2f	c #ffd20e",
"2g	c #f2c00c",
"2h	c #f2ba0a",
"2i	c #f6c91a",
"2j	c #dda136",
"2k	c #a64113",
"2l	c #da9461",
"2m	c #fbf39b",
"2n	c #f5e756",
"2o	c #f7e156",
"2p	c #f1cb0d",
"2q	c #f9d00c",
"2r	c #f7c10e",
"2s	c #f3bc0d",
"2t	c #f2b60d",
"2u	c #f5bb10",
"2v	c #da8919",
"2w	c #a74315",
"2x	c #e4b771",
"2y	c #fbf59a",
"2z	c #f6e756",
"30	c #f5e151",
"31	c #f6df4a",
"32	c #f2c809",
"33	c #743009",
"34	c #eeb00e",
"35	c #f3b70e",
"36	c #f2b10e",
"37	c #f6b60f",
"38	c #c26214",
"39	c #dd9d64",
"3a	c #fbf49b",
"3b	c #f9ec6b",
"3c	c #f3e54b",
"3d	c #f5e54f",
"3e	c #f9e74f",
"3f	c #fbe54d",
"3g	c #fce54f",
"3h	c #f7da2a",
"3i	c #f2c60b",
"3j	c #f4c30d",
"3k	c #9d530b",
"3l	c #743109",
"3m	c #f6b50e",
"3n	c #f2b210",
"3o	c #f2ad10",
"3p	c #f4ad0f",
"3q	c #ab4714",
"3r	c #eac77a",
"3s	c #f9f28a",
"3t	c #f5e649",
"3u	c #f6e550",
"3v	c #fbe94e",
"3w	c #c8a84b",
"3x	c #ab8145",
"3y	c #9f7745",
"3z	c #a36916",
"40	c #f1c10a",
"41	c #f2c20d",
"42	c #f1c00d",
"43	c #f1bc0d",
"44	c #fdc40f",
"45	c #813b0a",
"46	c #a75a0b",
"47	c #f7b311",
"48	c #f5ac10",
"49	c #ce6d13",
"4a	c #db9560",
"4b	c #f5ea93",
"4c	c #f7ea62",
"4d	c #f7e650",
"4e	c #d5b84d",
"4f	c #966946",
"4g	c #774521",
"4h	c #71401e",
"4i	c #541f0a",
"4j	c #a9660a",
"4k	c #f5c40d",
"4l	c #f1be0d",
"4m	c #f3b60e",
"4n	c #efa80f",
"4o	c #4a1307",
"4p	c #f6a90f",
"4q	c #f1a50f",
"4r	c #f2a410",
"4s	c #eb9811",
"4t	c #a54116",
"4u	c #dd9c64",
"4v	c #fcf69b",
"4w	c #f3e548",
"4x	c #e5cf4e",
"4y	c #926546",
"4z	c #764420",
"50	c #70401e",
"51	c #400e02",
"52	c #cd8b0a",
"53	c #f3c10d",
"54	c #f1b90e",
"55	c #fab610",
"56	c #843d09",
"57	c #bb690a",
"58	c #f3a10e",
"59	c #f0a00f",
"5a	c #f7a50f",
"5b	c #e3b26f",
"5c	c #faf38b",
"5d	c #f9e34f",
"5e	c #edd24c",
"5f	c #cba546",
"5g	c #caa13b",
"5h	c #d59407",
"5i	c #f5c20c",
"5j	c #f1ba0d",
"5k	c #f1b60e",
"5l	c #f4ae0f",
"5m	c #b15e0a",
"5n	c #873b08",
"5o	c #f59d0d",
"5p	c #f09c0e",
"5q	c #f5a20f",
"5r	c #bc5715",
"5s	c #e1b06f",
"5t	c #f5e34c",
"5u	c #f7dd52",
"5v	c #fae051",
"5w	c #f9d73a",
"5x	c #f3be0a",
"5y	c #f2be0d",
"5z	c #f1ae10",
"60	c #f2a90f",
"61	c #d47b0b",
"62	c #6a2806",
"63	c #f8990c",
"64	c #ef960e",
"65	c #f59f10",
"66	c #e1b070",
"67	c #faee74",
"68	c #f5e24d",
"69	c #f7df52",
"6a	c #fadf55",
"6b	c #fad93c",
"6c	c #f3c00a",
"6d	c #f1b90d",
"6e	c #f1b20f",
"6f	c #f2a80f",
"6g	c #d3790b",
"6h	c #6a2906",
"6i	c #f8950c",
"6j	c #ef950f",
"6k	c #f59c10",
"6l	c #e3b270",
"6m	c #f6e051",
"6n	c #fae153",
"6o	c #e5c94d",
"6p	c #cfab4c",
"6q	c #c89a36",
"6r	c #c27b08",
"6s	c #f9c30d",
"6t	c #f2b70e",
"6u	c #f1b00f",
"6v	c #f4a70f",
"6w	c #bf690b",
"6x	c #793308",
"6y	c #f7960d",
"6z	c #ef940f",
"70	c #f59b10",
"71	c #bc5714",
"72	c #dd9d66",
"73	c #faf28b",
"74	c #f9e053",
"75	c #e1c24e",
"76	c #936645",
"77	c #794823",
"78	c #784622",
"79	c #4e1705",
"7a	c #ba700b",
"7b	c #f5b90e",
"7c	c #f1a810",
"7d	c #f9a910",
"7e	c #96460a",
"7f	c #b35b0b",
"7g	c #f3980f",
"7h	c #f09410",
"7i	c #f79d10",
"7j	c #db9561",
"7k	c #f5e690",
"7l	c #f5e14b",
"7m	c #f6e04f",
"7n	c #f9de52",
"7o	c #d9b64b",
"7p	c #906341",
"7q	c #73411f",
"7r	c #72421f",
"7s	c #4c1704",
"7t	c #b9700c",
"7u	c #f5b60f",
"7v	c #f1ac10",
"7w	c #f2a710",
"7x	c #faa611",
"7y	c #4b1707",
"7z	c #ec9110",
"80	c #f19810",
"81	c #f29610",
"82	c #eb8c12",
"83	c #a54215",
"84	c #e8c477",
"85	c #f9e75f",
"86	c #f6df4f",
"87	c #f7dc52",
"88	c #fcdf50",
"89	c #caa244",
"8a	c #aa7b3f",
"8b	c #9c6b2d",
"8c	c #a85b07",
"8d	c #f2b00d",
"8e	c #f2a810",
"8f	c #fbae11",
"8g	c #8e430b",
"8h	c #9a4b0b",
"8i	c #f9a112",
"8j	c #f19711",
"8k	c #f59b11",
"8l	c #ce6913",
"8m	c #dc9c66",
"8n	c #faeb84",
"8o	c #f6de4f",
"8p	c #f6db53",
"8q	c #f7d850",
"8r	c #f9d94e",
"8s	c #fad84d",
"8t	c #fad039",
"8u	c #f4b40a",
"8v	c #f2b010",
"8w	c #f3aa10",
"8x	c #cb760d",
"8y	c #591e09",
"8z	c #f29811",
"90	c #f49a10",
"91	c #e3b676",
"92	c #fae462",
"93	c #f6dc53",
"94	c #f6da53",
"95	c #f6d753",
"96	c #f6d652",
"97	c #f6d352",
"98	c #f5d24b",
"99	c #f0af0b",
"9a	c #f5b110",
"9b	c #581d09",
"9c	c #e78e10",
"9d	c #f49d11",
"9e	c #f29711",
"9f	c #c15c14",
"9g	c #d99661",
"9h	c #edcd84",
"9i	c #f9e056",
"9j	c #f6d953",
"9k	c #f6d654",
"9l	c #f7d55c",
"9m	c #f0ac09",
"9n	c #f7b211",
"9o	c #e78f10",
"9p	c #f59f11",
"9q	c #f59c11",
"9r	c #d77513",
"9s	c #a54315",
"9t	c #d79361",
"9u	c #ecc463",
"9v	c #f9dd52",
"9w	c #f6d555",
"9x	c #f7d45b",
"9y	c #f2b519",
"9z	c #f1aa0f",
"a0	c #f2a910",
"a1	c #f7a212",
"a2	c #d97513",
"a3	c #a44415",
"a4	c #d69564",
"a5	c #e1ad5f",
"a6	c #f6d853",
"a7	c #f7d554",
"a8	c #f7d456",
"a9	c #f7d35c",
"aa	c #f3bc27",
"ab	c #f1a90e",
"ac	c #f1a610",
"ad	c #f3a510",
"ae	c #f39a10",
"af	c #c25d14",
"ag	c #a74515",
"ah	c #d79963",
"ai	c #e3b55d",
"aj	c #f3cb58",
"ak	c #fad65a",
"al	c #f6c536",
"am	c #f4aa0c",
"an	c #f5a90f",
"ao	c #f5a70f",
"ap	c #ed9212",
"aq	c #d16b14",
"ar	c #af4a17",
"as	c #d49463",
"at	c #d59862",
"au	c #daa159",
"av	c #c45a12",
"aw	c #c25c17",
"ax	c #c25c16",
"ay	c #b24c17",
"az	c #ad4617",
"                4a4u5b5s666l727j                ",
"            393r4b4v5c0y670y737k848m            ",
"        2l2x3a3s4c4w0k5t6814147l858n919g        ",
"      260j2y3b3t0o0s0l0806XXXX7m868o929h9t      ",
"    1t0j2m2z3c0s0p080mXXXX110z121616939i9ua4    ",
"    1u272n0o3d3u4d0r06XX116m747n878p949j9va5    ",
"  1i0h280k0p0r3v4e4x5d0z126n757o888q951818a6ah  ",
"  1j1v290l083e3w4f4y5e5u696o767p898r969k9wa7ai  ",
"1a1k1w2a0mXX3f3x4g4z5f5v6a6p777q8a8s971919a8ajas",
"1b0h1x06XX303g3y4h505g5w6b6q787r8b8t989l9xa9akat",
"1c1l1y2b2o313h3z4i515h5x6c6r797s8c8u999m9yaaalau",
"1d1m1z2c2p323i404j525i5y0v6s7a7t8d170d0e9zabamav",
"1e1n202d2q0q0q414k530v096d6t7b7u178v9a9na0acanaw",
"1f1o0i2e070707424l095j0u0a0w0b0d0e////////adaoax",
"1g1p0i2f0n0n3j4309545k0a6e6u0x7v158w||||||||||ay",
"1h1q21..........0u0a0w0b0d0e13158e++++++++++apaz",
"  1r222g2r333k444m0b0x5z130t7c7w8f8x9b9oa1++aq  ",
"  1s232h2s343l454n555l606f6v7d7x8g8y9c9p0gaear  ",
"    242i2t353m464o565m616g6w7e7y8h0f9d0g0faf    ",
"    252j2u363n474p575n626h6x7f7z8i0g9e9qa2ag    ",
"      2k2v373o0t4q585o636i6y7g808j8z0f9ra3      ",
"        2w383p484r595p646j6z7h818k909f9s        ",
"            3q494s5a5q656k707i828l0c            ",
"                4t0c5r1010710c83                "};