/* XPM */
static char * xpm_stock_graph[] = {
"24 24 246 2",
"  	c None",
"XX	c #ffffff",
"++	c #70c0e7",
"..	c #3977b3",
"||	c #f7fbff",
"//	c #3a77b4",
"06	c #82d5f3",
"07	c #85d5f4",
"08	c #7dd1f1",
"09	c #0a82d0",
"0a	c #84d0f0",
"0b	c #6ac5ec",
"0c	c #b3e0f5",
"0d	c #1d90d5",
"0e	c #72c2e8",
"0f	c #3e7cb8",
"0g	c #81d5f3",
"0h	c #83d5f4",
"0i	c #fafcff",
"0j	c #b6e1f5",
"0k	c #62beeb",
"0l	c #edf9fc",
"0m	c #e8f7fa",
"0n	c #2293d8",
"0o	c #2671b5",
"0p	c #6fbce6",
"0q	c #68b6e2",
"0r	c #65b3e0",
"0s	c #64aedc",
"0t	c #60aada",
"0u	c #5ca6d7",
"0v	c #59a4d5",
"0w	c #579fd2",
"0x	c #559bd0",
"0y	c #5297cc",
"0z	c #4f94ca",
"10	c #4c8fc6",
"11	c #4b8cc4",
"12	c #4988c2",
"13	c #4685bf",
"14	c #4180bb",
"15	c #3f7db9",
"16	c #3b7ab5",
"17	c #f5fbff",
"18	c #7cd3f2",
"19	c #7dd3f3",
"1a	c #7ccdef",
"1b	c #76c5eb",
"1c	c #007ccd",
"1d	c #e4f5f9",
"1e	c #83d6f3",
"1f	c #86d6f4",
"1g	c #0b83d0",
"1h	c #e9f7fa",
"1i	c #7bd1f1",
"1j	c #86cded",
"1k	c #1a8ed5",
"1l	c #0780cf",
"1m	c #e7f6fa",
"1n	c #6fc0e7",
"1o	c #feffff",
"1p	c #b7e4f8",
"1q	c #b9e4f7",
"1r	c #b6e3f6",
"1s	c #bde3f6",
"1t	c #8ccceb",
"1u	c #70c2e6",
"1v	c #66bfe4",
"1w	c #53b7e2",
"1x	c #f8fdfd",
"1y	c #80c8e9",
"1z	c #7cd1f1",
"20	c #87cded",
"21	c #3890cd",
"22	c #1c8fd5",
"23	c #0981d0",
"24	c #e8f6fa",
"25	c #fcfcff",
"26	c #a6dff7",
"27	c #a9e0f6",
"28	c #a3dcf5",
"29	c #b9e3f6",
"2a	c #36a5db",
"2b	c #f3fafe",
"2c	c #1e90d5",
"2d	c #60bdea",
"2e	c #80cfef",
"2f	c #4aafe4",
"2g	c #41aae2",
"2h	c #4caee1",
"2i	c #76cff0",
"2j	c #addef5",
"2k	c #61c1ea",
"2l	c #58bae9",
"2m	c #80caeb",
"2n	c #3da8e1",
"2o	c #279edd",
"2p	c #c6e3f4",
"2q	c #0e8ad4",
"2r	c #7ed2f1",
"2s	c #b4e1f5",
"2t	c #85d1f0",
"2u	c #6bc5ec",
"2v	c #63beeb",
"2w	c #89ceed",
"2x	c #7ec9ec",
"2y	c #3ba8e1",
"2z	c #d5ebf5",
"30	c #4086c1",
"31	c #2092d7",
"32	c #1e91d6",
"33	c #b2e0f5",
"34	c #82d0ef",
"35	c #68c4eb",
"36	c #5fbdea",
"37	c #73c4eb",
"38	c #d7ebf6",
"39	c #509bd0",
"3a	c #79c8ea",
"3b	c #1f92d8",
"3c	c #b0def4",
"3d	c #aadbf4",
"3e	c #a4d9f2",
"3f	c #a3d8f0",
"3g	c #e5f2f9",
"3h	c #ebf0f5",
"3i	c #4493cc",
"3j	c #8aceed",
"3k	c #8dceee",
"3l	c #dfeff8",
"3m	c #3482c2",
"3n	c #5dbbe7",
"3o	c #34a1dc",
"3p	c #2e9ed9",
"3q	c #1a93d5",
"3r	c #87ceed",
"3s	c #72c3ea",
"3t	c #e3eff9",
"3u	c #f4f4f7",
"3v	c #378ac9",
"3w	c #7dcaea",
"3x	c #2294d8",
"3y	c #83d0f0",
"3z	c #69c4eb",
"40	c #61bdea",
"41	c #7cc8ec",
"42	c #46aee3",
"43	c #f8fbfd",
"44	c #c1d4e5",
"45	c #2496d9",
"46	c #a2d9f3",
"47	c #94d5f0",
"48	c #8ed1ef",
"49	c #9ed5f0",
"4a	c #97d3ee",
"4b	c #73c4ea",
"4c	c #92d0eb",
"4d	c #6da1cc",
"4e	c #4bb2e0",
"4f	c #92d1ef",
"4g	c #88cdec",
"4h	c #51b3e5",
"4i	c #abd7ef",
"4j	c #83abcf",
"4k	c #72c3eb",
"4l	c #b8def2",
"4m	c #76a6cf",
"4n	c #2495d9",
"4o	c #f2f7fc",
"4p	c #5098cd",
"4q	c #44a9e0",
"4r	c #7cc8e9",
"4s	c #f9fafd",
"4t	c #f1f3f7",
"4u	c #4d9dd4",
"4v	c #51b1e2",
"4w	c #5eb9e5",
"4x	c #81c8e9",
"4y	c #9ed8f3",
"4z	c #bee2f5",
"50	c #d7e4f0",
"51	c #5bacdc",
"52	c #7ac8eb",
"53	c #71c2e9",
"54	c #74c2e8",
"55	c #89cbea",
"56	c #52b3e1",
"57	c #4ab1e0",
"58	c #f2f7fb",
"59	c #ebf2f7",
"5a	c #56acde",
"5b	c #81ccee",
"5c	c #48ade3",
"5d	c #3fa9e1",
"5e	c #4baee1",
"5f	c #7ac6e8",
"5g	c #2092d8",
"5h	c #93d4f0",
"5i	c #6bb0db",
"5j	c #78c6ea",
"5k	c #7bc7e8",
"5l	c #73c9ed",
"5m	c #daedf8",
"5n	c #f3f5f8",
"5o	c #3492d3",
"5p	c #afdef4",
"5q	c #a1d7f2",
"5r	c #d7ebf8",
"5s	c #3f93d0",
"5t	c #98d4ee",
"5u	c #8ccdec",
"5v	c #8bcbeb",
"5w	c #b1e0f5",
"5x	c #7acdee",
"5y	c #addcf3",
"5z	c #9bcae5",
"60	c #75c4ea",
"61	c #47ade3",
"62	c #3ea8e1",
"63	c #49ade1",
"64	c #79c6e8",
"65	c #1f91d7",
"66	c #7ed1f1",
"67	c #addef4",
"68	c #c5e6f7",
"69	c #68b6e0",
"6a	c #80c9ec",
"6b	c #80caec",
"6c	c #4aaee3",
"6d	c #42aae2",
"6e	c #4dafe1",
"6f	c #7cc7e8",
"6g	c #2394d8",
"6h	c #1f91d6",
"6i	c #73cef0",
"6j	c #e7f3fb",
"6k	c #fffefe",
"6l	c #55b1e1",
"6m	c #51b8e7",
"6n	c #80cbec",
"6o	c #3ea9e1",
"6p	c #35a4e0",
"6q	c #41a9df",
"6r	c #71c2e6",
"6s	c #158dd6",
"6t	c #0f89d3",
"                                                ",
"                                                ",
"0e0e++++++1n++++++++++++++++++++++++1n++++++0e0e",
"0pXX17||||1o0i||||250i||||0i25||||0i1o||||17XX0p",
"0qXX181e0g1p06060g2606060606260g06061p0g1e18XX0q",
"0rXX191f0h1q07070h2707070707270h07071q0h1f19XX0r",
"0sXX2i2r1i1r08081z2808080808281z08081r1i666iXX0s",
"0tXX2j2s331s0j0c0c290j0c0c0j290c0c0j1s5w676jXX0t",
"0uXX1a2t343c0a0a3y460a0a0a0a4y1a2e2e5p5x686kXX0u",
"0vXX2k2u353d0b0b3z470b0b0b0b4z585h5l5q5yXX6lXX0v",
"0wXX2l2v363e0k0k40480k0k2d2dXX59XX5m5rXX696mXX0w",
"0xXX2m2w1j3f3k3r20494f201j4s505a5i5nXX5z6a6nXX0x",
"0yXX1b2x373g3l3s414a4g4k4o4t515b5j5o5s606b1bXX0y",
"0zXX2n2y383hXX3t424b4h4lXX4u525c2f2f5t616c6oXX0z",
"10XX2o2zXX3i3m3u434c4iXX4p4v535d2g2g5u626d6pXX10",
"11XX2pXX393j3n3v44XXXX4m4q4w545e2h2h5v636e6qXX11",
"12XXXX303a1t1y3w214d4j214r4x555f5k1y1t646f6rXX12",
"13XX0o313b1u3o3x450o0o4n0n0n565g0n0n1u656g6sXX13",
"14XX2q321k1v3p0d224e2c2c0d0d57220d0d1v1k6h6tXX14",
"15XX1c1g1l1w3q09232a090909092a2309091w1l1g1cXX15",
"0fXX1d1h1m1x0l0m242b0l0m0m0l2b240m0l1x1m1h1dXX0f",
"0f16..////....////....////....////....////..160f",
"                                                ",
"                                                "};