/* XPM */
static char * xpm_stopwatch[] = {
"24 24 277 2",
"  	c None",
"XX	c #f2f3f3",
"++	c #e3e3e4",
"..	c #373234",
"||	c #cfd0d2",
"//	c #5f5b5d",
"06	c #f6f5f3",
"07	c #f1f2f2",
"08	c #e8eaea",
"09	c #c9cbcd",
"0a	c #ffffff",
"0b	c #f3f4f4",
"0c	c #f6f7f6",
"0d	c #000000",
"0e	c #f0f0ef",
"0f	c #e6e7e8",
"0g	c #dededf",
"0h	c #d7d8da",
"0i	c #c8c9cc",
"0j	c #d4ecfa",
"0k	c #eceae8",
"0l	c #fdfaf8",
"0m	c #f8f9f9",
"0n	c #53b7ea",
"0o	c #eeeeee",
"0p	c #e4e5e6",
"0q	c #d8e5ed",
"0r	c #ebebeb",
"0s	c #d0d0d2",
"0t	c #e4e4e5",
"0u	c #dadbdc",
"0v	c #dbdcdd",
"0w	c #47484e",
"0x	c #d4d5d7",
"0y	c #d5d6d8",
"0z	c #e1dfe0",
"10	c #c5c6c9",
"11	c #d5d4d5",
"12	c #439fdb",
"13	c #60b4e4",
"14	c #6ebce7",
"15	c #7cc3e9",
"16	c #5db3e4",
"17	c #45a4de",
"18	c #3a96d6",
"19	c #2a78c5",
"1a	c #49a8e0",
"1b	c #9dd7f2",
"1c	c #d7effb",
"1d	c #afe0f7",
"1e	c #5ab9e8",
"1f	c #4cafe5",
"1g	c #65beea",
"1h	c #66beeb",
"1i	c #69c3ed",
"1j	c #46b2e9",
"1k	c #3293d6",
"1l	c #2670be",
"1m	c #72c4ea",
"1n	c #bce2f8",
"1o	c #8ccaeb",
"1p	c #b3d3ea",
"1q	c #e6eff7",
"1r	c #b7c4d2",
"1s	c #c9d6e4",
"1t	c #e3ebf4",
"1u	c #b8d1e7",
"1v	c #a2cce9",
"1w	c #75c5ea",
"1x	c #37a8e2",
"1y	c #247cc9",
"1z	c #71c6ed",
"20	c #e0f2fb",
"21	c #99d3f1",
"22	c #c2ddf1",
"23	c #fffffe",
"24	c #e3e2e3",
"25	c #bbd1e7",
"26	c #92c8e9",
"27	c #3bade6",
"28	c #1c75c5",
"29	c #4eb0e7",
"2a	c #a4d8f4",
"2b	c #d4e6f3",
"2c	c #7d7978",
"2d	c #fefefe",
"2e	c #fbfbfc",
"2f	c #fcfcfd",
"2g	c #fffdfb",
"2h	c #c9d6e6",
"2i	c #96cbea",
"2j	c #2fa4e2",
"2k	c #1760b2",
"2l	c #9bd6f3",
"2m	c #cee9fa",
"2n	c #bedcee",
"2o	c #f9f8f8",
"2p	c #f5f6f6",
"2q	c #fbf9f6",
"2r	c #abc6dd",
"2s	c #90d1ef",
"2t	c #1278c9",
"2u	c #dff2fb",
"2v	c #a3d8f2",
"2w	c #edeeee",
"2x	c #eceeed",
"2y	c #f2f4f3",
"2z	c #edeced",
"30	c #83b9df",
"31	c #40b2e7",
"32	c #125baf",
"33	c #85cff2",
"34	c #d7eefb",
"35	c #c3ddee",
"36	c #f0f0f0",
"37	c #efefee",
"38	c #e9eaec",
"39	c #eceeef",
"3a	c #d5d6d7",
"3b	c #eeedeb",
"3c	c #98bad8",
"3d	c #89d1f0",
"3e	c #0e6ebf",
"3f	c #a3a0a6",
"3g	c #a5a2a8",
"3h	c #94dcfb",
"3i	c #c2e4f8",
"3j	c #ececec",
"3k	c #ededed",
"3l	c #f4f5f6",
"3m	c #d2d2d3",
"3n	c #d0d1d2",
"3o	c #b8c7d8",
"3p	c #a6d7f0",
"3q	c #0a70c4",
"3r	c #bcb8bc",
"3s	c #bdb9bd",
"3t	c #a4a1a8",
"3u	c #9c9699",
"3v	c #aae3fe",
"3w	c #b1dff7",
"3x	c #e8e8ea",
"3y	c #e7e7e9",
"3z	c #e7e7ea",
"40	c #f4f4f7",
"41	c #333031",
"42	c #cccccf",
"43	c #e5e6e8",
"44	c #dfe0e2",
"45	c #e0e1e3",
"46	c #8ecaeb",
"47	c #1180cc",
"48	c #6e6b73",
"49	c #6d6a72",
"4a	c #807b82",
"4b	c #847b80",
"4c	c #a9e3ff",
"4d	c #b0def7",
"4e	c #e5e5e6",
"4f	c #e7e7e8",
"4g	c #131011",
"4h	c #282324",
"4i	c #e7e8e9",
"4j	c #d9dadb",
"4k	c #1f1a1a",
"4l	c #8dcaeb",
"4m	c #1281cb",
"4n	c #97ddfe",
"4o	c #c5e5f8",
"4p	c #eae9e9",
"4q	c #e1e1e2",
"4r	c #5a5859",
"4s	c #d0d1d3",
"4t	c #e1e2e4",
"4u	c #d6d7d9",
"4v	c #dcdddf",
"4w	c #a7bacc",
"4x	c #a5d7f2",
"4y	c #0a70c3",
"4z	c #80cff3",
"50	c #dbeffa",
"51	c #b4d1e3",
"52	c #e1e1e3",
"53	c #e0e2e3",
"54	c #575155",
"55	c #cfcfd0",
"56	c #dadcde",
"57	c #c0bdbd",
"58	c #8aadcc",
"59	c #84d1f0",
"5a	c #0d6cc0",
"5b	c #d9f1fc",
"5c	c #a1d5f0",
"5d	c #e1e3e4",
"5e	c #6e6a6d",
"5f	c #dcdede",
"5g	c #dddedf",
"5h	c #cccdd1",
"5i	c #c8cbcc",
"5j	c #cdcfd1",
"5k	c #abaeb0",
"5l	c #82b9e0",
"5m	c #39b1e6",
"5n	c #1259ae",
"5o	c #95d6f3",
"5p	c #d2ebfb",
"5q	c #a3c9e0",
"5r	c #e6e5e4",
"5s	c #7a7679",
"5t	c #d8dadc",
"5u	c #d7d9da",
"5v	c #c4c5c8",
"5w	c #cccdd0",
"5x	c #c9c9cc",
"5y	c #cecbcb",
"5z	c #87a9c7",
"60	c #8dd1f0",
"61	c #0e75c7",
"62	c #4cb0e6",
"63	c #cdeaf9",
"64	c #b1ddf4",
"65	c #a5bfd2",
"66	c #d4d1d1",
"67	c #c0c2c6",
"68	c #c5c7cb",
"69	c #a09b9d",
"6a	c #96aec4",
"6b	c #98cdec",
"6c	c #259ede",
"6d	c #155db1",
"6e	c #6ac2eb",
"6f	c #d6edfd",
"6g	c #a7daf2",
"6h	c #9dc1da",
"6i	c #c4bebe",
"6j	c #1c1617",
"6k	c #c2c4c4",
"6l	c #bcbdbc",
"6m	c #b9bdc1",
"6n	c #8aa8c7",
"6o	c #91cbed",
"6p	c #2ca7e2",
"6q	c #1871c1",
"6r	c #69beea",
"6s	c #c6e7f8",
"6t	c #cae7f9",
"6u	c #8ac5e9",
"6v	c #92bad6",
"6w	c #a0b4c5",
"6x	c #6d8297",
"6y	c #7c91a7",
"6z	c #92a3b7",
"70	c #86a6c7",
"71	c #95c2e2",
"72	c #6cc1ec",
"73	c #279fdf",
"74	c #1e76c5",
"75	c #4aa7e0",
"76	c #80c8ec",
"77	c #ccebfb",
"78	c #c0e5f9",
"79	c #75c3eb",
"7a	c #62baea",
"7b	c #5dbbec",
"7c	c #60bbec",
"7d	c #5fbded",
"7e	c #36a9e5",
"7f	c #2990d6",
"7g	c #216bba",
"7h	c #409cd9",
"7i	c #5ab0e2",
"7j	c #46a6e0",
"7k	c #67b8e6",
"7l	c #4ba9e0",
"7m	c #3997d9",
"7n	c #338fd3",
"7o	c #2875c3",
"                    3f3r480w                    ",
"                    3g3s490w                    ",
"                      3t4a                      ",
"                      3u4b                      ",
"                0n333h3v4c4n4z0n                ",
"            292l2u343i3w4d4o505b5o62            ",
"          1z0j2m2v350q0g0g0q515c5p636e          ",
"        1m202a2n0606060g..4p0z0z5q646f6r        ",
"      1a0j212b0l0l//0e++++++++..5r656g6s75      ",
"      1b1n22062o0b363j3x4e4q525d5s666h6t76      ",
"    121c1o0a2c07070o0r3y0t++535e5t..6i6u777h    ",
"    131d1p232d07070o0r3z4f0f545f0h0h116v787i    ",
"    141e1q0a2e2pXX373k400u4r555g5u0h116w797j    ",
"    151f1rXXXXXX2w383l414g4s565h0i0i0i6x7a7k    ",
"    161g1s//0b0b2x393m0d4h4t||5i10106j6y7b7l    ",
"    171h1t0a2fXX2y3a0d424i4u||095v676k6z7c7m    ",
"    181i1u0k0k08080d3n430u0x||0909686l707d7n    ",
"    191j1v24//0m0m0808444j0x||095w..6m717e7o    ",
"      1k1w252g0c0c0p0p450v0y0y5j5x696n727f      ",
"      1l1x262h2q0c//0f0f0v4v||..5y6a6o737g      ",
"        1y272i2r2z3b0e0e4k0t575k5z6b6p74        ",
"          282j2s303c3o0s0s4w585l606c6q          ",
"            2k2t313d3p464l4x595m616d            ",
"                323e3q474m4y5a5n                "};