/* XPM */
static char * xpm_stop[] = {
"24 24 161 2",
"  	c None",
"XX	c #ffffff",
"++	c #81d3f6",
"..	c #5ab4e5",
"||	c #9ed3f0",
"//	c #3d7dbc",
"06	c #92d1ef",
"07	c #7ec5ec",
"08	c #6bc4f0",
"09	c #80c8ea",
"0a	c #86d5f7",
"0b	c #7fd1f6",
"0c	c #7bc6e8",
"0d	c #5bb8e6",
"0e	c #84d5f7",
"0f	c #1e64b5",
"0g	c #1c65b6",
"0h	c #1b64b6",
"0i	c #2675c0",
"0j	c #2176c5",
"0k	c #297cc8",
"0l	c #2e84cd",
"0m	c #185bae",
"0n	c #2670ba",
"0o	c #599fd4",
"0p	c #82c2e6",
"0q	c #84cbed",
"0r	c #8bd0f1",
"0s	c #9dd9f5",
"0t	c #71c3ed",
"0u	c #52b0e5",
"0v	c #3d97d9",
"0w	c #308ad2",
"0x	c #1859ab",
"0y	c #195dad",
"0z	c #62a7d9",
"10	c #9dd2ef",
"11	c #77c3ec",
"12	c #84c8ed",
"13	c #8ecef0",
"14	c #6dc1ed",
"15	c #62bced",
"16	c #75cbf3",
"17	c #67c0ec",
"18	c #3896d9",
"19	c #3794d9",
"1a	c #1452a6",
"1b	c #256cb5",
"1c	c #7abde2",
"1d	c #9bd7f1",
"1e	c #7ac3ea",
"1f	c #6fc0e8",
"1g	c #78c3eb",
"1h	c #87c9ed",
"1i	c #65beec",
"1j	c #5bb8eb",
"1k	c #64bced",
"1l	c #69c1ef",
"1m	c #6ec6f0",
"1n	c #76cbf3",
"1o	c #7bcff5",
"1p	c #48aae2",
"1q	c #3898dc",
"1r	c #1450a2",
"1s	c #226cb6",
"1t	c #7cc3e5",
"1u	c #67bbe7",
"1v	c #72c1e9",
"1w	c #79c2ea",
"1x	c #81c6ed",
"1y	c #76c6ed",
"1z	c #54b5ea",
"20	c #5fbaec",
"21	c #66beee",
"22	c #71c8f1",
"23	c #75caf3",
"24	c #7bcef5",
"25	c #4cade5",
"26	c #3b9ddf",
"27	c #1553a5",
"28	c #6cb6e1",
"29	c #8acdec",
"2a	c #88caea",
"2b	c #61b8e7",
"2c	c #6abbe7",
"2d	c #6cbee7",
"2e	c #71bfe7",
"2f	c #75c0e9",
"2g	c #3fa4e1",
"2h	c #47a8e2",
"2i	c #4ca9e2",
"2j	c #4face3",
"2k	c #53aee3",
"2l	c #55aee3",
"2m	c #69c2ed",
"2n	c #7dd0f6",
"2o	c #3ea5e0",
"2p	c #0d4a9d",
"2q	c #4e9cd2",
"2r	c #81cbea",
"2s	c #87c9eb",
"2t	c #6cc0e7",
"2u	c #82c6ef",
"2v	c #9dd0ed",
"2w	c #95caeb",
"2x	c #93c7e6",
"2y	c #7ab6e0",
"2z	c #569fd6",
"30	c #549bd1",
"31	c #4f95ce",
"32	c #4c8ec9",
"33	c #4888c4",
"34	c #4786c3",
"35	c #1050a4",
"36	c #6dc7ef",
"37	c #83d4f7",
"38	c #77cdf2",
"39	c #3aa0e1",
"3a	c #1c61af",
"3b	c #74bfe3",
"3c	c #80caea",
"3d	c #81c8e9",
"3e	c #56b6e6",
"3f	c #a1d4f2",
"3g	c #4281be",
"3h	c #81d2f6",
"3i	c #8ad9f8",
"3j	c #4db0e8",
"3k	c #0e4a9e",
"3l	c #3c8ac7",
"3m	c #7bc9e9",
"3n	c #6fc1e8",
"3o	c #58b7e6",
"3p	c #87d7f7",
"3q	c #6ec8f1",
"3r	c #40a5e5",
"3s	c #0c489c",
"3t	c #5cabda",
"3u	c #7dc8e8",
"3v	c #81c8ea",
"3w	c #5cb7e4",
"3x	c #5ab6e6",
"3y	c #85d6f6",
"3z	c #84d5f5",
"40	c #3da7e5",
"41	c #09469c",
"42	c #6ebbe2",
"43	c #82c9ea",
"44	c #4fb4e3",
"45	c #8edbf8",
"46	c #3ca4e4",
"47	c #1253a4",
"48	c #76c3e6",
"49	c #83c9ea",
"4a	c #4cb0e3",
"4b	c #8ddaf7",
"4c	c #45ade8",
"4d	c #2b7dc7",
"4e	c #92d4f2",
"4f	c #92d4f3",
"4g	c #2979c4",
"                3k3s414747413s3k                ",
"            2p3a3l3t424848423t3l3a2p            ",
"        1r272q3b3m3u0c0c0c0c3u3m3b2q271r        ",
"      1a1s282r3c093v434949433v093c2r281s1a      ",
"    0x1b1t292s3d3n3w444a4a443w3n3d2s291t1b0x    ",
"    0y1c062a2t3e3o3x0d0d0d0d3x3o3e2t2a061c0y    ",
"  0m0z1d092b2u3f||||||||||||||||3f2u2b091d0z0m  ",
"  0n101e1u2c2vXXXXXXXXXXXXXXXXXXXX2v2c1u1e100n  ",
"0f0o061f1v2d2wXXXXXXXXXXXXXXXXXXXX2w2d1v1f060o0f",
"0g0p111g1w2e2xXXXXXXXXXXXXXXXXXXXX2x2e1w1g110p0g",
"0h0q07071x2f2yXXXXXXXXXXXXXXXXXXXX2y2f1x07070q0h",
"0i0r121h1y2g2zXXXXXXXXXXXXXXXXXXXX2z2g1y1h120r0i",
"4d4e131i1z2h30XXXXXXXXXXXXXXXXXXXX302h1z1i134f4g",
"0j0s141j202i31XXXXXXXXXXXXXXXXXXXX312i201j140s0j",
"0k0t151k212j32XXXXXXXXXXXXXXXXXXXX322j211k150t0k",
"0l0u081l082k33XXXXXXXXXXXXXXXXXXXX332k081l080u0l",
"  0v161m222l34XXXXXXXXXXXXXXXXXXXX342l221m160v  ",
"  0w171n232m353g////////////////3g352m231n170w  ",
"    181o242n36....................362n241o18    ",
"    191p0a0b0b3h++++++++++++++++3h0b0b0a1p19    ",
"      1q250a37++++++++++++++++++++370a251q      ",
"        262o383i3p3y0e0e0e0e3y3p3i382o26        ",
"            393j3q3z454b4b453z3q3j39            ",
"                3r40464c4c46403r                "};