/* XPM */
static char * xpm_sum[] = {
"24 24 183 2",
"  	c None",
"XX	c #c9e9fb",
"++	c #7bc4ec",
"..	c #bae6f9",
"||	c #2092d8",
"//	c #1b92d8",
"06	c #155eae",
"07	c #2195d9",
"08	c #bae5f9",
"09	c #8bc2e5",
"0a	c #b3e0f5",
"0b	c #1b5eae",
"0c	c #3494d7",
"0d	c #b9e5f9",
"0e	c #b8e3f8",
"0f	c #b6e2f7",
"0g	c #b3e0f6",
"0h	c #b1dff6",
"0i	c #68c0ed",
"0j	c #58b5e8",
"0k	c #5db9e9",
"0l	c #59b7e8",
"0m	c #7ec6ec",
"0n	c #b7e3f8",
"0o	c #276fbb",
"0p	c #2f9cdc",
"0q	c #2798da",
"0r	c #b1dff5",
"0s	c #4aade4",
"0t	c #50b0e6",
"0u	c #64bdeb",
"0v	c #7bc4eb",
"0w	c #77c0e9",
"0x	c #75bde6",
"0y	c #73bbe6",
"0z	c #449eda",
"10	c #1e5ead",
"11	c #3a7ec2",
"12	c #367abe",
"13	c #3378bb",
"14	c #3276bb",
"15	c #1a59a8",
"16	c #d3eefc",
"17	c #c8e8fa",
"18	c #c8eafb",
"19	c #aad9f2",
"1a	c #439ad7",
"1b	c #2368b7",
"1c	c #83c4e7",
"1d	c #48ade3",
"1e	c #40ace1",
"1f	c #3aa7e0",
"1g	c #35a7e2",
"1h	c #1a62b0",
"1i	c #b8e5f9",
"1j	c #b9e4f8",
"1k	c #99cfed",
"1l	c #358fd2",
"1m	c #266cb9",
"1n	c #87c5e9",
"1o	c #36a2e0",
"1p	c #2d9adb",
"1q	c #2597d9",
"1r	c #1e92d7",
"1s	c #1890d8",
"1t	c #155dae",
"1u	c #89c5e9",
"1v	c #348bcf",
"1w	c #8cc7ea",
"1x	c #3fa6e1",
"1y	c #359fdf",
"1z	c #7ebee4",
"20	c #3a84c6",
"21	c #80c4eb",
"22	c #45abe2",
"23	c #3ca3e0",
"24	c #36a0df",
"25	c #63abdb",
"26	c #3d88c9",
"27	c #90ceee",
"28	c #45abe3",
"29	c #42a9e2",
"2a	c #3da4e0",
"2b	c #35a0df",
"2c	c #2b9adb",
"2d	c #2696da",
"2e	c #b9e3f8",
"2f	c #b7e3f7",
"2g	c #aedef5",
"2h	c #9fd7f4",
"2i	c #318bce",
"2j	c #297ac4",
"2k	c #3e8ccc",
"2l	c #94d0f0",
"2m	c #4baee5",
"2n	c #49ade4",
"2o	c #43a9e2",
"2p	c #3da5e0",
"2q	c #2f9adc",
"2r	c #93cdeb",
"2s	c #2294d9",
"2t	c #acdcf3",
"2u	c #a2d6f1",
"2v	c #b5e1f6",
"2w	c #aeddf5",
"2x	c #a0d7f2",
"2y	c #60bbea",
"2z	c #63a9da",
"30	c #81c9ee",
"31	c #54b4e8",
"32	c #4fafe6",
"33	c #43aae2",
"34	c #3ca4e1",
"35	c #1e65b6",
"36	c #8ac1e3",
"37	c #3d99d7",
"38	c #b4e0f5",
"39	c #b3e0f7",
"3a	c #afdef5",
"3b	c #8dcff1",
"3c	c #6bc0ed",
"3d	c #5bbae9",
"3e	c #44a9e3",
"3f	c #1a5cad",
"3g	c #b2e0f5",
"3h	c #3192d6",
"3i	c #53a5dc",
"3j	c #b0def3",
"3k	c #b0def6",
"3l	c #8ecef1",
"3m	c #63bdeb",
"3n	c #4cb1e7",
"3o	c #2b77c2",
"3p	c #2366b5",
"3q	c #1b5dae",
"3r	c #57a5db",
"3s	c #b4e1f6",
"3t	c #9ad4f2",
"3u	c #67c0ec",
"3v	c #53b4e8",
"3w	c #3186cb",
"3x	c #2669b6",
"3y	c #3495d7",
"3z	c #6cb2de",
"40	c #a2daf3",
"41	c #5bb9eb",
"42	c #3488cd",
"43	c #266bb9",
"44	c #58a4da",
"45	c #66c0ed",
"46	c #65bdeb",
"47	c #60beeb",
"48	c #388dd0",
"49	c #286fbb",
"4a	c #419ad7",
"4b	c #6bc4ef",
"4c	c #3a92d2",
"4d	c #2973be",
"4e	c #2e80c9",
"4f	c #3286cb",
"4g	c #2b78c3",
"4h	c #ceebfc",
"4i	c #bfe8fa",
"4j	c #bee8fa",
"4k	c #b7e2f6",
"4l	c #3594d7",
"4m	c #1c5eaf",
"4n	c #8fc6e7",
"4o	c #2299db",
"4p	c #2096da",
"4q	c #1a93da",
"4r	c #155faf",
"4s	c #73c1ea",
"4t	c #6ebde8",
"4u	c #6bbbe8",
"4v	c #69b8e6",
"4w	c #3896d8",
"4x	c #2162b1",
"4y	c #3376bd",
"4z	c #1c68b6",
"50	c #1b65b3",
"51	c #1963b1",
"52	c #1756a5",
"    0l0m++++++++++++++++++++++++++++++++0m0l    ",
"    0v16XXXXXXXXXXXXXXXXXXXXXXXXXXXXXXXX4h4s    ",
"    0wXX................................4i4t    ",
"    0x171i0d0d0d0d0d080808080808080808084j4u    ",
"    0y180e0e0e0e2e2t0r3g0a0a0a0a0a0a0a0a4k4v    ",
"    0z191j0f0f0f2f2u373h0c3y0c0c0c0c0c0c4l4w    ",
"      1a1k0n0g0g0g2v383i                        ",
"        1l1u0n0h0h0h393j3r                      ",
"          1v1z0r2g2w3a3k3s3z                    ",
"              252h2x3b3l3t4044                  ",
"                2i2y0i0i3u0i454a4e              ",
"                2j2z3c3m0u0u464b4f              ",
"                2k303d0k0k0k474c4g              ",
"              262l310j0j0j41484d                ",
"            20272m320t0t3v4249                  ",
"          0o21282n0s0s3n3w43                    ",
"        1m1w22292o333e3o3x                      ",
"      1b1n1x232a2p340o3p                        ",
"    101c1o1y242b2q353f3q0b0b0b0b0b0b0b0b4m4x    ",
"    111d1p0p0p2c2r36090909090909090909094n4y    ",
"    121e1q0q0q2d2s07070707070707070707074o4z    ",
"    131f1r||||||||||||||||||||||||||||||4p50    ",
"    141g1s//////////////////////////////4q51    ",
"    151h1t0606060606060606060606060606064r52    "};