/* XPM */
static char * xpm_table[] = {
"24 24 246 2",
"  	c None",
"XX	c #b9e870",
"++	c #c8c0d5",
"..	c #fbf2ff",
"||	c #ebebec",
"//	c #e9e9ea",
"06	c #74cb2f",
"07	c #69ca35",
"08	c #4fc427",
"09	c #dddee0",
"0a	c #dcdddd",
"0b	c #d9dadc",
"0c	c #cfd0d2",
"0d	c #cccdcf",
"0e	c #d1d2d5",
"0f	c #625e66",
"0g	c #655f65",
"0h	c #b4aebc",
"0i	c #a49aaf",
"0j	c #fff4ff",
"0k	c #f0ecec",
"0l	c #eeeaea",
"0m	c #e3e0e0",
"0n	c #e3dfdd",
"0o	c #e0dcdc",
"0p	c #d7d3d2",
"0q	c #d5d0cf",
"0r	c #d9d5d4",
"0s	c #b0dbef",
"0t	c #add7ed",
"0u	c #94c7e3",
"0v	c #8ec4e1",
"0w	c #89c0df",
"0x	c #6eb2d6",
"0y	c #66aed4",
"0z	c #60afd9",
"10	c #eae9e9",
"11	c #e9e9e9",
"12	c #aba4ab",
"13	c #ebeaea",
"14	c #e4dcd8",
"15	c #74cb2a",
"16	c #68ca30",
"17	c #4fc423",
"18	c #abd4eb",
"19	c #efebe9",
"1a	c #eae4e2",
"1b	c #ddd9d7",
"1c	c #e7e2e1",
"1d	c #988d94",
"1e	c #efe6e2",
"1f	c #dfd5d3",
"1g	c #61b8e6",
"1h	c #66bbe8",
"1i	c #dbd4d3",
"1j	c #c8c0d1",
"1k	c #78cf65",
"1l	c #6fcc6b",
"1m	c #5dc75f",
"1n	c #bddeff",
"1o	c #9fcbe4",
"1p	c #87bbdc",
"1q	c #77b5d8",
"1r	c #d8d3d2",
"1s	c #d8d2d2",
"1t	c #958e98",
"1u	c #89808a",
"1v	c #79707a",
"1w	c #9d95a9",
"1x	c #adaab1",
"1y	c #aaa8ae",
"1z	c #a69ba2",
"20	c #9a96a0",
"21	c #98949c",
"22	c #96909a",
"23	c #92878e",
"24	c #88848e",
"25	c #88848c",
"26	c #847e88",
"27	c #c3bccf",
"28	c #fffaff",
"29	c #f3f4f4",
"2a	c #f2f2f2",
"2b	c #f3f2f1",
"2c	c #c7dfea",
"2d	c #3ba9df",
"2e	c #f7efeb",
"2f	c #e8e9e9",
"2g	c #e6e6e7",
"2h	c #e4e4e5",
"2i	c #eee7e3",
"2j	c #36a6de",
"2k	c #ebe2df",
"2l	c #dbddde",
"2m	c #d9dbdc",
"2n	c #dee1e1",
"2o	c #716b75",
"2p	c #c8c0d4",
"2q	c #72cb2c",
"2r	c #67c933",
"2s	c #4dc325",
"2t	c #bcd5e2",
"2u	c #299bd8",
"2v	c #dcdde0",
"2w	c #dcdddc",
"2x	c #d8dadc",
"2y	c #2195d6",
"2z	c #cecfd1",
"30	c #cbccce",
"31	c #d0d1d4",
"32	c #615e65",
"33	c #bfd7e3",
"34	c #339edb",
"35	c #2b9bd8",
"36	c #dfd6d3",
"37	c #c1d7e3",
"38	c #39a2dc",
"39	c #eee6e2",
"3a	c #329edb",
"3b	c #eae9ea",
"3c	c #c3d8e4",
"3d	c #43a5de",
"3e	c #ede6e2",
"3f	c #e3dbd8",
"3g	c #3ca2dc",
"3h	c #ded5d3",
"3i	c #f0ebea",
"3j	c #cad9e3",
"3k	c #4ba9e0",
"3l	c #f2e7e2",
"3m	c #e9ddd8",
"3n	c #46a5de",
"3o	c #e5d7d3",
"3p	c #c8c0d0",
"3q	c #77ce5e",
"3r	c #6fcc65",
"3s	c #5cc75b",
"3t	c #bddefe",
"3u	c #8bc7e7",
"3v	c #45a8e1",
"3w	c #a2cde6",
"3x	c #8abddd",
"3y	c #3ca3e1",
"3z	c #7bb6d8",
"40	c #c9bfce",
"41	c #7cd0aa",
"42	c #76cfac",
"43	c #67caa3",
"44	c #bcdefb",
"45	c #8ec7e7",
"46	c #48abe2",
"47	c #a1cde6",
"48	c #8abddc",
"49	c #43a8e2",
"4a	c #7ab6d7",
"4b	c #c8c0d3",
"4c	c #75cc25",
"4d	c #68c92b",
"4e	c #50c41e",
"4f	c #cddce5",
"4g	c #60b6e4",
"4h	c #f1e6e1",
"4i	c #e7ddd7",
"4j	c #59b2e2",
"4k	c #e3d7d2",
"4l	c #c9dbe6",
"4m	c #e1dad7",
"4n	c #5cb4e3",
"4o	c #dcd4d2",
"4p	c #cadce7",
"4q	c #e0dbd8",
"4r	c #cbdce7",
"4s	c #6bbce8",
"4t	c #e0dad8",
"4u	c #cbdde8",
"4v	c #73bfe9",
"4w	c #e9e4e2",
"4x	c #dfdad8",
"4y	c #6bbce9",
"4z	c #dad4d3",
"50	c #d2e0e7",
"51	c #77c4ec",
"52	c #efe5e0",
"53	c #e6dbd7",
"54	c #72c1ea",
"55	c #e1d5d2",
"56	c #96cdeb",
"57	c #6dc2ee",
"58	c #66beed",
"59	c #aad4eb",
"5a	c #97ceeb",
"5b	c #70c3ee",
"5c	c #6bc3ee",
"5d	c #d5dfe9",
"5e	c #86ccef",
"5f	c #ede4e0",
"5g	c #e4dad6",
"5h	c #81cbee",
"5i	c #e1d4d1",
"5j	c #d1e0e9",
"5k	c #87cef0",
"5l	c #e8e3e1",
"5m	c #82cdef",
"5n	c #d2dfe8",
"5o	c #89d1f1",
"5p	c #85cff0",
"5q	c #d2e1e8",
"5r	c #8ed2f2",
"5s	c #89d1f0",
"5t	c #c9c0d5",
"5u	c #d3e2e8",
"5v	c #90d5f4",
"5w	c #ddd8d7",
"5x	c #8ad3f2",
"5y	c #635f67",
"5z	c #c6bdd3",
"60	c #73cf2a",
"61	c #67cd31",
"62	c #50c824",
"63	c #fff9ff",
"64	c #f2f3f3",
"65	c #f1f1f1",
"66	c #f1f0f0",
"67	c #d8e8ef",
"68	c #96dcfb",
"69	c #eeeae8",
"6a	c #e5e6e8",
"6b	c #e4e6e5",
"6c	c #e1e3e4",
"6d	c #e4e1df",
"6e	c #93dcfb",
"6f	c #e0dada",
"6g	c #d8d9da",
"6h	c #d5d6d7",
"6i	c #dadbde",
"6j	c #5d5761",
"6k	c #9995a0",
"6l	c #94929d",
"6m	c #827e88",
"6n	c #7e7a84",
"6o	c #7c7680",
"6p	c #716a72",
"6q	c #6c6872",
"6r	c #69656f",
"6s	c #5e5c64",
"6t	c #48434b",
"                                                ",
"1w272p++++++++3p404b++++++++++1j1j++++++++5t5z  ",
"0hXXXXXXXXXXXXXXXXXXXXXXXXXXXXXXXXXXXXXXXXXXXX0i",
"0hXX2q060606153q414c06060606151k1k1506060606600i",
"0hXX2r070707163r424d07070707161l1l1607070707610i",
"0hXX2s080808173s434e08080808171m1m1708080808620i",
"0h28........0j3t440j........0j1n1n0j........630i",
"1x29||||||||0k0s0s0k||||||||0k0s0s0k||||||||646k",
"1y2a////////0l0t0t0l////////0l0t0t0l////////656l",
"122b1313133b3i181819101010101918591911111111661t",
"122c2t33373c3j3u454f4l4p4r4u50565a5d5j5n5q5u671t",
"122d2u34383d3k3v464g1g1h4s4v51575b5e5k5o5r5v681u",
"1z2e1e1e393e3l3w474h1a1a1a4w521o1o5f5l1c1c1c691u",
"202f2v0909090m0u0u0m090909090m0u0u0m090909096a6m",
"212g2w0a0a0a0n0v0v0n0a0a0a0a0n0v0v0n0a0a0a0a6b6n",
"222h2x0b0b0b0o0w0w0o0b0b0b0b0o0w0w0o0b0b0b0b6c6o",
"1d2i1414143f3m3x484i4m4q4t4x531p1p5g1b1b1b5w6d1v",
"1d2j2y353a3g3n3y494j4n1g1h4y54585c5h5m5p5s5x6e1v",
"232k1f361f3h3o3z4a4k4o1i1i4z551q1q5i1r1r1s1s6f6p",
"242l2z0c0c0c0p0x0x0p0c0c0c0c0p0x0x0p0c0c0c0c6g6q",
"252m300d0d0d0q0y0y0q0d0d0d0d0q0y0y0q0d0d0d0d6h6r",
"262n310e0e0e0r0z0z0r0e0e0e0e0r0z0z0r0e0e0e0e6i6s",
"  2o320f0f0f0g0g0g0g0f0f0f0f0g0g0g0g0f0f0f5y6j6t",
"                                                "};