/* XPM */
static char * xpm_target[] = {
"24 24 174 2",
"  	c None",
"XX	c #ffffff",
"++	c #29a3ea",
"..	c #0b61c2",
"||	c #f9fafd",
"//	c #003395",
"06	c #49b5ea",
"07	c #56c6f6",
"08	c #f8fafd",
"09	c #68d3fa",
"0a	c #0044ad",
"0b	c #0043ad",
"0c	c #0039a2",
"0d	c #0852b1",
"0e	c #348dd1",
"0f	c #61b9e7",
"0g	c #66c7ef",
"0h	c #6fccf3",
"0i	c #75cdf5",
"0j	c #82d5f6",
"0k	c #4ebaf0",
"0l	c #2ea2e8",
"0m	c #1a83d9",
"0n	c #1073d1",
"0o	c #00389d",
"0p	c #003ca1",
"0q	c #3b95d7",
"0r	c #84cfef",
"0s	c #78ccf2",
"0t	c #58bced",
"0u	c #60bff0",
"0v	c #68c4ef",
"0w	c #72c7f2",
"0x	c #4cb9ef",
"0y	c #40b3f0",
"0z	c #4abcf3",
"10	c #53c5f6",
"11	c #45b8ef",
"12	c #1582da",
"13	c #157fd9",
"14	c #064ead",
"15	c #57b3e3",
"16	c #81d1f2",
"17	c #5bbded",
"18	c #4fb7eb",
"19	c #55baee",
"1a	c #5dbfee",
"1b	c #32adec",
"1c	c #29a8eb",
"1d	c #37b0ef",
"1e	c #44b9f2",
"1f	c #4ebff3",
"1g	c #5bcbf7",
"1h	c #259ae4",
"1i	c #1783dc",
"1j	c #00308e",
"1k	c #054dae",
"1l	c #5cb7e5",
"1m	c #79cbf1",
"1n	c #61c0eb",
"1o	c #3aade8",
"1p	c #70c3ee",
"1q	c #dbecf9",
"1r	c #f4f9fd",
"1s	c #f4f7fd",
"1t	c #d6edf8",
"1u	c #67c7f3",
"1v	c #42bbf2",
"1w	c #52c3f5",
"1x	c #5bc8f6",
"1y	c #68d2f9",
"1z	c #28a0e7",
"20	c #188ce0",
"21	c #003297",
"22	c #4aaae0",
"23	c #6ec9ed",
"24	c #6ac5eb",
"25	c #39b0e8",
"26	c #c8e5f5",
"27	c #cae6f8",
"28	c #51c3f4",
"29	c #61ccf7",
"2a	c #68d1f9",
"2b	c #1c94e3",
"2c	c #002a85",
"2d	c #2a87cf",
"2e	c #62c4eb",
"2f	c #6bc5eb",
"2g	c #46b6e9",
"2h	c #f0f6fb",
"2i	c #79caef",
"2j	c #37aeec",
"2k	c #3eb5eb",
"2l	c #7accf2",
"2m	c #eaf3fb",
"2n	c #59c8f6",
"2o	c #5ecaf7",
"2p	c #66d2f9",
"2q	c #55caf5",
"2r	c #1890e3",
"2s	c #003fa3",
"2t	c #51b4e5",
"2u	c #62c4ec",
"2v	c #56bcea",
"2w	c #bce2f4",
"2x	c #8dd1f1",
"2y	c #0f96e7",
"2z	c #199de7",
"30	c #21a3eb",
"31	c #26a7eb",
"32	c #2cabef",
"33	c #85d3f4",
"34	c #fffeff",
"35	c #ceeafa",
"36	c #55c7f6",
"37	c #64d0f8",
"38	c #6fd8fc",
"39	c #002d85",
"3a	c #1a70c3",
"3b	c #5cc3eb",
"3c	c #5ec1eb",
"3d	c #70c6ed",
"3e	c #89ceef",
"3f	c #3eb1e9",
"3g	c #7dc8ef",
"3h	c #f4f8fb",
"3i	c #70c8f3",
"3j	c #35b3f1",
"3k	c #8ad5f5",
"3l	c #7bd2f7",
"3m	c #60cff8",
"3n	c #6bd5fb",
"3o	c #4dc2f2",
"3p	c #002a84",
"3q	c #379bd9",
"3r	c #5ec2ec",
"3s	c #58bfea",
"3t	c #d8edf8",
"3u	c #eaf3fa",
"3v	c #34abe8",
"3w	c #7fcaee",
"3x	c #75cef3",
"3y	c #3ab8f2",
"3z	c #ebf5fd",
"40	c #dcf1fc",
"41	c #5bcef7",
"42	c #69d4fb",
"43	c #65d1f8",
"44	c #4baee3",
"45	c #5cc0eb",
"46	c #55beea",
"47	c #f1f6fc",
"48	c #82cdee",
"49	c #38ace8",
"4a	c #3bb8f2",
"4b	c #8fd6f6",
"4c	c #f4f8fd",
"4d	c #59ccf7",
"4e	c #72d9fc",
"4f	c #002882",
"4g	c #54b8e7",
"4h	c #5cbfeb",
"4i	c #53bde9",
"4j	c #4cb7eb",
"4k	c #39ade8",
"4l	c #3cb8f2",
"4m	c #61c8f4",
"4n	c #57ccf7",
"4o	c #71d8fb",
"4p	c #1995e6",
"4q	c #035bc1",
"4r	c #0245ab",
"4s	c #0a5fc4",
"4t	c #0e6aca",
"                393p//4f4f//3p39                ",
"            2c2s3a3q444g4g443q3a2s2c            ",
"        1j212d2t3b3r454h4h453r3b2t2d211j        ",
"      //1k222e2u3c3s464i4i463s3c2u2e221k//      ",
"    0o141l232f2v3d3t47XXXX473t3d2v2f231l140o    ",
"    0p151m242g2wXXXXXXXXXXXXXXXX2w2g241m150p    ",
"  0c0q161n2508XXXX3u484j4j483uXXXX08251n160q0c  ",
"  0d0r171o26XXXX3e3v494k4k493v3eXXXX261o170r0d  ",
"..0e0s061pXXXX2x3f3w||XXXX||3w3f2xXXXX1p060s0e4r",
"..0f0t181qXX2h063gXXXXXXXXXXXX3g062hXX1q180t0f0a",
"..0g0u191rXX2i2y3hXXXXXXXXXXXX3h2y2iXX1r190u0g4q",
"0b0h0v1aXXXX2j2zXXXXXXXXXXXXXXXX2z2jXXXX1a0v0h0a",
"0b0i0w1bXXXX2k30XXXXXXXXXXXXXXXX302kXXXX1b0w0i0a",
"..0j0x1c1sXX2l31||XXXXXXXXXXXX||312lXX1s1c0x0j4q",
"..0k0y1d1tXX2m323iXXXXXXXXXXXX3i322mXX1t1d0y0k4s",
"..0l0z1e1uXXXX333j3x08XXXX083x3j33XXXX1u1e0z0l4t",
"  0m101f1v27XX343k3y4a4l4l4a3y3k34XX271v1f100m  ",
"  0n11071w28||XXXX3z4b4m4m4b3zXXXX||281w07110n  ",
"    121g1x072n35XXXXXXXXXXXXXXXX352n071x1g12    ",
"    131h1y292o363l404cXXXX4c403l362o291y1h13    ",
"      1i1z2a2p373m414d4n4n4d413m372p2a1z1i      ",
"        202b2q383n4209090909423n382q2b20        ",
"            2r++3o434e4o4o4e433o++2r            ",
"                ++++++4p4p++++++                "};