/* XPM */
static char * xpm_taxi[] = {
"24 24 287 2",
"  	c None",
"XX	c #bfebff",
"++	c #e29623",
"..	c #ffcb00",
"||	c #ffb303",
"//	c #ffc700",
"06	c #ffc400",
"07	c #ffc101",
"08	c #ffbf01",
"09	c #35adf6",
"0a	c #ffbb01",
"0b	c #ffb802",
"0c	c #5bbdf1",
"0d	c #5a5b5d",
"0e	c #e3f4ed",
"0f	c #e3f4ef",
"0g	c #bee9ff",
"0h	c #35acf6",
"0i	c #c0eaff",
"0j	c #ffe200",
"0k	c #ffd240",
"0l	c #ffe000",
"0m	c #66676a",
"0n	c #ffda00",
"0o	c #ffd100",
"0p	c #fecd00",
"0q	c #ffcd00",
"0r	c #ffffff",
"0s	c #5abdf1",
"0t	c #ffb004",
"0u	c #f5c100",
"0v	c #ffe400",
"0w	c #fedd39",
"0x	c #454d54",
"0y	c #67686e",
"0z	c #e3f5ed",
"10	c #ffcf00",
"11	c #59bdf1",
"12	c #e3f3ec",
"13	c #90d7fb",
"14	c #bfe9ff",
"15	c #7dd2f8",
"16	c #7ed2f8",
"17	c #ffb100",
"18	c #fcdb36",
"19	c #f28105",
"1a	c #e1700b",
"1b	c #f4b000",
"1c	c #f5c200",
"1d	c #f6c400",
"1e	c #ec9505",
"1f	c #d75213",
"1g	c #ea740d",
"1h	c #f27f05",
"1i	c #fbe200",
"1j	c #fae000",
"1k	c #ffe500",
"1l	c #fbe000",
"1m	c #fbe500",
"1n	c #f1ad01",
"1o	c #d7520f",
"1p	c #e98e23",
"1q	c #ffe858",
"1r	c #ffbd0f",
"1s	c #f9c60d",
"1t	c #fadb00",
"1u	c #b19b2d",
"1v	c #61698b",
"1w	c #646779",
"1x	c #f0ce05",
"1y	c #fbdc00",
"1z	c #8d3b29",
"20	c #3a4d59",
"21	c #595b5e",
"22	c #fffc53",
"23	c #fff152",
"24	c #faee95",
"25	c #e9eac8",
"26	c #cce7fd",
"27	c #6bcbff",
"28	c #b6ce72",
"29	c #ffd900",
"2a	c #dbb90b",
"2b	c #5e6480",
"2c	c #878b94",
"2d	c #858892",
"2e	c #60605a",
"2f	c #ffde00",
"2g	c #8b3829",
"2h	c #eff6c1",
"2i	c #d4f5ff",
"2j	c #cdf0ff",
"2k	c #bfeaff",
"2l	c #86d0f7",
"2m	c #2ca7f6",
"2n	c #9dbd60",
"2o	c #b99915",
"2p	c #575b6f",
"2q	c #6f7074",
"2r	c #6f7177",
"2s	c #363e5e",
"2t	c #88382a",
"2u	c #fed934",
"2v	c #e1f4f0",
"2w	c #bae7ff",
"2x	c #b2e3fd",
"2y	c #6cc6f3",
"2z	c #33aaf6",
"30	c #9fbc62",
"31	c #ffd600",
"32	c #fed100",
"33	c #2b3042",
"34	c #414558",
"35	c #313951",
"36	c #967819",
"37	c #ffdb00",
"38	c #bb3b16",
"39	c #fed933",
"3a	c #bce8ff",
"3b	c #b6e5fd",
"3c	c #5ac1f2",
"3d	c #34abf7",
"3e	c #9fba62",
"3f	c #fed300",
"3g	c #ab830d",
"3h	c #d0a103",
"3i	c #fcd000",
"3j	c #ffdc00",
"3k	c #fcd734",
"3l	c #bce9ff",
"3m	c #ade1fd",
"3n	c #57bcf0",
"3o	c #35abf7",
"3p	c #9eb863",
"3q	c #ffd300",
"3r	c #ffce00",
"3s	c #e89300",
"3t	c #f4bf00",
"3u	c #f2b700",
"3v	c #ffe51f",
"3w	c #bde9ff",
"3x	c #a6e0fc",
"3y	c #58bdf1",
"3z	c #35abf6",
"40	c #9db767",
"41	c #ffd800",
"42	c #fae79e",
"43	c #c41d00",
"44	c #facf0e",
"45	c #8ed6fb",
"46	c #9db467",
"47	c #ffc900",
"48	c #ffd400",
"49	c #db6500",
"4a	c #ca2800",
"4b	c #feffff",
"4c	c #ffee47",
"4d	c #9fb367",
"4e	c #ffc500",
"4f	c #e9ac41",
"4g	c #e09f78",
"4h	c #e07243",
"4i	c #fed91c",
"4j	c #87d4f9",
"4k	c #9fb166",
"4l	c #ffc200",
"4m	c #efaf45",
"4n	c #eaa57c",
"4o	c #d2673a",
"4p	c #fcd81b",
"4q	c #a0b066",
"4r	c #ffc000",
"4s	c #d56100",
"4t	c #b92100",
"4u	c #fff048",
"4v	c #a0ae66",
"4w	c #ffbc00",
"4x	c #ffc600",
"4y	c #fbe69f",
"4z	c #bc1b00",
"50	c #facb0f",
"51	c #9fad69",
"52	c #ffb900",
"53	c #ffc301",
"54	c #e49300",
"55	c #f0bd00",
"56	c #eeb500",
"57	c #ffe21f",
"58	c #9fa96a",
"59	c #ffb400",
"5a	c #ffbd02",
"5b	c #fbd633",
"5c	c #8cd4fb",
"5d	c #9fa86a",
"5e	c #ffb103",
"5f	c #ffb201",
"5g	c #ffb202",
"5h	c #ffba03",
"5i	c #fbd832",
"5j	c #a0a76a",
"5k	c #ffae00",
"5l	c #ffaf03",
"5m	c #feaa03",
"5n	c #ca902b",
"5o	c #e09917",
"5p	c #ffae04",
"5q	c #ffb704",
"5r	c #fbd730",
"5s	c #e2f5f0",
"5t	c #95d7fb",
"5u	c #9fa66a",
"5v	c #ffaa00",
"5w	c #fea403",
"5x	c #5d6774",
"5y	c #7e8697",
"5z	c #6b798c",
"60	c #ae7f32",
"61	c #ffac01",
"62	c #aa3a14",
"63	c #f1f7c1",
"64	c #b9ebff",
"65	c #b8e9ff",
"66	c #a2e0ff",
"67	c #56bdf4",
"68	c #34adf6",
"69	c #a1a46a",
"6a	c #ffa900",
"6b	c #bf8020",
"6c	c #666e7d",
"6d	c #7c7f86",
"6e	c #7c8188",
"6f	c #43516d",
"6g	c #ffad00",
"6h	c #ffb002",
"6i	c #7b3b29",
"6j	c #464d54",
"6k	c #66676b",
"6l	c #fffe54",
"6m	c #fff352",
"6n	c #f4eb90",
"6o	c #dce3c8",
"6p	c #60bde8",
"6q	c #24adff",
"6r	c #98a274",
"6s	c #ffa700",
"6t	c #d78311",
"6u	c #3c495d",
"6v	c #65686c",
"6w	c #61656c",
"6x	c #484542",
"6y	c #ffac00",
"6z	c #ffae02",
"70	c #7a3927",
"71	c #474e54",
"72	c #c3480a",
"73	c #de8920",
"74	c #ffd743",
"75	c #ffb805",
"76	c #f5ab11",
"77	c #ff9e02",
"78	c #ffa601",
"79	c #915a1b",
"7a	c #1c2940",
"7b	c #212a37",
"7c	c #e98708",
"7d	c #ffa104",
"7e	c #ffa400",
"7f	c #6c3a2b",
"7g	c #3e4f59",
"7h	c #595c5e",
"7i	c #b83206",
"7j	c #c14107",
"7k	c #dc6906",
"7l	c #e97a03",
"7m	c #ff9b01",
"7n	c #ff9e05",
"7o	c #ffa202",
"7p	c #ffa500",
"7q	c #ffa401",
"7r	c #ff9f04",
"7s	c #ffa105",
"7t	c #ee7904",
"7u	c #cd5008",
"7v	c #e97605",
"7w	c #f28205",
"7x	c #f38305",
"7y	c #df6507",
"                3s42494f4m4s4y54                ",
"                3t0r4a4g4n4t0r55                ",
"        ++++++++3u434b4h4o0r4z56++++++++        ",
"    ++0w0w2u393k3v444c4i4p4u50575b5i5r1818++    ",
"    1o222h2v0z0e0f0f120e0e120f0f0e0z5s636l72    ",
"    1p232iXXXXXXXXXXXXXXXXXXXXXXXXXXXX646m73    ",
"    0k242j2w3a3l3w0g0g140i0i0i0i140g0g656n0k    ",
"    0k252k2x3b3m3x45134j151616155c135t666o747i  ",
"  1f1q262l2y3c3n3y110s0c0c0c0c0c0s0s11676p0q7j  ",
"  1g1r272m2z3d3o3z0h0h0h0h090909090909686q757k  ",
"  1h1s282n303e3p40464d4k4q4v51585d5j5u696r767l  ",
"1a1i1t290n310o100q474e4l4r4w5259175k5v6a6s777m7u",
"1b1j0l2a2o323f0p..//0607080a0b||0t5l5w6b6t787n7v",
"1c0j1u2b2p330p10..//0607080a0b||5e5m5x6c6u797o7w",
"0u1k1v2c2q343g3q..//0607080a0b||5f5n5y6d6v7a7p19",
"0u0v1w2d2r353h0o..//0607080a0b||5g5o5z6e6w7b7q19",
"1d1l1x2e2s360n3r..//0607080a0b||0t17606f6x7c7r7x",
"1e1m1y2f0l373i0p..//0607080a0b||0t5p616g6y7d7s7y",
"  1n0j0v0j0l3j0n41480o0q..4x535a5h5q||6h6z7e7t  ",
"    1z2g2t38                        626i707f    ",
"    200x0x                            6j717g    ",
"    210d0d                            0d0d7h    ",
"    0m0y0m                            6k0y0m    ",
"                                                "};