/* XPM */
static char * xpm_terminate[] = {
"24 24 223 2",
"  	c None",
"XX	c #f8281b",
"++	c #f7221a",
"..	c #f71e18",
"||	c #f71916",
"//	c #f82b1c",
"06	c #f71615",
"07	c #f8301e",
"08	c #fc745c",
"09	c #f71214",
"0a	c #fa5039",
"0b	c #fc775f",
"0c	c #fc755d",
"0d	c #fd8465",
"0e	c #f70d13",
"0f	c #f17865",
"0g	c #fc725a",
"0h	c #fe8766",
"0i	c #fe8d6d",
"0j	c #fd8b6a",
"0k	c #fd8869",
"0l	c #fd7f62",
"0m	c #fd7b5e",
"0n	c #fd7a5e",
"0o	c #bc282c",
"0p	c #fe9d87",
"0q	c #e15044",
"0r	c #df423b",
"0s	c #dd6058",
"0t	c #e0645c",
"0u	c #de5e57",
"0v	c #dc5952",
"0w	c #dc5850",
"0x	c #dc5750",
"0y	c #dd564f",
"0z	c #dd574f",
"10	c #de5750",
"11	c #de5550",
"12	c #d53731",
"13	c #d12321",
"14	c #d1211f",
"15	c #d01f1e",
"16	c #cd1c1c",
"17	c #a90b0b",
"18	c #c12c30",
"19	c #fea086",
"1a	c #fe9377",
"1b	c #fe967a",
"1c	c #fe9075",
"1d	c #fe8e73",
"1e	c #fe8973",
"1f	c #fd8972",
"1g	c #fd8a74",
"1h	c #fd826b",
"1i	c #fc7b64",
"1j	c #fa4833",
"1k	c #f93828",
"1l	c #f83226",
"1m	c #f72b23",
"1n	c #f82622",
"1o	c #f82c29",
"1p	c #da2121",
"1q	c #9b0406",
"1r	c #eb634e",
"1s	c #ef6e58",
"1t	c #f97a65",
"1u	c #f97963",
"1v	c #fc8069",
"1w	c #fc7a62",
"1x	c #fc765f",
"1y	c #fc7159",
"1z	c #f71d17",
"20	c #f51613",
"21	c #f61616",
"22	c #e52526",
"23	c #890002",
"24	c #c13736",
"25	c #d54e46",
"26	c #cb443d",
"27	c #c73c36",
"28	c #c63a35",
"29	c #c2342f",
"2a	c #be2d29",
"2b	c #bd2c27",
"2c	c #c2302c",
"2d	c #ce3f38",
"2e	c #fd715b",
"2f	c #fb6048",
"2g	c #f71413",
"2h	c #f41416",
"2i	c #c61214",
"2j	c #e96959",
"2k	c #fe8567",
"2l	c #fe8e76",
"2m	c #fe927b",
"2n	c #fe8f76",
"2o	c #fe8c74",
"2p	c #fe8a71",
"2q	c #fe8670",
"2r	c #fe8471",
"2s	c #fd846f",
"2t	c #fc775e",
"2u	c #fc735b",
"2v	c #fb5940",
"2w	c #f71012",
"2x	c #f11a1e",
"2y	c #840001",
"2z	c #cb3930",
"30	c #fc7d65",
"31	c #f51115",
"32	c #b50b0d",
"33	c #9c1718",
"34	c #9e1719",
"35	c #af1f23",
"36	c #ba272a",
"37	c #bd292d",
"38	c #bc282b",
"39	c #bb282b",
"3a	c #f70d12",
"3b	c #c90d0f",
"3c	c #cc413e",
"3d	c #ffa087",
"3e	c #ffa085",
"3f	c #ffa389",
"3g	c #fea48d",
"3h	c #fea48c",
"3i	c #fea289",
"3j	c #fea088",
"3k	c #fe957e",
"3l	c #cd0408",
"3m	c #d54c45",
"3n	c #fe8c6c",
"3o	c #fc765e",
"3p	c #d00609",
"3q	c #c5302c",
"3r	c #c4302d",
"3s	c #cd3b36",
"3t	c #d03c38",
"3u	c #d03d38",
"3v	c #cf3a37",
"3w	c #cf3936",
"3x	c #cf3935",
"3y	c #d03836",
"3z	c #f37361",
"40	c #cb0508",
"41	c #d85349",
"42	c #e97564",
"43	c #ee8776",
"44	c #f08b7c",
"45	c #f08b7b",
"46	c #f08979",
"47	c #f08878",
"48	c #f08678",
"49	c #f18778",
"4a	c #fb8773",
"4b	c #f70c12",
"4c	c #bc0306",
"4d	c #ff8a6e",
"4e	c #fe8261",
"4f	c #fe8a6a",
"4g	c #fd8a69",
"4h	c #fd8667",
"4i	c #fd8065",
"4j	c #fd7e5f",
"4k	c #fd7b60",
"4l	c #fa523a",
"4m	c #f82f1e",
"4n	c #f20c0f",
"4o	c #960001",
"4p	c #c7302c",
"4q	c #df5145",
"4r	c #e15347",
"4s	c #e15246",
"4t	c #e15145",
"4u	c #e14c42",
"4v	c #df463d",
"4w	c #dc4038",
"4x	c #dd4039",
"4y	c #dd4038",
"4z	c #d9322a",
"50	c #d1140e",
"51	c #e92118",
"52	c #f71113",
"53	c #cf0708",
"54	c #911215",
"55	c #aa1e1e",
"56	c #c3312b",
"57	c #ca3732",
"58	c #cb3633",
"59	c #c81d1b",
"5a	c #eb372e",
"5b	c #ee0e10",
"5c	c #a10103",
"5d	c #dd483d",
"5e	c #fe5a48",
"5f	c #fd6551",
"5g	c #fd715a",
"5h	c #fc715a",
"5i	c #fa442f",
"5j	c #f93727",
"5k	c #f31313",
"5l	c #b20305",
"5m	c #b82b28",
"5n	c #fe644b",
"5o	c #fc614a",
"5p	c #fc6e57",
"5q	c #fc7058",
"5r	c #fc6d55",
"5s	c #fa432d",
"5t	c #f8291b",
"5u	c #f8271a",
"5v	c #f72119",
"5w	c #eb1312",
"5x	c #b50406",
"5y	c #ac2323",
"5z	c #d3322b",
"60	c #db4037",
"61	c #df433c",
"62	c #da2f28",
"63	c #cf0f0c",
"64	c #d00f0c",
"65	c #ce0d0b",
"66	c #b20506",
"                      3c3m                      ",
"              242j2z333d0h3q414d4p              ",
"              252k0h343e0i3r424e4q              ",
"          18  262l0i353f3n3s434f4r              ",
"        0s191r272m0j363g0j3t444g4s              ",
"        0t1a1s282n0k373h0k3u454h4t              ",
"        0u1b0f292o0d0o3i0d3v460d0q              ",
"        0v1c0f2a2p0l0o3j0l3w474i0q              ",
"        0w1d1t2b2q0m380p0m3x484j4u    5m5y      ",
"        0x1e1u2c2r0n390p0n3y494k4v545d5n5z      ",
"        0y1f1v2d2s0b0b3k0b3z4a0b4w555e5o60      ",
"        0z1g1w2e2t30080c3o0c0c0c4x565f5p61      ",
"        101h1x0g2u0808080808080g4y575g5q0r      ",
"        111i1y2f2v0a0a0a0a0a0a4l4z585h5r0r      ",
"        121j0707070707070707074m50595i5s62      ",
"        131k////////////////////515a5j5t63      ",
"        141lXXXXXXXXXXXXXXXXXXXXXXXXXX5u64      ",
"        151m++++++++++++++++++++++++++5v65      ",
"        161n1z..........................66      ",
"        171o20||||||||||||||||||||||||5w        ",
"          1p212g060606060606060606065k5x        ",
"          1q222h2w09090909090909525b5l          ",
"            232i2x313a0e0e0e4b4n535c            ",
"                2y323b3l3p404c4o                "};