/* XPM */
static char * xpm_text_preview[] = {
"24 24 296 2",
"  	c None",
"XX	c #ffffff",
"++	c #e1e9ee",
"..	c #e4eef2",
"||	c #084d7b",
"//	c #417b9e",
"06	c #345fa5",
"07	c #edf3f5",
"08	c #eef2f5",
"09	c #3a729a",
"0a	c #2a6890",
"0b	c #bbcae4",
"0c	c #3b65ac",
"0d	c #edf2f5",
"0e	c #115684",
"0f	c #0d4e7a",
"0g	c #fafafa",
"0h	c #6794ac",
"0i	c #8caec0",
"0j	c #89abbe",
"0k	c #86a8be",
"0l	c #14537f",
"0m	c #a5b8db",
"0n	c #3964ac",
"0o	c #3963ab",
"0p	c #325aa2",
"0q	c #bbcddb",
"0r	c #417b99",
"0s	c #78a1bd",
"0t	c #7ca5be",
"0u	c #749db8",
"0v	c #084776",
"0w	c #c9d9e3",
"0x	c #84a5bc",
"0y	c #82a6bc",
"0z	c #7da4bb",
"10	c #759eb8",
"11	c #6e94b1",
"12	c #658ea5",
"13	c #5986a0",
"14	c #4e7d9c",
"15	c #8bacc1",
"16	c #87a9bf",
"17	c #084d7c",
"18	c #e6eef1",
"19	c #fcfafa",
"1a	c #fcfcfc",
"1b	c #3964aa",
"1c	c #fcfcf7",
"1d	c #fcfcf9",
"1e	c #fbfcfc",
"1f	c #fcfffc",
"1g	c #3763ab",
"1h	c #ecf4f7",
"1i	c #355fa5",
"1j	c #86a9bf",
"1k	c #dce3ec",
"1l	c #fefffe",
"1m	c #f3faf6",
"1n	c #fcfbfa",
"1o	c #ecf0f2",
"1p	c #b9bac5",
"1q	c #5b5b80",
"1r	c #5e5f8a",
"1s	c #53557c",
"1t	c #3d416c",
"1u	c #b0afbb",
"1v	c #88a9bf",
"1w	c #cedbe2",
"1x	c #f4f5f8",
"1y	c #e9f0f9",
"1z	c #f6fbfd",
"20	c #fbfbfa",
"21	c #4c68a3",
"22	c #666b97",
"23	c #567cc3",
"24	c #6799e4",
"25	c #81b5f3",
"26	c #8cc5ff",
"27	c #89bcf7",
"28	c #5e78ae",
"29	c #4a4563",
"2a	c #89aac0",
"2b	c #c2d3de",
"2c	c #e7edf5",
"2d	c #e0e8f4",
"2e	c #eef3f5",
"2f	c #3763a9",
"2g	c #fafcfa",
"2h	c #f2f0f0",
"2i	c #69729d",
"2j	c #6090db",
"2k	c #8abaec",
"2l	c #a2caeb",
"2m	c #a3cce8",
"2n	c #a1c4e3",
"2o	c #94b9e4",
"2p	c #b5ecff",
"2q	c #7ea7d7",
"2r	c #1f234e",
"2s	c #8babc0",
"2t	c #b7ccd9",
"2u	c #d9e4ec",
"2v	c #d8e2e8",
"2w	c #e5e8eb",
"2x	c #355fa6",
"2y	c #f1f9f8",
"2z	c #bbb9c4",
"30	c #547cc1",
"31	c #89baea",
"32	c #b9e5f6",
"33	c #dfffff",
"34	c #bbddf1",
"35	c #a6cbea",
"36	c #a1c5e6",
"37	c #9abae0",
"38	c #ceffff",
"39	c #5d6f9a",
"3a	c #b2b4be",
"3b	c #7ba2be",
"3c	c #a5c1ce",
"3d	c #cbd7e0",
"3e	c #d0dbe3",
"3f	c #d8dfe8",
"3g	c #335ca3",
"3h	c #e6f1f4",
"3i	c #7a7c9c",
"3j	c #5f91d9",
"3k	c #a5d1ee",
"3l	c #dcfdff",
"3m	c #cde3f5",
"3n	c #b2d7ef",
"3o	c #caeaf9",
"3p	c #b9dff3",
"3q	c #c6f4ff",
"3r	c #b0dee8",
"3s	c #6a6a82",
"3t	c #7ea4be",
"3u	c #94b4cb",
"3v	c #b4ccda",
"3w	c #bdd0de",
"3x	c #ccd7e7",
"3y	c #e2ebf1",
"3z	c #7e7d9f",
"40	c #78aeed",
"41	c #b2d6eb",
"42	c #b9ddf1",
"43	c #c2dbf2",
"44	c #afd8f0",
"45	c #e7faff",
"46	c #d1f3fc",
"47	c #d3f3fb",
"48	c #d9ffff",
"49	c #c8fafe",
"4a	c #51536f",
"4b	c #eff2f5",
"4c	c #6f9db5",
"4d	c #8bacc5",
"4e	c #afc4d7",
"4f	c #b8cedc",
"4g	c #c6d4e2",
"4h	c #e4eaee",
"4i	c #787c9b",
"4j	c #82bbf6",
"4k	c #95b9e0",
"4l	c #bfe1f4",
"4m	c #bde1f3",
"4n	c #ebfbff",
"4o	c #dff5fb",
"4p	c #d6f2fb",
"4q	c #ddf2fa",
"4r	c #e7ffff",
"4s	c #d2f2f9",
"4t	c #4b4b68",
"4u	c #edf4f7",
"4v	c #325ca1",
"4w	c #5c8da7",
"4x	c #86adc3",
"4y	c #8fb2ca",
"4z	c #9eb8ce",
"50	c #224787",
"51	c #8886a2",
"52	c #86b7e9",
"53	c #96bfe7",
"54	c #a6c8e9",
"55	c #caf0fa",
"56	c #d5f1fc",
"57	c #dbf3fb",
"58	c #ebfcfd",
"59	c #ecfafe",
"5a	c #c8c8d2",
"5b	c #9a9ead",
"5c	c #eaf4f5",
"5d	c #325aa1",
"5e	c #8da1b5",
"5f	c #7386b8",
"5g	c #b1ebff",
"5h	c #aed2ed",
"5i	c #c6e9f9",
"5j	c #d4f1fa",
"5k	c #e3f5fd",
"5l	c #f6fbff",
"5m	c #404f7e",
"5n	c #e7f2f4",
"5o	c #eaf2f0",
"5p	c #325ba2",
"5q	c #7ba1bc",
"5r	c #c1d0d8",
"5s	c #95b3c5",
"5t	c #55557f",
"5u	c #7e9bc7",
"5v	c #cbffff",
"5w	c #deffff",
"5x	c #e8ffff",
"5y	c #fcffff",
"5z	c #536099",
"60	c #5e6391",
"61	c #be8044",
"62	c #edf0f2",
"63	c #325ca3",
"64	c #6f99b5",
"65	c #e1e8ee",
"66	c #f0f1f3",
"67	c #88a6c4",
"68	c #2f569c",
"69	c #7c788f",
"6a	c #62698f",
"6b	c #a7c6d5",
"6c	c #c2d9e3",
"6d	c #d1d7df",
"6e	c #bfc2cd",
"6f	c #485b9f",
"6g	c #5866a4",
"6h	c #ffaf4d",
"6i	c #ffc858",
"6j	c #ba5a00",
"6k	c #335ca4",
"6l	c #6a98b4",
"6m	c #bdcedc",
"6n	c #2a4f95",
"6o	c #bdcddc",
"6p	c #b2bcca",
"6q	c #2e4782",
"6r	c #9095ab",
"6s	c #8d8fa9",
"6t	c #284792",
"6u	c #eceef5",
"6v	c #ef9720",
"6w	c #fa8505",
"6x	c #ffffec",
"6y	c #fffab2",
"6z	c #9a3e06",
"70	c #074c7a",
"71	c #c6d3da",
"72	c #ccdbe3",
"73	c #e0e6ef",
"74	c #eaeef5",
"75	c #f4f6fb",
"76	c #ca6f06",
"77	c #ff8a04",
"78	c #ffffd5",
"79	c #fffdb8",
"7a	c #953a02",
"7b	c #4880a4",
"7c	c #8faec1",
"7d	c #95b6c7",
"7e	c #a5bfd1",
"7f	c #b6cada",
"7g	c #c4d3e2",
"7h	c #cfdbe5",
"7i	c #cbdae3",
"7j	c #cad9e3",
"7k	c #b75903",
"7l	c #ff8c05",
"7m	c #ffffce",
"7n	c #ffffbd",
"7o	c #863006",
"7p	c #27658e",
"7q	c #20628b",
"7r	c #1d5e8a",
"7s	c #1a5d88",
"7t	c #175b87",
"7u	c #155985",
"7v	c #135784",
"7w	c #125684",
"7x	c #a54e02",
"7y	c #ff8900",
"7z	c #ffffd3",
"80	c #ffffcb",
"81	c #783509",
"82	c #984100",
"83	c #ffa018",
"84	c #dab36c",
"85	c #6a2500",
"86	c #984700",
"87	c #7c2b00",
"      0i15160k1j1v2a2s3b3t4c4w09                ",
"      0i++++181k1w2b2t3c3u4d0h0r09              ",
"      0j++XXXX1l1x2c2u3d3v4e4x0r5q//            ",
"      0j++XX191m1y2d2v3e3w4f4y0h5r64//          ",
"      0k++XX1a1n1z2e2w3f3x4g4z0h..656l//        ",
"      0x++0b1b0o0n2f2x3g0p0p500sXX..6m0u//      ",
"      0y++XX1c0g202g2y3h3y4h0q0sXX66..710u0a    ",
"      0z++XX1d0g0g2h2z3i3z4i515e5s670t0t7b7p    ",
"      10++0b0n0o212i303j404j525f5t686n0q7c7q    ",
"      11++XX1e1o222j313k414k535g5u696o727d7r    ",
"      12++XX1f1p232k323l424l545h5v6a6p737e7s    ",
"      13++0b1g1q242l33XX434m555i5w6b6q747f7t    ",
"      14++XX1h1r252m343m444n565j5x6c6rXX7g7u    ",
"      //++XX071s262n353n454o575k5y6d6sXX7h7v    ",
"      //++0m0c1t272o363o464p585lXX6e6t757i7w    ",
"      09++XX071u282p373p474q59XXXX6f6uXX0w0e    ",
"      09++XX070d292q383q484rXXXX5z6g6vXX0w0e    ",
"      0a++0m0c0c0c2r393r494s5a5m606h6w767j0e    ",
"      0a++XX070d0d0d3a3s4a4t5b5n616i6x777k0e    ",
"      0a++XX0708080808084b4u5c5o626j6y787l7x    ",
"      0l++0b1i0606060606064v5d5p636k6z797m7y82  ",
"      0l++XXXXXXXXXXXXXXXXXXXXXXXXXXXX7a7n7z8386",
"      0f................................7o808487",
"      0f0f17||||||||||||||||||||||||700v0v8185  "};