/* XPM */
static char * xpm_text[] = {
"24 24 241 2",
"  	c None",
"XX	c #ffffff",
"++	c #e1e9ee",
"..	c #e4eef2",
"||	c #edf2f5",
"//	c #3b65ac",
"06	c #084d7b",
"07	c #417b9e",
"08	c #3963ab",
"09	c #345fa5",
"0a	c #edf3f5",
"0b	c #eef2f5",
"0c	c #115684",
"0d	c #bbcae4",
"0e	c #fafafa",
"0f	c #3b65ad",
"0g	c #084776",
"0h	c #2a6890",
"0i	c #0d4e7a",
"0j	c #fbfafa",
"0k	c #fdfafa",
"0l	c #6794ac",
"0m	c #8caec0",
"0n	c #89abbe",
"0o	c #86a8be",
"0p	c #14537f",
"0q	c #a5b8db",
"0r	c #3964ac",
"0s	c #fcfbfa",
"0t	c #eff2f6",
"0u	c #ecf2f5",
"0v	c #3862ab",
"0w	c #f3f5f9",
"0x	c #3964ab",
"0y	c #3863ab",
"0z	c #325aa2",
"10	c #bbcddb",
"11	c #ebf2f5",
"12	c #3a729a",
"13	c #417b99",
"14	c #78a1bd",
"15	c #95b3c5",
"16	c #7ca5be",
"17	c #749db8",
"18	c #f4f6fb",
"19	c #c9d9e3",
"1a	c #cad9e3",
"1b	c #84a5bc",
"1c	c #82a6bc",
"1d	c #7da4bb",
"1e	c #759eb8",
"1f	c #6e94b1",
"1g	c #658ea5",
"1h	c #5986a0",
"1i	c #4e7d9c",
"1j	c #8bacc1",
"1k	c #87a9bf",
"1l	c #084d7c",
"1m	c #e6eef1",
"1n	c #fcfafa",
"1o	c #fcfcfc",
"1p	c #3964aa",
"1q	c #fcfcf7",
"1r	c #fcfcf9",
"1s	c #fbfcfc",
"1t	c #fcfffc",
"1u	c #3763ab",
"1v	c #ecf4f7",
"1w	c #355fa5",
"1x	c #86a9bf",
"1y	c #dce3ec",
"1z	c #fefffe",
"20	c #f3faf6",
"21	c #f5fafa",
"22	c #f6fcfa",
"23	c #3762aa",
"24	c #88a9bf",
"25	c #cedbe2",
"26	c #f4f5f8",
"27	c #e9f0f9",
"28	c #f6fbfd",
"29	c #fbfbfa",
"2a	c #f4fcfa",
"2b	c #3662a9",
"2c	c #89aac0",
"2d	c #c2d3de",
"2e	c #e7edf5",
"2f	c #e0e8f4",
"2g	c #eef3f5",
"2h	c #3763a9",
"2i	c #fafcfa",
"2j	c #f9fafa",
"2k	c #f0f4f7",
"2l	c #ebf0f3",
"2m	c #8babc0",
"2n	c #b7ccd9",
"2o	c #d9e4ec",
"2p	c #d8e2e8",
"2q	c #e5e8eb",
"2r	c #355fa6",
"2s	c #f1f9f8",
"2t	c #f9fcfa",
"2u	c #ebf0f4",
"2v	c #7ba2be",
"2w	c #a5c1ce",
"2x	c #cbd7e0",
"2y	c #d0dbe3",
"2z	c #d8dfe8",
"30	c #335ca3",
"31	c #e6f1f4",
"32	c #f0f9f8",
"33	c #f3f4fa",
"34	c #f0f0f8",
"35	c #3a65ac",
"36	c #ecf1f5",
"37	c #7ea4be",
"38	c #94b4cb",
"39	c #b4ccda",
"3a	c #bdd0de",
"3b	c #ccd7e7",
"3c	c #e2ebf1",
"3d	c #ebf1f5",
"3e	c #3863a9",
"3f	c #fafcfc",
"3g	c #f3fafa",
"3h	c #f7f2fa",
"3i	c #3b66ad",
"3j	c #f2f7f9",
"3k	c #f0f5f8",
"3l	c #eff2f5",
"3m	c #6f9db5",
"3n	c #8bacc5",
"3o	c #afc4d7",
"3p	c #b8cedc",
"3q	c #c6d4e2",
"3r	c #e4eaee",
"3s	c #e5eef0",
"3t	c #3560a9",
"3u	c #ebf5f7",
"3v	c #f9f7fc",
"3w	c #f5fdfa",
"3x	c #f1f8fa",
"3y	c #3c66b0",
"3z	c #edf2f4",
"40	c #ecf2f3",
"41	c #edf4f7",
"42	c #325ca1",
"43	c #5c8da7",
"44	c #86adc3",
"45	c #8fb2ca",
"46	c #9eb8ce",
"47	c #224787",
"48	c #dae3eb",
"49	c #345ea4",
"4a	c #e5eff2",
"4b	c #f2f5f5",
"4c	c #3962aa",
"4d	c #f9fafb",
"4e	c #f1fdfa",
"4f	c #3c68b1",
"4g	c #f0f4f8",
"4h	c #eaf4f5",
"4i	c #325aa1",
"4j	c #335ca1",
"4k	c #e3eaee",
"4l	c #e7f1ee",
"4m	c #3661a7",
"4n	c #f6f7fc",
"4o	c #f9fcfb",
"4p	c #3c67af",
"4q	c #f4f6fc",
"4r	c #f4f4f9",
"4s	c #e7f2f4",
"4t	c #eaf2f0",
"4u	c #325ba2",
"4v	c #7ba1bc",
"4w	c #c1d0d8",
"4x	c #3159a0",
"4y	c #d9e2e9",
"4z	c #e0e5ef",
"50	c #345ea5",
"51	c #edf5f7",
"52	c #f9f8fc",
"53	c #3c66af",
"54	c #f2f5fa",
"55	c #e8f2f5",
"56	c #edf0f2",
"57	c #325ca3",
"58	c #6f99b5",
"59	c #e1e8ee",
"5a	c #f0f1f3",
"5b	c #88a6c4",
"5c	c #2f569c",
"5d	c #d1dde4",
"5e	c #dbe4e7",
"5f	c #345ca2",
"5g	c #e9edf4",
"5h	c #eef3f7",
"5i	c #3d67b1",
"5j	c #f4f6fd",
"5k	c #f1f5f9",
"5l	c #f1f4f6",
"5m	c #335ca4",
"5n	c #6a98b4",
"5o	c #bdcedc",
"5p	c #2a4f95",
"5q	c #bdcddc",
"5r	c #c7d4de",
"5s	c #2f579b",
"5t	c #d4e0e9",
"5u	c #dae5ee",
"5v	c #eceef5",
"5w	c #3965ab",
"5x	c #e4eff2",
"5y	c #e8eef3",
"5z	c #2f589e",
"60	c #074c7a",
"61	c #c6d3da",
"62	c #ccdbe3",
"63	c #e0e6ef",
"64	c #eaeef5",
"65	c #f7f8fc",
"66	c #4880a4",
"67	c #8faec1",
"68	c #95b6c7",
"69	c #a5bfd1",
"6a	c #b6cada",
"6b	c #c4d3e2",
"6c	c #cfdbe5",
"6d	c #cbdae3",
"6e	c #cadae3",
"6f	c #ccdbe4",
"6g	c #27658e",
"6h	c #20628b",
"6i	c #1d5e8a",
"6j	c #1a5d88",
"6k	c #175b87",
"6l	c #155985",
"6m	c #135784",
"6n	c #125684",
"6o	c #105483",
"      0m1j1k0o1x242c2m2v373m4312                ",
"      0m++++1m1y252d2n2w383n0l1312              ",
"      0n++XXXX1z262e2o2x393o44134v07            ",
"      0n++XX1n20272f2p2y3a3p450l4w5807          ",
"      0o++XX1o0s282g2q2z3b3q460l..595n07        ",
"      1b++0d1p080r2h2r300z0z4714XX..5o1707      ",
"      1c++XX1q0e292i2s313c3r1014XX5a..61170h    ",
"      1d++XX1r0e0e0s2t323d3s4815155b1616666g    ",
"      1e++0d0r080808080x3e3t494j4x5c5p10676h    ",
"      1f++XX1s210j0j0e0j3f3u4a4k4y5d5q62686i    ",
"      1g++XX1t222a2j0k0k0k3v4b4l4z5e5r63696j    ",
"      1h++0d1u232b0v080y0y0x4c4m505f5s646a6k    ",
"      1i++XX1v0t0u2k0w333g3w4d4n515g5tXX6b6l    ",
"      07++XX0a||0u2l2u343h3x4e4o525h5uXX6c6m    ",
"      07++0q//////////353i3y4f4p535i0v186d6n    ",
"      07++XX0a||||||||363j3z4g4q545j5vXX190c    ",
"      07++XX0a||||||||||3k400t4r0w5k11XX190c    ",
"      07++0q////////////////0f0f0f0f5w181a0c    ",
"      07++XX0a||||||||||||||114s55||5xXX1a0c    ",
"      0h++XX0a0b0b0b0b0b3l414h4t565l5yXX6e0c    ",
"      0h++0d1w090909090909424i4u575m5z656f6o    ",
"      0p++XXXXXXXXXXXXXXXXXXXXXXXXXXXXXX..0p    ",
"      0i..................................0g    ",
"      0i0i1l060606060606060606060606600g0g0g    "};