/* XPM */
static char * xpm_thumbs_down[] = {
"24 24 258 2",
"  	c None",
"XX	c #faa88e",
"++	c #faa38a",
"..	c #faa78d",
"||	c #f6442a",
"//	c #f3121c",
"06	c #f6492c",
"07	c #f74027",
"08	c #f6472c",
"09	c #fbb094",
"0a	c #f64027",
"0b	c #f63d26",
"0c	c #faab91",
"0d	c #e71f19",
"0e	c #d30b11",
"0f	c #faa48b",
"0g	c #f53823",
"0h	c #fbbc9f",
"0i	c #fbc2a3",
"0j	c #f84127",
"0k	c #e80611",
"0l	c #ef121b",
"0m	c #fbb497",
"0n	c #f63a3e",
"0o	c #fbb599",
"0p	c #faa087",
"0q	c #f94428",
"0r	c #d70911",
"0s	c #fbad92",
"0t	c #d90d12",
"0u	c #d30a11",
"0v	c #faa38b",
"0w	c #f87758",
"0x	c #faa58c",
"0y	c #f7694b",
"0z	c #f53321",
"10	c #bc090d",
"11	c #b3080b",
"12	c #f23120",
"13	c #d6060d",
"14	c #f76c64",
"15	c #f00a15",
"16	c #fbb597",
"17	c #d7060e",
"18	c #f10d12",
"19	c #f1131a",
"1a	c #f1131c",
"1b	c #ed111a",
"1c	c #ea111a",
"1d	c #e81019",
"1e	c #e7121b",
"1f	c #e20e18",
"1g	c #de0911",
"1h	c #dd0a11",
"1i	c #d90d13",
"1j	c #f73f41",
"1k	c #fbc2a2",
"1l	c #fbb598",
"1m	c #fbad91",
"1n	c #faac90",
"1o	c #faae94",
"1p	c #f95838",
"1q	c #f8482b",
"1r	c #fb482a",
"1s	c #d80a12",
"1t	c #f9a087",
"1u	c #f99880",
"1v	c #f63f24",
"1w	c #f9a28a",
"1x	c #f8795b",
"1y	c #f64228",
"1z	c #f63e40",
"20	c #fbbfa0",
"21	c #fbb296",
"22	c #fbb195",
"23	c #fbaa8e",
"24	c #faae93",
"25	c #f86544",
"26	c #f7492c",
"27	c #f7482b",
"28	c #fa482a",
"29	c #d80a11",
"2a	c #f41f25",
"2b	c #f43c3f",
"2c	c #f4393c",
"2d	c #f1373a",
"2e	c #f03337",
"2f	c #ef3234",
"2g	c #ed3036",
"2h	c #e91315",
"2i	c #e71417",
"2j	c #e51518",
"2k	c #e31718",
"2l	c #ee0209",
"2m	c #ee0a13",
"2n	c #f02f34",
"2o	c #f15252",
"2p	c #f2615a",
"2q	c #ed211b",
"2r	c #ea211c",
"2s	c #e21116",
"2t	c #db0911",
"2u	c #f20b12",
"2v	c #f21922",
"2w	c #f88076",
"2x	c #faac91",
"2y	c #fbae92",
"2z	c #fbaa8f",
"30	c #fa9476",
"31	c #f74a2b",
"32	c #f74a2d",
"33	c #f8492c",
"34	c #f63b27",
"35	c #e11515",
"36	c #d60a12",
"37	c #f41e28",
"38	c #faaf98",
"39	c #faae91",
"3a	c #f87d5c",
"3b	c #f6482b",
"3c	c #f64127",
"3d	c #f94328",
"3e	c #e31817",
"3f	c #f2060d",
"3g	c #fa9889",
"3h	c #fab194",
"3i	c #f87557",
"3j	c #f63e27",
"3k	c #f83c25",
"3l	c #e11718",
"3m	c #cf0a10",
"3n	c #f30b14",
"3o	c #faac95",
"3p	c #faac92",
"3q	c #f53923",
"3r	c #f83622",
"3s	c #e81e19",
"3t	c #c90a0f",
"3u	c #ca0b0f",
"3v	c #f3131c",
"3w	c #fbbda0",
"3x	c #f73122",
"3y	c #f1241d",
"3z	c #d51012",
"40	c #c2080e",
"41	c #b8090c",
"42	c #b0070a",
"43	c #f52f21",
"44	c #f52a1f",
"45	c #f7281e",
"46	c #f31f1b",
"47	c #ed1919",
"48	c #ec1617",
"49	c #ec1416",
"4a	c #e30e13",
"4b	c #aa0609",
"4c	c #f63522",
"4d	c #f83222",
"4e	c #f62b20",
"4f	c #f5271e",
"4g	c #f5211d",
"4h	c #f51e1b",
"4i	c #f51b1b",
"4j	c #f7181a",
"4k	c #f81217",
"4l	c #a80609",
"4m	c #f87657",
"4n	c #f6472b",
"4o	c #f54127",
"4p	c #f63f26",
"4q	c #f73b24",
"4r	c #e51c18",
"4s	c #da1114",
"4t	c #db1414",
"4u	c #e81c18",
"4v	c #f9241f",
"4w	c #f71e1c",
"4x	c #fa1c1b",
"4y	c #ea1316",
"4z	c #ba090c",
"50	c #ab0609",
"51	c #fbbd9f",
"52	c #faaf94",
"53	c #fbaf93",
"54	c #fbac91",
"55	c #f87757",
"56	c #f44128",
"57	c #f74026",
"58	c #f73e27",
"59	c #f22f21",
"5a	c #d20910",
"5b	c #c70b0f",
"5c	c #c60a0f",
"5d	c #d10f10",
"5e	c #b1080b",
"5f	c #fbc0a2",
"5g	c #f88275",
"5h	c #f3393e",
"5i	c #fbb093",
"5j	c #ea101f",
"5k	c #f78671",
"5l	c #f7492a",
"5m	c #f23424",
"5n	c #d3040b",
"5o	c #ec261d",
"5p	c #f76a62",
"5q	c #f00712",
"5r	c #e80612",
"5s	c #f88c78",
"5t	c #f64929",
"5u	c #f23525",
"5v	c #f8a08e",
"5w	c #f64627",
"5x	c #f33526",
"5y	c #f89d8c",
"5z	c #f85e3c",
"60	c #f23423",
"61	c #d7060d",
"62	c #f3141d",
"63	c #fbc9a8",
"64	c #f77168",
"65	c #f00b15",
"66	c #fbb697",
"67	c #f89c8a",
"68	c #f97555",
"69	c #f33222",
"6a	c #f84027",
"6b	c #f40d13",
"6c	c #f86f67",
"6d	c #f43b3e",
"6e	c #f0121b",
"6f	c #fab89b",
"6g	c #fbb59a",
"6h	c #e90a14",
"6i	c #f89989",
"6j	c #fa957a",
"6k	c #f3311f",
"6l	c #f84128",
"6m	c #e81f19",
"6n	c #d40b11",
"6o	c #f10a11",
"6p	c #ee0b10",
"6q	c #f32f35",
"6r	c #f02e34",
"6s	c #e8050b",
"6t	c #f05152",
"6u	c #fcb89a",
"6v	c #eb231f",
"6w	c #da090f",
"6x	c #f84028",
"6y	c #e21717",
"6z	c #d40c11",
"70	c #e6070e",
"71	c #e7151d",
"72	c #e20f15",
"73	c #dc0c12",
"74	c #d80b12",
"75	c #d70c12",
"                  3f3n3v////////////////626b18  ",
"191j0n0n1z2a  2u373g3o3w0h0h0h515f0i0i0i636c6o  ",
"1a1k0o0o202b  2v383h3p0c0c0c0c525g5p1414646d18  ",
"0l1lXXXX212c2l2w39XXXXXXXXXXXX535h5q1515656e6p  ",
"0l0m....222d2m2xXX............XX5i0m1616666f6q  ",
"1b09++++0s2e2n2y++++++++++++++0f0s090909096g6r  ",
"1c1m0p0p232f2o2z++0v0f0x0x0f0v545j5r0k0k0k6h6s  ",
"1d1n1t1w242g2p303a3i0w0y0y0w4m555k5s5v5y676i6t70",
"1e1o1u1x252h2q313b060606060606065l5t5w5z686j6u71",
"1f1p1v1y262i2r320808080808084n565m5u5x60696k6v72",
"1g1q||||272j2s33||||||||||||4o125n13136117176w  ",
"1h1r0q0q282k2t343c0a0a0a0a0a4p570707070707071273",
"1i1s0r0r290t0t353d3j0b0b0b0b0b58070j0j0j6a6l6x74",
"              363e3k3q0g0g0g4q595o0d0d0d0d6m6y75",
"                0u3l3r0z0z4c4r5a0u0e0e0e0e6n6z  ",
"                  3m3s3x434d4s                  ",
"                    3t3y444e4t                  ",
"                    3u3z454f4u5b                ",
"                      40464g4v5c                ",
"                      10474h4w5d                ",
"                      41484i4x10                ",
"                      11494j4y11                ",
"                      424a4k4z5e                ",
"                        4b4l50                  "};