/* XPM */
static char * xpm_thumbs_up[] = {
"24 24 252 2",
"  	c None",
"XX	c #41c318",
"++	c #17671f",
"..	c #62d736",
"||	c #5ed636",
"//	c #62d836",
"06	c #5dd636",
"07	c #65d835",
"08	c #c2fd97",
"09	c #42b52e",
"0a	c #c4ff97",
"0b	c #c3fe97",
"0c	c #c9ff9b",
"0d	c #299122",
"0e	c #19691f",
"0f	c #64e037",
"0g	c #c1fb97",
"0h	c #5bd336",
"0i	c #c2fe9e",
"0j	c #69e137",
"0k	c #176a1f",
"0l	c #97e47b",
"0m	c #0e7310",
"0n	c #63e037",
"0o	c #3b9b36",
"0p	c #ceffa0",
"0q	c #5fdb37",
"0r	c #268624",
"0s	c #5fd62d",
"0t	c #cbff9e",
"0u	c #196a1f",
"0v	c #1c6e21",
"0w	c #c4ffa1",
"0x	c #5ed62c",
"0y	c #60dc37",
"0z	c #c2fb97",
"10	c #5fd62c",
"11	c #c2fb99",
"12	c #5fd72e",
"13	c #cdff99",
"14	c #c9ff97",
"15	c #17641d",
"16	c #309129",
"17	c #379637",
"18	c #329033",
"19	c #318d32",
"1a	c #318a33",
"1b	c #27802b",
"1c	c #1a7121",
"1d	c #1a6e21",
"1e	c #1a6c21",
"1f	c #1c6d1f",
"1g	c #3d9f3a",
"1h	c #daffa8",
"1i	c #cdffa0",
"1j	c #c9ffa0",
"1k	c #ceffa9",
"1l	c #80eb4b",
"1m	c #65e136",
"1n	c #68e137",
"1o	c #65e43a",
"1p	c #278826",
"1q	c #bdfb97",
"1r	c #c6fea4",
"1s	c #5dd529",
"1t	c #60d836",
"1u	c #befd9a",
"1v	c #abf581",
"1w	c #3c9c38",
"1x	c #d6ffa5",
"1y	c #c9ffa1",
"1z	c #9af368",
"20	c #67dd31",
"21	c #67e037",
"22	c #67df37",
"23	c #62dd37",
"24	c #60dd37",
"25	c #64e03a",
"26	c #278726",
"27	c #35952e",
"28	c #68be59",
"29	c #5ab550",
"2a	c #59b051",
"2b	c #379930",
"2c	c #2b8b24",
"2d	c #2b8b27",
"2e	c #2b8a26",
"2f	c #298b26",
"2g	c #288a24",
"2h	c #288a26",
"2i	c #1f741f",
"2j	c #23871f",
"2k	c #2c8d29",
"2l	c #56b050",
"2m	c #8cd77b",
"2n	c #50b53b",
"2o	c #3fab2b",
"2p	c #339b28",
"2q	c #248324",
"2r	c #1c6c1f",
"2s	c #2b9124",
"2t	c #7dcd71",
"2u	c #ccffa0",
"2v	c #c9ffa4",
"2w	c #60da2c",
"2x	c #69dc35",
"2y	c #65dd37",
"2z	c #68e037",
"30	c #5ad335",
"31	c #3aa82c",
"32	c #1c6d21",
"33	c #2b9423",
"34	c #9be285",
"35	c #cdff9f",
"36	c #c3fe99",
"37	c #63d736",
"38	c #5fd736",
"39	c #53cd33",
"3a	c #1c6d1e",
"3b	c #2c9923",
"3c	c #9be585",
"3d	c #cdff9c",
"3e	c #c7ffa1",
"3f	c #5dd736",
"3g	c #5fd837",
"3h	c #36a424",
"3i	c #44aa37",
"3j	c #baf899",
"3k	c #d0ff9b",
"3l	c #c6ff97",
"3m	c #b2f98a",
"3n	c #5dd536",
"3o	c #45c12b",
"3p	c #3fba27",
"3q	c #3cb226",
"3r	c #37ae24",
"3s	c #45b235",
"3t	c #83d869",
"3u	c #d0ff9f",
"3v	c #c2fb9a",
"3w	c #abf680",
"3x	c #54cb37",
"3y	c #d3ff9e",
"3z	c #dbff9e",
"40	c #d6ff9e",
"41	c #d2ff9f",
"42	c #d5ff9e",
"43	c #d7ff99",
"44	c #c8ff97",
"45	c #bffe99",
"46	c #5acd3c",
"47	c #e6ffa0",
"48	c #dcff95",
"49	c #d8ff95",
"4a	c #d5ff95",
"4b	c #d2ff95",
"4c	c #d3ff96",
"4d	c #d2ff9b",
"4e	c #d1ff9c",
"4f	c #ccff9a",
"4g	c #c6ffa1",
"4h	c #49c42c",
"4i	c #80e060",
"4j	c #daffa0",
"4k	c #e2ff9c",
"4l	c #dcff9b",
"4m	c #ddff9c",
"4n	c #c1fa97",
"4o	c #82d769",
"4p	c #6ac758",
"4q	c #9fe681",
"4r	c #4ac22e",
"4s	c #45bd2c",
"4t	c #68cd4f",
"4u	c #80da5e",
"4v	c #60c44c",
"4w	c #36a527",
"4x	c #339f24",
"4y	c #3ca136",
"4z	c #c7ff9c",
"50	c #c6ff99",
"51	c #c1fe9b",
"52	c #c2fea1",
"53	c #6ddf3a",
"54	c #67da33",
"55	c #65e037",
"56	c #63d836",
"57	c #5ed736",
"58	c #5ed737",
"59	c #268f1e",
"5a	c #b7f697",
"5b	c #c7ff99",
"5c	c #befa9b",
"5d	c #18801d",
"5e	c #c1faa5",
"5f	c #79e546",
"5g	c #53c430",
"5h	c #12631f",
"5i	c #68df37",
"5j	c #62dc37",
"5k	c #228022",
"5l	c #96e279",
"5m	c #c8ff9b",
"5n	c #0d730f",
"5o	c #c2fba5",
"5p	c #8fee5d",
"5q	c #53c72d",
"5r	c #15631d",
"5s	c #c2fba3",
"5t	c #a0f474",
"5u	c #51c62c",
"5v	c #befba1",
"5w	c #bcfe94",
"5x	c #4fc429",
"5y	c #befb9f",
"5z	c #c6ffa3",
"60	c #59cb33",
"61	c #156a1f",
"62	c #17651d",
"63	c #18681f",
"64	c #9ae47c",
"65	c #c3fe9f",
"66	c #0f7410",
"67	c #bffba1",
"68	c #c6ffa0",
"69	c #6ed04e",
"6a	c #156c1d",
"6b	c #67e038",
"6c	c #64df38",
"6d	c #268324",
"6e	c #329b29",
"6f	c #1a6d1f",
"6g	c #2c9423",
"6h	c #8adb77",
"6i	c #d5ffa5",
"6j	c #b2f39a",
"6k	c #157815",
"6l	c #a1e78f",
"6m	c #cdffa8",
"6n	c #76c76a",
"6o	c #1a731e",
"6p	c #238123",
"6q	c #227c23",
"6r	c #1e711f",
"6s	c #1c6e1f",
"6t	c #1d6f21",
"6u	c #278d1f",
"6v	c #3d9e38",
"6w	c #268722",
"6x	c #238222",
"6y	c #338d37",
"6z	c #1a741d",
"                        3x464h                  ",
"                      3o3y474i4r                ",
"                      3p3z484j4s                ",
"                      3q40494k4t                ",
"                      3r414a4l4u                ",
"                      3s424b4m4v                ",
"                    3h3t434c4n4w                ",
"                    3i3u134d4o4x                ",
"                  3b3j13144e4p                  ",
"                333c3k14444f4q4y590d0d0d0d0d6g  ",
"              2s343d3l0a0a0a0c4z5a5l0l0l0l646h6u",
"161g0o0o1w272j2t350a0b0b0b0b0b0a5b5m0c0c0c0c6i6v",
"171h0p0p1x282k2u36080808080808505c0i0i0i0i656j6w",
"181i0g0g0t292l0t0g0z113v110g0z515d5n0m0m0m666k  ",
"191j1q1u1y2a2m2v0w3e3m3w454g0w525e5o5s5v5y676l6x",
"1a1k1r1v1z2b2n2w0x1012120s100x535f5p5t5w5z686m6y",
"1b1l1s0s202c2o2x07070707070707545g5q5u5x60696n6z",
"1c1m1t//212d2p2y//////////////555h0k0k0k616a6o  ",
"1d1n....222e2q2z37............565i0j0j0j0j6b6p  ",
"1e0f||||232f0u3038||||||||||||575j0n0f0f0f6c6q  ",
"0e0n0606242g2r310y3f06060606060y5k5r1515620e6r  ",
"0e1o0q0q252h  32393g3n0h0h0h0h5809090909096d0v  ",
"1f1p0r0r262i  0v3a09XXXXXXXXXXXXXXXXXXXXXX6e6s  ",
"                  0u0e++++++++++++++++++636f6t  "};