/* XPM */
static char * xpm_trackback[] = {
"24 24 143 2",
"  	c None",
"XX	c #29a1e0",
"++	c #239bde",
"..	c #1e97dd",
"||	c #1660b3",
"//	c #78d1f2",
"06	c #4ca9de",
"07	c #7cd3f3",
"08	c #2163b4",
"09	c #80d6f4",
"0a	c #72cdf1",
"0b	c #6cc9ef",
"0c	c #67c6ee",
"0d	c #60c2ed",
"0e	c #59bfeb",
"0f	c #52bbea",
"0g	c #4cb7e9",
"0h	c #47b3e8",
"0i	c #3faee6",
"0j	c #38a9e4",
"0k	c #31a5e2",
"0l	c #86d9f5",
"0m	c #44aee6",
"0n	c #348fd5",
"0o	c #328bd2",
"0p	c #2f85cf",
"0q	c #2d80cb",
"0r	c #2b7bc7",
"0s	c #2876c4",
"0t	c #2672c0",
"0u	c #256dbc",
"0v	c #2369b8",
"0w	c #2165b4",
"0x	c #429fdd",
"0y	c #40a8e3",
"0z	c #1954a7",
"10	c #1650a2",
"11	c #165caf",
"12	c #4db4e7",
"13	c #6dcbef",
"14	c #69c7ed",
"15	c #47b3e9",
"16	c #52b3e6",
"17	c #56b4e6",
"18	c #55b0e3",
"19	c #51ace1",
"1a	c #4ea7de",
"1b	c #4aa2dd",
"1c	c #489eda",
"1d	c #449ad7",
"1e	c #4295d4",
"1f	c #3e91d1",
"1g	c #3c8ccf",
"1h	c #3888cc",
"1i	c #3683c9",
"1j	c #3380c6",
"1k	c #307cc4",
"1l	c #2c78c1",
"1m	c #256cb8",
"1n	c #8ed5f1",
"1o	c #abe2f7",
"1p	c #8fdaf4",
"1q	c #89d8f4",
"1r	c #85d5f3",
"1s	c #80d2f2",
"1t	c #7bcff1",
"1u	c #76cdef",
"1v	c #70c9ef",
"1w	c #69c6ed",
"1x	c #63c2ec",
"1y	c #5cbfeb",
"1z	c #56bbe9",
"20	c #50b7e8",
"21	c #48b3e6",
"22	c #40afe5",
"23	c #37abe3",
"24	c #31a7e2",
"25	c #1e80cc",
"26	c #5bbcea",
"27	c #ace4f7",
"28	c #4cb3e8",
"29	c #8fdbf5",
"2a	c #6fcbef",
"2b	c #66c4ec",
"2c	c #60c0eb",
"2d	c #5cbbe9",
"2e	c #56b7e8",
"2f	c #51b3e6",
"2g	c #4cafe4",
"2h	c #47abe2",
"2i	c #42a7e1",
"2j	c #3da2df",
"2k	c #379ddd",
"2l	c #3298db",
"2m	c #3dace4",
"2n	c #3ea2e1",
"2o	c #3b9fde",
"2p	c #399adb",
"2q	c #3795d8",
"2r	c #3d9bdb",
"2s	c #409bda",
"2t	c #3b9edd",
"2u	c #4dabe2",
"2v	c #a5ddf4",
"2w	c #48a4dd",
"2x	c #3da2e0",
"2y	c #50afe4",
"2z	c #a8dff5",
"30	c #82d4f3",
"31	c #6ac2eb",
"32	c #ace2f6",
"33	c #7fd4f3",
"34	c #48a5df",
"35	c #51b0e2",
"36	c #76c9ed",
"37	c #b0e4f7",
"38	c #85d7f4",
"39	c #88d5f3",
"3a	c #8bd4f2",
"3b	c #86d2f1",
"3c	c #80d0f0",
"3d	c #7bcdef",
"3e	c #75c9ed",
"3f	c #6fc7ed",
"3g	c #67c4eb",
"3h	c #62c0ea",
"3i	c #59bce9",
"3j	c #49b4e6",
"3k	c #91d8f3",
"3l	c #a9e3f7",
"3m	c #5fc0eb",
"3n	c #85d8f4",
"3o	c #82d6f4",
"3p	c #1b79c7",
"3q	c #4aafe6",
"3r	c #45a4de",
"3s	c #2060b2",
"3t	c #1d5cae",
"3u	c #1b58a9",
"3v	c #42a7e2",
"3w	c #3d9edd",
"3x	c #3b98da",
"3y	c #3b98d9",
"                                                ",
"                                1515            ",
"  0m2628                      0m3k3m0m          ",
"0y1n272912                  0y363l3n12          ",
"161o0l0l2a2n              2x31370l0l3o3q        ",
"171p0909132o            2t2y3238090909073v      ",
"181q0707142p            2u2z330707070707133w    ",
"191r////2b2q          2r2v30//////////////143x  ",
"1a1s0a0a2c0n        0n2s2w0x34390a0a0a3r0x0x3y0n",
"1b1t0b0b2d0o                0o3a0b0b0b0o        ",
"1c1u0c0c2e0p                0p3b0c0c0c0p        ",
"1d1v0d0d2f0q                0q3c0d0d0d0q        ",
"1e1w0e0e2g0r                0r3d0e0e0e0r        ",
"1f1x0f0f2h0s                0s3e0f0f0f0s        ",
"1g1y0g0g2i0t                0t3f0g0g0g0t        ",
"1h1z0h0h2j0u                0u3g0h0h0h0u        ",
"1i200i0i2k0v                0v3h0i0i0i0v        ",
"1j210j0j2l0w08080808080808080w3i0j0j0j0w        ",
"1k220k0k2m060606060606060606353j0k0k0k3s        ",
"1l23XXXXXXXXXXXXXXXXXXXXXXXXXXXXXXXXXX3t        ",
"1m24++++++++++++++++++++++++++++++++++3u        ",
"0z25................................3p0z        ",
"  1011||||||||||||||||||||||||||||1110          ",
"                                                "};