/* XPM */
static char * xpm_tune[] = {
"24 24 297 2",
"  	c None",
"XX	c #65c0ea",
"++	c #97dbf5",
"..	c #195dad",
"||	c #1b95db",
"//	c #1e94d8",
"06	c #7ccef1",
"07	c #74caef",
"08	c #6cc4ed",
"09	c #44ace3",
"0a	c #0b62b5",
"0b	c #7bcef1",
"0c	c #1d94d8",
"0d	c #3ea8e1",
"0e	c #36a4df",
"0f	c #2fa0dd",
"0g	c #299cdc",
"0h	c #259ada",
"0i	c #2096d9",
"0j	c #63c0ea",
"0k	c #5bbbe8",
"0l	c #4fb4e6",
"0m	c #1d93d8",
"0n	c #ffffff",
"0o	c #6b8e9f",
"0p	c #47b0e5",
"0q	c #fffffe",
"0r	c #1267b8",
"0s	c #8bd3f1",
"0t	c #6f90a1",
"0u	c #40aae2",
"0v	c #32a1dd",
"0w	c #2a9ddb",
"0x	c #2599db",
"0y	c #2197d8",
"0z	c #34a5e1",
"10	c #249bdb",
"11	c #1f96d9",
"12	c #53b6e7",
"13	c #4cb1e5",
"14	c #3ca9e3",
"15	c #1f73aa",
"16	c #316e96",
"17	c #7ccff1",
"18	c #76ccf0",
"19	c #fffdf7",
"1a	c #1066b7",
"1b	c #c5d0d7",
"1c	c #72c9ef",
"1d	c #1f96da",
"1e	c #3ea9e3",
"1f	c #f6f5f4",
"1g	c #58b7e6",
"1h	c #5cb4e5",
"1i	c #57afe2",
"1j	c #54aadf",
"1k	c #51a6dc",
"1l	c #4da1d9",
"1m	c #489bd7",
"1n	c #4598d2",
"1o	c #4291cf",
"1p	c #3f8ccb",
"1q	c #3b88c8",
"1r	c #3883c6",
"1s	c #367fc2",
"1t	c #337bbf",
"1u	c #2f77bd",
"1v	c #2c73b9",
"1w	c #2569b2",
"1x	c #b8e6f8",
"1y	c #8bd6f3",
"1z	c #86d2f1",
"20	c #7ecef1",
"21	c #75ccef",
"22	c #6dc7ee",
"23	c #66c2ec",
"24	c #5dbce9",
"25	c #56b8e6",
"26	c #48b1e4",
"27	c #3fade2",
"28	c #39aae1",
"29	c #34a7e0",
"2a	c #2fa3de",
"2b	c #2aa2dd",
"2c	c #29a6e1",
"2d	c #185ba9",
"2e	c #96dbf5",
"2f	c #73cbf1",
"2g	c #5b9cc4",
"2h	c #579bc4",
"2i	c #4890bc",
"2j	c #428fbe",
"2k	c #4bb2e7",
"2l	c #43abe3",
"2m	c #3da7e1",
"2n	c #35a3df",
"2o	c #2e9fdd",
"2p	c #289bdc",
"2q	c #2499d9",
"2r	c #1f95d9",
"2s	c #1a94db",
"2t	c #185dad",
"2u	c #7dcff1",
"2v	c #78d1f5",
"2w	c #6c98b5",
"2x	c #e8eaea",
"2y	c #4eb7ec",
"2z	c #40ace3",
"30	c #38a7e1",
"31	c #30a3df",
"32	c #2a9fde",
"33	c #259ddc",
"34	c #2098da",
"35	c #80d3f3",
"36	c #0560b6",
"37	c #5a86a8",
"38	c #dfe5e8",
"39	c #5f8093",
"3a	c #0d66ba",
"3b	c #1368b8",
"3c	c #1468b8",
"3d	c #1569b8",
"3e	c #166ab8",
"3f	c #176ab8",
"3g	c #1869b8",
"3h	c #1d96d9",
"3i	c #7bcff1",
"3j	c #9adef8",
"3k	c #6088a8",
"3l	c #dfe4e8",
"3m	c #8ed8f7",
"3n	c #86d0ef",
"3o	c #78cdf6",
"3p	c #7acef6",
"3q	c #62c3f1",
"3r	c #64c4f2",
"3s	c #4fb5e6",
"3t	c #228ed3",
"3u	c #1a95db",
"3v	c #72cdf3",
"3w	c #6188a7",
"3x	c #e8e9ea",
"3y	c #46b2e9",
"3z	c #3aa5e0",
"40	c #73ccf2",
"41	c #7299b5",
"42	c #579cc5",
"43	c #4992bf",
"44	c #4cb4ea",
"45	c #6bc6f0",
"46	c #63c2ec",
"47	c #5bbeeb",
"48	c #4ab3e9",
"49	c #4cb2e6",
"4a	c #2da2e1",
"4b	c #279ee0",
"4c	c #5b93b9",
"4d	c #278ac9",
"4e	c #1f97da",
"4f	c #71c9f0",
"4g	c #68c5ed",
"4h	c #5fc0eb",
"4i	c #57bbea",
"4j	c #4fb5e7",
"4k	c #40aee6",
"4l	c #1e73aa",
"4m	c #cdd5da",
"4n	c #2576ab",
"4o	c #1f99dd",
"4p	c #7dd0f1",
"4q	c #52acde",
"4r	c #0f66b7",
"4s	c #1167b8",
"4t	c #1269b9",
"4u	c #135cad",
"4v	c #fcf7f2",
"4w	c #2377ad",
"4x	c #186aba",
"4y	c #1e95d9",
"4z	c #96d8f2",
"50	c #98daf6",
"51	c #94daf4",
"52	c #95d9f3",
"53	c #92d7f3",
"54	c #8ed5f3",
"55	c #86d1f1",
"56	c #f9f4f0",
"57	c #2174ab",
"58	c #50b8e9",
"59	c #1c93d7",
"5a	c #69c3ec",
"5b	c #60bee9",
"5c	c #57b9e7",
"5d	c #48afe4",
"5e	c #3aa8e3",
"5f	c #1a6ea7",
"5g	c #fffdf5",
"5h	c #ced5d9",
"5i	c #2475aa",
"5j	c #1d93d7",
"5k	c #5c93b8",
"5l	c #288ac8",
"5m	c #5cbde9",
"5n	c #53b9eb",
"5o	c #4cb4e9",
"5p	c #44ade5",
"5q	c #2ea2e0",
"5r	c #289edf",
"5s	c #66bce4",
"5t	c #449dd2",
"5u	c #4c7fa2",
"5v	c #397196",
"5w	c #3e92c9",
"5x	c #77cdf0",
"5y	c #70c9f1",
"5z	c #6ac1e8",
"60	c #2d8ac5",
"61	c #f0f0f0",
"62	c #3d7498",
"63	c #40afe8",
"64	c #38a8e2",
"65	c #30a4e0",
"66	c #2aa0df",
"67	c #269edd",
"68	c #2099db",
"69	c #7ed0f2",
"6a	c #4198d4",
"6b	c #e7ebed",
"6c	c #1a558c",
"6d	c #1659ab",
"6e	c #1558a8",
"6f	c #1558a7",
"6g	c #1556a7",
"6h	c #1456a7",
"6i	c #1554a5",
"6j	c #1e96da",
"6k	c #96d9f3",
"6l	c #97dbf6",
"6m	c #91dcf7",
"6n	c #aab3ba",
"6o	c #e6eaeb",
"6p	c #4382ac",
"6q	c #92d9f5",
"6r	c #83d2f7",
"6s	c #84d3f7",
"6t	c #6dc9f3",
"6u	c #6dc9f4",
"6v	c #58bae9",
"6w	c #1c93d8",
"6x	c #69c3ed",
"6y	c #66b9e1",
"6z	c #2c89c5",
"70	c #fffdf8",
"71	c #edeff0",
"72	c #3a7196",
"73	c #3aa9e4",
"74	c #65c1ea",
"75	c #69b9e1",
"76	c #439ed4",
"77	c #668698",
"78	c #678899",
"79	c #3c92c9",
"7a	c #5ebde9",
"7b	c #9cddf6",
"7c	c #7fd0f2",
"7d	c #6ec6ee",
"7e	c #65c3ec",
"7f	c #60b6df",
"7g	c #53aada",
"7h	c #48a1d5",
"7i	c #45b0e7",
"7j	c #3faae3",
"7k	c #36a6e0",
"7l	c #2fa2df",
"7m	c #299ede",
"7n	c #259cdc",
"7o	c #2098db",
"7p	c #1e97da",
"7q	c #1b98dd",
"7r	c #195caa",
"7s	c #4fb2e5",
"7t	c #4fafe3",
"7u	c #4aa9e0",
"7v	c #46a4dd",
"7w	c #449dda",
"7x	c #3f99d7",
"7y	c #3a94d5",
"7z	c #388ed0",
"80	c #3489cd",
"81	c #3082c8",
"82	c #2d7dc5",
"83	c #2978c1",
"84	c #2874be",
"85	c #2570bc",
"86	c #226cb8",
"87	c #1f68b3",
"88	c #1c60ae",
"                                                ",
"                                                ",
"    XXXXXXXXXXXXXXXXXXXXXXXXXXXXXXXXXXXXXX747a  ",
"1g1x2e++++++++++++++++++++++++++++++++++++++7b7s",
"1h1y0b2u353i06060606174p0b0606060617690b06067c7t",
"1i1z2f2v363j3v400707184q4z1c0707075x6a6k1c07187u",
"1j202g2w373k3w4145084f0a505a0808085y0a6l6x087d7v",
"1k212h0n0q0q0n42460j4g4r515b0j0j5s5z0a6m6y757e7w",
"1l222i2x383l3x43470k4h1a525c0k5m5t600a6n6z767f7x",
"1m232j0o390o0t0t48124i1a530l125n5u191f1f70777g7y",
"1n242k2y3a3m3y4449134j4s545d135o5v616b6o71787h7z",
"1o252l0p0r0s0u0909090p0r0s0u095p5w626c6p72797i80",
"1p0l2m2z3b3n3z0d0d144k4t555e140d1e636d6q731e7j81",
"1q262n303c3o0v0e0z4c4l4u0k5f5k0z0e646e6r0v0e7k82",
"1r272o313d3p0w0f4a15194v565g155q0f656f6s0w0f7l83",
"1s282p323e3q0x0g4b164m1b1b5h165r0g666g6t0x0g7m84",
"1t292q333f3r0y0h104d4n4w575i5l100h676h6u0y0h7n85",
"1u2a2r343g3s0c0i114e4o4x581d1d110i686i6v0c0i7o86",
"1v2b0m//3h3t0c////////4y595j////////6j6w0m//7p87",
"1w2c2s||||3u||||||||||||||||||||||||||||||||7q88",
"  2d2t......................................7r  ",
"                                                ",
"                                                ",
"                                                "};