/* XPM */
static char * xpm_twitter[] = {
"24 24 258 2",
"  	c None",
"XX	c #1c89cc",
"++	c #1086c9",
"..	c #268ecf",
"||	c #0583c8",
"//	c #67b7e9",
"06	c #63b2e7",
"07	c #9bd5f7",
"08	c #3093d2",
"09	c #6dbced",
"0a	c #5daee5",
"0b	c #57aae2",
"0c	c #4fa6e0",
"0d	c #48a1dc",
"0e	c #419cda",
"0f	c #3a98d6",
"0g	c #3094d2",
"0h	c #1089cb",
"0i	c #2a93d4",
"0j	c #1087ca",
"0k	c #93cbef",
"0l	c #96d1f4",
"0m	c #0584c9",
"0n	c #9ed7f8",
"0o	c #055fa7",
"0p	c #a0daf9",
"0q	c #0673ba",
"0r	c #0866ad",
"0s	c #a0dafa",
"0t	c #9fdafa",
"0u	c #439edc",
"0v	c #9fd8f8",
"0w	c #6fbeed",
"0x	c #ee8b00",
"0y	c #6da5d3",
"0z	c #3c86c4",
"10	c #1965a9",
"11	c #377cb7",
"12	c #9dcef0",
"13	c #379ada",
"14	c #267fc1",
"15	c #115ba0",
"16	c #6ca3d2",
"17	c #4fa3dc",
"18	c #2f95d4",
"19	c #258fd1",
"1a	c #105da2",
"1b	c #86b8de",
"1c	c #3596d5",
"1d	c #268fd0",
"1e	c #1b8bcd",
"1f	c #09589d",
"1g	c #5a95c8",
"1h	c #8bc6ed",
"1i	c #3597d7",
"1j	c #338dcb",
"1k	c #278fd0",
"1l	c #1c8acd",
"1m	c #1087cb",
"1n	c #6ab0e0",
"1o	c #a0ceef",
"1p	c #b7dbf6",
"1q	c #a5d1f1",
"1r	c #a1ceef",
"1s	c #9fcdec",
"1t	c #8ec4ea",
"1u	c #82bce6",
"1v	c #7eb7e3",
"1w	c #90c5eb",
"1x	c #8dc7ed",
"1y	c #3d9cda",
"1z	c #55a1d7",
"20	c #005298",
"21	c #2992d3",
"22	c #0565ac",
"23	c #a2d3f3",
"24	c #e1f7ff",
"25	c #b4e2fb",
"26	c #9dd6f8",
"27	c #95d1f5",
"28	c #94d0f4",
"29	c #90ccf3",
"2a	c #60b1e6",
"2b	c #58ace6",
"2c	c #55a9e3",
"2d	c #4aa5e2",
"2e	c #6eb8e7",
"2f	c #84bee5",
"2g	c #095da1",
"2h	c #004d95",
"2i	c #0582c8",
"2j	c #dcf5ff",
"2k	c #9dd9f8",
"2l	c #9cd6f8",
"2m	c #96d0f4",
"2n	c #7ac1ed",
"2o	c #66b4e8",
"2p	c #92c9eb",
"2q	c #57a2d2",
"2r	c #3b8cc4",
"2s	c #2d7db8",
"2t	c #0059a2",
"2u	c #035aa0",
"2v	c #015096",
"2w	c #248aca",
"2x	c #1d89cd",
"2y	c #0059a0",
"2z	c #449fde",
"30	c #e8fbff",
"31	c #acdffb",
"32	c #9fd9f9",
"33	c #95d0f4",
"34	c #63b4ea",
"35	c #acd9f4",
"36	c #0070bb",
"37	c #006fb8",
"38	c #0469b1",
"39	c #0664ac",
"3a	c #055ba1",
"3b	c #004e95",
"3c	c #0061aa",
"3d	c #e1b238",
"3e	c #b67e46",
"3f	c #7dc0eb",
"3g	c #d5f2ff",
"3h	c #9ed9f9",
"3i	c #97d2f4",
"3j	c #88c9f2",
"3k	c #63b5e9",
"3l	c #83c1e5",
"3m	c #0076be",
"3n	c #086cb3",
"3o	c #0660a7",
"3p	c #04599f",
"3q	c #0f64ab",
"3r	c #2892d2",
"3s	c #005fb5",
"3t	c #a76019",
"3u	c #87c5ee",
"3v	c #c2eaff",
"3w	c #a0d9fa",
"3x	c #9dd7f8",
"3y	c #99d2f5",
"3z	c #73beec",
"40	c #65b6e9",
"41	c #6ab4e0",
"42	c #0077be",
"43	c #086db3",
"44	c #01569c",
"45	c #2282c4",
"46	c #2790d0",
"47	c #005eb6",
"48	c #d89c00",
"49	c #a5601b",
"4a	c #a8d7f5",
"4b	c #b1e2fc",
"4c	c #a0dafb",
"4d	c #bee6fb",
"4e	c #6ba9d5",
"4f	c #8dc6ed",
"4g	c #96d2f6",
"4h	c #6abbed",
"4i	c #65b6e8",
"4j	c #0074be",
"4k	c #0471b9",
"4l	c #076cb2",
"4m	c #0764ac",
"4n	c #025ca3",
"4o	c #166fb4",
"4p	c #3497d6",
"4q	c #005eb4",
"4r	c #a7d6f5",
"4s	c #b2e2fc",
"4t	c #b0e2fd",
"4u	c #64b2de",
"4v	c #3d87bf",
"4w	c #518abd",
"4x	c #8bcef6",
"4y	c #6bbbed",
"4z	c #66b6e9",
"50	c #6eb8ea",
"51	c #2c92d1",
"52	c #147fc2",
"53	c #1679bc",
"54	c #1471b6",
"55	c #2b87c7",
"56	c #3f9cda",
"57	c #3194d2",
"58	c #0058a1",
"59	c #88c5ee",
"5a	c #b6e4fe",
"5b	c #a3dcfb",
"5c	c #88caed",
"5d	c #478ec3",
"5e	c #7bb5df",
"5f	c #7ac6f3",
"5g	c #6cbced",
"5h	c #60b0e7",
"5i	c #5caee4",
"5j	c #54aae3",
"5k	c #4ca5de",
"5l	c #3b99d6",
"5m	c #0581c8",
"5n	c #7fc1eb",
"5o	c #c3eaff",
"5p	c #a2dcfa",
"5q	c #a3dbfb",
"5r	c #a2dafa",
"5s	c #6ebded",
"5t	c #0569ae",
"5u	c #459fde",
"5v	c #dcf7ff",
"5w	c #9edafa",
"5x	c #94d1f6",
"5y	c #1d8bce",
"5z	c #0d7fc3",
"60	c #055097",
"61	c #95ccef",
"62	c #b2e5ff",
"63	c #8accf4",
"64	c #2791d1",
"65	c #1981c7",
"66	c #085297",
"67	c #b8b8b3",
"68	c #9be0ff",
"69	c #9fdcff",
"6a	c #88cefa",
"6b	c #6fc0f0",
"6c	c #6ebdef",
"6d	c #68b8ea",
"6e	c #64b3e8",
"6f	c #5eafe6",
"6g	c #58abe3",
"6h	c #50a7e1",
"6i	c #49a3dd",
"6j	c #3c9cd9",
"6k	c #3194d3",
"6l	c #1b75b8",
"6m	c #0c579d",
"6n	c #e8be05",
"6o	c #9d948d",
"6p	c #9fc2bc",
"6q	c #6badd9",
"6r	c #5fafe7",
"6s	c #5aaae1",
"6t	c #56a6de",
"6u	c #50a2db",
"6v	c #4b9dd8",
"6w	c #459bd4",
"6x	c #3d91ce",
"6y	c #2d7fbf",
"6z	c #2474b6",
"70	c #c99a0b",
"71	c #ab6618",
"72	c #9a702d",
"73	c #d6ac3c",
"74	c #cb9507",
"75	c #ca9706",
"                    2z3f3u4a4r595n5u            ",
"                  0k303g3v4b4s5a5o5v61          ",
"                232j313h0s4c4t5b0s5w62670x7073  ",
"              1n242k320p0t4d4u5c5p0p0t686n71    ",
"              1o252l0n0n3w4e4v5d5q0v0v696o      ",
"              1p260707073x4f4w5e5r5x636a6p0x74  ",
"              1q270l0l3i3y4g4x5f5s0w0w6b6q7275  ",
"              1r282m333j3z4h4y5g0909096c6r      ",
"              1s292n343k404i4z////////6d6s      ",
"              1t2a2o353l410k50060606066e6t      ",
"              1u2b2p363m424j515h0a0a0a6f6u      ",
"              1v2c2q370q0q4k525i0b0b0b6g6v      ",
"              1w2d2r383n434l535j0c0c0c6h6w      ",
"    0y11    1g1x2e2s390r0r4m545k0d0d0d6i6x      ",
"    0z12161b1h1y2f2t0o3o0o4n550u0e0e0e0u6y      ",
"    1013171c1i1z2g2u3a3p444o565l0f0f0f6j6z      ",
"      14180g1j202h2v3b3q454p570808080g6k        ",
"      15191d1k210i2w0i3r46..........646l        ",
"        1a1e1lXXXX2xXXXXXXXXXXXXXX5y656m        ",
"          1f1m0h0j++++++++++++0j0h5z66          ",
"              222i0m||||||||0m5m5t60            ",
"                  2y3c3s474q58                  ",
"                    3d  48                      ",
"                    3e3t49                      "};