/* XPM */
static char * xpm_up-down[] = {
"24 24 207 2",
"  	c None",
"XX	c #0b7fd6",
"++	c #7dddf5",
"..	c #7fdef6",
"||	c #6ad3f2",
"//	c #0b7cd4",
"06	c #0b7ad3",
"07	c #0f62c3",
"08	c #1d7ed1",
"09	c #1356b7",
"0a	c #147ed3",
"0b	c #32a0dd",
"0c	c #1b67c5",
"0d	c #0f46ae",
"0e	c #1b91d8",
"0f	c #caf6fc",
"0g	c #79d1ed",
"0h	c #278ed7",
"0i	c #32ace5",
"0j	c #0e46ae",
"0k	c #1892d8",
"0l	c #d2f6fc",
"0m	c #d6fcfd",
"0n	c #36b0e3",
"0o	c #2082d3",
"0p	c #39bfed",
"0q	c #28a3e3",
"0r	c #0d3ba9",
"0s	c #1b96da",
"0t	c #cef5fc",
"0u	c #cef7fc",
"0v	c #7ce2f7",
"0w	c #2da9e1",
"0x	c #0a5bc4",
"0y	c #0a5ac2",
"0z	c #0a56bf",
"10	c #0950b9",
"11	c #0945b4",
"12	c #093cab",
"13	c #1679ce",
"14	c #2fb1e8",
"15	c #2aabe4",
"16	c #1d92dd",
"17	c #0b39a2",
"18	c #1d9cdd",
"19	c #d2f3fc",
"1a	c #ccf5fc",
"1b	c #75dbf4",
"1c	c #d3f5fd",
"1d	c #ebfefe",
"1e	c #e7fefe",
"1f	c #e4fdfd",
"1g	c #ddfdfd",
"1h	c #d7fdfd",
"1i	c #d3fafd",
"1j	c #9ee9f5",
"1k	c #26a3e2",
"1l	c #219ede",
"1m	c #1a9be0",
"1n	c #1281d7",
"1o	c #0a319b",
"1p	c #2daee4",
"1q	c #d1f2fc",
"1r	c #cff5fc",
"1s	c #7addf5",
"1t	c #74d7f4",
"1u	c #81dcf5",
"1v	c #7ddaf4",
"1w	c #73d8f2",
"1x	c #6ad0f0",
"1y	c #5fcdee",
"1z	c #54c6ec",
"20	c #48c1ea",
"21	c #3bb8e7",
"22	c #229dde",
"23	c #1c96dc",
"24	c #1491da",
"25	c #118bdc",
"26	c #0a75d1",
"27	c #09339d",
"28	c #3cb9e7",
"29	c #eefdfe",
"2a	c #bff2fb",
"2b	c #7edff6",
"2c	c #79dbf4",
"2d	c #6fd7f3",
"2e	c #67d0ef",
"2f	c #5ccbee",
"2g	c #4ec4eb",
"2h	c #46c0eb",
"2i	c #3bb7e7",
"2j	c #32b2e5",
"2k	c #2ca8e4",
"2l	c #25a1df",
"2m	c #1f99dd",
"2n	c #1890da",
"2o	c #1188d8",
"2p	c #0d81d8",
"2q	c #0b7fd8",
"2r	c #08389f",
"2s	c #22a8e4",
"2t	c #f6fefe",
"2u	c #b6ecfb",
"2v	c #82dff6",
"2w	c #7bdcf5",
"2x	c #73d9f4",
"2y	c #62cff0",
"2z	c #59c9ee",
"30	c #4dc3ea",
"31	c #46bdea",
"32	c #3bb4e7",
"33	c #31ade5",
"34	c #2aa6e0",
"35	c #239ddf",
"36	c #1b95db",
"37	c #138bd9",
"38	c #0f84d7",
"39	c #0b7bd3",
"3a	c #0b83da",
"3b	c #0b85dd",
"3c	c #072b90",
"3d	c #67ceed",
"3e	c #d8fafd",
"3f	c #83e2f7",
"3g	c #7cdef5",
"3h	c #79daf4",
"3i	c #6fd6f3",
"3j	c #66d0f0",
"3k	c #5fcbee",
"3l	c #54c4ec",
"3m	c #49bfeb",
"3n	c #3fb9e9",
"3o	c #36b1e6",
"3p	c #2eaae4",
"3q	c #28a1de",
"3r	c #1e9bdc",
"3s	c #1690da",
"3t	c #1085d7",
"3u	c #0c7ed4",
"3v	c #0b86db",
"3w	c #0946b2",
"3x	c #35afe5",
"3y	c #c8f3fc",
"3z	c #7dddf6",
"40	c #71d8f4",
"41	c #61cfef",
"42	c #59caee",
"43	c #4fc5ec",
"44	c #47bfeb",
"45	c #3bb9e8",
"46	c #33b1e7",
"47	c #2ba5e2",
"48	c #229ddf",
"49	c #1994dc",
"4a	c #1289d8",
"4b	c #0d83d6",
"4c	c #0b7ad2",
"4d	c #0b7ed7",
"4e	c #08379d",
"4f	c #31a9df",
"4g	c #caf4fc",
"4h	c #76dbf5",
"4i	c #63d1f0",
"4j	c #5eccef",
"4k	c #55caee",
"4l	c #4dc7ef",
"4m	c #43c3ee",
"4n	c #39baec",
"4o	c #30b4ea",
"4p	c #27aae4",
"4q	c #1d9ee1",
"4r	c #1593dc",
"4s	c #1087d8",
"4t	c #0b81d9",
"4u	c #0837a0",
"4v	c #30a3dd",
"4w	c #b6eefb",
"4x	c #67d4f1",
"4y	c #58cbef",
"4z	c #2694da",
"50	c #0d55bc",
"51	c #1152bc",
"52	c #0f51b8",
"53	c #114bb2",
"54	c #1043ac",
"55	c #0f3da6",
"56	c #0d84da",
"57	c #0c79d4",
"58	c #093ba4",
"59	c #1b84d5",
"5a	c #a6e7f6",
"5b	c #5bd1f1",
"5c	c #2596da",
"5d	c #0b85da",
"5e	c #0a72d0",
"5f	c #0b369c",
"5g	c #197dcf",
"5h	c #b1eff8",
"5i	c #37a5de",
"5j	c #0f61c5",
"5k	c #0b3ba0",
"5l	c #1871cd",
"5m	c #2b8fd6",
"5n	c #0e51b9",
"5o	c #0d40a6",
"5p	c #1665c3",
"5q	c #0f43a8",
"                      2s                        ",
"                    282t3d                      ",
"                  1p292u3e3x                    ",
"                181q2a2v3f3y4f                  ",
"              0s191r2b..3g3z4g4v                ",
"            0k0t1a..++2w3h404h4w59              ",
"          0e0l0u++1s2c2x3i||4i4x5a5g            ",
"        0a0f0m0v1b1t2d||3j414j4y5b5h5l          ",
"      080b0g0n0w1c1u2e2y3k424k4z5c5i5m5p        ",
"              0x1d1v2f2z3l434l50                ",
"              0y1e1w2g303m444m51                ",
"              0z1f1x2h313n454n52                ",
"              101g1y2i323o464o53                ",
"              111h1z2j333p474p54                ",
"              121i202k343q484q55                ",
"      090c0h0o131j212l353r494r07075j5n5q        ",
"        0d0i0p141k222m363s4a4s565d065o          ",
"          0j0q151l232n373t4b//XX5e5k            ",
"            0r161m242o383u4cXX575f              ",
"              171n252p3906XX4t58                ",
"                1o26XX//XX4d4u                  ",
"                  272q3a3v4e                    ",
"                    2r3b3w                      ",
"                      3c                        "};