/* XPM */
static char * xpm_up[] = {
"24 24 302 2",
"  	c None",
"XX	c #0b87eb",
"++	c #97def9",
"..	c #0c7ef1",
"||	c #c8e9fc",
"//	c #eff7ff",
"06	c #6ec9f7",
"07	c #68c7f6",
"08	c #45b5f2",
"09	c #249cee",
"0a	c #1c93ed",
"0b	c #5ec2f6",
"0c	c #0c84f0",
"0d	c #0c85ef",
"0e	c #0c85f1",
"0f	c #0f82e9",
"0g	c #0c73ef",
"0h	c #127fea",
"0i	c #54bcf1",
"0j	c #2999ee",
"0k	c #0c79f1",
"0l	c #016ce7",
"0m	c #90def9",
"0n	c #9de5fc",
"0o	c #178bec",
"0p	c #0c7af0",
"0q	c #0074e8",
"0r	c #eaf9ff",
"0s	c #79cff7",
"0t	c #1085eb",
"0u	c #0c78f1",
"0v	c #0379e9",
"0w	c #98e0fa",
"0x	c #f2f8ff",
"0y	c #dff3fe",
"0z	c #66c8f6",
"10	c #0c74e9",
"11	c #047dea",
"12	c #a2e3fa",
"13	c #eef7ff",
"14	c #d2ebfc",
"15	c #b5e5fc",
"16	c #6dcbf7",
"17	c #2098ee",
"18	c #1181ed",
"19	c #148dee",
"1a	c #1388ed",
"1b	c #1086ec",
"1c	c #1180eb",
"1d	c #0f7bea",
"1e	c #0f74e9",
"1f	c #0d70e7",
"1g	c #0c6fe7",
"1h	c #1676e7",
"1i	c #0c5ae0",
"1j	c #0c80f3",
"1k	c #b0e9fb",
"1l	c #eff8ff",
"1m	c #83d5f9",
"1n	c #74d0f8",
"1o	c #77cff9",
"1p	c #94dbfa",
"1q	c #88d7f8",
"1r	c #7ed4f8",
"1s	c #74cff6",
"1t	c #6bccf6",
"1u	c #5fc8f4",
"1v	c #56c0f4",
"1w	c #51bcf3",
"1x	c #4dbcf4",
"1y	c #29a5f1",
"1z	c #0347ce",
"20	c #0c83f4",
"21	c #0d8ced",
"22	c #bcebfd",
"23	c #86d5fa",
"24	c #79d0f9",
"25	c #71ccf8",
"26	c #6dcaf7",
"27	c #b4e3fa",
"28	c #d6ecfd",
"29	c #c4e9fa",
"2a	c #bfe5f9",
"2b	c #b6e2f9",
"2c	c #acdff8",
"2d	c #a2dbf7",
"2e	c #94d7f7",
"2f	c #90d8f5",
"2g	c #63c6f3",
"2h	c #20a2f2",
"2i	c #0346cf",
"2j	c #0c87f4",
"2k	c #1290ed",
"2l	c #c1edfd",
"2m	c #c6e9fc",
"2n	c #88d6fa",
"2o	c #80d0f9",
"2p	c #80d1f8",
"2q	c #75cef8",
"2r	c #66c7f6",
"2s	c #6ac5f6",
"2t	c #6ac7f6",
"2u	c #5dc2f3",
"2v	c #55bef4",
"2w	c #4ab9f2",
"2x	c #44b4f1",
"2y	c #3db0f1",
"2z	c #32abef",
"30	c #2fa5ef",
"31	c #1e9bee",
"32	c #1795f0",
"33	c #0348cf",
"34	c #0c8ef6",
"35	c #1d9bef",
"36	c #cbf1fe",
"37	c #ebf6ff",
"38	c #c4e9fc",
"39	c #89d7fa",
"3a	c #84d5f9",
"3b	c #7fd2f9",
"3c	c #78cef8",
"3d	c #62c6f6",
"3e	c #59c0f5",
"3f	c #4db9f4",
"3g	c #42b4f3",
"3h	c #40b1f2",
"3i	c #37abf2",
"3j	c #31a5f1",
"3k	c #2aa3ef",
"3l	c #239bef",
"3m	c #1e95ed",
"3n	c #1a94ed",
"3o	c #1993ed",
"3p	c #0243cf",
"3q	c #0c92f3",
"3r	c #36acf1",
"3s	c #daf5ff",
"3t	c #e8f3ff",
"3u	c #c1e7fc",
"3v	c #8cd7fb",
"3w	c #89d7f9",
"3x	c #84d4f9",
"3y	c #7cd1f8",
"3z	c #73ccf7",
"40	c #60c3f6",
"41	c #58bff4",
"42	c #51baf4",
"43	c #40b3f2",
"44	c #3aabf1",
"45	c #34a6f0",
"46	c #2ba2ef",
"47	c #1e94ed",
"48	c #1994ee",
"49	c #148dec",
"4a	c #023fc9",
"4b	c #0c8ff3",
"4c	c #57c8f5",
"4d	c #dff4ff",
"4e	c #d8eefd",
"4f	c #97dbfb",
"4g	c #89d8fa",
"4h	c #89d5f9",
"4i	c #7fd2f8",
"4j	c #77cef8",
"4k	c #63c6f6",
"4l	c #5bc1f5",
"4m	c #53bdf4",
"4n	c #4eb9f3",
"4o	c #42b6f2",
"4p	c #3daef1",
"4q	c #35a9f1",
"4r	c #2fa4ef",
"4s	c #29a1ef",
"4t	c #2198ed",
"4u	c #1791ed",
"4v	c #1289ea",
"4w	c #033dc5",
"4x	c #0c89f3",
"4y	c #3db4f1",
"4z	c #c2ebfe",
"50	c #a3e0fb",
"51	c #85d4f9",
"52	c #83d3f9",
"53	c #78cff8",
"54	c #6fccf7",
"55	c #55bff4",
"56	c #4ebaf3",
"57	c #46b5f2",
"58	c #3eb1f2",
"59	c #38abf1",
"5a	c #30a6f0",
"5b	c #2aa1ef",
"5c	c #1d95ed",
"5d	c #1890eb",
"5e	c #138ced",
"5f	c #0b7ee7",
"5g	c #003ec4",
"5h	c #30a7ef",
"5i	c #a5e3fc",
"5j	c #93dafb",
"5k	c #7acdf8",
"5l	c #73cdf7",
"5m	c #69c8f7",
"5n	c #62c3f6",
"5o	c #5ac0f5",
"5p	c #51bef4",
"5q	c #49b7f5",
"5r	c #43b7f4",
"5s	c #3ab0f2",
"5t	c #34aaf2",
"5u	c #2aa5f2",
"5v	c #279ff0",
"5w	c #219af0",
"5x	c #1894ee",
"5y	c #178eed",
"5z	c #0f8def",
"60	c #0978e4",
"61	c #003ac4",
"62	c #0c7def",
"63	c #2ca0ee",
"64	c #97ddfa",
"65	c #83d4fa",
"66	c #69c7f7",
"67	c #66c6f6",
"68	c #55bcf5",
"69	c #4fb7f3",
"6a	c #3eaff1",
"6b	c #34a8f1",
"6c	c #30a4ef",
"6d	c #279fef",
"6e	c #2299ed",
"6f	c #178deb",
"6g	c #1188ea",
"6h	c #0e87ec",
"6i	c #0672dd",
"6j	c #0037c4",
"6k	c #0c78ef",
"6l	c #2295ec",
"6m	c #82d7f9",
"6n	c #77d2f9",
"6o	c #5cc2f6",
"6p	c #5ac4f7",
"6q	c #49b2f0",
"6r	c #3893d9",
"6s	c #3790da",
"6t	c #3393d9",
"6u	c #2d93d3",
"6v	c #2791d8",
"6w	c #2285dd",
"6x	c #1c7dd6",
"6y	c #1478d6",
"6z	c #1274d3",
"70	c #0b6fd3",
"71	c #096ad3",
"72	c #006dda",
"73	c #0041c4",
"74	c #0c75ed",
"75	c #1b88e8",
"76	c #6ccef6",
"77	c #6ccaf9",
"78	c #52bef7",
"79	c #4cb8f2",
"7a	c #308ddb",
"7b	c #176ad3",
"7c	c #207fe5",
"7d	c #2078e7",
"7e	c #1d6fe2",
"7f	c #1b74dd",
"7g	c #1777e2",
"7h	c #1574e2",
"7i	c #116edf",
"7j	c #116ae0",
"7k	c #0c6ae0",
"7l	c #0c5fd8",
"7m	c #0c48d8",
"7n	c #0c6fec",
"7o	c #1783e6",
"7p	c #5dc4f5",
"7q	c #5ec7f8",
"7r	c #4cbaf3",
"7s	c #2c8de5",
"7t	c #0c70da",
"7u	c #0c6feb",
"7v	c #1177e6",
"7w	c #4bbcf4",
"7x	c #58c8f8",
"7y	c #2c91e7",
"7z	c #0f71de",
"80	c #0c6ee9",
"81	c #0c6ee3",
"82	c #46bef4",
"83	c #36aaed",
"84	c #1169e3",
"85	c #0c68e7",
"86	c #1170e5",
"87	c #2a9cea",
"88	c #177be7",
"89	c #0c6bea",
"8a	c #0459db",
"8b	c #106fe3",
"8c	c #0c6ce7",
"8d	c #0c6ae6",
"                      3q4b                      ",
"                    343r4c4x                    ",
"                  2j353s4d4y..                  ",
"                202k363t4e4z5h62                ",
"              1j212l373u4f505i636k              ",
"            ..XX22//383v4g515j646l74            ",
"          0u111k//2m393w4h525k656m757n          ",
"        0p0v121l||2n3a3x4i535l666n767o7u        ",
"      0k0q0w13||232o3b3y4j545m676o777p7v80      ",
"    0g0l++0x141m242p3c3z06075n0b6p787q7w8185    ",
"  0e0h0m0r0y151n252q06074k0b5o686q797r7x828689  ",
"0cXX0i0n0s0z161o262r3d404l555p696r7a7s7y83878a8c",
"0d0f0j0o0t10171p272s3e414m565q086s7b7t7z84888b8d",
"            18++282t3f424n575r6a6t7c            ",
"            191q292u3g084o585s6b6u7d            ",
"            1a1r2a2v3h434p595t6c6v7e            ",
"            1b1s2b2w3i444q5a5u6d6w7f            ",
"            1c1t2c2x3j454r5b5v6e6x7g            ",
"            1d1u2d2y3k464s095w0a6y7h            ",
"            1e1v2e2z3l094t5c5x6f6z7i            ",
"            1f1w2f303m470a5d5y6g707j            ",
"            1g1x2g313n484u5e5z6h717k            ",
"            1h1y2h323o494v5f606i727l            ",
"            1i1z2i333p4a4w5g616j737m            "};