/* XPM */
static char * xpm_update[] = {
"24 24 226 2",
"  	c None",
"XX	c #0e68c0",
"++	c #2aabed",
"..	c #fffff9",
"||	c #fffffb",
"//	c #3aa1de",
"06	c #3493d6",
"07	c #1d80cc",
"08	c #3688ce",
"09	c #2296e1",
"0a	c #0046a2",
"0b	c #00438e",
"0c	c #34b1f0",
"0d	c #38b5f1",
"0e	c #2ba8ea",
"0f	c #36ade9",
"0g	c #31adeb",
"0h	c #269ce3",
"0i	c #229be6",
"0j	c #c4e2ee",
"0k	c #25a1e7",
"0l	c #218edd",
"0m	c #2f9de1",
"0n	c #deecf2",
"0o	c #d4f0f6",
"0p	c #1f94e2",
"0q	c #1b89d7",
"0r	c #2895db",
"0s	c #ecedf1",
"0t	c #e3f5f9",
"0u	c #75d8f7",
"0v	c #1c8edd",
"0w	c #1780d3",
"0x	c #248dd6",
"0y	c #e1ecee",
"0z	c #cfeef8",
"10	c #7fdbfa",
"11	c #78d6f4",
"12	c #2f96d9",
"13	c #329adc",
"14	c #349cde",
"15	c #369ee0",
"16	c #2c98dd",
"17	c #47afe7",
"18	c #42a4df",
"19	c #1b75c6",
"1a	c #30b0ef",
"1b	c #52b7e6",
"1c	c #197bcc",
"1d	c #1178ce",
"1e	c #1f83d0",
"1f	c #d7e3ed",
"1g	c #bee6f5",
"1h	c #68cdf5",
"1i	c #77d7f6",
"1j	c #9ee3f9",
"1k	c #fffffa",
"1l	c #e3f3f5",
"1m	c #24a4e9",
"1n	c #fffffd",
"1o	c #0c6dc5",
"1p	c #308cd0",
"1q	c #c8dfea",
"1r	c #7dd1f2",
"1s	c #4fc2f2",
"1t	c #5ecbf4",
"1u	c #68cbf4",
"1v	c #7ad5f6",
"1w	c #95dbf7",
"1x	c #9be1f7",
"1y	c #a5e4f7",
"1z	c #b1edfc",
"20	c #2aa6e9",
"21	c #93e0f6",
"22	c #a6e8f9",
"23	c #239ce4",
"24	c #c5f9ff",
"25	c #0560bf",
"26	c #cbe6f0",
"27	c #5ec3f1",
"28	c #34b3ee",
"29	c #45bcf0",
"2a	c #4fc0f2",
"2b	c #59c6f2",
"2c	c #64cbf4",
"2d	c #6acdf5",
"2e	c #75d5f6",
"2f	c #7ed7f9",
"2g	c #8ae1fb",
"2h	c #2892da",
"2i	c #299ee5",
"2j	c #72d1f5",
"2k	c #72d7f8",
"2l	c #2084d1",
"2m	c #93e8ff",
"2n	c #1374c9",
"2o	c #075fba",
"2p	c #b3dfef",
"2q	c #39b9e9",
"2r	c #19a1e9",
"2s	c #2babea",
"2t	c #35b1ed",
"2u	c #3fb8ee",
"2v	c #46bdf1",
"2w	c #55c1f1",
"2x	c #5fc3f3",
"2y	c #68cbf3",
"2z	c #71d0f5",
"30	c #81def8",
"31	c #2489d4",
"32	c #259be2",
"33	c #65c9f2",
"34	c #5bc7f5",
"35	c #157ccc",
"36	c #7bdcf9",
"37	c #116cc3",
"38	c #0459b6",
"39	c #2cb5eb",
"3a	c #0090e2",
"3b	c #0799e7",
"3c	c #16a1e7",
"3d	c #22a6ea",
"3e	c #2eafe9",
"3f	c #37b2ef",
"3g	c #43b9ee",
"3h	c #4cc0f1",
"3i	c #57c2f2",
"3j	c #5fc8f4",
"3k	c #70d2f6",
"3l	c #2283d0",
"3m	c #2393de",
"3n	c #54bfee",
"3o	c #41bdf1",
"3p	c #0676ca",
"3q	c #1f8ad6",
"3r	c #58cbf9",
"3s	c #0a65be",
"3t	c #0052b0",
"3u	c #18ade8",
"3v	c #008cd7",
"3w	c #009ae5",
"3x	c #0d9de7",
"3y	c #1aa4e8",
"3z	c #26aaea",
"40	c #33b0eb",
"41	c #3ab4ee",
"42	c #43bbf1",
"43	c #4ec0f2",
"44	c #5fc9f5",
"45	c #1b7bcc",
"46	c #228fda",
"47	c #42b3e9",
"48	c #25aeed",
"49	c #006ac2",
"4a	c #1d83d2",
"4b	c #37bbf1",
"4c	c #005db9",
"4d	c #004dad",
"4e	c #1ba8e5",
"4f	c #0085cc",
"4g	c #0092df",
"4h	c #039be6",
"4i	c #12a0e6",
"4j	c #1ea4eb",
"4k	c #2aadec",
"4l	c #36b3ee",
"4m	c #3fbaef",
"4n	c #4cc5f5",
"4o	c #1575c7",
"4p	c #2289d6",
"4q	c #30a6e6",
"4r	c #049ee9",
"4s	c #0060ae",
"4t	c #1c7dce",
"4u	c #12a8ed",
"4v	c #0058ac",
"4w	c #004ca9",
"4x	c #30b8e8",
"4y	c #0082c8",
"4z	c #008ad3",
"50	c #0095e3",
"51	c #089ae4",
"52	c #1292dc",
"53	c #1b95e0",
"54	c #239be1",
"55	c #30a6e5",
"56	c #1c84d4",
"57	c #149de5",
"58	c #0090d5",
"59	c #0061a9",
"5a	c #1979cd",
"5b	c #0099e0",
"5c	c #0053a2",
"5d	c #004aa3",
"5e	c #3eb9ec",
"5f	c #0081c4",
"5g	c #0086cc",
"5h	c #0081d0",
"5i	c #004cab",
"5j	c #0150ae",
"5k	c #0350ac",
"5l	c #0252ae",
"5m	c #0355b0",
"5n	c #1c83d3",
"5o	c #0f69c1",
"5p	c #0550b0",
"5q	c #004090",
"5r	c #1574ca",
"5s	c #0959b4",
"5t	c #004495",
"5u	c #00449c",
"5v	c #0756ab",
"5w	c #3fb1e3",
"5x	c #0082c6",
"5y	c #0077c1",
"5z	c #004ca5",
"60	c #004294",
"61	c #014ea9",
"62	c #65c2e6",
"63	c #007dca",
"64	c #004598",
"65	c #00418b",
"66	c #4b9fd6",
"67	c #003e8d",
"68	c #00428c",
"69	c #00448f",
"                      2o38                      ",
"                    2508XX3t                    ",
"                  1o082p39XX4d                  ",
"                1d1p262q3a3uXX4w                ",
"              0w1e1q272r3b3v4eXX5d              ",
"            0q0x1f1r282s3c3w4f4xXX5u            ",
"          0l0r0y1g1s292t3d3x4g4y5e5v60          ",
"        0h0m0s0z1h1t2a2u3e3y4h4z5f5w6165        ",
"      0e0i0n0t101i1u2b2v3f3z4i505g5x620a68      ",
"    0c0f0j0o0u111j1v2c2w3g404j515h5y63660a0b    ",
"    0d0g0k0p0v12..1w2d2x3h414k525i5z64670b69    ",
"              131k1x2e2y3i424l535j              ",
"              14..1y2f2z3j434m545k              ",
"              15||1z2g303k444n555l              ",
"              16////2h313l454oXX5m              ",
"                                                ",
"              ++++202i323m464p565n              ",
"              171l212j333n474q575o              ",
"              18||222k343o484r585p              ",
"              1906062l353p494s595q              ",
"                                                ",
"              1a1m2309093q4a4t5a5r              ",
"              1b1n242m363r4b4u5b5s              ",
"              1c07072n373s4c4v5c5t              "};