/* XPM */
static char * xpm_upload[] = {
"24 24 182 2",
"  	c None",
"XX	c #ffffff",
"++	c #929498",
"..	c #8f9396",
"||	c #e2e3e6",
"//	c #fbfbfb",
"06	c #f6f6f6",
"07	c #e6e6e7",
"08	c #d0d1d3",
"09	c #f0f2f3",
"0a	c #abaeb2",
"0b	c #c7c9cc",
"0c	c #bfbfc3",
"0d	c #b6b9bd",
"0e	c #aeb0b4",
"0f	c #a4a7aa",
"0g	c #9b9fa1",
"0h	c #898b8f",
"0i	c #7a7c80",
"0j	c #b0b3b7",
"0k	c #edeeee",
"0l	c #dcdee0",
"0m	c #e3e4e7",
"0n	c #85868b",
"0o	c #b6b9bb",
"0p	c #dfe0e3",
"0q	c #939599",
"0r	c #8c9093",
"0s	c #e1e2e5",
"0t	c #3294db",
"0u	c #0644a7",
"0v	c #246fc3",
"0w	c #e4e3e5",
"0x	c #fcfcfb",
"0y	c #f4f5f6",
"0z	c #e7e7e7",
"10	c #eff0f1",
"11	c #dbdcde",
"12	c #f0f1f2",
"13	c #cfcfd1",
"14	c #3299df",
"15	c #2d9be1",
"16	c #83ccec",
"17	c #2c90d9",
"18	c #33a1e4",
"19	c #84cdee",
"1a	c #abe3f6",
"1b	c #288bd6",
"1c	c #3fafe8",
"1d	c #83cfee",
"1e	c #c0ebfa",
"1f	c #5fc8ef",
"1g	c #1e7fd1",
"1h	c #1e79cd",
"1i	c #1a72c8",
"1j	c #1868c1",
"1k	c #1660bb",
"1l	c #1458b6",
"1m	c #004ab1",
"1n	c #3eb2ea",
"1o	c #ace2f5",
"1p	c #c5eefa",
"1q	c #7dd8f5",
"1r	c #8cdaf5",
"1s	c #caeaf7",
"1t	c #c1e8f5",
"1u	c #b9e7f4",
"1v	c #b2e2f4",
"1w	c #a9e0f3",
"1x	c #a0e4f5",
"1y	c #2371c3",
"1z	c #40b4eb",
"20	c #b0e3f5",
"21	c #c4eefb",
"22	c #83dcf6",
"23	c #7fd7f4",
"24	c #70d0f3",
"25	c #62c7ef",
"26	c #52c1ee",
"27	c #43b7e9",
"28	c #37ade6",
"29	c #25a2e3",
"2a	c #169be2",
"2b	c #0445ab",
"2c	c #46b7eb",
"2d	c #b4e5f6",
"2e	c #b5eafa",
"2f	c #89def7",
"2g	c #87dbf6",
"2h	c #7cd6f4",
"2i	c #70cff2",
"2j	c #64c8f0",
"2k	c #57c0ed",
"2l	c #47b7ea",
"2m	c #3aade6",
"2n	c #2ba3e3",
"2o	c #1b9ee3",
"2p	c #0947a9",
"2q	c #47b9eb",
"2r	c #7cd5f3",
"2s	c #96e3f8",
"2t	c #8de0f7",
"2u	c #84daf5",
"2v	c #79d4f3",
"2w	c #6dcef1",
"2x	c #61c5ee",
"2y	c #52beec",
"2z	c #45b4e9",
"30	c #36aae5",
"31	c #259de1",
"32	c #199be2",
"33	c #3caeea",
"34	c #57c1ec",
"35	c #95e4f8",
"36	c #82d9f5",
"37	c #76d2f3",
"38	c #6bccf0",
"39	c #60c7ef",
"3a	c #50beec",
"3b	c #41b4e9",
"3c	c #33aae6",
"3d	c #23a0e2",
"3e	c #169ae3",
"3f	c #fefcfe",
"3g	c #f9f7f9",
"3h	c #f1f2f3",
"3i	c #37a3e3",
"3j	c #48b2e7",
"3k	c #80d9f6",
"3l	c #76d1f3",
"3m	c #5fc4ed",
"3n	c #3a9ddf",
"3o	c #3497db",
"3p	c #2d8ed7",
"3q	c #2484d2",
"3r	c #1b7bce",
"3s	c #1575ca",
"3t	c #0443a5",
"3u	c #e7e6e8",
"3v	c #e7f1e7",
"3w	c #dfeadf",
"3x	c #f7f5fa",
"3y	c #d1d1d3",
"3z	c #3298de",
"40	c #379add",
"41	c #73d4f3",
"42	c #57baeb",
"43	c #2071c6",
"44	c #216cc1",
"45	c #1f65bd",
"46	c #1d5eb5",
"47	c #1a58b0",
"48	c #1450aa",
"49	c #003ba3",
"4a	c #ebe8ed",
"4b	c #cae8be",
"4c	c #64c435",
"4d	c #299708",
"4e	c #d2ded5",
"4f	c #d3d2d6",
"4g	c #2f8dd6",
"4h	c #3191d9",
"4i	c #52bbec",
"4j	c #2271c5",
"4k	c #ece8ee",
"4l	c #b7dfab",
"4m	c #72cd21",
"4n	c #3eb013",
"4o	c #d0dcd5",
"4p	c #d1d1d4",
"4q	c #2982d0",
"4r	c #297ecf",
"4s	c #2371c4",
"4t	c #e9e7ea",
"4u	c #f3f8f3",
"4v	c #9fcca0",
"4w	c #8dbb93",
"4x	c #f1f0f2",
"4y	c #dcdcdf",
"4z	c #2478c8",
"50	c #e5e3e5",
"51	c #f6f6f8",
"                              2c2q              ",
"                            1z2d2r33            ",
"                          1n202e2s343i          ",
"                        1c1o212f2t353j3z        ",
"                      181d1p222g2u363k404g      ",
"                    15191e1q232h2v373l414h4q    ",
"                  14161a1f1r242i2w383m424i4r4z  ",
"                0t0t171b1g1s252j2x393n434j4s0v0v",
"                        1h1t262k2y3a3o44        ",
"                        1i1u272l2z3b3p45        ",
"                        1j1v282m303c3q46        ",
"                        1k1w292n313d3r47        ",
"                        1l1x2a2o323e3s48        ",
"                        1m1y2b2p0u0u3t49        ",
"  0j                                        0j  ",
"0a0w0z0707070707070707070707070707073u4a4k4t500a",
"0bXXXXXXXXXXXXXXXXXXXXXXXXXXXXXXXXXXXX4b4l4uXX0b",
"0cXX//////////////////////////////3f3v4c4m4vXX0c",
"0d0x0606060606060606060606060606063g3w4d4n4wXX0d",
"0e0y1012090909090909090909090909093h3x4e4o4x510e",
"0f0k111308080808080808080808080808083y4f4p4y0k0f",
"0g0l0o0r................................0r0o0l0g",
"0h0m0p0s||||||||||||||||||||||||||||||||0s0p0m0h",
"0i0n0q++++++++++++++++++++++++++++++++++++0q0n0i"};