/* XPM */
static char * xpm_user_group[] = {
"24 24 311 2",
"  	c None",
"XX	c #f73220",
"++	c #6bd03f",
"..	c #494a51",
"||	c #7fd339",
"//	c #73d13d",
"06	c #f84126",
"07	c #f91f1b",
"08	c #46ade5",
"09	c #43474d",
"0a	c #42444a",
"0b	c #ffbf41",
"0c	c #484a50",
"0d	c #ffe59a",
"0e	c #fec846",
"0f	c #fb201b",
"0g	c #fa201b",
"0h	c #57baea",
"0i	c #569f56",
"0j	c #73b46e",
"0k	c #4b8f4f",
"0l	c #5cac51",
"0m	c #bce3a1",
"0n	c #ade67e",
"0o	c #84dd55",
"0p	c #4ab034",
"0q	c #64b854",
"0r	c #ceeaa1",
"0s	c #8ad740",
"0t	c #6ed037",
"0u	c #6ad13d",
"0v	c #60cd40",
"0w	c #216427",
"0x	c #3c3e43",
"0y	c #262b35",
"0z	c #b8a27c",
"10	c #ffd696",
"11	c #ffbb73",
"12	c #b27c18",
"13	c #b9ea9e",
"14	c #93da3c",
"15	c #7bd236",
"16	c #72d13d",
"17	c #6cd944",
"18	c #206226",
"19	c #393b41",
"1a	c #1c2131",
"1b	c #fff79f",
"1c	c #ffd977",
"1d	c #ffd389",
"1e	c #c39d28",
"1f	c #82d832",
"1g	c #6cd844",
"1h	c #1e6026",
"1i	c #404147",
"1j	c #2a2e3b",
"1k	c #5a5446",
"1l	c #ffee9c",
"1m	c #fecf5a",
"1n	c #fdbb39",
"1o	c #ffb437",
"1p	c #e19642",
"1q	c #82db34",
"1r	c #6bd643",
"1s	c #2c822d",
"1t	c #484950",
"1u	c #353842",
"1v	c #b9a977",
"1w	c #ffefa3",
"1x	c #fdbc3c",
"1y	c #ffaf31",
"1z	c #ed732e",
"20	c #80dd35",
"21	c #6ad240",
"22	c #69dc45",
"23	c #249931",
"24	c #c80106",
"25	c #47484e",
"26	c #313640",
"27	c #d8c688",
"28	c #fff0a7",
"29	c #fedf86",
"2a	c #fec848",
"2b	c #febd3d",
"2c	c #ffb334",
"2d	c #d7771c",
"2e	c #82e437",
"2f	c #7dda3a",
"2g	c #72da40",
"2h	c #6dcd3b",
"2i	c #728128",
"2j	c #176025",
"2k	c #f8000f",
"2l	c #ed4645",
"2m	c #f47c71",
"2n	c #f3766d",
"2o	c #ed4342",
"2p	c #a80006",
"2q	c #44474d",
"2r	c #373b42",
"2s	c #524e48",
"2t	c #fff8a8",
"2u	c #ffe88e",
"2v	c #ffce4d",
"2w	c #ffc040",
"2x	c #e78227",
"2y	c #996020",
"2z	c #919329",
"30	c #888a27",
"31	c #7d8c29",
"32	c #812f15",
"33	c #712710",
"34	c #c71915",
"35	c #ffa79d",
"36	c #fa8a65",
"37	c #f8492c",
"38	c #f82c1a",
"39	c #fd1d19",
"3a	c #b50407",
"3b	c #3a3e42",
"3c	c #2c2f38",
"3d	c #363738",
"3e	c #a98d5b",
"3f	c #f0ac3e",
"3g	c #b34922",
"3h	c #a54520",
"3i	c #9f3e1c",
"3j	c #902a10",
"3k	c #a14620",
"3l	c #7a220b",
"3m	c #732610",
"3n	c #65240b",
"3o	c #cd6f58",
"3p	c #fe8464",
"3q	c #f84d2c",
"3r	c #be060a",
"3s	c #b04d21",
"3t	c #a7441e",
"3u	c #b35a24",
"3v	c #fff0a8",
"3w	c #fff4b4",
"3x	c #ffec99",
"3y	c #f1b355",
"3z	c #b36031",
"40	c #ffa94e",
"41	c #fb783e",
"42	c #f84b2f",
"43	c #bc060a",
"44	c #af4c21",
"45	c #9f3b16",
"46	c #fffab1",
"47	c #ffeca7",
"48	c #fee295",
"49	c #fecc54",
"4a	c #ffba38",
"4b	c #ffc456",
"4c	c #e79340",
"4d	c #ffe361",
"4e	c #fa914b",
"4f	c #f83b24",
"4g	c #d5090d",
"4h	c #ac4b21",
"4i	c #9f3d17",
"4j	c #e9cc76",
"4k	c #fff4b0",
"4l	c #ffe392",
"4m	c #fdba3c",
"4n	c #ffaf2d",
"4o	c #d8682c",
"4p	c #ffda5d",
"4q	c #fcffa3",
"4r	c #f7351f",
"4s	c #d3090d",
"4t	c #ac4921",
"4u	c #a0451d",
"4v	c #8c2f12",
"4w	c #d59d4f",
"4x	c #ffe589",
"4y	c #fec849",
"4z	c #febc3e",
"50	c #ffad2e",
"51	c #ca4e12",
"52	c #ffe362",
"53	c #fbbc60",
"54	c #f83923",
"55	c #cb080c",
"56	c #6d422f",
"57	c #b0491f",
"58	c #9e451e",
"59	c #943d1b",
"5a	c #99441b",
"5b	c #fff68d",
"5c	c #ffd652",
"5d	c #ffc340",
"5e	c #c35319",
"5f	c #f28d2b",
"5g	c #fea64d",
"5h	c #f8472e",
"5i	c #c1070a",
"5j	c #3b3f44",
"5k	c #2d343c",
"5l	c #9f4620",
"5m	c #963917",
"5n	c #8c3818",
"5o	c #803016",
"5p	c #8a3814",
"5q	c #933e13",
"5r	c #5f1f0d",
"5s	c #50210d",
"5t	c #f63d2d",
"5u	c #fa6340",
"5v	c #f85432",
"5w	c #f84226",
"5x	c #c4070a",
"5y	c #373840",
"5z	c #171d2e",
"60	c #fff6a2",
"61	c #e5a74f",
"62	c #d47b28",
"63	c #d27123",
"64	c #c66222",
"65	c #797d81",
"66	c #6a1d00",
"67	c #5a2202",
"68	c #ec0301",
"69	c #ff5133",
"6a	c #fa5a34",
"6b	c #f94328",
"6c	c #fd201b",
"6d	c #ae0408",
"6e	c #3e3f48",
"6f	c #474947",
"6g	c #d1b77a",
"6h	c #ffeb9e",
"6i	c #ffd364",
"6j	c #ffc444",
"6k	c #ffb836",
"6l	c #ff9017",
"6m	c #9edcff",
"6n	c #6797b6",
"6o	c #58819a",
"6p	c #4babee",
"6q	c #d91223",
"6r	c #fe150d",
"6s	c #f83220",
"6t	c #fd3722",
"6u	c #ed1a17",
"6v	c #b50408",
"6w	c #48494f",
"6x	c #353943",
"6y	c #b9aa78",
"6z	c #fff5aa",
"70	c #ffe49a",
"71	c #feca4a",
"72	c #febe3f",
"73	c #feb432",
"74	c #fb840e",
"75	c #86c0e6",
"76	c #69caf6",
"77	c #56c1f1",
"78	c #42b1ea",
"79	c #1cb0f3",
"7a	c #365ca3",
"7b	c #ca0912",
"7c	c #e30100",
"7d	c #c5060a",
"7e	c #45474e",
"7f	c #363943",
"7g	c #8f8663",
"7h	c #fff8ac",
"7i	c #feca4b",
"7j	c #ffb733",
"7k	c #e35b08",
"7l	c #73d7ff",
"7m	c #6ac4ef",
"7n	c #2ca3e2",
"7o	c #167acc",
"7p	c #43454b",
"7q	c #3b3e43",
"7r	c #242836",
"7s	c #c0a972",
"7t	c #fff8a6",
"7u	c #ffd452",
"7v	c #ffcc45",
"7w	c #e77417",
"7x	c #77b8e6",
"7y	c #7ad1f7",
"7z	c #6bc4ed",
"80	c #2ca3e1",
"81	c #1c71c0",
"82	c #3a3c42",
"83	c #33363b",
"84	c #202430",
"85	c #272d35",
"86	c #d77e2f",
"87	c #4abaf1",
"88	c #7cd0f3",
"89	c #6cc5ee",
"8a	c #57bbea",
"8b	c #2ca4e2",
"8c	c #1c68b8",
"8d	c #44a6e1",
"8e	c #5ebbe9",
"8f	c #5bc1ed",
"8g	c #48b0e8",
"8h	c #2da3e1",
"8i	c #1d59ac",
"8j	c #358ed4",
"8k	c #3289ce",
"8l	c #3186ce",
"8m	c #277ac6",
"                                                ",
"                                                ",
"        ..0c1t252q                              ",
"      090a1i1u262r3b                            ",
"      0x191j1v272s3c          ....0c6w7e7p      ",
"      0y1a1k1w282t3d          090a6e6x7f7q82    ",
"      0z1b1l0d292u3e          5j5y6f6y7g7r83    ",
"      101c1m0e2a2v3f        565k5z6g6z7h7s84    ",
"      110b1n1x2b2w3g3s444h4t575l606h700d7t85    ",
"      121d1o1y2c2x3h3t454i4u585m616i717i7u86    ",
"    0q131e1p1z2d2y3i3u464j4v595n626j720b7v      ",
"  0l0r141f1q202e2z3j3v474k4w5a5o636k737j7w      ",
"  0m0s15||||||2f303k3w484l4x5b5p646l747k7x87    ",
"0i0n0t16//////2g313l3x490e4y5c5q656m757l7y888d  ",
"0j0o0u++++++212h323m3y4a4m4z5d5r666n767m7z898e8j",
"0k0p0v171g1r222i333n3z4b4n505e5s676o770h0h8a8f8k",
"    0w181h1s232j343o404c4o515f5t686p780808088g8l",
"              2k353p414d4p525g5u696q797n808b8h8m",
"              2l363q424e4q535h5v6a6r7a7o818c8i  ",
"              2m3706064f4r54065w6b6s7b          ",
"            242n38XXXXXXXXXXXXXXXX6t7c          ",
"              2o390f0g0707070g0f6c6u7d          ",
"              2p3a3r434g4s555i5x6d6v            ",
"                                                "};