/* XPM */
static char * xpm_volume[] = {
"24 24 206 2",
"  	c None",
"XX	c #c1c3c5",
"++	c #b3b6bb",
"..	c #a4a7ab",
"||	c #96999e",
"//	c #8a8c91",
"06	c #7e7f84",
"07	c #cbcdcf",
"08	c #c5c8ca",
"09	c #727478",
"0a	c #67686d",
"0b	c #58595c",
"0c	c #595a5d",
"0d	c #ecedee",
"0e	c #d1d3d5",
"0f	c #b1b4b8",
"0g	c #5c5e62",
"0h	c #515355",
"0i	c #4b4c4f",
"0j	c #cccdd0",
"0k	c #c0c1c3",
"0l	c #f9faf9",
"0m	c #dddee0",
"0n	c #c9cacd",
"0o	c #aeb0b4",
"0p	c #878b8f",
"0q	c #67696d",
"0r	c #525356",
"0s	c #e5e6e6",
"0t	c #84878b",
"0u	c #787a7e",
"0v	c #6d6e72",
"0w	c #d7d8da",
"0x	c #b6b9bd",
"0y	c #a6a9ad",
"0z	c #989ba0",
"10	c #8c8e93",
"11	c #d0d2d4",
"12	c #b3b4b9",
"13	c #d8d9db",
"14	c #5c5f63",
"15	c #555659",
"16	c #4d4d50",
"17	c #454547",
"18	c #474749",
"19	c #707176",
"1a	c #86878b",
"1b	c #9b9a9d",
"1c	c #626365",
"1d	c #84858a",
"1e	c #e1e2e2",
"1f	c #b7b8bb",
"1g	c #696a6e",
"1h	c #626465",
"1i	c #4f5253",
"1j	c #4a4b4e",
"1k	c #b7b9bb",
"1l	c #bbbbbf",
"1m	c #9d9fa2",
"1n	c #888c90",
"1o	c #717177",
"1p	c #5c5e60",
"1q	c #4e4f52",
"1r	c #c1c2c5",
"1s	c #fafbfb",
"1t	c #dfe1e2",
"1u	c #b1b3b7",
"1v	c #898d91",
"1w	c #686b6f",
"1x	c #535456",
"1y	c #c2c3c5",
"1z	c #fcfcfc",
"20	c #e3e3e5",
"21	c #cfd0d3",
"22	c #b4b6ba",
"23	c #8b8f93",
"24	c #696b70",
"25	c #535457",
"26	c #a6a7aa",
"27	c #d8d9da",
"28	c #87898e",
"29	c #65656a",
"2a	c #5b5d5f",
"2b	c #555558",
"2c	c #4c4f50",
"2d	c #474849",
"2e	c #6b6f73",
"2f	c #d4d5d7",
"2g	c #a8a9ad",
"2h	c #919397",
"2i	c #646569",
"2j	c #434346",
"2k	c #f1f2f1",
"2l	c #828388",
"2m	c #606163",
"2n	c #a2a3a7",
"2o	c #f5f6f4",
"2p	c #e2e3e5",
"2q	c #c3c6c8",
"2r	c #c1c3c4",
"2s	c #76787c",
"2t	c #494a4d",
"2u	c #888b8e",
"2v	c #f5f5f4",
"2w	c #c4c8ca",
"2x	c #737579",
"2y	c #6a6b6d",
"2z	c #3e3e41",
"30	c #84848a",
"31	c #e6e7e8",
"32	c #f3f2f3",
"33	c #d5d6d8",
"34	c #caccce",
"35	c #68696e",
"36	c #5a5a5e",
"37	c #353537",
"38	c #cfd0d2",
"39	c #f6f7f6",
"3a	c #e3e2e5",
"3b	c #5e6165",
"3c	c #46474a",
"3d	c #fbfbfa",
"3e	c #5d5f63",
"3f	c #5a5b5e",
"3g	c #3a3c3e",
"3h	c #9ea1a5",
"3i	c #fafaf9",
"3j	c #f3f3f3",
"3k	c #dedfde",
"3l	c #59595c",
"3m	c #545658",
"3n	c #323234",
"3o	c #9b9ea2",
"3p	c #ededed",
"3q	c #f7f7f8",
"3r	c #dcdde0",
"3s	c #4d4d4f",
"3t	c #2d2d2f",
"3u	c #dadbdd",
"3v	c #fafafa",
"3w	c #eff0f1",
"3x	c #e4e5e6",
"3y	c #dfe0e1",
"3z	c #dadbdc",
"40	c #d3d5d7",
"41	c #cdcfd1",
"42	c #c7cacc",
"43	c #c4c6c7",
"44	c #808186",
"45	c #74767a",
"46	c #68696f",
"47	c #5e6064",
"48	c #56585b",
"49	c #404042",
"4a	c #b6b9bc",
"4b	c #ececed",
"4c	c #e0e1e2",
"4d	c #cfd1d3",
"4e	c #c6c8cb",
"4f	c #bdbdc2",
"4g	c #aaaaaf",
"4h	c #a0a0a4",
"4i	c #929498",
"4j	c #636467",
"4k	c #5c5c5f",
"4l	c #575759",
"4m	c #505355",
"4n	c #4f4f51",
"4o	c #515154",
"4p	c #303031",
"4q	c #adb0b3",
"4r	c #b2b5b9",
"4s	c #b3b6ba",
"4t	c #b4b7bb",
"4u	c #a2a5aa",
"4v	c #94989b",
"4w	c #87898d",
"4x	c #797b7f",
"4y	c #6e6f73",
"4z	c #626466",
"50	c #4f5153",
"51	c #48494b",
"52	c #444446",
"53	c #464648",
"54	c #48494a",
"55	c #313132",
"56	c #adafb3",
"57	c #a8aaae",
"58	c #a2a5a9",
"59	c #9c9ea2",
"5a	c #96999d",
"5b	c #929399",
"5c	c #8c8c92",
"5d	c #838589",
"5e	c #7b7d82",
"5f	c #727578",
"5g	c #6c6d71",
"5h	c #656669",
"5i	c #464647",
"5j	c #414346",
"5k	c #3e3e40",
"5l	c #3b3b3e",
"5m	c #38383a",
"5n	c #363638",
"5o	c #343335",
"5p	c #2d2d2e",
"                                      4a4q56    ",
"                                  3o3u4b0f57    ",
"                                3h3p3v4c0f58    ",
"                              123i3q3w114r59    ",
"                          30383d3j0s3x4d4s5a    ",
"                        2u31390d3k3r3y0j4t5b    ",
"                      2n2v323a0w13133z4e0f5c    ",
"                  2eXX2o0d33110e0e0e404f4u5d    ",
"  191d1k1r0k0k1y262f2k2p07340707070741124v5e    ",
"  1a1e0d1s0l0l1z270s0w2q2w0808080808424g4w5f    ",
"  1b1f1l1t0m0m20282gXX2rXXXXXXXXXXXX434h4x5g    ",
"  1c1g1m0j0n0n21292h0x++++++++++++++0x4i4y5h    ",
"  0g1h1n1u0o0o222a0t0y..............0y0t4z0g    ",
"  0b0c1o1v0p0p232b0u0z||||||||||||||0z0u0c0b    ",
"  0h1i1p1w0q0q242c0v10//////////////100v500h    ",
"  0i1j1q1x0r0r252d2i2l06060606060606444j510i    ",
"                  2j2m2s2x0909090909454k525i    ",
"                      2t2y350a0a0a0a464l175j    ",
"                        2z363b3e1414474m175k    ",
"                          373c3f3l0b0c4n535l    ",
"                              3g3m151516185m    ",
"                                3n3s4816185n    ",
"                                  3t494o545o    ",
"                                      4p555p    "};