/* XPM */
static char * xpm_wallet[] = {
"24 24 209 2",
"  	c None",
"XX	c #70250b",
"++	c #ce7126",
"..	c #b0471c",
"||	c #cb6c24",
"//	c #c76723",
"06	c #b64e1e",
"07	c #b24b1c",
"08	c #c46122",
"09	c #c05c20",
"0a	c #bc5820",
"0b	c #b9531f",
"0c	c #cf8f66",
"0d	c #d17425",
"0e	c #d17222",
"0f	c #aa4018",
"0g	c #ae4520",
"0h	c #af4722",
"0i	c #ad431f",
"0j	c #ecb970",
"0k	c #ebc595",
"0l	c #d17120",
"0m	c #af4821",
"0n	c #e5b171",
"0o	c #aa3e16",
"0p	c #ad431c",
"0q	c #cc6d24",
"0r	c #d8832e",
"0s	c #ab421a",
"0t	c #d88430",
"0u	c #eaba72",
"0v	c #bd551e",
"0w	c #b74e1d",
"0x	c #c35f20",
"0y	c #ab411a",
"0z	c #edbc75",
"10	c #ecbc75",
"11	c #ebba72",
"12	c #d7822d",
"13	c #73260b",
"14	c #ab4119",
"15	c #af4622",
"16	c #ebbc75",
"17	c #e4af6e",
"18	c #ce8e66",
"19	c #ca6923",
"1a	c #ba541f",
"1b	c #b5441b",
"1c	c #c1673f",
"1d	c #af4620",
"1e	c #ac4622",
"1f	c #a74421",
"1g	c #a34321",
"1h	c #9e4020",
"1i	c #9b3d1f",
"1j	c #973d1e",
"1k	c #923b1d",
"1l	c #8e391c",
"1m	c #8a371b",
"1n	c #87351a",
"1o	c #833217",
"1p	c #8e4527",
"1q	c #8d462a",
"1r	c #68220a",
"1s	c #812106",
"1t	c #f3d099",
"1u	c #edc997",
"1v	c #de9245",
"1w	c #da9347",
"1x	c #d88d46",
"1y	c #d48945",
"1z	c #d38443",
"20	c #d07f42",
"21	c #cd7b41",
"22	c #ca7740",
"23	c #c8733f",
"24	c #c56d3e",
"25	c #c36a3c",
"26	c #bf6338",
"27	c #d1906c",
"28	c #af431e",
"29	c #762c11",
"2a	c #842208",
"2b	c #edbb72",
"2c	c #d78028",
"2d	c #cd6f24",
"2e	c #ca6a22",
"2f	c #c66521",
"2g	c #bf5a1e",
"2h	c #bb561e",
"2i	c #b8511d",
"2j	c #b54c1c",
"2k	c #b1491a",
"2l	c #af451a",
"2m	c #a93d16",
"2n	c #ae471f",
"2o	c #ad4420",
"2p	c #70240b",
"2q	c #862309",
"2r	c #872309",
"2s	c #8a2409",
"2t	c #8b240b",
"2u	c #8d240b",
"2v	c #8f250c",
"2w	c #92260d",
"2x	c #93270d",
"2y	c #96270d",
"2z	c #ecba72",
"30	c #99290d",
"31	c #9a2a0e",
"32	c #ecbc74",
"33	c #c56222",
"34	c #c15d21",
"35	c #bd5921",
"36	c #ba5420",
"37	c #9d2b0e",
"38	c #c86823",
"39	c #ba561e",
"3a	c #b14c1a",
"3b	c #b14c1b",
"3c	c #aa4819",
"3d	c #ba5120",
"3e	c #b34c1c",
"3f	c #a02b0f",
"3g	c #bd531c",
"3h	c #e69539",
"3i	c #701e05",
"3j	c #863010",
"3k	c #b54d1d",
"3l	c #a12c0f",
"3m	c #df8d35",
"3n	c #ba8d68",
"3o	c #775e4e",
"3p	c #b2441a",
"3q	c #73260c",
"3r	c #a42d0f",
"3s	c #de892e",
"3t	c #c1cfdc",
"3u	c #798289",
"3v	c #633421",
"3w	c #77270b",
"3x	c #a62e0f",
"3y	c #e18d34",
"3z	c #706661",
"40	c #293840",
"41	c #853b1f",
"42	c #76270b",
"43	c #a82f10",
"44	c #eab971",
"45	c #d06f1d",
"46	c #ce7025",
"47	c #cc6d23",
"48	c #bc521b",
"49	c #dd8e38",
"4a	c #d0691f",
"4b	c #c2561c",
"4c	c #b4451b",
"4d	c #72250a",
"4e	c #b64b1a",
"4f	c #af461b",
"4g	c #a83a13",
"4h	c #aa2f10",
"4i	c #e2ae74",
"4j	c #cd6e22",
"4k	c #cb6b22",
"4l	c #ce8755",
"4m	c #db8c37",
"4n	c #af441b",
"4o	c #7b3217",
"4p	c #d08557",
"4q	c #ad4015",
"4r	c #cd8b63",
"4s	c #ae441f",
"4t	c #71250b",
"4u	c #ad3211",
"4v	c #efc57b",
"4w	c #d87d20",
"4x	c #d57824",
"4y	c #d27627",
"4z	c #d07125",
"50	c #bf551c",
"51	c #dd8f39",
"52	c #b0451c",
"53	c #ba4e1b",
"54	c #b4491c",
"55	c #ae4118",
"56	c #ac3d15",
"57	c #ae3e1a",
"58	c #6d230a",
"59	c #a83012",
"5a	c #a32f14",
"5b	c #9e3015",
"5c	c #972d12",
"5d	c #942c12",
"5e	c #922710",
"5f	c #e3963c",
"5g	c #ce6e24",
"5h	c #be5820",
"5i	c #b1441c",
"5j	c #651f08",
"5k	c #77260e",
"5l	c #6f230c",
"5m	c #6b220a",
"5n	c #67210a",
"5o	c #662009",
"5p	c #9c3316",
"5q	c #9c3715",
"5r	c #8a3012",
"5s	c #7b290e",
"                                                ",
"                                                ",
"                                                ",
"  1s2a2q2r2s2t2u2v2w2x2y3031373f3l3r3x434h4u    ",
"1b1t2b0j0j0z0z0j0j10102z1132110u16160u440u4v59  ",
"1c1u2c0k0k0r0r0k0k0r0t0n0n12120n0n0t0t17174w5a  ",
"1d1v0e0l0l0d0d0l0l0d0d0e0e0d0e0e0d0d0e454i4x5b  ",
"1e1w2d++++++++++++++++++++++++++++++++464j4y5c  ",
"1f1x2e||||||||||||||||||||||||0q0q0q0q474k4z5d  ",
"1g1y2f//////////////////////380x0v0v0v484l505e  ",
"1h1z0x0808080808080808080833393g3m3s3y494m515f5p",
"1i202g09090909090909090909343a3h3n3t3z4a19195g5q",
"1j212h0a0a0a0a0a0a0a0a0a0a353b3i3o3u404b1a1a5h5r",
"1k222i0b0b0b0b0b0b0b0b0b0b363c133p3v414c4n525i5s",
"1l232j06060606060606060606063d3j3q3w424d4o135j  ",
"1m242k07070707070707070707073e3k0w0w0w4e4p535k  ",
"1n252l................................4f4q545l  ",
"1o262m0f0y0f0f0s0s0f0f0s0y0o0o140o0o144g18555m  ",
"1p272n0c0c0m0m0c0c0m0m0c0c0p0p0c0c0p0p184r565n  ",
"1q282o0g0h0g0g0h0h0g0g0h0h0i0i150i0i150i4s575o  ",
"1r292pXXXXXXXXXXXXXXXXXXXXXXXXXXXXXXXXXX4t58    ",
"                                                ",
"                                                ",
"                                                "};