/* XPM */
static char * xpm_warning[] = {
"24 24 265 2",
"  	c None",
"XX	c #f3b72c",
"++	c #f4cd40",
"..	c #f2b22b",
"||	c #f4cf43",
"//	c #f4cc3f",
"06	c #f3ba2f",
"07	c #f2ae29",
"08	c #f5d045",
"09	c #f5d248",
"0a	c #818182",
"0b	c #f0b819",
"0c	c #f3ba30",
"0d	c #f2ab28",
"0e	c #f5d143",
"0f	c #737377",
"0g	c #636366",
"0h	c #f6d571",
"0i	c #343436",
"0j	c #2f2e30",
"0k	c #282628",
"0l	c #d0980f",
"0m	c #68686a",
"0n	c #292829",
"0o	c #272526",
"0p	c #f0b00c",
"0q	c #f1a928",
"0r	c #f2a626",
"0s	c #d48015",
"0t	c #a45a09",
"0u	c #ef8e10",
"0v	c #ef8608",
"0w	c #ef8f14",
"0x	c #ef8b0f",
"0y	c #ed7f02",
"0z	c #f4c259",
"10	c #f9e98a",
"11	c #f9eb87",
"12	c #f6c358",
"13	c #ee8b10",
"14	c #ec8508",
"15	c #efa02a",
"16	c #f8e78d",
"17	c #f6dd5e",
"18	c #f4d245",
"19	c #f4d446",
"1a	c #f6e25a",
"1b	c #ed890f",
"1c	c #eda23d",
"1d	c #eb860d",
"1e	c #f7db7a",
"1f	c #f7e36e",
"1g	c #f5d249",
"1h	c #f5d24c",
"1i	c #f5d24b",
"1j	c #f6db50",
"1k	c #ed9f24",
"1l	c #eeac4e",
"1m	c #efab54",
"1n	c #f3c260",
"1o	c #f9e87e",
"1p	c #f5d344",
"1q	c #f5d148",
"1r	c #f6da4d",
"1s	c #eb9a22",
"1t	c #edab4e",
"1u	c #eca241",
"1v	c #f3c776",
"1w	c #fbeba1",
"1x	c #f7d546",
"1y	c #f5cf3f",
"1z	c #f5cf43",
"20	c #f5cf45",
"21	c #f6d84b",
"22	c #ea9820",
"23	c #eba445",
"24	c #eeb963",
"25	c #f7e09a",
"26	c #fae798",
"27	c #f4d048",
"28	c #f4ce3f",
"29	c #f4d043",
"2a	c #f6d648",
"2b	c #e79621",
"2c	c #e8a54b",
"2d	c #e8a046",
"2e	c #f6d993",
"2f	c #fce997",
"2g	c #f7dc73",
"2h	c #f9dd79",
"2i	c #f3ca35",
"2j	c #f6d544",
"2k	c #e5911f",
"2l	c #e49a40",
"2m	c #f1cd82",
"2n	c #fbe7a0",
"2o	c #f9de77",
"2p	c #f7d971",
"2q	c #f7db77",
"2r	c #f6d562",
"2s	c #f4cb3b",
"2t	c #f4cb3e",
"2u	c #f4cb3f",
"2v	c #f7d342",
"2w	c #e28f1e",
"2x	c #e29f45",
"2y	c #e9b160",
"2z	c #fae7a4",
"30	c #f7dc6e",
"31	c #f6d14e",
"32	c #f6d053",
"33	c #f6d051",
"34	c #f6d159",
"35	c #f3c225",
"36	c #f3bc17",
"37	c #f3be19",
"38	c #f3be1d",
"39	c #f3c52d",
"3a	c #f4c939",
"3b	c #f3c325",
"3c	c #f3be1a",
"3d	c #d6a622",
"3e	c #f4c634",
"3f	c #f8d441",
"3g	c #e08e1e",
"3h	c #e19b44",
"3i	c #f6da91",
"3j	c #fae38d",
"3k	c #f5d055",
"3l	c #dcb854",
"3m	c #3d3d40",
"3n	c #383739",
"3o	c #323234",
"3p	c #2e2c2e",
"3q	c #2a282a",
"3r	c #342d26",
"3s	c #d5a319",
"3t	c #454548",
"3u	c #333234",
"3v	c #554833",
"3w	c #e8b217",
"3x	c #dd8d1f",
"3y	c #ebc173",
"3z	c #fae28a",
"40	c #f6d463",
"41	c #a1a1a3",
"42	c #4e4e50",
"43	c #3c3b3d",
"44	c #2b2a2b",
"45	c #262525",
"46	c #2e2d2e",
"47	c #a1771a",
"48	c #dc8a1e",
"49	c #dea14c",
"4a	c #ebc076",
"4b	c #fadb72",
"4c	c #f6d367",
"4d	c #a3a3a4",
"4e	c #424245",
"4f	c #373638",
"4g	c #323033",
"4h	c #2d2c2d",
"4i	c #252325",
"4j	c #2a292a",
"4k	c #a1761a",
"4l	c #d98a1d",
"4m	c #da9845",
"4n	c #f4d273",
"4o	c #fad86a",
"4p	c #f5ce55",
"4q	c #dbb755",
"4r	c #6b6b6e",
"4s	c #484849",
"4t	c #3a393b",
"4u	c #343335",
"4v	c #2f2d2f",
"4w	c #2b292b",
"4x	c #262425",
"4y	c #322b23",
"4z	c #d3a016",
"50	c #393839",
"51	c #272527",
"52	c #4d402a",
"53	c #e8b31a",
"54	c #d7871c",
"55	c #d79546",
"56	c #e2ad58",
"57	c #f8d369",
"58	c #f7d159",
"59	c #f4c84c",
"5a	c #f4c949",
"5b	c #f4c94d",
"5c	c #f3bc29",
"5d	c #f0af09",
"5e	c #f0b310",
"5f	c #f0b714",
"5g	c #f1b61c",
"5h	c #f0b20e",
"5i	c #c68e17",
"5j	c #f0b717",
"5k	c #f3bd1c",
"5l	c #d3841b",
"5m	c #d39246",
"5n	c #e9ba5f",
"5o	c #fad369",
"5p	c #f7d06a",
"5q	c #f7d06e",
"5r	c #f4c54b",
"5s	c #f3b92b",
"5t	c #f8c433",
"5u	c #d18018",
"5v	c #d4964a",
"5w	c #d5994d",
"5x	c #ecc05e",
"5y	c #fcd46d",
"5z	c #f6c445",
"60	c #f3b628",
"61	c #f8bf2f",
"62	c #ce7d17",
"63	c #d09549",
"64	c #d9a255",
"65	c #f3c050",
"66	c #f7b727",
"67	c #f3b42c",
"68	c #f7ba2e",
"69	c #cb7b17",
"6a	c #d1994f",
"6b	c #c78a43",
"6c	c #cf8114",
"6d	c #f8b52d",
"6e	c #f5b22b",
"6f	c #f3af29",
"6g	c #f1ae29",
"6h	c #f9b62c",
"6i	c #c77614",
"6j	c #b9650b",
"6k	c #b4610a",
"6l	c #dd9220",
"6m	c #fdb62c",
"6n	c #f4ae2a",
"6o	c #f9b22b",
"6p	c #c47212",
"6q	c #b1620b",
"6r	c #b3630c",
"6s	c #eda023",
"6t	c #fbb029",
"6u	c #f3a726",
"6v	c #f1a526",
"6w	c #f9af29",
"6x	c #c17212",
"6y	c #a75909",
"6z	c #c27312",
"70	c #f4a323",
"71	c #f7a724",
"72	c #f2a123",
"73	c #f1a123",
"74	c #fdae27",
"75	c #ac5e0a",
"76	c #ad6009",
"77	c #9f5507",
"78	c #f9a422",
"79	c #ffa723",
"7a	c #a75c09",
"7b	c #a65d09",
"7c	c #a35c09",
"                                                ",
"                                                ",
"                        49                      ",
"                    3h3y4a4m                    ",
"                  2x3i3z4b4n55                  ",
"                  2y3j404c4o56                  ",
"                2l2z3k0h0h4p575m                ",
"              2c2m303l414d4q585n5v              ",
"              2d2n310a0a0a4r595o5w              ",
"            232e2o320f0f0g4s5a5p5x63            ",
"          1t242f2p330g424e4t5b5q5y646a          ",
"          1u252g2q343m434f4u5c5r5z656b          ",
"        1l1v262h2r353n0i4g4v5d5s60666c6j        ",
"        1m1w272i2s363o0j4h4w0p06XX676d6k        ",
"      1c1n1x28++//373p440n0k0p06XX..6e6l6q      ",
"      1d1o1y29++//383q0k0o4x5e06XX..6f6m6r      ",
"    141e1p1z||++//393r454i4y5f0cXX..076n6s6y    ",
"    151f0e08||++2t3a0b0l0l0b0b0cXX..070q6t6z76  ",
"  0y160e0908||++//3b3s0m0m4z5g06XX..070d6u7077  ",
"0u0z171g0908||++//3c3t0i0j505h06XX..070d0r710s0t",
"0v10181h0908||++//3d3u464j515i06XX..070d0r72787b",
"0w11191i1q20||++2u3e3v0n0o525j0cXX..6g0q6v73797c",
"0x121a1j1r212a2j2v3f3w474k535k5t61686h6o6w740s0t",
"  131b1k1s222b2k2w3g3x484l545l5u62696i6p6x757a  "};