/* XPM */
static char * xpm_wrench[] = {
"24 24 199 2",
"  	c None",
"XX	c #ffffff",
"++	c #eae8ee",
"..	c #3287ce",
"||	c #4bb5e9",
"//	c #4cb6e9",
"06	c #928bad",
"07	c #a7a2bd",
"08	c #f3f2f5",
"09	c #ebe9ef",
"0a	c #efeef3",
"0b	c #f9f9fb",
"0c	c #f4f4f7",
"0d	c #fffffe",
"0e	c #3791d5",
"0f	c #266cbb",
"0g	c #3892d6",
"0h	c #3f9fdd",
"0i	c #47ace5",
"0j	c #c6c5d5",
"0k	c #9c96b7",
"0l	c #645f8a",
"0m	c #fefefe",
"0n	c #f8f9fa",
"0o	c #a19ebb",
"0p	c #585480",
"0q	c #9993b4",
"0r	c #fbfafb",
"0s	c #f4f2f6",
"0t	c #aca9c3",
"0u	c #514e7c",
"0v	c #8c88ab",
"0w	c #f0f1f4",
"0x	c #ebeaf0",
"0y	c #eeecf1",
"0z	c #737099",
"10	c #bdbbce",
"11	c #aaa5c0",
"12	c #746e98",
"13	c #eaeaee",
"14	c #e8e6ed",
"15	c #b3b0c7",
"16	c #cecbda",
"17	c #f1f1f4",
"18	c #9d97b5",
"19	c #827da2",
"1a	c #f0eef1",
"1b	c #f2f3f5",
"1c	c #e6e4ec",
"1d	c #cdcbda",
"1e	c #4c4979",
"1f	c #dedce4",
"1g	c #ebecef",
"1h	c #8c86a8",
"1i	c #f7f8f9",
"1j	c #e6e4eb",
"1k	c #d5d3df",
"1l	c #cccad9",
"1m	c #e9eaed",
"1n	c #8b84aa",
"1o	c #f8f7f9",
"1p	c #fcfcfd",
"1q	c #f4f5f7",
"1r	c #efedf2",
"1s	c #e7e5ec",
"1t	c #b5b3c9",
"1u	c #b0aac3",
"1v	c #eeedf2",
"1w	c #e8e6ec",
"1x	c #d4d2de",
"1y	c #504f7d",
"1z	c #dcdce4",
"20	c #e5e5ea",
"21	c #bebdce",
"22	c #d1d1dd",
"23	c #d1cfdd",
"24	c #4b4779",
"25	c #a6a1bd",
"26	c #e7e6eb",
"27	c #fafafc",
"28	c #f6f7f8",
"29	c #ececef",
"2a	c #b4b2c8",
"2b	c #c2c1d1",
"2c	c #d1cedc",
"2d	c #e0dde6",
"2e	c #d0c5d3",
"2f	c #3c87ca",
"2g	c #41a8e3",
"2h	c #9f99b7",
"2i	c #bab5cb",
"2j	c #edecf0",
"2k	c #fbfbfc",
"2l	c #d9d7e2",
"2m	c #d2d0de",
"2n	c #c7c5d5",
"2o	c #c7c4d4",
"2p	c #d4d3dd",
"2q	c #ebe1e6",
"2r	c #85c7e9",
"2s	c #49b0e6",
"2t	c #52b4e6",
"2u	c #3b9ada",
"2v	c #8d86a9",
"2w	c #827ba0",
"2x	c #7b719b",
"2y	c #635c88",
"2z	c #ccc8d9",
"30	c #d6d5de",
"31	c #e4d9e0",
"32	c #83c7e8",
"33	c #3fa8e4",
"34	c #0a3a9b",
"35	c #3586cd",
"36	c #52b2e5",
"37	c #3791d4",
"38	c #5e517f",
"39	c #cbbdcd",
"3a	c #82c7e8",
"3b	c #40ade7",
"3c	c #0c3c9c",
"3d	c #276ebc",
"3e	c #2b78c4",
"3f	c #3c95d5",
"3g	c #4ba7df",
"3h	c #3286ce",
"3i	c #4b96d0",
"3j	c #4eb9eb",
"3k	c #0a3b9b",
"3l	c #2163b3",
"3m	c #2970be",
"3n	c #2c79c5",
"3o	c #3185cd",
"3p	c #419edc",
"3q	c #439edb",
"3r	c #2e7dc9",
"3s	c #49b6ea",
"3t	c #60c2ed",
"3u	c #1854ac",
"3v	c #1f61b2",
"3w	c #296fbd",
"3x	c #2c7ac5",
"3y	c #45a8e1",
"3z	c #3c95d7",
"40	c #2974c1",
"41	c #46ace6",
"42	c #5bbfec",
"43	c #1853ac",
"44	c #2c7bc5",
"45	c #3e9fdd",
"46	c #4ab1e7",
"47	c #348cd0",
"48	c #40a3e1",
"49	c #54b5e8",
"4a	c #1750ac",
"4b	c #2b77c4",
"4c	c #3388cf",
"4d	c #4dbaec",
"4e	c #2d81cc",
"4f	c #2264b3",
"4g	c #3b9bdc",
"4h	c #4eade3",
"4i	c #164eaa",
"4j	c #3084cd",
"4k	c #3993d7",
"4l	c #46abe4",
"4m	c #4bb9eb",
"4n	c #2677c7",
"4o	c #1e5db0",
"4p	c #46a3df",
"4q	c #154ca7",
"4r	c #3792d5",
"4s	c #40a1de",
"4t	c #34abe6",
"4u	c #1c60b3",
"4v	c #3e99d9",
"4w	c #1448a5",
"4x	c #3d9cdd",
"4y	c #47ade5",
"4z	c #33a9e4",
"50	c #1a65b6",
"51	c #2e7fca",
"52	c #388fd4",
"53	c #1245a3",
"54	c #43a8e4",
"55	c #4db7ea",
"56	c #219edf",
"57	c #195aaf",
"58	c #2975c2",
"59	c #358fd3",
"5a	c #2780cd",
"5b	c #3db1e7",
"5c	c #27a1e1",
"5d	c #1c6dbe",
"5e	c #1853a8",
"5f	c #2569ba",
"5g	c #2371bf",
"5h	c #1e60b5",
"5i	c #1b57a8",
"        10161f1l1u                              ",
"        1117XXXXXX1z25                          ",
"          181gXXXXXX262h                        ",
"            061mXXXXXX2i                        ",
"06            1nXXXXXX2j2v                      ",
"0707        1h1oXX0dXX0d2w                      ",
"0jXX0q    19081p0b0b272k2x                      ",
"0k0m0r0v121a1i1q0c0c282l                        ",
"0l0n080w131b0a1r1v0a292m2y                      ",
"  0o0s0x09++++++09202a2n2z38                    ",
"  0p0t0y141c1j1s1w212b2o30393i3s                ",
"    0u0z151d1k1t1x222c2p313a3j3t41              ",
"          1e    1y232d2q323b3k3u4248            ",
"                  242e2r333c3l3v43494g          ",
"                    2f2s343d3m3w0f4a4h0e        ",
"                    2g2t353e3n3x444b4i4p..      ",
"                      2u363f3o....4c4j4q4v51    ",
"                        373g3p0e0g0g4k4r4w5258  ",
"                          3h3q3y450h0h4s4x5359  ",
"                            3r3z460i4l0i4y545a5f",
"                              40474d||||||//5b5g",
"                                0f4e4m////555c5h",
"                                  4f4n4t4z565d5i",
"                                    4o4u50575e  "};