/* XPM */
static char * xpm_yellow_pin[] = {
"24 24 189 2",
"  	c None",
"XX	c #e38f11",
"++	c #f6df62",
"..	c #fef8af",
"||	c #e28e11",
"//	c #fa9e16",
"06	c #e28f11",
"07	c #f9af16",
"08	c #f8bb12",
"09	c #bdbfc1",
"0a	c #a8abac",
"0b	c #b6b7ba",
"0c	c #afafb3",
"0d	c #b1b3b4",
"0e	c #686a6d",
"0f	c #b3b7b8",
"0g	c #aaacaf",
"0h	c #67686c",
"0i	c #b8babb",
"0j	c #a0a2a5",
"0k	c #65666a",
"0l	c #f5d95b",
"0m	c #f5d759",
"0n	c #f2cb4b",
"0o	c #bec0c3",
"0p	c #95999a",
"0q	c #66676b",
"0r	c #f4d355",
"0s	c #f6e669",
"0t	c #f7f074",
"0u	c #f6e264",
"0v	c #f2d151",
"0w	c #efc040",
"0x	c #f3b226",
"0y	c #bdc0c6",
"0z	c #8d8f91",
"10	c #696a6e",
"11	c #f4d151",
"12	c #f6e76b",
"13	c #f5dc5f",
"14	c #f2ce4e",
"15	c #eec03f",
"16	c #ecae2a",
"17	c #ecad33",
"18	c #83878d",
"19	c #5f6775",
"1a	c #eebe3e",
"1b	c #f1c848",
"1c	c #f4d153",
"1d	c #f3d255",
"1e	c #f4cf4e",
"1f	c #f0c745",
"1g	c #edb937",
"1h	c #eaac2a",
"1i	c #e89c1a",
"1j	c #d88b19",
"1k	c #edb233",
"1l	c #edbb3a",
"1m	c #f4d22a",
"1n	c #f7df5f",
"1o	c #f5d86c",
"1p	c #edb635",
"1q	c #ebb02e",
"1r	c #e8a323",
"1s	c #e59617",
"1t	c #e48e0f",
"1u	c #f2d319",
"1v	c #f8e659",
"1w	c #fcf193",
"1x	c #f5d830",
"1y	c #e8a422",
"1z	c #e6991b",
"20	c #e38f12",
"21	c #f5da19",
"22	c #f8e44e",
"23	c #fdf3a7",
"24	c #fcf095",
"25	c #f7dc33",
"26	c #f6d112",
"27	c #f3bb16",
"28	c #e18d13",
"29	c #e38e10",
"2a	c #f7e046",
"2b	c #fdf2a2",
"2c	c #fdf29f",
"2d	c #f7e03d",
"2e	c #f4d114",
"2f	c #f7c416",
"2g	c #fab815",
"2h	c #e69211",
"2i	c #f7df3b",
"2j	c #fcf19a",
"2k	c #fdf3a6",
"2l	c #f7e246",
"2m	c #f4d214",
"2n	c #f7c516",
"2o	c #f8b716",
"2p	c #faab16",
"2q	c #ed9614",
"2r	c #f4df2b",
"2s	c #f6e243",
"2t	c #faed89",
"2u	c #f9e65f",
"2v	c #fcee90",
"2w	c #fef5ae",
"2x	c #f8e351",
"2y	c #f4d414",
"2z	c #f7c716",
"30	c #f8ba16",
"31	c #f9ab16",
"32	c #ef9114",
"33	c #fab339",
"34	c #fab439",
"35	c #fccf6b",
"36	c #fef7be",
"37	c #fced85",
"38	c #f8e55c",
"39	c #f4d517",
"3a	c #f6c816",
"3b	c #f8bb16",
"3c	c #f9ad16",
"3d	c #f79314",
"3e	c #e58f12",
"3f	c #faa835",
"3g	c #f99610",
"3h	c #f99f11",
"3i	c #f9a30c",
"3j	c #fab21e",
"3k	c #fce787",
"3l	c #f5de38",
"3m	c #f4d312",
"3n	c #f6c916",
"3o	c #f8bc16",
"3p	c #f9a015",
"3q	c #f89616",
"3r	c #e08e10",
"3s	c #f9a322",
"3t	c #f9a114",
"3u	c #f9a814",
"3v	c #f9ad14",
"3w	c #f9b110",
"3x	c #f9b914",
"3y	c #f8de55",
"3z	c #f5cb15",
"40	c #f8be15",
"41	c #f9a216",
"42	c #fab02c",
"43	c #f9a812",
"44	c #f9af14",
"45	c #f9b413",
"46	c #f9ba12",
"47	c #f8bd11",
"48	c #f8cc2c",
"49	c #f8cc37",
"4a	c #f8b914",
"4b	c #f9a516",
"4c	c #fab934",
"4d	c #f9ae11",
"4e	c #f9b513",
"4f	c #f8c013",
"4g	c #f7c611",
"4h	c #f5c90c",
"4i	c #f9d64d",
"4j	c #f9af11",
"4k	c #f9b917",
"4l	c #f8c113",
"4m	c #f7c712",
"4n	c #f6cb10",
"4o	c #f6d10f",
"4p	c #f7d732",
"4q	c #f9aa20",
"4r	c #facd41",
"4s	c #f8c311",
"4t	c #f7c811",
"4u	c #f6cc0f",
"4v	c #f6d211",
"4w	c #f5d711",
"4x	c #f4e829",
"4y	c #faa124",
"4z	c #f8d643",
"50	c #f6cf12",
"51	c #f6d20e",
"52	c #f5d812",
"53	c #f4dd0f",
"54	c #f6e238",
"55	c #f99016",
"56	c #f6df2e",
"57	c #f5e221",
"58	c #f5e92f",
"                                3f3s424c        ",
"                              333g3t434d4k4r    ",
"                            2r343h3u444e084s4z  ",
"                            2s353i3v45084l4t50  ",
"                            2t363j3w464f4m4u5156",
"                            2u..3k3x474g4n4v5257",
"                          2i2v373l3y484h4o4w5358",
"                1a1k  212a2j2w383m3z494i4p4x54  ",
"            0r111b1l1u222b2k2x393n404a4j4q4y55  ",
"          0l0s++1c1m1v232c2l2y3a3o074b          ",
"          ++0t121d1n..242d2m2z3b0741            ",
"          0m0u131e1o1w252e2n303c3p              ",
"          0n0v141f1p1x262f2o31//3q              ",
"            0w151g1q1y272g2p//3d3r              ",
"            0x161h1r1z282h2q323eXX              ",
"              171i1s2029||||0606XX              ",
"            0y181j1tXXXXXXXXXXXXXX              ",
"          0o0z19    XXXXXXXXXXXX                ",
"        0i0p10          XXXXXX                  ",
"      0f0j0q                                    ",
"    0c0g0k                                      ",
"  0a0d0h                                        ",
"  0b0e                                          ",
"09                                              "};