/* XPM */
static char * xpm_yellow_tag[] = {
"24 24 225 2",
"  	c None",
"XX	c #ffffa2",
"++	c #c65500",
"..	c #ffbd00",
"||	c #ffc400",
"//	c #ffb800",
"06	c #ffce00",
"07	c #ffd200",
"08	c #ffb500",
"09	c #fffa2c",
"0a	c #ffbf00",
"0b	c #ffdb00",
"0c	c #ffd400",
"0d	c #ffd500",
"0e	c #ffe000",
"0f	c #ffca00",
"0g	c #c85700",
"0h	c #fee300",
"0i	c #fdf300",
"0j	c #ffcb00",
"0k	c #ffc000",
"0l	c #ffa500",
"0m	c #e07000",
"0n	c #eaa31c",
"0o	c #ffc200",
"0p	c #d36f00",
"0q	c #feef00",
"0r	c #ffcf00",
"0s	c #fef000",
"0t	c #ffd800",
"0u	c #ffd100",
"0v	c #ffb000",
"0w	c #fee700",
"0x	c #feeb00",
"0y	c #ffcc00",
"0z	c #ffad00",
"10	c #ffa000",
"11	c #ffd600",
"12	c #ffb100",
"13	c #fffa2d",
"14	c #ffda00",
"15	c #fad562",
"16	c #ffdd00",
"17	c #ffc300",
"18	c #ffae00",
"19	c #ffc600",
"1a	c #fffb2e",
"1b	c #ffdb30",
"1c	c #dc8000",
"1d	c #d97700",
"1e	c #d87800",
"1f	c #de8100",
"1g	c #eaad1f",
"1h	c #de8300",
"1i	c #df8404",
"1j	c #ebaf20",
"1k	c #ffe800",
"1l	c #ffdf00",
"1m	c #d87c00",
"1n	c #d16800",
"1o	c #e08906",
"1p	c #edb221",
"1q	c #feea00",
"1r	c #fee100",
"1s	c #d67500",
"1t	c #cd6300",
"1u	c #e18d09",
"1v	c #edb424",
"1w	c #fee400",
"1x	c #ffdc00",
"1y	c #ffc800",
"1z	c #d56d00",
"20	c #ca5c00",
"21	c #e2910c",
"22	c #eeb525",
"23	c #fee800",
"24	c #d26700",
"25	c #e69812",
"26	c #efbc2d",
"27	c #fef400",
"28	c #feec00",
"29	c #ffcd00",
"2a	c #ffc500",
"2b	c #ffbe00",
"2c	c #d16000",
"2d	c #e89a13",
"2e	c #f8cd5f",
"2f	c #fef100",
"2g	c #ffb900",
"2h	c #ffb400",
"2i	c #ffab00",
"2j	c #d16100",
"2k	c #c95700",
"2l	c #ea9e17",
"2m	c #f9ce5d",
"2n	c #fdf200",
"2o	c #ffb600",
"2p	c #ff9f00",
"2q	c #eaa31b",
"2r	c #f9d25e",
"2s	c #fff91b",
"2t	c #ffc900",
"2u	c #ffa900",
"2v	c #ffa100",
"2w	c #fad462",
"2x	c #fffa1b",
"2y	c #fdf100",
"2z	c #ffa600",
"30	c #ffa300",
"31	c #fffa23",
"32	c #fee600",
"33	c #ffaa00",
"34	c #e06f00",
"35	c #fffa2e",
"36	c #fffa35",
"37	c #fee900",
"38	c #fee200",
"39	c #ffa800",
"3a	c #eba61f",
"3b	c #fad662",
"3c	c #fffc2c",
"3d	c #fffd2e",
"3e	c #fffc2d",
"3f	c #fff834",
"3g	c #fee500",
"3h	c #ffb700",
"3i	c #e07200",
"3j	c #efb136",
"3k	c #fffa2b",
"3l	c #ffff2b",
"3m	c #fbe33d",
"3n	c #f6d032",
"3o	c #fadd3a",
"3p	c #fff537",
"3q	c #ffe500",
"3r	c #ffd900",
"3s	c #ffbb00",
"3t	c #ffb200",
"3u	c #e17800",
"3v	c #f6c44a",
"3w	c #ffff58",
"3x	c #fffe29",
"3y	c #f8cd41",
"3z	c #e89816",
"40	c #e18a07",
"41	c #eba933",
"42	c #ffe204",
"43	c #e27b00",
"44	c #c95800",
"45	c #fbdd65",
"46	c #ffff40",
"47	c #fff337",
"48	c #e99d1e",
"49	c #dd8200",
"4a	c #fcd34e",
"4b	c #ffbc00",
"4c	c #ffba00",
"4d	c #e27d00",
"4e	c #ca5b00",
"4f	c #eaa318",
"4g	c #ffeb76",
"4h	c #ffff35",
"4i	c #ffef3c",
"4j	c #e89913",
"4k	c #f7c55c",
"4l	c #e38100",
"4m	c #cb6100",
"4n	c #eaa21c",
"4o	c #fff682",
"4p	c #fffb27",
"4q	c #fff735",
"4r	c #e99b21",
"4s	c #dc7f00",
"4t	c #fed56e",
"4u	c #ffd711",
"4v	c #e58600",
"4w	c #cc6200",
"4x	c #eea82a",
"4y	c #ffff72",
"4z	c #fffa29",
"50	c #fffe2d",
"51	c #f9d538",
"52	c #e5961c",
"53	c #df8904",
"54	c #de8604",
"55	c #f3bd52",
"56	c #fff278",
"57	c #ffd621",
"58	c #e58800",
"59	c #ce6700",
"5a	c #eea82b",
"5b	c #ffff68",
"5c	c #fffa2a",
"5d	c #fff257",
"5e	c #ffea79",
"5f	c #ffea7e",
"5g	c #fff270",
"5h	c #ea9808",
"5i	c #d16a00",
"5j	c #eba41f",
"5k	c #fee759",
"5l	c #fffe2a",
"5m	c #fffa30",
"5n	c #fff32f",
"5o	c #fff02a",
"5p	c #ffe927",
"5q	c #ffe526",
"5r	c #ffe027",
"5s	c #ffdb2e",
"5t	c #f0ab2f",
"5u	c #eca72a",
"5v	c #fbe141",
"5w	c #ffff31",
"5x	c #fff831",
"5y	c #ffdf39",
"5z	c #fcd137",
"60	c #f4bd28",
"61	c #e99f21",
"62	c #df8814",
"63	c #d67000",
"64	c #ea9d19",
"65	c #e89a22",
"66	c #e5951e",
"67	c #e18c0b",
"68	c #de8303",
"                                  4f4n4x5a5j    ",
"                          3a3j3v454g4o4y5b5k5u  ",
"                        0n3bXX3w464h4p4z5c5l5v64",
"                      0n15XX3k3x474i4q501a5m5w65",
"                    0n15XX093l3y484j4r511a5n5x66",
"                  2q2wXX093c3m3z      525d5o5y67",
"                2l2rXX09093d3n        535e5p5z68",
"              2d2mXX1313353e3o40      545f5q60  ",
"            252eXX2s2x31363f3p4149  4s555g5r61  ",
"          2126XX2n0i2y0q373g3q424a4k4t561b5s62  ",
"        1u22XX0i0i0s0x3238163r0d07074u571b5t63  ",
"      1o1vXX272f0x0w0h16140d0u060f||0o0o5h0p    ",
"    1i1pXX0s280w0h0e141107060j190o0a0a585i      ",
"  1f1jXX0q230h0e0b1107060j19170a4b..4v59        ",
"1c1gXX1q1w0e0b0t0c0r0y0f170a3s//4c4l4w          ",
"1dXX1k1r1x0t0c060y2t||0k..3h08084d4m            ",
"1e1h1l0b0d0u290j||0k..//080v3t434e              ",
"  0p1m0c0r0f2a0k..//081218183u44                ",
"    1n1s1y||2b2g2o120z33393i++                  ",
"      1t1z..//2h0z2u2z0l0m++                    ",
"        20240v2i0l2v3034++                      ",
"          0g2c0l2p100m++                        ",
"            0g2j100m++                          ",
"              2k++0g                            "};