/* XPM */
static char * xpm_yes[] = {
"24 24 155 2",
"  	c None",
"XX	c #00960b",
"++	c #00930a",
"..	c #21d728",
"||	c #00920a",
"//	c #00970b",
"06	c #009509",
"07	c #009005",
"08	c #20d627",
"09	c #009407",
"0a	c #009306",
"0b	c #00940b",
"0c	c #00950b",
"0d	c #22d929",
"0e	c #18d420",
"0f	c #0cad15",
"0g	c #06a110",
"0h	c #009208",
"0i	c #44bf25",
"0j	c #009107",
"0k	c #73dc3b",
"0l	c #97f41a",
"0m	c #5ccf16",
"0n	c #00920b",
"0o	c #009207",
"0p	c #73db3a",
"0q	c #91f018",
"0r	c #8bed1b",
"0s	c #91f11c",
"0t	c #59cf16",
"0u	c #59cb48",
"0v	c #9ef931",
"0w	c #83ea19",
"0x	c #81eb1c",
"0y	c #82eb1c",
"0z	c #86ef1d",
"10	c #51cd17",
"11	c #009105",
"12	c #89e767",
"13	c #90f333",
"14	c #7ae91c",
"15	c #7ae81e",
"16	c #78e81e",
"17	c #7cec1f",
"18	c #4bcc17",
"19	c #009004",
"1a	c #80e45f",
"1b	c #7aeb22",
"1c	c #6fe61f",
"1d	c #70e620",
"1e	c #6ee620",
"1f	c #71e721",
"1g	c #46ca19",
"1h	c #76df58",
"1i	c #70e825",
"1j	c #66e420",
"1k	c #66e421",
"1l	c #64e321",
"1m	c #66e622",
"1n	c #3fc819",
"1o	c #71df59",
"1p	c #65e627",
"1q	c #5ce01f",
"1r	c #5de121",
"1s	c #5ce123",
"1t	c #5fe424",
"1u	c #3ac71c",
"1v	c #6bdd58",
"1w	c #59e325",
"1x	c #54de22",
"1y	c #53df23",
"1z	c #50df23",
"20	c #51e124",
"21	c #32c51c",
"22	c #12a21b",
"23	c #abff8f",
"24	c #47dc20",
"25	c #49de25",
"26	c #48dc25",
"27	c #46dc25",
"28	c #4ae327",
"29	c #1bb317",
"2a	c #23af2a",
"2b	c #b3ff9e",
"2c	c #54e335",
"2d	c #3fdb23",
"2e	c #3fdc25",
"2f	c #3eda25",
"2g	c #3fde28",
"2h	c #15af15",
"2i	c #009205",
"2j	c #3dbf3f",
"2k	c #b9ffa9",
"2l	c #49e136",
"2m	c #36d923",
"2n	c #37da26",
"2o	c #35db26",
"2p	c #37de28",
"2q	c #12af15",
"2r	c #009103",
"2s	c #49c74c",
"2t	c #a2ff96",
"2u	c #31d923",
"2v	c #2fd823",
"2w	c #2fd926",
"2x	c #2fda26",
"2y	c #2cd827",
"2z	c #09a410",
"30	c #009001",
"31	c #6ce26d",
"32	c #9aff94",
"33	c #2ad627",
"34	c #28d826",
"35	c #27d728",
"36	c #28d828",
"37	c #28d928",
"38	c #049f0f",
"39	c #008f00",
"3a	c #6be06e",
"3b	c #94ff96",
"3c	c #24d626",
"3d	c #23d626",
"3e	c #22d728",
"3f	c #23d929",
"3g	c #1cce24",
"3h	c #029b0d",
"3i	c #8dfc91",
"3j	c #75fa79",
"3k	c #17d31f",
"3l	c #1fd626",
"3m	c #20d728",
"3n	c #1dcf25",
"3o	c #00960a",
"3p	c #8cfb91",
"3q	c #73f978",
"3r	c #18c521",
"3s	c #009609",
"3t	c #15a61f",
"3u	c #a3ffa7",
"3v	c #73f977",
"3w	c #22da29",
"3x	c #17c21f",
"3y	c #009309",
"3z	c #87f88b",
"40	c #5aee5f",
"41	c #19d420",
"42	c #23db2a",
"43	c #11b71b",
"44	c #009305",
"45	c #1dd223",
"46	c #23dc2a",
"47	c #00950a",
"48	c #059f0f",
"49	c #23d928",
"4a	c #22d928",
"                                                ",
"                                                ",
"                                                ",
"                                                ",
"                                                ",
"                                    3s0a        ",
"                                  063t3z44//    ",
"                                  093u404548XX  ",
"                                063p3v41..490g//",
"        06                    393i3q0e08..4a0g//",
"      0o0u11                303a3j0e08..460fXX  ",
"    0j0p0v1219            2r313b3k08..420f0c    ",
"  0h0k0q0w131a07        2i2s323c3l..3w4347      ",
"XX0i0l0r0x141b1h07    0a2j2t333d3m0d3x++        ",
"  ++0m0s0y151c1i1o07092a2k2u343e0d3r3y          ",
"    0n0t0z161d1j1p1v222b2l2v353f3nXX            ",
"      ||10171e1k1q1w232c2m2w363g3o              ",
"        ||181f1l1r1x242d2n2x373h//              ",
"          ||1g1m1s1y252e2o2y38XX                ",
"            ||1n1t1z262f2p2zXX                  ",
"              ++1u20272g2q0c                    ",
"                ++21282h0b                      ",
"                  ++290b                        ",
"                    XX                          "};