/* XPM */
static char * xpm_zoom[] = {
"24 24 252 2",
"  	c None",
"XX	c #d5f1f5",
"++	c #d5f1f6",
"..	c #d6f1f6",
"||	c #d2eff7",
"//	c #d7f1f6",
"06	c #cdebf4",
"07	c #d9f1f7",
"08	c #404042",
"09	c #c5c4c8",
"0a	c #dff4f8",
"0b	c #fcfeff",
"0c	c #def2f8",
"0d	c #d8f1f6",
"0e	c #d4f0f5",
"0f	c #d8f1f7",
"0g	c #bfe0f0",
"0h	c #afd4ec",
"0i	c #daf3f8",
"0j	c #c0e0f1",
"0k	c #bddeef",
"0l	c #c6e5f2",
"0m	c #2f2f31",
"0n	c #3e4042",
"0o	c #a19eab",
"0p	c #b7b2bb",
"0q	c #bdbbbf",
"0r	c #b5b2b9",
"0s	c #a09ba5",
"0t	c #c4c4c8",
"0u	c #d9dedd",
"0v	c #dbe7ea",
"0w	c #e1f0f4",
"0x	c #dfeff3",
"0y	c #dde8ee",
"0z	c #cedbe2",
"10	c #d6d7d8",
"11	c #bdbbc0",
"12	c #aaa8b0",
"13	c #cdcfd1",
"14	c #dfedef",
"15	c #e7f8fc",
"16	c #e5f6fa",
"17	c #e4f6fa",
"18	c #e1f4f9",
"19	c #c6e6f4",
"1a	c #bbddef",
"1b	c #c6d2dd",
"1c	c #c9c8cb",
"1d	c #96939d",
"1e	c #caccce",
"1f	c #e7f5f8",
"1g	c #e8f8fc",
"1h	c #e7f6fa",
"1i	c #e5f5fa",
"1j	c #d3f2f7",
"1k	c #ceecf4",
"1l	c #c1e1f1",
"1m	c #b0d9ef",
"1n	c #c0cfda",
"1o	c #bfbfc1",
"1p	c #b6b7bc",
"1q	c #e1ecef",
"1r	c #ebfafc",
"1s	c #ecf7fb",
"1t	c #f3fafc",
"1u	c #eaf9f9",
"1v	c #d7f0f7",
"1w	c #c7e5f2",
"1x	c #badbf0",
"1y	c #a6d0ec",
"1z	c #c3ccd5",
"20	c #a1a0a6",
"21	c #8e8a92",
"22	c #cbced0",
"23	c #f2fdff",
"24	c #ecf8fb",
"25	c #fbfffe",
"26	c #fcfffe",
"27	c #cae8f4",
"28	c #bedeef",
"29	c #add3ec",
"2a	c #a9c9e4",
"2b	c #bcbcbd",
"2c	c #9997a0",
"2d	c #dee4e7",
"2e	c #f1fbfe",
"2f	c #effafc",
"2g	c #fefffe",
"2h	c #fcfefe",
"2i	c #e0f3f7",
"2j	c #9dc9ec",
"2k	c #c0c6cd",
"2l	c #7c7381",
"2m	c #a6a6ac",
"2n	c #e8f1f4",
"2o	c #f1fbfd",
"2p	c #f4fafc",
"2q	c #f6fbfc",
"2r	c #f8fdfd",
"2s	c #eef8fb",
"2t	c #ceebf4",
"2u	c #b2d5ec",
"2v	c #9ecaea",
"2w	c #b6c2ce",
"2x	c #8b8891",
"2y	c #a1a1a6",
"2z	c #e5f0f2",
"30	c #f0fafd",
"31	c #f0fafc",
"32	c #eff9fb",
"33	c #e3f4f9",
"34	c #dbf2f8",
"35	c #9fc9ea",
"36	c #b3becb",
"37	c #847f88",
"38	c #97979e",
"39	c #e1edef",
"3a	c #edfafd",
"3b	c #edf8fb",
"3c	c #ecf9fb",
"3d	c #ddf3f8",
"3e	c #daf2f7",
"3f	c #cbe8f4",
"3g	c #add2eb",
"3h	c #9ec8e9",
"3i	c #b2bccb",
"3j	c #837f89",
"3k	c #86838b",
"3l	c #d0dbdd",
"3m	c #ebfafd",
"3n	c #eaf8fa",
"3o	c #e9f7fa",
"3p	c #dcf3f8",
"3q	c #dbf2f7",
"3r	c #b9daee",
"3s	c #a9d0ea",
"3t	c #9ac5eb",
"3u	c #b6b9bc",
"3v	c #6a626f",
"3w	c #6a656f",
"3x	c #b6bcc0",
"3y	c #eefdff",
"3z	c #e8f7fb",
"40	c #e8f7fa",
"41	c #d9f2f7",
"42	c #b3d7ec",
"43	c #a4cceb",
"44	c #a1bcda",
"45	c #99979a",
"46	c #929296",
"47	c #cedcdf",
"48	c #eaf9ff",
"49	c #e6f6fb",
"4a	c #d8f0f7",
"4b	c #d5f0f5",
"4c	c #d0ecf5",
"4d	c #badbef",
"4e	c #acd0ec",
"4f	c #9fc7ea",
"4g	c #aab2b7",
"4h	c #726e76",
"4i	c #5c565f",
"4j	c #a0a3a6",
"4k	c #d4e4e6",
"4l	c #e9fafe",
"4m	c #d0edf5",
"4n	c #c7e5f3",
"4o	c #b1d6ed",
"4p	c #a4d0ef",
"4q	c #a3b2c6",
"4r	c #858188",
"4s	c #9e99a6",
"4t	c #65606c",
"4u	c #9c9ca2",
"4v	c #cad9dd",
"4w	c #e0f7fb",
"4x	c #d5f2fb",
"4y	c #cfedf7",
"4z	c #c7e7f4",
"50	c #bfe0f1",
"51	c #b3dbf1",
"52	c #a7cae3",
"53	c #a4abb6",
"54	c #85848a",
"55	c #c1c2c6",
"56	c #c8ccce",
"57	c #69686d",
"58	c #3a3c3d",
"59	c #555059",
"5a	c #7f7e83",
"5b	c #a1a7a9",
"5c	c #acbdc4",
"5d	c #b4cbd7",
"5e	c #b0c6d5",
"5f	c #aac3d3",
"5g	c #a1a9b4",
"5h	c #989698",
"5i	c #656168",
"5j	c #908b98",
"5k	c #c8c9cd",
"5l	c #818387",
"5m	c #444445",
"5n	c #939599",
"5o	c #3c3c3f",
"5p	c #706e75",
"5q	c #6d696f",
"5r	c #6d686f",
"5s	c #747379",
"5t	c #676369",
"5u	c #5c5b62",
"5v	c #404143",
"5w	c #a5a7ad",
"5x	c #989b9f",
"5y	c #7b7e82",
"5z	c #38393b",
"60	c #76787d",
"61	c #9c9fa3",
"62	c #88898d",
"63	c #7b7d82",
"64	c #65676b",
"65	c #343335",
"66	c #29292b",
"67	c #65666a",
"68	c #7f8085",
"69	c #6f7074",
"6a	c #626569",
"6b	c #515455",
"6c	c #242525",
"6d	c #545455",
"6e	c #67686b",
"6f	c #57585d",
"6g	c #4e4f52",
"6h	c #2a292b",
"6i	c #232022",
"6j	c #434345",
"6k	c #515255",
"6l	c #444648",
"6m	c #3c3c40",
"6n	c #343437",
"6o	c #252325",
"6p	c #1e1b1d",
"6q	c #373638",
"6r	c #37383a",
"6s	c #272626",
"6t	c #2f2c30",
"6u	c #1b1919",
"6v	c #2c2b2d",
"6w	c #272526",
"6x	c #161314",
"6y	c #282528",
"6z	c #4f4854",
"          212c2m2y383k3w                        ",
"      1d1p222d2n2z393l3x464i                    ",
"    121e1q232e2o303a3m3y474j4t                  ",
"  0s131f1r242f2p313b3n3z484k4u59                ",
"  0t141g1s252g2q323c3o40494l4v5a                ",
"0o0u151h1t262h2r330a3p414a0i4w5b                ",
"0p0v161i1u0b0b2s0c3d3q07//XX4x5c5p              ",
"090w170a1v0c2i0i343e07//++XX4y5d5q              ",
"090x181j//0d0f070f0d..++4b4m4z5e5r              ",
"0q0y||XXXX++......++XXXX4c4n505f5s              ",
"0r0z191k||0eXXXXXX0e||060l0k515g5t              ",
"  101a1l1w27062t063f0l0j4d4o525h                ",
"  111b1m1x280g0j0g0k3r424e4p535i                ",
"    1c1n1y290h2u0h3g3s434f4q545j                ",
"      1o1z2a2j2v353h3t444g4r555k5u0m            ",
"        202b2k2w363i3u454h4s565l5v6066          ",
"            2l2x373j3v      575m5w61676c        ",
"                            585n5x62686d6i      ",
"                              5o5y63696e6j6p    ",
"                                5z646a6f6k6q6u  ",
"                                  656b6g6l0n6v6x",
"                                    0m086m6r6w6y",
"                                      6h6n6s0n08",
"                                        6o6t086z"};