/* XPM */
static char * button_add_xpm[] = {
"24 24 179 2",
"  	c None",
". 	c #2E900C",
"+ 	c #2E8C0D",
"@ 	c #2E880E",
"# 	c #2E8D0C",
"$ 	c #509B36",
"% 	c #B6EAA6",
"& 	c #B1DAA4",
"* 	c #ADD79F",
"= 	c #A9D69A",
"- 	c #A6D795",
"; 	c #A2E48D",
"> 	c #4E9A34",
", 	c #B0E49F",
"' 	c #ABCF9E",
") 	c #A7CE9A",
"! 	c #A3CD94",
"~ 	c #9FCD8F",
"{ 	c #9CE086",
"] 	c #4D9932",
"^ 	c #A9E397",
"/ 	c #A5CD97",
"( 	c #A1CC92",
"_ 	c #9DCC8D",
": 	c #99CB87",
"< 	c #95DE7F",
"[ 	c #4B9930",
"} 	c #A3E190",
"| 	c #9ECB8F",
"1 	c #9ACB8A",
"2 	c #96CA85",
"3 	c #93CA80",
"4 	c #8FDD77",
"5 	c #4A982E",
"6 	c #9DDF88",
"7 	c #98C988",
"8 	c #94C983",
"9 	c #91C97D",
"0 	c #8DC978",
"a 	c #89DC6F",
"b 	c #48972C",
"c 	c #97DE81",
"d 	c #92C880",
"e 	c #8EC87B",
"f 	c #8BC876",
"g 	c #86C870",
"h 	c #83DA68",
"i 	c #47962B",
"j 	c #91DD79",
"k 	c #8CC778",
"l 	c #88C773",
"m 	c #84C76E",
"n 	c #80C869",
"o 	c #7DD960",
"p 	c #459529",
"q 	c #8ADB71",
"r 	c #86C671",
"s 	c #82C66B",
"t 	c #7EC766",
"u 	c #7AC761",
"v 	c #76D858",
"w 	c #A4E790",
"x 	c #A0DF8C",
"y 	c #9CDE87",
"z 	c #98DD82",
"A 	c #94DD7D",
"B 	c #90DC78",
"C 	c #8CDB73",
"D 	c #88DA6F",
"E 	c #84D56A",
"F 	c #80C569",
"G 	c #7CC663",
"H 	c #78C65E",
"I 	c #74C759",
"J 	c #70D351",
"K 	c #6CD64C",
"L 	c #68D646",
"M 	c #44CC1A",
"N 	c #30C800",
"O 	c #30C900",
"P 	c #30CA00",
"Q 	c #30C701",
"R 	c #2FBA03",
"S 	c #9ED18D",
"T 	c #99C58A",
"U 	c #95C485",
"V 	c #91C480",
"W 	c #8DC47A",
"X 	c #89C475",
"Y 	c #85C470",
"Z 	c #82C46B",
"` 	c #7EC466",
" .	c #7AC561",
"..	c #76C55C",
"+.	c #72C656",
"@.	c #6EC751",
"#.	c #6AC84C",
"$.	c #65C946",
"%.	c #43C01B",
"&.	c #2FBD03",
"*.	c #30C102",
"=.	c #30C501",
"-.	c #30CB00",
";.	c #2FC401",
">.	c #2E8A0D",
",.	c #97CC85",
"'.	c #93C382",
").	c #8FC37D",
"!.	c #8BC378",
"~.	c #87C273",
"{.	c #83C36E",
"].	c #7FC369",
"^.	c #7BC364",
"/.	c #77C45E",
"(.	c #74C459",
"_.	c #6FC554",
":.	c #6BC64E",
"<.	c #67C749",
"[.	c #63C844",
"}.	c #42C01A",
"|.	c #30CC00",
"1.	c #91CA7E",
"2.	c #8DC27B",
"3.	c #89C176",
"4.	c #85C170",
"5.	c #81C26B",
"6.	c #7DC266",
"7.	c #79C261",
"8.	c #75C35B",
"9.	c #71C356",
"0.	c #6DC451",
"a.	c #69C54B",
"b.	c #65C646",
"c.	c #61C841",
"d.	c #41C019",
"e.	c #2FC202",
"f.	c #8BC976",
"g.	c #87C073",
"h.	c #82C06E",
"i.	c #7FC068",
"j.	c #7BC163",
"k.	c #77C15E",
"l.	c #73C259",
"m.	c #6FC353",
"n.	c #6BC44E",
"o.	c #67C449",
"p.	c #63C644",
"q.	c #5FC73E",
"r.	c #40BF18",
"s.	c #2E890D",
"t.	c #85DC6A",
"u.	c #81D766",
"v.	c #7DD761",
"w.	c #79D65C",
"x.	c #75D657",
"y.	c #71D552",
"z.	c #6DD44D",
"A.	c #69D448",
"B.	c #65D044",
"C.	c #61C541",
"D.	c #5DC63B",
"E.	c #3FBF17",
"F.	c #30C601",
"G.	c #2FC002",
"H.	c #2FB504",
"I.	c #2FAF05",
"J.	c #2FAA06",
"K.	c #2E9A0A",
"L.	c #5FD33B",
"M.	c #5AC539",
"N.	c #3FBF16",
"O.	c #59D234",
"P.	c #3EBF15",
"Q.	c #3DCB12",
"R.	c #2FBE02",
"S.	c #2E9B0A",
"T.	c #2E910C",
"U.	c #2E920B",
"V.	c #2E8E0C",
"                  . + @ @ # .                   ",
"                $ % & * = - ; @                 ",
"                > , ' ) ! ~ { @                 ",
"                ] ^ / ( _ : < @                 ",
"                [ } | 1 2 3 4 @                 ",
"                5 6 7 8 9 0 a @                 ",
"                b c d e f g h @                 ",
"                i j k l m n o @                 ",
"  @ @ @ @ @ @ @ p q r s t u v @ @ @ @ @ @ @ @   ",
". w x y z A B C D E F G H I J K L M N O P Q R # ",
"+ S T U V W X Y Z `  ...+.@.#.$.%.&.*.=.N -.;.>.",
"@ ,.'.).!.~.{.].^./.(._.:.<.[.}.&.*.=.N -.|.;.@ ",
"@ 1.2.3.4.5.6.7.8.9.0.a.b.c.d.&.*.=.N -.|.|.e.@ ",
"# f.g.h.i.j.k.l.m.n.o.p.q.r.&.*.=.N -.|.|.|.&.s.",
". t.u.v.w.x.y.z.A.B.C.D.E.&.F.O =.G.R H.I.J.K.s.",
"  @ @ @ @ @ @ @ @ L.M.N.&.*.O @ @ @ @ @ @ @ @   ",
"                @ O.P.&.*.=.=.@                 ",
"                @ Q.&.*.=.N G.@                 ",
"                @ N *.=.N -.R @                 ",
"                @ O =.N -.|.H.@                 ",
"                @ P N -.|.|.I.@                 ",
"                @ Q -.|.|.|.J.@                 ",
"                @ R.;.;.e.&.S.@                 ",
"                  T.U.. V.+ s.                  "};
