/* XPM */
static char * button_edit_xpm[] = {
"24 24 225 2",
"  	c None",
". 	c #CE4B4B",
"+ 	c #D04949",
"@ 	c #808080",
"# 	c #7F7F7F",
"$ 	c #7F8080",
"% 	c #7C745B",
"& 	c #DCA01D",
"* 	c #D8513D",
"= 	c #CD2222",
"- 	c #C11D1D",
"; 	c #EFEFF0",
"> 	c #E6E7E8",
", 	c #E8E9E9",
"' 	c #E9EAEA",
") 	c #EAEBEB",
"! 	c #EBECEC",
"~ 	c #ECEDED",
"{ 	c #EDEEEE",
"] 	c #EEEFEF",
"^ 	c #EFEFEF",
"/ 	c #EFF0F0",
"( 	c #F0F0F0",
"_ 	c #F0F1F1",
": 	c #EDEADC",
"< 	c #EBBE30",
"[ 	c #D1A51B",
"} 	c #442E22",
"| 	c #AC1010",
"1 	c #B80505",
"2 	c #B40909",
"3 	c #F0F0F1",
"4 	c #F1F2F2",
"5 	c #F2F2F2",
"6 	c #F0EFE9",
"7 	c #EAC141",
"8 	c #E1B321",
"9 	c #3E3824",
"0 	c #1D1D1D",
"a 	c #372102",
"b 	c #AE2B02",
"c 	c #7F0303",
"d 	c #F1F1F2",
"e 	c #EDEDED",
"f 	c #EEEEEE",
"g 	c #F1F1F1",
"h 	c #F2F3F3",
"i 	c #F3F3F3",
"j 	c #F3F4F4",
"k 	c #F3F3F1",
"l 	c #EAC759",
"m 	c #EDBE28",
"n 	c #50472A",
"o 	c #212121",
"p 	c #1F1906",
"q 	c #BF9001",
"r 	c #B68705",
"s 	c #ECECEC",
"t 	c #F4F4F4",
"u 	c #F4F5F5",
"v 	c #F5F5F5",
"w 	c #EBCF77",
"x 	c #F4C634",
"y 	c #685C36",
"z 	c #232323",
"A 	c #1A170D",
"B 	c #B08603",
"C 	c #C89906",
"D 	c #F5F6F6",
"E 	c #F6F6F6",
"F 	c #EED997",
"G 	c #F5CA3E",
"H 	c #847648",
"I 	c #242424",
"J 	c #1A1915",
"K 	c #9D7703",
"L 	c #E2B017",
"M 	c #F6F7F7",
"N 	c #F7F7F7",
"O 	c #F1E2B4",
"P 	c #F5CC48",
"Q 	c #A2925D",
"R 	c #1D1D1C",
"S 	c #876704",
"T 	c #E3AF0E",
"U 	c #D0C399",
"V 	c #F8F8F8",
"W 	c #F4EACB",
"X 	c #F4CE54",
"Y 	c #BDAA6E",
"Z 	c #282828",
"` 	c #705707",
" .	c #E4AF0A",
"..	c #CDBA7D",
"+.	c #CECECE",
"@.	c #F6F0DD",
"#.	c #F4D163",
"$.	c #D0BB76",
"%.	c #31312F",
"&.	c #5D490E",
"*.	c #E3AE09",
"=.	c #CFB563",
"-.	c #C1C1C1",
";.	c #D9D9D9",
">.	c #F7F8F8",
",.	c #F9F9F9",
"'.	c #F7F4EA",
").	c #F3D471",
"!.	c #DFC77A",
"~.	c #3D3C38",
"{.	c #4D3F15",
"].	c #DFAA09",
"^.	c #D5B34B",
"/.	c #B5B5B5",
"(.	c #CDCDCD",
"_.	c #F9F7F3",
":.	c #F3D77E",
"<.	c #EBD17F",
"[.	c #4B483F",
"}.	c #40371B",
"|.	c #D7A509",
"1.	c #DBB437",
"2.	c #ABAAA7",
"3.	c #C0C0C0",
"4.	c #E2E2E2",
"5.	c #FAFAFA",
"6.	c #F9F9F8",
"7.	c #F2D987",
"8.	c #F2D883",
"9.	c #5C5644",
"0.	c #35301F",
"a.	c #CC9D0B",
"b.	c #E2B527",
"c.	c #A3A097",
"d.	c #B4B4B4",
"e.	c #D7D7D7",
"f.	c #FEFEFE",
"g.	c #F2DB91",
"h.	c #F6DB82",
"i.	c #6E6445",
"j.	c #2D2A22",
"k.	c #BF930D",
"l.	c #E9B81C",
"m.	c #9E9885",
"n.	c #A8A8A8",
"o.	c #CACACA",
"p.	c #F1DEA2",
"q.	c #F7D56A",
"r.	c #82723E",
"s.	c #262523",
"t.	c #AD8711",
"u.	c #EFBB15",
"v.	c #9D9373",
"w.	c #9C9C9C",
"x.	c #BBBBBB",
"y.	c #EAEAEA",
"z.	c #FBFBFB",
"A.	c #FCFCFD",
"B.	c #F8F9F9",
"C.	c #DFCD9F",
"D.	c #9E873E",
"E.	c #242423",
"F.	c #987814",
"G.	c #F3BD11",
"H.	c #A09160",
"I.	c #909090",
"J.	c #ABABAB",
"K.	c #DBDBDB",
"L.	c #F1F2F3",
"M.	c #EEE9E0",
"N.	c #D7C9A0",
"O.	c #B3A16A",
"P.	c #363328",
"Q.	c #7F6617",
"R.	c #F5BE0F",
"S.	c #A8924E",
"T.	c #848484",
"U.	c #DFE0E0",
"V.	c #D3D3D3",
"W.	c #C9CACA",
"X.	c #CDCECE",
"Y.	c #919495",
"Z.	c #E0D5BB",
"`.	c #CAB575",
" +	c #BDA24B",
".+	c #B4983C",
"++	c #E5B51F",
"@+	c #BDA145",
"#+	c #8E8E8E",
"$+	c #ACACAC",
"%+	c #C8C8C8",
"&+	c #D6D6D6",
"*+	c #BABABB",
"=+	c #B7B7B8",
"-+	c #A2A2A1",
";+	c #968C71",
">+	c #C0A756",
",+	c #BDA24C",
"'+	c #BBA871",
")+	c #BEB7A6",
"!+	c #D4D3D3",
"~+	c #E2E2E3",
"{+	c #C0C0C1",
"]+	c #D3D4D4",
"^+	c #B3B3B2",
"/+	c #D9D8D8",
"(+	c #2A2A2A",
"_+	c #8A8167",
":+	c #E4DDCC",
"<+	c #FDFDFD",
"[+	c #D5D6D6",
"}+	c #ACADAE",
"|+	c #B6B6B5",
"1+	c #F9FAFA",
"2+	c #C9C8C7",
"3+	c #CCCCCB",
"4+	c #FCFCFC",
"5+	c #CDCDCE",
"6+	c #B6B7B8",
"7+	c #AEAFAE",
"8+	c #CFD1D2",
"9+	c #919393",
"0+	c #7E7E7E",
"a+	c #787A7B",
"b+	c #5F6365",
"                                        . +     ",
"      @ # # # # $ @ @ @ @ @ @ @ @ @ % & * = -   ",
"      ; > , ' ) ! ~ { ] ^ / ( _ _ : < [ } | 1 2 ",
"      3 , ) ! ~ { ] / ( _ 4 4 5 6 7 8 9 0 a b c ",
"      d ) ! e f ^ ( g 4 h i j k l m n o p q r   ",
"      h s { ] / _ 4 h i t u v w x y z A B C     ",
"      i { ] / g 5 i t v D E F G H I J K L       ",
"      t ] ( g h j u D M N O P Q I R S T U       ",
"      u / g h j v E N V W X Y Z o `  ...+.      ",
"      v g 5 j v E N V @.#.$.%.z &.*.=.-.;.      ",
"      E 5 j v E >.,.'.).!.~.z {.].^./.(.s       ",
"      M i u E N ,._.:.<.[.I }.|.1.2.3.4.5.      ",
"      N t D N V 6.7.8.9.I 0.a.b.c.d.e.N f.      ",
"      >.v E V ,.g.h.i.I j.k.l.m.n.o.i f.f.      ",
"      V D N ,.p.q.r.I s.t.u.v.w.x.y.5.z.A.      ",
"      B.E V ,.C.D.I E.F.G.H.I.J.K.( f f L.      ",
"      ,.N V M.N.O.P.Q.R.S.T.w.o.U.V.W.X.Y.      ",
"      ,.N ,.Z.`. +.+++@+#+$+%+&+*+=+(.-+        ",
"      ,.>.,.;+>+,+'+)+!+y.( ~+{+]+N ^+          ",
"      ,.V /+(+_+:+t z.f.<+i [+}+4.|+            ",
"      1+V 2+3+z.4+<+<+f.4+( 5+6+7+              ",
"      1+V ,.5.z.4+4+<+f.4+( 8+9+                ",
"      0+0+0+# # # # # # 0+a+b+                  ",
"                                                "};
