/* XPM */
static char * button_prior_xpm[] = {
"24 24 144 2",
"  	c None",
". 	c #838383",
"+ 	c #808080",
"@ 	c #7F7F7F",
"# 	c #7B7B7B",
"$ 	c #767676",
"% 	c #727272",
"& 	c #6F6F6F",
"* 	c #6C6C6C",
"= 	c #696969",
"- 	c #858585",
"; 	c #9B9B9B",
"> 	c #A7A7A7",
", 	c #777777",
"' 	c #6E6E6E",
") 	c #686868",
"! 	c #CFCFCF",
"~ 	c #DEDEDE",
"{ 	c #E4E4E4",
"] 	c #E6E6E6",
"^ 	c #E5E5E5",
"/ 	c #E1E1E1",
"( 	c #DADADA",
"_ 	c #CDCDCD",
": 	c #747474",
"< 	c #737373",
"[ 	c #C4C4C4",
"} 	c #EDEDED",
"| 	c #F1F1F1",
"1 	c #F3F3F3",
"2 	c #E7E7E7",
"3 	c #DCDCDC",
"4 	c #C2C2C2",
"5 	c #717171",
"6 	c #CECECE",
"7 	c #EBEBEB",
"8 	c #F2F2F2",
"9 	c #F6F6F6",
"0 	c #F9F9F9",
"a 	c #FBFBFB",
"b 	c #FAFAFA",
"c 	c #F8F8F8",
"d 	c #ECECEC",
"e 	c #E0E0E0",
"f 	c #CACACA",
"g 	c #707070",
"h 	c #6A6A6A",
"i 	c #616161",
"j 	c #F4F4F4",
"k 	c #FCFCFC",
"l 	c #FDFDFD",
"m 	c #FEFEFE",
"n 	c #C0C0C0",
"o 	c #F5F5F5",
"p 	c #C1C1C1",
"q 	c #5E5E5E",
"r 	c #989898",
"s 	c #BCBCBC",
"t 	c #7D7D7D",
"u 	c #FFFFFF",
"v 	c #E9E9E9",
"w 	c #DBDBDB",
"x 	c #666666",
"y 	c #5C5C5C",
"z 	c #D1D1D1",
"A 	c #F7F7F7",
"B 	c #B9B9B9",
"C 	c #AEAEAE",
"D 	c #B1B1B1",
"E 	c #CCCCCC",
"F 	c #676767",
"G 	c #5F5F5F",
"H 	c #646464",
"I 	c #4B4B4B",
"J 	c #A8A8A8",
"K 	c #D8D8D8",
"L 	c #595959",
"M 	c #949494",
"N 	c #F0F0F0",
"O 	c #C5C5C5",
"P 	c #787878",
"Q 	c #545454",
"R 	c #5A5A5A",
"S 	c #434343",
"T 	c #363636",
"U 	c #9F9F9F",
"V 	c #EFEFEF",
"W 	c #555555",
"X 	c #A2A2A2",
"Y 	c #B2B2B2",
"Z 	c #444444",
"` 	c #535353",
" .	c #5B5B5B",
"..	c #303030",
"+.	c #1E1E1E",
"@.	c #606060",
"#.	c #525252",
"$.	c #343434",
"%.	c #171717",
"&.	c #0C0C0C",
"*.	c #262626",
"=.	c #B0B0B0",
"-.	c #1D1D1D",
";.	c #121212",
">.	c #959595",
",.	c #939393",
"'.	c #393939",
").	c #202020",
"!.	c #191919",
"~.	c #2D2D2D",
"{.	c #A1A1A1",
"].	c #2B2B2B",
"^.	c #242424",
"/.	c #9A9A9A",
"(.	c #9D9D9D",
"_.	c #2F2F2F",
":.	c #2A2A2A",
"<.	c #383838",
"[.	c #3A3A3A",
"}.	c #A3A3A3",
"|.	c #575757",
"1.	c #9C9C9C",
"2.	c #3C3C3C",
"3.	c #464646",
"4.	c #A6A6A6",
"5.	c #ACACAC",
"6.	c #585858",
"7.	c #4D4D4D",
"8.	c #A5A5A5",
"9.	c #565656",
"0.	c #E8E8E8",
"a.	c #505050",
"b.	c #4E4E4E",
"c.	c #626262",
"d.	c #4C4C4C",
"e.	c #4F4F4F",
"f.	c #929292",
"g.	c #CBCBCB",
"h.	c #494949",
"i.	c #909090",
"j.	c #A0A0A0",
"k.	c #515151",
"l.	c #4A4A4A",
"m.	c #484848",
"                  . . . . . .                   ",
"            + @ # $ % & & % $ # @ +             ",
"          # $ * = - ; > > ; - = * $ #           ",
"        , ' ) ; ! ~ { ] ^ / ( _ ; ) ' ,         ",
"      : = < [ { } | 1 1 1 | } 2 3 4 < = :       ",
"    % ) 5 6 7 8 9 0 a a a b c 1 d e f 5 ) %     ",
"  g h i [ d j 0 k l m n m m l a o } e p i h g   ",
"  * q r ] 1 0 l m m s t m u m m v o 7 w r q *   ",
"  x y z | A k m m B & g m u m C D a 8 ^ E y x   ",
"F G # ~ j b l m s * i H m m > I J l A 7 K # G F ",
"H L M ~ N a m O P i Q R m C S T U m 0 V ~ M L H ",
"i W X e | b Y = y I Z ` s  ...+.r m b | e X W i ",
"@.` X / | b D #.$.%.&.*.=.Z -.;.>.m a | e X ` @.",
"q Q ,.~ V 0 m > '.).!.~.m {.].^./.m 0 V ~ ,.Q q ",
"y W , K 7 A l m (._.:.<.m m ; [.}.l A 7 K , W y ",
"  |.#.E ^ 8 a m m 1.2.3.m m m 4.5.a 8 ^ E #.|.  ",
"  6.7.,.w 7 o a m m 8.9.m u m m 0.o 7 w ,.7.6.  ",
"  |.` a.n e } o a l m =.m m l a o } e n a.` |.  ",
"    9.b.c.f e 7 8 A 0 b b 0 A 8 7 e f c.b.9.    ",
"      Q d.c.n w ^ 7 V | | V 7 ^ w n c.d.Q       ",
"        Q 7.e.f.g.K ~ / e ~ K E f.e.7.Q         ",
"          Q a.h.b.< i.j.j.i.< b.h.a.Q           ",
"            Q ` k.7.l.m.m.l.7.k.` Q             ",
"                  ` ` ` ` ` `                   "};
