/* XPM */
static char * button_delete_xpm[] = {
"24 24 164 2",
"  	c None",
". 	c #BF4242",
"+ 	c #B41F1F",
"@ 	c #B11616",
"# 	c #C04949",
"$ 	c #AB0000",
"% 	c #D5695D",
"& 	c #BE322A",
"* 	c #AA0000",
"= 	c #BD2D25",
"- 	c #D77266",
"; 	c #A70000",
"> 	c #CE4E41",
", 	c #F78382",
"' 	c #F2918B",
") 	c #B92B22",
"! 	c #A50000",
"~ 	c #B82921",
"{ 	c #F28984",
"] 	c #F88A89",
"^ 	c #CF5A4D",
"/ 	c #A20000",
"( 	c #C64132",
"_ 	c #EA7371",
": 	c #E96F6F",
"< 	c #E98781",
"[ 	c #B22A21",
"} 	c #8C0000",
"| 	c #900000",
"1 	c #B32920",
"2 	c #E9817B",
"3 	c #EB7C7B",
"4 	c #C95649",
"5 	c #9F0000",
"6 	c #B02016",
"7 	c #DF685D",
"8 	c #DC6060",
"9 	c #DF7C76",
"0 	c #992920",
"a 	c #6F0000",
"b 	c #9C281F",
"c 	c #DE7871",
"d 	c #E3817A",
"e 	c #9B0000",
"f 	c #AD2015",
"g 	c #D75E52",
"h 	c #D15050",
"i 	c #D05050",
"j 	c #D27169",
"k 	c #85271E",
"l 	c #87271D",
"m 	c #D36E66",
"n 	c #D86860",
"o 	c #AE271E",
"p 	c #970000",
"q 	c #A92014",
"r 	c #D15447",
"s 	c #CA4141",
"t 	c #C74141",
"u 	c #CB655B",
"v 	c #CB645A",
"w 	c #C84141",
"x 	c #CB4343",
"y 	c #D5665D",
"z 	c #AA2318",
"A 	c #930000",
"B 	c #A62013",
"C 	c #CD4A3B",
"D 	c #C53232",
"E 	c #C33232",
"F 	c #C33333",
"G 	c #CE4F4F",
"H 	c #CE5859",
"I 	c #D06755",
"J 	c #A72417",
"K 	c #8F0000",
"L 	c #A32013",
"M 	c #CB4838",
"N 	c #C12A2A",
"O 	c #C23131",
"P 	c #C13333",
"Q 	c #B61414",
"R 	c #BB2817",
"S 	c #A21F11",
"T 	c #8A0000",
"U 	c #A02013",
"V 	c #C52817",
"W 	c #BA0000",
"X 	c #C52818",
"Y 	c #A02014",
"Z 	c #860000",
"` 	c #9D2014",
" .	c #CE2919",
"..	c #C70000",
"+.	c #C60000",
"@.	c #C30000",
"#.	c #CE2A1B",
"$.	c #9D2115",
"%.	c #820000",
"&.	c #9A2116",
"*.	c #D72A1C",
"=.	c #D30000",
"-.	c #D10000",
";.	c #C62B1E",
">.	c #C72B1E",
",.	c #D72B1E",
"'.	c #9A231A",
").	c #7F0000",
"!.	c #98231B",
"~.	c #DF2C20",
"{.	c #DF0000",
"].	c #DE0000",
"^.	c #D12E25",
"/.	c #42231A",
"(.	c #42231B",
"_.	c #D22E26",
":.	c #DF2E26",
"<.	c #982520",
"[.	c #800101",
"}.	c #7B1B14",
"|.	c #982B24",
"1.	c #E82F27",
"2.	c #EC0000",
"3.	c #DD302B",
"4.	c #502520",
"5.	c #410000",
"6.	c #3F0000",
"7.	c #4F2521",
"8.	c #DE312C",
"9.	c #E8302B",
"0.	c #A13633",
"a.	c #A34646",
"b.	c #7C1E16",
"c.	c #B24D43",
"d.	c #F41412",
"e.	c #F40000",
"f.	c #E8312D",
"g.	c #5C2622",
"h.	c #460000",
"i.	c #430000",
"j.	c #5D2623",
"k.	c #E9322E",
"l.	c #F41413",
"m.	c #BC534D",
"n.	c #8F1E1E",
"o.	c #800000",
"p.	c #B8433E",
"q.	c #F51413",
"r.	c #EB322E",
"s.	c #6F2724",
"t.	c #4C0000",
"u.	c #4A0000",
"v.	c #722724",
"w.	c #B8433F",
"x.	c #B24D46",
"y.	c #862B27",
"z.	c #5A0000",
"A.	c #5B0000",
"B.	c #8C2A27",
"C.	c #C65752",
"D.	c #79281D",
"E.	c #710F0B",
"F.	c #952020",
"G.	c #BF4343",
"                                                ",
"                                                ",
"                                                ",
"            . +                 @ #             ",
"          $ % & *             * = - $           ",
"        ; > , ' ) !         ! ~ { ] ^ ;         ",
"      / ( _ : : < [ }     | 1 2 : : 3 4 /       ",
"      5 6 7 8 8 8 9 0 a a b c 8 8 8 d [ 5       ",
"        e f g h h i j k l m h h h n o e         ",
"          p q r s s t u v w s x y z p           ",
"            A B C D D E F G H I J A             ",
"              K L M N O P Q R S K               ",
"              T U V W W W W X Y T               ",
"            Z `  ...+.@.@.+...#.$.Z             ",
"          %.&.*.=.=.-.;.>.-.=.=.,.'.%.          ",
"        ).!.~.{.{.].^./.(._.{.{.{.:.<.[.        ",
"      }.|.1.2.2.2.3.4.5.6.7.8.2.2.2.9.0.a.      ",
"      b.c.d.e.e.f.g.h.    i.j.k.e.e.l.m.n.      ",
"        o.p.q.r.s.t.        u.v.r.q.w.o.        ",
"          o.x.y.z.            A.B.C.o.          ",
"            D.E.                F.G.            ",
"                                                ",
"                                                ",
"                                                "};
