/* XPM */
static char * button_pause_xpm[] = {
"24 24 132 2",
"  	c None",
". 	c #838383",
"+ 	c #808080",
"@ 	c #7F7F7F",
"# 	c #7B7B7B",
"$ 	c #767676",
"% 	c #727272",
"& 	c #6F6F6F",
"* 	c #6C6C6C",
"= 	c #696969",
"- 	c #858585",
"; 	c #9B9B9B",
"> 	c #A7A7A7",
", 	c #777777",
"' 	c #6E6E6E",
") 	c #686868",
"! 	c #CFCFCF",
"~ 	c #DEDEDE",
"{ 	c #E4E4E4",
"] 	c #E6E6E6",
"^ 	c #E5E5E5",
"/ 	c #E1E1E1",
"( 	c #DADADA",
"_ 	c #CDCDCD",
": 	c #747474",
"< 	c #737373",
"[ 	c #C4C4C4",
"} 	c #EDEDED",
"| 	c #F1F1F1",
"1 	c #F3F3F3",
"2 	c #E7E7E7",
"3 	c #DCDCDC",
"4 	c #C2C2C2",
"5 	c #717171",
"6 	c #CECECE",
"7 	c #EBEBEB",
"8 	c #F2F2F2",
"9 	c #F6F6F6",
"0 	c #F9F9F9",
"a 	c #FBFBFB",
"b 	c #FAFAFA",
"c 	c #F8F8F8",
"d 	c #ECECEC",
"e 	c #E0E0E0",
"f 	c #CACACA",
"g 	c #707070",
"h 	c #6A6A6A",
"i 	c #616161",
"j 	c #F4F4F4",
"k 	c #FCFCFC",
"l 	c #FDFDFD",
"m 	c #FEFEFE",
"n 	c #F5F5F5",
"o 	c #C1C1C1",
"p 	c #5E5E5E",
"q 	c #989898",
"r 	c #E3E3E3",
"s 	c #C5C5C5",
"t 	c #C6C6C6",
"u 	c #FFFFFF",
"v 	c #B4B4B4",
"w 	c #DBDBDB",
"x 	c #666666",
"y 	c #5C5C5C",
"z 	c #D1D1D1",
"A 	c #F7F7F7",
"B 	c #C7C7C7",
"C 	c #7E7E7E",
"D 	c #787878",
"E 	c #C0C0C0",
"F 	c #B6B6B6",
"G 	c #565656",
"H 	c #505050",
"I 	c #AEAEAE",
"J 	c #CCCCCC",
"K 	c #676767",
"L 	c #5F5F5F",
"M 	c #BCBCBC",
"N 	c #B1B1B1",
"O 	c #484848",
"P 	c #414141",
"Q 	c #A9A9A9",
"R 	c #D8D8D8",
"S 	c #646464",
"T 	c #595959",
"U 	c #949494",
"V 	c #F0F0F0",
"W 	c #626262",
"X 	c #B9B9B9",
"Y 	c #3B3B3B",
"Z 	c #333333",
"` 	c #A5A5A5",
" .	c #EFEFEF",
"..	c #555555",
"+.	c #A2A2A2",
"@.	c #AFAFAF",
"#.	c #474747",
"$.	c #4D4D4D",
"%.	c #B5B5B5",
"&.	c #ABABAB",
"*.	c #2D2D2D",
"=.	c #242424",
"-.	c #A1A1A1",
";.	c #606060",
">.	c #535353",
",.	c #1B1B1B",
"'.	c #9F9F9F",
").	c #545454",
"!.	c #939393",
"~.	c #A4A4A4",
"{.	c #262626",
"].	c #343434",
"^.	c #A6A6A6",
"/.	c #575757",
"(.	c #525252",
"_.	c #444444",
":.	c #ACACAC",
"<.	c #585858",
"[.	c #D6D6D6",
"}.	c #D9D9D9",
"|.	c #A8A8A8",
"1.	c #D5D5D5",
"2.	c #4E4E4E",
"3.	c #4C4C4C",
"4.	c #4F4F4F",
"5.	c #929292",
"6.	c #CBCBCB",
"7.	c #494949",
"8.	c #909090",
"9.	c #A0A0A0",
"0.	c #515151",
"a.	c #4A4A4A",
"                  . . . . . .                   ",
"            + @ # $ % & & % $ # @ +             ",
"          # $ * = - ; > > ; - = * $ #           ",
"        , ' ) ; ! ~ { ] ^ / ( _ ; ) ' ,         ",
"      : = < [ { } | 1 1 1 | } 2 3 4 < = :       ",
"    % ) 5 6 7 8 9 0 a a a b c 1 d e f 5 ) %     ",
"  g h i [ d j 0 k l m m m m l a n } e o i h g   ",
"  * p q ] 1 0 r s t ^ u m 3 v v w n 7 w q p *   ",
"  x y z | A k B C D E u m F G H I a 8 ^ J y x   ",
"K L # ~ j b l [ < * M m m N O P Q l A 7 R # L K ",
"S T U ~ V a m 4 = W X u m I Y Z ` m 0  .~ U T S ",
"i ..+.e | b m @.#.$.%.m m &.*.=.-.m b | e +...i ",
";.>.+./ | b m -.,.,.'.u m -.,.,.'.m a | e +.>.;.",
"p ).!.~  .0 m ~.{.{.+.u m ~.{.{.+.m 0  .~ !.).p ",
"y .., R 7 A l Q ].].^.u m Q ].].^.l A 7 R , ..y ",
"  /.(.J ^ 8 a I _._.:.m m @._._.:.a 8 ^ J (./.  ",
"  <.$.!.w 7 n [.> Q R u m }.|.|.1.n 7 w !.$.<.  ",
"  /.>.H E e } n a l m m m m l a n } e E H >./.  ",
"    G 2.W f e 7 8 A 0 b b 0 A 8 7 e f W 2.G     ",
"      ).3.W E w ^ 7  .| |  .7 ^ w E W 3.).      ",
"        ).$.4.5.6.R ~ / e ~ R J 5.4.$.).        ",
"          ).H 7.2.< 8.9.9.8.< 2.7.H ).          ",
"            ).>.0.$.a.O O a.$.0.>.).            ",
"                  >.>.>.>.>.>.                  "};
