/* XPM */
static char * button_stop_xpm[] = {
"24 24 141 2",
"  	c None",
". 	c #838383",
"+ 	c #808080",
"@ 	c #7F7F7F",
"# 	c #7B7B7B",
"$ 	c #767676",
"% 	c #727272",
"& 	c #6F6F6F",
"* 	c #6C6C6C",
"= 	c #696969",
"- 	c #858585",
"; 	c #9B9B9B",
"> 	c #A7A7A7",
", 	c #777777",
"' 	c #6E6E6E",
") 	c #686868",
"! 	c #CFCFCF",
"~ 	c #DEDEDE",
"{ 	c #E4E4E4",
"] 	c #E6E6E6",
"^ 	c #E5E5E5",
"/ 	c #E1E1E1",
"( 	c #DADADA",
"_ 	c #CDCDCD",
": 	c #747474",
"< 	c #737373",
"[ 	c #C4C4C4",
"} 	c #EDEDED",
"| 	c #F1F1F1",
"1 	c #F3F3F3",
"2 	c #E7E7E7",
"3 	c #DCDCDC",
"4 	c #C2C2C2",
"5 	c #717171",
"6 	c #CECECE",
"7 	c #EBEBEB",
"8 	c #F2F2F2",
"9 	c #F6F6F6",
"0 	c #F9F9F9",
"a 	c #FBFBFB",
"b 	c #FAFAFA",
"c 	c #F8F8F8",
"d 	c #ECECEC",
"e 	c #E0E0E0",
"f 	c #CACACA",
"g 	c #707070",
"h 	c #6A6A6A",
"i 	c #616161",
"j 	c #F4F4F4",
"k 	c #FCFCFC",
"l 	c #FDFDFD",
"m 	c #FEFEFE",
"n 	c #F5F5F5",
"o 	c #C1C1C1",
"p 	c #5E5E5E",
"q 	c #989898",
"r 	c #E3E3E3",
"s 	c #C8C8C8",
"t 	c #BFBFBF",
"u 	c #BCBCBC",
"v 	c #BABABA",
"w 	c #BBBBBB",
"x 	c #BDBDBD",
"y 	c #DBDBDB",
"z 	c #666666",
"A 	c #5C5C5C",
"B 	c #D1D1D1",
"C 	c #F7F7F7",
"D 	c #8A8A8A",
"E 	c #7C7C7C",
"F 	c #5F5F5F",
"G 	c #606060",
"H 	c #B1B1B1",
"I 	c #CCCCCC",
"J 	c #676767",
"K 	c #828282",
"L 	c #646464",
"M 	c #575757",
"N 	c #505050",
"O 	c #4E4E4E",
"P 	c #555555",
"Q 	c #ADADAD",
"R 	c #D8D8D8",
"S 	c #595959",
"T 	c #949494",
"U 	c #F0F0F0",
"V 	c #C6C6C6",
"W 	c #4A4A4A",
"X 	c #424242",
"Y 	c #414141",
"Z 	c #454545",
"` 	c #4C4C4C",
" .	c #A9A9A9",
"..	c #EFEFEF",
"+.	c #A2A2A2",
"@.	c #B5B5B5",
"#.	c #5A5A5A",
"$.	c #4D4D4D",
"%.	c #3C3C3C",
"&.	c #343434",
"*.	c #363636",
"=.	c #3B3B3B",
"-.	c #434343",
";.	c #A5A5A5",
">.	c #535353",
",.	c #2B2B2B",
"'.	c #1A1A1A",
").	c #0D0D0D",
"!.	c #A4A4A4",
"~.	c #545454",
"{.	c #939393",
"].	c #ACACAC",
"^.	c #323232",
"/.	c #242424",
"(.	c #1B1B1B",
"_.	c #A6A6A6",
":.	c #3D3D3D",
"<.	c #333333",
"[.	c #2D2D2D",
"}.	c #AAAAAA",
"|.	c #525252",
"1.	c #B6B6B6",
"2.	c #565656",
"3.	c #4B4B4B",
"4.	c #3F3F3F",
"5.	c #AFAFAF",
"6.	c #585858",
"7.	c #ABABAB",
"8.	c #A8A8A8",
"9.	c #B0B0B0",
"0.	c #D6D6D6",
"a.	c #C0C0C0",
"b.	c #626262",
"c.	c #4F4F4F",
"d.	c #929292",
"e.	c #CBCBCB",
"f.	c #494949",
"g.	c #909090",
"h.	c #A0A0A0",
"i.	c #515151",
"j.	c #484848",
"                  . . . . . .                   ",
"            + @ # $ % & & % $ # @ +             ",
"          # $ * = - ; > > ; - = * $ #           ",
"        , ' ) ; ! ~ { ] ^ / ( _ ; ) ' ,         ",
"      : = < [ { } | 1 1 1 | } 2 3 4 < = :       ",
"    % ) 5 6 7 8 9 0 a a a b c 1 d e f 5 ) %     ",
"  g h i [ d j 0 k l m m m m l a n } e o i h g   ",
"  * p q ] 1 0 r s [ t u v v w x 3 n 7 y q p *   ",
"  z A B | C k f D E g z F A A G H a 8 ^ I A z   ",
"J F # ~ j b l s K % L M N O N P Q l C 7 R # F J ",
"L S T ~ U a m V E h S W X Y Z `  .m 0 ..~ T S L ",
"i P +.e | b m @.i #.$.%.&.*.=.-.;.m b | e +.P i ",
"G >.+./ | b m  .%.,.'.).).'.,.%.!.m a | e +.>.G ",
"p ~.{.~ ..0 m ].Y ^./.(.(./.^.Y _.m 0 ..~ {.~.p ",
"A P , R 7 C l H W :.<.[.[.<.:.W }.l C 7 R , P A ",
"  M |.I ^ 8 a 1.2.3.-.4.4.-.3.2.5.a 8 ^ I |.M   ",
"  6.$.{.y 7 n ( 5.7.8._._.8.].9.0.n 7 y {.$.6.  ",
"  M >.N a.e } n a l m m m m l a n } e a.N >.M   ",
"    2.O b.f e 7 8 C 0 b b 0 C 8 7 e f b.O 2.    ",
"      ~.` b.a.y ^ 7 ..| | ..7 ^ y a.b.` ~.      ",
"        ~.$.c.d.e.R ~ / e ~ R I d.c.$.~.        ",
"          ~.N f.O < g.h.h.g.< O f.N ~.          ",
"            ~.>.i.$.W j.j.W $.i.>.~.            ",
"                  >.>.>.>.>.>.                  "};
