/* XPM */
static char * cursor_dot_xpm[] = {
"32 32 4 1",
" 	c None",
".	c #000000",
"+	c #FFFFFF",
"@	c #99FF0B",
".+.+.+.+.+.+.+.+.+.+.+.+.+.+.+. ",
"+                              .",
".                              +",
"+                              .",
".                              +",
"+                              .",
".                              +",
"+                              .",
".                              +",
"+                              .",
".                              +",
"+                              .",
".                              +",
"+                              .",
".                              +",
"+              @               .",
".                              +",
"+                              .",
".                              +",
"+                              .",
".                              +",
"+                              .",
".                              +",
"+                              .",
".                              +",
"+                              .",
".                              +",
"+                              .",
".                              +",
"+                              .",
".                              +",
" .+.+.+.+.+.+.+.+.+.+.+.+.+.+.+."};
