/* XPM */
static char * cursor_rotate_xpm[] = {
"32 32 18 1",
" 	c None",
".	c #000000",
"+	c #0F0F0F",
"@	c #060606",
"#	c #828282",
"$	c #020202",
"%	c #080808",
"&	c #FFFFFF",
"*	c #030303",
"=	c #9D9D9D",
"-	c #191919",
";	c #4C4C4C",
">	c #272727",
",	c #EAEAEA",
"'	c #909090",
")	c #0D0D0D",
"!	c #0A0A0A",
"~	c #0E0E0E",
"..         +........@           ",
"..      #$.............         ",
"..     ......%&&&&*......       ",
"..   =....-&&&&&&&&&&&....      ",
"..  ;...>&&&&     &&&&,*....    ",
".. '...&&&           &&&&...    ",
".. ...&&&             &&&&...   ",
"..*..&&&               &&&&...  ",
"....)&&                 &&&!... ",
"....&&                   &&&... ",
"............              &&~.. ",
"............              &&&...",
"&&&&&&&&&&&&              &&&...",
"                           &&+..",
"             &&&           &&&&&",
"             &.&                ",
"             &&&                ",
"&&&&                            ",
"..+&&                           ",
"...&&                     &&&&&&",
"@..&&               ............",
" ..~&&              ............",
" ...&&&                 &&&&....",
" ...!&&&               &&&&!....",
"  ...&&&&             &&&&&.....",
"   ...&&&&           &&&&&... ..",
"    ...&&&&&&     &&&&&&&...  ..",
"    ....*,&&&&&&&&&&&&&&....  ..",
"      ....&&&&&&&&&&&&....    ..",
"       ......$&&&&%......     ..",
"         ..............       ..",
"           ..........         .."};
