/* XPM */
static char * editor_apply_xpm[] = {
"16 16 182 2",
"  	c None",
". 	c #3FA41A",
"+ 	c #3AA316",
"@ 	c #3D9E10",
"# 	c #5BB53A",
"$ 	c #6FC85B",
"% 	c #69CC5F",
"& 	c #53C44D",
"* 	c #3AB531",
"= 	c #2CA313",
"- 	c #2E9804",
"; 	c #58AE32",
"> 	c #ADE59A",
", 	c #B4EEA3",
"' 	c #A4EA96",
") 	c #8CE485",
"! 	c #6AD870",
"~ 	c #47C956",
"{ 	c #28B93B",
"] 	c #1BA61D",
"^ 	c #299403",
"/ 	c #5FB23A",
"( 	c #CAF3B7",
"_ 	c #D1F9BA",
": 	c #C9F8B1",
"< 	c #B8F5A4",
"[ 	c #9FEF95",
"} 	c #79E57F",
"| 	c #50D465",
"1 	c #2CC048",
"2 	c #29B23E",
"3 	c #0A8D0A",
"4 	c #248F00",
"5 	c #41A116",
"6 	c #C3EFAF",
"7 	c #DBFDC2",
"8 	c #D8FDBC",
"9 	c #CFFCB3",
"0 	c #BDF9A7",
"a 	c #A4F499",
"b 	c #7EE983",
"c 	c #54D96A",
"d 	c #56D16F",
"e 	c #E9F8EC",
"f 	c #86C98C",
"g 	c #068003",
"h 	c #2A9301",
"i 	c #79C75B",
"j 	c #CDF7B5",
"k 	c #D8FCBB",
"l 	c #D3FCB5",
"m 	c #C8FAAC",
"n 	c #B4F69E",
"o 	c #8EEF81",
"p 	c #5FE264",
"q 	c #5BDB6F",
"r 	c #ECFAEF",
"s 	c #FFFFFF",
"t 	c #FDFEFD",
"u 	c #5FAE61",
"v 	c #168B00",
"w 	c #3EA611",
"x 	c #93DB81",
"y 	c #BFF2A7",
"z 	c #CFF8B4",
"A 	c #DBFAC9",
"B 	c #A9F18A",
"C 	c #7FE963",
"D 	c #64E258",
"E 	c #71E174",
"F 	c #EDFBEE",
"G 	c #FEFEFE",
"H 	c #FDFDFD",
"I 	c #B1D9B8",
"J 	c #098B15",
"K 	c #068501",
"L 	c #2A9900",
"M 	c #40AC16",
"N 	c #84D778",
"O 	c #ADE89A",
"P 	c #F2FCED",
"Q 	c #B6EEA5",
"R 	c #61D84D",
"S 	c #74DD6E",
"T 	c #F1FBF2",
"U 	c #FCFCFC",
"V 	c #AAD6B2",
"W 	c #078D1D",
"X 	c #008E0F",
"Y 	c #028502",
"Z 	c #299C01",
"` 	c #3DAE13",
" .	c #63C85D",
"..	c #A0DC99",
"+.	c #FBFDFB",
"@.	c #B4E9AF",
"#.	c #F1FAF0",
"$.	c #FAFAFA",
"%.	c #A6D4AD",
"&.	c #07901E",
"*.	c #00A119",
"=.	c #00930E",
"-.	c #038803",
";.	c #29A001",
">.	c #38AE09",
",.	c #44BA3F",
"'.	c #47AD43",
").	c #74B870",
"!.	c #FCFDFC",
"~.	c #FAFAFB",
"{.	c #F8F8F8",
"].	c #A8D3AE",
"^.	c #07901B",
"/.	c #00A319",
"(.	c #00A617",
"_.	c #01920C",
":.	c #068C02",
"<.	c #2EA600",
"[.	c #34B423",
"}.	c #2AAC2C",
"|.	c #038902",
"1.	c #5DAD5C",
"2.	c #F3F7F3",
"3.	c #F9F9F9",
"4.	c #F6F6F7",
"5.	c #A2CFA8",
"6.	c #078E17",
"7.	c #00A316",
"8.	c #00AB17",
"9.	c #05AA13",
"0.	c #059106",
"a.	c #189602",
"b.	c #33B409",
"c.	c #16A922",
"d.	c #009B0A",
"e.	c #008904",
"f.	c #52A754",
"g.	c #F0F2F1",
"h.	c #99CA9D",
"i.	c #058D12",
"j.	c #01A512",
"k.	c #03AE15",
"l.	c #0CB813",
"m.	c #15B40A",
"n.	c #089101",
"o.	c #2DAA01",
"p.	c #21B00C",
"q.	c #00A116",
"r.	c #019F13",
"s.	c #03900B",
"t.	c #359D39",
"u.	c #08910E",
"v.	c #09AC0F",
"w.	c #10B810",
"x.	c #1CC50E",
"y.	c #2BD108",
"z.	c #21B901",
"A.	c #21A500",
"B.	c #32B902",
"C.	c #1EB309",
"D.	c #02A616",
"E.	c #08A916",
"F.	c #0FA211",
"G.	c #18B70F",
"H.	c #22C50D",
"I.	c #2DD00A",
"J.	c #36DA04",
"K.	c #33D401",
"L.	c #2BB701",
"M.	c #34BA00",
"N.	c #30BD04",
"O.	c #19B50A",
"P.	c #13B50E",
"Q.	c #18BC0C",
"R.	c #21C409",
"S.	c #29CA05",
"T.	c #2FC901",
"U.	c #37C302",
"V.	c #36C302",
"W.	c #33C203",
"X.	c #34C302",
"Y.	c #37C401",
"              . +               ",
"        @ # $ % & * = -         ",
"      ; > , ' ) ! ~ { ] ^       ",
"    / ( _ : < [ } | 1 2 3 4     ",
"  5 6 7 8 9 0 a b c d e f g h   ",
"  i j k l m n o p q r s t u v   ",
"w x y z A B C D E F G H I J K L ",
"M N O P G Q R S T G U V W X Y Z ",
"`  ...+.s s @.#.U $.%.&.*.=.-.;.",
">.,.'.).!.G H ~.{.].^./.(._.:.<.",
"  [.}.|.1.2.3.4.5.6.7.8.9.0.a.  ",
"  b.c.d.e.f.g.h.i.j.k.l.m.n.o.  ",
"    p.q.r.s.t.u.v.w.x.y.z.A.    ",
"    B.C.D.E.F.G.H.I.J.K.L.M.    ",
"        N.O.P.Q.R.S.T.U.        ",
"            V.W.X.Y.            "};
