/* XPM */
static char * editor_target2_xpm[] = {
"16 16 256 2",
"  	c None",
". 	c #FFFFFF",
"+ 	c #FFFECB",
"@ 	c #FFFE65",
"# 	c #FFFE33",
"$ 	c #FDFD00",
"% 	c #FFCBFE",
"& 	c #FFCBCB",
"* 	c #FFCB99",
"= 	c #FFCB65",
"- 	c #FFCC33",
"; 	c #FDCB00",
"> 	c #FF99FE",
", 	c #FF99CB",
"' 	c #FF9999",
") 	c #FF9865",
"! 	c #FF9833",
"~ 	c #FD9800",
"{ 	c #FF65FE",
"] 	c #FF65CB",
"^ 	c #FF6598",
"/ 	c #FF6565",
"( 	c #FF6533",
"_ 	c #FD6500",
": 	c #FF33FE",
"< 	c #FF33CB",
"[ 	c #FF3398",
"} 	c #FF3365",
"| 	c #FF3333",
"1 	c #FD3200",
"2 	c #FD00FD",
"3 	c #FD00CB",
"4 	c #FD0098",
"5 	c #FD0065",
"6 	c #FD0032",
"7 	c #FD0000",
"8 	c #CBFFFF",
"9 	c #CBFFCB",
"0 	c #CCFF99",
"a 	c #CBFF65",
"b 	c #CCFF33",
"c 	c #CBFD00",
"d 	c #CBCBFF",
"e 	c #CCCCCC",
"f 	c #CBCB98",
"g 	c #CCCB66",
"h 	c #CBCB32",
"i 	c #CCCB00",
"j 	c #CB99FF",
"k 	c #CB98CB",
"l 	c #CB9898",
"m 	c #CC9866",
"n 	c #CB9832",
"o 	c #CC9900",
"p 	c #CB65FF",
"q 	c #CC66CB",
"r 	c #CC6698",
"s 	c #CC6666",
"t 	c #CB6532",
"u 	c #CC6500",
"v 	c #CB33FF",
"w 	c #CB32CB",
"x 	c #CB3298",
"y 	c #CB3265",
"z 	c #CB3232",
"A 	c #CC3200",
"B 	c #CB00FD",
"C 	c #CC00CB",
"D 	c #CC0098",
"E 	c #CC0065",
"F 	c #CC0032",
"G 	c #CC0000",
"H 	c #99FFFF",
"I 	c #99FFCB",
"J 	c #99FF99",
"K 	c #98FF65",
"L 	c #99FF33",
"M 	c #98FD00",
"N 	c #99CCFF",
"O 	c #98CBCB",
"P 	c #98CB98",
"Q 	c #99CC66",
"R 	c #98CB32",
"S 	c #99CC00",
"T 	c #9999FF",
"U 	c #9898CB",
"V 	c #999999",
"W 	c #989865",
"X 	c #999833",
"Y 	c #989700",
"Z 	c #9865FF",
"` 	c #9866CC",
" .	c #986598",
"..	c #986565",
"+.	c #996533",
"@.	c #986500",
"#.	c #9833FF",
"$.	c #9832CB",
"%.	c #993398",
"&.	c #993365",
"*.	c #993333",
"=.	c #983200",
"-.	c #9800FD",
";.	c #9800CC",
">.	c #980097",
",.	c #980065",
"'.	c #980032",
").	c #980000",
"!.	c #65FFFF",
"~.	c #65FFCB",
"{.	c #65FF98",
"].	c #65FF65",
"^.	c #66FF33",
"/.	c #65FD00",
"(.	c #65CBFF",
"_.	c #66CCCC",
":.	c #66CC98",
"<.	c #66CC66",
"[.	c #65CB32",
"}.	c #66CC00",
"|.	c #6598FF",
"1.	c #6699CC",
"2.	c #659898",
"3.	c #659865",
"4.	c #669933",
"5.	c #659800",
"6.	c #6565FF",
"7.	c #6666CC",
"8.	c #656598",
"9.	c #666666",
"0.	c #656532",
"a.	c #666500",
"b.	c #6533FF",
"c.	c #6532CB",
"d.	c #653399",
"e.	c #653265",
"f.	c #653232",
"g.	c #663200",
"h.	c #6500FD",
"i.	c #6500CC",
"j.	c #650098",
"k.	c #660065",
"l.	c #660032",
"m.	c #660000",
"n.	c #33FFFF",
"o.	c #33FFCC",
"p.	c #33FF98",
"q.	c #33FF66",
"r.	c #33FF33",
"s.	c #32FD00",
"t.	c #33CCFF",
"u.	c #32CBCB",
"v.	c #32CB98",
"w.	c #32CB65",
"x.	c #32CB32",
"y.	c #33CC00",
"z.	c #3399FF",
"A.	c #3298CB",
"B.	c #339999",
"C.	c #339965",
"D.	c #339933",
"E.	c #329800",
"F.	c #3366FF",
"G.	c #3265CB",
"H.	c #336699",
"I.	c #326565",
"J.	c #326532",
"K.	c #336600",
"L.	c #3333FF",
"M.	c #3232CB",
"N.	c #333399",
"O.	c #323265",
"P.	c #333333",
"Q.	c #323100",
"R.	c #3200FD",
"S.	c #3200CC",
"T.	c #320098",
"U.	c #320066",
"V.	c #320031",
"W.	c #320000",
"X.	c #00FDFD",
"Y.	c #00FDCB",
"Z.	c #00FD98",
"`.	c #00FD65",
" +	c #00FD32",
".+	c #00FD00",
"++	c #00CBFD",
"@+	c #00CCCC",
"#+	c #00CC99",
"$+	c #00CC65",
"%+	c #00CC33",
"&+	c #00CC00",
"*+	c #0098FD",
"=+	c #0099CC",
"-+	c #009898",
";+	c #009865",
">+	c #009832",
",+	c #009800",
"'+	c #0065FD",
")+	c #0066CC",
"!+	c #006598",
"~+	c #006666",
"{+	c #006632",
"]+	c #006600",
"^+	c #0032FD",
"/+	c #0033CC",
"(+	c #003298",
"_+	c #003366",
":+	c #003232",
"<+	c #003200",
"[+	c #0000FD",
"}+	c #0000CC",
"|+	c #000098",
"1+	c #000066",
"2+	c #000032",
"3+	c #EE0000",
"4+	c #DC0000",
"5+	c #BA0000",
"6+	c #AA0000",
"7+	c #880000",
"8+	c #760000",
"9+	c #540000",
"0+	c #440000",
"a+	c #220000",
"b+	c #100000",
"c+	c #00EE00",
"d+	c #00DC00",
"e+	c #00BA00",
"f+	c #00AA00",
"g+	c #008800",
"h+	c #007600",
"i+	c #005400",
"j+	c #004400",
"k+	c #002200",
"l+	c #001000",
"m+	c #0000EE",
"n+	c #0000DC",
"o+	c #0000BA",
"p+	c #0000AA",
"q+	c #000088",
"r+	c #000076",
"s+	c #000054",
"t+	c #000044",
"u+	c #000022",
"v+	c #000010",
"w+	c #EEEEEE",
"x+	c #DDDDDD",
"y+	c #BBBBBB",
"z+	c #AAAAAA",
"A+	c #888888",
"B+	c #777777",
"C+	c #555555",
"D+	c #444444",
"E+	c #222222",
"F+	c #111111",
"G+	c #000000",
"                                ",
"          G+G+G+G+G+            ",
"      G+G+. x+G+x+. G+G+        ",
"    G+x+. x+. G+. x+. x+G+      ",
"  G+x+. x+. x+G+x+. x+. x+G+    ",
"  G+. x+. x+G+G+G+x+. x+. G+    ",
"G+. x+. x+G++ G++ G+x+. x+. G+  ",
"G+x+. x+G++ d+d+d++ G+x+. x+G+  ",
"G+G+G+G+G+G+d+d+d+G+G+G+G+G+G+  ",
"G+x+. x+G++ d+d+d++ G+x+. x+G+  ",
"G+. x+. x+G++ G++ G+x+. x+. G+  ",
"  G+. x+. x+G+G+G+x+. x+. G+    ",
"  G+x+. x+. x+G+x+. x+. x+G+    ",
"    G+x+. x+. G+. x+. x+G+      ",
"      G+G+. x+G+x+. G+G+        ",
"          G+G+G+G+G+            "};
