/* XPM */
static char * editor_resize_xpm[] = {
"16 16 83 1",
" 	c None",
".	c #6587ED",
"+	c #6688EE",
"@	c #5E80E5",
"#	c #5F81E6",
"$	c #5577DC",
"%	c #5375D9",
"&	c #5476DA",
"*	c #486ACE",
"=	c #FFFFFF",
"-	c #3C5EC2",
";	c #FDFEFE",
">	c #59A2DB",
",	c #5CA4DB",
"'	c #60A8DB",
")	c #64ACDB",
"!	c #68B1DB",
"~	c #6DB6DB",
"{	c #71BADB",
"]	c #3254B7",
"^	c #F9FDFD",
"/	c #5DA5D9",
"(	c #71C6FF",
"_	c #77CCFF",
":	c #6DB6E0",
"<	c #81D6FF",
"[	c #9DE0F2",
"}	c #A5D2D0",
"|	c #294BAF",
"1	c #F5FBFB",
"2	c #61A8D7",
"3	c #79CEFF",
"4	c #7FD4FF",
"5	c #86C4D9",
"6	c #C9EBD1",
"7	c #C3E5CC",
"8	c #A4C6B1",
"9	c #2345AB",
"0	c #F1FAFA",
"a	c #67ACD3",
"b	c #6FB7DA",
"c	c #75BEDE",
"d	c #C7D7AE",
"e	c #BFCD9E",
"f	c #B5C68B",
"g	c #8FB7A4",
"h	c #2244AC",
"i	c #EDF8F8",
"j	c #71B2CF",
"k	c #91DFFF",
"l	c #B9E8E9",
"m	c #BECA9B",
"n	c #B9D2A4",
"o	c #A7C383",
"p	c #87AD92",
"q	c #2446B2",
"r	c #E9F6F6",
"s	c #B0BA93",
"t	c #D0DDA8",
"u	c #BCCE90",
"v	c #A3B785",
"w	c #C7D6B6",
"x	c #B6C7A8",
"y	c #8BAA9B",
"z	c #294BBC",
"A	c #E5F5F5",
"B	c #9CA97B",
"C	c #A2B481",
"D	c #99AE7E",
"E	c #8CA471",
"F	c #7D935F",
"G	c #8F9E85",
"H	c #90ABAA",
"I	c #2F51C8",
"J	c #E9FAFA",
"K	c #E3F4F4",
"L	c #3759D6",
"M	c #28429F",
"N	c #3658D4",
"O	c #3D5FE0",
"P	c #2E48A9",
"Q	c #4163E9",
"R	c #4264EA",
"..+         +.. ",
"@#           #@ ",
"$ %&&&&&&&&&% $ ",
"  *=========*   ",
"  -;>,')!~{;-   ",
"  ]^/(_:<[}^]   ",
"  |123456781|   ",
"  90abcdefg09   ",
"  hijklmnopih   ",
"  qrstuvwxyrq   ",
"  zABCDEFGHAz   ",
"  IJKKKKKKKJI   ",
"L MNNNNNNNNNM L ",
"OP           PO ",
"QQR         RQQ ",
"                "};
