/* XPM */
static char * editor_apply_off_xpm[] = {
"16 16 101 2",
"  	c None",
". 	c #8E8E8E",
"+ 	c #ABABAB",
"@ 	c #979797",
"# 	c #CCCCCC",
"$ 	c #C6C6C6",
"% 	c #CFCFCF",
"& 	c #B8B8B8",
"* 	c #C3C3C3",
"= 	c #A8A8A8",
"- 	c #B1B1B1",
"; 	c #919191",
"> 	c #EFEFEF",
", 	c #F4F4F4",
"' 	c #D9D9D9",
") 	c #D5D5D5",
"! 	c #B3B3B3",
"~ 	c #C4C4C4",
"{ 	c #A6A6A6",
"] 	c #959595",
"^ 	c #A1A1A1",
"/ 	c #F5F5F5",
"( 	c #FBFBFB",
"_ 	c #F0F0F0",
": 	c #EDEDED",
"< 	c #C5C5C5",
"[ 	c #CACACA",
"} 	c #BCBCBC",
"| 	c #A0A0A0",
"1 	c #898989",
"2 	c #939393",
"3 	c #8B8B8B",
"4 	c #F1F1F1",
"5 	c #F3F3F3",
"6 	c #E8E8E8",
"7 	c #E5E5E5",
"8 	c #DFDFDF",
"9 	c #DEDEDE",
"0 	c #D7D7D7",
"a 	c #FCFCFC",
"b 	c #838383",
"c 	c #8C8C8C",
"d 	c #C1C1C1",
"e 	c #F7F7F7",
"f 	c #E9E9E9",
"g 	c #C8C8C8",
"h 	c #C2C2C2",
"i 	c #CECECE",
"j 	c #FFFFFF",
"k 	c #FEFEFE",
"l 	c #BBBBBB",
"m 	c #A4A4A4",
"n 	c #9E9E9E",
"o 	c #E1E1E1",
"p 	c #E0E0E0",
"q 	c #ECECEC",
"r 	c #F6F6F6",
"s 	c #BFBFBF",
"t 	c #FAFAFA",
"u 	c #767676",
"v 	c #A5A5A5",
"w 	c #EBEBEB",
"x 	c #F9F9F9",
"y 	c #BABABA",
"z 	c #BDBDBD",
"A 	c #FDFDFD",
"B 	c #6F6F6F",
"C 	c #848484",
"D 	c #818181",
"E 	c #AFAFAF",
"F 	c #DBDBDB",
"G 	c #F8F8F8",
"H 	c #737373",
"I 	c #969696",
"J 	c #B4B4B4",
"K 	c #B0B0B0",
"L 	c #828282",
"M 	c #8D8D8D",
"N 	c #AEAEAE",
"O 	c #8F8F8F",
"P 	c #D4D4D4",
"Q 	c #B6B6B6",
"R 	c #B7B7B7",
"S 	c #7D7D7D",
"T 	c #797979",
"U 	c #B2B2B2",
"V 	c #AAAAAA",
"W 	c #9B9B9B",
"X 	c #777777",
"Y 	c #9D9D9D",
"Z 	c #ADADAD",
"` 	c #929292",
" .	c #D2D2D2",
"..	c #E4E4E4",
"+.	c #DADADA",
"@.	c #D1D1D1",
"#.	c #CDCDCD",
"$.	c #DCDCDC",
"%.	c #C7C7C7",
"&.	c #D6D6D6",
"*.	c #D0D0D0",
"              . +               ",
"        @ # $ % & * = -         ",
"      ; > , > ' ) ! ~ { ]       ",
"    ^ / ( _ : > < [ } | 1 2     ",
"  3 4 , 5 6 7 8 9 0 } a < b c   ",
"  d , 4 e f 6 g h i ( j k l m   ",
"n o p q r # s } l t j k g u ^ v ",
"m ) w x k i y z A j a s B C D 2 ",
"E ' F j j j i t k G * H 2 I ! J ",
"i h 3 K G a A t a z L M N 2 O P ",
"  Q R S ] r a e z T ; R U | !   ",
"  V W ] C ! t y X Y ^ i N J P   ",
"    # = Z X M L ` v  ...+.<     ",
"    s v m Q V ! @.P #.$.%.!     ",
"        Q n &.%.9 *.f ~         ",
"            K ) P *.            "};
