/* XPM */
static char * editor_rotate_xpm[] = {
"16 16 92 2",
"  	c None",
". 	c #0079C0",
"+ 	c #0071B7",
"@ 	c #0075BC",
"# 	c #007AC0",
"$ 	c #208FCE",
"% 	c #379ED7",
"& 	c #75C5F0",
"* 	c #0078BF",
"= 	c #55A9DB",
"- 	c #007BC2",
"; 	c #0072B9",
"> 	c #0077BD",
", 	c #6FC2EE",
"' 	c #51A6D9",
") 	c #6FC2ED",
"! 	c #51A7DA",
"~ 	c #208ECD",
"{ 	c #007AC1",
"] 	c #208ECE",
"^ 	c #6FC1ED",
"/ 	c #0071B6",
"( 	c #67BCEA",
"_ 	c #4AA3D8",
": 	c #006DB3",
"< 	c #006DB4",
"[ 	c #208CCC",
"} 	c #67BDEA",
"| 	c #4BA3D8",
"1 	c #0076BC",
"2 	c #0073BA",
"3 	c #5DB7E7",
"4 	c #5EB7E7",
"5 	c #5DB6E7",
"6 	c #449ED5",
"7 	c #0074BB",
"8 	c #208AC9",
"9 	c #2480BD",
"0 	c #006FB4",
"a 	c #0071B9",
"b 	c #006CB2",
"c 	c #0072B8",
"d 	c #52B0E3",
"e 	c #3C99D1",
"f 	c #006EB5",
"g 	c #006EB4",
"h 	c #47A8DE",
"i 	c #006BB1",
"j 	c #3BA1DA",
"k 	c #3AA0D9",
"l 	c #006AB0",
"m 	c #0068AE",
"n 	c #0067AC",
"o 	c #0067AD",
"p 	c #0069AF",
"q 	c #2E99D5",
"r 	c #2289C7",
"s 	c #0069AE",
"t 	c #0063AA",
"u 	c #2391D1",
"v 	c #1984C4",
"w 	c #0066AC",
"x 	c #0065AC",
"y 	c #207EBD",
"z 	c #2292D0",
"A 	c #0D72B5",
"B 	c #0062A7",
"C 	c #178BCC",
"D 	c #188BCC",
"E 	c #0064AA",
"F 	c #0061A6",
"G 	c #127FC1",
"H 	c #0065AB",
"I 	c #005EA3",
"J 	c #0E85C9",
"K 	c #1772B3",
"L 	c #005EA4",
"M 	c #207AB8",
"N 	c #0E85C8",
"O 	c #0A7ABE",
"P 	c #0063A9",
"Q 	c #0477BC",
"R 	c #0680C5",
"S 	c #067FC5",
"T 	c #0477BD",
"U 	c #005CA1",
"V 	c #0063A8",
"W 	c #0064A9",
"X 	c #005BA0",
"Y 	c #1171B3",
"Z 	c #007CC3",
"` 	c #0060A5",
".         + @ . . @ +           ",
". .   + # $ % & & % $ # +       ",
"* = * $ = & & = = & & = - ;     ",
"> , ' ) ! ~ . { . # ] ^ ' . /   ",
"@ ( ( _ @ ; :     < ; [ } | 1   ",
"2 3 4 5 6 7           + 8 5 9 0 ",
"; a ; ; ; a ;         b c d e f ",
"                        g h h g ",
"                        i j k l ",
"m n o o p             p o q r s ",
"o t u v w             x y z A o ",
"  B C D m E o     o E F D G B   ",
"  H I J J K I I I L M N O I H   ",
"    P E Q R S Q Q R S T U V     ",
"      W X l Y Z Z l P X E       ",
"          E ` U U ` E           "};
