/* XPM */
static char * select_xpm[] = {
"16 16 8 1",
" 	c None",
".	c #000000",
"+	c #496981",
"@	c #FFFFFF",
"#	c #EFEC30",
"$	c #2C172A",
"%	c #1D3A10",
"&	c #E652D2",
"                ",
" .............. ",
" .++++++++++++. ",
" .+.@.@.@.@.++. ",
" .+@++###++@++. ",
" .+.+++#+++.++. ",
" .+@+++++$+@++. ",
" .$.+++++$$.$$. ",
" .$@%%%%%%%@%$. ",
" .%.%&%%&%%.%%. ",
" .%@%%%%%%%@%&. ",
" .%.@.@.@.@.%%. ",
" .%%%%%%%%%%%%. ",
" .%%&%%%%%%%&%. ",
" .............. ",
"                "};
